M48
; DRILL file {KiCad (5.1.4-0)} date 2020 December 01, Tuesday 00:52:04
; FORMAT={-:-/ absolute / metric / decimal}
; #@! TF.CreationDate,2020-12-01T00:52:04+01:00
; #@! TF.GenerationSoftware,Kicad,Pcbnew,(5.1.4-0)
; #@! TF.FileFunction,Plated,1,2,PTH
FMAT,2
METRIC
T1C0.400
T2C0.600
T3C1.470
%
G90
G05
T1
X166.31Y-121.92
X171.25Y-121.92
X187.051Y-116.681
X187.28Y-92.7
X188.42Y-111.92
X188.83Y-88.26
X189.575Y-109.68
X190.13Y-119.96
X191.29Y-91.65
X191.29Y-109.73
X191.294Y-88.51
X191.71Y-94.29
X192.315Y-160.275
X192.74Y-99.7
X193.01Y-115.24
X193.04Y-110.97
X193.27Y-119.73
X193.74Y-88.26
X194.75Y-116.01
X194.989Y-111.006
X195.331Y-100.772
X195.779Y-101.666
X195.94Y-115.25
X196.279Y-102.659
X196.43Y-110.95
X196.779Y-103.525
X196.85Y-101.6
X197.279Y-104.391
X197.76Y-112.35
X197.779Y-105.494
X198.279Y-106.36
X198.77Y-122.12
X199.405Y-120.585
X199.405Y-128.475
X199.42Y-117.72
X199.427Y-152.338
X199.43Y-136.412
X199.44Y-144.4
X200.283Y-103.803
X200.555Y-119.075
X201.141Y-119.886
X201.18Y-110.92
X201.926Y-120.505
X202.43Y-111.13
X202.778Y-121.03
T3
X153.521Y-162.233
X160.261Y-161.069
X96.203Y-137.16
X102.552Y-134.62
X96.203Y-118.11
X102.552Y-115.57
X77.153Y-124.46
X83.502Y-121.92
X134.409Y-158.657
X77.153Y-143.51
X83.502Y-140.97
X115.252Y-76.835
X121.602Y-74.295
X173.987Y-147.31
X180.778Y-146.5
X102.552Y-77.47
X58.102Y-146.685
X64.453Y-144.145
X96.203Y-99.06
X102.552Y-96.52
X153.352Y-140.335
X159.702Y-137.795
X172.403Y-124.46
X178.752Y-121.92
X77.153Y-105.41
X83.502Y-102.87
X58.102Y-127.635
X96.203Y-80.01
X58.102Y-108.585
X64.453Y-106.045
X77.153Y-86.36
X83.502Y-83.82
X64.453Y-125.095
X58.102Y-89.535
X172.403Y-105.41
X178.752Y-102.87
X153.352Y-121.285
X159.702Y-118.745
X153.352Y-102.235
X159.702Y-99.695
X134.302Y-118.11
X140.653Y-115.57
X134.302Y-137.16
X140.653Y-134.62
X134.302Y-99.06
X140.653Y-96.52
X115.252Y-133.985
X172.403Y-86.36
X178.752Y-83.82
X64.453Y-86.995
X153.352Y-83.185
X159.702Y-80.645
X121.602Y-131.445
X115.252Y-114.935
X121.602Y-112.395
X134.302Y-80.01
X140.653Y-77.47
X172.687Y-166.64
X179.478Y-165.83
X115.252Y-95.885
X121.602Y-93.345
X141.104Y-157.258
T2
G00X186.974Y-80.688
M15
G01X186.974Y-80.087
M16
G05
G00X204.706Y-89.58
M15
G01X204.706Y-90.18
M16
G05
G00X204.706Y-82.58
M15
G01X204.706Y-83.18
M16
G05
G00X204.706Y-85.58
M15
G01X204.706Y-86.18
M16
G05
G00X186.974Y-85.117
M15
G01X186.974Y-84.017
M16
G05
G00X195.614Y-80.688
M15
G01X195.614Y-80.087
M16
G05
G00X195.614Y-85.117
M15
G01X195.614Y-84.017
M16
G05
G00X200.106Y-90.68
M15
G01X200.106Y-91.28
M16
G05
T0
M30
