G04 #@! TF.GenerationSoftware,KiCad,Pcbnew,(5.1.4-0)*
G04 #@! TF.CreationDate,2020-12-01T00:52:02+01:00*
G04 #@! TF.ProjectId,stm32split,73746d33-3273-4706-9c69-742e6b696361,rev?*
G04 #@! TF.SameCoordinates,Original*
G04 #@! TF.FileFunction,Copper,L2,Bot*
G04 #@! TF.FilePolarity,Positive*
%FSLAX46Y46*%
G04 Gerber Fmt 4.6, Leading zero omitted, Abs format (unit mm)*
G04 Created by KiCad (PCBNEW (5.1.4-0)) date 2020-12-01 00:52:02*
%MOMM*%
%LPD*%
G04 APERTURE LIST*
%ADD10O,1.200000X1.800000*%
%ADD11O,1.000000X2.100000*%
%ADD12O,1.000000X1.600000*%
%ADD13C,2.250000*%
%ADD14C,0.800000*%
%ADD15C,0.250000*%
%ADD16C,0.300000*%
%ADD17C,0.500000*%
%ADD18C,0.254000*%
G04 APERTURE END LIST*
D10*
X200106250Y-90980000D03*
X204706250Y-89880000D03*
X204706250Y-85880000D03*
X204706250Y-82880000D03*
D11*
X195613750Y-84567500D03*
X186973750Y-84567500D03*
D12*
X195613750Y-80387500D03*
X186973750Y-80387500D03*
D13*
X179478252Y-165830497D03*
X172687223Y-166640448D03*
X160260686Y-161069106D03*
X153521353Y-162233362D03*
X141103544Y-157258243D03*
X134408949Y-158656989D03*
X180778252Y-146500497D03*
X173987223Y-147310448D03*
X159702500Y-137795000D03*
X153352500Y-140335000D03*
X140652500Y-134620000D03*
X134302500Y-137160000D03*
X121602500Y-131445000D03*
X115252500Y-133985000D03*
X102552500Y-134620000D03*
X96202500Y-137160000D03*
X83502500Y-140970000D03*
X77152500Y-143510000D03*
X64452500Y-144145000D03*
X58102500Y-146685000D03*
X178752500Y-121920000D03*
X172402500Y-124460000D03*
X159702500Y-118745000D03*
X153352500Y-121285000D03*
X140652500Y-115570000D03*
X134302500Y-118110000D03*
X121602500Y-112395000D03*
X115252500Y-114935000D03*
X102552500Y-115570000D03*
X96202500Y-118110000D03*
X83502500Y-121920000D03*
X77152500Y-124460000D03*
X64452500Y-125095000D03*
X58102500Y-127635000D03*
X178752500Y-102870000D03*
X172402500Y-105410000D03*
X159702500Y-99695000D03*
X153352500Y-102235000D03*
X140652500Y-96520000D03*
X134302500Y-99060000D03*
X121602500Y-93345000D03*
X115252500Y-95885000D03*
X102552500Y-96520000D03*
X96202500Y-99060000D03*
X83502500Y-102870000D03*
X77152500Y-105410000D03*
X64452500Y-106045000D03*
X58102500Y-108585000D03*
X178752500Y-83820000D03*
X172402500Y-86360000D03*
X159702500Y-80645000D03*
X153352500Y-83185000D03*
X140652500Y-77470000D03*
X134302500Y-80010000D03*
X121602500Y-74295000D03*
X115252500Y-76835000D03*
X102552500Y-77470000D03*
X96202500Y-80010000D03*
X83502500Y-83820000D03*
X77152500Y-86360000D03*
X64452500Y-86995000D03*
X58102500Y-89535000D03*
D14*
X199405332Y-120585198D03*
X199405332Y-128474999D03*
X166310071Y-121920000D03*
X171250000Y-121920000D03*
X195330895Y-100772144D03*
X195778750Y-101666252D03*
X196278750Y-102658678D03*
X196778750Y-103524704D03*
X197278750Y-104390730D03*
X200555331Y-119075331D03*
X199430000Y-136412499D03*
X201141019Y-119885870D03*
X199440000Y-144400000D03*
X201926458Y-120504813D03*
X199427500Y-152337500D03*
X202777723Y-121029552D03*
X192315000Y-160275000D03*
X197778750Y-105493973D03*
X198278750Y-106360000D03*
X187280000Y-92700000D03*
X191290000Y-91649998D03*
X191293750Y-88509996D03*
X193740000Y-88260000D03*
X188830000Y-88260000D03*
X198770000Y-122120000D03*
X193040000Y-110970000D03*
X197760000Y-112350000D03*
X193010000Y-115240000D03*
X195940000Y-115250000D03*
X202430000Y-111130000D03*
X191290000Y-109730000D03*
X188420000Y-111920000D03*
X187051250Y-116681250D03*
X191710000Y-94290000D03*
X192740000Y-99700000D03*
X189574791Y-109679791D03*
X196850000Y-101600000D03*
X194988750Y-111006250D03*
X200282501Y-103802501D03*
X193270000Y-119730000D03*
X201180000Y-110920000D03*
X199420000Y-117720000D03*
X194750000Y-116010000D03*
X190130000Y-119960000D03*
X196430000Y-110950000D03*
D15*
X199495001Y-128385330D02*
X199405332Y-128474999D01*
X199495001Y-121240552D02*
X199495001Y-128385330D01*
X199405332Y-121150883D02*
X199495001Y-121240552D01*
X199405332Y-120585198D02*
X199405332Y-121150883D01*
X166310071Y-121920000D02*
X171250000Y-121920000D01*
D16*
X58102500Y-127635000D02*
X58102500Y-146685000D01*
X58102500Y-108585000D02*
X58102500Y-110175990D01*
X58102500Y-110175990D02*
X58102500Y-127635000D01*
X58102500Y-89535000D02*
X58102500Y-91125990D01*
X58102500Y-91125990D02*
X58102500Y-108585000D01*
X182623740Y-79476830D02*
X182966799Y-79493683D01*
X182966799Y-79493683D02*
X183306556Y-79544081D01*
X183306556Y-79544081D02*
X183639736Y-79627538D01*
X183639736Y-79627538D02*
X183963132Y-79743251D01*
X183963132Y-79743251D02*
X184273628Y-79890105D01*
X184273628Y-79890105D02*
X184568235Y-80066686D01*
X184568235Y-80066686D02*
X184844116Y-80271293D01*
X184844116Y-80271293D02*
X185098613Y-80501956D01*
X185098613Y-80501956D02*
X185329276Y-80756453D01*
X185329276Y-80756453D02*
X185533883Y-81032334D01*
X185533883Y-81032334D02*
X185710464Y-81326941D01*
X185710464Y-81326941D02*
X185857318Y-81637437D01*
X185857318Y-81637437D02*
X185973031Y-81960833D01*
X185973031Y-81960833D02*
X186056488Y-82294013D01*
X186056488Y-82294013D02*
X186106886Y-82633770D01*
X186106886Y-82633770D02*
X186123740Y-82976830D01*
X163371482Y-76406984D02*
X163518507Y-76414206D01*
X163518507Y-76414206D02*
X163664117Y-76435806D01*
X163664117Y-76435806D02*
X163806909Y-76471573D01*
X163806909Y-76471573D02*
X163945507Y-76521164D01*
X163945507Y-76521164D02*
X164078577Y-76584102D01*
X164078577Y-76584102D02*
X164204837Y-76659779D01*
X164204837Y-76659779D02*
X164323071Y-76747468D01*
X164323071Y-76747468D02*
X164432142Y-76846323D01*
X164432142Y-76846323D02*
X164530997Y-76955394D01*
X164530997Y-76955394D02*
X164618686Y-77073628D01*
X164618686Y-77073628D02*
X164694363Y-77199888D01*
X164694363Y-77199888D02*
X164757301Y-77332958D01*
X164757301Y-77332958D02*
X164806892Y-77471556D01*
X164806892Y-77471556D02*
X164842659Y-77614348D01*
X164842659Y-77614348D02*
X164864259Y-77759958D01*
X164864259Y-77759958D02*
X164871482Y-77906984D01*
X166371482Y-79476830D02*
X182623740Y-79476830D01*
X166371482Y-79476830D02*
X166224456Y-79469607D01*
X166224456Y-79469607D02*
X166078846Y-79448007D01*
X166078846Y-79448007D02*
X165936054Y-79412240D01*
X165936054Y-79412240D02*
X165797456Y-79362649D01*
X165797456Y-79362649D02*
X165664386Y-79299711D01*
X165664386Y-79299711D02*
X165538126Y-79224034D01*
X165538126Y-79224034D02*
X165419892Y-79136345D01*
X165419892Y-79136345D02*
X165310821Y-79037490D01*
X165310821Y-79037490D02*
X165211966Y-78928419D01*
X165211966Y-78928419D02*
X165124277Y-78810185D01*
X165124277Y-78810185D02*
X165048600Y-78683925D01*
X165048600Y-78683925D02*
X164985662Y-78550855D01*
X164985662Y-78550855D02*
X164936071Y-78412257D01*
X164936071Y-78412257D02*
X164900304Y-78269465D01*
X164900304Y-78269465D02*
X164878704Y-78123855D01*
X164878704Y-78123855D02*
X164871482Y-77976830D01*
X164871482Y-77976830D02*
X164871482Y-77906984D01*
X188123740Y-100806250D02*
X187927705Y-100796619D01*
X187927705Y-100796619D02*
X187733559Y-100767820D01*
X187733559Y-100767820D02*
X187543170Y-100720130D01*
X187543170Y-100720130D02*
X187358373Y-100654009D01*
X187358373Y-100654009D02*
X187180946Y-100570092D01*
X187180946Y-100570092D02*
X187012599Y-100469189D01*
X187012599Y-100469189D02*
X186854953Y-100352270D01*
X186854953Y-100352270D02*
X186709526Y-100220463D01*
X186709526Y-100220463D02*
X186577719Y-100075036D01*
X186577719Y-100075036D02*
X186460800Y-99917390D01*
X186460800Y-99917390D02*
X186359897Y-99749043D01*
X186359897Y-99749043D02*
X186275980Y-99571616D01*
X186275980Y-99571616D02*
X186209859Y-99386819D01*
X186209859Y-99386819D02*
X186162169Y-99196430D01*
X186162169Y-99196430D02*
X186133370Y-99002284D01*
X186133370Y-99002284D02*
X186123740Y-98806250D01*
X186123740Y-98806250D02*
X186123740Y-82976830D01*
X143750040Y-73699103D02*
X143877462Y-73705362D01*
X143877462Y-73705362D02*
X144003657Y-73724082D01*
X144003657Y-73724082D02*
X144127410Y-73755080D01*
X144127410Y-73755080D02*
X144247528Y-73798059D01*
X144247528Y-73798059D02*
X144362855Y-73852605D01*
X144362855Y-73852605D02*
X144472281Y-73918192D01*
X144472281Y-73918192D02*
X144574751Y-73994189D01*
X144574751Y-73994189D02*
X144669278Y-74079864D01*
X144669278Y-74079864D02*
X144754953Y-74174391D01*
X144754953Y-74174391D02*
X144830950Y-74276861D01*
X144830950Y-74276861D02*
X144896537Y-74386287D01*
X144896537Y-74386287D02*
X144951083Y-74501614D01*
X144951083Y-74501614D02*
X144994062Y-74621732D01*
X144994062Y-74621732D02*
X145025060Y-74745485D01*
X145025060Y-74745485D02*
X145043780Y-74871680D01*
X145043780Y-74871680D02*
X145050040Y-74999103D01*
X146350040Y-76406984D02*
X163371482Y-76406984D01*
X146350040Y-76406984D02*
X146222617Y-76400724D01*
X146222617Y-76400724D02*
X146096422Y-76382004D01*
X146096422Y-76382004D02*
X145972669Y-76351006D01*
X145972669Y-76351006D02*
X145852551Y-76308027D01*
X145852551Y-76308027D02*
X145737224Y-76253481D01*
X145737224Y-76253481D02*
X145627798Y-76187894D01*
X145627798Y-76187894D02*
X145525328Y-76111897D01*
X145525328Y-76111897D02*
X145430801Y-76026222D01*
X145430801Y-76026222D02*
X145345126Y-75931695D01*
X145345126Y-75931695D02*
X145269129Y-75829225D01*
X145269129Y-75829225D02*
X145203542Y-75719799D01*
X145203542Y-75719799D02*
X145148996Y-75604472D01*
X145148996Y-75604472D02*
X145106017Y-75484354D01*
X145106017Y-75484354D02*
X145075019Y-75360601D01*
X145075019Y-75360601D02*
X145056299Y-75234406D01*
X145056299Y-75234406D02*
X145050040Y-75106984D01*
X145050040Y-75106984D02*
X145050040Y-74999103D01*
X125633898Y-72318760D02*
X125627638Y-72191337D01*
X125627638Y-72191337D02*
X125608918Y-72065142D01*
X125608918Y-72065142D02*
X125577920Y-71941389D01*
X125577920Y-71941389D02*
X125534941Y-71821271D01*
X125534941Y-71821271D02*
X125480395Y-71705944D01*
X125480395Y-71705944D02*
X125414808Y-71596518D01*
X125414808Y-71596518D02*
X125338811Y-71494048D01*
X125338811Y-71494048D02*
X125253136Y-71399521D01*
X125253136Y-71399521D02*
X125158609Y-71313846D01*
X125158609Y-71313846D02*
X125056139Y-71237849D01*
X125056139Y-71237849D02*
X124946713Y-71172262D01*
X124946713Y-71172262D02*
X124831386Y-71117716D01*
X124831386Y-71117716D02*
X124711268Y-71074737D01*
X124711268Y-71074737D02*
X124587515Y-71043739D01*
X124587515Y-71043739D02*
X124461320Y-71025019D01*
X124461320Y-71025019D02*
X124333898Y-71018760D01*
X126933898Y-73699103D02*
X143750040Y-73699103D01*
X126933898Y-73699103D02*
X126806475Y-73692843D01*
X126806475Y-73692843D02*
X126680280Y-73674123D01*
X126680280Y-73674123D02*
X126556527Y-73643125D01*
X126556527Y-73643125D02*
X126436409Y-73600146D01*
X126436409Y-73600146D02*
X126321082Y-73545600D01*
X126321082Y-73545600D02*
X126211656Y-73480013D01*
X126211656Y-73480013D02*
X126109186Y-73404016D01*
X126109186Y-73404016D02*
X126014659Y-73318341D01*
X126014659Y-73318341D02*
X125928984Y-73223814D01*
X125928984Y-73223814D02*
X125852987Y-73121344D01*
X125852987Y-73121344D02*
X125787400Y-73011918D01*
X125787400Y-73011918D02*
X125732854Y-72896591D01*
X125732854Y-72896591D02*
X125689875Y-72776473D01*
X125689875Y-72776473D02*
X125658877Y-72652720D01*
X125658877Y-72652720D02*
X125640157Y-72526525D01*
X125640157Y-72526525D02*
X125633898Y-72399103D01*
X125633898Y-72399103D02*
X125633898Y-72318760D01*
X111601200Y-72518760D02*
X111608422Y-72371734D01*
X111608422Y-72371734D02*
X111630022Y-72226124D01*
X111630022Y-72226124D02*
X111665789Y-72083332D01*
X111665789Y-72083332D02*
X111715380Y-71944734D01*
X111715380Y-71944734D02*
X111778318Y-71811664D01*
X111778318Y-71811664D02*
X111853995Y-71685404D01*
X111853995Y-71685404D02*
X111941684Y-71567170D01*
X111941684Y-71567170D02*
X112040539Y-71458099D01*
X112040539Y-71458099D02*
X112149610Y-71359244D01*
X112149610Y-71359244D02*
X112267844Y-71271555D01*
X112267844Y-71271555D02*
X112394104Y-71195878D01*
X112394104Y-71195878D02*
X112527174Y-71132940D01*
X112527174Y-71132940D02*
X112665772Y-71083349D01*
X112665772Y-71083349D02*
X112808564Y-71047582D01*
X112808564Y-71047582D02*
X112954174Y-71025982D01*
X112954174Y-71025982D02*
X113101200Y-71018760D01*
X113101200Y-71018760D02*
X124333898Y-71018760D01*
X110101200Y-74728980D02*
X110248225Y-74721757D01*
X110248225Y-74721757D02*
X110393835Y-74700157D01*
X110393835Y-74700157D02*
X110536627Y-74664390D01*
X110536627Y-74664390D02*
X110675225Y-74614799D01*
X110675225Y-74614799D02*
X110808295Y-74551861D01*
X110808295Y-74551861D02*
X110934555Y-74476184D01*
X110934555Y-74476184D02*
X111052789Y-74388495D01*
X111052789Y-74388495D02*
X111161860Y-74289640D01*
X111161860Y-74289640D02*
X111260715Y-74180569D01*
X111260715Y-74180569D02*
X111348404Y-74062335D01*
X111348404Y-74062335D02*
X111424081Y-73936075D01*
X111424081Y-73936075D02*
X111487019Y-73803005D01*
X111487019Y-73803005D02*
X111536610Y-73664407D01*
X111536610Y-73664407D02*
X111572377Y-73521615D01*
X111572377Y-73521615D02*
X111593977Y-73376005D01*
X111593977Y-73376005D02*
X111601200Y-73228980D01*
X111601200Y-73228980D02*
X111601200Y-72518760D01*
X58102500Y-86507500D02*
X58102500Y-89535000D01*
X58102500Y-86507500D02*
X58112130Y-86311465D01*
X58112130Y-86311465D02*
X58140929Y-86117319D01*
X58140929Y-86117319D02*
X58188619Y-85926930D01*
X58188619Y-85926930D02*
X58254740Y-85742133D01*
X58254740Y-85742133D02*
X58338657Y-85564706D01*
X58338657Y-85564706D02*
X58439560Y-85396359D01*
X58439560Y-85396359D02*
X58556479Y-85238713D01*
X58556479Y-85238713D02*
X58688286Y-85093286D01*
X58688286Y-85093286D02*
X58833713Y-84961479D01*
X58833713Y-84961479D02*
X58991359Y-84844560D01*
X58991359Y-84844560D02*
X59159706Y-84743657D01*
X59159706Y-84743657D02*
X59337133Y-84659740D01*
X59337133Y-84659740D02*
X59521930Y-84593619D01*
X59521930Y-84593619D02*
X59712319Y-84545929D01*
X59712319Y-84545929D02*
X59906465Y-84517130D01*
X59906465Y-84517130D02*
X60102500Y-84507500D01*
X71682500Y-83107500D02*
X71675758Y-83244723D01*
X71675758Y-83244723D02*
X71655599Y-83380626D01*
X71655599Y-83380626D02*
X71622216Y-83513898D01*
X71622216Y-83513898D02*
X71575931Y-83643256D01*
X71575931Y-83643256D02*
X71517189Y-83767455D01*
X71517189Y-83767455D02*
X71446557Y-83885298D01*
X71446557Y-83885298D02*
X71364714Y-83995650D01*
X71364714Y-83995650D02*
X71272449Y-84097449D01*
X71272449Y-84097449D02*
X71170650Y-84189714D01*
X71170650Y-84189714D02*
X71060298Y-84271557D01*
X71060298Y-84271557D02*
X70942455Y-84342189D01*
X70942455Y-84342189D02*
X70818256Y-84400931D01*
X70818256Y-84400931D02*
X70688898Y-84447216D01*
X70688898Y-84447216D02*
X70555626Y-84480599D01*
X70555626Y-84480599D02*
X70419723Y-84500758D01*
X70419723Y-84500758D02*
X70282500Y-84507500D01*
X70282500Y-84507500D02*
X60102500Y-84507500D01*
X73082500Y-81637490D02*
X72945276Y-81644231D01*
X72945276Y-81644231D02*
X72809373Y-81664390D01*
X72809373Y-81664390D02*
X72676101Y-81697773D01*
X72676101Y-81697773D02*
X72546743Y-81744058D01*
X72546743Y-81744058D02*
X72422544Y-81802800D01*
X72422544Y-81802800D02*
X72304701Y-81873432D01*
X72304701Y-81873432D02*
X72194349Y-81955275D01*
X72194349Y-81955275D02*
X72092550Y-82047540D01*
X72092550Y-82047540D02*
X72000285Y-82149339D01*
X72000285Y-82149339D02*
X71918442Y-82259691D01*
X71918442Y-82259691D02*
X71847810Y-82377534D01*
X71847810Y-82377534D02*
X71789068Y-82501733D01*
X71789068Y-82501733D02*
X71742783Y-82631091D01*
X71742783Y-82631091D02*
X71709400Y-82764363D01*
X71709400Y-82764363D02*
X71689241Y-82900266D01*
X71689241Y-82900266D02*
X71682500Y-83037490D01*
X71682500Y-83037490D02*
X71682500Y-83107500D01*
X92799990Y-77028980D02*
X92811065Y-76803540D01*
X92811065Y-76803540D02*
X92844183Y-76580272D01*
X92844183Y-76580272D02*
X92899027Y-76361325D01*
X92899027Y-76361325D02*
X92975067Y-76148808D01*
X92975067Y-76148808D02*
X93071571Y-75944767D01*
X93071571Y-75944767D02*
X93187609Y-75751168D01*
X93187609Y-75751168D02*
X93322065Y-75569875D01*
X93322065Y-75569875D02*
X93473644Y-75402634D01*
X93473644Y-75402634D02*
X93640885Y-75251055D01*
X93640885Y-75251055D02*
X93822178Y-75116599D01*
X93822178Y-75116599D02*
X94015777Y-75000561D01*
X94015777Y-75000561D02*
X94219818Y-74904057D01*
X94219818Y-74904057D02*
X94432335Y-74828017D01*
X94432335Y-74828017D02*
X94651282Y-74773173D01*
X94651282Y-74773173D02*
X94874550Y-74740055D01*
X94874550Y-74740055D02*
X95099990Y-74728980D01*
X95099990Y-74728980D02*
X110101200Y-74728980D01*
X90799990Y-81637490D02*
X73082500Y-81637490D01*
X90799990Y-81637490D02*
X90996024Y-81627859D01*
X90996024Y-81627859D02*
X91190170Y-81599060D01*
X91190170Y-81599060D02*
X91380559Y-81551370D01*
X91380559Y-81551370D02*
X91565356Y-81485249D01*
X91565356Y-81485249D02*
X91742783Y-81401332D01*
X91742783Y-81401332D02*
X91911130Y-81300429D01*
X91911130Y-81300429D02*
X92068776Y-81183510D01*
X92068776Y-81183510D02*
X92214203Y-81051703D01*
X92214203Y-81051703D02*
X92346010Y-80906276D01*
X92346010Y-80906276D02*
X92462929Y-80748630D01*
X92462929Y-80748630D02*
X92563832Y-80580283D01*
X92563832Y-80580283D02*
X92647749Y-80402856D01*
X92647749Y-80402856D02*
X92713870Y-80218059D01*
X92713870Y-80218059D02*
X92761560Y-80027670D01*
X92761560Y-80027670D02*
X92790359Y-79833524D01*
X92790359Y-79833524D02*
X92799990Y-79637490D01*
X92799990Y-79637490D02*
X92799990Y-77028980D01*
X194726250Y-100806250D02*
X195119940Y-100806250D01*
X188453740Y-100806250D02*
X194726250Y-100806250D01*
X195119940Y-100806250D02*
X195179430Y-100865740D01*
X194726250Y-100806250D02*
X195088750Y-100806250D01*
X194760356Y-100772144D02*
X195330895Y-100772144D01*
X194726250Y-100806250D02*
X194760356Y-100772144D01*
X188123740Y-100806250D02*
X188453740Y-100806250D01*
X77152500Y-124460000D02*
X77152500Y-143510000D01*
X77152500Y-105410000D02*
X77152500Y-124460000D01*
X77152500Y-86360000D02*
X77152500Y-87950990D01*
X77152500Y-87950990D02*
X77152500Y-105410000D01*
X182423730Y-79976840D02*
X182737384Y-79992248D01*
X182737384Y-79992248D02*
X183048019Y-80038327D01*
X183048019Y-80038327D02*
X183352640Y-80114630D01*
X183352640Y-80114630D02*
X183648316Y-80220425D01*
X183648316Y-80220425D02*
X183932199Y-80354691D01*
X183932199Y-80354691D02*
X184201554Y-80516137D01*
X184201554Y-80516137D02*
X184453788Y-80703206D01*
X184453788Y-80703206D02*
X184686471Y-80914098D01*
X184686471Y-80914098D02*
X184897363Y-81146781D01*
X184897363Y-81146781D02*
X185084432Y-81399015D01*
X185084432Y-81399015D02*
X185245878Y-81668370D01*
X185245878Y-81668370D02*
X185380144Y-81952253D01*
X185380144Y-81952253D02*
X185485939Y-82247929D01*
X185485939Y-82247929D02*
X185562242Y-82552550D01*
X185562242Y-82552550D02*
X185608321Y-82863185D01*
X185608321Y-82863185D02*
X185623730Y-83176840D01*
X162871472Y-76906992D02*
X163018497Y-76914214D01*
X163018497Y-76914214D02*
X163164107Y-76935814D01*
X163164107Y-76935814D02*
X163306899Y-76971581D01*
X163306899Y-76971581D02*
X163445497Y-77021172D01*
X163445497Y-77021172D02*
X163578567Y-77084110D01*
X163578567Y-77084110D02*
X163704827Y-77159787D01*
X163704827Y-77159787D02*
X163823061Y-77247476D01*
X163823061Y-77247476D02*
X163932132Y-77346331D01*
X163932132Y-77346331D02*
X164030987Y-77455402D01*
X164030987Y-77455402D02*
X164118676Y-77573636D01*
X164118676Y-77573636D02*
X164194353Y-77699896D01*
X164194353Y-77699896D02*
X164257291Y-77832966D01*
X164257291Y-77832966D02*
X164306882Y-77971564D01*
X164306882Y-77971564D02*
X164342649Y-78114356D01*
X164342649Y-78114356D02*
X164364249Y-78259966D01*
X164364249Y-78259966D02*
X164371472Y-78406992D01*
X165871472Y-79976840D02*
X182423730Y-79976840D01*
X165871472Y-79976840D02*
X165724446Y-79969617D01*
X165724446Y-79969617D02*
X165578836Y-79948017D01*
X165578836Y-79948017D02*
X165436044Y-79912250D01*
X165436044Y-79912250D02*
X165297446Y-79862659D01*
X165297446Y-79862659D02*
X165164376Y-79799721D01*
X165164376Y-79799721D02*
X165038116Y-79724044D01*
X165038116Y-79724044D02*
X164919882Y-79636355D01*
X164919882Y-79636355D02*
X164810811Y-79537500D01*
X164810811Y-79537500D02*
X164711956Y-79428429D01*
X164711956Y-79428429D02*
X164624267Y-79310195D01*
X164624267Y-79310195D02*
X164548590Y-79183935D01*
X164548590Y-79183935D02*
X164485652Y-79050865D01*
X164485652Y-79050865D02*
X164436061Y-78912267D01*
X164436061Y-78912267D02*
X164400294Y-78769475D01*
X164400294Y-78769475D02*
X164378694Y-78623865D01*
X164378694Y-78623865D02*
X164371472Y-78476840D01*
X164371472Y-78476840D02*
X164371472Y-78406992D01*
X187923730Y-101650569D02*
X187698290Y-101639493D01*
X187698290Y-101639493D02*
X187475022Y-101606375D01*
X187475022Y-101606375D02*
X187256075Y-101551531D01*
X187256075Y-101551531D02*
X187043558Y-101475491D01*
X187043558Y-101475491D02*
X186839517Y-101378987D01*
X186839517Y-101378987D02*
X186645918Y-101262949D01*
X186645918Y-101262949D02*
X186464625Y-101128493D01*
X186464625Y-101128493D02*
X186297384Y-100976914D01*
X186297384Y-100976914D02*
X186145805Y-100809673D01*
X186145805Y-100809673D02*
X186011349Y-100628380D01*
X186011349Y-100628380D02*
X185895311Y-100434781D01*
X185895311Y-100434781D02*
X185798807Y-100230740D01*
X185798807Y-100230740D02*
X185722767Y-100018223D01*
X185722767Y-100018223D02*
X185667923Y-99799276D01*
X185667923Y-99799276D02*
X185634805Y-99576008D01*
X185634805Y-99576008D02*
X185623730Y-99350569D01*
X185623730Y-99350569D02*
X185623730Y-83176840D01*
X143250030Y-74199113D02*
X143377452Y-74205372D01*
X143377452Y-74205372D02*
X143503647Y-74224092D01*
X143503647Y-74224092D02*
X143627400Y-74255090D01*
X143627400Y-74255090D02*
X143747518Y-74298069D01*
X143747518Y-74298069D02*
X143862845Y-74352615D01*
X143862845Y-74352615D02*
X143972271Y-74418202D01*
X143972271Y-74418202D02*
X144074741Y-74494199D01*
X144074741Y-74494199D02*
X144169268Y-74579874D01*
X144169268Y-74579874D02*
X144254943Y-74674401D01*
X144254943Y-74674401D02*
X144330940Y-74776871D01*
X144330940Y-74776871D02*
X144396527Y-74886297D01*
X144396527Y-74886297D02*
X144451073Y-75001624D01*
X144451073Y-75001624D02*
X144494052Y-75121742D01*
X144494052Y-75121742D02*
X144525050Y-75245495D01*
X144525050Y-75245495D02*
X144543770Y-75371690D01*
X144543770Y-75371690D02*
X144550030Y-75499113D01*
X145850030Y-76906992D02*
X162871472Y-76906992D01*
X145850030Y-76906992D02*
X145722607Y-76900732D01*
X145722607Y-76900732D02*
X145596412Y-76882012D01*
X145596412Y-76882012D02*
X145472659Y-76851014D01*
X145472659Y-76851014D02*
X145352541Y-76808035D01*
X145352541Y-76808035D02*
X145237214Y-76753489D01*
X145237214Y-76753489D02*
X145127788Y-76687902D01*
X145127788Y-76687902D02*
X145025318Y-76611905D01*
X145025318Y-76611905D02*
X144930791Y-76526230D01*
X144930791Y-76526230D02*
X144845116Y-76431703D01*
X144845116Y-76431703D02*
X144769119Y-76329233D01*
X144769119Y-76329233D02*
X144703532Y-76219807D01*
X144703532Y-76219807D02*
X144648986Y-76104480D01*
X144648986Y-76104480D02*
X144606007Y-75984362D01*
X144606007Y-75984362D02*
X144575009Y-75860609D01*
X144575009Y-75860609D02*
X144556289Y-75734414D01*
X144556289Y-75734414D02*
X144550030Y-75606992D01*
X144550030Y-75606992D02*
X144550030Y-75499113D01*
X125133888Y-72818770D02*
X125127628Y-72691347D01*
X125127628Y-72691347D02*
X125108908Y-72565152D01*
X125108908Y-72565152D02*
X125077910Y-72441399D01*
X125077910Y-72441399D02*
X125034931Y-72321281D01*
X125034931Y-72321281D02*
X124980385Y-72205954D01*
X124980385Y-72205954D02*
X124914798Y-72096528D01*
X124914798Y-72096528D02*
X124838801Y-71994058D01*
X124838801Y-71994058D02*
X124753126Y-71899531D01*
X124753126Y-71899531D02*
X124658599Y-71813856D01*
X124658599Y-71813856D02*
X124556129Y-71737859D01*
X124556129Y-71737859D02*
X124446703Y-71672272D01*
X124446703Y-71672272D02*
X124331376Y-71617726D01*
X124331376Y-71617726D02*
X124211258Y-71574747D01*
X124211258Y-71574747D02*
X124087505Y-71543749D01*
X124087505Y-71543749D02*
X123961310Y-71525029D01*
X123961310Y-71525029D02*
X123833888Y-71518770D01*
X126433888Y-74199113D02*
X143250030Y-74199113D01*
X126433888Y-74199113D02*
X126306465Y-74192853D01*
X126306465Y-74192853D02*
X126180270Y-74174133D01*
X126180270Y-74174133D02*
X126056517Y-74143135D01*
X126056517Y-74143135D02*
X125936399Y-74100156D01*
X125936399Y-74100156D02*
X125821072Y-74045610D01*
X125821072Y-74045610D02*
X125711646Y-73980023D01*
X125711646Y-73980023D02*
X125609176Y-73904026D01*
X125609176Y-73904026D02*
X125514649Y-73818351D01*
X125514649Y-73818351D02*
X125428974Y-73723824D01*
X125428974Y-73723824D02*
X125352977Y-73621354D01*
X125352977Y-73621354D02*
X125287390Y-73511928D01*
X125287390Y-73511928D02*
X125232844Y-73396601D01*
X125232844Y-73396601D02*
X125189865Y-73276483D01*
X125189865Y-73276483D02*
X125158867Y-73152730D01*
X125158867Y-73152730D02*
X125140147Y-73026535D01*
X125140147Y-73026535D02*
X125133888Y-72899113D01*
X125133888Y-72899113D02*
X125133888Y-72818770D01*
X112101210Y-73018770D02*
X112108432Y-72871744D01*
X112108432Y-72871744D02*
X112130032Y-72726134D01*
X112130032Y-72726134D02*
X112165799Y-72583342D01*
X112165799Y-72583342D02*
X112215390Y-72444744D01*
X112215390Y-72444744D02*
X112278328Y-72311674D01*
X112278328Y-72311674D02*
X112354005Y-72185414D01*
X112354005Y-72185414D02*
X112441694Y-72067180D01*
X112441694Y-72067180D02*
X112540549Y-71958109D01*
X112540549Y-71958109D02*
X112649620Y-71859254D01*
X112649620Y-71859254D02*
X112767854Y-71771565D01*
X112767854Y-71771565D02*
X112894114Y-71695888D01*
X112894114Y-71695888D02*
X113027184Y-71632950D01*
X113027184Y-71632950D02*
X113165782Y-71583359D01*
X113165782Y-71583359D02*
X113308574Y-71547592D01*
X113308574Y-71547592D02*
X113454184Y-71525992D01*
X113454184Y-71525992D02*
X113601210Y-71518770D01*
X113601210Y-71518770D02*
X123833888Y-71518770D01*
X110601210Y-75228990D02*
X110748235Y-75221767D01*
X110748235Y-75221767D02*
X110893845Y-75200167D01*
X110893845Y-75200167D02*
X111036637Y-75164400D01*
X111036637Y-75164400D02*
X111175235Y-75114809D01*
X111175235Y-75114809D02*
X111308305Y-75051871D01*
X111308305Y-75051871D02*
X111434565Y-74976194D01*
X111434565Y-74976194D02*
X111552799Y-74888505D01*
X111552799Y-74888505D02*
X111661870Y-74789650D01*
X111661870Y-74789650D02*
X111760725Y-74680579D01*
X111760725Y-74680579D02*
X111848414Y-74562345D01*
X111848414Y-74562345D02*
X111924091Y-74436085D01*
X111924091Y-74436085D02*
X111987029Y-74303015D01*
X111987029Y-74303015D02*
X112036620Y-74164417D01*
X112036620Y-74164417D02*
X112072387Y-74021625D01*
X112072387Y-74021625D02*
X112093987Y-73876015D01*
X112093987Y-73876015D02*
X112101210Y-73728990D01*
X112101210Y-73728990D02*
X112101210Y-73018770D01*
X77152500Y-84137500D02*
X77152500Y-86360000D01*
X77152500Y-84137500D02*
X77162130Y-83941465D01*
X77162130Y-83941465D02*
X77190929Y-83747319D01*
X77190929Y-83747319D02*
X77238619Y-83556930D01*
X77238619Y-83556930D02*
X77304740Y-83372133D01*
X77304740Y-83372133D02*
X77388657Y-83194706D01*
X77388657Y-83194706D02*
X77489560Y-83026359D01*
X77489560Y-83026359D02*
X77606479Y-82868713D01*
X77606479Y-82868713D02*
X77738286Y-82723286D01*
X77738286Y-82723286D02*
X77883713Y-82591479D01*
X77883713Y-82591479D02*
X78041359Y-82474560D01*
X78041359Y-82474560D02*
X78209706Y-82373657D01*
X78209706Y-82373657D02*
X78387133Y-82289740D01*
X78387133Y-82289740D02*
X78571930Y-82223619D01*
X78571930Y-82223619D02*
X78762319Y-82175929D01*
X78762319Y-82175929D02*
X78956465Y-82147130D01*
X78956465Y-82147130D02*
X79152500Y-82137500D01*
X93300000Y-77228990D02*
X93309630Y-77032955D01*
X93309630Y-77032955D02*
X93338429Y-76838809D01*
X93338429Y-76838809D02*
X93386119Y-76648420D01*
X93386119Y-76648420D02*
X93452240Y-76463623D01*
X93452240Y-76463623D02*
X93536157Y-76286196D01*
X93536157Y-76286196D02*
X93637060Y-76117849D01*
X93637060Y-76117849D02*
X93753979Y-75960203D01*
X93753979Y-75960203D02*
X93885786Y-75814776D01*
X93885786Y-75814776D02*
X94031213Y-75682969D01*
X94031213Y-75682969D02*
X94188859Y-75566050D01*
X94188859Y-75566050D02*
X94357206Y-75465147D01*
X94357206Y-75465147D02*
X94534633Y-75381230D01*
X94534633Y-75381230D02*
X94719430Y-75315109D01*
X94719430Y-75315109D02*
X94909819Y-75267419D01*
X94909819Y-75267419D02*
X95103965Y-75238620D01*
X95103965Y-75238620D02*
X95300000Y-75228990D01*
X95300000Y-75228990D02*
X110601210Y-75228990D01*
X91000000Y-82137500D02*
X79152500Y-82137500D01*
X91000000Y-82137500D02*
X91225439Y-82126424D01*
X91225439Y-82126424D02*
X91448707Y-82093306D01*
X91448707Y-82093306D02*
X91667654Y-82038462D01*
X91667654Y-82038462D02*
X91880171Y-81962422D01*
X91880171Y-81962422D02*
X92084212Y-81865918D01*
X92084212Y-81865918D02*
X92277811Y-81749880D01*
X92277811Y-81749880D02*
X92459104Y-81615424D01*
X92459104Y-81615424D02*
X92626345Y-81463845D01*
X92626345Y-81463845D02*
X92777924Y-81296604D01*
X92777924Y-81296604D02*
X92912380Y-81115311D01*
X92912380Y-81115311D02*
X93028418Y-80921712D01*
X93028418Y-80921712D02*
X93124922Y-80717671D01*
X93124922Y-80717671D02*
X93200962Y-80505154D01*
X93200962Y-80505154D02*
X93255806Y-80286207D01*
X93255806Y-80286207D02*
X93288924Y-80062939D01*
X93288924Y-80062939D02*
X93300000Y-79837500D01*
X93300000Y-79837500D02*
X93300000Y-77228990D01*
X195299431Y-101650569D02*
X195763067Y-101650569D01*
X195763067Y-101650569D02*
X195778750Y-101666252D01*
X188253730Y-101650569D02*
X195299431Y-101650569D01*
X195299431Y-101650569D02*
X195624593Y-101650569D01*
X187923730Y-101650569D02*
X188253730Y-101650569D01*
X96202500Y-80010000D02*
X96202500Y-81600990D01*
X96202500Y-81600990D02*
X96202500Y-99060000D01*
X96202500Y-118110000D02*
X96202500Y-99060000D01*
X96202500Y-137160000D02*
X96202500Y-118110000D01*
X185123720Y-83376850D02*
X185109755Y-83092600D01*
X185109755Y-83092600D02*
X185067997Y-82811088D01*
X185067997Y-82811088D02*
X184998846Y-82535024D01*
X184998846Y-82535024D02*
X184902970Y-82267068D01*
X184902970Y-82267068D02*
X184781291Y-82009799D01*
X184781291Y-82009799D02*
X184634981Y-81765696D01*
X184634981Y-81765696D02*
X184465450Y-81537109D01*
X184465450Y-81537109D02*
X184274329Y-81326240D01*
X184274329Y-81326240D02*
X184063460Y-81135119D01*
X184063460Y-81135119D02*
X183834873Y-80965588D01*
X183834873Y-80965588D02*
X183590770Y-80819278D01*
X183590770Y-80819278D02*
X183333501Y-80697599D01*
X183333501Y-80697599D02*
X183065545Y-80601723D01*
X183065545Y-80601723D02*
X182789481Y-80532572D01*
X182789481Y-80532572D02*
X182507969Y-80490814D01*
X182507969Y-80490814D02*
X182223720Y-80476850D01*
X162371462Y-77407002D02*
X162518487Y-77414224D01*
X162518487Y-77414224D02*
X162664097Y-77435824D01*
X162664097Y-77435824D02*
X162806889Y-77471591D01*
X162806889Y-77471591D02*
X162945487Y-77521182D01*
X162945487Y-77521182D02*
X163078557Y-77584120D01*
X163078557Y-77584120D02*
X163204817Y-77659797D01*
X163204817Y-77659797D02*
X163323051Y-77747486D01*
X163323051Y-77747486D02*
X163432122Y-77846341D01*
X163432122Y-77846341D02*
X163530977Y-77955412D01*
X163530977Y-77955412D02*
X163618666Y-78073646D01*
X163618666Y-78073646D02*
X163694343Y-78199906D01*
X163694343Y-78199906D02*
X163757281Y-78332976D01*
X163757281Y-78332976D02*
X163806872Y-78471574D01*
X163806872Y-78471574D02*
X163842639Y-78614366D01*
X163842639Y-78614366D02*
X163864239Y-78759976D01*
X163864239Y-78759976D02*
X163871462Y-78907002D01*
X165371462Y-80476850D02*
X182223720Y-80476850D01*
X165371462Y-80476850D02*
X165224436Y-80469627D01*
X165224436Y-80469627D02*
X165078826Y-80448027D01*
X165078826Y-80448027D02*
X164936034Y-80412260D01*
X164936034Y-80412260D02*
X164797436Y-80362669D01*
X164797436Y-80362669D02*
X164664366Y-80299731D01*
X164664366Y-80299731D02*
X164538106Y-80224054D01*
X164538106Y-80224054D02*
X164419872Y-80136365D01*
X164419872Y-80136365D02*
X164310801Y-80037510D01*
X164310801Y-80037510D02*
X164211946Y-79928439D01*
X164211946Y-79928439D02*
X164124257Y-79810205D01*
X164124257Y-79810205D02*
X164048580Y-79683945D01*
X164048580Y-79683945D02*
X163985642Y-79550875D01*
X163985642Y-79550875D02*
X163936051Y-79412277D01*
X163936051Y-79412277D02*
X163900284Y-79269485D01*
X163900284Y-79269485D02*
X163878684Y-79123875D01*
X163878684Y-79123875D02*
X163871462Y-78976850D01*
X163871462Y-78976850D02*
X163871462Y-78907002D01*
X187723720Y-102649640D02*
X187468875Y-102637120D01*
X187468875Y-102637120D02*
X187216485Y-102599681D01*
X187216485Y-102599681D02*
X186968979Y-102537684D01*
X186968979Y-102537684D02*
X186728743Y-102451726D01*
X186728743Y-102451726D02*
X186498088Y-102342635D01*
X186498088Y-102342635D02*
X186279237Y-102211460D01*
X186279237Y-102211460D02*
X186074297Y-102059467D01*
X186074297Y-102059467D02*
X185885242Y-101888117D01*
X185885242Y-101888117D02*
X185713892Y-101699062D01*
X185713892Y-101699062D02*
X185561899Y-101494122D01*
X185561899Y-101494122D02*
X185430724Y-101275271D01*
X185430724Y-101275271D02*
X185321633Y-101044616D01*
X185321633Y-101044616D02*
X185235675Y-100804380D01*
X185235675Y-100804380D02*
X185173678Y-100556874D01*
X185173678Y-100556874D02*
X185136239Y-100304484D01*
X185136239Y-100304484D02*
X185123720Y-100049640D01*
X185123720Y-100049640D02*
X185123720Y-83376850D01*
X142750020Y-74699123D02*
X142877442Y-74705382D01*
X142877442Y-74705382D02*
X143003637Y-74724102D01*
X143003637Y-74724102D02*
X143127390Y-74755100D01*
X143127390Y-74755100D02*
X143247508Y-74798079D01*
X143247508Y-74798079D02*
X143362835Y-74852625D01*
X143362835Y-74852625D02*
X143472261Y-74918212D01*
X143472261Y-74918212D02*
X143574731Y-74994209D01*
X143574731Y-74994209D02*
X143669258Y-75079884D01*
X143669258Y-75079884D02*
X143754933Y-75174411D01*
X143754933Y-75174411D02*
X143830930Y-75276881D01*
X143830930Y-75276881D02*
X143896517Y-75386307D01*
X143896517Y-75386307D02*
X143951063Y-75501634D01*
X143951063Y-75501634D02*
X143994042Y-75621752D01*
X143994042Y-75621752D02*
X144025040Y-75745505D01*
X144025040Y-75745505D02*
X144043760Y-75871700D01*
X144043760Y-75871700D02*
X144050020Y-75999123D01*
X145350020Y-77407002D02*
X162371462Y-77407002D01*
X145350020Y-77407002D02*
X145222597Y-77400742D01*
X145222597Y-77400742D02*
X145096402Y-77382022D01*
X145096402Y-77382022D02*
X144972649Y-77351024D01*
X144972649Y-77351024D02*
X144852531Y-77308045D01*
X144852531Y-77308045D02*
X144737204Y-77253499D01*
X144737204Y-77253499D02*
X144627778Y-77187912D01*
X144627778Y-77187912D02*
X144525308Y-77111915D01*
X144525308Y-77111915D02*
X144430781Y-77026240D01*
X144430781Y-77026240D02*
X144345106Y-76931713D01*
X144345106Y-76931713D02*
X144269109Y-76829243D01*
X144269109Y-76829243D02*
X144203522Y-76719817D01*
X144203522Y-76719817D02*
X144148976Y-76604490D01*
X144148976Y-76604490D02*
X144105997Y-76484372D01*
X144105997Y-76484372D02*
X144074999Y-76360619D01*
X144074999Y-76360619D02*
X144056279Y-76234424D01*
X144056279Y-76234424D02*
X144050020Y-76107002D01*
X144050020Y-76107002D02*
X144050020Y-75999123D01*
X124633878Y-73318780D02*
X124627618Y-73191357D01*
X124627618Y-73191357D02*
X124608898Y-73065162D01*
X124608898Y-73065162D02*
X124577900Y-72941409D01*
X124577900Y-72941409D02*
X124534921Y-72821291D01*
X124534921Y-72821291D02*
X124480375Y-72705964D01*
X124480375Y-72705964D02*
X124414788Y-72596538D01*
X124414788Y-72596538D02*
X124338791Y-72494068D01*
X124338791Y-72494068D02*
X124253116Y-72399541D01*
X124253116Y-72399541D02*
X124158589Y-72313866D01*
X124158589Y-72313866D02*
X124056119Y-72237869D01*
X124056119Y-72237869D02*
X123946693Y-72172282D01*
X123946693Y-72172282D02*
X123831366Y-72117736D01*
X123831366Y-72117736D02*
X123711248Y-72074757D01*
X123711248Y-72074757D02*
X123587495Y-72043759D01*
X123587495Y-72043759D02*
X123461300Y-72025039D01*
X123461300Y-72025039D02*
X123333878Y-72018780D01*
X125933878Y-74699123D02*
X142750020Y-74699123D01*
X125933878Y-74699123D02*
X125806455Y-74692863D01*
X125806455Y-74692863D02*
X125680260Y-74674143D01*
X125680260Y-74674143D02*
X125556507Y-74643145D01*
X125556507Y-74643145D02*
X125436389Y-74600166D01*
X125436389Y-74600166D02*
X125321062Y-74545620D01*
X125321062Y-74545620D02*
X125211636Y-74480033D01*
X125211636Y-74480033D02*
X125109166Y-74404036D01*
X125109166Y-74404036D02*
X125014639Y-74318361D01*
X125014639Y-74318361D02*
X124928964Y-74223834D01*
X124928964Y-74223834D02*
X124852967Y-74121364D01*
X124852967Y-74121364D02*
X124787380Y-74011938D01*
X124787380Y-74011938D02*
X124732834Y-73896611D01*
X124732834Y-73896611D02*
X124689855Y-73776493D01*
X124689855Y-73776493D02*
X124658857Y-73652740D01*
X124658857Y-73652740D02*
X124640137Y-73526545D01*
X124640137Y-73526545D02*
X124633878Y-73399123D01*
X124633878Y-73399123D02*
X124633878Y-73318780D01*
X112601220Y-73518780D02*
X112608442Y-73371754D01*
X112608442Y-73371754D02*
X112630042Y-73226144D01*
X112630042Y-73226144D02*
X112665809Y-73083352D01*
X112665809Y-73083352D02*
X112715400Y-72944754D01*
X112715400Y-72944754D02*
X112778338Y-72811684D01*
X112778338Y-72811684D02*
X112854015Y-72685424D01*
X112854015Y-72685424D02*
X112941704Y-72567190D01*
X112941704Y-72567190D02*
X113040559Y-72458119D01*
X113040559Y-72458119D02*
X113149630Y-72359264D01*
X113149630Y-72359264D02*
X113267864Y-72271575D01*
X113267864Y-72271575D02*
X113394124Y-72195898D01*
X113394124Y-72195898D02*
X113527194Y-72132960D01*
X113527194Y-72132960D02*
X113665792Y-72083369D01*
X113665792Y-72083369D02*
X113808584Y-72047602D01*
X113808584Y-72047602D02*
X113954194Y-72026002D01*
X113954194Y-72026002D02*
X114101220Y-72018780D01*
X114101220Y-72018780D02*
X123333878Y-72018780D01*
X111101220Y-75729000D02*
X111248245Y-75721777D01*
X111248245Y-75721777D02*
X111393855Y-75700177D01*
X111393855Y-75700177D02*
X111536647Y-75664410D01*
X111536647Y-75664410D02*
X111675245Y-75614819D01*
X111675245Y-75614819D02*
X111808315Y-75551881D01*
X111808315Y-75551881D02*
X111934575Y-75476204D01*
X111934575Y-75476204D02*
X112052809Y-75388515D01*
X112052809Y-75388515D02*
X112161880Y-75289660D01*
X112161880Y-75289660D02*
X112260735Y-75180589D01*
X112260735Y-75180589D02*
X112348424Y-75062355D01*
X112348424Y-75062355D02*
X112424101Y-74936095D01*
X112424101Y-74936095D02*
X112487039Y-74803025D01*
X112487039Y-74803025D02*
X112536630Y-74664427D01*
X112536630Y-74664427D02*
X112572397Y-74521635D01*
X112572397Y-74521635D02*
X112593997Y-74376025D01*
X112593997Y-74376025D02*
X112601220Y-74229000D01*
X112601220Y-74229000D02*
X112601220Y-73518780D01*
X96202500Y-77729000D02*
X96202500Y-80010000D01*
X96202500Y-77729000D02*
X96212130Y-77532965D01*
X96212130Y-77532965D02*
X96240929Y-77338819D01*
X96240929Y-77338819D02*
X96288619Y-77148430D01*
X96288619Y-77148430D02*
X96354740Y-76963633D01*
X96354740Y-76963633D02*
X96438657Y-76786206D01*
X96438657Y-76786206D02*
X96539560Y-76617859D01*
X96539560Y-76617859D02*
X96656479Y-76460213D01*
X96656479Y-76460213D02*
X96788286Y-76314786D01*
X96788286Y-76314786D02*
X96933713Y-76182979D01*
X96933713Y-76182979D02*
X97091359Y-76066060D01*
X97091359Y-76066060D02*
X97259706Y-75965157D01*
X97259706Y-75965157D02*
X97437133Y-75881240D01*
X97437133Y-75881240D02*
X97621930Y-75815119D01*
X97621930Y-75815119D02*
X97812319Y-75767429D01*
X97812319Y-75767429D02*
X98006465Y-75738630D01*
X98006465Y-75738630D02*
X98202500Y-75729000D01*
X98202500Y-75729000D02*
X111101220Y-75729000D01*
X196269712Y-102649640D02*
X196278750Y-102658678D01*
X195720360Y-102649640D02*
X196269712Y-102649640D01*
X188053720Y-102649640D02*
X195720360Y-102649640D01*
X195720360Y-102649640D02*
X196088750Y-102649640D01*
X187723720Y-102649640D02*
X188053720Y-102649640D01*
X115252500Y-114935000D02*
X115252500Y-116525990D01*
X115252500Y-116525990D02*
X115252500Y-133985000D01*
X115252500Y-95885000D02*
X115252500Y-114935000D01*
X115252500Y-76835000D02*
X115252500Y-95885000D01*
X182023710Y-80976860D02*
X182278554Y-80989379D01*
X182278554Y-80989379D02*
X182530944Y-81026818D01*
X182530944Y-81026818D02*
X182778450Y-81088815D01*
X182778450Y-81088815D02*
X183018686Y-81174773D01*
X183018686Y-81174773D02*
X183249341Y-81283864D01*
X183249341Y-81283864D02*
X183468192Y-81415039D01*
X183468192Y-81415039D02*
X183673132Y-81567032D01*
X183673132Y-81567032D02*
X183862187Y-81738382D01*
X183862187Y-81738382D02*
X184033537Y-81927437D01*
X184033537Y-81927437D02*
X184185530Y-82132377D01*
X184185530Y-82132377D02*
X184316705Y-82351228D01*
X184316705Y-82351228D02*
X184425796Y-82581883D01*
X184425796Y-82581883D02*
X184511754Y-82822119D01*
X184511754Y-82822119D02*
X184573751Y-83069625D01*
X184573751Y-83069625D02*
X184611190Y-83322015D01*
X184611190Y-83322015D02*
X184623710Y-83576860D01*
X163371452Y-79407012D02*
X163364229Y-79259986D01*
X163364229Y-79259986D02*
X163342629Y-79114376D01*
X163342629Y-79114376D02*
X163306862Y-78971584D01*
X163306862Y-78971584D02*
X163257271Y-78832986D01*
X163257271Y-78832986D02*
X163194333Y-78699916D01*
X163194333Y-78699916D02*
X163118656Y-78573656D01*
X163118656Y-78573656D02*
X163030967Y-78455422D01*
X163030967Y-78455422D02*
X162932112Y-78346351D01*
X162932112Y-78346351D02*
X162823041Y-78247496D01*
X162823041Y-78247496D02*
X162704807Y-78159807D01*
X162704807Y-78159807D02*
X162578547Y-78084130D01*
X162578547Y-78084130D02*
X162445477Y-78021192D01*
X162445477Y-78021192D02*
X162306879Y-77971601D01*
X162306879Y-77971601D02*
X162164087Y-77935834D01*
X162164087Y-77935834D02*
X162018477Y-77914234D01*
X162018477Y-77914234D02*
X161871452Y-77907012D01*
X164871452Y-80976860D02*
X182023710Y-80976860D01*
X164871452Y-80976860D02*
X164724426Y-80969637D01*
X164724426Y-80969637D02*
X164578816Y-80948037D01*
X164578816Y-80948037D02*
X164436024Y-80912270D01*
X164436024Y-80912270D02*
X164297426Y-80862679D01*
X164297426Y-80862679D02*
X164164356Y-80799741D01*
X164164356Y-80799741D02*
X164038096Y-80724064D01*
X164038096Y-80724064D02*
X163919862Y-80636375D01*
X163919862Y-80636375D02*
X163810791Y-80537520D01*
X163810791Y-80537520D02*
X163711936Y-80428449D01*
X163711936Y-80428449D02*
X163624247Y-80310215D01*
X163624247Y-80310215D02*
X163548570Y-80183955D01*
X163548570Y-80183955D02*
X163485632Y-80050885D01*
X163485632Y-80050885D02*
X163436041Y-79912287D01*
X163436041Y-79912287D02*
X163400274Y-79769495D01*
X163400274Y-79769495D02*
X163378674Y-79623885D01*
X163378674Y-79623885D02*
X163371452Y-79476860D01*
X163371452Y-79476860D02*
X163371452Y-79407012D01*
X187523710Y-103524703D02*
X187239460Y-103510738D01*
X187239460Y-103510738D02*
X186957948Y-103468980D01*
X186957948Y-103468980D02*
X186681884Y-103399829D01*
X186681884Y-103399829D02*
X186413928Y-103303953D01*
X186413928Y-103303953D02*
X186156659Y-103182274D01*
X186156659Y-103182274D02*
X185912556Y-103035964D01*
X185912556Y-103035964D02*
X185683969Y-102866433D01*
X185683969Y-102866433D02*
X185473100Y-102675312D01*
X185473100Y-102675312D02*
X185281979Y-102464443D01*
X185281979Y-102464443D02*
X185112448Y-102235856D01*
X185112448Y-102235856D02*
X184966138Y-101991753D01*
X184966138Y-101991753D02*
X184844459Y-101734484D01*
X184844459Y-101734484D02*
X184748583Y-101466528D01*
X184748583Y-101466528D02*
X184679432Y-101190464D01*
X184679432Y-101190464D02*
X184637674Y-100908952D01*
X184637674Y-100908952D02*
X184623710Y-100624703D01*
X184623710Y-100624703D02*
X184623710Y-83576860D01*
X142250010Y-75199133D02*
X142377432Y-75205392D01*
X142377432Y-75205392D02*
X142503627Y-75224112D01*
X142503627Y-75224112D02*
X142627380Y-75255110D01*
X142627380Y-75255110D02*
X142747498Y-75298089D01*
X142747498Y-75298089D02*
X142862825Y-75352635D01*
X142862825Y-75352635D02*
X142972251Y-75418222D01*
X142972251Y-75418222D02*
X143074721Y-75494219D01*
X143074721Y-75494219D02*
X143169248Y-75579894D01*
X143169248Y-75579894D02*
X143254923Y-75674421D01*
X143254923Y-75674421D02*
X143330920Y-75776891D01*
X143330920Y-75776891D02*
X143396507Y-75886317D01*
X143396507Y-75886317D02*
X143451053Y-76001644D01*
X143451053Y-76001644D02*
X143494032Y-76121762D01*
X143494032Y-76121762D02*
X143525030Y-76245515D01*
X143525030Y-76245515D02*
X143543750Y-76371710D01*
X143543750Y-76371710D02*
X143550010Y-76499133D01*
X144850010Y-77907012D02*
X161871452Y-77907012D01*
X144850010Y-77907012D02*
X144722587Y-77900752D01*
X144722587Y-77900752D02*
X144596392Y-77882032D01*
X144596392Y-77882032D02*
X144472639Y-77851034D01*
X144472639Y-77851034D02*
X144352521Y-77808055D01*
X144352521Y-77808055D02*
X144237194Y-77753509D01*
X144237194Y-77753509D02*
X144127768Y-77687922D01*
X144127768Y-77687922D02*
X144025298Y-77611925D01*
X144025298Y-77611925D02*
X143930771Y-77526250D01*
X143930771Y-77526250D02*
X143845096Y-77431723D01*
X143845096Y-77431723D02*
X143769099Y-77329253D01*
X143769099Y-77329253D02*
X143703512Y-77219827D01*
X143703512Y-77219827D02*
X143648966Y-77104500D01*
X143648966Y-77104500D02*
X143605987Y-76984382D01*
X143605987Y-76984382D02*
X143574989Y-76860629D01*
X143574989Y-76860629D02*
X143556269Y-76734434D01*
X143556269Y-76734434D02*
X143550010Y-76607012D01*
X143550010Y-76607012D02*
X143550010Y-76499133D01*
X124133868Y-73853868D02*
X124127608Y-73726445D01*
X124127608Y-73726445D02*
X124108888Y-73600250D01*
X124108888Y-73600250D02*
X124077890Y-73476497D01*
X124077890Y-73476497D02*
X124034911Y-73356379D01*
X124034911Y-73356379D02*
X123980365Y-73241052D01*
X123980365Y-73241052D02*
X123914778Y-73131626D01*
X123914778Y-73131626D02*
X123838781Y-73029156D01*
X123838781Y-73029156D02*
X123753106Y-72934629D01*
X123753106Y-72934629D02*
X123658579Y-72848954D01*
X123658579Y-72848954D02*
X123556109Y-72772957D01*
X123556109Y-72772957D02*
X123446683Y-72707370D01*
X123446683Y-72707370D02*
X123331356Y-72652824D01*
X123331356Y-72652824D02*
X123211238Y-72609845D01*
X123211238Y-72609845D02*
X123087485Y-72578847D01*
X123087485Y-72578847D02*
X122961290Y-72560127D01*
X122961290Y-72560127D02*
X122833868Y-72553868D01*
X125433868Y-75199133D02*
X142250010Y-75199133D01*
X125433868Y-75199133D02*
X125306445Y-75192873D01*
X125306445Y-75192873D02*
X125180250Y-75174153D01*
X125180250Y-75174153D02*
X125056497Y-75143155D01*
X125056497Y-75143155D02*
X124936379Y-75100176D01*
X124936379Y-75100176D02*
X124821052Y-75045630D01*
X124821052Y-75045630D02*
X124711626Y-74980043D01*
X124711626Y-74980043D02*
X124609156Y-74904046D01*
X124609156Y-74904046D02*
X124514629Y-74818371D01*
X124514629Y-74818371D02*
X124428954Y-74723844D01*
X124428954Y-74723844D02*
X124352957Y-74621374D01*
X124352957Y-74621374D02*
X124287370Y-74511948D01*
X124287370Y-74511948D02*
X124232824Y-74396621D01*
X124232824Y-74396621D02*
X124189845Y-74276503D01*
X124189845Y-74276503D02*
X124158847Y-74152750D01*
X124158847Y-74152750D02*
X124140127Y-74026555D01*
X124140127Y-74026555D02*
X124133868Y-73899133D01*
X124133868Y-73899133D02*
X124133868Y-73853868D01*
X115252500Y-74553868D02*
X115252500Y-76835000D01*
X115252500Y-74553868D02*
X115262130Y-74357833D01*
X115262130Y-74357833D02*
X115290929Y-74163687D01*
X115290929Y-74163687D02*
X115338619Y-73973298D01*
X115338619Y-73973298D02*
X115404740Y-73788501D01*
X115404740Y-73788501D02*
X115488657Y-73611074D01*
X115488657Y-73611074D02*
X115589560Y-73442727D01*
X115589560Y-73442727D02*
X115706479Y-73285081D01*
X115706479Y-73285081D02*
X115838286Y-73139654D01*
X115838286Y-73139654D02*
X115983713Y-73007847D01*
X115983713Y-73007847D02*
X116141359Y-72890928D01*
X116141359Y-72890928D02*
X116309706Y-72790025D01*
X116309706Y-72790025D02*
X116487133Y-72706108D01*
X116487133Y-72706108D02*
X116671930Y-72639987D01*
X116671930Y-72639987D02*
X116862319Y-72592297D01*
X116862319Y-72592297D02*
X117056465Y-72563498D01*
X117056465Y-72563498D02*
X117252500Y-72553868D01*
X117252500Y-72553868D02*
X122833868Y-72553868D01*
X187853710Y-103524703D02*
X196285297Y-103524703D01*
X196285297Y-103524703D02*
X196588750Y-103524703D01*
X196778749Y-103524703D02*
X196778750Y-103524704D01*
X196285297Y-103524703D02*
X196778749Y-103524703D01*
X187523710Y-103524703D02*
X187853710Y-103524703D01*
X134302500Y-137160000D02*
X134302500Y-158550540D01*
X134302500Y-158550540D02*
X134408949Y-158656989D01*
X134302500Y-99060000D02*
X134302500Y-80010000D01*
X134302500Y-118110000D02*
X134302500Y-99060000D01*
X134302500Y-137160000D02*
X134302500Y-118110000D01*
X136302500Y-75699143D02*
X141750000Y-75699143D01*
X136106465Y-75708773D02*
X136302500Y-75699143D01*
X135912319Y-75737572D02*
X136106465Y-75708773D01*
X135721930Y-75785262D02*
X135912319Y-75737572D01*
X135537133Y-75851383D02*
X135721930Y-75785262D01*
X135359706Y-75935300D02*
X135537133Y-75851383D01*
X135191359Y-76036203D02*
X135359706Y-75935300D01*
X135033713Y-76153122D02*
X135191359Y-76036203D01*
X134888286Y-76284929D02*
X135033713Y-76153122D01*
X134756479Y-76430356D02*
X134888286Y-76284929D01*
X134639560Y-76588002D02*
X134756479Y-76430356D01*
X134538657Y-76756349D02*
X134639560Y-76588002D01*
X134454740Y-76933776D02*
X134538657Y-76756349D01*
X134388619Y-77118573D02*
X134454740Y-76933776D01*
X134340929Y-77308962D02*
X134388619Y-77118573D01*
X134312130Y-77503108D02*
X134340929Y-77308962D01*
X134302500Y-77699143D02*
X134312130Y-77503108D01*
X134302500Y-77699143D02*
X134302500Y-80010000D01*
X143050000Y-77107022D02*
X143050000Y-76999143D01*
X143056259Y-77234444D02*
X143050000Y-77107022D01*
X143074979Y-77360639D02*
X143056259Y-77234444D01*
X143105977Y-77484392D02*
X143074979Y-77360639D01*
X143148956Y-77604510D02*
X143105977Y-77484392D01*
X143203502Y-77719837D02*
X143148956Y-77604510D01*
X143269089Y-77829263D02*
X143203502Y-77719837D01*
X143345086Y-77931733D02*
X143269089Y-77829263D01*
X143430761Y-78026260D02*
X143345086Y-77931733D01*
X143525288Y-78111935D02*
X143430761Y-78026260D01*
X143627758Y-78187932D02*
X143525288Y-78111935D01*
X143737184Y-78253519D02*
X143627758Y-78187932D01*
X143852511Y-78308065D02*
X143737184Y-78253519D01*
X143972629Y-78351044D02*
X143852511Y-78308065D01*
X144096382Y-78382042D02*
X143972629Y-78351044D01*
X144222577Y-78400762D02*
X144096382Y-78382042D01*
X144350000Y-78407022D02*
X144222577Y-78400762D01*
X144350000Y-78407022D02*
X161371442Y-78407022D01*
X143043740Y-76871720D02*
X143050000Y-76999143D01*
X143025020Y-76745525D02*
X143043740Y-76871720D01*
X142994022Y-76621772D02*
X143025020Y-76745525D01*
X142951043Y-76501654D02*
X142994022Y-76621772D01*
X142896497Y-76386327D02*
X142951043Y-76501654D01*
X142830910Y-76276901D02*
X142896497Y-76386327D01*
X142754913Y-76174431D02*
X142830910Y-76276901D01*
X142669238Y-76079904D02*
X142754913Y-76174431D01*
X142574711Y-75994229D02*
X142669238Y-76079904D01*
X142472241Y-75918232D02*
X142574711Y-75994229D01*
X142362815Y-75852645D02*
X142472241Y-75918232D01*
X142247488Y-75798099D02*
X142362815Y-75852645D01*
X142127370Y-75755120D02*
X142247488Y-75798099D01*
X142003617Y-75724122D02*
X142127370Y-75755120D01*
X141877422Y-75705402D02*
X142003617Y-75724122D01*
X141750000Y-75699143D02*
X141877422Y-75705402D01*
X184123700Y-101190729D02*
X184123700Y-83776870D01*
X184139108Y-101504383D02*
X184123700Y-101190729D01*
X184185187Y-101815018D02*
X184139108Y-101504383D01*
X184261490Y-102119639D02*
X184185187Y-101815018D01*
X184367285Y-102415315D02*
X184261490Y-102119639D01*
X184501551Y-102699198D02*
X184367285Y-102415315D01*
X184662997Y-102968553D02*
X184501551Y-102699198D01*
X184850066Y-103220787D02*
X184662997Y-102968553D01*
X185060958Y-103453470D02*
X184850066Y-103220787D01*
X185293641Y-103664362D02*
X185060958Y-103453470D01*
X185545875Y-103851431D02*
X185293641Y-103664362D01*
X185815230Y-104012877D02*
X185545875Y-103851431D01*
X186099113Y-104147143D02*
X185815230Y-104012877D01*
X186394789Y-104252938D02*
X186099113Y-104147143D01*
X186699410Y-104329241D02*
X186394789Y-104252938D01*
X187010045Y-104375320D02*
X186699410Y-104329241D01*
X187323700Y-104390729D02*
X187010045Y-104375320D01*
X162871442Y-79976870D02*
X162871442Y-79907022D01*
X162878664Y-80123895D02*
X162871442Y-79976870D01*
X162900264Y-80269505D02*
X162878664Y-80123895D01*
X162936031Y-80412297D02*
X162900264Y-80269505D01*
X162985622Y-80550895D02*
X162936031Y-80412297D01*
X163048560Y-80683965D02*
X162985622Y-80550895D01*
X163124237Y-80810225D02*
X163048560Y-80683965D01*
X163211926Y-80928459D02*
X163124237Y-80810225D01*
X163310781Y-81037530D02*
X163211926Y-80928459D01*
X163419852Y-81136385D02*
X163310781Y-81037530D01*
X163538086Y-81224074D02*
X163419852Y-81136385D01*
X163664346Y-81299751D02*
X163538086Y-81224074D01*
X163797416Y-81362689D02*
X163664346Y-81299751D01*
X163936014Y-81412280D02*
X163797416Y-81362689D01*
X164078806Y-81448047D02*
X163936014Y-81412280D01*
X164224416Y-81469647D02*
X164078806Y-81448047D01*
X164371442Y-81476870D02*
X164224416Y-81469647D01*
X164371442Y-81476870D02*
X181823700Y-81476870D01*
X162864219Y-79759996D02*
X162871442Y-79907022D01*
X162842619Y-79614386D02*
X162864219Y-79759996D01*
X162806852Y-79471594D02*
X162842619Y-79614386D01*
X162757261Y-79332996D02*
X162806852Y-79471594D01*
X162694323Y-79199926D02*
X162757261Y-79332996D01*
X162618646Y-79073666D02*
X162694323Y-79199926D01*
X162530957Y-78955432D02*
X162618646Y-79073666D01*
X162432102Y-78846361D02*
X162530957Y-78955432D01*
X162323031Y-78747506D02*
X162432102Y-78846361D01*
X162204797Y-78659817D02*
X162323031Y-78747506D01*
X162078537Y-78584140D02*
X162204797Y-78659817D01*
X161945467Y-78521202D02*
X162078537Y-78584140D01*
X161806869Y-78471611D02*
X161945467Y-78521202D01*
X161664077Y-78435844D02*
X161806869Y-78471611D01*
X161518467Y-78414244D02*
X161664077Y-78435844D01*
X161371442Y-78407022D02*
X161518467Y-78414244D01*
X184112624Y-83551430D02*
X184123700Y-83776870D01*
X184079506Y-83328162D02*
X184112624Y-83551430D01*
X184024662Y-83109215D02*
X184079506Y-83328162D01*
X183948622Y-82896698D02*
X184024662Y-83109215D01*
X183852118Y-82692657D02*
X183948622Y-82896698D01*
X183736080Y-82499058D02*
X183852118Y-82692657D01*
X183601624Y-82317765D02*
X183736080Y-82499058D01*
X183450045Y-82150524D02*
X183601624Y-82317765D01*
X183282804Y-81998945D02*
X183450045Y-82150524D01*
X183101511Y-81864489D02*
X183282804Y-81998945D01*
X182907912Y-81748451D02*
X183101511Y-81864489D01*
X182703871Y-81651947D02*
X182907912Y-81748451D01*
X182491354Y-81575907D02*
X182703871Y-81651947D01*
X182272407Y-81521063D02*
X182491354Y-81575907D01*
X182049139Y-81487945D02*
X182272407Y-81521063D01*
X181823700Y-81476870D02*
X182049139Y-81487945D01*
X197278749Y-104390729D02*
X197278750Y-104390730D01*
X196780729Y-104390729D02*
X197278749Y-104390729D01*
X187653700Y-104390729D02*
X196780729Y-104390729D01*
X196780729Y-104390729D02*
X197088750Y-104390729D01*
X187323700Y-104390729D02*
X187653700Y-104390729D01*
D15*
X200555331Y-119075331D02*
X200155332Y-119475330D01*
X200155332Y-119475330D02*
X200155332Y-134854668D01*
X200155332Y-135687167D02*
X199430000Y-136412499D01*
X200155332Y-134854668D02*
X200155332Y-135687167D01*
X201141019Y-119885870D02*
X201141019Y-141558981D01*
X201141019Y-141558981D02*
X201141019Y-141808981D01*
X201141019Y-142698981D02*
X199440000Y-144400000D01*
X201141019Y-141808981D02*
X201141019Y-142698981D01*
X200421458Y-151343542D02*
X199427500Y-152337500D01*
X199427500Y-152337500D02*
X201926458Y-149838542D01*
X201926458Y-149838542D02*
X201926458Y-149343542D01*
X201926458Y-120504813D02*
X201926458Y-149343542D01*
X192880685Y-160275000D02*
X195415685Y-157740000D01*
X192315000Y-160275000D02*
X192880685Y-160275000D01*
X202777723Y-155740000D02*
X202777723Y-121029552D01*
X202777723Y-155740000D02*
X202768092Y-155936034D01*
X202768092Y-155936034D02*
X202739293Y-156130180D01*
X202739293Y-156130180D02*
X202691603Y-156320569D01*
X202691603Y-156320569D02*
X202625482Y-156505366D01*
X202625482Y-156505366D02*
X202541565Y-156682793D01*
X202541565Y-156682793D02*
X202440662Y-156851140D01*
X202440662Y-156851140D02*
X202323743Y-157008786D01*
X202323743Y-157008786D02*
X202191936Y-157154213D01*
X202191936Y-157154213D02*
X202046509Y-157286020D01*
X202046509Y-157286020D02*
X201888863Y-157402939D01*
X201888863Y-157402939D02*
X201720516Y-157503842D01*
X201720516Y-157503842D02*
X201543089Y-157587759D01*
X201543089Y-157587759D02*
X201358292Y-157653880D01*
X201358292Y-157653880D02*
X201167903Y-157701570D01*
X201167903Y-157701570D02*
X200973757Y-157730369D01*
X200973757Y-157730369D02*
X200777723Y-157740000D01*
X200777723Y-157740000D02*
X195415685Y-157740000D01*
D16*
X153352500Y-140335000D02*
X153352500Y-162064509D01*
X153352500Y-162064509D02*
X153521353Y-162233362D01*
X153352500Y-121285000D02*
X153352500Y-122875990D01*
X153352500Y-122875990D02*
X153352500Y-140335000D01*
X153352500Y-102235000D02*
X153352500Y-103825990D01*
X153352500Y-103825990D02*
X153352500Y-121285000D01*
X153352500Y-83185000D02*
X153352500Y-84775990D01*
X153352500Y-84775990D02*
X153352500Y-102235000D01*
X186780630Y-105123876D02*
X187123690Y-105140730D01*
X185179194Y-104550873D02*
X185473801Y-104727454D01*
X185784297Y-104874308D02*
X186107693Y-104990021D01*
X184648816Y-104115603D02*
X184903313Y-104346266D01*
X184213546Y-103585225D02*
X184418153Y-103861106D01*
X184036965Y-103290618D02*
X184213546Y-103585225D01*
X183890111Y-102980122D02*
X184036965Y-103290618D01*
X183623690Y-83976880D02*
X183623690Y-101640730D01*
X183614059Y-83780845D02*
X183623690Y-83976880D01*
X184418153Y-103861106D02*
X184648816Y-104115603D01*
X183387532Y-83034086D02*
X183471449Y-83211513D01*
X182892476Y-82430859D02*
X183037903Y-82562666D01*
X182734830Y-82313940D02*
X182892476Y-82430859D01*
X182389056Y-82129120D02*
X182566483Y-82213037D01*
X182204259Y-82062999D02*
X182389056Y-82129120D01*
X183623690Y-101640730D02*
X183640543Y-101983789D01*
X181819724Y-81986510D02*
X182013870Y-82015309D01*
X163871432Y-81976880D02*
X181623690Y-81976880D01*
X163724406Y-81969657D02*
X163871432Y-81976880D01*
X163436004Y-81912290D02*
X163578796Y-81948057D01*
X163297406Y-81862699D02*
X163436004Y-81912290D01*
X183037903Y-82562666D02*
X183169710Y-82708093D01*
X163038076Y-81724084D02*
X163164336Y-81799761D01*
X162919842Y-81636395D02*
X163038076Y-81724084D01*
X153352500Y-83185000D02*
X153352500Y-80907032D01*
X162810771Y-81537540D02*
X162919842Y-81636395D01*
X183471449Y-83211513D02*
X183537570Y-83396310D01*
X162306842Y-79971604D02*
X162342609Y-80114396D01*
X162711916Y-81428469D02*
X162810771Y-81537540D01*
X184903313Y-104346266D02*
X185179194Y-104550873D01*
X153938286Y-79492818D02*
X154083713Y-79361011D01*
X162624227Y-81310235D02*
X162711916Y-81428469D01*
X153438619Y-80326462D02*
X153504740Y-80141665D01*
X162485612Y-81050905D02*
X162548550Y-81183975D01*
X162364209Y-80260006D02*
X162371432Y-80407032D01*
X162436021Y-80912307D02*
X162485612Y-81050905D01*
X162400254Y-80769515D02*
X162436021Y-80912307D01*
X162342609Y-80114396D02*
X162364209Y-80260006D01*
X163164336Y-81799761D02*
X163297406Y-81862699D01*
X162378654Y-80623905D02*
X162400254Y-80769515D01*
X161704787Y-79159827D02*
X161823021Y-79247516D01*
X162194313Y-79699936D02*
X162257251Y-79833006D01*
X162371432Y-80476880D02*
X162378654Y-80623905D01*
X183690941Y-102323546D02*
X183774398Y-102656726D01*
X183640543Y-101983789D02*
X183690941Y-102323546D01*
X162118636Y-79573676D02*
X162194313Y-79699936D01*
X161018457Y-78914254D02*
X161164067Y-78935854D01*
X161823021Y-79247516D02*
X161932092Y-79346371D01*
X186107693Y-104990021D02*
X186440873Y-105073478D01*
X161578527Y-79084150D02*
X161704787Y-79159827D01*
X161306859Y-78971621D02*
X161445457Y-79021212D01*
X153588657Y-79964238D02*
X153689560Y-79795891D01*
X160871432Y-78907032D02*
X161018457Y-78914254D01*
X186440873Y-105073478D02*
X186780630Y-105123876D01*
X183585260Y-83586699D02*
X183614059Y-83780845D01*
X183169710Y-82708093D02*
X183286629Y-82865739D01*
X161932092Y-79346371D02*
X162030947Y-79455442D01*
X154409706Y-79143189D02*
X154587133Y-79059272D01*
X153504740Y-80141665D02*
X153588657Y-79964238D01*
X155156465Y-78916662D02*
X155352500Y-78907032D01*
X161445457Y-79021212D02*
X161578527Y-79084150D01*
X153352500Y-80907032D02*
X153362130Y-80710997D01*
X154962319Y-78945461D02*
X155156465Y-78916662D01*
X154771930Y-78993151D02*
X154962319Y-78945461D01*
X183774398Y-102656726D02*
X183890111Y-102980122D01*
X155352500Y-78907032D02*
X160871432Y-78907032D01*
X187453690Y-105140730D02*
X197365804Y-105140730D01*
X153362130Y-80710997D02*
X153390929Y-80516851D01*
X161164067Y-78935854D02*
X161306859Y-78971621D01*
X154587133Y-79059272D02*
X154771930Y-78993151D01*
X183286629Y-82865739D02*
X183387532Y-83034086D01*
X182566483Y-82213037D02*
X182734830Y-82313940D01*
X153806479Y-79638245D02*
X153938286Y-79492818D01*
X162548550Y-81183975D02*
X162624227Y-81310235D01*
X181623690Y-81976880D02*
X181819724Y-81986510D01*
X153689560Y-79795891D02*
X153806479Y-79638245D01*
X154083713Y-79361011D02*
X154241359Y-79244092D01*
X183537570Y-83396310D02*
X183585260Y-83586699D01*
X162371432Y-80407032D02*
X162371432Y-80476880D01*
X153390929Y-80516851D02*
X153438619Y-80326462D01*
X182013870Y-82015309D02*
X182204259Y-82062999D01*
X162257251Y-79833006D02*
X162306842Y-79971604D01*
X185473801Y-104727454D02*
X185784297Y-104874308D01*
X162030947Y-79455442D02*
X162118636Y-79573676D01*
X163578796Y-81948057D02*
X163724406Y-81969657D01*
X154241359Y-79244092D02*
X154409706Y-79143189D01*
X197425507Y-105140730D02*
X197778750Y-105493973D01*
X197365804Y-105140730D02*
X197425507Y-105140730D01*
X187123690Y-105140730D02*
X187453690Y-105140730D01*
X172402500Y-86360000D02*
X172402500Y-105410000D01*
X173987223Y-147310448D02*
X173987223Y-165340448D01*
X173987223Y-165340448D02*
X172687223Y-166640448D01*
X172402500Y-124460000D02*
X172402500Y-145725725D01*
X172402500Y-145725725D02*
X173987223Y-147310448D01*
X172402500Y-105410000D02*
X172402500Y-124460000D01*
X181123680Y-86360000D02*
X172402500Y-86360000D01*
X181123680Y-86360000D02*
X181319714Y-86369630D01*
X181319714Y-86369630D02*
X181513860Y-86398429D01*
X181513860Y-86398429D02*
X181704249Y-86446119D01*
X181704249Y-86446119D02*
X181889046Y-86512240D01*
X181889046Y-86512240D02*
X182066473Y-86596157D01*
X182066473Y-86596157D02*
X182234820Y-86697060D01*
X182234820Y-86697060D02*
X182392466Y-86813979D01*
X182392466Y-86813979D02*
X182537893Y-86945786D01*
X182537893Y-86945786D02*
X182669700Y-87091213D01*
X182669700Y-87091213D02*
X182786619Y-87248859D01*
X182786619Y-87248859D02*
X182887522Y-87417206D01*
X182887522Y-87417206D02*
X182971439Y-87594633D01*
X182971439Y-87594633D02*
X183037560Y-87779430D01*
X183037560Y-87779430D02*
X183085250Y-87969819D01*
X183085250Y-87969819D02*
X183114049Y-88163965D01*
X183114049Y-88163965D02*
X183123680Y-88360000D01*
X186923680Y-106362500D02*
X197758750Y-106362500D01*
X186923680Y-106362500D02*
X186551214Y-106344201D01*
X186551214Y-106344201D02*
X186182336Y-106289484D01*
X186182336Y-106289484D02*
X185820598Y-106198873D01*
X185820598Y-106198873D02*
X185469482Y-106073242D01*
X185469482Y-106073242D02*
X185132372Y-105913800D01*
X185132372Y-105913800D02*
X184812513Y-105722084D01*
X184812513Y-105722084D02*
X184512985Y-105499939D01*
X184512985Y-105499939D02*
X184236674Y-105249505D01*
X184236674Y-105249505D02*
X183986240Y-104973194D01*
X183986240Y-104973194D02*
X183764095Y-104673666D01*
X183764095Y-104673666D02*
X183572379Y-104353807D01*
X183572379Y-104353807D02*
X183412937Y-104016697D01*
X183412937Y-104016697D02*
X183287306Y-103665581D01*
X183287306Y-103665581D02*
X183196695Y-103303843D01*
X183196695Y-103303843D02*
X183141978Y-102934965D01*
X183141978Y-102934965D02*
X183123680Y-102562500D01*
X183123680Y-102562500D02*
X183123680Y-88360000D01*
X198276250Y-106362500D02*
X198278750Y-106360000D01*
X197758750Y-106362500D02*
X198276250Y-106362500D01*
D17*
X191290000Y-91649998D02*
X188330002Y-91649998D01*
X188330002Y-91649998D02*
X187280000Y-92700000D01*
X191270000Y-88260000D02*
X193740000Y-88260000D01*
X191270000Y-88260000D02*
X191270000Y-88486246D01*
X188830000Y-88260000D02*
X191270000Y-88260000D01*
X191270000Y-88486246D02*
X191293750Y-88509996D01*
D16*
X194420000Y-112350000D02*
X197760000Y-112350000D01*
X193040000Y-110970000D02*
X194420000Y-112350000D01*
X193010000Y-111000000D02*
X193040000Y-110970000D01*
X193010000Y-115240000D02*
X193010000Y-111000000D01*
X193020000Y-115250000D02*
X193010000Y-115240000D01*
X195940000Y-115250000D02*
X193020000Y-115250000D01*
X192530000Y-110970000D02*
X191290000Y-109730000D01*
X193040000Y-110970000D02*
X192530000Y-110970000D01*
D15*
X188420000Y-115312500D02*
X187051250Y-116681250D01*
X188420000Y-111920000D02*
X188420000Y-115312500D01*
X199003751Y-106708001D02*
X199003751Y-103753751D01*
X199003751Y-103753751D02*
X196850000Y-101600000D01*
X196968002Y-108743750D02*
X199003751Y-106708001D01*
X191203248Y-108743750D02*
X196968002Y-108743750D01*
X190267207Y-109679791D02*
X191203248Y-108743750D01*
X189574791Y-109679791D02*
X190267207Y-109679791D01*
X200282501Y-106425735D02*
X200282501Y-103802501D01*
X194988750Y-111006250D02*
X195770001Y-110224999D01*
X196483237Y-110224999D02*
X200282501Y-106425735D01*
X195770001Y-110224999D02*
X196483237Y-110224999D01*
D17*
X195280000Y-117720000D02*
X199420000Y-117720000D01*
X193270000Y-119730000D02*
X195280000Y-117720000D01*
X199420000Y-112680000D02*
X201180000Y-110920000D01*
X199420000Y-117720000D02*
X199420000Y-112680000D01*
D16*
X190800000Y-119960000D02*
X190130000Y-119960000D01*
X194750000Y-116010000D02*
X190800000Y-119960000D01*
D15*
X204706250Y-102673750D02*
X204706250Y-89880000D01*
X196430000Y-110950000D02*
X204706250Y-102673750D01*
D18*
G36*
X204952878Y-126873000D02*
G01*
X203537723Y-126873000D01*
X203537723Y-121733263D01*
X203581660Y-121689326D01*
X203694928Y-121519808D01*
X203772949Y-121331450D01*
X203812723Y-121131491D01*
X203812723Y-120927613D01*
X203772949Y-120727654D01*
X203694928Y-120539296D01*
X203581660Y-120369778D01*
X203437497Y-120225615D01*
X203267979Y-120112347D01*
X203079621Y-120034326D01*
X202879662Y-119994552D01*
X202830296Y-119994552D01*
X202730395Y-119845039D01*
X202586232Y-119700876D01*
X202416714Y-119587608D01*
X202228356Y-119509587D01*
X202094396Y-119482941D01*
X202058224Y-119395614D01*
X201944956Y-119226096D01*
X201800793Y-119081933D01*
X201631275Y-118968665D01*
X201585630Y-118949758D01*
X201550557Y-118773433D01*
X201472536Y-118585075D01*
X201359268Y-118415557D01*
X201215105Y-118271394D01*
X201045587Y-118158126D01*
X200857229Y-118080105D01*
X200657270Y-118040331D01*
X200453392Y-118040331D01*
X200403478Y-118050259D01*
X200415226Y-118021898D01*
X200455000Y-117821939D01*
X200455000Y-117618061D01*
X200415226Y-117418102D01*
X200337205Y-117229744D01*
X200305000Y-117181546D01*
X200305000Y-113046578D01*
X201425044Y-111926535D01*
X201481898Y-111915226D01*
X201670256Y-111837205D01*
X201839774Y-111723937D01*
X201983937Y-111579774D01*
X202097205Y-111410256D01*
X202175226Y-111221898D01*
X202215000Y-111021939D01*
X202215000Y-110818061D01*
X202175226Y-110618102D01*
X202097205Y-110429744D01*
X201983937Y-110260226D01*
X201839774Y-110116063D01*
X201670256Y-110002795D01*
X201481898Y-109924774D01*
X201281939Y-109885000D01*
X201078061Y-109885000D01*
X200878102Y-109924774D01*
X200689744Y-110002795D01*
X200520226Y-110116063D01*
X200376063Y-110260226D01*
X200262795Y-110429744D01*
X200184774Y-110618102D01*
X200173465Y-110674956D01*
X198824951Y-112023471D01*
X198791184Y-112051183D01*
X198763471Y-112084951D01*
X198763468Y-112084954D01*
X198680590Y-112185941D01*
X198598412Y-112339687D01*
X198547805Y-112506510D01*
X198530719Y-112680000D01*
X198535001Y-112723479D01*
X198535000Y-116835000D01*
X195378251Y-116835000D01*
X195409774Y-116813937D01*
X195553937Y-116669774D01*
X195667205Y-116500256D01*
X195745226Y-116311898D01*
X195785000Y-116111939D01*
X195785000Y-115908061D01*
X195745226Y-115708102D01*
X195667205Y-115519744D01*
X195553937Y-115350226D01*
X195409774Y-115206063D01*
X195240256Y-115092795D01*
X195051898Y-115014774D01*
X194851939Y-114975000D01*
X194648061Y-114975000D01*
X194448102Y-115014774D01*
X194259744Y-115092795D01*
X194090226Y-115206063D01*
X193946063Y-115350226D01*
X193832795Y-115519744D01*
X193754774Y-115708102D01*
X193715000Y-115908061D01*
X193715000Y-115934843D01*
X190610917Y-119038926D01*
X190431898Y-118964774D01*
X190231939Y-118925000D01*
X190028061Y-118925000D01*
X189828102Y-118964774D01*
X189639744Y-119042795D01*
X189470226Y-119156063D01*
X189326063Y-119300226D01*
X189212795Y-119469744D01*
X189134774Y-119658102D01*
X189095000Y-119858061D01*
X189095000Y-120061939D01*
X189134774Y-120261898D01*
X189212795Y-120450256D01*
X189326063Y-120619774D01*
X189470226Y-120763937D01*
X189639744Y-120877205D01*
X189828102Y-120955226D01*
X190028061Y-120995000D01*
X190231939Y-120995000D01*
X190431898Y-120955226D01*
X190620256Y-120877205D01*
X190789774Y-120763937D01*
X190805451Y-120748260D01*
X190838553Y-120745000D01*
X190838561Y-120745000D01*
X190953887Y-120733641D01*
X191101860Y-120688754D01*
X191238233Y-120615862D01*
X191357764Y-120517764D01*
X191382347Y-120487810D01*
X192235000Y-119635157D01*
X192235000Y-119831939D01*
X192274774Y-120031898D01*
X192352795Y-120220256D01*
X192466063Y-120389774D01*
X192610226Y-120533937D01*
X192779744Y-120647205D01*
X192968102Y-120725226D01*
X193168061Y-120765000D01*
X193371939Y-120765000D01*
X193571898Y-120725226D01*
X193760256Y-120647205D01*
X193929774Y-120533937D01*
X194073937Y-120389774D01*
X194187205Y-120220256D01*
X194265226Y-120031898D01*
X194276535Y-119975043D01*
X195646579Y-118605000D01*
X198881546Y-118605000D01*
X198929744Y-118637205D01*
X199118102Y-118715226D01*
X199318061Y-118755000D01*
X199521939Y-118755000D01*
X199571853Y-118745072D01*
X199560105Y-118773433D01*
X199520331Y-118973392D01*
X199520331Y-119051105D01*
X199507381Y-119075332D01*
X199449786Y-119183084D01*
X199406329Y-119326345D01*
X199395332Y-119437998D01*
X199395332Y-119438008D01*
X199391656Y-119475330D01*
X199395332Y-119512652D01*
X199395332Y-119550198D01*
X199303393Y-119550198D01*
X199103434Y-119589972D01*
X198915076Y-119667993D01*
X198745558Y-119781261D01*
X198601395Y-119925424D01*
X198488127Y-120094942D01*
X198410106Y-120283300D01*
X198370332Y-120483259D01*
X198370332Y-120687137D01*
X198410106Y-120887096D01*
X198488127Y-121075454D01*
X198601395Y-121244972D01*
X198656345Y-121299922D01*
X198699786Y-121443130D01*
X198724369Y-121489119D01*
X198735001Y-121509011D01*
X198735002Y-126873000D01*
X185070750Y-126873000D01*
X185070750Y-106753028D01*
X185168708Y-106799359D01*
X185168714Y-106799361D01*
X185168718Y-106799363D01*
X185592446Y-106950976D01*
X185692327Y-106975994D01*
X186029001Y-107060327D01*
X186029011Y-107060329D01*
X186453932Y-107123359D01*
X186474180Y-107126363D01*
X186865912Y-107145608D01*
X186885119Y-107147500D01*
X186904418Y-107147500D01*
X186923674Y-107148446D01*
X186942931Y-107147500D01*
X197489450Y-107147500D01*
X196653201Y-107983750D01*
X191240571Y-107983750D01*
X191203248Y-107980074D01*
X191165925Y-107983750D01*
X191165915Y-107983750D01*
X191054262Y-107994747D01*
X190911001Y-108038204D01*
X190778971Y-108108776D01*
X190695331Y-108177418D01*
X190663247Y-108203749D01*
X190639449Y-108232747D01*
X190091761Y-108780436D01*
X190065047Y-108762586D01*
X189876689Y-108684565D01*
X189676730Y-108644791D01*
X189472852Y-108644791D01*
X189272893Y-108684565D01*
X189084535Y-108762586D01*
X188915017Y-108875854D01*
X188770854Y-109020017D01*
X188657586Y-109189535D01*
X188579565Y-109377893D01*
X188539791Y-109577852D01*
X188539791Y-109781730D01*
X188579565Y-109981689D01*
X188657586Y-110170047D01*
X188770854Y-110339565D01*
X188915017Y-110483728D01*
X189084535Y-110596996D01*
X189272893Y-110675017D01*
X189472852Y-110714791D01*
X189676730Y-110714791D01*
X189876689Y-110675017D01*
X190065047Y-110596996D01*
X190234565Y-110483728D01*
X190275658Y-110442635D01*
X190304529Y-110439791D01*
X190304540Y-110439791D01*
X190416193Y-110428794D01*
X190559454Y-110385337D01*
X190691483Y-110314765D01*
X190807208Y-110219792D01*
X190831011Y-110190789D01*
X191518050Y-109503750D01*
X195529521Y-109503750D01*
X195477754Y-109519453D01*
X195345725Y-109590025D01*
X195230000Y-109684998D01*
X195206202Y-109713997D01*
X194948948Y-109971250D01*
X194886811Y-109971250D01*
X194686852Y-110011024D01*
X194498494Y-110089045D01*
X194328976Y-110202313D01*
X194184813Y-110346476D01*
X194071545Y-110515994D01*
X193993524Y-110704352D01*
X193953750Y-110904311D01*
X193953750Y-111108189D01*
X193993524Y-111308148D01*
X194071545Y-111496506D01*
X194184813Y-111666024D01*
X194328976Y-111810187D01*
X194498494Y-111923455D01*
X194686852Y-112001476D01*
X194886811Y-112041250D01*
X195090689Y-112041250D01*
X195290648Y-112001476D01*
X195479006Y-111923455D01*
X195648524Y-111810187D01*
X195737500Y-111721211D01*
X195770226Y-111753937D01*
X195939744Y-111867205D01*
X196128102Y-111945226D01*
X196328061Y-111985000D01*
X196531939Y-111985000D01*
X196731898Y-111945226D01*
X196920256Y-111867205D01*
X197089774Y-111753937D01*
X197233937Y-111609774D01*
X197347205Y-111440256D01*
X197425226Y-111251898D01*
X197465000Y-111051939D01*
X197465000Y-110989801D01*
X204952878Y-103501924D01*
X204952878Y-126873000D01*
X204952878Y-126873000D01*
G37*
X204952878Y-126873000D02*
X203537723Y-126873000D01*
X203537723Y-121733263D01*
X203581660Y-121689326D01*
X203694928Y-121519808D01*
X203772949Y-121331450D01*
X203812723Y-121131491D01*
X203812723Y-120927613D01*
X203772949Y-120727654D01*
X203694928Y-120539296D01*
X203581660Y-120369778D01*
X203437497Y-120225615D01*
X203267979Y-120112347D01*
X203079621Y-120034326D01*
X202879662Y-119994552D01*
X202830296Y-119994552D01*
X202730395Y-119845039D01*
X202586232Y-119700876D01*
X202416714Y-119587608D01*
X202228356Y-119509587D01*
X202094396Y-119482941D01*
X202058224Y-119395614D01*
X201944956Y-119226096D01*
X201800793Y-119081933D01*
X201631275Y-118968665D01*
X201585630Y-118949758D01*
X201550557Y-118773433D01*
X201472536Y-118585075D01*
X201359268Y-118415557D01*
X201215105Y-118271394D01*
X201045587Y-118158126D01*
X200857229Y-118080105D01*
X200657270Y-118040331D01*
X200453392Y-118040331D01*
X200403478Y-118050259D01*
X200415226Y-118021898D01*
X200455000Y-117821939D01*
X200455000Y-117618061D01*
X200415226Y-117418102D01*
X200337205Y-117229744D01*
X200305000Y-117181546D01*
X200305000Y-113046578D01*
X201425044Y-111926535D01*
X201481898Y-111915226D01*
X201670256Y-111837205D01*
X201839774Y-111723937D01*
X201983937Y-111579774D01*
X202097205Y-111410256D01*
X202175226Y-111221898D01*
X202215000Y-111021939D01*
X202215000Y-110818061D01*
X202175226Y-110618102D01*
X202097205Y-110429744D01*
X201983937Y-110260226D01*
X201839774Y-110116063D01*
X201670256Y-110002795D01*
X201481898Y-109924774D01*
X201281939Y-109885000D01*
X201078061Y-109885000D01*
X200878102Y-109924774D01*
X200689744Y-110002795D01*
X200520226Y-110116063D01*
X200376063Y-110260226D01*
X200262795Y-110429744D01*
X200184774Y-110618102D01*
X200173465Y-110674956D01*
X198824951Y-112023471D01*
X198791184Y-112051183D01*
X198763471Y-112084951D01*
X198763468Y-112084954D01*
X198680590Y-112185941D01*
X198598412Y-112339687D01*
X198547805Y-112506510D01*
X198530719Y-112680000D01*
X198535001Y-112723479D01*
X198535000Y-116835000D01*
X195378251Y-116835000D01*
X195409774Y-116813937D01*
X195553937Y-116669774D01*
X195667205Y-116500256D01*
X195745226Y-116311898D01*
X195785000Y-116111939D01*
X195785000Y-115908061D01*
X195745226Y-115708102D01*
X195667205Y-115519744D01*
X195553937Y-115350226D01*
X195409774Y-115206063D01*
X195240256Y-115092795D01*
X195051898Y-115014774D01*
X194851939Y-114975000D01*
X194648061Y-114975000D01*
X194448102Y-115014774D01*
X194259744Y-115092795D01*
X194090226Y-115206063D01*
X193946063Y-115350226D01*
X193832795Y-115519744D01*
X193754774Y-115708102D01*
X193715000Y-115908061D01*
X193715000Y-115934843D01*
X190610917Y-119038926D01*
X190431898Y-118964774D01*
X190231939Y-118925000D01*
X190028061Y-118925000D01*
X189828102Y-118964774D01*
X189639744Y-119042795D01*
X189470226Y-119156063D01*
X189326063Y-119300226D01*
X189212795Y-119469744D01*
X189134774Y-119658102D01*
X189095000Y-119858061D01*
X189095000Y-120061939D01*
X189134774Y-120261898D01*
X189212795Y-120450256D01*
X189326063Y-120619774D01*
X189470226Y-120763937D01*
X189639744Y-120877205D01*
X189828102Y-120955226D01*
X190028061Y-120995000D01*
X190231939Y-120995000D01*
X190431898Y-120955226D01*
X190620256Y-120877205D01*
X190789774Y-120763937D01*
X190805451Y-120748260D01*
X190838553Y-120745000D01*
X190838561Y-120745000D01*
X190953887Y-120733641D01*
X191101860Y-120688754D01*
X191238233Y-120615862D01*
X191357764Y-120517764D01*
X191382347Y-120487810D01*
X192235000Y-119635157D01*
X192235000Y-119831939D01*
X192274774Y-120031898D01*
X192352795Y-120220256D01*
X192466063Y-120389774D01*
X192610226Y-120533937D01*
X192779744Y-120647205D01*
X192968102Y-120725226D01*
X193168061Y-120765000D01*
X193371939Y-120765000D01*
X193571898Y-120725226D01*
X193760256Y-120647205D01*
X193929774Y-120533937D01*
X194073937Y-120389774D01*
X194187205Y-120220256D01*
X194265226Y-120031898D01*
X194276535Y-119975043D01*
X195646579Y-118605000D01*
X198881546Y-118605000D01*
X198929744Y-118637205D01*
X199118102Y-118715226D01*
X199318061Y-118755000D01*
X199521939Y-118755000D01*
X199571853Y-118745072D01*
X199560105Y-118773433D01*
X199520331Y-118973392D01*
X199520331Y-119051105D01*
X199507381Y-119075332D01*
X199449786Y-119183084D01*
X199406329Y-119326345D01*
X199395332Y-119437998D01*
X199395332Y-119438008D01*
X199391656Y-119475330D01*
X199395332Y-119512652D01*
X199395332Y-119550198D01*
X199303393Y-119550198D01*
X199103434Y-119589972D01*
X198915076Y-119667993D01*
X198745558Y-119781261D01*
X198601395Y-119925424D01*
X198488127Y-120094942D01*
X198410106Y-120283300D01*
X198370332Y-120483259D01*
X198370332Y-120687137D01*
X198410106Y-120887096D01*
X198488127Y-121075454D01*
X198601395Y-121244972D01*
X198656345Y-121299922D01*
X198699786Y-121443130D01*
X198724369Y-121489119D01*
X198735001Y-121509011D01*
X198735002Y-126873000D01*
X185070750Y-126873000D01*
X185070750Y-106753028D01*
X185168708Y-106799359D01*
X185168714Y-106799361D01*
X185168718Y-106799363D01*
X185592446Y-106950976D01*
X185692327Y-106975994D01*
X186029001Y-107060327D01*
X186029011Y-107060329D01*
X186453932Y-107123359D01*
X186474180Y-107126363D01*
X186865912Y-107145608D01*
X186885119Y-107147500D01*
X186904418Y-107147500D01*
X186923674Y-107148446D01*
X186942931Y-107147500D01*
X197489450Y-107147500D01*
X196653201Y-107983750D01*
X191240571Y-107983750D01*
X191203248Y-107980074D01*
X191165925Y-107983750D01*
X191165915Y-107983750D01*
X191054262Y-107994747D01*
X190911001Y-108038204D01*
X190778971Y-108108776D01*
X190695331Y-108177418D01*
X190663247Y-108203749D01*
X190639449Y-108232747D01*
X190091761Y-108780436D01*
X190065047Y-108762586D01*
X189876689Y-108684565D01*
X189676730Y-108644791D01*
X189472852Y-108644791D01*
X189272893Y-108684565D01*
X189084535Y-108762586D01*
X188915017Y-108875854D01*
X188770854Y-109020017D01*
X188657586Y-109189535D01*
X188579565Y-109377893D01*
X188539791Y-109577852D01*
X188539791Y-109781730D01*
X188579565Y-109981689D01*
X188657586Y-110170047D01*
X188770854Y-110339565D01*
X188915017Y-110483728D01*
X189084535Y-110596996D01*
X189272893Y-110675017D01*
X189472852Y-110714791D01*
X189676730Y-110714791D01*
X189876689Y-110675017D01*
X190065047Y-110596996D01*
X190234565Y-110483728D01*
X190275658Y-110442635D01*
X190304529Y-110439791D01*
X190304540Y-110439791D01*
X190416193Y-110428794D01*
X190559454Y-110385337D01*
X190691483Y-110314765D01*
X190807208Y-110219792D01*
X190831011Y-110190789D01*
X191518050Y-109503750D01*
X195529521Y-109503750D01*
X195477754Y-109519453D01*
X195345725Y-109590025D01*
X195230000Y-109684998D01*
X195206202Y-109713997D01*
X194948948Y-109971250D01*
X194886811Y-109971250D01*
X194686852Y-110011024D01*
X194498494Y-110089045D01*
X194328976Y-110202313D01*
X194184813Y-110346476D01*
X194071545Y-110515994D01*
X193993524Y-110704352D01*
X193953750Y-110904311D01*
X193953750Y-111108189D01*
X193993524Y-111308148D01*
X194071545Y-111496506D01*
X194184813Y-111666024D01*
X194328976Y-111810187D01*
X194498494Y-111923455D01*
X194686852Y-112001476D01*
X194886811Y-112041250D01*
X195090689Y-112041250D01*
X195290648Y-112001476D01*
X195479006Y-111923455D01*
X195648524Y-111810187D01*
X195737500Y-111721211D01*
X195770226Y-111753937D01*
X195939744Y-111867205D01*
X196128102Y-111945226D01*
X196328061Y-111985000D01*
X196531939Y-111985000D01*
X196731898Y-111945226D01*
X196920256Y-111867205D01*
X197089774Y-111753937D01*
X197233937Y-111609774D01*
X197347205Y-111440256D01*
X197425226Y-111251898D01*
X197465000Y-111051939D01*
X197465000Y-110989801D01*
X204952878Y-103501924D01*
X204952878Y-126873000D01*
G36*
X194478750Y-80260500D02*
G01*
X195486750Y-80260500D01*
X195486750Y-80240500D01*
X195740750Y-80240500D01*
X195740750Y-80260500D01*
X196748750Y-80260500D01*
X196748750Y-80047702D01*
X201762102Y-80047702D01*
X201750207Y-80052629D01*
X201523364Y-80204201D01*
X201330451Y-80397114D01*
X201178879Y-80623957D01*
X201074475Y-80876011D01*
X201021250Y-81143589D01*
X201021250Y-81416411D01*
X201074475Y-81683989D01*
X201178879Y-81936043D01*
X201330451Y-82162886D01*
X201523364Y-82355799D01*
X201750207Y-82507371D01*
X202002261Y-82611775D01*
X202269839Y-82665000D01*
X202542661Y-82665000D01*
X202810239Y-82611775D01*
X203062293Y-82507371D01*
X203289136Y-82355799D01*
X203482049Y-82162886D01*
X203633621Y-81936043D01*
X203738025Y-81683989D01*
X203791250Y-81416411D01*
X203791250Y-81143589D01*
X203738025Y-80876011D01*
X203633621Y-80623957D01*
X203482049Y-80397114D01*
X203289136Y-80204201D01*
X203062293Y-80052629D01*
X203050398Y-80047702D01*
X203580599Y-80047702D01*
X203872537Y-80076327D01*
X204122307Y-80151737D01*
X204352670Y-80274224D01*
X204554858Y-80439124D01*
X204721164Y-80640152D01*
X204845256Y-80869656D01*
X204922409Y-81118897D01*
X204948048Y-81362840D01*
X204706250Y-81339025D01*
X204464149Y-81362870D01*
X204231350Y-81433489D01*
X204016802Y-81548167D01*
X203828749Y-81702498D01*
X203674418Y-81890551D01*
X203559739Y-82105099D01*
X203489120Y-82337898D01*
X203471250Y-82519335D01*
X203471250Y-83240664D01*
X203489120Y-83422101D01*
X203559739Y-83654900D01*
X203674417Y-83869448D01*
X203828748Y-84057502D01*
X204016801Y-84211833D01*
X204231349Y-84326511D01*
X204407679Y-84380000D01*
X204231350Y-84433489D01*
X204016802Y-84548167D01*
X203828749Y-84702498D01*
X203674418Y-84890551D01*
X203559739Y-85105099D01*
X203489120Y-85337898D01*
X203471250Y-85519335D01*
X203471250Y-86240664D01*
X203489120Y-86422101D01*
X203559739Y-86654900D01*
X203674417Y-86869448D01*
X203828748Y-87057502D01*
X204016801Y-87211833D01*
X204231349Y-87326511D01*
X204464148Y-87397130D01*
X204706250Y-87420975D01*
X204948351Y-87397130D01*
X204952878Y-87395757D01*
X204952878Y-88364243D01*
X204948352Y-88362870D01*
X204706250Y-88339025D01*
X204464149Y-88362870D01*
X204231350Y-88433489D01*
X204016802Y-88548167D01*
X203828749Y-88702498D01*
X203674418Y-88890551D01*
X203559739Y-89105099D01*
X203489120Y-89337898D01*
X203471250Y-89519335D01*
X203471250Y-90240664D01*
X203489120Y-90422101D01*
X203559739Y-90654900D01*
X203674417Y-90869448D01*
X203828748Y-91057502D01*
X203946251Y-91153934D01*
X203946250Y-102358948D01*
X201042501Y-105262697D01*
X201042501Y-104506212D01*
X201086438Y-104462275D01*
X201199706Y-104292757D01*
X201277727Y-104104399D01*
X201317501Y-103904440D01*
X201317501Y-103700562D01*
X201277727Y-103500603D01*
X201199706Y-103312245D01*
X201086438Y-103142727D01*
X200942275Y-102998564D01*
X200772757Y-102885296D01*
X200584399Y-102807275D01*
X200384440Y-102767501D01*
X200180562Y-102767501D01*
X199980603Y-102807275D01*
X199792245Y-102885296D01*
X199622727Y-102998564D01*
X199478564Y-103142727D01*
X199474144Y-103149342D01*
X197885000Y-101560199D01*
X197885000Y-101498061D01*
X197845226Y-101298102D01*
X197767205Y-101109744D01*
X197653937Y-100940226D01*
X197509774Y-100796063D01*
X197340256Y-100682795D01*
X197151898Y-100604774D01*
X196951939Y-100565000D01*
X196748061Y-100565000D01*
X196548102Y-100604774D01*
X196365895Y-100680247D01*
X196365895Y-100670205D01*
X196326121Y-100470246D01*
X196248100Y-100281888D01*
X196134832Y-100112370D01*
X195990669Y-99968207D01*
X195821151Y-99854939D01*
X195632793Y-99776918D01*
X195432834Y-99737144D01*
X195228956Y-99737144D01*
X195028997Y-99776918D01*
X194840639Y-99854939D01*
X194671121Y-99968207D01*
X194644579Y-99994749D01*
X194606469Y-99998503D01*
X194531482Y-100021250D01*
X188143005Y-100021250D01*
X188004742Y-100014457D01*
X187886887Y-99996975D01*
X187771312Y-99968025D01*
X187659143Y-99927890D01*
X187551434Y-99876947D01*
X187449251Y-99815701D01*
X187353551Y-99744725D01*
X187265270Y-99664711D01*
X187185265Y-99576439D01*
X187114292Y-99480744D01*
X187053041Y-99378553D01*
X187002099Y-99270844D01*
X186961965Y-99158679D01*
X186933014Y-99043102D01*
X186915532Y-98925248D01*
X186908740Y-98786992D01*
X186908740Y-93666495D01*
X186978102Y-93695226D01*
X187178061Y-93735000D01*
X187381939Y-93735000D01*
X187581898Y-93695226D01*
X187770256Y-93617205D01*
X187939774Y-93503937D01*
X188083937Y-93359774D01*
X188197205Y-93190256D01*
X188275226Y-93001898D01*
X188286535Y-92945043D01*
X188696581Y-92534998D01*
X190751546Y-92534998D01*
X190799744Y-92567203D01*
X190988102Y-92645224D01*
X191188061Y-92684998D01*
X191391939Y-92684998D01*
X191591898Y-92645224D01*
X191780256Y-92567203D01*
X191949774Y-92453935D01*
X192093937Y-92309772D01*
X192207205Y-92140254D01*
X192285226Y-91951896D01*
X192325000Y-91751937D01*
X192325000Y-91548059D01*
X192285226Y-91348100D01*
X192207205Y-91159742D01*
X192171965Y-91107000D01*
X198871250Y-91107000D01*
X198871250Y-91407000D01*
X198919757Y-91645496D01*
X199013860Y-91869946D01*
X199149943Y-92071725D01*
X199322776Y-92243078D01*
X199525717Y-92377421D01*
X199750968Y-92469591D01*
X199788641Y-92473462D01*
X199979250Y-92348731D01*
X199979250Y-91107000D01*
X200233250Y-91107000D01*
X200233250Y-92348731D01*
X200423859Y-92473462D01*
X200461532Y-92469591D01*
X200686783Y-92377421D01*
X200889724Y-92243078D01*
X201062557Y-92071725D01*
X201198640Y-91869946D01*
X201292743Y-91645496D01*
X201341250Y-91407000D01*
X201341250Y-91107000D01*
X200233250Y-91107000D01*
X199979250Y-91107000D01*
X198871250Y-91107000D01*
X192171965Y-91107000D01*
X192093937Y-90990224D01*
X191949774Y-90846061D01*
X191780256Y-90732793D01*
X191591898Y-90654772D01*
X191391939Y-90614998D01*
X191188061Y-90614998D01*
X190988102Y-90654772D01*
X190799744Y-90732793D01*
X190751546Y-90764998D01*
X188373468Y-90764998D01*
X188330001Y-90760717D01*
X188286535Y-90764998D01*
X188286525Y-90764998D01*
X188156512Y-90777803D01*
X187989689Y-90828409D01*
X187835943Y-90910587D01*
X187835941Y-90910588D01*
X187835942Y-90910588D01*
X187734955Y-90993466D01*
X187734953Y-90993468D01*
X187701185Y-91021181D01*
X187673472Y-91054949D01*
X187034957Y-91693465D01*
X186978102Y-91704774D01*
X186908740Y-91733505D01*
X186908740Y-90553000D01*
X198871250Y-90553000D01*
X198871250Y-90853000D01*
X199979250Y-90853000D01*
X199979250Y-89611269D01*
X200233250Y-89611269D01*
X200233250Y-90853000D01*
X201341250Y-90853000D01*
X201341250Y-90553000D01*
X201292743Y-90314504D01*
X201198640Y-90090054D01*
X201062557Y-89888275D01*
X200889724Y-89716922D01*
X200686783Y-89582579D01*
X200461532Y-89490409D01*
X200423859Y-89486538D01*
X200233250Y-89611269D01*
X199979250Y-89611269D01*
X199788641Y-89486538D01*
X199750968Y-89490409D01*
X199525717Y-89582579D01*
X199322776Y-89716922D01*
X199149943Y-89888275D01*
X199013860Y-90090054D01*
X198919757Y-90314504D01*
X198871250Y-90553000D01*
X186908740Y-90553000D01*
X186908740Y-88158061D01*
X187795000Y-88158061D01*
X187795000Y-88361939D01*
X187834774Y-88561898D01*
X187912795Y-88750256D01*
X188026063Y-88919774D01*
X188170226Y-89063937D01*
X188339744Y-89177205D01*
X188528102Y-89255226D01*
X188728061Y-89295000D01*
X188931939Y-89295000D01*
X189131898Y-89255226D01*
X189320256Y-89177205D01*
X189368454Y-89145000D01*
X190473262Y-89145000D01*
X190489813Y-89169770D01*
X190633976Y-89313933D01*
X190803494Y-89427201D01*
X190991852Y-89505222D01*
X191191811Y-89544996D01*
X191395689Y-89544996D01*
X191595648Y-89505222D01*
X191784006Y-89427201D01*
X191953524Y-89313933D01*
X192097687Y-89169770D01*
X192114238Y-89145000D01*
X193201546Y-89145000D01*
X193249744Y-89177205D01*
X193438102Y-89255226D01*
X193638061Y-89295000D01*
X193841939Y-89295000D01*
X194041898Y-89255226D01*
X194230256Y-89177205D01*
X194399774Y-89063937D01*
X194543937Y-88919774D01*
X194657205Y-88750256D01*
X194735226Y-88561898D01*
X194775000Y-88361939D01*
X194775000Y-88158061D01*
X194772122Y-88143589D01*
X201021250Y-88143589D01*
X201021250Y-88416411D01*
X201074475Y-88683989D01*
X201178879Y-88936043D01*
X201330451Y-89162886D01*
X201523364Y-89355799D01*
X201750207Y-89507371D01*
X202002261Y-89611775D01*
X202269839Y-89665000D01*
X202542661Y-89665000D01*
X202810239Y-89611775D01*
X203062293Y-89507371D01*
X203289136Y-89355799D01*
X203482049Y-89162886D01*
X203633621Y-88936043D01*
X203738025Y-88683989D01*
X203791250Y-88416411D01*
X203791250Y-88143589D01*
X203738025Y-87876011D01*
X203633621Y-87623957D01*
X203482049Y-87397114D01*
X203289136Y-87204201D01*
X203062293Y-87052629D01*
X202810239Y-86948225D01*
X202542661Y-86895000D01*
X202269839Y-86895000D01*
X202002261Y-86948225D01*
X201750207Y-87052629D01*
X201523364Y-87204201D01*
X201330451Y-87397114D01*
X201178879Y-87623957D01*
X201074475Y-87876011D01*
X201021250Y-88143589D01*
X194772122Y-88143589D01*
X194735226Y-87958102D01*
X194657205Y-87769744D01*
X194543937Y-87600226D01*
X194399774Y-87456063D01*
X194230256Y-87342795D01*
X194041898Y-87264774D01*
X193841939Y-87225000D01*
X193638061Y-87225000D01*
X193438102Y-87264774D01*
X193249744Y-87342795D01*
X193201546Y-87375000D01*
X191313476Y-87375000D01*
X191270000Y-87370718D01*
X191226523Y-87375000D01*
X189368454Y-87375000D01*
X189320256Y-87342795D01*
X189131898Y-87264774D01*
X188931939Y-87225000D01*
X188728061Y-87225000D01*
X188528102Y-87264774D01*
X188339744Y-87342795D01*
X188170226Y-87456063D01*
X188026063Y-87600226D01*
X187912795Y-87769744D01*
X187834774Y-87958102D01*
X187795000Y-88158061D01*
X186908740Y-88158061D01*
X186908740Y-83049546D01*
X187100750Y-83049546D01*
X187100750Y-84440500D01*
X187120750Y-84440500D01*
X187120750Y-84694500D01*
X187100750Y-84694500D01*
X187100750Y-86085454D01*
X187275624Y-86211619D01*
X187498726Y-86131776D01*
X187686514Y-86009869D01*
X187846911Y-85853669D01*
X187973753Y-85669178D01*
X188062165Y-85463487D01*
X188108750Y-85244500D01*
X188108750Y-84954404D01*
X188123728Y-84960608D01*
X188309198Y-84997500D01*
X188498302Y-84997500D01*
X188683772Y-84960608D01*
X188858481Y-84888241D01*
X189015714Y-84783181D01*
X189149431Y-84649464D01*
X189254491Y-84492231D01*
X189326858Y-84317522D01*
X189363750Y-84132052D01*
X189363750Y-83942948D01*
X193223750Y-83942948D01*
X193223750Y-84132052D01*
X193260642Y-84317522D01*
X193333009Y-84492231D01*
X193438069Y-84649464D01*
X193571786Y-84783181D01*
X193729019Y-84888241D01*
X193903728Y-84960608D01*
X194089198Y-84997500D01*
X194278302Y-84997500D01*
X194463772Y-84960608D01*
X194478750Y-84954404D01*
X194478750Y-85244500D01*
X194525335Y-85463487D01*
X194613747Y-85669178D01*
X194740589Y-85853669D01*
X194900986Y-86009869D01*
X195088774Y-86131776D01*
X195311876Y-86211619D01*
X195486750Y-86085454D01*
X195486750Y-84694500D01*
X195740750Y-84694500D01*
X195740750Y-86085454D01*
X195915624Y-86211619D01*
X196138726Y-86131776D01*
X196326514Y-86009869D01*
X196486911Y-85853669D01*
X196613753Y-85669178D01*
X196702165Y-85463487D01*
X196748750Y-85244500D01*
X196748750Y-84694500D01*
X195740750Y-84694500D01*
X195486750Y-84694500D01*
X195466750Y-84694500D01*
X195466750Y-84440500D01*
X195486750Y-84440500D01*
X195486750Y-83049546D01*
X195740750Y-83049546D01*
X195740750Y-84440500D01*
X196748750Y-84440500D01*
X196748750Y-83890500D01*
X196702165Y-83671513D01*
X196613753Y-83465822D01*
X196486911Y-83281331D01*
X196326514Y-83125131D01*
X196138726Y-83003224D01*
X195915624Y-82923381D01*
X195740750Y-83049546D01*
X195486750Y-83049546D01*
X195311876Y-82923381D01*
X195088774Y-83003224D01*
X194900986Y-83125131D01*
X194756634Y-83265706D01*
X194638481Y-83186759D01*
X194463772Y-83114392D01*
X194278302Y-83077500D01*
X194089198Y-83077500D01*
X193903728Y-83114392D01*
X193729019Y-83186759D01*
X193571786Y-83291819D01*
X193438069Y-83425536D01*
X193333009Y-83582769D01*
X193260642Y-83757478D01*
X193223750Y-83942948D01*
X189363750Y-83942948D01*
X189326858Y-83757478D01*
X189254491Y-83582769D01*
X189149431Y-83425536D01*
X189015714Y-83291819D01*
X188858481Y-83186759D01*
X188683772Y-83114392D01*
X188498302Y-83077500D01*
X188309198Y-83077500D01*
X188123728Y-83114392D01*
X187949019Y-83186759D01*
X187830866Y-83265706D01*
X187686514Y-83125131D01*
X187498726Y-83003224D01*
X187275624Y-82923381D01*
X187100750Y-83049546D01*
X186908740Y-83049546D01*
X186908740Y-82996082D01*
X186909686Y-82976825D01*
X186908740Y-82957569D01*
X186908740Y-82938269D01*
X186906848Y-82919062D01*
X186889048Y-82556737D01*
X186886994Y-82542888D01*
X186829085Y-82152495D01*
X186827332Y-82140679D01*
X186727365Y-81741586D01*
X186846750Y-81655454D01*
X186846750Y-80514500D01*
X187100750Y-80514500D01*
X187100750Y-81655454D01*
X187275624Y-81781619D01*
X187498726Y-81701776D01*
X187686514Y-81579869D01*
X187846911Y-81423669D01*
X187973753Y-81239178D01*
X188062165Y-81033487D01*
X188108750Y-80814500D01*
X188108750Y-80514500D01*
X194478750Y-80514500D01*
X194478750Y-80814500D01*
X194525335Y-81033487D01*
X194613747Y-81239178D01*
X194740589Y-81423669D01*
X194900986Y-81579869D01*
X195088774Y-81701776D01*
X195311876Y-81781619D01*
X195486750Y-81655454D01*
X195486750Y-80514500D01*
X195740750Y-80514500D01*
X195740750Y-81655454D01*
X195915624Y-81781619D01*
X196138726Y-81701776D01*
X196326514Y-81579869D01*
X196486911Y-81423669D01*
X196613753Y-81239178D01*
X196702165Y-81033487D01*
X196748750Y-80814500D01*
X196748750Y-80514500D01*
X195740750Y-80514500D01*
X195486750Y-80514500D01*
X194478750Y-80514500D01*
X188108750Y-80514500D01*
X187100750Y-80514500D01*
X186846750Y-80514500D01*
X186826750Y-80514500D01*
X186826750Y-80260500D01*
X186846750Y-80260500D01*
X186846750Y-80240500D01*
X187100750Y-80240500D01*
X187100750Y-80260500D01*
X188108750Y-80260500D01*
X188108750Y-80047702D01*
X194478750Y-80047702D01*
X194478750Y-80260500D01*
X194478750Y-80260500D01*
G37*
X194478750Y-80260500D02*
X195486750Y-80260500D01*
X195486750Y-80240500D01*
X195740750Y-80240500D01*
X195740750Y-80260500D01*
X196748750Y-80260500D01*
X196748750Y-80047702D01*
X201762102Y-80047702D01*
X201750207Y-80052629D01*
X201523364Y-80204201D01*
X201330451Y-80397114D01*
X201178879Y-80623957D01*
X201074475Y-80876011D01*
X201021250Y-81143589D01*
X201021250Y-81416411D01*
X201074475Y-81683989D01*
X201178879Y-81936043D01*
X201330451Y-82162886D01*
X201523364Y-82355799D01*
X201750207Y-82507371D01*
X202002261Y-82611775D01*
X202269839Y-82665000D01*
X202542661Y-82665000D01*
X202810239Y-82611775D01*
X203062293Y-82507371D01*
X203289136Y-82355799D01*
X203482049Y-82162886D01*
X203633621Y-81936043D01*
X203738025Y-81683989D01*
X203791250Y-81416411D01*
X203791250Y-81143589D01*
X203738025Y-80876011D01*
X203633621Y-80623957D01*
X203482049Y-80397114D01*
X203289136Y-80204201D01*
X203062293Y-80052629D01*
X203050398Y-80047702D01*
X203580599Y-80047702D01*
X203872537Y-80076327D01*
X204122307Y-80151737D01*
X204352670Y-80274224D01*
X204554858Y-80439124D01*
X204721164Y-80640152D01*
X204845256Y-80869656D01*
X204922409Y-81118897D01*
X204948048Y-81362840D01*
X204706250Y-81339025D01*
X204464149Y-81362870D01*
X204231350Y-81433489D01*
X204016802Y-81548167D01*
X203828749Y-81702498D01*
X203674418Y-81890551D01*
X203559739Y-82105099D01*
X203489120Y-82337898D01*
X203471250Y-82519335D01*
X203471250Y-83240664D01*
X203489120Y-83422101D01*
X203559739Y-83654900D01*
X203674417Y-83869448D01*
X203828748Y-84057502D01*
X204016801Y-84211833D01*
X204231349Y-84326511D01*
X204407679Y-84380000D01*
X204231350Y-84433489D01*
X204016802Y-84548167D01*
X203828749Y-84702498D01*
X203674418Y-84890551D01*
X203559739Y-85105099D01*
X203489120Y-85337898D01*
X203471250Y-85519335D01*
X203471250Y-86240664D01*
X203489120Y-86422101D01*
X203559739Y-86654900D01*
X203674417Y-86869448D01*
X203828748Y-87057502D01*
X204016801Y-87211833D01*
X204231349Y-87326511D01*
X204464148Y-87397130D01*
X204706250Y-87420975D01*
X204948351Y-87397130D01*
X204952878Y-87395757D01*
X204952878Y-88364243D01*
X204948352Y-88362870D01*
X204706250Y-88339025D01*
X204464149Y-88362870D01*
X204231350Y-88433489D01*
X204016802Y-88548167D01*
X203828749Y-88702498D01*
X203674418Y-88890551D01*
X203559739Y-89105099D01*
X203489120Y-89337898D01*
X203471250Y-89519335D01*
X203471250Y-90240664D01*
X203489120Y-90422101D01*
X203559739Y-90654900D01*
X203674417Y-90869448D01*
X203828748Y-91057502D01*
X203946251Y-91153934D01*
X203946250Y-102358948D01*
X201042501Y-105262697D01*
X201042501Y-104506212D01*
X201086438Y-104462275D01*
X201199706Y-104292757D01*
X201277727Y-104104399D01*
X201317501Y-103904440D01*
X201317501Y-103700562D01*
X201277727Y-103500603D01*
X201199706Y-103312245D01*
X201086438Y-103142727D01*
X200942275Y-102998564D01*
X200772757Y-102885296D01*
X200584399Y-102807275D01*
X200384440Y-102767501D01*
X200180562Y-102767501D01*
X199980603Y-102807275D01*
X199792245Y-102885296D01*
X199622727Y-102998564D01*
X199478564Y-103142727D01*
X199474144Y-103149342D01*
X197885000Y-101560199D01*
X197885000Y-101498061D01*
X197845226Y-101298102D01*
X197767205Y-101109744D01*
X197653937Y-100940226D01*
X197509774Y-100796063D01*
X197340256Y-100682795D01*
X197151898Y-100604774D01*
X196951939Y-100565000D01*
X196748061Y-100565000D01*
X196548102Y-100604774D01*
X196365895Y-100680247D01*
X196365895Y-100670205D01*
X196326121Y-100470246D01*
X196248100Y-100281888D01*
X196134832Y-100112370D01*
X195990669Y-99968207D01*
X195821151Y-99854939D01*
X195632793Y-99776918D01*
X195432834Y-99737144D01*
X195228956Y-99737144D01*
X195028997Y-99776918D01*
X194840639Y-99854939D01*
X194671121Y-99968207D01*
X194644579Y-99994749D01*
X194606469Y-99998503D01*
X194531482Y-100021250D01*
X188143005Y-100021250D01*
X188004742Y-100014457D01*
X187886887Y-99996975D01*
X187771312Y-99968025D01*
X187659143Y-99927890D01*
X187551434Y-99876947D01*
X187449251Y-99815701D01*
X187353551Y-99744725D01*
X187265270Y-99664711D01*
X187185265Y-99576439D01*
X187114292Y-99480744D01*
X187053041Y-99378553D01*
X187002099Y-99270844D01*
X186961965Y-99158679D01*
X186933014Y-99043102D01*
X186915532Y-98925248D01*
X186908740Y-98786992D01*
X186908740Y-93666495D01*
X186978102Y-93695226D01*
X187178061Y-93735000D01*
X187381939Y-93735000D01*
X187581898Y-93695226D01*
X187770256Y-93617205D01*
X187939774Y-93503937D01*
X188083937Y-93359774D01*
X188197205Y-93190256D01*
X188275226Y-93001898D01*
X188286535Y-92945043D01*
X188696581Y-92534998D01*
X190751546Y-92534998D01*
X190799744Y-92567203D01*
X190988102Y-92645224D01*
X191188061Y-92684998D01*
X191391939Y-92684998D01*
X191591898Y-92645224D01*
X191780256Y-92567203D01*
X191949774Y-92453935D01*
X192093937Y-92309772D01*
X192207205Y-92140254D01*
X192285226Y-91951896D01*
X192325000Y-91751937D01*
X192325000Y-91548059D01*
X192285226Y-91348100D01*
X192207205Y-91159742D01*
X192171965Y-91107000D01*
X198871250Y-91107000D01*
X198871250Y-91407000D01*
X198919757Y-91645496D01*
X199013860Y-91869946D01*
X199149943Y-92071725D01*
X199322776Y-92243078D01*
X199525717Y-92377421D01*
X199750968Y-92469591D01*
X199788641Y-92473462D01*
X199979250Y-92348731D01*
X199979250Y-91107000D01*
X200233250Y-91107000D01*
X200233250Y-92348731D01*
X200423859Y-92473462D01*
X200461532Y-92469591D01*
X200686783Y-92377421D01*
X200889724Y-92243078D01*
X201062557Y-92071725D01*
X201198640Y-91869946D01*
X201292743Y-91645496D01*
X201341250Y-91407000D01*
X201341250Y-91107000D01*
X200233250Y-91107000D01*
X199979250Y-91107000D01*
X198871250Y-91107000D01*
X192171965Y-91107000D01*
X192093937Y-90990224D01*
X191949774Y-90846061D01*
X191780256Y-90732793D01*
X191591898Y-90654772D01*
X191391939Y-90614998D01*
X191188061Y-90614998D01*
X190988102Y-90654772D01*
X190799744Y-90732793D01*
X190751546Y-90764998D01*
X188373468Y-90764998D01*
X188330001Y-90760717D01*
X188286535Y-90764998D01*
X188286525Y-90764998D01*
X188156512Y-90777803D01*
X187989689Y-90828409D01*
X187835943Y-90910587D01*
X187835941Y-90910588D01*
X187835942Y-90910588D01*
X187734955Y-90993466D01*
X187734953Y-90993468D01*
X187701185Y-91021181D01*
X187673472Y-91054949D01*
X187034957Y-91693465D01*
X186978102Y-91704774D01*
X186908740Y-91733505D01*
X186908740Y-90553000D01*
X198871250Y-90553000D01*
X198871250Y-90853000D01*
X199979250Y-90853000D01*
X199979250Y-89611269D01*
X200233250Y-89611269D01*
X200233250Y-90853000D01*
X201341250Y-90853000D01*
X201341250Y-90553000D01*
X201292743Y-90314504D01*
X201198640Y-90090054D01*
X201062557Y-89888275D01*
X200889724Y-89716922D01*
X200686783Y-89582579D01*
X200461532Y-89490409D01*
X200423859Y-89486538D01*
X200233250Y-89611269D01*
X199979250Y-89611269D01*
X199788641Y-89486538D01*
X199750968Y-89490409D01*
X199525717Y-89582579D01*
X199322776Y-89716922D01*
X199149943Y-89888275D01*
X199013860Y-90090054D01*
X198919757Y-90314504D01*
X198871250Y-90553000D01*
X186908740Y-90553000D01*
X186908740Y-88158061D01*
X187795000Y-88158061D01*
X187795000Y-88361939D01*
X187834774Y-88561898D01*
X187912795Y-88750256D01*
X188026063Y-88919774D01*
X188170226Y-89063937D01*
X188339744Y-89177205D01*
X188528102Y-89255226D01*
X188728061Y-89295000D01*
X188931939Y-89295000D01*
X189131898Y-89255226D01*
X189320256Y-89177205D01*
X189368454Y-89145000D01*
X190473262Y-89145000D01*
X190489813Y-89169770D01*
X190633976Y-89313933D01*
X190803494Y-89427201D01*
X190991852Y-89505222D01*
X191191811Y-89544996D01*
X191395689Y-89544996D01*
X191595648Y-89505222D01*
X191784006Y-89427201D01*
X191953524Y-89313933D01*
X192097687Y-89169770D01*
X192114238Y-89145000D01*
X193201546Y-89145000D01*
X193249744Y-89177205D01*
X193438102Y-89255226D01*
X193638061Y-89295000D01*
X193841939Y-89295000D01*
X194041898Y-89255226D01*
X194230256Y-89177205D01*
X194399774Y-89063937D01*
X194543937Y-88919774D01*
X194657205Y-88750256D01*
X194735226Y-88561898D01*
X194775000Y-88361939D01*
X194775000Y-88158061D01*
X194772122Y-88143589D01*
X201021250Y-88143589D01*
X201021250Y-88416411D01*
X201074475Y-88683989D01*
X201178879Y-88936043D01*
X201330451Y-89162886D01*
X201523364Y-89355799D01*
X201750207Y-89507371D01*
X202002261Y-89611775D01*
X202269839Y-89665000D01*
X202542661Y-89665000D01*
X202810239Y-89611775D01*
X203062293Y-89507371D01*
X203289136Y-89355799D01*
X203482049Y-89162886D01*
X203633621Y-88936043D01*
X203738025Y-88683989D01*
X203791250Y-88416411D01*
X203791250Y-88143589D01*
X203738025Y-87876011D01*
X203633621Y-87623957D01*
X203482049Y-87397114D01*
X203289136Y-87204201D01*
X203062293Y-87052629D01*
X202810239Y-86948225D01*
X202542661Y-86895000D01*
X202269839Y-86895000D01*
X202002261Y-86948225D01*
X201750207Y-87052629D01*
X201523364Y-87204201D01*
X201330451Y-87397114D01*
X201178879Y-87623957D01*
X201074475Y-87876011D01*
X201021250Y-88143589D01*
X194772122Y-88143589D01*
X194735226Y-87958102D01*
X194657205Y-87769744D01*
X194543937Y-87600226D01*
X194399774Y-87456063D01*
X194230256Y-87342795D01*
X194041898Y-87264774D01*
X193841939Y-87225000D01*
X193638061Y-87225000D01*
X193438102Y-87264774D01*
X193249744Y-87342795D01*
X193201546Y-87375000D01*
X191313476Y-87375000D01*
X191270000Y-87370718D01*
X191226523Y-87375000D01*
X189368454Y-87375000D01*
X189320256Y-87342795D01*
X189131898Y-87264774D01*
X188931939Y-87225000D01*
X188728061Y-87225000D01*
X188528102Y-87264774D01*
X188339744Y-87342795D01*
X188170226Y-87456063D01*
X188026063Y-87600226D01*
X187912795Y-87769744D01*
X187834774Y-87958102D01*
X187795000Y-88158061D01*
X186908740Y-88158061D01*
X186908740Y-83049546D01*
X187100750Y-83049546D01*
X187100750Y-84440500D01*
X187120750Y-84440500D01*
X187120750Y-84694500D01*
X187100750Y-84694500D01*
X187100750Y-86085454D01*
X187275624Y-86211619D01*
X187498726Y-86131776D01*
X187686514Y-86009869D01*
X187846911Y-85853669D01*
X187973753Y-85669178D01*
X188062165Y-85463487D01*
X188108750Y-85244500D01*
X188108750Y-84954404D01*
X188123728Y-84960608D01*
X188309198Y-84997500D01*
X188498302Y-84997500D01*
X188683772Y-84960608D01*
X188858481Y-84888241D01*
X189015714Y-84783181D01*
X189149431Y-84649464D01*
X189254491Y-84492231D01*
X189326858Y-84317522D01*
X189363750Y-84132052D01*
X189363750Y-83942948D01*
X193223750Y-83942948D01*
X193223750Y-84132052D01*
X193260642Y-84317522D01*
X193333009Y-84492231D01*
X193438069Y-84649464D01*
X193571786Y-84783181D01*
X193729019Y-84888241D01*
X193903728Y-84960608D01*
X194089198Y-84997500D01*
X194278302Y-84997500D01*
X194463772Y-84960608D01*
X194478750Y-84954404D01*
X194478750Y-85244500D01*
X194525335Y-85463487D01*
X194613747Y-85669178D01*
X194740589Y-85853669D01*
X194900986Y-86009869D01*
X195088774Y-86131776D01*
X195311876Y-86211619D01*
X195486750Y-86085454D01*
X195486750Y-84694500D01*
X195740750Y-84694500D01*
X195740750Y-86085454D01*
X195915624Y-86211619D01*
X196138726Y-86131776D01*
X196326514Y-86009869D01*
X196486911Y-85853669D01*
X196613753Y-85669178D01*
X196702165Y-85463487D01*
X196748750Y-85244500D01*
X196748750Y-84694500D01*
X195740750Y-84694500D01*
X195486750Y-84694500D01*
X195466750Y-84694500D01*
X195466750Y-84440500D01*
X195486750Y-84440500D01*
X195486750Y-83049546D01*
X195740750Y-83049546D01*
X195740750Y-84440500D01*
X196748750Y-84440500D01*
X196748750Y-83890500D01*
X196702165Y-83671513D01*
X196613753Y-83465822D01*
X196486911Y-83281331D01*
X196326514Y-83125131D01*
X196138726Y-83003224D01*
X195915624Y-82923381D01*
X195740750Y-83049546D01*
X195486750Y-83049546D01*
X195311876Y-82923381D01*
X195088774Y-83003224D01*
X194900986Y-83125131D01*
X194756634Y-83265706D01*
X194638481Y-83186759D01*
X194463772Y-83114392D01*
X194278302Y-83077500D01*
X194089198Y-83077500D01*
X193903728Y-83114392D01*
X193729019Y-83186759D01*
X193571786Y-83291819D01*
X193438069Y-83425536D01*
X193333009Y-83582769D01*
X193260642Y-83757478D01*
X193223750Y-83942948D01*
X189363750Y-83942948D01*
X189326858Y-83757478D01*
X189254491Y-83582769D01*
X189149431Y-83425536D01*
X189015714Y-83291819D01*
X188858481Y-83186759D01*
X188683772Y-83114392D01*
X188498302Y-83077500D01*
X188309198Y-83077500D01*
X188123728Y-83114392D01*
X187949019Y-83186759D01*
X187830866Y-83265706D01*
X187686514Y-83125131D01*
X187498726Y-83003224D01*
X187275624Y-82923381D01*
X187100750Y-83049546D01*
X186908740Y-83049546D01*
X186908740Y-82996082D01*
X186909686Y-82976825D01*
X186908740Y-82957569D01*
X186908740Y-82938269D01*
X186906848Y-82919062D01*
X186889048Y-82556737D01*
X186886994Y-82542888D01*
X186829085Y-82152495D01*
X186827332Y-82140679D01*
X186727365Y-81741586D01*
X186846750Y-81655454D01*
X186846750Y-80514500D01*
X187100750Y-80514500D01*
X187100750Y-81655454D01*
X187275624Y-81781619D01*
X187498726Y-81701776D01*
X187686514Y-81579869D01*
X187846911Y-81423669D01*
X187973753Y-81239178D01*
X188062165Y-81033487D01*
X188108750Y-80814500D01*
X188108750Y-80514500D01*
X194478750Y-80514500D01*
X194478750Y-80814500D01*
X194525335Y-81033487D01*
X194613747Y-81239178D01*
X194740589Y-81423669D01*
X194900986Y-81579869D01*
X195088774Y-81701776D01*
X195311876Y-81781619D01*
X195486750Y-81655454D01*
X195486750Y-80514500D01*
X195740750Y-80514500D01*
X195740750Y-81655454D01*
X195915624Y-81781619D01*
X196138726Y-81701776D01*
X196326514Y-81579869D01*
X196486911Y-81423669D01*
X196613753Y-81239178D01*
X196702165Y-81033487D01*
X196748750Y-80814500D01*
X196748750Y-80514500D01*
X195740750Y-80514500D01*
X195486750Y-80514500D01*
X194478750Y-80514500D01*
X188108750Y-80514500D01*
X187100750Y-80514500D01*
X186846750Y-80514500D01*
X186826750Y-80514500D01*
X186826750Y-80260500D01*
X186846750Y-80260500D01*
X186846750Y-80240500D01*
X187100750Y-80240500D01*
X187100750Y-80260500D01*
X188108750Y-80260500D01*
X188108750Y-80047702D01*
X194478750Y-80047702D01*
X194478750Y-80260500D01*
M02*
