G04 #@! TF.GenerationSoftware,KiCad,Pcbnew,(5.1.4-0)*
G04 #@! TF.CreationDate,2020-12-01T00:52:02+01:00*
G04 #@! TF.ProjectId,stm32split,73746d33-3273-4706-9c69-742e6b696361,rev?*
G04 #@! TF.SameCoordinates,Original*
G04 #@! TF.FileFunction,Paste,Top*
G04 #@! TF.FilePolarity,Positive*
%FSLAX46Y46*%
G04 Gerber Fmt 4.6, Leading zero omitted, Abs format (unit mm)*
G04 Created by KiCad (PCBNEW (5.1.4-0)) date 2020-12-01 00:52:02*
%MOMM*%
%LPD*%
G04 APERTURE LIST*
%ADD10R,1.200000X0.900000*%
%ADD11C,0.100000*%
%ADD12C,0.875000*%
%ADD13R,2.000000X2.400000*%
%ADD14R,0.600000X2.450000*%
%ADD15R,0.300000X2.450000*%
%ADD16C,1.425000*%
%ADD17R,0.800000X0.900000*%
%ADD18C,0.300000*%
%ADD19R,0.650000X1.060000*%
G04 APERTURE END LIST*
D10*
X193485000Y-163575000D03*
X193485000Y-160275000D03*
X191103750Y-163575000D03*
X191103750Y-160275000D03*
X188722500Y-163575000D03*
X188722500Y-160275000D03*
X203010000Y-155637500D03*
X203010000Y-152337500D03*
X200628750Y-155637500D03*
X200628750Y-152337500D03*
X198247500Y-155637500D03*
X198247500Y-152337500D03*
X195866250Y-155637500D03*
X195866250Y-152337500D03*
X193485000Y-155637500D03*
X193485000Y-152337500D03*
X191103750Y-155637500D03*
X191103750Y-152337500D03*
X188722500Y-155637500D03*
X188722500Y-152337500D03*
X203010000Y-147700000D03*
X203010000Y-144400000D03*
X200628750Y-147700000D03*
X200628750Y-144400000D03*
X198247500Y-147700000D03*
X198247500Y-144400000D03*
X195866250Y-147700000D03*
X195866250Y-144400000D03*
X193485000Y-147700000D03*
X193485000Y-144400000D03*
X191103750Y-147700000D03*
X191103750Y-144400000D03*
X188722500Y-147700000D03*
X188722500Y-144400000D03*
X203010000Y-139762500D03*
X203010000Y-136462500D03*
X200628750Y-139762500D03*
X200628750Y-136462500D03*
X198247500Y-139762500D03*
X198247500Y-136462500D03*
X195866250Y-139762500D03*
X195866250Y-136462500D03*
X193485000Y-139762500D03*
X193485000Y-136462500D03*
X191103750Y-139762500D03*
X191103750Y-136462500D03*
X188722500Y-139762500D03*
X188722500Y-136462500D03*
X203010000Y-131825000D03*
X203010000Y-128525000D03*
X200628750Y-131825000D03*
X200628750Y-128525000D03*
X198247500Y-131825000D03*
X198247500Y-128525000D03*
X195866250Y-131825000D03*
X195866250Y-128525000D03*
X193485000Y-131825000D03*
X193485000Y-128525000D03*
X191103750Y-131825000D03*
X191103750Y-128525000D03*
X188722500Y-131825000D03*
X188722500Y-128525000D03*
D11*
G36*
X192410191Y-105466053D02*
G01*
X192431426Y-105469203D01*
X192452250Y-105474419D01*
X192472462Y-105481651D01*
X192491868Y-105490830D01*
X192510281Y-105501866D01*
X192527524Y-105514654D01*
X192543430Y-105529070D01*
X192557846Y-105544976D01*
X192570634Y-105562219D01*
X192581670Y-105580632D01*
X192590849Y-105600038D01*
X192598081Y-105620250D01*
X192603297Y-105641074D01*
X192606447Y-105662309D01*
X192607500Y-105683750D01*
X192607500Y-106196250D01*
X192606447Y-106217691D01*
X192603297Y-106238926D01*
X192598081Y-106259750D01*
X192590849Y-106279962D01*
X192581670Y-106299368D01*
X192570634Y-106317781D01*
X192557846Y-106335024D01*
X192543430Y-106350930D01*
X192527524Y-106365346D01*
X192510281Y-106378134D01*
X192491868Y-106389170D01*
X192472462Y-106398349D01*
X192452250Y-106405581D01*
X192431426Y-106410797D01*
X192410191Y-106413947D01*
X192388750Y-106415000D01*
X191951250Y-106415000D01*
X191929809Y-106413947D01*
X191908574Y-106410797D01*
X191887750Y-106405581D01*
X191867538Y-106398349D01*
X191848132Y-106389170D01*
X191829719Y-106378134D01*
X191812476Y-106365346D01*
X191796570Y-106350930D01*
X191782154Y-106335024D01*
X191769366Y-106317781D01*
X191758330Y-106299368D01*
X191749151Y-106279962D01*
X191741919Y-106259750D01*
X191736703Y-106238926D01*
X191733553Y-106217691D01*
X191732500Y-106196250D01*
X191732500Y-105683750D01*
X191733553Y-105662309D01*
X191736703Y-105641074D01*
X191741919Y-105620250D01*
X191749151Y-105600038D01*
X191758330Y-105580632D01*
X191769366Y-105562219D01*
X191782154Y-105544976D01*
X191796570Y-105529070D01*
X191812476Y-105514654D01*
X191829719Y-105501866D01*
X191848132Y-105490830D01*
X191867538Y-105481651D01*
X191887750Y-105474419D01*
X191908574Y-105469203D01*
X191929809Y-105466053D01*
X191951250Y-105465000D01*
X192388750Y-105465000D01*
X192410191Y-105466053D01*
X192410191Y-105466053D01*
G37*
D12*
X192170000Y-105940000D03*
D11*
G36*
X190835191Y-105466053D02*
G01*
X190856426Y-105469203D01*
X190877250Y-105474419D01*
X190897462Y-105481651D01*
X190916868Y-105490830D01*
X190935281Y-105501866D01*
X190952524Y-105514654D01*
X190968430Y-105529070D01*
X190982846Y-105544976D01*
X190995634Y-105562219D01*
X191006670Y-105580632D01*
X191015849Y-105600038D01*
X191023081Y-105620250D01*
X191028297Y-105641074D01*
X191031447Y-105662309D01*
X191032500Y-105683750D01*
X191032500Y-106196250D01*
X191031447Y-106217691D01*
X191028297Y-106238926D01*
X191023081Y-106259750D01*
X191015849Y-106279962D01*
X191006670Y-106299368D01*
X190995634Y-106317781D01*
X190982846Y-106335024D01*
X190968430Y-106350930D01*
X190952524Y-106365346D01*
X190935281Y-106378134D01*
X190916868Y-106389170D01*
X190897462Y-106398349D01*
X190877250Y-106405581D01*
X190856426Y-106410797D01*
X190835191Y-106413947D01*
X190813750Y-106415000D01*
X190376250Y-106415000D01*
X190354809Y-106413947D01*
X190333574Y-106410797D01*
X190312750Y-106405581D01*
X190292538Y-106398349D01*
X190273132Y-106389170D01*
X190254719Y-106378134D01*
X190237476Y-106365346D01*
X190221570Y-106350930D01*
X190207154Y-106335024D01*
X190194366Y-106317781D01*
X190183330Y-106299368D01*
X190174151Y-106279962D01*
X190166919Y-106259750D01*
X190161703Y-106238926D01*
X190158553Y-106217691D01*
X190157500Y-106196250D01*
X190157500Y-105683750D01*
X190158553Y-105662309D01*
X190161703Y-105641074D01*
X190166919Y-105620250D01*
X190174151Y-105600038D01*
X190183330Y-105580632D01*
X190194366Y-105562219D01*
X190207154Y-105544976D01*
X190221570Y-105529070D01*
X190237476Y-105514654D01*
X190254719Y-105501866D01*
X190273132Y-105490830D01*
X190292538Y-105481651D01*
X190312750Y-105474419D01*
X190333574Y-105469203D01*
X190354809Y-105466053D01*
X190376250Y-105465000D01*
X190813750Y-105465000D01*
X190835191Y-105466053D01*
X190835191Y-105466053D01*
G37*
D12*
X190595000Y-105940000D03*
D11*
G36*
X188950191Y-90036053D02*
G01*
X188971426Y-90039203D01*
X188992250Y-90044419D01*
X189012462Y-90051651D01*
X189031868Y-90060830D01*
X189050281Y-90071866D01*
X189067524Y-90084654D01*
X189083430Y-90099070D01*
X189097846Y-90114976D01*
X189110634Y-90132219D01*
X189121670Y-90150632D01*
X189130849Y-90170038D01*
X189138081Y-90190250D01*
X189143297Y-90211074D01*
X189146447Y-90232309D01*
X189147500Y-90253750D01*
X189147500Y-90766250D01*
X189146447Y-90787691D01*
X189143297Y-90808926D01*
X189138081Y-90829750D01*
X189130849Y-90849962D01*
X189121670Y-90869368D01*
X189110634Y-90887781D01*
X189097846Y-90905024D01*
X189083430Y-90920930D01*
X189067524Y-90935346D01*
X189050281Y-90948134D01*
X189031868Y-90959170D01*
X189012462Y-90968349D01*
X188992250Y-90975581D01*
X188971426Y-90980797D01*
X188950191Y-90983947D01*
X188928750Y-90985000D01*
X188491250Y-90985000D01*
X188469809Y-90983947D01*
X188448574Y-90980797D01*
X188427750Y-90975581D01*
X188407538Y-90968349D01*
X188388132Y-90959170D01*
X188369719Y-90948134D01*
X188352476Y-90935346D01*
X188336570Y-90920930D01*
X188322154Y-90905024D01*
X188309366Y-90887781D01*
X188298330Y-90869368D01*
X188289151Y-90849962D01*
X188281919Y-90829750D01*
X188276703Y-90808926D01*
X188273553Y-90787691D01*
X188272500Y-90766250D01*
X188272500Y-90253750D01*
X188273553Y-90232309D01*
X188276703Y-90211074D01*
X188281919Y-90190250D01*
X188289151Y-90170038D01*
X188298330Y-90150632D01*
X188309366Y-90132219D01*
X188322154Y-90114976D01*
X188336570Y-90099070D01*
X188352476Y-90084654D01*
X188369719Y-90071866D01*
X188388132Y-90060830D01*
X188407538Y-90051651D01*
X188427750Y-90044419D01*
X188448574Y-90039203D01*
X188469809Y-90036053D01*
X188491250Y-90035000D01*
X188928750Y-90035000D01*
X188950191Y-90036053D01*
X188950191Y-90036053D01*
G37*
D12*
X188710000Y-90510000D03*
D11*
G36*
X187375191Y-90036053D02*
G01*
X187396426Y-90039203D01*
X187417250Y-90044419D01*
X187437462Y-90051651D01*
X187456868Y-90060830D01*
X187475281Y-90071866D01*
X187492524Y-90084654D01*
X187508430Y-90099070D01*
X187522846Y-90114976D01*
X187535634Y-90132219D01*
X187546670Y-90150632D01*
X187555849Y-90170038D01*
X187563081Y-90190250D01*
X187568297Y-90211074D01*
X187571447Y-90232309D01*
X187572500Y-90253750D01*
X187572500Y-90766250D01*
X187571447Y-90787691D01*
X187568297Y-90808926D01*
X187563081Y-90829750D01*
X187555849Y-90849962D01*
X187546670Y-90869368D01*
X187535634Y-90887781D01*
X187522846Y-90905024D01*
X187508430Y-90920930D01*
X187492524Y-90935346D01*
X187475281Y-90948134D01*
X187456868Y-90959170D01*
X187437462Y-90968349D01*
X187417250Y-90975581D01*
X187396426Y-90980797D01*
X187375191Y-90983947D01*
X187353750Y-90985000D01*
X186916250Y-90985000D01*
X186894809Y-90983947D01*
X186873574Y-90980797D01*
X186852750Y-90975581D01*
X186832538Y-90968349D01*
X186813132Y-90959170D01*
X186794719Y-90948134D01*
X186777476Y-90935346D01*
X186761570Y-90920930D01*
X186747154Y-90905024D01*
X186734366Y-90887781D01*
X186723330Y-90869368D01*
X186714151Y-90849962D01*
X186706919Y-90829750D01*
X186701703Y-90808926D01*
X186698553Y-90787691D01*
X186697500Y-90766250D01*
X186697500Y-90253750D01*
X186698553Y-90232309D01*
X186701703Y-90211074D01*
X186706919Y-90190250D01*
X186714151Y-90170038D01*
X186723330Y-90150632D01*
X186734366Y-90132219D01*
X186747154Y-90114976D01*
X186761570Y-90099070D01*
X186777476Y-90084654D01*
X186794719Y-90071866D01*
X186813132Y-90060830D01*
X186832538Y-90051651D01*
X186852750Y-90044419D01*
X186873574Y-90039203D01*
X186894809Y-90036053D01*
X186916250Y-90035000D01*
X187353750Y-90035000D01*
X187375191Y-90036053D01*
X187375191Y-90036053D01*
G37*
D12*
X187135000Y-90510000D03*
D11*
G36*
X194132691Y-90036053D02*
G01*
X194153926Y-90039203D01*
X194174750Y-90044419D01*
X194194962Y-90051651D01*
X194214368Y-90060830D01*
X194232781Y-90071866D01*
X194250024Y-90084654D01*
X194265930Y-90099070D01*
X194280346Y-90114976D01*
X194293134Y-90132219D01*
X194304170Y-90150632D01*
X194313349Y-90170038D01*
X194320581Y-90190250D01*
X194325797Y-90211074D01*
X194328947Y-90232309D01*
X194330000Y-90253750D01*
X194330000Y-90766250D01*
X194328947Y-90787691D01*
X194325797Y-90808926D01*
X194320581Y-90829750D01*
X194313349Y-90849962D01*
X194304170Y-90869368D01*
X194293134Y-90887781D01*
X194280346Y-90905024D01*
X194265930Y-90920930D01*
X194250024Y-90935346D01*
X194232781Y-90948134D01*
X194214368Y-90959170D01*
X194194962Y-90968349D01*
X194174750Y-90975581D01*
X194153926Y-90980797D01*
X194132691Y-90983947D01*
X194111250Y-90985000D01*
X193673750Y-90985000D01*
X193652309Y-90983947D01*
X193631074Y-90980797D01*
X193610250Y-90975581D01*
X193590038Y-90968349D01*
X193570632Y-90959170D01*
X193552219Y-90948134D01*
X193534976Y-90935346D01*
X193519070Y-90920930D01*
X193504654Y-90905024D01*
X193491866Y-90887781D01*
X193480830Y-90869368D01*
X193471651Y-90849962D01*
X193464419Y-90829750D01*
X193459203Y-90808926D01*
X193456053Y-90787691D01*
X193455000Y-90766250D01*
X193455000Y-90253750D01*
X193456053Y-90232309D01*
X193459203Y-90211074D01*
X193464419Y-90190250D01*
X193471651Y-90170038D01*
X193480830Y-90150632D01*
X193491866Y-90132219D01*
X193504654Y-90114976D01*
X193519070Y-90099070D01*
X193534976Y-90084654D01*
X193552219Y-90071866D01*
X193570632Y-90060830D01*
X193590038Y-90051651D01*
X193610250Y-90044419D01*
X193631074Y-90039203D01*
X193652309Y-90036053D01*
X193673750Y-90035000D01*
X194111250Y-90035000D01*
X194132691Y-90036053D01*
X194132691Y-90036053D01*
G37*
D12*
X193892500Y-90510000D03*
D11*
G36*
X195707691Y-90036053D02*
G01*
X195728926Y-90039203D01*
X195749750Y-90044419D01*
X195769962Y-90051651D01*
X195789368Y-90060830D01*
X195807781Y-90071866D01*
X195825024Y-90084654D01*
X195840930Y-90099070D01*
X195855346Y-90114976D01*
X195868134Y-90132219D01*
X195879170Y-90150632D01*
X195888349Y-90170038D01*
X195895581Y-90190250D01*
X195900797Y-90211074D01*
X195903947Y-90232309D01*
X195905000Y-90253750D01*
X195905000Y-90766250D01*
X195903947Y-90787691D01*
X195900797Y-90808926D01*
X195895581Y-90829750D01*
X195888349Y-90849962D01*
X195879170Y-90869368D01*
X195868134Y-90887781D01*
X195855346Y-90905024D01*
X195840930Y-90920930D01*
X195825024Y-90935346D01*
X195807781Y-90948134D01*
X195789368Y-90959170D01*
X195769962Y-90968349D01*
X195749750Y-90975581D01*
X195728926Y-90980797D01*
X195707691Y-90983947D01*
X195686250Y-90985000D01*
X195248750Y-90985000D01*
X195227309Y-90983947D01*
X195206074Y-90980797D01*
X195185250Y-90975581D01*
X195165038Y-90968349D01*
X195145632Y-90959170D01*
X195127219Y-90948134D01*
X195109976Y-90935346D01*
X195094070Y-90920930D01*
X195079654Y-90905024D01*
X195066866Y-90887781D01*
X195055830Y-90869368D01*
X195046651Y-90849962D01*
X195039419Y-90829750D01*
X195034203Y-90808926D01*
X195031053Y-90787691D01*
X195030000Y-90766250D01*
X195030000Y-90253750D01*
X195031053Y-90232309D01*
X195034203Y-90211074D01*
X195039419Y-90190250D01*
X195046651Y-90170038D01*
X195055830Y-90150632D01*
X195066866Y-90132219D01*
X195079654Y-90114976D01*
X195094070Y-90099070D01*
X195109976Y-90084654D01*
X195127219Y-90071866D01*
X195145632Y-90060830D01*
X195165038Y-90051651D01*
X195185250Y-90044419D01*
X195206074Y-90039203D01*
X195227309Y-90036053D01*
X195248750Y-90035000D01*
X195686250Y-90035000D01*
X195707691Y-90036053D01*
X195707691Y-90036053D01*
G37*
D12*
X195467500Y-90510000D03*
D11*
G36*
X188025191Y-113786053D02*
G01*
X188046426Y-113789203D01*
X188067250Y-113794419D01*
X188087462Y-113801651D01*
X188106868Y-113810830D01*
X188125281Y-113821866D01*
X188142524Y-113834654D01*
X188158430Y-113849070D01*
X188172846Y-113864976D01*
X188185634Y-113882219D01*
X188196670Y-113900632D01*
X188205849Y-113920038D01*
X188213081Y-113940250D01*
X188218297Y-113961074D01*
X188221447Y-113982309D01*
X188222500Y-114003750D01*
X188222500Y-114516250D01*
X188221447Y-114537691D01*
X188218297Y-114558926D01*
X188213081Y-114579750D01*
X188205849Y-114599962D01*
X188196670Y-114619368D01*
X188185634Y-114637781D01*
X188172846Y-114655024D01*
X188158430Y-114670930D01*
X188142524Y-114685346D01*
X188125281Y-114698134D01*
X188106868Y-114709170D01*
X188087462Y-114718349D01*
X188067250Y-114725581D01*
X188046426Y-114730797D01*
X188025191Y-114733947D01*
X188003750Y-114735000D01*
X187566250Y-114735000D01*
X187544809Y-114733947D01*
X187523574Y-114730797D01*
X187502750Y-114725581D01*
X187482538Y-114718349D01*
X187463132Y-114709170D01*
X187444719Y-114698134D01*
X187427476Y-114685346D01*
X187411570Y-114670930D01*
X187397154Y-114655024D01*
X187384366Y-114637781D01*
X187373330Y-114619368D01*
X187364151Y-114599962D01*
X187356919Y-114579750D01*
X187351703Y-114558926D01*
X187348553Y-114537691D01*
X187347500Y-114516250D01*
X187347500Y-114003750D01*
X187348553Y-113982309D01*
X187351703Y-113961074D01*
X187356919Y-113940250D01*
X187364151Y-113920038D01*
X187373330Y-113900632D01*
X187384366Y-113882219D01*
X187397154Y-113864976D01*
X187411570Y-113849070D01*
X187427476Y-113834654D01*
X187444719Y-113821866D01*
X187463132Y-113810830D01*
X187482538Y-113801651D01*
X187502750Y-113794419D01*
X187523574Y-113789203D01*
X187544809Y-113786053D01*
X187566250Y-113785000D01*
X188003750Y-113785000D01*
X188025191Y-113786053D01*
X188025191Y-113786053D01*
G37*
D12*
X187785000Y-114260000D03*
D11*
G36*
X189600191Y-113786053D02*
G01*
X189621426Y-113789203D01*
X189642250Y-113794419D01*
X189662462Y-113801651D01*
X189681868Y-113810830D01*
X189700281Y-113821866D01*
X189717524Y-113834654D01*
X189733430Y-113849070D01*
X189747846Y-113864976D01*
X189760634Y-113882219D01*
X189771670Y-113900632D01*
X189780849Y-113920038D01*
X189788081Y-113940250D01*
X189793297Y-113961074D01*
X189796447Y-113982309D01*
X189797500Y-114003750D01*
X189797500Y-114516250D01*
X189796447Y-114537691D01*
X189793297Y-114558926D01*
X189788081Y-114579750D01*
X189780849Y-114599962D01*
X189771670Y-114619368D01*
X189760634Y-114637781D01*
X189747846Y-114655024D01*
X189733430Y-114670930D01*
X189717524Y-114685346D01*
X189700281Y-114698134D01*
X189681868Y-114709170D01*
X189662462Y-114718349D01*
X189642250Y-114725581D01*
X189621426Y-114730797D01*
X189600191Y-114733947D01*
X189578750Y-114735000D01*
X189141250Y-114735000D01*
X189119809Y-114733947D01*
X189098574Y-114730797D01*
X189077750Y-114725581D01*
X189057538Y-114718349D01*
X189038132Y-114709170D01*
X189019719Y-114698134D01*
X189002476Y-114685346D01*
X188986570Y-114670930D01*
X188972154Y-114655024D01*
X188959366Y-114637781D01*
X188948330Y-114619368D01*
X188939151Y-114599962D01*
X188931919Y-114579750D01*
X188926703Y-114558926D01*
X188923553Y-114537691D01*
X188922500Y-114516250D01*
X188922500Y-114003750D01*
X188923553Y-113982309D01*
X188926703Y-113961074D01*
X188931919Y-113940250D01*
X188939151Y-113920038D01*
X188948330Y-113900632D01*
X188959366Y-113882219D01*
X188972154Y-113864976D01*
X188986570Y-113849070D01*
X189002476Y-113834654D01*
X189019719Y-113821866D01*
X189038132Y-113810830D01*
X189057538Y-113801651D01*
X189077750Y-113794419D01*
X189098574Y-113789203D01*
X189119809Y-113786053D01*
X189141250Y-113785000D01*
X189578750Y-113785000D01*
X189600191Y-113786053D01*
X189600191Y-113786053D01*
G37*
D12*
X189360000Y-114260000D03*
D13*
X192950000Y-123920000D03*
X196650000Y-123920000D03*
D14*
X188068750Y-85982500D03*
X194518750Y-85982500D03*
X188843750Y-85982500D03*
X193743750Y-85982500D03*
D15*
X193043750Y-85982500D03*
X189543750Y-85982500D03*
X192543750Y-85982500D03*
X190043750Y-85982500D03*
X192043750Y-85982500D03*
X190543750Y-85982500D03*
X191043750Y-85982500D03*
X191543750Y-85982500D03*
D11*
G36*
X187917691Y-103988553D02*
G01*
X187938926Y-103991703D01*
X187959750Y-103996919D01*
X187979962Y-104004151D01*
X187999368Y-104013330D01*
X188017781Y-104024366D01*
X188035024Y-104037154D01*
X188050930Y-104051570D01*
X188065346Y-104067476D01*
X188078134Y-104084719D01*
X188089170Y-104103132D01*
X188098349Y-104122538D01*
X188105581Y-104142750D01*
X188110797Y-104163574D01*
X188113947Y-104184809D01*
X188115000Y-104206250D01*
X188115000Y-104643750D01*
X188113947Y-104665191D01*
X188110797Y-104686426D01*
X188105581Y-104707250D01*
X188098349Y-104727462D01*
X188089170Y-104746868D01*
X188078134Y-104765281D01*
X188065346Y-104782524D01*
X188050930Y-104798430D01*
X188035024Y-104812846D01*
X188017781Y-104825634D01*
X187999368Y-104836670D01*
X187979962Y-104845849D01*
X187959750Y-104853081D01*
X187938926Y-104858297D01*
X187917691Y-104861447D01*
X187896250Y-104862500D01*
X187383750Y-104862500D01*
X187362309Y-104861447D01*
X187341074Y-104858297D01*
X187320250Y-104853081D01*
X187300038Y-104845849D01*
X187280632Y-104836670D01*
X187262219Y-104825634D01*
X187244976Y-104812846D01*
X187229070Y-104798430D01*
X187214654Y-104782524D01*
X187201866Y-104765281D01*
X187190830Y-104746868D01*
X187181651Y-104727462D01*
X187174419Y-104707250D01*
X187169203Y-104686426D01*
X187166053Y-104665191D01*
X187165000Y-104643750D01*
X187165000Y-104206250D01*
X187166053Y-104184809D01*
X187169203Y-104163574D01*
X187174419Y-104142750D01*
X187181651Y-104122538D01*
X187190830Y-104103132D01*
X187201866Y-104084719D01*
X187214654Y-104067476D01*
X187229070Y-104051570D01*
X187244976Y-104037154D01*
X187262219Y-104024366D01*
X187280632Y-104013330D01*
X187300038Y-104004151D01*
X187320250Y-103996919D01*
X187341074Y-103991703D01*
X187362309Y-103988553D01*
X187383750Y-103987500D01*
X187896250Y-103987500D01*
X187917691Y-103988553D01*
X187917691Y-103988553D01*
G37*
D12*
X187640000Y-104425000D03*
D11*
G36*
X187917691Y-102413553D02*
G01*
X187938926Y-102416703D01*
X187959750Y-102421919D01*
X187979962Y-102429151D01*
X187999368Y-102438330D01*
X188017781Y-102449366D01*
X188035024Y-102462154D01*
X188050930Y-102476570D01*
X188065346Y-102492476D01*
X188078134Y-102509719D01*
X188089170Y-102528132D01*
X188098349Y-102547538D01*
X188105581Y-102567750D01*
X188110797Y-102588574D01*
X188113947Y-102609809D01*
X188115000Y-102631250D01*
X188115000Y-103068750D01*
X188113947Y-103090191D01*
X188110797Y-103111426D01*
X188105581Y-103132250D01*
X188098349Y-103152462D01*
X188089170Y-103171868D01*
X188078134Y-103190281D01*
X188065346Y-103207524D01*
X188050930Y-103223430D01*
X188035024Y-103237846D01*
X188017781Y-103250634D01*
X187999368Y-103261670D01*
X187979962Y-103270849D01*
X187959750Y-103278081D01*
X187938926Y-103283297D01*
X187917691Y-103286447D01*
X187896250Y-103287500D01*
X187383750Y-103287500D01*
X187362309Y-103286447D01*
X187341074Y-103283297D01*
X187320250Y-103278081D01*
X187300038Y-103270849D01*
X187280632Y-103261670D01*
X187262219Y-103250634D01*
X187244976Y-103237846D01*
X187229070Y-103223430D01*
X187214654Y-103207524D01*
X187201866Y-103190281D01*
X187190830Y-103171868D01*
X187181651Y-103152462D01*
X187174419Y-103132250D01*
X187169203Y-103111426D01*
X187166053Y-103090191D01*
X187165000Y-103068750D01*
X187165000Y-102631250D01*
X187166053Y-102609809D01*
X187169203Y-102588574D01*
X187174419Y-102567750D01*
X187181651Y-102547538D01*
X187190830Y-102528132D01*
X187201866Y-102509719D01*
X187214654Y-102492476D01*
X187229070Y-102476570D01*
X187244976Y-102462154D01*
X187262219Y-102449366D01*
X187280632Y-102438330D01*
X187300038Y-102429151D01*
X187320250Y-102421919D01*
X187341074Y-102416703D01*
X187362309Y-102413553D01*
X187383750Y-102412500D01*
X187896250Y-102412500D01*
X187917691Y-102413553D01*
X187917691Y-102413553D01*
G37*
D12*
X187640000Y-102850000D03*
D11*
G36*
X197755191Y-120706053D02*
G01*
X197776426Y-120709203D01*
X197797250Y-120714419D01*
X197817462Y-120721651D01*
X197836868Y-120730830D01*
X197855281Y-120741866D01*
X197872524Y-120754654D01*
X197888430Y-120769070D01*
X197902846Y-120784976D01*
X197915634Y-120802219D01*
X197926670Y-120820632D01*
X197935849Y-120840038D01*
X197943081Y-120860250D01*
X197948297Y-120881074D01*
X197951447Y-120902309D01*
X197952500Y-120923750D01*
X197952500Y-121436250D01*
X197951447Y-121457691D01*
X197948297Y-121478926D01*
X197943081Y-121499750D01*
X197935849Y-121519962D01*
X197926670Y-121539368D01*
X197915634Y-121557781D01*
X197902846Y-121575024D01*
X197888430Y-121590930D01*
X197872524Y-121605346D01*
X197855281Y-121618134D01*
X197836868Y-121629170D01*
X197817462Y-121638349D01*
X197797250Y-121645581D01*
X197776426Y-121650797D01*
X197755191Y-121653947D01*
X197733750Y-121655000D01*
X197296250Y-121655000D01*
X197274809Y-121653947D01*
X197253574Y-121650797D01*
X197232750Y-121645581D01*
X197212538Y-121638349D01*
X197193132Y-121629170D01*
X197174719Y-121618134D01*
X197157476Y-121605346D01*
X197141570Y-121590930D01*
X197127154Y-121575024D01*
X197114366Y-121557781D01*
X197103330Y-121539368D01*
X197094151Y-121519962D01*
X197086919Y-121499750D01*
X197081703Y-121478926D01*
X197078553Y-121457691D01*
X197077500Y-121436250D01*
X197077500Y-120923750D01*
X197078553Y-120902309D01*
X197081703Y-120881074D01*
X197086919Y-120860250D01*
X197094151Y-120840038D01*
X197103330Y-120820632D01*
X197114366Y-120802219D01*
X197127154Y-120784976D01*
X197141570Y-120769070D01*
X197157476Y-120754654D01*
X197174719Y-120741866D01*
X197193132Y-120730830D01*
X197212538Y-120721651D01*
X197232750Y-120714419D01*
X197253574Y-120709203D01*
X197274809Y-120706053D01*
X197296250Y-120705000D01*
X197733750Y-120705000D01*
X197755191Y-120706053D01*
X197755191Y-120706053D01*
G37*
D12*
X197515000Y-121180000D03*
D11*
G36*
X196180191Y-120706053D02*
G01*
X196201426Y-120709203D01*
X196222250Y-120714419D01*
X196242462Y-120721651D01*
X196261868Y-120730830D01*
X196280281Y-120741866D01*
X196297524Y-120754654D01*
X196313430Y-120769070D01*
X196327846Y-120784976D01*
X196340634Y-120802219D01*
X196351670Y-120820632D01*
X196360849Y-120840038D01*
X196368081Y-120860250D01*
X196373297Y-120881074D01*
X196376447Y-120902309D01*
X196377500Y-120923750D01*
X196377500Y-121436250D01*
X196376447Y-121457691D01*
X196373297Y-121478926D01*
X196368081Y-121499750D01*
X196360849Y-121519962D01*
X196351670Y-121539368D01*
X196340634Y-121557781D01*
X196327846Y-121575024D01*
X196313430Y-121590930D01*
X196297524Y-121605346D01*
X196280281Y-121618134D01*
X196261868Y-121629170D01*
X196242462Y-121638349D01*
X196222250Y-121645581D01*
X196201426Y-121650797D01*
X196180191Y-121653947D01*
X196158750Y-121655000D01*
X195721250Y-121655000D01*
X195699809Y-121653947D01*
X195678574Y-121650797D01*
X195657750Y-121645581D01*
X195637538Y-121638349D01*
X195618132Y-121629170D01*
X195599719Y-121618134D01*
X195582476Y-121605346D01*
X195566570Y-121590930D01*
X195552154Y-121575024D01*
X195539366Y-121557781D01*
X195528330Y-121539368D01*
X195519151Y-121519962D01*
X195511919Y-121499750D01*
X195506703Y-121478926D01*
X195503553Y-121457691D01*
X195502500Y-121436250D01*
X195502500Y-120923750D01*
X195503553Y-120902309D01*
X195506703Y-120881074D01*
X195511919Y-120860250D01*
X195519151Y-120840038D01*
X195528330Y-120820632D01*
X195539366Y-120802219D01*
X195552154Y-120784976D01*
X195566570Y-120769070D01*
X195582476Y-120754654D01*
X195599719Y-120741866D01*
X195618132Y-120730830D01*
X195637538Y-120721651D01*
X195657750Y-120714419D01*
X195678574Y-120709203D01*
X195699809Y-120706053D01*
X195721250Y-120705000D01*
X196158750Y-120705000D01*
X196180191Y-120706053D01*
X196180191Y-120706053D01*
G37*
D12*
X195940000Y-121180000D03*
D11*
G36*
X197755191Y-119196053D02*
G01*
X197776426Y-119199203D01*
X197797250Y-119204419D01*
X197817462Y-119211651D01*
X197836868Y-119220830D01*
X197855281Y-119231866D01*
X197872524Y-119244654D01*
X197888430Y-119259070D01*
X197902846Y-119274976D01*
X197915634Y-119292219D01*
X197926670Y-119310632D01*
X197935849Y-119330038D01*
X197943081Y-119350250D01*
X197948297Y-119371074D01*
X197951447Y-119392309D01*
X197952500Y-119413750D01*
X197952500Y-119926250D01*
X197951447Y-119947691D01*
X197948297Y-119968926D01*
X197943081Y-119989750D01*
X197935849Y-120009962D01*
X197926670Y-120029368D01*
X197915634Y-120047781D01*
X197902846Y-120065024D01*
X197888430Y-120080930D01*
X197872524Y-120095346D01*
X197855281Y-120108134D01*
X197836868Y-120119170D01*
X197817462Y-120128349D01*
X197797250Y-120135581D01*
X197776426Y-120140797D01*
X197755191Y-120143947D01*
X197733750Y-120145000D01*
X197296250Y-120145000D01*
X197274809Y-120143947D01*
X197253574Y-120140797D01*
X197232750Y-120135581D01*
X197212538Y-120128349D01*
X197193132Y-120119170D01*
X197174719Y-120108134D01*
X197157476Y-120095346D01*
X197141570Y-120080930D01*
X197127154Y-120065024D01*
X197114366Y-120047781D01*
X197103330Y-120029368D01*
X197094151Y-120009962D01*
X197086919Y-119989750D01*
X197081703Y-119968926D01*
X197078553Y-119947691D01*
X197077500Y-119926250D01*
X197077500Y-119413750D01*
X197078553Y-119392309D01*
X197081703Y-119371074D01*
X197086919Y-119350250D01*
X197094151Y-119330038D01*
X197103330Y-119310632D01*
X197114366Y-119292219D01*
X197127154Y-119274976D01*
X197141570Y-119259070D01*
X197157476Y-119244654D01*
X197174719Y-119231866D01*
X197193132Y-119220830D01*
X197212538Y-119211651D01*
X197232750Y-119204419D01*
X197253574Y-119199203D01*
X197274809Y-119196053D01*
X197296250Y-119195000D01*
X197733750Y-119195000D01*
X197755191Y-119196053D01*
X197755191Y-119196053D01*
G37*
D12*
X197515000Y-119670000D03*
D11*
G36*
X196180191Y-119196053D02*
G01*
X196201426Y-119199203D01*
X196222250Y-119204419D01*
X196242462Y-119211651D01*
X196261868Y-119220830D01*
X196280281Y-119231866D01*
X196297524Y-119244654D01*
X196313430Y-119259070D01*
X196327846Y-119274976D01*
X196340634Y-119292219D01*
X196351670Y-119310632D01*
X196360849Y-119330038D01*
X196368081Y-119350250D01*
X196373297Y-119371074D01*
X196376447Y-119392309D01*
X196377500Y-119413750D01*
X196377500Y-119926250D01*
X196376447Y-119947691D01*
X196373297Y-119968926D01*
X196368081Y-119989750D01*
X196360849Y-120009962D01*
X196351670Y-120029368D01*
X196340634Y-120047781D01*
X196327846Y-120065024D01*
X196313430Y-120080930D01*
X196297524Y-120095346D01*
X196280281Y-120108134D01*
X196261868Y-120119170D01*
X196242462Y-120128349D01*
X196222250Y-120135581D01*
X196201426Y-120140797D01*
X196180191Y-120143947D01*
X196158750Y-120145000D01*
X195721250Y-120145000D01*
X195699809Y-120143947D01*
X195678574Y-120140797D01*
X195657750Y-120135581D01*
X195637538Y-120128349D01*
X195618132Y-120119170D01*
X195599719Y-120108134D01*
X195582476Y-120095346D01*
X195566570Y-120080930D01*
X195552154Y-120065024D01*
X195539366Y-120047781D01*
X195528330Y-120029368D01*
X195519151Y-120009962D01*
X195511919Y-119989750D01*
X195506703Y-119968926D01*
X195503553Y-119947691D01*
X195502500Y-119926250D01*
X195502500Y-119413750D01*
X195503553Y-119392309D01*
X195506703Y-119371074D01*
X195511919Y-119350250D01*
X195519151Y-119330038D01*
X195528330Y-119310632D01*
X195539366Y-119292219D01*
X195552154Y-119274976D01*
X195566570Y-119259070D01*
X195582476Y-119244654D01*
X195599719Y-119231866D01*
X195618132Y-119220830D01*
X195637538Y-119211651D01*
X195657750Y-119204419D01*
X195678574Y-119199203D01*
X195699809Y-119196053D01*
X195721250Y-119195000D01*
X196158750Y-119195000D01*
X196180191Y-119196053D01*
X196180191Y-119196053D01*
G37*
D12*
X195940000Y-119670000D03*
D11*
G36*
X190010191Y-116996053D02*
G01*
X190031426Y-116999203D01*
X190052250Y-117004419D01*
X190072462Y-117011651D01*
X190091868Y-117020830D01*
X190110281Y-117031866D01*
X190127524Y-117044654D01*
X190143430Y-117059070D01*
X190157846Y-117074976D01*
X190170634Y-117092219D01*
X190181670Y-117110632D01*
X190190849Y-117130038D01*
X190198081Y-117150250D01*
X190203297Y-117171074D01*
X190206447Y-117192309D01*
X190207500Y-117213750D01*
X190207500Y-117726250D01*
X190206447Y-117747691D01*
X190203297Y-117768926D01*
X190198081Y-117789750D01*
X190190849Y-117809962D01*
X190181670Y-117829368D01*
X190170634Y-117847781D01*
X190157846Y-117865024D01*
X190143430Y-117880930D01*
X190127524Y-117895346D01*
X190110281Y-117908134D01*
X190091868Y-117919170D01*
X190072462Y-117928349D01*
X190052250Y-117935581D01*
X190031426Y-117940797D01*
X190010191Y-117943947D01*
X189988750Y-117945000D01*
X189551250Y-117945000D01*
X189529809Y-117943947D01*
X189508574Y-117940797D01*
X189487750Y-117935581D01*
X189467538Y-117928349D01*
X189448132Y-117919170D01*
X189429719Y-117908134D01*
X189412476Y-117895346D01*
X189396570Y-117880930D01*
X189382154Y-117865024D01*
X189369366Y-117847781D01*
X189358330Y-117829368D01*
X189349151Y-117809962D01*
X189341919Y-117789750D01*
X189336703Y-117768926D01*
X189333553Y-117747691D01*
X189332500Y-117726250D01*
X189332500Y-117213750D01*
X189333553Y-117192309D01*
X189336703Y-117171074D01*
X189341919Y-117150250D01*
X189349151Y-117130038D01*
X189358330Y-117110632D01*
X189369366Y-117092219D01*
X189382154Y-117074976D01*
X189396570Y-117059070D01*
X189412476Y-117044654D01*
X189429719Y-117031866D01*
X189448132Y-117020830D01*
X189467538Y-117011651D01*
X189487750Y-117004419D01*
X189508574Y-116999203D01*
X189529809Y-116996053D01*
X189551250Y-116995000D01*
X189988750Y-116995000D01*
X190010191Y-116996053D01*
X190010191Y-116996053D01*
G37*
D12*
X189770000Y-117470000D03*
D11*
G36*
X188435191Y-116996053D02*
G01*
X188456426Y-116999203D01*
X188477250Y-117004419D01*
X188497462Y-117011651D01*
X188516868Y-117020830D01*
X188535281Y-117031866D01*
X188552524Y-117044654D01*
X188568430Y-117059070D01*
X188582846Y-117074976D01*
X188595634Y-117092219D01*
X188606670Y-117110632D01*
X188615849Y-117130038D01*
X188623081Y-117150250D01*
X188628297Y-117171074D01*
X188631447Y-117192309D01*
X188632500Y-117213750D01*
X188632500Y-117726250D01*
X188631447Y-117747691D01*
X188628297Y-117768926D01*
X188623081Y-117789750D01*
X188615849Y-117809962D01*
X188606670Y-117829368D01*
X188595634Y-117847781D01*
X188582846Y-117865024D01*
X188568430Y-117880930D01*
X188552524Y-117895346D01*
X188535281Y-117908134D01*
X188516868Y-117919170D01*
X188497462Y-117928349D01*
X188477250Y-117935581D01*
X188456426Y-117940797D01*
X188435191Y-117943947D01*
X188413750Y-117945000D01*
X187976250Y-117945000D01*
X187954809Y-117943947D01*
X187933574Y-117940797D01*
X187912750Y-117935581D01*
X187892538Y-117928349D01*
X187873132Y-117919170D01*
X187854719Y-117908134D01*
X187837476Y-117895346D01*
X187821570Y-117880930D01*
X187807154Y-117865024D01*
X187794366Y-117847781D01*
X187783330Y-117829368D01*
X187774151Y-117809962D01*
X187766919Y-117789750D01*
X187761703Y-117768926D01*
X187758553Y-117747691D01*
X187757500Y-117726250D01*
X187757500Y-117213750D01*
X187758553Y-117192309D01*
X187761703Y-117171074D01*
X187766919Y-117150250D01*
X187774151Y-117130038D01*
X187783330Y-117110632D01*
X187794366Y-117092219D01*
X187807154Y-117074976D01*
X187821570Y-117059070D01*
X187837476Y-117044654D01*
X187854719Y-117031866D01*
X187873132Y-117020830D01*
X187892538Y-117011651D01*
X187912750Y-117004419D01*
X187933574Y-116999203D01*
X187954809Y-116996053D01*
X187976250Y-116995000D01*
X188413750Y-116995000D01*
X188435191Y-116996053D01*
X188435191Y-116996053D01*
G37*
D12*
X188195000Y-117470000D03*
D11*
G36*
X190832691Y-106986053D02*
G01*
X190853926Y-106989203D01*
X190874750Y-106994419D01*
X190894962Y-107001651D01*
X190914368Y-107010830D01*
X190932781Y-107021866D01*
X190950024Y-107034654D01*
X190965930Y-107049070D01*
X190980346Y-107064976D01*
X190993134Y-107082219D01*
X191004170Y-107100632D01*
X191013349Y-107120038D01*
X191020581Y-107140250D01*
X191025797Y-107161074D01*
X191028947Y-107182309D01*
X191030000Y-107203750D01*
X191030000Y-107716250D01*
X191028947Y-107737691D01*
X191025797Y-107758926D01*
X191020581Y-107779750D01*
X191013349Y-107799962D01*
X191004170Y-107819368D01*
X190993134Y-107837781D01*
X190980346Y-107855024D01*
X190965930Y-107870930D01*
X190950024Y-107885346D01*
X190932781Y-107898134D01*
X190914368Y-107909170D01*
X190894962Y-107918349D01*
X190874750Y-107925581D01*
X190853926Y-107930797D01*
X190832691Y-107933947D01*
X190811250Y-107935000D01*
X190373750Y-107935000D01*
X190352309Y-107933947D01*
X190331074Y-107930797D01*
X190310250Y-107925581D01*
X190290038Y-107918349D01*
X190270632Y-107909170D01*
X190252219Y-107898134D01*
X190234976Y-107885346D01*
X190219070Y-107870930D01*
X190204654Y-107855024D01*
X190191866Y-107837781D01*
X190180830Y-107819368D01*
X190171651Y-107799962D01*
X190164419Y-107779750D01*
X190159203Y-107758926D01*
X190156053Y-107737691D01*
X190155000Y-107716250D01*
X190155000Y-107203750D01*
X190156053Y-107182309D01*
X190159203Y-107161074D01*
X190164419Y-107140250D01*
X190171651Y-107120038D01*
X190180830Y-107100632D01*
X190191866Y-107082219D01*
X190204654Y-107064976D01*
X190219070Y-107049070D01*
X190234976Y-107034654D01*
X190252219Y-107021866D01*
X190270632Y-107010830D01*
X190290038Y-107001651D01*
X190310250Y-106994419D01*
X190331074Y-106989203D01*
X190352309Y-106986053D01*
X190373750Y-106985000D01*
X190811250Y-106985000D01*
X190832691Y-106986053D01*
X190832691Y-106986053D01*
G37*
D12*
X190592500Y-107460000D03*
D11*
G36*
X192407691Y-106986053D02*
G01*
X192428926Y-106989203D01*
X192449750Y-106994419D01*
X192469962Y-107001651D01*
X192489368Y-107010830D01*
X192507781Y-107021866D01*
X192525024Y-107034654D01*
X192540930Y-107049070D01*
X192555346Y-107064976D01*
X192568134Y-107082219D01*
X192579170Y-107100632D01*
X192588349Y-107120038D01*
X192595581Y-107140250D01*
X192600797Y-107161074D01*
X192603947Y-107182309D01*
X192605000Y-107203750D01*
X192605000Y-107716250D01*
X192603947Y-107737691D01*
X192600797Y-107758926D01*
X192595581Y-107779750D01*
X192588349Y-107799962D01*
X192579170Y-107819368D01*
X192568134Y-107837781D01*
X192555346Y-107855024D01*
X192540930Y-107870930D01*
X192525024Y-107885346D01*
X192507781Y-107898134D01*
X192489368Y-107909170D01*
X192469962Y-107918349D01*
X192449750Y-107925581D01*
X192428926Y-107930797D01*
X192407691Y-107933947D01*
X192386250Y-107935000D01*
X191948750Y-107935000D01*
X191927309Y-107933947D01*
X191906074Y-107930797D01*
X191885250Y-107925581D01*
X191865038Y-107918349D01*
X191845632Y-107909170D01*
X191827219Y-107898134D01*
X191809976Y-107885346D01*
X191794070Y-107870930D01*
X191779654Y-107855024D01*
X191766866Y-107837781D01*
X191755830Y-107819368D01*
X191746651Y-107799962D01*
X191739419Y-107779750D01*
X191734203Y-107758926D01*
X191731053Y-107737691D01*
X191730000Y-107716250D01*
X191730000Y-107203750D01*
X191731053Y-107182309D01*
X191734203Y-107161074D01*
X191739419Y-107140250D01*
X191746651Y-107120038D01*
X191755830Y-107100632D01*
X191766866Y-107082219D01*
X191779654Y-107064976D01*
X191794070Y-107049070D01*
X191809976Y-107034654D01*
X191827219Y-107021866D01*
X191845632Y-107010830D01*
X191865038Y-107001651D01*
X191885250Y-106994419D01*
X191906074Y-106989203D01*
X191927309Y-106986053D01*
X191948750Y-106985000D01*
X192386250Y-106985000D01*
X192407691Y-106986053D01*
X192407691Y-106986053D01*
G37*
D12*
X192167500Y-107460000D03*
D11*
G36*
X201040191Y-108996053D02*
G01*
X201061426Y-108999203D01*
X201082250Y-109004419D01*
X201102462Y-109011651D01*
X201121868Y-109020830D01*
X201140281Y-109031866D01*
X201157524Y-109044654D01*
X201173430Y-109059070D01*
X201187846Y-109074976D01*
X201200634Y-109092219D01*
X201211670Y-109110632D01*
X201220849Y-109130038D01*
X201228081Y-109150250D01*
X201233297Y-109171074D01*
X201236447Y-109192309D01*
X201237500Y-109213750D01*
X201237500Y-109726250D01*
X201236447Y-109747691D01*
X201233297Y-109768926D01*
X201228081Y-109789750D01*
X201220849Y-109809962D01*
X201211670Y-109829368D01*
X201200634Y-109847781D01*
X201187846Y-109865024D01*
X201173430Y-109880930D01*
X201157524Y-109895346D01*
X201140281Y-109908134D01*
X201121868Y-109919170D01*
X201102462Y-109928349D01*
X201082250Y-109935581D01*
X201061426Y-109940797D01*
X201040191Y-109943947D01*
X201018750Y-109945000D01*
X200581250Y-109945000D01*
X200559809Y-109943947D01*
X200538574Y-109940797D01*
X200517750Y-109935581D01*
X200497538Y-109928349D01*
X200478132Y-109919170D01*
X200459719Y-109908134D01*
X200442476Y-109895346D01*
X200426570Y-109880930D01*
X200412154Y-109865024D01*
X200399366Y-109847781D01*
X200388330Y-109829368D01*
X200379151Y-109809962D01*
X200371919Y-109789750D01*
X200366703Y-109768926D01*
X200363553Y-109747691D01*
X200362500Y-109726250D01*
X200362500Y-109213750D01*
X200363553Y-109192309D01*
X200366703Y-109171074D01*
X200371919Y-109150250D01*
X200379151Y-109130038D01*
X200388330Y-109110632D01*
X200399366Y-109092219D01*
X200412154Y-109074976D01*
X200426570Y-109059070D01*
X200442476Y-109044654D01*
X200459719Y-109031866D01*
X200478132Y-109020830D01*
X200497538Y-109011651D01*
X200517750Y-109004419D01*
X200538574Y-108999203D01*
X200559809Y-108996053D01*
X200581250Y-108995000D01*
X201018750Y-108995000D01*
X201040191Y-108996053D01*
X201040191Y-108996053D01*
G37*
D12*
X200800000Y-109470000D03*
D11*
G36*
X202615191Y-108996053D02*
G01*
X202636426Y-108999203D01*
X202657250Y-109004419D01*
X202677462Y-109011651D01*
X202696868Y-109020830D01*
X202715281Y-109031866D01*
X202732524Y-109044654D01*
X202748430Y-109059070D01*
X202762846Y-109074976D01*
X202775634Y-109092219D01*
X202786670Y-109110632D01*
X202795849Y-109130038D01*
X202803081Y-109150250D01*
X202808297Y-109171074D01*
X202811447Y-109192309D01*
X202812500Y-109213750D01*
X202812500Y-109726250D01*
X202811447Y-109747691D01*
X202808297Y-109768926D01*
X202803081Y-109789750D01*
X202795849Y-109809962D01*
X202786670Y-109829368D01*
X202775634Y-109847781D01*
X202762846Y-109865024D01*
X202748430Y-109880930D01*
X202732524Y-109895346D01*
X202715281Y-109908134D01*
X202696868Y-109919170D01*
X202677462Y-109928349D01*
X202657250Y-109935581D01*
X202636426Y-109940797D01*
X202615191Y-109943947D01*
X202593750Y-109945000D01*
X202156250Y-109945000D01*
X202134809Y-109943947D01*
X202113574Y-109940797D01*
X202092750Y-109935581D01*
X202072538Y-109928349D01*
X202053132Y-109919170D01*
X202034719Y-109908134D01*
X202017476Y-109895346D01*
X202001570Y-109880930D01*
X201987154Y-109865024D01*
X201974366Y-109847781D01*
X201963330Y-109829368D01*
X201954151Y-109809962D01*
X201946919Y-109789750D01*
X201941703Y-109768926D01*
X201938553Y-109747691D01*
X201937500Y-109726250D01*
X201937500Y-109213750D01*
X201938553Y-109192309D01*
X201941703Y-109171074D01*
X201946919Y-109150250D01*
X201954151Y-109130038D01*
X201963330Y-109110632D01*
X201974366Y-109092219D01*
X201987154Y-109074976D01*
X202001570Y-109059070D01*
X202017476Y-109044654D01*
X202034719Y-109031866D01*
X202053132Y-109020830D01*
X202072538Y-109011651D01*
X202092750Y-109004419D01*
X202113574Y-108999203D01*
X202134809Y-108996053D01*
X202156250Y-108995000D01*
X202593750Y-108995000D01*
X202615191Y-108996053D01*
X202615191Y-108996053D01*
G37*
D12*
X202375000Y-109470000D03*
D11*
G36*
X191547691Y-118493553D02*
G01*
X191568926Y-118496703D01*
X191589750Y-118501919D01*
X191609962Y-118509151D01*
X191629368Y-118518330D01*
X191647781Y-118529366D01*
X191665024Y-118542154D01*
X191680930Y-118556570D01*
X191695346Y-118572476D01*
X191708134Y-118589719D01*
X191719170Y-118608132D01*
X191728349Y-118627538D01*
X191735581Y-118647750D01*
X191740797Y-118668574D01*
X191743947Y-118689809D01*
X191745000Y-118711250D01*
X191745000Y-119148750D01*
X191743947Y-119170191D01*
X191740797Y-119191426D01*
X191735581Y-119212250D01*
X191728349Y-119232462D01*
X191719170Y-119251868D01*
X191708134Y-119270281D01*
X191695346Y-119287524D01*
X191680930Y-119303430D01*
X191665024Y-119317846D01*
X191647781Y-119330634D01*
X191629368Y-119341670D01*
X191609962Y-119350849D01*
X191589750Y-119358081D01*
X191568926Y-119363297D01*
X191547691Y-119366447D01*
X191526250Y-119367500D01*
X191013750Y-119367500D01*
X190992309Y-119366447D01*
X190971074Y-119363297D01*
X190950250Y-119358081D01*
X190930038Y-119350849D01*
X190910632Y-119341670D01*
X190892219Y-119330634D01*
X190874976Y-119317846D01*
X190859070Y-119303430D01*
X190844654Y-119287524D01*
X190831866Y-119270281D01*
X190820830Y-119251868D01*
X190811651Y-119232462D01*
X190804419Y-119212250D01*
X190799203Y-119191426D01*
X190796053Y-119170191D01*
X190795000Y-119148750D01*
X190795000Y-118711250D01*
X190796053Y-118689809D01*
X190799203Y-118668574D01*
X190804419Y-118647750D01*
X190811651Y-118627538D01*
X190820830Y-118608132D01*
X190831866Y-118589719D01*
X190844654Y-118572476D01*
X190859070Y-118556570D01*
X190874976Y-118542154D01*
X190892219Y-118529366D01*
X190910632Y-118518330D01*
X190930038Y-118509151D01*
X190950250Y-118501919D01*
X190971074Y-118496703D01*
X190992309Y-118493553D01*
X191013750Y-118492500D01*
X191526250Y-118492500D01*
X191547691Y-118493553D01*
X191547691Y-118493553D01*
G37*
D12*
X191270000Y-118930000D03*
D11*
G36*
X191547691Y-120068553D02*
G01*
X191568926Y-120071703D01*
X191589750Y-120076919D01*
X191609962Y-120084151D01*
X191629368Y-120093330D01*
X191647781Y-120104366D01*
X191665024Y-120117154D01*
X191680930Y-120131570D01*
X191695346Y-120147476D01*
X191708134Y-120164719D01*
X191719170Y-120183132D01*
X191728349Y-120202538D01*
X191735581Y-120222750D01*
X191740797Y-120243574D01*
X191743947Y-120264809D01*
X191745000Y-120286250D01*
X191745000Y-120723750D01*
X191743947Y-120745191D01*
X191740797Y-120766426D01*
X191735581Y-120787250D01*
X191728349Y-120807462D01*
X191719170Y-120826868D01*
X191708134Y-120845281D01*
X191695346Y-120862524D01*
X191680930Y-120878430D01*
X191665024Y-120892846D01*
X191647781Y-120905634D01*
X191629368Y-120916670D01*
X191609962Y-120925849D01*
X191589750Y-120933081D01*
X191568926Y-120938297D01*
X191547691Y-120941447D01*
X191526250Y-120942500D01*
X191013750Y-120942500D01*
X190992309Y-120941447D01*
X190971074Y-120938297D01*
X190950250Y-120933081D01*
X190930038Y-120925849D01*
X190910632Y-120916670D01*
X190892219Y-120905634D01*
X190874976Y-120892846D01*
X190859070Y-120878430D01*
X190844654Y-120862524D01*
X190831866Y-120845281D01*
X190820830Y-120826868D01*
X190811651Y-120807462D01*
X190804419Y-120787250D01*
X190799203Y-120766426D01*
X190796053Y-120745191D01*
X190795000Y-120723750D01*
X190795000Y-120286250D01*
X190796053Y-120264809D01*
X190799203Y-120243574D01*
X190804419Y-120222750D01*
X190811651Y-120202538D01*
X190820830Y-120183132D01*
X190831866Y-120164719D01*
X190844654Y-120147476D01*
X190859070Y-120131570D01*
X190874976Y-120117154D01*
X190892219Y-120104366D01*
X190910632Y-120093330D01*
X190930038Y-120084151D01*
X190950250Y-120076919D01*
X190971074Y-120071703D01*
X190992309Y-120068553D01*
X191013750Y-120067500D01*
X191526250Y-120067500D01*
X191547691Y-120068553D01*
X191547691Y-120068553D01*
G37*
D12*
X191270000Y-120505000D03*
D11*
G36*
X187929504Y-93938704D02*
G01*
X187953773Y-93942304D01*
X187977571Y-93948265D01*
X188000671Y-93956530D01*
X188022849Y-93967020D01*
X188043893Y-93979633D01*
X188063598Y-93994247D01*
X188081777Y-94010723D01*
X188098253Y-94028902D01*
X188112867Y-94048607D01*
X188125480Y-94069651D01*
X188135970Y-94091829D01*
X188144235Y-94114929D01*
X188150196Y-94138727D01*
X188153796Y-94162996D01*
X188155000Y-94187500D01*
X188155000Y-95112500D01*
X188153796Y-95137004D01*
X188150196Y-95161273D01*
X188144235Y-95185071D01*
X188135970Y-95208171D01*
X188125480Y-95230349D01*
X188112867Y-95251393D01*
X188098253Y-95271098D01*
X188081777Y-95289277D01*
X188063598Y-95305753D01*
X188043893Y-95320367D01*
X188022849Y-95332980D01*
X188000671Y-95343470D01*
X187977571Y-95351735D01*
X187953773Y-95357696D01*
X187929504Y-95361296D01*
X187905000Y-95362500D01*
X186655000Y-95362500D01*
X186630496Y-95361296D01*
X186606227Y-95357696D01*
X186582429Y-95351735D01*
X186559329Y-95343470D01*
X186537151Y-95332980D01*
X186516107Y-95320367D01*
X186496402Y-95305753D01*
X186478223Y-95289277D01*
X186461747Y-95271098D01*
X186447133Y-95251393D01*
X186434520Y-95230349D01*
X186424030Y-95208171D01*
X186415765Y-95185071D01*
X186409804Y-95161273D01*
X186406204Y-95137004D01*
X186405000Y-95112500D01*
X186405000Y-94187500D01*
X186406204Y-94162996D01*
X186409804Y-94138727D01*
X186415765Y-94114929D01*
X186424030Y-94091829D01*
X186434520Y-94069651D01*
X186447133Y-94048607D01*
X186461747Y-94028902D01*
X186478223Y-94010723D01*
X186496402Y-93994247D01*
X186516107Y-93979633D01*
X186537151Y-93967020D01*
X186559329Y-93956530D01*
X186582429Y-93948265D01*
X186606227Y-93942304D01*
X186630496Y-93938704D01*
X186655000Y-93937500D01*
X187905000Y-93937500D01*
X187929504Y-93938704D01*
X187929504Y-93938704D01*
G37*
D16*
X187280000Y-94650000D03*
D11*
G36*
X187929504Y-96913704D02*
G01*
X187953773Y-96917304D01*
X187977571Y-96923265D01*
X188000671Y-96931530D01*
X188022849Y-96942020D01*
X188043893Y-96954633D01*
X188063598Y-96969247D01*
X188081777Y-96985723D01*
X188098253Y-97003902D01*
X188112867Y-97023607D01*
X188125480Y-97044651D01*
X188135970Y-97066829D01*
X188144235Y-97089929D01*
X188150196Y-97113727D01*
X188153796Y-97137996D01*
X188155000Y-97162500D01*
X188155000Y-98087500D01*
X188153796Y-98112004D01*
X188150196Y-98136273D01*
X188144235Y-98160071D01*
X188135970Y-98183171D01*
X188125480Y-98205349D01*
X188112867Y-98226393D01*
X188098253Y-98246098D01*
X188081777Y-98264277D01*
X188063598Y-98280753D01*
X188043893Y-98295367D01*
X188022849Y-98307980D01*
X188000671Y-98318470D01*
X187977571Y-98326735D01*
X187953773Y-98332696D01*
X187929504Y-98336296D01*
X187905000Y-98337500D01*
X186655000Y-98337500D01*
X186630496Y-98336296D01*
X186606227Y-98332696D01*
X186582429Y-98326735D01*
X186559329Y-98318470D01*
X186537151Y-98307980D01*
X186516107Y-98295367D01*
X186496402Y-98280753D01*
X186478223Y-98264277D01*
X186461747Y-98246098D01*
X186447133Y-98226393D01*
X186434520Y-98205349D01*
X186424030Y-98183171D01*
X186415765Y-98160071D01*
X186409804Y-98136273D01*
X186406204Y-98112004D01*
X186405000Y-98087500D01*
X186405000Y-97162500D01*
X186406204Y-97137996D01*
X186409804Y-97113727D01*
X186415765Y-97089929D01*
X186424030Y-97066829D01*
X186434520Y-97044651D01*
X186447133Y-97023607D01*
X186461747Y-97003902D01*
X186478223Y-96985723D01*
X186496402Y-96969247D01*
X186516107Y-96954633D01*
X186537151Y-96942020D01*
X186559329Y-96931530D01*
X186582429Y-96923265D01*
X186606227Y-96917304D01*
X186630496Y-96913704D01*
X186655000Y-96912500D01*
X187905000Y-96912500D01*
X187929504Y-96913704D01*
X187929504Y-96913704D01*
G37*
D16*
X187280000Y-97625000D03*
D11*
G36*
X189945191Y-102666053D02*
G01*
X189966426Y-102669203D01*
X189987250Y-102674419D01*
X190007462Y-102681651D01*
X190026868Y-102690830D01*
X190045281Y-102701866D01*
X190062524Y-102714654D01*
X190078430Y-102729070D01*
X190092846Y-102744976D01*
X190105634Y-102762219D01*
X190116670Y-102780632D01*
X190125849Y-102800038D01*
X190133081Y-102820250D01*
X190138297Y-102841074D01*
X190141447Y-102862309D01*
X190142500Y-102883750D01*
X190142500Y-103396250D01*
X190141447Y-103417691D01*
X190138297Y-103438926D01*
X190133081Y-103459750D01*
X190125849Y-103479962D01*
X190116670Y-103499368D01*
X190105634Y-103517781D01*
X190092846Y-103535024D01*
X190078430Y-103550930D01*
X190062524Y-103565346D01*
X190045281Y-103578134D01*
X190026868Y-103589170D01*
X190007462Y-103598349D01*
X189987250Y-103605581D01*
X189966426Y-103610797D01*
X189945191Y-103613947D01*
X189923750Y-103615000D01*
X189486250Y-103615000D01*
X189464809Y-103613947D01*
X189443574Y-103610797D01*
X189422750Y-103605581D01*
X189402538Y-103598349D01*
X189383132Y-103589170D01*
X189364719Y-103578134D01*
X189347476Y-103565346D01*
X189331570Y-103550930D01*
X189317154Y-103535024D01*
X189304366Y-103517781D01*
X189293330Y-103499368D01*
X189284151Y-103479962D01*
X189276919Y-103459750D01*
X189271703Y-103438926D01*
X189268553Y-103417691D01*
X189267500Y-103396250D01*
X189267500Y-102883750D01*
X189268553Y-102862309D01*
X189271703Y-102841074D01*
X189276919Y-102820250D01*
X189284151Y-102800038D01*
X189293330Y-102780632D01*
X189304366Y-102762219D01*
X189317154Y-102744976D01*
X189331570Y-102729070D01*
X189347476Y-102714654D01*
X189364719Y-102701866D01*
X189383132Y-102690830D01*
X189402538Y-102681651D01*
X189422750Y-102674419D01*
X189443574Y-102669203D01*
X189464809Y-102666053D01*
X189486250Y-102665000D01*
X189923750Y-102665000D01*
X189945191Y-102666053D01*
X189945191Y-102666053D01*
G37*
D12*
X189705000Y-103140000D03*
D11*
G36*
X191520191Y-102666053D02*
G01*
X191541426Y-102669203D01*
X191562250Y-102674419D01*
X191582462Y-102681651D01*
X191601868Y-102690830D01*
X191620281Y-102701866D01*
X191637524Y-102714654D01*
X191653430Y-102729070D01*
X191667846Y-102744976D01*
X191680634Y-102762219D01*
X191691670Y-102780632D01*
X191700849Y-102800038D01*
X191708081Y-102820250D01*
X191713297Y-102841074D01*
X191716447Y-102862309D01*
X191717500Y-102883750D01*
X191717500Y-103396250D01*
X191716447Y-103417691D01*
X191713297Y-103438926D01*
X191708081Y-103459750D01*
X191700849Y-103479962D01*
X191691670Y-103499368D01*
X191680634Y-103517781D01*
X191667846Y-103535024D01*
X191653430Y-103550930D01*
X191637524Y-103565346D01*
X191620281Y-103578134D01*
X191601868Y-103589170D01*
X191582462Y-103598349D01*
X191562250Y-103605581D01*
X191541426Y-103610797D01*
X191520191Y-103613947D01*
X191498750Y-103615000D01*
X191061250Y-103615000D01*
X191039809Y-103613947D01*
X191018574Y-103610797D01*
X190997750Y-103605581D01*
X190977538Y-103598349D01*
X190958132Y-103589170D01*
X190939719Y-103578134D01*
X190922476Y-103565346D01*
X190906570Y-103550930D01*
X190892154Y-103535024D01*
X190879366Y-103517781D01*
X190868330Y-103499368D01*
X190859151Y-103479962D01*
X190851919Y-103459750D01*
X190846703Y-103438926D01*
X190843553Y-103417691D01*
X190842500Y-103396250D01*
X190842500Y-102883750D01*
X190843553Y-102862309D01*
X190846703Y-102841074D01*
X190851919Y-102820250D01*
X190859151Y-102800038D01*
X190868330Y-102780632D01*
X190879366Y-102762219D01*
X190892154Y-102744976D01*
X190906570Y-102729070D01*
X190922476Y-102714654D01*
X190939719Y-102701866D01*
X190958132Y-102690830D01*
X190977538Y-102681651D01*
X190997750Y-102674419D01*
X191018574Y-102669203D01*
X191039809Y-102666053D01*
X191061250Y-102665000D01*
X191498750Y-102665000D01*
X191520191Y-102666053D01*
X191520191Y-102666053D01*
G37*
D12*
X191280000Y-103140000D03*
D11*
G36*
X189557691Y-95893553D02*
G01*
X189578926Y-95896703D01*
X189599750Y-95901919D01*
X189619962Y-95909151D01*
X189639368Y-95918330D01*
X189657781Y-95929366D01*
X189675024Y-95942154D01*
X189690930Y-95956570D01*
X189705346Y-95972476D01*
X189718134Y-95989719D01*
X189729170Y-96008132D01*
X189738349Y-96027538D01*
X189745581Y-96047750D01*
X189750797Y-96068574D01*
X189753947Y-96089809D01*
X189755000Y-96111250D01*
X189755000Y-96548750D01*
X189753947Y-96570191D01*
X189750797Y-96591426D01*
X189745581Y-96612250D01*
X189738349Y-96632462D01*
X189729170Y-96651868D01*
X189718134Y-96670281D01*
X189705346Y-96687524D01*
X189690930Y-96703430D01*
X189675024Y-96717846D01*
X189657781Y-96730634D01*
X189639368Y-96741670D01*
X189619962Y-96750849D01*
X189599750Y-96758081D01*
X189578926Y-96763297D01*
X189557691Y-96766447D01*
X189536250Y-96767500D01*
X189023750Y-96767500D01*
X189002309Y-96766447D01*
X188981074Y-96763297D01*
X188960250Y-96758081D01*
X188940038Y-96750849D01*
X188920632Y-96741670D01*
X188902219Y-96730634D01*
X188884976Y-96717846D01*
X188869070Y-96703430D01*
X188854654Y-96687524D01*
X188841866Y-96670281D01*
X188830830Y-96651868D01*
X188821651Y-96632462D01*
X188814419Y-96612250D01*
X188809203Y-96591426D01*
X188806053Y-96570191D01*
X188805000Y-96548750D01*
X188805000Y-96111250D01*
X188806053Y-96089809D01*
X188809203Y-96068574D01*
X188814419Y-96047750D01*
X188821651Y-96027538D01*
X188830830Y-96008132D01*
X188841866Y-95989719D01*
X188854654Y-95972476D01*
X188869070Y-95956570D01*
X188884976Y-95942154D01*
X188902219Y-95929366D01*
X188920632Y-95918330D01*
X188940038Y-95909151D01*
X188960250Y-95901919D01*
X188981074Y-95896703D01*
X189002309Y-95893553D01*
X189023750Y-95892500D01*
X189536250Y-95892500D01*
X189557691Y-95893553D01*
X189557691Y-95893553D01*
G37*
D12*
X189280000Y-96330000D03*
D11*
G36*
X189557691Y-97468553D02*
G01*
X189578926Y-97471703D01*
X189599750Y-97476919D01*
X189619962Y-97484151D01*
X189639368Y-97493330D01*
X189657781Y-97504366D01*
X189675024Y-97517154D01*
X189690930Y-97531570D01*
X189705346Y-97547476D01*
X189718134Y-97564719D01*
X189729170Y-97583132D01*
X189738349Y-97602538D01*
X189745581Y-97622750D01*
X189750797Y-97643574D01*
X189753947Y-97664809D01*
X189755000Y-97686250D01*
X189755000Y-98123750D01*
X189753947Y-98145191D01*
X189750797Y-98166426D01*
X189745581Y-98187250D01*
X189738349Y-98207462D01*
X189729170Y-98226868D01*
X189718134Y-98245281D01*
X189705346Y-98262524D01*
X189690930Y-98278430D01*
X189675024Y-98292846D01*
X189657781Y-98305634D01*
X189639368Y-98316670D01*
X189619962Y-98325849D01*
X189599750Y-98333081D01*
X189578926Y-98338297D01*
X189557691Y-98341447D01*
X189536250Y-98342500D01*
X189023750Y-98342500D01*
X189002309Y-98341447D01*
X188981074Y-98338297D01*
X188960250Y-98333081D01*
X188940038Y-98325849D01*
X188920632Y-98316670D01*
X188902219Y-98305634D01*
X188884976Y-98292846D01*
X188869070Y-98278430D01*
X188854654Y-98262524D01*
X188841866Y-98245281D01*
X188830830Y-98226868D01*
X188821651Y-98207462D01*
X188814419Y-98187250D01*
X188809203Y-98166426D01*
X188806053Y-98145191D01*
X188805000Y-98123750D01*
X188805000Y-97686250D01*
X188806053Y-97664809D01*
X188809203Y-97643574D01*
X188814419Y-97622750D01*
X188821651Y-97602538D01*
X188830830Y-97583132D01*
X188841866Y-97564719D01*
X188854654Y-97547476D01*
X188869070Y-97531570D01*
X188884976Y-97517154D01*
X188902219Y-97504366D01*
X188920632Y-97493330D01*
X188940038Y-97484151D01*
X188960250Y-97476919D01*
X188981074Y-97471703D01*
X189002309Y-97468553D01*
X189023750Y-97467500D01*
X189536250Y-97467500D01*
X189557691Y-97468553D01*
X189557691Y-97468553D01*
G37*
D12*
X189280000Y-97905000D03*
D11*
G36*
X198987691Y-125058553D02*
G01*
X199008926Y-125061703D01*
X199029750Y-125066919D01*
X199049962Y-125074151D01*
X199069368Y-125083330D01*
X199087781Y-125094366D01*
X199105024Y-125107154D01*
X199120930Y-125121570D01*
X199135346Y-125137476D01*
X199148134Y-125154719D01*
X199159170Y-125173132D01*
X199168349Y-125192538D01*
X199175581Y-125212750D01*
X199180797Y-125233574D01*
X199183947Y-125254809D01*
X199185000Y-125276250D01*
X199185000Y-125713750D01*
X199183947Y-125735191D01*
X199180797Y-125756426D01*
X199175581Y-125777250D01*
X199168349Y-125797462D01*
X199159170Y-125816868D01*
X199148134Y-125835281D01*
X199135346Y-125852524D01*
X199120930Y-125868430D01*
X199105024Y-125882846D01*
X199087781Y-125895634D01*
X199069368Y-125906670D01*
X199049962Y-125915849D01*
X199029750Y-125923081D01*
X199008926Y-125928297D01*
X198987691Y-125931447D01*
X198966250Y-125932500D01*
X198453750Y-125932500D01*
X198432309Y-125931447D01*
X198411074Y-125928297D01*
X198390250Y-125923081D01*
X198370038Y-125915849D01*
X198350632Y-125906670D01*
X198332219Y-125895634D01*
X198314976Y-125882846D01*
X198299070Y-125868430D01*
X198284654Y-125852524D01*
X198271866Y-125835281D01*
X198260830Y-125816868D01*
X198251651Y-125797462D01*
X198244419Y-125777250D01*
X198239203Y-125756426D01*
X198236053Y-125735191D01*
X198235000Y-125713750D01*
X198235000Y-125276250D01*
X198236053Y-125254809D01*
X198239203Y-125233574D01*
X198244419Y-125212750D01*
X198251651Y-125192538D01*
X198260830Y-125173132D01*
X198271866Y-125154719D01*
X198284654Y-125137476D01*
X198299070Y-125121570D01*
X198314976Y-125107154D01*
X198332219Y-125094366D01*
X198350632Y-125083330D01*
X198370038Y-125074151D01*
X198390250Y-125066919D01*
X198411074Y-125061703D01*
X198432309Y-125058553D01*
X198453750Y-125057500D01*
X198966250Y-125057500D01*
X198987691Y-125058553D01*
X198987691Y-125058553D01*
G37*
D12*
X198710000Y-125495000D03*
D11*
G36*
X198987691Y-123483553D02*
G01*
X199008926Y-123486703D01*
X199029750Y-123491919D01*
X199049962Y-123499151D01*
X199069368Y-123508330D01*
X199087781Y-123519366D01*
X199105024Y-123532154D01*
X199120930Y-123546570D01*
X199135346Y-123562476D01*
X199148134Y-123579719D01*
X199159170Y-123598132D01*
X199168349Y-123617538D01*
X199175581Y-123637750D01*
X199180797Y-123658574D01*
X199183947Y-123679809D01*
X199185000Y-123701250D01*
X199185000Y-124138750D01*
X199183947Y-124160191D01*
X199180797Y-124181426D01*
X199175581Y-124202250D01*
X199168349Y-124222462D01*
X199159170Y-124241868D01*
X199148134Y-124260281D01*
X199135346Y-124277524D01*
X199120930Y-124293430D01*
X199105024Y-124307846D01*
X199087781Y-124320634D01*
X199069368Y-124331670D01*
X199049962Y-124340849D01*
X199029750Y-124348081D01*
X199008926Y-124353297D01*
X198987691Y-124356447D01*
X198966250Y-124357500D01*
X198453750Y-124357500D01*
X198432309Y-124356447D01*
X198411074Y-124353297D01*
X198390250Y-124348081D01*
X198370038Y-124340849D01*
X198350632Y-124331670D01*
X198332219Y-124320634D01*
X198314976Y-124307846D01*
X198299070Y-124293430D01*
X198284654Y-124277524D01*
X198271866Y-124260281D01*
X198260830Y-124241868D01*
X198251651Y-124222462D01*
X198244419Y-124202250D01*
X198239203Y-124181426D01*
X198236053Y-124160191D01*
X198235000Y-124138750D01*
X198235000Y-123701250D01*
X198236053Y-123679809D01*
X198239203Y-123658574D01*
X198244419Y-123637750D01*
X198251651Y-123617538D01*
X198260830Y-123598132D01*
X198271866Y-123579719D01*
X198284654Y-123562476D01*
X198299070Y-123546570D01*
X198314976Y-123532154D01*
X198332219Y-123519366D01*
X198350632Y-123508330D01*
X198370038Y-123499151D01*
X198390250Y-123491919D01*
X198411074Y-123486703D01*
X198432309Y-123483553D01*
X198453750Y-123482500D01*
X198966250Y-123482500D01*
X198987691Y-123483553D01*
X198987691Y-123483553D01*
G37*
D12*
X198710000Y-123920000D03*
D11*
G36*
X191157691Y-125058553D02*
G01*
X191178926Y-125061703D01*
X191199750Y-125066919D01*
X191219962Y-125074151D01*
X191239368Y-125083330D01*
X191257781Y-125094366D01*
X191275024Y-125107154D01*
X191290930Y-125121570D01*
X191305346Y-125137476D01*
X191318134Y-125154719D01*
X191329170Y-125173132D01*
X191338349Y-125192538D01*
X191345581Y-125212750D01*
X191350797Y-125233574D01*
X191353947Y-125254809D01*
X191355000Y-125276250D01*
X191355000Y-125713750D01*
X191353947Y-125735191D01*
X191350797Y-125756426D01*
X191345581Y-125777250D01*
X191338349Y-125797462D01*
X191329170Y-125816868D01*
X191318134Y-125835281D01*
X191305346Y-125852524D01*
X191290930Y-125868430D01*
X191275024Y-125882846D01*
X191257781Y-125895634D01*
X191239368Y-125906670D01*
X191219962Y-125915849D01*
X191199750Y-125923081D01*
X191178926Y-125928297D01*
X191157691Y-125931447D01*
X191136250Y-125932500D01*
X190623750Y-125932500D01*
X190602309Y-125931447D01*
X190581074Y-125928297D01*
X190560250Y-125923081D01*
X190540038Y-125915849D01*
X190520632Y-125906670D01*
X190502219Y-125895634D01*
X190484976Y-125882846D01*
X190469070Y-125868430D01*
X190454654Y-125852524D01*
X190441866Y-125835281D01*
X190430830Y-125816868D01*
X190421651Y-125797462D01*
X190414419Y-125777250D01*
X190409203Y-125756426D01*
X190406053Y-125735191D01*
X190405000Y-125713750D01*
X190405000Y-125276250D01*
X190406053Y-125254809D01*
X190409203Y-125233574D01*
X190414419Y-125212750D01*
X190421651Y-125192538D01*
X190430830Y-125173132D01*
X190441866Y-125154719D01*
X190454654Y-125137476D01*
X190469070Y-125121570D01*
X190484976Y-125107154D01*
X190502219Y-125094366D01*
X190520632Y-125083330D01*
X190540038Y-125074151D01*
X190560250Y-125066919D01*
X190581074Y-125061703D01*
X190602309Y-125058553D01*
X190623750Y-125057500D01*
X191136250Y-125057500D01*
X191157691Y-125058553D01*
X191157691Y-125058553D01*
G37*
D12*
X190880000Y-125495000D03*
D11*
G36*
X191157691Y-123483553D02*
G01*
X191178926Y-123486703D01*
X191199750Y-123491919D01*
X191219962Y-123499151D01*
X191239368Y-123508330D01*
X191257781Y-123519366D01*
X191275024Y-123532154D01*
X191290930Y-123546570D01*
X191305346Y-123562476D01*
X191318134Y-123579719D01*
X191329170Y-123598132D01*
X191338349Y-123617538D01*
X191345581Y-123637750D01*
X191350797Y-123658574D01*
X191353947Y-123679809D01*
X191355000Y-123701250D01*
X191355000Y-124138750D01*
X191353947Y-124160191D01*
X191350797Y-124181426D01*
X191345581Y-124202250D01*
X191338349Y-124222462D01*
X191329170Y-124241868D01*
X191318134Y-124260281D01*
X191305346Y-124277524D01*
X191290930Y-124293430D01*
X191275024Y-124307846D01*
X191257781Y-124320634D01*
X191239368Y-124331670D01*
X191219962Y-124340849D01*
X191199750Y-124348081D01*
X191178926Y-124353297D01*
X191157691Y-124356447D01*
X191136250Y-124357500D01*
X190623750Y-124357500D01*
X190602309Y-124356447D01*
X190581074Y-124353297D01*
X190560250Y-124348081D01*
X190540038Y-124340849D01*
X190520632Y-124331670D01*
X190502219Y-124320634D01*
X190484976Y-124307846D01*
X190469070Y-124293430D01*
X190454654Y-124277524D01*
X190441866Y-124260281D01*
X190430830Y-124241868D01*
X190421651Y-124222462D01*
X190414419Y-124202250D01*
X190409203Y-124181426D01*
X190406053Y-124160191D01*
X190405000Y-124138750D01*
X190405000Y-123701250D01*
X190406053Y-123679809D01*
X190409203Y-123658574D01*
X190414419Y-123637750D01*
X190421651Y-123617538D01*
X190430830Y-123598132D01*
X190441866Y-123579719D01*
X190454654Y-123562476D01*
X190469070Y-123546570D01*
X190484976Y-123532154D01*
X190502219Y-123519366D01*
X190520632Y-123508330D01*
X190540038Y-123499151D01*
X190560250Y-123491919D01*
X190581074Y-123486703D01*
X190602309Y-123483553D01*
X190623750Y-123482500D01*
X191136250Y-123482500D01*
X191157691Y-123483553D01*
X191157691Y-123483553D01*
G37*
D12*
X190880000Y-123920000D03*
D11*
G36*
X189147691Y-118898553D02*
G01*
X189168926Y-118901703D01*
X189189750Y-118906919D01*
X189209962Y-118914151D01*
X189229368Y-118923330D01*
X189247781Y-118934366D01*
X189265024Y-118947154D01*
X189280930Y-118961570D01*
X189295346Y-118977476D01*
X189308134Y-118994719D01*
X189319170Y-119013132D01*
X189328349Y-119032538D01*
X189335581Y-119052750D01*
X189340797Y-119073574D01*
X189343947Y-119094809D01*
X189345000Y-119116250D01*
X189345000Y-119553750D01*
X189343947Y-119575191D01*
X189340797Y-119596426D01*
X189335581Y-119617250D01*
X189328349Y-119637462D01*
X189319170Y-119656868D01*
X189308134Y-119675281D01*
X189295346Y-119692524D01*
X189280930Y-119708430D01*
X189265024Y-119722846D01*
X189247781Y-119735634D01*
X189229368Y-119746670D01*
X189209962Y-119755849D01*
X189189750Y-119763081D01*
X189168926Y-119768297D01*
X189147691Y-119771447D01*
X189126250Y-119772500D01*
X188613750Y-119772500D01*
X188592309Y-119771447D01*
X188571074Y-119768297D01*
X188550250Y-119763081D01*
X188530038Y-119755849D01*
X188510632Y-119746670D01*
X188492219Y-119735634D01*
X188474976Y-119722846D01*
X188459070Y-119708430D01*
X188444654Y-119692524D01*
X188431866Y-119675281D01*
X188420830Y-119656868D01*
X188411651Y-119637462D01*
X188404419Y-119617250D01*
X188399203Y-119596426D01*
X188396053Y-119575191D01*
X188395000Y-119553750D01*
X188395000Y-119116250D01*
X188396053Y-119094809D01*
X188399203Y-119073574D01*
X188404419Y-119052750D01*
X188411651Y-119032538D01*
X188420830Y-119013132D01*
X188431866Y-118994719D01*
X188444654Y-118977476D01*
X188459070Y-118961570D01*
X188474976Y-118947154D01*
X188492219Y-118934366D01*
X188510632Y-118923330D01*
X188530038Y-118914151D01*
X188550250Y-118906919D01*
X188571074Y-118901703D01*
X188592309Y-118898553D01*
X188613750Y-118897500D01*
X189126250Y-118897500D01*
X189147691Y-118898553D01*
X189147691Y-118898553D01*
G37*
D12*
X188870000Y-119335000D03*
D11*
G36*
X189147691Y-120473553D02*
G01*
X189168926Y-120476703D01*
X189189750Y-120481919D01*
X189209962Y-120489151D01*
X189229368Y-120498330D01*
X189247781Y-120509366D01*
X189265024Y-120522154D01*
X189280930Y-120536570D01*
X189295346Y-120552476D01*
X189308134Y-120569719D01*
X189319170Y-120588132D01*
X189328349Y-120607538D01*
X189335581Y-120627750D01*
X189340797Y-120648574D01*
X189343947Y-120669809D01*
X189345000Y-120691250D01*
X189345000Y-121128750D01*
X189343947Y-121150191D01*
X189340797Y-121171426D01*
X189335581Y-121192250D01*
X189328349Y-121212462D01*
X189319170Y-121231868D01*
X189308134Y-121250281D01*
X189295346Y-121267524D01*
X189280930Y-121283430D01*
X189265024Y-121297846D01*
X189247781Y-121310634D01*
X189229368Y-121321670D01*
X189209962Y-121330849D01*
X189189750Y-121338081D01*
X189168926Y-121343297D01*
X189147691Y-121346447D01*
X189126250Y-121347500D01*
X188613750Y-121347500D01*
X188592309Y-121346447D01*
X188571074Y-121343297D01*
X188550250Y-121338081D01*
X188530038Y-121330849D01*
X188510632Y-121321670D01*
X188492219Y-121310634D01*
X188474976Y-121297846D01*
X188459070Y-121283430D01*
X188444654Y-121267524D01*
X188431866Y-121250281D01*
X188420830Y-121231868D01*
X188411651Y-121212462D01*
X188404419Y-121192250D01*
X188399203Y-121171426D01*
X188396053Y-121150191D01*
X188395000Y-121128750D01*
X188395000Y-120691250D01*
X188396053Y-120669809D01*
X188399203Y-120648574D01*
X188404419Y-120627750D01*
X188411651Y-120607538D01*
X188420830Y-120588132D01*
X188431866Y-120569719D01*
X188444654Y-120552476D01*
X188459070Y-120536570D01*
X188474976Y-120522154D01*
X188492219Y-120509366D01*
X188510632Y-120498330D01*
X188530038Y-120489151D01*
X188550250Y-120481919D01*
X188571074Y-120476703D01*
X188592309Y-120473553D01*
X188613750Y-120472500D01*
X189126250Y-120472500D01*
X189147691Y-120473553D01*
X189147691Y-120473553D01*
G37*
D12*
X188870000Y-120910000D03*
D17*
X190540000Y-99420000D03*
X191490000Y-101420000D03*
X189590000Y-101420000D03*
D11*
G36*
X191786101Y-116106611D02*
G01*
X191793382Y-116107691D01*
X191800521Y-116109479D01*
X191807451Y-116111959D01*
X191814105Y-116115106D01*
X191820418Y-116118890D01*
X191826329Y-116123274D01*
X191831783Y-116128217D01*
X191836726Y-116133671D01*
X191841110Y-116139582D01*
X191844894Y-116145895D01*
X191848041Y-116152549D01*
X191850521Y-116159479D01*
X191852309Y-116166618D01*
X191853389Y-116173899D01*
X191853750Y-116181250D01*
X191853750Y-116331250D01*
X191853389Y-116338601D01*
X191852309Y-116345882D01*
X191850521Y-116353021D01*
X191848041Y-116359951D01*
X191844894Y-116366605D01*
X191841110Y-116372918D01*
X191836726Y-116378829D01*
X191831783Y-116384283D01*
X191826329Y-116389226D01*
X191820418Y-116393610D01*
X191814105Y-116397394D01*
X191807451Y-116400541D01*
X191800521Y-116403021D01*
X191793382Y-116404809D01*
X191786101Y-116405889D01*
X191778750Y-116406250D01*
X190453750Y-116406250D01*
X190446399Y-116405889D01*
X190439118Y-116404809D01*
X190431979Y-116403021D01*
X190425049Y-116400541D01*
X190418395Y-116397394D01*
X190412082Y-116393610D01*
X190406171Y-116389226D01*
X190400717Y-116384283D01*
X190395774Y-116378829D01*
X190391390Y-116372918D01*
X190387606Y-116366605D01*
X190384459Y-116359951D01*
X190381979Y-116353021D01*
X190380191Y-116345882D01*
X190379111Y-116338601D01*
X190378750Y-116331250D01*
X190378750Y-116181250D01*
X190379111Y-116173899D01*
X190380191Y-116166618D01*
X190381979Y-116159479D01*
X190384459Y-116152549D01*
X190387606Y-116145895D01*
X190391390Y-116139582D01*
X190395774Y-116133671D01*
X190400717Y-116128217D01*
X190406171Y-116123274D01*
X190412082Y-116118890D01*
X190418395Y-116115106D01*
X190425049Y-116111959D01*
X190431979Y-116109479D01*
X190439118Y-116107691D01*
X190446399Y-116106611D01*
X190453750Y-116106250D01*
X191778750Y-116106250D01*
X191786101Y-116106611D01*
X191786101Y-116106611D01*
G37*
D18*
X191116250Y-116256250D03*
D11*
G36*
X191786101Y-115606611D02*
G01*
X191793382Y-115607691D01*
X191800521Y-115609479D01*
X191807451Y-115611959D01*
X191814105Y-115615106D01*
X191820418Y-115618890D01*
X191826329Y-115623274D01*
X191831783Y-115628217D01*
X191836726Y-115633671D01*
X191841110Y-115639582D01*
X191844894Y-115645895D01*
X191848041Y-115652549D01*
X191850521Y-115659479D01*
X191852309Y-115666618D01*
X191853389Y-115673899D01*
X191853750Y-115681250D01*
X191853750Y-115831250D01*
X191853389Y-115838601D01*
X191852309Y-115845882D01*
X191850521Y-115853021D01*
X191848041Y-115859951D01*
X191844894Y-115866605D01*
X191841110Y-115872918D01*
X191836726Y-115878829D01*
X191831783Y-115884283D01*
X191826329Y-115889226D01*
X191820418Y-115893610D01*
X191814105Y-115897394D01*
X191807451Y-115900541D01*
X191800521Y-115903021D01*
X191793382Y-115904809D01*
X191786101Y-115905889D01*
X191778750Y-115906250D01*
X190453750Y-115906250D01*
X190446399Y-115905889D01*
X190439118Y-115904809D01*
X190431979Y-115903021D01*
X190425049Y-115900541D01*
X190418395Y-115897394D01*
X190412082Y-115893610D01*
X190406171Y-115889226D01*
X190400717Y-115884283D01*
X190395774Y-115878829D01*
X190391390Y-115872918D01*
X190387606Y-115866605D01*
X190384459Y-115859951D01*
X190381979Y-115853021D01*
X190380191Y-115845882D01*
X190379111Y-115838601D01*
X190378750Y-115831250D01*
X190378750Y-115681250D01*
X190379111Y-115673899D01*
X190380191Y-115666618D01*
X190381979Y-115659479D01*
X190384459Y-115652549D01*
X190387606Y-115645895D01*
X190391390Y-115639582D01*
X190395774Y-115633671D01*
X190400717Y-115628217D01*
X190406171Y-115623274D01*
X190412082Y-115618890D01*
X190418395Y-115615106D01*
X190425049Y-115611959D01*
X190431979Y-115609479D01*
X190439118Y-115607691D01*
X190446399Y-115606611D01*
X190453750Y-115606250D01*
X191778750Y-115606250D01*
X191786101Y-115606611D01*
X191786101Y-115606611D01*
G37*
D18*
X191116250Y-115756250D03*
D11*
G36*
X191786101Y-115106611D02*
G01*
X191793382Y-115107691D01*
X191800521Y-115109479D01*
X191807451Y-115111959D01*
X191814105Y-115115106D01*
X191820418Y-115118890D01*
X191826329Y-115123274D01*
X191831783Y-115128217D01*
X191836726Y-115133671D01*
X191841110Y-115139582D01*
X191844894Y-115145895D01*
X191848041Y-115152549D01*
X191850521Y-115159479D01*
X191852309Y-115166618D01*
X191853389Y-115173899D01*
X191853750Y-115181250D01*
X191853750Y-115331250D01*
X191853389Y-115338601D01*
X191852309Y-115345882D01*
X191850521Y-115353021D01*
X191848041Y-115359951D01*
X191844894Y-115366605D01*
X191841110Y-115372918D01*
X191836726Y-115378829D01*
X191831783Y-115384283D01*
X191826329Y-115389226D01*
X191820418Y-115393610D01*
X191814105Y-115397394D01*
X191807451Y-115400541D01*
X191800521Y-115403021D01*
X191793382Y-115404809D01*
X191786101Y-115405889D01*
X191778750Y-115406250D01*
X190453750Y-115406250D01*
X190446399Y-115405889D01*
X190439118Y-115404809D01*
X190431979Y-115403021D01*
X190425049Y-115400541D01*
X190418395Y-115397394D01*
X190412082Y-115393610D01*
X190406171Y-115389226D01*
X190400717Y-115384283D01*
X190395774Y-115378829D01*
X190391390Y-115372918D01*
X190387606Y-115366605D01*
X190384459Y-115359951D01*
X190381979Y-115353021D01*
X190380191Y-115345882D01*
X190379111Y-115338601D01*
X190378750Y-115331250D01*
X190378750Y-115181250D01*
X190379111Y-115173899D01*
X190380191Y-115166618D01*
X190381979Y-115159479D01*
X190384459Y-115152549D01*
X190387606Y-115145895D01*
X190391390Y-115139582D01*
X190395774Y-115133671D01*
X190400717Y-115128217D01*
X190406171Y-115123274D01*
X190412082Y-115118890D01*
X190418395Y-115115106D01*
X190425049Y-115111959D01*
X190431979Y-115109479D01*
X190439118Y-115107691D01*
X190446399Y-115106611D01*
X190453750Y-115106250D01*
X191778750Y-115106250D01*
X191786101Y-115106611D01*
X191786101Y-115106611D01*
G37*
D18*
X191116250Y-115256250D03*
D11*
G36*
X191786101Y-114606611D02*
G01*
X191793382Y-114607691D01*
X191800521Y-114609479D01*
X191807451Y-114611959D01*
X191814105Y-114615106D01*
X191820418Y-114618890D01*
X191826329Y-114623274D01*
X191831783Y-114628217D01*
X191836726Y-114633671D01*
X191841110Y-114639582D01*
X191844894Y-114645895D01*
X191848041Y-114652549D01*
X191850521Y-114659479D01*
X191852309Y-114666618D01*
X191853389Y-114673899D01*
X191853750Y-114681250D01*
X191853750Y-114831250D01*
X191853389Y-114838601D01*
X191852309Y-114845882D01*
X191850521Y-114853021D01*
X191848041Y-114859951D01*
X191844894Y-114866605D01*
X191841110Y-114872918D01*
X191836726Y-114878829D01*
X191831783Y-114884283D01*
X191826329Y-114889226D01*
X191820418Y-114893610D01*
X191814105Y-114897394D01*
X191807451Y-114900541D01*
X191800521Y-114903021D01*
X191793382Y-114904809D01*
X191786101Y-114905889D01*
X191778750Y-114906250D01*
X190453750Y-114906250D01*
X190446399Y-114905889D01*
X190439118Y-114904809D01*
X190431979Y-114903021D01*
X190425049Y-114900541D01*
X190418395Y-114897394D01*
X190412082Y-114893610D01*
X190406171Y-114889226D01*
X190400717Y-114884283D01*
X190395774Y-114878829D01*
X190391390Y-114872918D01*
X190387606Y-114866605D01*
X190384459Y-114859951D01*
X190381979Y-114853021D01*
X190380191Y-114845882D01*
X190379111Y-114838601D01*
X190378750Y-114831250D01*
X190378750Y-114681250D01*
X190379111Y-114673899D01*
X190380191Y-114666618D01*
X190381979Y-114659479D01*
X190384459Y-114652549D01*
X190387606Y-114645895D01*
X190391390Y-114639582D01*
X190395774Y-114633671D01*
X190400717Y-114628217D01*
X190406171Y-114623274D01*
X190412082Y-114618890D01*
X190418395Y-114615106D01*
X190425049Y-114611959D01*
X190431979Y-114609479D01*
X190439118Y-114607691D01*
X190446399Y-114606611D01*
X190453750Y-114606250D01*
X191778750Y-114606250D01*
X191786101Y-114606611D01*
X191786101Y-114606611D01*
G37*
D18*
X191116250Y-114756250D03*
D11*
G36*
X191786101Y-114106611D02*
G01*
X191793382Y-114107691D01*
X191800521Y-114109479D01*
X191807451Y-114111959D01*
X191814105Y-114115106D01*
X191820418Y-114118890D01*
X191826329Y-114123274D01*
X191831783Y-114128217D01*
X191836726Y-114133671D01*
X191841110Y-114139582D01*
X191844894Y-114145895D01*
X191848041Y-114152549D01*
X191850521Y-114159479D01*
X191852309Y-114166618D01*
X191853389Y-114173899D01*
X191853750Y-114181250D01*
X191853750Y-114331250D01*
X191853389Y-114338601D01*
X191852309Y-114345882D01*
X191850521Y-114353021D01*
X191848041Y-114359951D01*
X191844894Y-114366605D01*
X191841110Y-114372918D01*
X191836726Y-114378829D01*
X191831783Y-114384283D01*
X191826329Y-114389226D01*
X191820418Y-114393610D01*
X191814105Y-114397394D01*
X191807451Y-114400541D01*
X191800521Y-114403021D01*
X191793382Y-114404809D01*
X191786101Y-114405889D01*
X191778750Y-114406250D01*
X190453750Y-114406250D01*
X190446399Y-114405889D01*
X190439118Y-114404809D01*
X190431979Y-114403021D01*
X190425049Y-114400541D01*
X190418395Y-114397394D01*
X190412082Y-114393610D01*
X190406171Y-114389226D01*
X190400717Y-114384283D01*
X190395774Y-114378829D01*
X190391390Y-114372918D01*
X190387606Y-114366605D01*
X190384459Y-114359951D01*
X190381979Y-114353021D01*
X190380191Y-114345882D01*
X190379111Y-114338601D01*
X190378750Y-114331250D01*
X190378750Y-114181250D01*
X190379111Y-114173899D01*
X190380191Y-114166618D01*
X190381979Y-114159479D01*
X190384459Y-114152549D01*
X190387606Y-114145895D01*
X190391390Y-114139582D01*
X190395774Y-114133671D01*
X190400717Y-114128217D01*
X190406171Y-114123274D01*
X190412082Y-114118890D01*
X190418395Y-114115106D01*
X190425049Y-114111959D01*
X190431979Y-114109479D01*
X190439118Y-114107691D01*
X190446399Y-114106611D01*
X190453750Y-114106250D01*
X191778750Y-114106250D01*
X191786101Y-114106611D01*
X191786101Y-114106611D01*
G37*
D18*
X191116250Y-114256250D03*
D11*
G36*
X191786101Y-113606611D02*
G01*
X191793382Y-113607691D01*
X191800521Y-113609479D01*
X191807451Y-113611959D01*
X191814105Y-113615106D01*
X191820418Y-113618890D01*
X191826329Y-113623274D01*
X191831783Y-113628217D01*
X191836726Y-113633671D01*
X191841110Y-113639582D01*
X191844894Y-113645895D01*
X191848041Y-113652549D01*
X191850521Y-113659479D01*
X191852309Y-113666618D01*
X191853389Y-113673899D01*
X191853750Y-113681250D01*
X191853750Y-113831250D01*
X191853389Y-113838601D01*
X191852309Y-113845882D01*
X191850521Y-113853021D01*
X191848041Y-113859951D01*
X191844894Y-113866605D01*
X191841110Y-113872918D01*
X191836726Y-113878829D01*
X191831783Y-113884283D01*
X191826329Y-113889226D01*
X191820418Y-113893610D01*
X191814105Y-113897394D01*
X191807451Y-113900541D01*
X191800521Y-113903021D01*
X191793382Y-113904809D01*
X191786101Y-113905889D01*
X191778750Y-113906250D01*
X190453750Y-113906250D01*
X190446399Y-113905889D01*
X190439118Y-113904809D01*
X190431979Y-113903021D01*
X190425049Y-113900541D01*
X190418395Y-113897394D01*
X190412082Y-113893610D01*
X190406171Y-113889226D01*
X190400717Y-113884283D01*
X190395774Y-113878829D01*
X190391390Y-113872918D01*
X190387606Y-113866605D01*
X190384459Y-113859951D01*
X190381979Y-113853021D01*
X190380191Y-113845882D01*
X190379111Y-113838601D01*
X190378750Y-113831250D01*
X190378750Y-113681250D01*
X190379111Y-113673899D01*
X190380191Y-113666618D01*
X190381979Y-113659479D01*
X190384459Y-113652549D01*
X190387606Y-113645895D01*
X190391390Y-113639582D01*
X190395774Y-113633671D01*
X190400717Y-113628217D01*
X190406171Y-113623274D01*
X190412082Y-113618890D01*
X190418395Y-113615106D01*
X190425049Y-113611959D01*
X190431979Y-113609479D01*
X190439118Y-113607691D01*
X190446399Y-113606611D01*
X190453750Y-113606250D01*
X191778750Y-113606250D01*
X191786101Y-113606611D01*
X191786101Y-113606611D01*
G37*
D18*
X191116250Y-113756250D03*
D11*
G36*
X191786101Y-113106611D02*
G01*
X191793382Y-113107691D01*
X191800521Y-113109479D01*
X191807451Y-113111959D01*
X191814105Y-113115106D01*
X191820418Y-113118890D01*
X191826329Y-113123274D01*
X191831783Y-113128217D01*
X191836726Y-113133671D01*
X191841110Y-113139582D01*
X191844894Y-113145895D01*
X191848041Y-113152549D01*
X191850521Y-113159479D01*
X191852309Y-113166618D01*
X191853389Y-113173899D01*
X191853750Y-113181250D01*
X191853750Y-113331250D01*
X191853389Y-113338601D01*
X191852309Y-113345882D01*
X191850521Y-113353021D01*
X191848041Y-113359951D01*
X191844894Y-113366605D01*
X191841110Y-113372918D01*
X191836726Y-113378829D01*
X191831783Y-113384283D01*
X191826329Y-113389226D01*
X191820418Y-113393610D01*
X191814105Y-113397394D01*
X191807451Y-113400541D01*
X191800521Y-113403021D01*
X191793382Y-113404809D01*
X191786101Y-113405889D01*
X191778750Y-113406250D01*
X190453750Y-113406250D01*
X190446399Y-113405889D01*
X190439118Y-113404809D01*
X190431979Y-113403021D01*
X190425049Y-113400541D01*
X190418395Y-113397394D01*
X190412082Y-113393610D01*
X190406171Y-113389226D01*
X190400717Y-113384283D01*
X190395774Y-113378829D01*
X190391390Y-113372918D01*
X190387606Y-113366605D01*
X190384459Y-113359951D01*
X190381979Y-113353021D01*
X190380191Y-113345882D01*
X190379111Y-113338601D01*
X190378750Y-113331250D01*
X190378750Y-113181250D01*
X190379111Y-113173899D01*
X190380191Y-113166618D01*
X190381979Y-113159479D01*
X190384459Y-113152549D01*
X190387606Y-113145895D01*
X190391390Y-113139582D01*
X190395774Y-113133671D01*
X190400717Y-113128217D01*
X190406171Y-113123274D01*
X190412082Y-113118890D01*
X190418395Y-113115106D01*
X190425049Y-113111959D01*
X190431979Y-113109479D01*
X190439118Y-113107691D01*
X190446399Y-113106611D01*
X190453750Y-113106250D01*
X191778750Y-113106250D01*
X191786101Y-113106611D01*
X191786101Y-113106611D01*
G37*
D18*
X191116250Y-113256250D03*
D11*
G36*
X191786101Y-112606611D02*
G01*
X191793382Y-112607691D01*
X191800521Y-112609479D01*
X191807451Y-112611959D01*
X191814105Y-112615106D01*
X191820418Y-112618890D01*
X191826329Y-112623274D01*
X191831783Y-112628217D01*
X191836726Y-112633671D01*
X191841110Y-112639582D01*
X191844894Y-112645895D01*
X191848041Y-112652549D01*
X191850521Y-112659479D01*
X191852309Y-112666618D01*
X191853389Y-112673899D01*
X191853750Y-112681250D01*
X191853750Y-112831250D01*
X191853389Y-112838601D01*
X191852309Y-112845882D01*
X191850521Y-112853021D01*
X191848041Y-112859951D01*
X191844894Y-112866605D01*
X191841110Y-112872918D01*
X191836726Y-112878829D01*
X191831783Y-112884283D01*
X191826329Y-112889226D01*
X191820418Y-112893610D01*
X191814105Y-112897394D01*
X191807451Y-112900541D01*
X191800521Y-112903021D01*
X191793382Y-112904809D01*
X191786101Y-112905889D01*
X191778750Y-112906250D01*
X190453750Y-112906250D01*
X190446399Y-112905889D01*
X190439118Y-112904809D01*
X190431979Y-112903021D01*
X190425049Y-112900541D01*
X190418395Y-112897394D01*
X190412082Y-112893610D01*
X190406171Y-112889226D01*
X190400717Y-112884283D01*
X190395774Y-112878829D01*
X190391390Y-112872918D01*
X190387606Y-112866605D01*
X190384459Y-112859951D01*
X190381979Y-112853021D01*
X190380191Y-112845882D01*
X190379111Y-112838601D01*
X190378750Y-112831250D01*
X190378750Y-112681250D01*
X190379111Y-112673899D01*
X190380191Y-112666618D01*
X190381979Y-112659479D01*
X190384459Y-112652549D01*
X190387606Y-112645895D01*
X190391390Y-112639582D01*
X190395774Y-112633671D01*
X190400717Y-112628217D01*
X190406171Y-112623274D01*
X190412082Y-112618890D01*
X190418395Y-112615106D01*
X190425049Y-112611959D01*
X190431979Y-112609479D01*
X190439118Y-112607691D01*
X190446399Y-112606611D01*
X190453750Y-112606250D01*
X191778750Y-112606250D01*
X191786101Y-112606611D01*
X191786101Y-112606611D01*
G37*
D18*
X191116250Y-112756250D03*
D11*
G36*
X191786101Y-112106611D02*
G01*
X191793382Y-112107691D01*
X191800521Y-112109479D01*
X191807451Y-112111959D01*
X191814105Y-112115106D01*
X191820418Y-112118890D01*
X191826329Y-112123274D01*
X191831783Y-112128217D01*
X191836726Y-112133671D01*
X191841110Y-112139582D01*
X191844894Y-112145895D01*
X191848041Y-112152549D01*
X191850521Y-112159479D01*
X191852309Y-112166618D01*
X191853389Y-112173899D01*
X191853750Y-112181250D01*
X191853750Y-112331250D01*
X191853389Y-112338601D01*
X191852309Y-112345882D01*
X191850521Y-112353021D01*
X191848041Y-112359951D01*
X191844894Y-112366605D01*
X191841110Y-112372918D01*
X191836726Y-112378829D01*
X191831783Y-112384283D01*
X191826329Y-112389226D01*
X191820418Y-112393610D01*
X191814105Y-112397394D01*
X191807451Y-112400541D01*
X191800521Y-112403021D01*
X191793382Y-112404809D01*
X191786101Y-112405889D01*
X191778750Y-112406250D01*
X190453750Y-112406250D01*
X190446399Y-112405889D01*
X190439118Y-112404809D01*
X190431979Y-112403021D01*
X190425049Y-112400541D01*
X190418395Y-112397394D01*
X190412082Y-112393610D01*
X190406171Y-112389226D01*
X190400717Y-112384283D01*
X190395774Y-112378829D01*
X190391390Y-112372918D01*
X190387606Y-112366605D01*
X190384459Y-112359951D01*
X190381979Y-112353021D01*
X190380191Y-112345882D01*
X190379111Y-112338601D01*
X190378750Y-112331250D01*
X190378750Y-112181250D01*
X190379111Y-112173899D01*
X190380191Y-112166618D01*
X190381979Y-112159479D01*
X190384459Y-112152549D01*
X190387606Y-112145895D01*
X190391390Y-112139582D01*
X190395774Y-112133671D01*
X190400717Y-112128217D01*
X190406171Y-112123274D01*
X190412082Y-112118890D01*
X190418395Y-112115106D01*
X190425049Y-112111959D01*
X190431979Y-112109479D01*
X190439118Y-112107691D01*
X190446399Y-112106611D01*
X190453750Y-112106250D01*
X191778750Y-112106250D01*
X191786101Y-112106611D01*
X191786101Y-112106611D01*
G37*
D18*
X191116250Y-112256250D03*
D11*
G36*
X191786101Y-111606611D02*
G01*
X191793382Y-111607691D01*
X191800521Y-111609479D01*
X191807451Y-111611959D01*
X191814105Y-111615106D01*
X191820418Y-111618890D01*
X191826329Y-111623274D01*
X191831783Y-111628217D01*
X191836726Y-111633671D01*
X191841110Y-111639582D01*
X191844894Y-111645895D01*
X191848041Y-111652549D01*
X191850521Y-111659479D01*
X191852309Y-111666618D01*
X191853389Y-111673899D01*
X191853750Y-111681250D01*
X191853750Y-111831250D01*
X191853389Y-111838601D01*
X191852309Y-111845882D01*
X191850521Y-111853021D01*
X191848041Y-111859951D01*
X191844894Y-111866605D01*
X191841110Y-111872918D01*
X191836726Y-111878829D01*
X191831783Y-111884283D01*
X191826329Y-111889226D01*
X191820418Y-111893610D01*
X191814105Y-111897394D01*
X191807451Y-111900541D01*
X191800521Y-111903021D01*
X191793382Y-111904809D01*
X191786101Y-111905889D01*
X191778750Y-111906250D01*
X190453750Y-111906250D01*
X190446399Y-111905889D01*
X190439118Y-111904809D01*
X190431979Y-111903021D01*
X190425049Y-111900541D01*
X190418395Y-111897394D01*
X190412082Y-111893610D01*
X190406171Y-111889226D01*
X190400717Y-111884283D01*
X190395774Y-111878829D01*
X190391390Y-111872918D01*
X190387606Y-111866605D01*
X190384459Y-111859951D01*
X190381979Y-111853021D01*
X190380191Y-111845882D01*
X190379111Y-111838601D01*
X190378750Y-111831250D01*
X190378750Y-111681250D01*
X190379111Y-111673899D01*
X190380191Y-111666618D01*
X190381979Y-111659479D01*
X190384459Y-111652549D01*
X190387606Y-111645895D01*
X190391390Y-111639582D01*
X190395774Y-111633671D01*
X190400717Y-111628217D01*
X190406171Y-111623274D01*
X190412082Y-111618890D01*
X190418395Y-111615106D01*
X190425049Y-111611959D01*
X190431979Y-111609479D01*
X190439118Y-111607691D01*
X190446399Y-111606611D01*
X190453750Y-111606250D01*
X191778750Y-111606250D01*
X191786101Y-111606611D01*
X191786101Y-111606611D01*
G37*
D18*
X191116250Y-111756250D03*
D11*
G36*
X191786101Y-111106611D02*
G01*
X191793382Y-111107691D01*
X191800521Y-111109479D01*
X191807451Y-111111959D01*
X191814105Y-111115106D01*
X191820418Y-111118890D01*
X191826329Y-111123274D01*
X191831783Y-111128217D01*
X191836726Y-111133671D01*
X191841110Y-111139582D01*
X191844894Y-111145895D01*
X191848041Y-111152549D01*
X191850521Y-111159479D01*
X191852309Y-111166618D01*
X191853389Y-111173899D01*
X191853750Y-111181250D01*
X191853750Y-111331250D01*
X191853389Y-111338601D01*
X191852309Y-111345882D01*
X191850521Y-111353021D01*
X191848041Y-111359951D01*
X191844894Y-111366605D01*
X191841110Y-111372918D01*
X191836726Y-111378829D01*
X191831783Y-111384283D01*
X191826329Y-111389226D01*
X191820418Y-111393610D01*
X191814105Y-111397394D01*
X191807451Y-111400541D01*
X191800521Y-111403021D01*
X191793382Y-111404809D01*
X191786101Y-111405889D01*
X191778750Y-111406250D01*
X190453750Y-111406250D01*
X190446399Y-111405889D01*
X190439118Y-111404809D01*
X190431979Y-111403021D01*
X190425049Y-111400541D01*
X190418395Y-111397394D01*
X190412082Y-111393610D01*
X190406171Y-111389226D01*
X190400717Y-111384283D01*
X190395774Y-111378829D01*
X190391390Y-111372918D01*
X190387606Y-111366605D01*
X190384459Y-111359951D01*
X190381979Y-111353021D01*
X190380191Y-111345882D01*
X190379111Y-111338601D01*
X190378750Y-111331250D01*
X190378750Y-111181250D01*
X190379111Y-111173899D01*
X190380191Y-111166618D01*
X190381979Y-111159479D01*
X190384459Y-111152549D01*
X190387606Y-111145895D01*
X190391390Y-111139582D01*
X190395774Y-111133671D01*
X190400717Y-111128217D01*
X190406171Y-111123274D01*
X190412082Y-111118890D01*
X190418395Y-111115106D01*
X190425049Y-111111959D01*
X190431979Y-111109479D01*
X190439118Y-111107691D01*
X190446399Y-111106611D01*
X190453750Y-111106250D01*
X191778750Y-111106250D01*
X191786101Y-111106611D01*
X191786101Y-111106611D01*
G37*
D18*
X191116250Y-111256250D03*
D11*
G36*
X191786101Y-110606611D02*
G01*
X191793382Y-110607691D01*
X191800521Y-110609479D01*
X191807451Y-110611959D01*
X191814105Y-110615106D01*
X191820418Y-110618890D01*
X191826329Y-110623274D01*
X191831783Y-110628217D01*
X191836726Y-110633671D01*
X191841110Y-110639582D01*
X191844894Y-110645895D01*
X191848041Y-110652549D01*
X191850521Y-110659479D01*
X191852309Y-110666618D01*
X191853389Y-110673899D01*
X191853750Y-110681250D01*
X191853750Y-110831250D01*
X191853389Y-110838601D01*
X191852309Y-110845882D01*
X191850521Y-110853021D01*
X191848041Y-110859951D01*
X191844894Y-110866605D01*
X191841110Y-110872918D01*
X191836726Y-110878829D01*
X191831783Y-110884283D01*
X191826329Y-110889226D01*
X191820418Y-110893610D01*
X191814105Y-110897394D01*
X191807451Y-110900541D01*
X191800521Y-110903021D01*
X191793382Y-110904809D01*
X191786101Y-110905889D01*
X191778750Y-110906250D01*
X190453750Y-110906250D01*
X190446399Y-110905889D01*
X190439118Y-110904809D01*
X190431979Y-110903021D01*
X190425049Y-110900541D01*
X190418395Y-110897394D01*
X190412082Y-110893610D01*
X190406171Y-110889226D01*
X190400717Y-110884283D01*
X190395774Y-110878829D01*
X190391390Y-110872918D01*
X190387606Y-110866605D01*
X190384459Y-110859951D01*
X190381979Y-110853021D01*
X190380191Y-110845882D01*
X190379111Y-110838601D01*
X190378750Y-110831250D01*
X190378750Y-110681250D01*
X190379111Y-110673899D01*
X190380191Y-110666618D01*
X190381979Y-110659479D01*
X190384459Y-110652549D01*
X190387606Y-110645895D01*
X190391390Y-110639582D01*
X190395774Y-110633671D01*
X190400717Y-110628217D01*
X190406171Y-110623274D01*
X190412082Y-110618890D01*
X190418395Y-110615106D01*
X190425049Y-110611959D01*
X190431979Y-110609479D01*
X190439118Y-110607691D01*
X190446399Y-110606611D01*
X190453750Y-110606250D01*
X191778750Y-110606250D01*
X191786101Y-110606611D01*
X191786101Y-110606611D01*
G37*
D18*
X191116250Y-110756250D03*
D11*
G36*
X192611101Y-108606611D02*
G01*
X192618382Y-108607691D01*
X192625521Y-108609479D01*
X192632451Y-108611959D01*
X192639105Y-108615106D01*
X192645418Y-108618890D01*
X192651329Y-108623274D01*
X192656783Y-108628217D01*
X192661726Y-108633671D01*
X192666110Y-108639582D01*
X192669894Y-108645895D01*
X192673041Y-108652549D01*
X192675521Y-108659479D01*
X192677309Y-108666618D01*
X192678389Y-108673899D01*
X192678750Y-108681250D01*
X192678750Y-110006250D01*
X192678389Y-110013601D01*
X192677309Y-110020882D01*
X192675521Y-110028021D01*
X192673041Y-110034951D01*
X192669894Y-110041605D01*
X192666110Y-110047918D01*
X192661726Y-110053829D01*
X192656783Y-110059283D01*
X192651329Y-110064226D01*
X192645418Y-110068610D01*
X192639105Y-110072394D01*
X192632451Y-110075541D01*
X192625521Y-110078021D01*
X192618382Y-110079809D01*
X192611101Y-110080889D01*
X192603750Y-110081250D01*
X192453750Y-110081250D01*
X192446399Y-110080889D01*
X192439118Y-110079809D01*
X192431979Y-110078021D01*
X192425049Y-110075541D01*
X192418395Y-110072394D01*
X192412082Y-110068610D01*
X192406171Y-110064226D01*
X192400717Y-110059283D01*
X192395774Y-110053829D01*
X192391390Y-110047918D01*
X192387606Y-110041605D01*
X192384459Y-110034951D01*
X192381979Y-110028021D01*
X192380191Y-110020882D01*
X192379111Y-110013601D01*
X192378750Y-110006250D01*
X192378750Y-108681250D01*
X192379111Y-108673899D01*
X192380191Y-108666618D01*
X192381979Y-108659479D01*
X192384459Y-108652549D01*
X192387606Y-108645895D01*
X192391390Y-108639582D01*
X192395774Y-108633671D01*
X192400717Y-108628217D01*
X192406171Y-108623274D01*
X192412082Y-108618890D01*
X192418395Y-108615106D01*
X192425049Y-108611959D01*
X192431979Y-108609479D01*
X192439118Y-108607691D01*
X192446399Y-108606611D01*
X192453750Y-108606250D01*
X192603750Y-108606250D01*
X192611101Y-108606611D01*
X192611101Y-108606611D01*
G37*
D18*
X192528750Y-109343750D03*
D11*
G36*
X193111101Y-108606611D02*
G01*
X193118382Y-108607691D01*
X193125521Y-108609479D01*
X193132451Y-108611959D01*
X193139105Y-108615106D01*
X193145418Y-108618890D01*
X193151329Y-108623274D01*
X193156783Y-108628217D01*
X193161726Y-108633671D01*
X193166110Y-108639582D01*
X193169894Y-108645895D01*
X193173041Y-108652549D01*
X193175521Y-108659479D01*
X193177309Y-108666618D01*
X193178389Y-108673899D01*
X193178750Y-108681250D01*
X193178750Y-110006250D01*
X193178389Y-110013601D01*
X193177309Y-110020882D01*
X193175521Y-110028021D01*
X193173041Y-110034951D01*
X193169894Y-110041605D01*
X193166110Y-110047918D01*
X193161726Y-110053829D01*
X193156783Y-110059283D01*
X193151329Y-110064226D01*
X193145418Y-110068610D01*
X193139105Y-110072394D01*
X193132451Y-110075541D01*
X193125521Y-110078021D01*
X193118382Y-110079809D01*
X193111101Y-110080889D01*
X193103750Y-110081250D01*
X192953750Y-110081250D01*
X192946399Y-110080889D01*
X192939118Y-110079809D01*
X192931979Y-110078021D01*
X192925049Y-110075541D01*
X192918395Y-110072394D01*
X192912082Y-110068610D01*
X192906171Y-110064226D01*
X192900717Y-110059283D01*
X192895774Y-110053829D01*
X192891390Y-110047918D01*
X192887606Y-110041605D01*
X192884459Y-110034951D01*
X192881979Y-110028021D01*
X192880191Y-110020882D01*
X192879111Y-110013601D01*
X192878750Y-110006250D01*
X192878750Y-108681250D01*
X192879111Y-108673899D01*
X192880191Y-108666618D01*
X192881979Y-108659479D01*
X192884459Y-108652549D01*
X192887606Y-108645895D01*
X192891390Y-108639582D01*
X192895774Y-108633671D01*
X192900717Y-108628217D01*
X192906171Y-108623274D01*
X192912082Y-108618890D01*
X192918395Y-108615106D01*
X192925049Y-108611959D01*
X192931979Y-108609479D01*
X192939118Y-108607691D01*
X192946399Y-108606611D01*
X192953750Y-108606250D01*
X193103750Y-108606250D01*
X193111101Y-108606611D01*
X193111101Y-108606611D01*
G37*
D18*
X193028750Y-109343750D03*
D11*
G36*
X193611101Y-108606611D02*
G01*
X193618382Y-108607691D01*
X193625521Y-108609479D01*
X193632451Y-108611959D01*
X193639105Y-108615106D01*
X193645418Y-108618890D01*
X193651329Y-108623274D01*
X193656783Y-108628217D01*
X193661726Y-108633671D01*
X193666110Y-108639582D01*
X193669894Y-108645895D01*
X193673041Y-108652549D01*
X193675521Y-108659479D01*
X193677309Y-108666618D01*
X193678389Y-108673899D01*
X193678750Y-108681250D01*
X193678750Y-110006250D01*
X193678389Y-110013601D01*
X193677309Y-110020882D01*
X193675521Y-110028021D01*
X193673041Y-110034951D01*
X193669894Y-110041605D01*
X193666110Y-110047918D01*
X193661726Y-110053829D01*
X193656783Y-110059283D01*
X193651329Y-110064226D01*
X193645418Y-110068610D01*
X193639105Y-110072394D01*
X193632451Y-110075541D01*
X193625521Y-110078021D01*
X193618382Y-110079809D01*
X193611101Y-110080889D01*
X193603750Y-110081250D01*
X193453750Y-110081250D01*
X193446399Y-110080889D01*
X193439118Y-110079809D01*
X193431979Y-110078021D01*
X193425049Y-110075541D01*
X193418395Y-110072394D01*
X193412082Y-110068610D01*
X193406171Y-110064226D01*
X193400717Y-110059283D01*
X193395774Y-110053829D01*
X193391390Y-110047918D01*
X193387606Y-110041605D01*
X193384459Y-110034951D01*
X193381979Y-110028021D01*
X193380191Y-110020882D01*
X193379111Y-110013601D01*
X193378750Y-110006250D01*
X193378750Y-108681250D01*
X193379111Y-108673899D01*
X193380191Y-108666618D01*
X193381979Y-108659479D01*
X193384459Y-108652549D01*
X193387606Y-108645895D01*
X193391390Y-108639582D01*
X193395774Y-108633671D01*
X193400717Y-108628217D01*
X193406171Y-108623274D01*
X193412082Y-108618890D01*
X193418395Y-108615106D01*
X193425049Y-108611959D01*
X193431979Y-108609479D01*
X193439118Y-108607691D01*
X193446399Y-108606611D01*
X193453750Y-108606250D01*
X193603750Y-108606250D01*
X193611101Y-108606611D01*
X193611101Y-108606611D01*
G37*
D18*
X193528750Y-109343750D03*
D11*
G36*
X194111101Y-108606611D02*
G01*
X194118382Y-108607691D01*
X194125521Y-108609479D01*
X194132451Y-108611959D01*
X194139105Y-108615106D01*
X194145418Y-108618890D01*
X194151329Y-108623274D01*
X194156783Y-108628217D01*
X194161726Y-108633671D01*
X194166110Y-108639582D01*
X194169894Y-108645895D01*
X194173041Y-108652549D01*
X194175521Y-108659479D01*
X194177309Y-108666618D01*
X194178389Y-108673899D01*
X194178750Y-108681250D01*
X194178750Y-110006250D01*
X194178389Y-110013601D01*
X194177309Y-110020882D01*
X194175521Y-110028021D01*
X194173041Y-110034951D01*
X194169894Y-110041605D01*
X194166110Y-110047918D01*
X194161726Y-110053829D01*
X194156783Y-110059283D01*
X194151329Y-110064226D01*
X194145418Y-110068610D01*
X194139105Y-110072394D01*
X194132451Y-110075541D01*
X194125521Y-110078021D01*
X194118382Y-110079809D01*
X194111101Y-110080889D01*
X194103750Y-110081250D01*
X193953750Y-110081250D01*
X193946399Y-110080889D01*
X193939118Y-110079809D01*
X193931979Y-110078021D01*
X193925049Y-110075541D01*
X193918395Y-110072394D01*
X193912082Y-110068610D01*
X193906171Y-110064226D01*
X193900717Y-110059283D01*
X193895774Y-110053829D01*
X193891390Y-110047918D01*
X193887606Y-110041605D01*
X193884459Y-110034951D01*
X193881979Y-110028021D01*
X193880191Y-110020882D01*
X193879111Y-110013601D01*
X193878750Y-110006250D01*
X193878750Y-108681250D01*
X193879111Y-108673899D01*
X193880191Y-108666618D01*
X193881979Y-108659479D01*
X193884459Y-108652549D01*
X193887606Y-108645895D01*
X193891390Y-108639582D01*
X193895774Y-108633671D01*
X193900717Y-108628217D01*
X193906171Y-108623274D01*
X193912082Y-108618890D01*
X193918395Y-108615106D01*
X193925049Y-108611959D01*
X193931979Y-108609479D01*
X193939118Y-108607691D01*
X193946399Y-108606611D01*
X193953750Y-108606250D01*
X194103750Y-108606250D01*
X194111101Y-108606611D01*
X194111101Y-108606611D01*
G37*
D18*
X194028750Y-109343750D03*
D11*
G36*
X194611101Y-108606611D02*
G01*
X194618382Y-108607691D01*
X194625521Y-108609479D01*
X194632451Y-108611959D01*
X194639105Y-108615106D01*
X194645418Y-108618890D01*
X194651329Y-108623274D01*
X194656783Y-108628217D01*
X194661726Y-108633671D01*
X194666110Y-108639582D01*
X194669894Y-108645895D01*
X194673041Y-108652549D01*
X194675521Y-108659479D01*
X194677309Y-108666618D01*
X194678389Y-108673899D01*
X194678750Y-108681250D01*
X194678750Y-110006250D01*
X194678389Y-110013601D01*
X194677309Y-110020882D01*
X194675521Y-110028021D01*
X194673041Y-110034951D01*
X194669894Y-110041605D01*
X194666110Y-110047918D01*
X194661726Y-110053829D01*
X194656783Y-110059283D01*
X194651329Y-110064226D01*
X194645418Y-110068610D01*
X194639105Y-110072394D01*
X194632451Y-110075541D01*
X194625521Y-110078021D01*
X194618382Y-110079809D01*
X194611101Y-110080889D01*
X194603750Y-110081250D01*
X194453750Y-110081250D01*
X194446399Y-110080889D01*
X194439118Y-110079809D01*
X194431979Y-110078021D01*
X194425049Y-110075541D01*
X194418395Y-110072394D01*
X194412082Y-110068610D01*
X194406171Y-110064226D01*
X194400717Y-110059283D01*
X194395774Y-110053829D01*
X194391390Y-110047918D01*
X194387606Y-110041605D01*
X194384459Y-110034951D01*
X194381979Y-110028021D01*
X194380191Y-110020882D01*
X194379111Y-110013601D01*
X194378750Y-110006250D01*
X194378750Y-108681250D01*
X194379111Y-108673899D01*
X194380191Y-108666618D01*
X194381979Y-108659479D01*
X194384459Y-108652549D01*
X194387606Y-108645895D01*
X194391390Y-108639582D01*
X194395774Y-108633671D01*
X194400717Y-108628217D01*
X194406171Y-108623274D01*
X194412082Y-108618890D01*
X194418395Y-108615106D01*
X194425049Y-108611959D01*
X194431979Y-108609479D01*
X194439118Y-108607691D01*
X194446399Y-108606611D01*
X194453750Y-108606250D01*
X194603750Y-108606250D01*
X194611101Y-108606611D01*
X194611101Y-108606611D01*
G37*
D18*
X194528750Y-109343750D03*
D11*
G36*
X195111101Y-108606611D02*
G01*
X195118382Y-108607691D01*
X195125521Y-108609479D01*
X195132451Y-108611959D01*
X195139105Y-108615106D01*
X195145418Y-108618890D01*
X195151329Y-108623274D01*
X195156783Y-108628217D01*
X195161726Y-108633671D01*
X195166110Y-108639582D01*
X195169894Y-108645895D01*
X195173041Y-108652549D01*
X195175521Y-108659479D01*
X195177309Y-108666618D01*
X195178389Y-108673899D01*
X195178750Y-108681250D01*
X195178750Y-110006250D01*
X195178389Y-110013601D01*
X195177309Y-110020882D01*
X195175521Y-110028021D01*
X195173041Y-110034951D01*
X195169894Y-110041605D01*
X195166110Y-110047918D01*
X195161726Y-110053829D01*
X195156783Y-110059283D01*
X195151329Y-110064226D01*
X195145418Y-110068610D01*
X195139105Y-110072394D01*
X195132451Y-110075541D01*
X195125521Y-110078021D01*
X195118382Y-110079809D01*
X195111101Y-110080889D01*
X195103750Y-110081250D01*
X194953750Y-110081250D01*
X194946399Y-110080889D01*
X194939118Y-110079809D01*
X194931979Y-110078021D01*
X194925049Y-110075541D01*
X194918395Y-110072394D01*
X194912082Y-110068610D01*
X194906171Y-110064226D01*
X194900717Y-110059283D01*
X194895774Y-110053829D01*
X194891390Y-110047918D01*
X194887606Y-110041605D01*
X194884459Y-110034951D01*
X194881979Y-110028021D01*
X194880191Y-110020882D01*
X194879111Y-110013601D01*
X194878750Y-110006250D01*
X194878750Y-108681250D01*
X194879111Y-108673899D01*
X194880191Y-108666618D01*
X194881979Y-108659479D01*
X194884459Y-108652549D01*
X194887606Y-108645895D01*
X194891390Y-108639582D01*
X194895774Y-108633671D01*
X194900717Y-108628217D01*
X194906171Y-108623274D01*
X194912082Y-108618890D01*
X194918395Y-108615106D01*
X194925049Y-108611959D01*
X194931979Y-108609479D01*
X194939118Y-108607691D01*
X194946399Y-108606611D01*
X194953750Y-108606250D01*
X195103750Y-108606250D01*
X195111101Y-108606611D01*
X195111101Y-108606611D01*
G37*
D18*
X195028750Y-109343750D03*
D11*
G36*
X195611101Y-108606611D02*
G01*
X195618382Y-108607691D01*
X195625521Y-108609479D01*
X195632451Y-108611959D01*
X195639105Y-108615106D01*
X195645418Y-108618890D01*
X195651329Y-108623274D01*
X195656783Y-108628217D01*
X195661726Y-108633671D01*
X195666110Y-108639582D01*
X195669894Y-108645895D01*
X195673041Y-108652549D01*
X195675521Y-108659479D01*
X195677309Y-108666618D01*
X195678389Y-108673899D01*
X195678750Y-108681250D01*
X195678750Y-110006250D01*
X195678389Y-110013601D01*
X195677309Y-110020882D01*
X195675521Y-110028021D01*
X195673041Y-110034951D01*
X195669894Y-110041605D01*
X195666110Y-110047918D01*
X195661726Y-110053829D01*
X195656783Y-110059283D01*
X195651329Y-110064226D01*
X195645418Y-110068610D01*
X195639105Y-110072394D01*
X195632451Y-110075541D01*
X195625521Y-110078021D01*
X195618382Y-110079809D01*
X195611101Y-110080889D01*
X195603750Y-110081250D01*
X195453750Y-110081250D01*
X195446399Y-110080889D01*
X195439118Y-110079809D01*
X195431979Y-110078021D01*
X195425049Y-110075541D01*
X195418395Y-110072394D01*
X195412082Y-110068610D01*
X195406171Y-110064226D01*
X195400717Y-110059283D01*
X195395774Y-110053829D01*
X195391390Y-110047918D01*
X195387606Y-110041605D01*
X195384459Y-110034951D01*
X195381979Y-110028021D01*
X195380191Y-110020882D01*
X195379111Y-110013601D01*
X195378750Y-110006250D01*
X195378750Y-108681250D01*
X195379111Y-108673899D01*
X195380191Y-108666618D01*
X195381979Y-108659479D01*
X195384459Y-108652549D01*
X195387606Y-108645895D01*
X195391390Y-108639582D01*
X195395774Y-108633671D01*
X195400717Y-108628217D01*
X195406171Y-108623274D01*
X195412082Y-108618890D01*
X195418395Y-108615106D01*
X195425049Y-108611959D01*
X195431979Y-108609479D01*
X195439118Y-108607691D01*
X195446399Y-108606611D01*
X195453750Y-108606250D01*
X195603750Y-108606250D01*
X195611101Y-108606611D01*
X195611101Y-108606611D01*
G37*
D18*
X195528750Y-109343750D03*
D11*
G36*
X196111101Y-108606611D02*
G01*
X196118382Y-108607691D01*
X196125521Y-108609479D01*
X196132451Y-108611959D01*
X196139105Y-108615106D01*
X196145418Y-108618890D01*
X196151329Y-108623274D01*
X196156783Y-108628217D01*
X196161726Y-108633671D01*
X196166110Y-108639582D01*
X196169894Y-108645895D01*
X196173041Y-108652549D01*
X196175521Y-108659479D01*
X196177309Y-108666618D01*
X196178389Y-108673899D01*
X196178750Y-108681250D01*
X196178750Y-110006250D01*
X196178389Y-110013601D01*
X196177309Y-110020882D01*
X196175521Y-110028021D01*
X196173041Y-110034951D01*
X196169894Y-110041605D01*
X196166110Y-110047918D01*
X196161726Y-110053829D01*
X196156783Y-110059283D01*
X196151329Y-110064226D01*
X196145418Y-110068610D01*
X196139105Y-110072394D01*
X196132451Y-110075541D01*
X196125521Y-110078021D01*
X196118382Y-110079809D01*
X196111101Y-110080889D01*
X196103750Y-110081250D01*
X195953750Y-110081250D01*
X195946399Y-110080889D01*
X195939118Y-110079809D01*
X195931979Y-110078021D01*
X195925049Y-110075541D01*
X195918395Y-110072394D01*
X195912082Y-110068610D01*
X195906171Y-110064226D01*
X195900717Y-110059283D01*
X195895774Y-110053829D01*
X195891390Y-110047918D01*
X195887606Y-110041605D01*
X195884459Y-110034951D01*
X195881979Y-110028021D01*
X195880191Y-110020882D01*
X195879111Y-110013601D01*
X195878750Y-110006250D01*
X195878750Y-108681250D01*
X195879111Y-108673899D01*
X195880191Y-108666618D01*
X195881979Y-108659479D01*
X195884459Y-108652549D01*
X195887606Y-108645895D01*
X195891390Y-108639582D01*
X195895774Y-108633671D01*
X195900717Y-108628217D01*
X195906171Y-108623274D01*
X195912082Y-108618890D01*
X195918395Y-108615106D01*
X195925049Y-108611959D01*
X195931979Y-108609479D01*
X195939118Y-108607691D01*
X195946399Y-108606611D01*
X195953750Y-108606250D01*
X196103750Y-108606250D01*
X196111101Y-108606611D01*
X196111101Y-108606611D01*
G37*
D18*
X196028750Y-109343750D03*
D11*
G36*
X196611101Y-108606611D02*
G01*
X196618382Y-108607691D01*
X196625521Y-108609479D01*
X196632451Y-108611959D01*
X196639105Y-108615106D01*
X196645418Y-108618890D01*
X196651329Y-108623274D01*
X196656783Y-108628217D01*
X196661726Y-108633671D01*
X196666110Y-108639582D01*
X196669894Y-108645895D01*
X196673041Y-108652549D01*
X196675521Y-108659479D01*
X196677309Y-108666618D01*
X196678389Y-108673899D01*
X196678750Y-108681250D01*
X196678750Y-110006250D01*
X196678389Y-110013601D01*
X196677309Y-110020882D01*
X196675521Y-110028021D01*
X196673041Y-110034951D01*
X196669894Y-110041605D01*
X196666110Y-110047918D01*
X196661726Y-110053829D01*
X196656783Y-110059283D01*
X196651329Y-110064226D01*
X196645418Y-110068610D01*
X196639105Y-110072394D01*
X196632451Y-110075541D01*
X196625521Y-110078021D01*
X196618382Y-110079809D01*
X196611101Y-110080889D01*
X196603750Y-110081250D01*
X196453750Y-110081250D01*
X196446399Y-110080889D01*
X196439118Y-110079809D01*
X196431979Y-110078021D01*
X196425049Y-110075541D01*
X196418395Y-110072394D01*
X196412082Y-110068610D01*
X196406171Y-110064226D01*
X196400717Y-110059283D01*
X196395774Y-110053829D01*
X196391390Y-110047918D01*
X196387606Y-110041605D01*
X196384459Y-110034951D01*
X196381979Y-110028021D01*
X196380191Y-110020882D01*
X196379111Y-110013601D01*
X196378750Y-110006250D01*
X196378750Y-108681250D01*
X196379111Y-108673899D01*
X196380191Y-108666618D01*
X196381979Y-108659479D01*
X196384459Y-108652549D01*
X196387606Y-108645895D01*
X196391390Y-108639582D01*
X196395774Y-108633671D01*
X196400717Y-108628217D01*
X196406171Y-108623274D01*
X196412082Y-108618890D01*
X196418395Y-108615106D01*
X196425049Y-108611959D01*
X196431979Y-108609479D01*
X196439118Y-108607691D01*
X196446399Y-108606611D01*
X196453750Y-108606250D01*
X196603750Y-108606250D01*
X196611101Y-108606611D01*
X196611101Y-108606611D01*
G37*
D18*
X196528750Y-109343750D03*
D11*
G36*
X197111101Y-108606611D02*
G01*
X197118382Y-108607691D01*
X197125521Y-108609479D01*
X197132451Y-108611959D01*
X197139105Y-108615106D01*
X197145418Y-108618890D01*
X197151329Y-108623274D01*
X197156783Y-108628217D01*
X197161726Y-108633671D01*
X197166110Y-108639582D01*
X197169894Y-108645895D01*
X197173041Y-108652549D01*
X197175521Y-108659479D01*
X197177309Y-108666618D01*
X197178389Y-108673899D01*
X197178750Y-108681250D01*
X197178750Y-110006250D01*
X197178389Y-110013601D01*
X197177309Y-110020882D01*
X197175521Y-110028021D01*
X197173041Y-110034951D01*
X197169894Y-110041605D01*
X197166110Y-110047918D01*
X197161726Y-110053829D01*
X197156783Y-110059283D01*
X197151329Y-110064226D01*
X197145418Y-110068610D01*
X197139105Y-110072394D01*
X197132451Y-110075541D01*
X197125521Y-110078021D01*
X197118382Y-110079809D01*
X197111101Y-110080889D01*
X197103750Y-110081250D01*
X196953750Y-110081250D01*
X196946399Y-110080889D01*
X196939118Y-110079809D01*
X196931979Y-110078021D01*
X196925049Y-110075541D01*
X196918395Y-110072394D01*
X196912082Y-110068610D01*
X196906171Y-110064226D01*
X196900717Y-110059283D01*
X196895774Y-110053829D01*
X196891390Y-110047918D01*
X196887606Y-110041605D01*
X196884459Y-110034951D01*
X196881979Y-110028021D01*
X196880191Y-110020882D01*
X196879111Y-110013601D01*
X196878750Y-110006250D01*
X196878750Y-108681250D01*
X196879111Y-108673899D01*
X196880191Y-108666618D01*
X196881979Y-108659479D01*
X196884459Y-108652549D01*
X196887606Y-108645895D01*
X196891390Y-108639582D01*
X196895774Y-108633671D01*
X196900717Y-108628217D01*
X196906171Y-108623274D01*
X196912082Y-108618890D01*
X196918395Y-108615106D01*
X196925049Y-108611959D01*
X196931979Y-108609479D01*
X196939118Y-108607691D01*
X196946399Y-108606611D01*
X196953750Y-108606250D01*
X197103750Y-108606250D01*
X197111101Y-108606611D01*
X197111101Y-108606611D01*
G37*
D18*
X197028750Y-109343750D03*
D11*
G36*
X197611101Y-108606611D02*
G01*
X197618382Y-108607691D01*
X197625521Y-108609479D01*
X197632451Y-108611959D01*
X197639105Y-108615106D01*
X197645418Y-108618890D01*
X197651329Y-108623274D01*
X197656783Y-108628217D01*
X197661726Y-108633671D01*
X197666110Y-108639582D01*
X197669894Y-108645895D01*
X197673041Y-108652549D01*
X197675521Y-108659479D01*
X197677309Y-108666618D01*
X197678389Y-108673899D01*
X197678750Y-108681250D01*
X197678750Y-110006250D01*
X197678389Y-110013601D01*
X197677309Y-110020882D01*
X197675521Y-110028021D01*
X197673041Y-110034951D01*
X197669894Y-110041605D01*
X197666110Y-110047918D01*
X197661726Y-110053829D01*
X197656783Y-110059283D01*
X197651329Y-110064226D01*
X197645418Y-110068610D01*
X197639105Y-110072394D01*
X197632451Y-110075541D01*
X197625521Y-110078021D01*
X197618382Y-110079809D01*
X197611101Y-110080889D01*
X197603750Y-110081250D01*
X197453750Y-110081250D01*
X197446399Y-110080889D01*
X197439118Y-110079809D01*
X197431979Y-110078021D01*
X197425049Y-110075541D01*
X197418395Y-110072394D01*
X197412082Y-110068610D01*
X197406171Y-110064226D01*
X197400717Y-110059283D01*
X197395774Y-110053829D01*
X197391390Y-110047918D01*
X197387606Y-110041605D01*
X197384459Y-110034951D01*
X197381979Y-110028021D01*
X197380191Y-110020882D01*
X197379111Y-110013601D01*
X197378750Y-110006250D01*
X197378750Y-108681250D01*
X197379111Y-108673899D01*
X197380191Y-108666618D01*
X197381979Y-108659479D01*
X197384459Y-108652549D01*
X197387606Y-108645895D01*
X197391390Y-108639582D01*
X197395774Y-108633671D01*
X197400717Y-108628217D01*
X197406171Y-108623274D01*
X197412082Y-108618890D01*
X197418395Y-108615106D01*
X197425049Y-108611959D01*
X197431979Y-108609479D01*
X197439118Y-108607691D01*
X197446399Y-108606611D01*
X197453750Y-108606250D01*
X197603750Y-108606250D01*
X197611101Y-108606611D01*
X197611101Y-108606611D01*
G37*
D18*
X197528750Y-109343750D03*
D11*
G36*
X198111101Y-108606611D02*
G01*
X198118382Y-108607691D01*
X198125521Y-108609479D01*
X198132451Y-108611959D01*
X198139105Y-108615106D01*
X198145418Y-108618890D01*
X198151329Y-108623274D01*
X198156783Y-108628217D01*
X198161726Y-108633671D01*
X198166110Y-108639582D01*
X198169894Y-108645895D01*
X198173041Y-108652549D01*
X198175521Y-108659479D01*
X198177309Y-108666618D01*
X198178389Y-108673899D01*
X198178750Y-108681250D01*
X198178750Y-110006250D01*
X198178389Y-110013601D01*
X198177309Y-110020882D01*
X198175521Y-110028021D01*
X198173041Y-110034951D01*
X198169894Y-110041605D01*
X198166110Y-110047918D01*
X198161726Y-110053829D01*
X198156783Y-110059283D01*
X198151329Y-110064226D01*
X198145418Y-110068610D01*
X198139105Y-110072394D01*
X198132451Y-110075541D01*
X198125521Y-110078021D01*
X198118382Y-110079809D01*
X198111101Y-110080889D01*
X198103750Y-110081250D01*
X197953750Y-110081250D01*
X197946399Y-110080889D01*
X197939118Y-110079809D01*
X197931979Y-110078021D01*
X197925049Y-110075541D01*
X197918395Y-110072394D01*
X197912082Y-110068610D01*
X197906171Y-110064226D01*
X197900717Y-110059283D01*
X197895774Y-110053829D01*
X197891390Y-110047918D01*
X197887606Y-110041605D01*
X197884459Y-110034951D01*
X197881979Y-110028021D01*
X197880191Y-110020882D01*
X197879111Y-110013601D01*
X197878750Y-110006250D01*
X197878750Y-108681250D01*
X197879111Y-108673899D01*
X197880191Y-108666618D01*
X197881979Y-108659479D01*
X197884459Y-108652549D01*
X197887606Y-108645895D01*
X197891390Y-108639582D01*
X197895774Y-108633671D01*
X197900717Y-108628217D01*
X197906171Y-108623274D01*
X197912082Y-108618890D01*
X197918395Y-108615106D01*
X197925049Y-108611959D01*
X197931979Y-108609479D01*
X197939118Y-108607691D01*
X197946399Y-108606611D01*
X197953750Y-108606250D01*
X198103750Y-108606250D01*
X198111101Y-108606611D01*
X198111101Y-108606611D01*
G37*
D18*
X198028750Y-109343750D03*
D11*
G36*
X200111101Y-110606611D02*
G01*
X200118382Y-110607691D01*
X200125521Y-110609479D01*
X200132451Y-110611959D01*
X200139105Y-110615106D01*
X200145418Y-110618890D01*
X200151329Y-110623274D01*
X200156783Y-110628217D01*
X200161726Y-110633671D01*
X200166110Y-110639582D01*
X200169894Y-110645895D01*
X200173041Y-110652549D01*
X200175521Y-110659479D01*
X200177309Y-110666618D01*
X200178389Y-110673899D01*
X200178750Y-110681250D01*
X200178750Y-110831250D01*
X200178389Y-110838601D01*
X200177309Y-110845882D01*
X200175521Y-110853021D01*
X200173041Y-110859951D01*
X200169894Y-110866605D01*
X200166110Y-110872918D01*
X200161726Y-110878829D01*
X200156783Y-110884283D01*
X200151329Y-110889226D01*
X200145418Y-110893610D01*
X200139105Y-110897394D01*
X200132451Y-110900541D01*
X200125521Y-110903021D01*
X200118382Y-110904809D01*
X200111101Y-110905889D01*
X200103750Y-110906250D01*
X198778750Y-110906250D01*
X198771399Y-110905889D01*
X198764118Y-110904809D01*
X198756979Y-110903021D01*
X198750049Y-110900541D01*
X198743395Y-110897394D01*
X198737082Y-110893610D01*
X198731171Y-110889226D01*
X198725717Y-110884283D01*
X198720774Y-110878829D01*
X198716390Y-110872918D01*
X198712606Y-110866605D01*
X198709459Y-110859951D01*
X198706979Y-110853021D01*
X198705191Y-110845882D01*
X198704111Y-110838601D01*
X198703750Y-110831250D01*
X198703750Y-110681250D01*
X198704111Y-110673899D01*
X198705191Y-110666618D01*
X198706979Y-110659479D01*
X198709459Y-110652549D01*
X198712606Y-110645895D01*
X198716390Y-110639582D01*
X198720774Y-110633671D01*
X198725717Y-110628217D01*
X198731171Y-110623274D01*
X198737082Y-110618890D01*
X198743395Y-110615106D01*
X198750049Y-110611959D01*
X198756979Y-110609479D01*
X198764118Y-110607691D01*
X198771399Y-110606611D01*
X198778750Y-110606250D01*
X200103750Y-110606250D01*
X200111101Y-110606611D01*
X200111101Y-110606611D01*
G37*
D18*
X199441250Y-110756250D03*
D11*
G36*
X200111101Y-111106611D02*
G01*
X200118382Y-111107691D01*
X200125521Y-111109479D01*
X200132451Y-111111959D01*
X200139105Y-111115106D01*
X200145418Y-111118890D01*
X200151329Y-111123274D01*
X200156783Y-111128217D01*
X200161726Y-111133671D01*
X200166110Y-111139582D01*
X200169894Y-111145895D01*
X200173041Y-111152549D01*
X200175521Y-111159479D01*
X200177309Y-111166618D01*
X200178389Y-111173899D01*
X200178750Y-111181250D01*
X200178750Y-111331250D01*
X200178389Y-111338601D01*
X200177309Y-111345882D01*
X200175521Y-111353021D01*
X200173041Y-111359951D01*
X200169894Y-111366605D01*
X200166110Y-111372918D01*
X200161726Y-111378829D01*
X200156783Y-111384283D01*
X200151329Y-111389226D01*
X200145418Y-111393610D01*
X200139105Y-111397394D01*
X200132451Y-111400541D01*
X200125521Y-111403021D01*
X200118382Y-111404809D01*
X200111101Y-111405889D01*
X200103750Y-111406250D01*
X198778750Y-111406250D01*
X198771399Y-111405889D01*
X198764118Y-111404809D01*
X198756979Y-111403021D01*
X198750049Y-111400541D01*
X198743395Y-111397394D01*
X198737082Y-111393610D01*
X198731171Y-111389226D01*
X198725717Y-111384283D01*
X198720774Y-111378829D01*
X198716390Y-111372918D01*
X198712606Y-111366605D01*
X198709459Y-111359951D01*
X198706979Y-111353021D01*
X198705191Y-111345882D01*
X198704111Y-111338601D01*
X198703750Y-111331250D01*
X198703750Y-111181250D01*
X198704111Y-111173899D01*
X198705191Y-111166618D01*
X198706979Y-111159479D01*
X198709459Y-111152549D01*
X198712606Y-111145895D01*
X198716390Y-111139582D01*
X198720774Y-111133671D01*
X198725717Y-111128217D01*
X198731171Y-111123274D01*
X198737082Y-111118890D01*
X198743395Y-111115106D01*
X198750049Y-111111959D01*
X198756979Y-111109479D01*
X198764118Y-111107691D01*
X198771399Y-111106611D01*
X198778750Y-111106250D01*
X200103750Y-111106250D01*
X200111101Y-111106611D01*
X200111101Y-111106611D01*
G37*
D18*
X199441250Y-111256250D03*
D11*
G36*
X200111101Y-111606611D02*
G01*
X200118382Y-111607691D01*
X200125521Y-111609479D01*
X200132451Y-111611959D01*
X200139105Y-111615106D01*
X200145418Y-111618890D01*
X200151329Y-111623274D01*
X200156783Y-111628217D01*
X200161726Y-111633671D01*
X200166110Y-111639582D01*
X200169894Y-111645895D01*
X200173041Y-111652549D01*
X200175521Y-111659479D01*
X200177309Y-111666618D01*
X200178389Y-111673899D01*
X200178750Y-111681250D01*
X200178750Y-111831250D01*
X200178389Y-111838601D01*
X200177309Y-111845882D01*
X200175521Y-111853021D01*
X200173041Y-111859951D01*
X200169894Y-111866605D01*
X200166110Y-111872918D01*
X200161726Y-111878829D01*
X200156783Y-111884283D01*
X200151329Y-111889226D01*
X200145418Y-111893610D01*
X200139105Y-111897394D01*
X200132451Y-111900541D01*
X200125521Y-111903021D01*
X200118382Y-111904809D01*
X200111101Y-111905889D01*
X200103750Y-111906250D01*
X198778750Y-111906250D01*
X198771399Y-111905889D01*
X198764118Y-111904809D01*
X198756979Y-111903021D01*
X198750049Y-111900541D01*
X198743395Y-111897394D01*
X198737082Y-111893610D01*
X198731171Y-111889226D01*
X198725717Y-111884283D01*
X198720774Y-111878829D01*
X198716390Y-111872918D01*
X198712606Y-111866605D01*
X198709459Y-111859951D01*
X198706979Y-111853021D01*
X198705191Y-111845882D01*
X198704111Y-111838601D01*
X198703750Y-111831250D01*
X198703750Y-111681250D01*
X198704111Y-111673899D01*
X198705191Y-111666618D01*
X198706979Y-111659479D01*
X198709459Y-111652549D01*
X198712606Y-111645895D01*
X198716390Y-111639582D01*
X198720774Y-111633671D01*
X198725717Y-111628217D01*
X198731171Y-111623274D01*
X198737082Y-111618890D01*
X198743395Y-111615106D01*
X198750049Y-111611959D01*
X198756979Y-111609479D01*
X198764118Y-111607691D01*
X198771399Y-111606611D01*
X198778750Y-111606250D01*
X200103750Y-111606250D01*
X200111101Y-111606611D01*
X200111101Y-111606611D01*
G37*
D18*
X199441250Y-111756250D03*
D11*
G36*
X200111101Y-112106611D02*
G01*
X200118382Y-112107691D01*
X200125521Y-112109479D01*
X200132451Y-112111959D01*
X200139105Y-112115106D01*
X200145418Y-112118890D01*
X200151329Y-112123274D01*
X200156783Y-112128217D01*
X200161726Y-112133671D01*
X200166110Y-112139582D01*
X200169894Y-112145895D01*
X200173041Y-112152549D01*
X200175521Y-112159479D01*
X200177309Y-112166618D01*
X200178389Y-112173899D01*
X200178750Y-112181250D01*
X200178750Y-112331250D01*
X200178389Y-112338601D01*
X200177309Y-112345882D01*
X200175521Y-112353021D01*
X200173041Y-112359951D01*
X200169894Y-112366605D01*
X200166110Y-112372918D01*
X200161726Y-112378829D01*
X200156783Y-112384283D01*
X200151329Y-112389226D01*
X200145418Y-112393610D01*
X200139105Y-112397394D01*
X200132451Y-112400541D01*
X200125521Y-112403021D01*
X200118382Y-112404809D01*
X200111101Y-112405889D01*
X200103750Y-112406250D01*
X198778750Y-112406250D01*
X198771399Y-112405889D01*
X198764118Y-112404809D01*
X198756979Y-112403021D01*
X198750049Y-112400541D01*
X198743395Y-112397394D01*
X198737082Y-112393610D01*
X198731171Y-112389226D01*
X198725717Y-112384283D01*
X198720774Y-112378829D01*
X198716390Y-112372918D01*
X198712606Y-112366605D01*
X198709459Y-112359951D01*
X198706979Y-112353021D01*
X198705191Y-112345882D01*
X198704111Y-112338601D01*
X198703750Y-112331250D01*
X198703750Y-112181250D01*
X198704111Y-112173899D01*
X198705191Y-112166618D01*
X198706979Y-112159479D01*
X198709459Y-112152549D01*
X198712606Y-112145895D01*
X198716390Y-112139582D01*
X198720774Y-112133671D01*
X198725717Y-112128217D01*
X198731171Y-112123274D01*
X198737082Y-112118890D01*
X198743395Y-112115106D01*
X198750049Y-112111959D01*
X198756979Y-112109479D01*
X198764118Y-112107691D01*
X198771399Y-112106611D01*
X198778750Y-112106250D01*
X200103750Y-112106250D01*
X200111101Y-112106611D01*
X200111101Y-112106611D01*
G37*
D18*
X199441250Y-112256250D03*
D11*
G36*
X200111101Y-112606611D02*
G01*
X200118382Y-112607691D01*
X200125521Y-112609479D01*
X200132451Y-112611959D01*
X200139105Y-112615106D01*
X200145418Y-112618890D01*
X200151329Y-112623274D01*
X200156783Y-112628217D01*
X200161726Y-112633671D01*
X200166110Y-112639582D01*
X200169894Y-112645895D01*
X200173041Y-112652549D01*
X200175521Y-112659479D01*
X200177309Y-112666618D01*
X200178389Y-112673899D01*
X200178750Y-112681250D01*
X200178750Y-112831250D01*
X200178389Y-112838601D01*
X200177309Y-112845882D01*
X200175521Y-112853021D01*
X200173041Y-112859951D01*
X200169894Y-112866605D01*
X200166110Y-112872918D01*
X200161726Y-112878829D01*
X200156783Y-112884283D01*
X200151329Y-112889226D01*
X200145418Y-112893610D01*
X200139105Y-112897394D01*
X200132451Y-112900541D01*
X200125521Y-112903021D01*
X200118382Y-112904809D01*
X200111101Y-112905889D01*
X200103750Y-112906250D01*
X198778750Y-112906250D01*
X198771399Y-112905889D01*
X198764118Y-112904809D01*
X198756979Y-112903021D01*
X198750049Y-112900541D01*
X198743395Y-112897394D01*
X198737082Y-112893610D01*
X198731171Y-112889226D01*
X198725717Y-112884283D01*
X198720774Y-112878829D01*
X198716390Y-112872918D01*
X198712606Y-112866605D01*
X198709459Y-112859951D01*
X198706979Y-112853021D01*
X198705191Y-112845882D01*
X198704111Y-112838601D01*
X198703750Y-112831250D01*
X198703750Y-112681250D01*
X198704111Y-112673899D01*
X198705191Y-112666618D01*
X198706979Y-112659479D01*
X198709459Y-112652549D01*
X198712606Y-112645895D01*
X198716390Y-112639582D01*
X198720774Y-112633671D01*
X198725717Y-112628217D01*
X198731171Y-112623274D01*
X198737082Y-112618890D01*
X198743395Y-112615106D01*
X198750049Y-112611959D01*
X198756979Y-112609479D01*
X198764118Y-112607691D01*
X198771399Y-112606611D01*
X198778750Y-112606250D01*
X200103750Y-112606250D01*
X200111101Y-112606611D01*
X200111101Y-112606611D01*
G37*
D18*
X199441250Y-112756250D03*
D11*
G36*
X200111101Y-113106611D02*
G01*
X200118382Y-113107691D01*
X200125521Y-113109479D01*
X200132451Y-113111959D01*
X200139105Y-113115106D01*
X200145418Y-113118890D01*
X200151329Y-113123274D01*
X200156783Y-113128217D01*
X200161726Y-113133671D01*
X200166110Y-113139582D01*
X200169894Y-113145895D01*
X200173041Y-113152549D01*
X200175521Y-113159479D01*
X200177309Y-113166618D01*
X200178389Y-113173899D01*
X200178750Y-113181250D01*
X200178750Y-113331250D01*
X200178389Y-113338601D01*
X200177309Y-113345882D01*
X200175521Y-113353021D01*
X200173041Y-113359951D01*
X200169894Y-113366605D01*
X200166110Y-113372918D01*
X200161726Y-113378829D01*
X200156783Y-113384283D01*
X200151329Y-113389226D01*
X200145418Y-113393610D01*
X200139105Y-113397394D01*
X200132451Y-113400541D01*
X200125521Y-113403021D01*
X200118382Y-113404809D01*
X200111101Y-113405889D01*
X200103750Y-113406250D01*
X198778750Y-113406250D01*
X198771399Y-113405889D01*
X198764118Y-113404809D01*
X198756979Y-113403021D01*
X198750049Y-113400541D01*
X198743395Y-113397394D01*
X198737082Y-113393610D01*
X198731171Y-113389226D01*
X198725717Y-113384283D01*
X198720774Y-113378829D01*
X198716390Y-113372918D01*
X198712606Y-113366605D01*
X198709459Y-113359951D01*
X198706979Y-113353021D01*
X198705191Y-113345882D01*
X198704111Y-113338601D01*
X198703750Y-113331250D01*
X198703750Y-113181250D01*
X198704111Y-113173899D01*
X198705191Y-113166618D01*
X198706979Y-113159479D01*
X198709459Y-113152549D01*
X198712606Y-113145895D01*
X198716390Y-113139582D01*
X198720774Y-113133671D01*
X198725717Y-113128217D01*
X198731171Y-113123274D01*
X198737082Y-113118890D01*
X198743395Y-113115106D01*
X198750049Y-113111959D01*
X198756979Y-113109479D01*
X198764118Y-113107691D01*
X198771399Y-113106611D01*
X198778750Y-113106250D01*
X200103750Y-113106250D01*
X200111101Y-113106611D01*
X200111101Y-113106611D01*
G37*
D18*
X199441250Y-113256250D03*
D11*
G36*
X200111101Y-113606611D02*
G01*
X200118382Y-113607691D01*
X200125521Y-113609479D01*
X200132451Y-113611959D01*
X200139105Y-113615106D01*
X200145418Y-113618890D01*
X200151329Y-113623274D01*
X200156783Y-113628217D01*
X200161726Y-113633671D01*
X200166110Y-113639582D01*
X200169894Y-113645895D01*
X200173041Y-113652549D01*
X200175521Y-113659479D01*
X200177309Y-113666618D01*
X200178389Y-113673899D01*
X200178750Y-113681250D01*
X200178750Y-113831250D01*
X200178389Y-113838601D01*
X200177309Y-113845882D01*
X200175521Y-113853021D01*
X200173041Y-113859951D01*
X200169894Y-113866605D01*
X200166110Y-113872918D01*
X200161726Y-113878829D01*
X200156783Y-113884283D01*
X200151329Y-113889226D01*
X200145418Y-113893610D01*
X200139105Y-113897394D01*
X200132451Y-113900541D01*
X200125521Y-113903021D01*
X200118382Y-113904809D01*
X200111101Y-113905889D01*
X200103750Y-113906250D01*
X198778750Y-113906250D01*
X198771399Y-113905889D01*
X198764118Y-113904809D01*
X198756979Y-113903021D01*
X198750049Y-113900541D01*
X198743395Y-113897394D01*
X198737082Y-113893610D01*
X198731171Y-113889226D01*
X198725717Y-113884283D01*
X198720774Y-113878829D01*
X198716390Y-113872918D01*
X198712606Y-113866605D01*
X198709459Y-113859951D01*
X198706979Y-113853021D01*
X198705191Y-113845882D01*
X198704111Y-113838601D01*
X198703750Y-113831250D01*
X198703750Y-113681250D01*
X198704111Y-113673899D01*
X198705191Y-113666618D01*
X198706979Y-113659479D01*
X198709459Y-113652549D01*
X198712606Y-113645895D01*
X198716390Y-113639582D01*
X198720774Y-113633671D01*
X198725717Y-113628217D01*
X198731171Y-113623274D01*
X198737082Y-113618890D01*
X198743395Y-113615106D01*
X198750049Y-113611959D01*
X198756979Y-113609479D01*
X198764118Y-113607691D01*
X198771399Y-113606611D01*
X198778750Y-113606250D01*
X200103750Y-113606250D01*
X200111101Y-113606611D01*
X200111101Y-113606611D01*
G37*
D18*
X199441250Y-113756250D03*
D11*
G36*
X200111101Y-114106611D02*
G01*
X200118382Y-114107691D01*
X200125521Y-114109479D01*
X200132451Y-114111959D01*
X200139105Y-114115106D01*
X200145418Y-114118890D01*
X200151329Y-114123274D01*
X200156783Y-114128217D01*
X200161726Y-114133671D01*
X200166110Y-114139582D01*
X200169894Y-114145895D01*
X200173041Y-114152549D01*
X200175521Y-114159479D01*
X200177309Y-114166618D01*
X200178389Y-114173899D01*
X200178750Y-114181250D01*
X200178750Y-114331250D01*
X200178389Y-114338601D01*
X200177309Y-114345882D01*
X200175521Y-114353021D01*
X200173041Y-114359951D01*
X200169894Y-114366605D01*
X200166110Y-114372918D01*
X200161726Y-114378829D01*
X200156783Y-114384283D01*
X200151329Y-114389226D01*
X200145418Y-114393610D01*
X200139105Y-114397394D01*
X200132451Y-114400541D01*
X200125521Y-114403021D01*
X200118382Y-114404809D01*
X200111101Y-114405889D01*
X200103750Y-114406250D01*
X198778750Y-114406250D01*
X198771399Y-114405889D01*
X198764118Y-114404809D01*
X198756979Y-114403021D01*
X198750049Y-114400541D01*
X198743395Y-114397394D01*
X198737082Y-114393610D01*
X198731171Y-114389226D01*
X198725717Y-114384283D01*
X198720774Y-114378829D01*
X198716390Y-114372918D01*
X198712606Y-114366605D01*
X198709459Y-114359951D01*
X198706979Y-114353021D01*
X198705191Y-114345882D01*
X198704111Y-114338601D01*
X198703750Y-114331250D01*
X198703750Y-114181250D01*
X198704111Y-114173899D01*
X198705191Y-114166618D01*
X198706979Y-114159479D01*
X198709459Y-114152549D01*
X198712606Y-114145895D01*
X198716390Y-114139582D01*
X198720774Y-114133671D01*
X198725717Y-114128217D01*
X198731171Y-114123274D01*
X198737082Y-114118890D01*
X198743395Y-114115106D01*
X198750049Y-114111959D01*
X198756979Y-114109479D01*
X198764118Y-114107691D01*
X198771399Y-114106611D01*
X198778750Y-114106250D01*
X200103750Y-114106250D01*
X200111101Y-114106611D01*
X200111101Y-114106611D01*
G37*
D18*
X199441250Y-114256250D03*
D11*
G36*
X200111101Y-114606611D02*
G01*
X200118382Y-114607691D01*
X200125521Y-114609479D01*
X200132451Y-114611959D01*
X200139105Y-114615106D01*
X200145418Y-114618890D01*
X200151329Y-114623274D01*
X200156783Y-114628217D01*
X200161726Y-114633671D01*
X200166110Y-114639582D01*
X200169894Y-114645895D01*
X200173041Y-114652549D01*
X200175521Y-114659479D01*
X200177309Y-114666618D01*
X200178389Y-114673899D01*
X200178750Y-114681250D01*
X200178750Y-114831250D01*
X200178389Y-114838601D01*
X200177309Y-114845882D01*
X200175521Y-114853021D01*
X200173041Y-114859951D01*
X200169894Y-114866605D01*
X200166110Y-114872918D01*
X200161726Y-114878829D01*
X200156783Y-114884283D01*
X200151329Y-114889226D01*
X200145418Y-114893610D01*
X200139105Y-114897394D01*
X200132451Y-114900541D01*
X200125521Y-114903021D01*
X200118382Y-114904809D01*
X200111101Y-114905889D01*
X200103750Y-114906250D01*
X198778750Y-114906250D01*
X198771399Y-114905889D01*
X198764118Y-114904809D01*
X198756979Y-114903021D01*
X198750049Y-114900541D01*
X198743395Y-114897394D01*
X198737082Y-114893610D01*
X198731171Y-114889226D01*
X198725717Y-114884283D01*
X198720774Y-114878829D01*
X198716390Y-114872918D01*
X198712606Y-114866605D01*
X198709459Y-114859951D01*
X198706979Y-114853021D01*
X198705191Y-114845882D01*
X198704111Y-114838601D01*
X198703750Y-114831250D01*
X198703750Y-114681250D01*
X198704111Y-114673899D01*
X198705191Y-114666618D01*
X198706979Y-114659479D01*
X198709459Y-114652549D01*
X198712606Y-114645895D01*
X198716390Y-114639582D01*
X198720774Y-114633671D01*
X198725717Y-114628217D01*
X198731171Y-114623274D01*
X198737082Y-114618890D01*
X198743395Y-114615106D01*
X198750049Y-114611959D01*
X198756979Y-114609479D01*
X198764118Y-114607691D01*
X198771399Y-114606611D01*
X198778750Y-114606250D01*
X200103750Y-114606250D01*
X200111101Y-114606611D01*
X200111101Y-114606611D01*
G37*
D18*
X199441250Y-114756250D03*
D11*
G36*
X200111101Y-115106611D02*
G01*
X200118382Y-115107691D01*
X200125521Y-115109479D01*
X200132451Y-115111959D01*
X200139105Y-115115106D01*
X200145418Y-115118890D01*
X200151329Y-115123274D01*
X200156783Y-115128217D01*
X200161726Y-115133671D01*
X200166110Y-115139582D01*
X200169894Y-115145895D01*
X200173041Y-115152549D01*
X200175521Y-115159479D01*
X200177309Y-115166618D01*
X200178389Y-115173899D01*
X200178750Y-115181250D01*
X200178750Y-115331250D01*
X200178389Y-115338601D01*
X200177309Y-115345882D01*
X200175521Y-115353021D01*
X200173041Y-115359951D01*
X200169894Y-115366605D01*
X200166110Y-115372918D01*
X200161726Y-115378829D01*
X200156783Y-115384283D01*
X200151329Y-115389226D01*
X200145418Y-115393610D01*
X200139105Y-115397394D01*
X200132451Y-115400541D01*
X200125521Y-115403021D01*
X200118382Y-115404809D01*
X200111101Y-115405889D01*
X200103750Y-115406250D01*
X198778750Y-115406250D01*
X198771399Y-115405889D01*
X198764118Y-115404809D01*
X198756979Y-115403021D01*
X198750049Y-115400541D01*
X198743395Y-115397394D01*
X198737082Y-115393610D01*
X198731171Y-115389226D01*
X198725717Y-115384283D01*
X198720774Y-115378829D01*
X198716390Y-115372918D01*
X198712606Y-115366605D01*
X198709459Y-115359951D01*
X198706979Y-115353021D01*
X198705191Y-115345882D01*
X198704111Y-115338601D01*
X198703750Y-115331250D01*
X198703750Y-115181250D01*
X198704111Y-115173899D01*
X198705191Y-115166618D01*
X198706979Y-115159479D01*
X198709459Y-115152549D01*
X198712606Y-115145895D01*
X198716390Y-115139582D01*
X198720774Y-115133671D01*
X198725717Y-115128217D01*
X198731171Y-115123274D01*
X198737082Y-115118890D01*
X198743395Y-115115106D01*
X198750049Y-115111959D01*
X198756979Y-115109479D01*
X198764118Y-115107691D01*
X198771399Y-115106611D01*
X198778750Y-115106250D01*
X200103750Y-115106250D01*
X200111101Y-115106611D01*
X200111101Y-115106611D01*
G37*
D18*
X199441250Y-115256250D03*
D11*
G36*
X200111101Y-115606611D02*
G01*
X200118382Y-115607691D01*
X200125521Y-115609479D01*
X200132451Y-115611959D01*
X200139105Y-115615106D01*
X200145418Y-115618890D01*
X200151329Y-115623274D01*
X200156783Y-115628217D01*
X200161726Y-115633671D01*
X200166110Y-115639582D01*
X200169894Y-115645895D01*
X200173041Y-115652549D01*
X200175521Y-115659479D01*
X200177309Y-115666618D01*
X200178389Y-115673899D01*
X200178750Y-115681250D01*
X200178750Y-115831250D01*
X200178389Y-115838601D01*
X200177309Y-115845882D01*
X200175521Y-115853021D01*
X200173041Y-115859951D01*
X200169894Y-115866605D01*
X200166110Y-115872918D01*
X200161726Y-115878829D01*
X200156783Y-115884283D01*
X200151329Y-115889226D01*
X200145418Y-115893610D01*
X200139105Y-115897394D01*
X200132451Y-115900541D01*
X200125521Y-115903021D01*
X200118382Y-115904809D01*
X200111101Y-115905889D01*
X200103750Y-115906250D01*
X198778750Y-115906250D01*
X198771399Y-115905889D01*
X198764118Y-115904809D01*
X198756979Y-115903021D01*
X198750049Y-115900541D01*
X198743395Y-115897394D01*
X198737082Y-115893610D01*
X198731171Y-115889226D01*
X198725717Y-115884283D01*
X198720774Y-115878829D01*
X198716390Y-115872918D01*
X198712606Y-115866605D01*
X198709459Y-115859951D01*
X198706979Y-115853021D01*
X198705191Y-115845882D01*
X198704111Y-115838601D01*
X198703750Y-115831250D01*
X198703750Y-115681250D01*
X198704111Y-115673899D01*
X198705191Y-115666618D01*
X198706979Y-115659479D01*
X198709459Y-115652549D01*
X198712606Y-115645895D01*
X198716390Y-115639582D01*
X198720774Y-115633671D01*
X198725717Y-115628217D01*
X198731171Y-115623274D01*
X198737082Y-115618890D01*
X198743395Y-115615106D01*
X198750049Y-115611959D01*
X198756979Y-115609479D01*
X198764118Y-115607691D01*
X198771399Y-115606611D01*
X198778750Y-115606250D01*
X200103750Y-115606250D01*
X200111101Y-115606611D01*
X200111101Y-115606611D01*
G37*
D18*
X199441250Y-115756250D03*
D11*
G36*
X200111101Y-116106611D02*
G01*
X200118382Y-116107691D01*
X200125521Y-116109479D01*
X200132451Y-116111959D01*
X200139105Y-116115106D01*
X200145418Y-116118890D01*
X200151329Y-116123274D01*
X200156783Y-116128217D01*
X200161726Y-116133671D01*
X200166110Y-116139582D01*
X200169894Y-116145895D01*
X200173041Y-116152549D01*
X200175521Y-116159479D01*
X200177309Y-116166618D01*
X200178389Y-116173899D01*
X200178750Y-116181250D01*
X200178750Y-116331250D01*
X200178389Y-116338601D01*
X200177309Y-116345882D01*
X200175521Y-116353021D01*
X200173041Y-116359951D01*
X200169894Y-116366605D01*
X200166110Y-116372918D01*
X200161726Y-116378829D01*
X200156783Y-116384283D01*
X200151329Y-116389226D01*
X200145418Y-116393610D01*
X200139105Y-116397394D01*
X200132451Y-116400541D01*
X200125521Y-116403021D01*
X200118382Y-116404809D01*
X200111101Y-116405889D01*
X200103750Y-116406250D01*
X198778750Y-116406250D01*
X198771399Y-116405889D01*
X198764118Y-116404809D01*
X198756979Y-116403021D01*
X198750049Y-116400541D01*
X198743395Y-116397394D01*
X198737082Y-116393610D01*
X198731171Y-116389226D01*
X198725717Y-116384283D01*
X198720774Y-116378829D01*
X198716390Y-116372918D01*
X198712606Y-116366605D01*
X198709459Y-116359951D01*
X198706979Y-116353021D01*
X198705191Y-116345882D01*
X198704111Y-116338601D01*
X198703750Y-116331250D01*
X198703750Y-116181250D01*
X198704111Y-116173899D01*
X198705191Y-116166618D01*
X198706979Y-116159479D01*
X198709459Y-116152549D01*
X198712606Y-116145895D01*
X198716390Y-116139582D01*
X198720774Y-116133671D01*
X198725717Y-116128217D01*
X198731171Y-116123274D01*
X198737082Y-116118890D01*
X198743395Y-116115106D01*
X198750049Y-116111959D01*
X198756979Y-116109479D01*
X198764118Y-116107691D01*
X198771399Y-116106611D01*
X198778750Y-116106250D01*
X200103750Y-116106250D01*
X200111101Y-116106611D01*
X200111101Y-116106611D01*
G37*
D18*
X199441250Y-116256250D03*
D11*
G36*
X198111101Y-116931611D02*
G01*
X198118382Y-116932691D01*
X198125521Y-116934479D01*
X198132451Y-116936959D01*
X198139105Y-116940106D01*
X198145418Y-116943890D01*
X198151329Y-116948274D01*
X198156783Y-116953217D01*
X198161726Y-116958671D01*
X198166110Y-116964582D01*
X198169894Y-116970895D01*
X198173041Y-116977549D01*
X198175521Y-116984479D01*
X198177309Y-116991618D01*
X198178389Y-116998899D01*
X198178750Y-117006250D01*
X198178750Y-118331250D01*
X198178389Y-118338601D01*
X198177309Y-118345882D01*
X198175521Y-118353021D01*
X198173041Y-118359951D01*
X198169894Y-118366605D01*
X198166110Y-118372918D01*
X198161726Y-118378829D01*
X198156783Y-118384283D01*
X198151329Y-118389226D01*
X198145418Y-118393610D01*
X198139105Y-118397394D01*
X198132451Y-118400541D01*
X198125521Y-118403021D01*
X198118382Y-118404809D01*
X198111101Y-118405889D01*
X198103750Y-118406250D01*
X197953750Y-118406250D01*
X197946399Y-118405889D01*
X197939118Y-118404809D01*
X197931979Y-118403021D01*
X197925049Y-118400541D01*
X197918395Y-118397394D01*
X197912082Y-118393610D01*
X197906171Y-118389226D01*
X197900717Y-118384283D01*
X197895774Y-118378829D01*
X197891390Y-118372918D01*
X197887606Y-118366605D01*
X197884459Y-118359951D01*
X197881979Y-118353021D01*
X197880191Y-118345882D01*
X197879111Y-118338601D01*
X197878750Y-118331250D01*
X197878750Y-117006250D01*
X197879111Y-116998899D01*
X197880191Y-116991618D01*
X197881979Y-116984479D01*
X197884459Y-116977549D01*
X197887606Y-116970895D01*
X197891390Y-116964582D01*
X197895774Y-116958671D01*
X197900717Y-116953217D01*
X197906171Y-116948274D01*
X197912082Y-116943890D01*
X197918395Y-116940106D01*
X197925049Y-116936959D01*
X197931979Y-116934479D01*
X197939118Y-116932691D01*
X197946399Y-116931611D01*
X197953750Y-116931250D01*
X198103750Y-116931250D01*
X198111101Y-116931611D01*
X198111101Y-116931611D01*
G37*
D18*
X198028750Y-117668750D03*
D11*
G36*
X197611101Y-116931611D02*
G01*
X197618382Y-116932691D01*
X197625521Y-116934479D01*
X197632451Y-116936959D01*
X197639105Y-116940106D01*
X197645418Y-116943890D01*
X197651329Y-116948274D01*
X197656783Y-116953217D01*
X197661726Y-116958671D01*
X197666110Y-116964582D01*
X197669894Y-116970895D01*
X197673041Y-116977549D01*
X197675521Y-116984479D01*
X197677309Y-116991618D01*
X197678389Y-116998899D01*
X197678750Y-117006250D01*
X197678750Y-118331250D01*
X197678389Y-118338601D01*
X197677309Y-118345882D01*
X197675521Y-118353021D01*
X197673041Y-118359951D01*
X197669894Y-118366605D01*
X197666110Y-118372918D01*
X197661726Y-118378829D01*
X197656783Y-118384283D01*
X197651329Y-118389226D01*
X197645418Y-118393610D01*
X197639105Y-118397394D01*
X197632451Y-118400541D01*
X197625521Y-118403021D01*
X197618382Y-118404809D01*
X197611101Y-118405889D01*
X197603750Y-118406250D01*
X197453750Y-118406250D01*
X197446399Y-118405889D01*
X197439118Y-118404809D01*
X197431979Y-118403021D01*
X197425049Y-118400541D01*
X197418395Y-118397394D01*
X197412082Y-118393610D01*
X197406171Y-118389226D01*
X197400717Y-118384283D01*
X197395774Y-118378829D01*
X197391390Y-118372918D01*
X197387606Y-118366605D01*
X197384459Y-118359951D01*
X197381979Y-118353021D01*
X197380191Y-118345882D01*
X197379111Y-118338601D01*
X197378750Y-118331250D01*
X197378750Y-117006250D01*
X197379111Y-116998899D01*
X197380191Y-116991618D01*
X197381979Y-116984479D01*
X197384459Y-116977549D01*
X197387606Y-116970895D01*
X197391390Y-116964582D01*
X197395774Y-116958671D01*
X197400717Y-116953217D01*
X197406171Y-116948274D01*
X197412082Y-116943890D01*
X197418395Y-116940106D01*
X197425049Y-116936959D01*
X197431979Y-116934479D01*
X197439118Y-116932691D01*
X197446399Y-116931611D01*
X197453750Y-116931250D01*
X197603750Y-116931250D01*
X197611101Y-116931611D01*
X197611101Y-116931611D01*
G37*
D18*
X197528750Y-117668750D03*
D11*
G36*
X197111101Y-116931611D02*
G01*
X197118382Y-116932691D01*
X197125521Y-116934479D01*
X197132451Y-116936959D01*
X197139105Y-116940106D01*
X197145418Y-116943890D01*
X197151329Y-116948274D01*
X197156783Y-116953217D01*
X197161726Y-116958671D01*
X197166110Y-116964582D01*
X197169894Y-116970895D01*
X197173041Y-116977549D01*
X197175521Y-116984479D01*
X197177309Y-116991618D01*
X197178389Y-116998899D01*
X197178750Y-117006250D01*
X197178750Y-118331250D01*
X197178389Y-118338601D01*
X197177309Y-118345882D01*
X197175521Y-118353021D01*
X197173041Y-118359951D01*
X197169894Y-118366605D01*
X197166110Y-118372918D01*
X197161726Y-118378829D01*
X197156783Y-118384283D01*
X197151329Y-118389226D01*
X197145418Y-118393610D01*
X197139105Y-118397394D01*
X197132451Y-118400541D01*
X197125521Y-118403021D01*
X197118382Y-118404809D01*
X197111101Y-118405889D01*
X197103750Y-118406250D01*
X196953750Y-118406250D01*
X196946399Y-118405889D01*
X196939118Y-118404809D01*
X196931979Y-118403021D01*
X196925049Y-118400541D01*
X196918395Y-118397394D01*
X196912082Y-118393610D01*
X196906171Y-118389226D01*
X196900717Y-118384283D01*
X196895774Y-118378829D01*
X196891390Y-118372918D01*
X196887606Y-118366605D01*
X196884459Y-118359951D01*
X196881979Y-118353021D01*
X196880191Y-118345882D01*
X196879111Y-118338601D01*
X196878750Y-118331250D01*
X196878750Y-117006250D01*
X196879111Y-116998899D01*
X196880191Y-116991618D01*
X196881979Y-116984479D01*
X196884459Y-116977549D01*
X196887606Y-116970895D01*
X196891390Y-116964582D01*
X196895774Y-116958671D01*
X196900717Y-116953217D01*
X196906171Y-116948274D01*
X196912082Y-116943890D01*
X196918395Y-116940106D01*
X196925049Y-116936959D01*
X196931979Y-116934479D01*
X196939118Y-116932691D01*
X196946399Y-116931611D01*
X196953750Y-116931250D01*
X197103750Y-116931250D01*
X197111101Y-116931611D01*
X197111101Y-116931611D01*
G37*
D18*
X197028750Y-117668750D03*
D11*
G36*
X196611101Y-116931611D02*
G01*
X196618382Y-116932691D01*
X196625521Y-116934479D01*
X196632451Y-116936959D01*
X196639105Y-116940106D01*
X196645418Y-116943890D01*
X196651329Y-116948274D01*
X196656783Y-116953217D01*
X196661726Y-116958671D01*
X196666110Y-116964582D01*
X196669894Y-116970895D01*
X196673041Y-116977549D01*
X196675521Y-116984479D01*
X196677309Y-116991618D01*
X196678389Y-116998899D01*
X196678750Y-117006250D01*
X196678750Y-118331250D01*
X196678389Y-118338601D01*
X196677309Y-118345882D01*
X196675521Y-118353021D01*
X196673041Y-118359951D01*
X196669894Y-118366605D01*
X196666110Y-118372918D01*
X196661726Y-118378829D01*
X196656783Y-118384283D01*
X196651329Y-118389226D01*
X196645418Y-118393610D01*
X196639105Y-118397394D01*
X196632451Y-118400541D01*
X196625521Y-118403021D01*
X196618382Y-118404809D01*
X196611101Y-118405889D01*
X196603750Y-118406250D01*
X196453750Y-118406250D01*
X196446399Y-118405889D01*
X196439118Y-118404809D01*
X196431979Y-118403021D01*
X196425049Y-118400541D01*
X196418395Y-118397394D01*
X196412082Y-118393610D01*
X196406171Y-118389226D01*
X196400717Y-118384283D01*
X196395774Y-118378829D01*
X196391390Y-118372918D01*
X196387606Y-118366605D01*
X196384459Y-118359951D01*
X196381979Y-118353021D01*
X196380191Y-118345882D01*
X196379111Y-118338601D01*
X196378750Y-118331250D01*
X196378750Y-117006250D01*
X196379111Y-116998899D01*
X196380191Y-116991618D01*
X196381979Y-116984479D01*
X196384459Y-116977549D01*
X196387606Y-116970895D01*
X196391390Y-116964582D01*
X196395774Y-116958671D01*
X196400717Y-116953217D01*
X196406171Y-116948274D01*
X196412082Y-116943890D01*
X196418395Y-116940106D01*
X196425049Y-116936959D01*
X196431979Y-116934479D01*
X196439118Y-116932691D01*
X196446399Y-116931611D01*
X196453750Y-116931250D01*
X196603750Y-116931250D01*
X196611101Y-116931611D01*
X196611101Y-116931611D01*
G37*
D18*
X196528750Y-117668750D03*
D11*
G36*
X196111101Y-116931611D02*
G01*
X196118382Y-116932691D01*
X196125521Y-116934479D01*
X196132451Y-116936959D01*
X196139105Y-116940106D01*
X196145418Y-116943890D01*
X196151329Y-116948274D01*
X196156783Y-116953217D01*
X196161726Y-116958671D01*
X196166110Y-116964582D01*
X196169894Y-116970895D01*
X196173041Y-116977549D01*
X196175521Y-116984479D01*
X196177309Y-116991618D01*
X196178389Y-116998899D01*
X196178750Y-117006250D01*
X196178750Y-118331250D01*
X196178389Y-118338601D01*
X196177309Y-118345882D01*
X196175521Y-118353021D01*
X196173041Y-118359951D01*
X196169894Y-118366605D01*
X196166110Y-118372918D01*
X196161726Y-118378829D01*
X196156783Y-118384283D01*
X196151329Y-118389226D01*
X196145418Y-118393610D01*
X196139105Y-118397394D01*
X196132451Y-118400541D01*
X196125521Y-118403021D01*
X196118382Y-118404809D01*
X196111101Y-118405889D01*
X196103750Y-118406250D01*
X195953750Y-118406250D01*
X195946399Y-118405889D01*
X195939118Y-118404809D01*
X195931979Y-118403021D01*
X195925049Y-118400541D01*
X195918395Y-118397394D01*
X195912082Y-118393610D01*
X195906171Y-118389226D01*
X195900717Y-118384283D01*
X195895774Y-118378829D01*
X195891390Y-118372918D01*
X195887606Y-118366605D01*
X195884459Y-118359951D01*
X195881979Y-118353021D01*
X195880191Y-118345882D01*
X195879111Y-118338601D01*
X195878750Y-118331250D01*
X195878750Y-117006250D01*
X195879111Y-116998899D01*
X195880191Y-116991618D01*
X195881979Y-116984479D01*
X195884459Y-116977549D01*
X195887606Y-116970895D01*
X195891390Y-116964582D01*
X195895774Y-116958671D01*
X195900717Y-116953217D01*
X195906171Y-116948274D01*
X195912082Y-116943890D01*
X195918395Y-116940106D01*
X195925049Y-116936959D01*
X195931979Y-116934479D01*
X195939118Y-116932691D01*
X195946399Y-116931611D01*
X195953750Y-116931250D01*
X196103750Y-116931250D01*
X196111101Y-116931611D01*
X196111101Y-116931611D01*
G37*
D18*
X196028750Y-117668750D03*
D11*
G36*
X195611101Y-116931611D02*
G01*
X195618382Y-116932691D01*
X195625521Y-116934479D01*
X195632451Y-116936959D01*
X195639105Y-116940106D01*
X195645418Y-116943890D01*
X195651329Y-116948274D01*
X195656783Y-116953217D01*
X195661726Y-116958671D01*
X195666110Y-116964582D01*
X195669894Y-116970895D01*
X195673041Y-116977549D01*
X195675521Y-116984479D01*
X195677309Y-116991618D01*
X195678389Y-116998899D01*
X195678750Y-117006250D01*
X195678750Y-118331250D01*
X195678389Y-118338601D01*
X195677309Y-118345882D01*
X195675521Y-118353021D01*
X195673041Y-118359951D01*
X195669894Y-118366605D01*
X195666110Y-118372918D01*
X195661726Y-118378829D01*
X195656783Y-118384283D01*
X195651329Y-118389226D01*
X195645418Y-118393610D01*
X195639105Y-118397394D01*
X195632451Y-118400541D01*
X195625521Y-118403021D01*
X195618382Y-118404809D01*
X195611101Y-118405889D01*
X195603750Y-118406250D01*
X195453750Y-118406250D01*
X195446399Y-118405889D01*
X195439118Y-118404809D01*
X195431979Y-118403021D01*
X195425049Y-118400541D01*
X195418395Y-118397394D01*
X195412082Y-118393610D01*
X195406171Y-118389226D01*
X195400717Y-118384283D01*
X195395774Y-118378829D01*
X195391390Y-118372918D01*
X195387606Y-118366605D01*
X195384459Y-118359951D01*
X195381979Y-118353021D01*
X195380191Y-118345882D01*
X195379111Y-118338601D01*
X195378750Y-118331250D01*
X195378750Y-117006250D01*
X195379111Y-116998899D01*
X195380191Y-116991618D01*
X195381979Y-116984479D01*
X195384459Y-116977549D01*
X195387606Y-116970895D01*
X195391390Y-116964582D01*
X195395774Y-116958671D01*
X195400717Y-116953217D01*
X195406171Y-116948274D01*
X195412082Y-116943890D01*
X195418395Y-116940106D01*
X195425049Y-116936959D01*
X195431979Y-116934479D01*
X195439118Y-116932691D01*
X195446399Y-116931611D01*
X195453750Y-116931250D01*
X195603750Y-116931250D01*
X195611101Y-116931611D01*
X195611101Y-116931611D01*
G37*
D18*
X195528750Y-117668750D03*
D11*
G36*
X195111101Y-116931611D02*
G01*
X195118382Y-116932691D01*
X195125521Y-116934479D01*
X195132451Y-116936959D01*
X195139105Y-116940106D01*
X195145418Y-116943890D01*
X195151329Y-116948274D01*
X195156783Y-116953217D01*
X195161726Y-116958671D01*
X195166110Y-116964582D01*
X195169894Y-116970895D01*
X195173041Y-116977549D01*
X195175521Y-116984479D01*
X195177309Y-116991618D01*
X195178389Y-116998899D01*
X195178750Y-117006250D01*
X195178750Y-118331250D01*
X195178389Y-118338601D01*
X195177309Y-118345882D01*
X195175521Y-118353021D01*
X195173041Y-118359951D01*
X195169894Y-118366605D01*
X195166110Y-118372918D01*
X195161726Y-118378829D01*
X195156783Y-118384283D01*
X195151329Y-118389226D01*
X195145418Y-118393610D01*
X195139105Y-118397394D01*
X195132451Y-118400541D01*
X195125521Y-118403021D01*
X195118382Y-118404809D01*
X195111101Y-118405889D01*
X195103750Y-118406250D01*
X194953750Y-118406250D01*
X194946399Y-118405889D01*
X194939118Y-118404809D01*
X194931979Y-118403021D01*
X194925049Y-118400541D01*
X194918395Y-118397394D01*
X194912082Y-118393610D01*
X194906171Y-118389226D01*
X194900717Y-118384283D01*
X194895774Y-118378829D01*
X194891390Y-118372918D01*
X194887606Y-118366605D01*
X194884459Y-118359951D01*
X194881979Y-118353021D01*
X194880191Y-118345882D01*
X194879111Y-118338601D01*
X194878750Y-118331250D01*
X194878750Y-117006250D01*
X194879111Y-116998899D01*
X194880191Y-116991618D01*
X194881979Y-116984479D01*
X194884459Y-116977549D01*
X194887606Y-116970895D01*
X194891390Y-116964582D01*
X194895774Y-116958671D01*
X194900717Y-116953217D01*
X194906171Y-116948274D01*
X194912082Y-116943890D01*
X194918395Y-116940106D01*
X194925049Y-116936959D01*
X194931979Y-116934479D01*
X194939118Y-116932691D01*
X194946399Y-116931611D01*
X194953750Y-116931250D01*
X195103750Y-116931250D01*
X195111101Y-116931611D01*
X195111101Y-116931611D01*
G37*
D18*
X195028750Y-117668750D03*
D11*
G36*
X194611101Y-116931611D02*
G01*
X194618382Y-116932691D01*
X194625521Y-116934479D01*
X194632451Y-116936959D01*
X194639105Y-116940106D01*
X194645418Y-116943890D01*
X194651329Y-116948274D01*
X194656783Y-116953217D01*
X194661726Y-116958671D01*
X194666110Y-116964582D01*
X194669894Y-116970895D01*
X194673041Y-116977549D01*
X194675521Y-116984479D01*
X194677309Y-116991618D01*
X194678389Y-116998899D01*
X194678750Y-117006250D01*
X194678750Y-118331250D01*
X194678389Y-118338601D01*
X194677309Y-118345882D01*
X194675521Y-118353021D01*
X194673041Y-118359951D01*
X194669894Y-118366605D01*
X194666110Y-118372918D01*
X194661726Y-118378829D01*
X194656783Y-118384283D01*
X194651329Y-118389226D01*
X194645418Y-118393610D01*
X194639105Y-118397394D01*
X194632451Y-118400541D01*
X194625521Y-118403021D01*
X194618382Y-118404809D01*
X194611101Y-118405889D01*
X194603750Y-118406250D01*
X194453750Y-118406250D01*
X194446399Y-118405889D01*
X194439118Y-118404809D01*
X194431979Y-118403021D01*
X194425049Y-118400541D01*
X194418395Y-118397394D01*
X194412082Y-118393610D01*
X194406171Y-118389226D01*
X194400717Y-118384283D01*
X194395774Y-118378829D01*
X194391390Y-118372918D01*
X194387606Y-118366605D01*
X194384459Y-118359951D01*
X194381979Y-118353021D01*
X194380191Y-118345882D01*
X194379111Y-118338601D01*
X194378750Y-118331250D01*
X194378750Y-117006250D01*
X194379111Y-116998899D01*
X194380191Y-116991618D01*
X194381979Y-116984479D01*
X194384459Y-116977549D01*
X194387606Y-116970895D01*
X194391390Y-116964582D01*
X194395774Y-116958671D01*
X194400717Y-116953217D01*
X194406171Y-116948274D01*
X194412082Y-116943890D01*
X194418395Y-116940106D01*
X194425049Y-116936959D01*
X194431979Y-116934479D01*
X194439118Y-116932691D01*
X194446399Y-116931611D01*
X194453750Y-116931250D01*
X194603750Y-116931250D01*
X194611101Y-116931611D01*
X194611101Y-116931611D01*
G37*
D18*
X194528750Y-117668750D03*
D11*
G36*
X194111101Y-116931611D02*
G01*
X194118382Y-116932691D01*
X194125521Y-116934479D01*
X194132451Y-116936959D01*
X194139105Y-116940106D01*
X194145418Y-116943890D01*
X194151329Y-116948274D01*
X194156783Y-116953217D01*
X194161726Y-116958671D01*
X194166110Y-116964582D01*
X194169894Y-116970895D01*
X194173041Y-116977549D01*
X194175521Y-116984479D01*
X194177309Y-116991618D01*
X194178389Y-116998899D01*
X194178750Y-117006250D01*
X194178750Y-118331250D01*
X194178389Y-118338601D01*
X194177309Y-118345882D01*
X194175521Y-118353021D01*
X194173041Y-118359951D01*
X194169894Y-118366605D01*
X194166110Y-118372918D01*
X194161726Y-118378829D01*
X194156783Y-118384283D01*
X194151329Y-118389226D01*
X194145418Y-118393610D01*
X194139105Y-118397394D01*
X194132451Y-118400541D01*
X194125521Y-118403021D01*
X194118382Y-118404809D01*
X194111101Y-118405889D01*
X194103750Y-118406250D01*
X193953750Y-118406250D01*
X193946399Y-118405889D01*
X193939118Y-118404809D01*
X193931979Y-118403021D01*
X193925049Y-118400541D01*
X193918395Y-118397394D01*
X193912082Y-118393610D01*
X193906171Y-118389226D01*
X193900717Y-118384283D01*
X193895774Y-118378829D01*
X193891390Y-118372918D01*
X193887606Y-118366605D01*
X193884459Y-118359951D01*
X193881979Y-118353021D01*
X193880191Y-118345882D01*
X193879111Y-118338601D01*
X193878750Y-118331250D01*
X193878750Y-117006250D01*
X193879111Y-116998899D01*
X193880191Y-116991618D01*
X193881979Y-116984479D01*
X193884459Y-116977549D01*
X193887606Y-116970895D01*
X193891390Y-116964582D01*
X193895774Y-116958671D01*
X193900717Y-116953217D01*
X193906171Y-116948274D01*
X193912082Y-116943890D01*
X193918395Y-116940106D01*
X193925049Y-116936959D01*
X193931979Y-116934479D01*
X193939118Y-116932691D01*
X193946399Y-116931611D01*
X193953750Y-116931250D01*
X194103750Y-116931250D01*
X194111101Y-116931611D01*
X194111101Y-116931611D01*
G37*
D18*
X194028750Y-117668750D03*
D11*
G36*
X193611101Y-116931611D02*
G01*
X193618382Y-116932691D01*
X193625521Y-116934479D01*
X193632451Y-116936959D01*
X193639105Y-116940106D01*
X193645418Y-116943890D01*
X193651329Y-116948274D01*
X193656783Y-116953217D01*
X193661726Y-116958671D01*
X193666110Y-116964582D01*
X193669894Y-116970895D01*
X193673041Y-116977549D01*
X193675521Y-116984479D01*
X193677309Y-116991618D01*
X193678389Y-116998899D01*
X193678750Y-117006250D01*
X193678750Y-118331250D01*
X193678389Y-118338601D01*
X193677309Y-118345882D01*
X193675521Y-118353021D01*
X193673041Y-118359951D01*
X193669894Y-118366605D01*
X193666110Y-118372918D01*
X193661726Y-118378829D01*
X193656783Y-118384283D01*
X193651329Y-118389226D01*
X193645418Y-118393610D01*
X193639105Y-118397394D01*
X193632451Y-118400541D01*
X193625521Y-118403021D01*
X193618382Y-118404809D01*
X193611101Y-118405889D01*
X193603750Y-118406250D01*
X193453750Y-118406250D01*
X193446399Y-118405889D01*
X193439118Y-118404809D01*
X193431979Y-118403021D01*
X193425049Y-118400541D01*
X193418395Y-118397394D01*
X193412082Y-118393610D01*
X193406171Y-118389226D01*
X193400717Y-118384283D01*
X193395774Y-118378829D01*
X193391390Y-118372918D01*
X193387606Y-118366605D01*
X193384459Y-118359951D01*
X193381979Y-118353021D01*
X193380191Y-118345882D01*
X193379111Y-118338601D01*
X193378750Y-118331250D01*
X193378750Y-117006250D01*
X193379111Y-116998899D01*
X193380191Y-116991618D01*
X193381979Y-116984479D01*
X193384459Y-116977549D01*
X193387606Y-116970895D01*
X193391390Y-116964582D01*
X193395774Y-116958671D01*
X193400717Y-116953217D01*
X193406171Y-116948274D01*
X193412082Y-116943890D01*
X193418395Y-116940106D01*
X193425049Y-116936959D01*
X193431979Y-116934479D01*
X193439118Y-116932691D01*
X193446399Y-116931611D01*
X193453750Y-116931250D01*
X193603750Y-116931250D01*
X193611101Y-116931611D01*
X193611101Y-116931611D01*
G37*
D18*
X193528750Y-117668750D03*
D11*
G36*
X193111101Y-116931611D02*
G01*
X193118382Y-116932691D01*
X193125521Y-116934479D01*
X193132451Y-116936959D01*
X193139105Y-116940106D01*
X193145418Y-116943890D01*
X193151329Y-116948274D01*
X193156783Y-116953217D01*
X193161726Y-116958671D01*
X193166110Y-116964582D01*
X193169894Y-116970895D01*
X193173041Y-116977549D01*
X193175521Y-116984479D01*
X193177309Y-116991618D01*
X193178389Y-116998899D01*
X193178750Y-117006250D01*
X193178750Y-118331250D01*
X193178389Y-118338601D01*
X193177309Y-118345882D01*
X193175521Y-118353021D01*
X193173041Y-118359951D01*
X193169894Y-118366605D01*
X193166110Y-118372918D01*
X193161726Y-118378829D01*
X193156783Y-118384283D01*
X193151329Y-118389226D01*
X193145418Y-118393610D01*
X193139105Y-118397394D01*
X193132451Y-118400541D01*
X193125521Y-118403021D01*
X193118382Y-118404809D01*
X193111101Y-118405889D01*
X193103750Y-118406250D01*
X192953750Y-118406250D01*
X192946399Y-118405889D01*
X192939118Y-118404809D01*
X192931979Y-118403021D01*
X192925049Y-118400541D01*
X192918395Y-118397394D01*
X192912082Y-118393610D01*
X192906171Y-118389226D01*
X192900717Y-118384283D01*
X192895774Y-118378829D01*
X192891390Y-118372918D01*
X192887606Y-118366605D01*
X192884459Y-118359951D01*
X192881979Y-118353021D01*
X192880191Y-118345882D01*
X192879111Y-118338601D01*
X192878750Y-118331250D01*
X192878750Y-117006250D01*
X192879111Y-116998899D01*
X192880191Y-116991618D01*
X192881979Y-116984479D01*
X192884459Y-116977549D01*
X192887606Y-116970895D01*
X192891390Y-116964582D01*
X192895774Y-116958671D01*
X192900717Y-116953217D01*
X192906171Y-116948274D01*
X192912082Y-116943890D01*
X192918395Y-116940106D01*
X192925049Y-116936959D01*
X192931979Y-116934479D01*
X192939118Y-116932691D01*
X192946399Y-116931611D01*
X192953750Y-116931250D01*
X193103750Y-116931250D01*
X193111101Y-116931611D01*
X193111101Y-116931611D01*
G37*
D18*
X193028750Y-117668750D03*
D11*
G36*
X192611101Y-116931611D02*
G01*
X192618382Y-116932691D01*
X192625521Y-116934479D01*
X192632451Y-116936959D01*
X192639105Y-116940106D01*
X192645418Y-116943890D01*
X192651329Y-116948274D01*
X192656783Y-116953217D01*
X192661726Y-116958671D01*
X192666110Y-116964582D01*
X192669894Y-116970895D01*
X192673041Y-116977549D01*
X192675521Y-116984479D01*
X192677309Y-116991618D01*
X192678389Y-116998899D01*
X192678750Y-117006250D01*
X192678750Y-118331250D01*
X192678389Y-118338601D01*
X192677309Y-118345882D01*
X192675521Y-118353021D01*
X192673041Y-118359951D01*
X192669894Y-118366605D01*
X192666110Y-118372918D01*
X192661726Y-118378829D01*
X192656783Y-118384283D01*
X192651329Y-118389226D01*
X192645418Y-118393610D01*
X192639105Y-118397394D01*
X192632451Y-118400541D01*
X192625521Y-118403021D01*
X192618382Y-118404809D01*
X192611101Y-118405889D01*
X192603750Y-118406250D01*
X192453750Y-118406250D01*
X192446399Y-118405889D01*
X192439118Y-118404809D01*
X192431979Y-118403021D01*
X192425049Y-118400541D01*
X192418395Y-118397394D01*
X192412082Y-118393610D01*
X192406171Y-118389226D01*
X192400717Y-118384283D01*
X192395774Y-118378829D01*
X192391390Y-118372918D01*
X192387606Y-118366605D01*
X192384459Y-118359951D01*
X192381979Y-118353021D01*
X192380191Y-118345882D01*
X192379111Y-118338601D01*
X192378750Y-118331250D01*
X192378750Y-117006250D01*
X192379111Y-116998899D01*
X192380191Y-116991618D01*
X192381979Y-116984479D01*
X192384459Y-116977549D01*
X192387606Y-116970895D01*
X192391390Y-116964582D01*
X192395774Y-116958671D01*
X192400717Y-116953217D01*
X192406171Y-116948274D01*
X192412082Y-116943890D01*
X192418395Y-116940106D01*
X192425049Y-116936959D01*
X192431979Y-116934479D01*
X192439118Y-116932691D01*
X192446399Y-116931611D01*
X192453750Y-116931250D01*
X192603750Y-116931250D01*
X192611101Y-116931611D01*
X192611101Y-116931611D01*
G37*
D18*
X192528750Y-117668750D03*
D19*
X191290000Y-90580000D03*
X190340000Y-90580000D03*
X192240000Y-90580000D03*
X192240000Y-92780000D03*
X191290000Y-92780000D03*
X190340000Y-92780000D03*
M02*
