G04 #@! TF.GenerationSoftware,KiCad,Pcbnew,(5.1.4-0)*
G04 #@! TF.CreationDate,2020-12-01T00:52:02+01:00*
G04 #@! TF.ProjectId,stm32split,73746d33-3273-4706-9c69-742e6b696361,rev?*
G04 #@! TF.SameCoordinates,Original*
G04 #@! TF.FileFunction,Profile,NP*
%FSLAX46Y46*%
G04 Gerber Fmt 4.6, Leading zero omitted, Abs format (unit mm)*
G04 Created by KiCad (PCBNEW (5.1.4-0)) date 2020-12-01 00:52:02*
%MOMM*%
%LPD*%
G04 APERTURE LIST*
%ADD10C,0.050000*%
G04 APERTURE END LIST*
D10*
X168050002Y-150000002D02*
G75*
G03X168050002Y-150000002I-1050000J0D01*
G01*
X72552024Y-142247519D02*
G75*
G03X72552024Y-142247519I-1050000J0D01*
G01*
X72550001Y-89000001D02*
G75*
G03X72550001Y-89000001I-1050000J0D01*
G01*
X167723089Y-85332471D02*
G75*
G03X167723089Y-85332471I-1050000J0D01*
G01*
X185470978Y-177803027D02*
X185805309Y-177444855D01*
X135966387Y-171282407D02*
G75*
G02X123079986Y-167632049I20750420J97823413D01*
G01*
X89128603Y-157980256D02*
X55188490Y-157980256D01*
X53188490Y-155980256D02*
X53188490Y-84969599D01*
X101532511Y-72140555D02*
X54765824Y-83014771D01*
X101532511Y-72140554D02*
G75*
G02X120415741Y-69613148I22647388J-97401725D01*
G01*
X120415741Y-69613148D02*
G75*
G02X134541415Y-70909643I-2054015J-99978903D01*
G01*
X183917346Y-79005181D02*
X134541415Y-70909643D01*
X53188490Y-84969599D02*
G75*
G02X54765824Y-83014771I2000000J0D01*
G01*
X55188490Y-157980256D02*
G75*
G02X53188490Y-155980256I0J2000000D01*
G01*
X89128602Y-157980256D02*
G75*
G02X102583331Y-160311034I1J-40000000D01*
G01*
X123079986Y-167632049D02*
X102583331Y-160311034D01*
X177946709Y-180187324D02*
X135966386Y-171282407D01*
X185470978Y-177803027D02*
G75*
G02X177946709Y-180187324I-5864235J5441576D01*
G01*
X186862244Y-79387702D02*
G75*
G02X186260533Y-79344376I1J4200000D01*
G01*
X186862245Y-79387702D02*
X203612878Y-79387702D01*
X203612878Y-79387702D02*
G75*
G02X205612878Y-81387702I0J-2000000D01*
G01*
X185805309Y-177444855D02*
X204805929Y-157089326D01*
X205612877Y-155042249D02*
G75*
G02X204805929Y-157089326I-2999999J0D01*
G01*
X205612878Y-81387702D02*
X205612878Y-155042249D01*
X186260533Y-79344376D02*
X183917346Y-79005181D01*
M02*
