G04 #@! TF.GenerationSoftware,KiCad,Pcbnew,(5.1.4-0)*
G04 #@! TF.CreationDate,2020-12-01T00:52:02+01:00*
G04 #@! TF.ProjectId,stm32split,73746d33-3273-4706-9c69-742e6b696361,rev?*
G04 #@! TF.SameCoordinates,Original*
G04 #@! TF.FileFunction,Legend,Top*
G04 #@! TF.FilePolarity,Positive*
%FSLAX46Y46*%
G04 Gerber Fmt 4.6, Leading zero omitted, Abs format (unit mm)*
G04 Created by KiCad (PCBNEW (5.1.4-0)) date 2020-12-01 00:52:02*
%MOMM*%
%LPD*%
G04 APERTURE LIST*
%ADD10C,0.120000*%
%ADD11C,0.100000*%
G04 APERTURE END LIST*
D10*
X194485000Y-159675000D02*
X194485000Y-163575000D01*
X192485000Y-159675000D02*
X192485000Y-163575000D01*
X194485000Y-159675000D02*
X192485000Y-159675000D01*
X192103750Y-159675000D02*
X192103750Y-163575000D01*
X190103750Y-159675000D02*
X190103750Y-163575000D01*
X192103750Y-159675000D02*
X190103750Y-159675000D01*
X189722500Y-159675000D02*
X189722500Y-163575000D01*
X187722500Y-159675000D02*
X187722500Y-163575000D01*
X189722500Y-159675000D02*
X187722500Y-159675000D01*
X204010000Y-151737500D02*
X204010000Y-155637500D01*
X202010000Y-151737500D02*
X202010000Y-155637500D01*
X204010000Y-151737500D02*
X202010000Y-151737500D01*
X201628750Y-151737500D02*
X201628750Y-155637500D01*
X199628750Y-151737500D02*
X199628750Y-155637500D01*
X201628750Y-151737500D02*
X199628750Y-151737500D01*
X199247500Y-151737500D02*
X199247500Y-155637500D01*
X197247500Y-151737500D02*
X197247500Y-155637500D01*
X199247500Y-151737500D02*
X197247500Y-151737500D01*
X196866250Y-151737500D02*
X196866250Y-155637500D01*
X194866250Y-151737500D02*
X194866250Y-155637500D01*
X196866250Y-151737500D02*
X194866250Y-151737500D01*
X194485000Y-151737500D02*
X194485000Y-155637500D01*
X192485000Y-151737500D02*
X192485000Y-155637500D01*
X194485000Y-151737500D02*
X192485000Y-151737500D01*
X192103750Y-151737500D02*
X192103750Y-155637500D01*
X190103750Y-151737500D02*
X190103750Y-155637500D01*
X192103750Y-151737500D02*
X190103750Y-151737500D01*
X189722500Y-151737500D02*
X189722500Y-155637500D01*
X187722500Y-151737500D02*
X187722500Y-155637500D01*
X189722500Y-151737500D02*
X187722500Y-151737500D01*
X204010000Y-143800000D02*
X204010000Y-147700000D01*
X202010000Y-143800000D02*
X202010000Y-147700000D01*
X204010000Y-143800000D02*
X202010000Y-143800000D01*
X201628750Y-143800000D02*
X201628750Y-147700000D01*
X199628750Y-143800000D02*
X199628750Y-147700000D01*
X201628750Y-143800000D02*
X199628750Y-143800000D01*
X199247500Y-143800000D02*
X199247500Y-147700000D01*
X197247500Y-143800000D02*
X197247500Y-147700000D01*
X199247500Y-143800000D02*
X197247500Y-143800000D01*
X196866250Y-143800000D02*
X196866250Y-147700000D01*
X194866250Y-143800000D02*
X194866250Y-147700000D01*
X196866250Y-143800000D02*
X194866250Y-143800000D01*
X194485000Y-143800000D02*
X194485000Y-147700000D01*
X192485000Y-143800000D02*
X192485000Y-147700000D01*
X194485000Y-143800000D02*
X192485000Y-143800000D01*
X192103750Y-143800000D02*
X192103750Y-147700000D01*
X190103750Y-143800000D02*
X190103750Y-147700000D01*
X192103750Y-143800000D02*
X190103750Y-143800000D01*
X189722500Y-143800000D02*
X189722500Y-147700000D01*
X187722500Y-143800000D02*
X187722500Y-147700000D01*
X189722500Y-143800000D02*
X187722500Y-143800000D01*
X204010000Y-135862500D02*
X204010000Y-139762500D01*
X202010000Y-135862500D02*
X202010000Y-139762500D01*
X204010000Y-135862500D02*
X202010000Y-135862500D01*
X201628750Y-135862500D02*
X201628750Y-139762500D01*
X199628750Y-135862500D02*
X199628750Y-139762500D01*
X201628750Y-135862500D02*
X199628750Y-135862500D01*
X199247500Y-135862500D02*
X199247500Y-139762500D01*
X197247500Y-135862500D02*
X197247500Y-139762500D01*
X199247500Y-135862500D02*
X197247500Y-135862500D01*
X196866250Y-135862500D02*
X196866250Y-139762500D01*
X194866250Y-135862500D02*
X194866250Y-139762500D01*
X196866250Y-135862500D02*
X194866250Y-135862500D01*
X194485000Y-135862500D02*
X194485000Y-139762500D01*
X192485000Y-135862500D02*
X192485000Y-139762500D01*
X194485000Y-135862500D02*
X192485000Y-135862500D01*
X192103750Y-135862500D02*
X192103750Y-139762500D01*
X190103750Y-135862500D02*
X190103750Y-139762500D01*
X192103750Y-135862500D02*
X190103750Y-135862500D01*
X189722500Y-135862500D02*
X189722500Y-139762500D01*
X187722500Y-135862500D02*
X187722500Y-139762500D01*
X189722500Y-135862500D02*
X187722500Y-135862500D01*
X204010000Y-127925000D02*
X204010000Y-131825000D01*
X202010000Y-127925000D02*
X202010000Y-131825000D01*
X204010000Y-127925000D02*
X202010000Y-127925000D01*
X201628750Y-127925000D02*
X201628750Y-131825000D01*
X199628750Y-127925000D02*
X199628750Y-131825000D01*
X201628750Y-127925000D02*
X199628750Y-127925000D01*
X199247500Y-127925000D02*
X199247500Y-131825000D01*
X197247500Y-127925000D02*
X197247500Y-131825000D01*
X199247500Y-127925000D02*
X197247500Y-127925000D01*
X196866250Y-127925000D02*
X196866250Y-131825000D01*
X194866250Y-127925000D02*
X194866250Y-131825000D01*
X196866250Y-127925000D02*
X194866250Y-127925000D01*
X194485000Y-127925000D02*
X194485000Y-131825000D01*
X192485000Y-127925000D02*
X192485000Y-131825000D01*
X194485000Y-127925000D02*
X192485000Y-127925000D01*
X192103750Y-127925000D02*
X192103750Y-131825000D01*
X190103750Y-127925000D02*
X190103750Y-131825000D01*
X192103750Y-127925000D02*
X190103750Y-127925000D01*
X189722500Y-127925000D02*
X189722500Y-131825000D01*
X187722500Y-127925000D02*
X187722500Y-131825000D01*
X189722500Y-127925000D02*
X187722500Y-127925000D01*
X191219721Y-106450000D02*
X191545279Y-106450000D01*
X191219721Y-105430000D02*
X191545279Y-105430000D01*
X187759721Y-91020000D02*
X188085279Y-91020000D01*
X187759721Y-90000000D02*
X188085279Y-90000000D01*
X194842779Y-90000000D02*
X194517221Y-90000000D01*
X194842779Y-91020000D02*
X194517221Y-91020000D01*
X188735279Y-113750000D02*
X188409721Y-113750000D01*
X188735279Y-114770000D02*
X188409721Y-114770000D01*
X199380000Y-100190000D02*
G75*
G03X199380000Y-100190000I-950000J0D01*
G01*
X199387500Y-97631250D02*
G75*
G03X199387500Y-97631250I-950000J0D01*
G01*
X199380000Y-95050000D02*
G75*
G03X199380000Y-95050000I-950000J0D01*
G01*
X197850000Y-122120000D02*
X192100000Y-122120000D01*
X197850000Y-125720000D02*
X197850000Y-122120000D01*
X192100000Y-125720000D02*
X197850000Y-125720000D01*
X187130000Y-103474721D02*
X187130000Y-103800279D01*
X188150000Y-103474721D02*
X188150000Y-103800279D01*
X196564721Y-121690000D02*
X196890279Y-121690000D01*
X196564721Y-120670000D02*
X196890279Y-120670000D01*
X196564721Y-120180000D02*
X196890279Y-120180000D01*
X196564721Y-119160000D02*
X196890279Y-119160000D01*
X188819721Y-117980000D02*
X189145279Y-117980000D01*
X188819721Y-116960000D02*
X189145279Y-116960000D01*
X191542779Y-106950000D02*
X191217221Y-106950000D01*
X191542779Y-107970000D02*
X191217221Y-107970000D01*
X201750279Y-108960000D02*
X201424721Y-108960000D01*
X201750279Y-109980000D02*
X201424721Y-109980000D01*
X191780000Y-119880279D02*
X191780000Y-119554721D01*
X190760000Y-119880279D02*
X190760000Y-119554721D01*
X188190000Y-96739564D02*
X188190000Y-95535436D01*
X186370000Y-96739564D02*
X186370000Y-95535436D01*
X190655279Y-102630000D02*
X190329721Y-102630000D01*
X190655279Y-103650000D02*
X190329721Y-103650000D01*
X189790000Y-97280279D02*
X189790000Y-96954721D01*
X188770000Y-97280279D02*
X188770000Y-96954721D01*
X198200000Y-124544721D02*
X198200000Y-124870279D01*
X199220000Y-124544721D02*
X199220000Y-124870279D01*
X190370000Y-124544721D02*
X190370000Y-124870279D01*
X191390000Y-124544721D02*
X191390000Y-124870279D01*
X189380000Y-120285279D02*
X189380000Y-119959721D01*
X188360000Y-120285279D02*
X188360000Y-119959721D01*
X192120000Y-99660000D02*
X192120000Y-101120000D01*
X188960000Y-99660000D02*
X188960000Y-101820000D01*
X188960000Y-99660000D02*
X189890000Y-99660000D01*
X192120000Y-99660000D02*
X191190000Y-99660000D01*
X192118750Y-117116250D02*
X192118750Y-118406250D01*
X191668750Y-117116250D02*
X192118750Y-117116250D01*
X191668750Y-116666250D02*
X191668750Y-117116250D01*
X191668750Y-109896250D02*
X192118750Y-109896250D01*
X191668750Y-110346250D02*
X191668750Y-109896250D01*
X198888750Y-117116250D02*
X198438750Y-117116250D01*
X198888750Y-116666250D02*
X198888750Y-117116250D01*
X198888750Y-109896250D02*
X198438750Y-109896250D01*
X198888750Y-110346250D02*
X198888750Y-109896250D01*
X189680000Y-90780000D02*
X189680000Y-93230000D01*
X192900000Y-92580000D02*
X192900000Y-90780000D01*
D11*
X199859047Y-99960000D02*
X199811428Y-99936190D01*
X199740000Y-99936190D01*
X199668571Y-99960000D01*
X199620952Y-100007619D01*
X199597142Y-100055238D01*
X199573333Y-100150476D01*
X199573333Y-100221904D01*
X199597142Y-100317142D01*
X199620952Y-100364761D01*
X199668571Y-100412380D01*
X199740000Y-100436190D01*
X199787619Y-100436190D01*
X199859047Y-100412380D01*
X199882857Y-100388571D01*
X199882857Y-100221904D01*
X199787619Y-100221904D01*
X200097142Y-100436190D02*
X200097142Y-99936190D01*
X200382857Y-100436190D01*
X200382857Y-99936190D01*
X200620952Y-100436190D02*
X200620952Y-99936190D01*
X200740000Y-99936190D01*
X200811428Y-99960000D01*
X200859047Y-100007619D01*
X200882857Y-100055238D01*
X200906666Y-100150476D01*
X200906666Y-100221904D01*
X200882857Y-100317142D01*
X200859047Y-100364761D01*
X200811428Y-100412380D01*
X200740000Y-100436190D01*
X200620952Y-100436190D01*
X199599047Y-97852380D02*
X199670476Y-97876190D01*
X199789523Y-97876190D01*
X199837142Y-97852380D01*
X199860952Y-97828571D01*
X199884761Y-97780952D01*
X199884761Y-97733333D01*
X199860952Y-97685714D01*
X199837142Y-97661904D01*
X199789523Y-97638095D01*
X199694285Y-97614285D01*
X199646666Y-97590476D01*
X199622857Y-97566666D01*
X199599047Y-97519047D01*
X199599047Y-97471428D01*
X199622857Y-97423809D01*
X199646666Y-97400000D01*
X199694285Y-97376190D01*
X199813333Y-97376190D01*
X199884761Y-97400000D01*
X200051428Y-97376190D02*
X200170476Y-97876190D01*
X200265714Y-97519047D01*
X200360952Y-97876190D01*
X200480000Y-97376190D01*
X200670476Y-97876190D02*
X200670476Y-97376190D01*
X200789523Y-97376190D01*
X200860952Y-97400000D01*
X200908571Y-97447619D01*
X200932380Y-97495238D01*
X200956190Y-97590476D01*
X200956190Y-97661904D01*
X200932380Y-97757142D01*
X200908571Y-97804761D01*
X200860952Y-97852380D01*
X200789523Y-97876190D01*
X200670476Y-97876190D01*
X201456190Y-97828571D02*
X201432380Y-97852380D01*
X201360952Y-97876190D01*
X201313333Y-97876190D01*
X201241904Y-97852380D01*
X201194285Y-97804761D01*
X201170476Y-97757142D01*
X201146666Y-97661904D01*
X201146666Y-97590476D01*
X201170476Y-97495238D01*
X201194285Y-97447619D01*
X201241904Y-97400000D01*
X201313333Y-97376190D01*
X201360952Y-97376190D01*
X201432380Y-97400000D01*
X201456190Y-97423809D01*
X201908571Y-97876190D02*
X201670476Y-97876190D01*
X201670476Y-97376190D01*
X202075238Y-97876190D02*
X202075238Y-97376190D01*
X202360952Y-97876190D02*
X202146666Y-97590476D01*
X202360952Y-97376190D02*
X202075238Y-97661904D01*
X199590476Y-95252380D02*
X199661904Y-95276190D01*
X199780952Y-95276190D01*
X199828571Y-95252380D01*
X199852380Y-95228571D01*
X199876190Y-95180952D01*
X199876190Y-95133333D01*
X199852380Y-95085714D01*
X199828571Y-95061904D01*
X199780952Y-95038095D01*
X199685714Y-95014285D01*
X199638095Y-94990476D01*
X199614285Y-94966666D01*
X199590476Y-94919047D01*
X199590476Y-94871428D01*
X199614285Y-94823809D01*
X199638095Y-94800000D01*
X199685714Y-94776190D01*
X199804761Y-94776190D01*
X199876190Y-94800000D01*
X200042857Y-94776190D02*
X200161904Y-95276190D01*
X200257142Y-94919047D01*
X200352380Y-95276190D01*
X200471428Y-94776190D01*
X200661904Y-95276190D02*
X200661904Y-94776190D01*
X200780952Y-94776190D01*
X200852380Y-94800000D01*
X200900000Y-94847619D01*
X200923809Y-94895238D01*
X200947619Y-94990476D01*
X200947619Y-95061904D01*
X200923809Y-95157142D01*
X200900000Y-95204761D01*
X200852380Y-95252380D01*
X200780952Y-95276190D01*
X200661904Y-95276190D01*
X201161904Y-95276190D02*
X201161904Y-94776190D01*
X201495238Y-94776190D02*
X201590476Y-94776190D01*
X201638095Y-94800000D01*
X201685714Y-94847619D01*
X201709523Y-94942857D01*
X201709523Y-95109523D01*
X201685714Y-95204761D01*
X201638095Y-95252380D01*
X201590476Y-95276190D01*
X201495238Y-95276190D01*
X201447619Y-95252380D01*
X201400000Y-95204761D01*
X201376190Y-95109523D01*
X201376190Y-94942857D01*
X201400000Y-94847619D01*
X201447619Y-94800000D01*
X201495238Y-94776190D01*
M02*
