0
SECTION
2
HEADER
9
$INSUNITS
70
4
9
$ACADVER
1
AC1014
9
$HANDSEED
5
FFFF
0
ENDSEC
0
SECTION
2
TABLES
0
TABLE
2
VPORT
5
8
100
AcDbSymbolTable
0
ENDTAB
0
TABLE
2
LTYPE
5
5
100
AcDbSymbolTable
0
LTYPE
5
14
100
AcDbSymbolTableRecord
100
AcDbLinetypeTableRecord
2
BYBLOCK
70
0
0
LTYPE
5
15
100
AcDbSymbolTableRecord
100
AcDbLinetypeTableRecord
2
BYLAYER
70
0
0
ENDTAB
0
TABLE
2
LAYER
5
2
100
AcDbSymbolTable
70
2
0
LAYER
5
50
100
AcDbSymbolTableRecord
100
AcDbLayerTableRecord
2
0
70
0
6
CONTINUOUS
0
ENDTAB
0
TABLE
2
STYLE
5
3
100
AcDbSymbolTable
70
1
0
STYLE
5
11
100
AcDbSymbolTableRecord
100
AcDbTextStyleTableRecord
2
STANDARD
70
0
0
ENDTAB
0
TABLE
2
VIEW
5
6
100
AcDbSymbolTable
70
0
0
ENDTAB
0
TABLE
2
UCS
5
7
100
AcDbSymbolTable
70
0
0
ENDTAB
0
TABLE
2
APPID
5
9
100
AcDbSymbolTable
70
2
0
APPID
5
12
100
AcDbSymbolTableRecord
100
AcDbRegAppTableRecord
2
ACAD
70
0
0
ENDTAB
0
TABLE
2
DIMSTYLE
5
A
100
AcDbSymbolTable
70
1
0
ENDTAB
0
TABLE
2
BLOCK_RECORD
5
1
100
AcDbSymbolTable
70
1
0
BLOCK_RECORD
5
1F
100
AcDbSymbolTableRecord
100
AcDbBlockTableRecord
2
*MODEL_SPACE
0
BLOCK_RECORD
5
1B
100
AcDbSymbolTableRecord
100
AcDbBlockTableRecord
2
*PAPER_SPACE
0
ENDTAB
0
ENDSEC
0
SECTION
2
BLOCKS
0
BLOCK
5
20
100
AcDbEntity
100
AcDbBlockBegin
2
*MODEL_SPACE
0
ENDBLK
5
21
100
AcDbEntity
100
AcDbBlockEnd
0
BLOCK
5
1C
100
AcDbEntity
100
AcDbBlockBegin
2
*PAPER_SPACE
0
ENDBLK
5
1D
100
AcDbEntity
100
AcDbBlockEnd
0
ENDSEC
0
SECTION
2
ENTITIES
0
LWPOLYLINE
5
100
100
AcDbEntity
8
0
100
AcDbPolyline
90
32
70
1
43
0.0
10
95.544700000000006
20
-52.380899999999997
10
95.335400000000007
20
-52.294200000000004
10
95.113299999999995
20
-52.250000000000007
10
94.886700000000005
20
-52.250000000000007
10
94.664599999999993
20
-52.294200000000004
10
94.455299999999994
20
-52.380899999999997
10
94.266900000000007
20
-52.506700000000002
10
94.106700000000018
20
-52.666900000000005
10
93.98090000000002
20
-52.855300000000007
10
93.894199999999998
20
-53.064600000000006
10
93.849999999999994
20
-53.28670000000001
10
93.849999999999994
20
-53.513300000000008
10
93.894199999999998
20
-53.735399999999998
10
93.98090000000002
20
-53.944699999999997
10
94.106700000000018
20
-54.133099999999999
10
94.266900000000007
20
-54.293300000000002
10
94.455299999999994
20
-54.4191
10
94.664599999999993
20
-54.505800000000008
10
94.886700000000005
20
-54.549999999999997
10
95.113299999999995
20
-54.549999999999997
10
95.335400000000007
20
-54.505800000000008
10
95.544700000000006
20
-54.4191
10
95.733099999999993
20
-54.293300000000002
10
95.893300000000011
20
-54.133099999999999
10
96.019100000000009
20
-53.944699999999997
10
96.105800000000002
20
-53.735399999999998
10
96.15000000000002
20
-53.513300000000008
10
96.15000000000002
20
-53.28670000000001
10
96.105800000000002
20
-53.064600000000006
10
96.019100000000009
20
-52.855300000000007
10
95.893300000000011
20
-52.666900000000005
10
95.733099999999993
20
-52.506700000000002
0
LWPOLYLINE
5
101
100
AcDbEntity
8
0
100
AcDbPolyline
90
32
70
1
43
0.0
10
171.893
20
-131.733
10
172.01900000000001
20
-131.54499999999999
10
172.10599999999999
20
-131.33500000000001
10
172.15000000000001
20
-131.113
10
172.15000000000001
20
-130.887
10
172.10599999999999
20
-130.66499999999999
10
172.01900000000001
20
-130.45500000000001
10
171.893
20
-130.267
10
171.733
20
-130.107
10
171.54499999999999
20
-129.98099999999999
10
171.33500000000001
20
-129.89400000000001
10
171.113
20
-129.84999999999999
10
170.887
20
-129.84999999999999
10
170.66500000000002
20
-129.89400000000001
10
170.45500000000001
20
-129.98099999999999
10
170.26700000000002
20
-130.107
10
170.107
20
-130.267
10
169.98099999999999
20
-130.45500000000001
10
169.89400000000001
20
-130.66499999999999
10
169.84999999999999
20
-130.887
10
169.84999999999999
20
-131.113
10
169.89400000000001
20
-131.33500000000001
10
169.98099999999999
20
-131.54499999999999
10
170.107
20
-131.733
10
170.26700000000002
20
-131.893
10
170.45500000000001
20
-132.01900000000001
10
170.66500000000002
20
-132.10599999999999
10
170.887
20
-132.15000000000001
10
171.113
20
-132.15000000000001
10
171.33500000000001
20
-132.10599999999999
10
171.54499999999999
20
-132.01900000000001
10
171.733
20
-131.893
0
LINE
5
102
100
AcDbEntity
8
0
100
AcDbLine
10
106.81700000000001
20
-33.197699999999998
30
0
11
111.021
21
-33.279499999999999
31
0
0
LINE
5
103
100
AcDbEntity
8
0
100
AcDbLine
10
106.81600000000002
20
-33.197699999999998
30
0
11
106.81700000000001
21
-33.197699999999998
31
0
0
LINE
5
104
100
AcDbEntity
8
0
100
AcDbLine
10
106.81700000000001
20
-33.197699999999998
30
0
11
106.81700000000001
21
-33.197699999999998
31
0
0
LWPOLYLINE
5
105
100
AcDbEntity
8
0
100
AcDbPolyline
90
32
70
1
43
0.0
10
55.850000000000009
20
-97.486700000000013
10
55.850000000000009
20
-97.713300000000004
10
55.894200000000005
20
-97.935400000000001
10
55.980899999999998
20
-98.1447
10
56.106699999999996
20
-98.333100000000002
10
56.2669
20
-98.493300000000019
10
56.455300000000008
20
-98.619100000000017
10
56.664600000000007
20
-98.705800000000011
10
56.886700000000005
20
-98.75
10
57.113300000000002
20
-98.75
10
57.335400000000007
20
-98.705800000000011
10
57.544700000000006
20
-98.619100000000017
10
57.733100000000007
20
-98.493300000000019
10
57.893300000000004
20
-98.333100000000002
10
58.019100000000002
20
-98.1447
10
58.105800000000009
20
-97.935400000000001
10
58.150000000000006
20
-97.713300000000004
10
58.150000000000006
20
-97.486700000000013
10
58.105800000000009
20
-97.264600000000016
10
58.019100000000002
20
-97.055300000000017
10
57.893300000000004
20
-96.866900000000001
10
57.733100000000007
20
-96.706700000000012
10
57.544700000000006
20
-96.580900000000014
10
57.335400000000007
20
-96.494200000000006
10
57.113300000000002
20
-96.450000000000017
10
56.886700000000005
20
-96.450000000000017
10
56.664600000000007
20
-96.494200000000006
10
56.455300000000008
20
-96.580900000000014
10
56.2669
20
-96.706700000000012
10
56.106699999999996
20
-96.866900000000001
10
55.980899999999998
20
-97.055300000000017
10
55.894200000000005
20
-97.264600000000016
0
LINE
5
106
100
AcDbEntity
8
0
100
AcDbLine
10
40.090800000000002
20
-41.8857
30
0
11
40.094000000000001
21
-41.882800000000003
31
0
0
LINE
5
107
100
AcDbEntity
8
0
100
AcDbLine
10
40.094000000000001
20
-41.882800000000003
30
0
11
40.094000000000001
21
-41.882800000000003
31
0
0
LINE
5
108
100
AcDbEntity
8
0
100
AcDbLine
10
39.476500000000001
20
-42.552200000000006
30
0
11
40.090800000000002
21
-41.8857
31
0
0
LWPOLYLINE
5
109
100
AcDbEntity
8
0
100
AcDbPolyline
90
32
70
1
43
0.0
10
152.31299999999999
20
-57.549999999999997
10
152.08700000000002
20
-57.549999999999997
10
151.86500000000001
20
-57.594200000000001
10
151.65500000000003
20
-57.680900000000008
10
151.46700000000004
20
-57.806700000000006
10
151.30700000000002
20
-57.96690000000001
10
151.18100000000001
20
-58.155299999999997
10
151.09399999999999
20
-58.36460000000001
10
151.05000000000001
20
-58.5867
10
151.05000000000001
20
-58.813299999999998
10
151.09399999999999
20
-59.035400000000003
10
151.18100000000001
20
-59.244700000000002
10
151.30700000000002
20
-59.433100000000003
10
151.46700000000004
20
-59.593300000000006
10
151.65500000000003
20
-59.719100000000005
10
151.86500000000001
20
-59.805799999999998
10
152.08700000000002
20
-59.850000000000001
10
152.31299999999999
20
-59.850000000000001
10
152.535
20
-59.805799999999998
10
152.745
20
-59.719100000000005
10
152.93299999999999
20
-59.593300000000006
10
153.09300000000002
20
-59.433100000000003
10
153.21899999999999
20
-59.244700000000002
10
153.30600000000001
20
-59.035400000000003
10
153.35000000000002
20
-58.813299999999998
10
153.35000000000002
20
-58.5867
10
153.30600000000001
20
-58.36460000000001
10
153.21899999999999
20
-58.155299999999997
10
153.09300000000002
20
-57.96690000000001
10
152.93299999999999
20
-57.806700000000006
10
152.745
20
-57.680900000000008
10
152.535
20
-57.594200000000001
0
LWPOLYLINE
5
110
100
AcDbEntity
8
0
100
AcDbPolyline
90
32
70
1
43
0.0
10
57.893300000000004
20
-60.233100000000007
10
58.019100000000002
20
-60.044700000000006
10
58.105800000000009
20
-59.835400000000007
10
58.150000000000006
20
-59.613300000000002
10
58.150000000000006
20
-59.386700000000005
10
58.105800000000009
20
-59.164600000000007
10
58.019100000000002
20
-58.955300000000008
10
57.893300000000004
20
-58.7669
10
57.733100000000007
20
-58.606699999999996
10
57.544700000000006
20
-58.480899999999998
10
57.335400000000007
20
-58.394200000000005
10
57.113300000000002
20
-58.350000000000009
10
56.886700000000005
20
-58.350000000000009
10
56.664600000000007
20
-58.394200000000005
10
56.455300000000008
20
-58.480899999999998
10
56.2669
20
-58.606699999999996
10
56.106699999999996
20
-58.7669
10
55.980899999999998
20
-58.955300000000008
10
55.894200000000005
20
-59.164600000000007
10
55.850000000000009
20
-59.386700000000005
10
55.850000000000009
20
-59.613300000000002
10
55.894200000000005
20
-59.835400000000007
10
55.980899999999998
20
-60.044700000000006
10
56.106699999999996
20
-60.233100000000007
10
56.2669
20
-60.393300000000004
10
56.455300000000008
20
-60.519100000000002
10
56.664600000000007
20
-60.605800000000009
10
56.886700000000005
20
-60.650000000000006
10
57.113300000000002
20
-60.650000000000006
10
57.335400000000007
20
-60.605800000000009
10
57.544700000000006
20
-60.519100000000002
10
57.733100000000007
20
-60.393300000000004
0
LINE
5
111
100
AcDbEntity
8
0
100
AcDbLine
10
57.893600000000006
20
-39.695500000000003
30
0
11
63.541699999999999
21
-39.089300000000001
31
0
0
LINE
5
112
100
AcDbEntity
8
0
100
AcDbLine
10
102.611
20
-33.270099999999999
30
0
11
102.611
21
-33.270099999999999
31
0
0
LINE
5
113
100
AcDbEntity
8
0
100
AcDbLine
10
102.611
20
-33.270099999999999
30
0
11
106.81600000000002
21
-33.197699999999998
31
0
0
LINE
5
114
100
AcDbEntity
8
0
100
AcDbLine
10
90.049599999999998
20
-34.410200000000003
30
0
11
90.050299999999993
21
-34.4101
31
0
0
LINE
5
115
100
AcDbEntity
8
0
100
AcDbLine
10
85.900700000000001
20
-35.095999999999997
30
0
11
85.900800000000004
21
-35.095999999999997
31
0
0
LINE
5
116
100
AcDbEntity
8
0
100
AcDbLine
10
85.900800000000004
20
-35.095999999999997
30
0
11
90.049599999999998
21
-34.410200000000003
31
0
0
LWPOLYLINE
5
117
100
AcDbEntity
8
0
100
AcDbPolyline
90
32
70
1
43
0.0
10
95.733099999999993
20
-92.806700000000006
10
95.544700000000006
20
-92.680899999999994
10
95.335400000000007
20
-92.594200000000001
10
95.113299999999995
20
-92.550000000000011
10
94.886700000000005
20
-92.550000000000011
10
94.664599999999993
20
-92.594200000000001
10
94.455299999999994
20
-92.680899999999994
10
94.266900000000007
20
-92.806700000000006
10
94.106700000000018
20
-92.966899999999995
10
93.98090000000002
20
-93.155300000000011
10
93.894199999999998
20
-93.36460000000001
10
93.849999999999994
20
-93.586700000000008
10
93.849999999999994
20
-93.813299999999998
10
93.894199999999998
20
-94.035399999999996
10
93.98090000000002
20
-94.244699999999995
10
94.106700000000018
20
-94.433099999999996
10
94.266900000000007
20
-94.593299999999999
10
94.455299999999994
20
-94.719099999999997
10
94.664599999999993
20
-94.805800000000019
10
94.886700000000005
20
-94.849999999999994
10
95.113299999999995
20
-94.849999999999994
10
95.335400000000007
20
-94.805800000000019
10
95.544700000000006
20
-94.719099999999997
10
95.733099999999993
20
-94.593299999999999
10
95.893300000000011
20
-94.433099999999996
10
96.019100000000009
20
-94.244699999999995
10
96.105800000000002
20
-94.035399999999996
10
96.15000000000002
20
-93.813299999999998
10
96.15000000000002
20
-93.586700000000008
10
96.105800000000002
20
-93.36460000000001
10
96.019100000000009
20
-93.155300000000011
10
95.893300000000011
20
-92.966899999999995
0
LINE
5
118
100
AcDbEntity
8
0
100
AcDbLine
10
120.12500000000001
20
-139.214
30
0
11
116.00000000000001
21
-139.01900000000001
31
0
0
LINE
5
119
100
AcDbEntity
8
0
100
AcDbLine
10
116.00000000000001
20
-139.01900000000001
30
0
11
42.99880000000001
21
-139.02500000000001
31
0
0
LWPOLYLINE
5
120
100
AcDbEntity
8
0
100
AcDbPolyline
90
32
70
1
43
0.0
10
153.35000000000002
20
-97.486700000000013
10
153.30600000000001
20
-97.264600000000016
10
153.21899999999999
20
-97.055300000000017
10
153.09300000000002
20
-96.866900000000001
10
152.93299999999999
20
-96.706700000000012
10
152.745
20
-96.580900000000014
10
152.535
20
-96.494200000000006
10
152.31299999999999
20
-96.450000000000017
10
152.08700000000002
20
-96.450000000000017
10
151.86500000000001
20
-96.494200000000006
10
151.65500000000003
20
-96.580900000000014
10
151.46700000000004
20
-96.706700000000012
10
151.30700000000002
20
-96.866900000000001
10
151.18100000000001
20
-97.055300000000017
10
151.09399999999999
20
-97.264600000000016
10
151.05000000000001
20
-97.486700000000013
10
151.05000000000001
20
-97.713300000000004
10
151.09399999999999
20
-97.935400000000001
10
151.18100000000001
20
-98.1447
10
151.30700000000002
20
-98.333100000000002
10
151.46700000000004
20
-98.493300000000019
10
151.65500000000003
20
-98.619100000000017
10
151.86500000000001
20
-98.705800000000011
10
152.08700000000002
20
-98.75
10
152.31299999999999
20
-98.75
10
152.535
20
-98.705800000000011
10
152.745
20
-98.619100000000017
10
152.93299999999999
20
-98.493300000000019
10
153.09300000000002
20
-98.333100000000002
10
153.21899999999999
20
-98.1447
10
153.30600000000001
20
-97.935400000000001
10
153.35000000000002
20
-97.713300000000004
0
LINE
5
121
100
AcDbEntity
8
0
100
AcDbLine
10
123.58000000000001
20
-34.447600000000008
30
0
11
124.009
21
-34.5122
31
0
0
LINE
5
122
100
AcDbEntity
8
0
100
AcDbLine
10
123.57900000000001
20
-34.447499999999998
30
0
11
123.57900000000001
21
-34.447499999999998
31
0
0
LINE
5
123
100
AcDbEntity
8
0
100
AcDbLine
10
123.57900000000001
20
-34.447499999999998
30
0
11
123.58000000000001
21
-34.447600000000008
31
0
0
LINE
5
124
100
AcDbEntity
8
0
100
AcDbLine
10
38.473300000000002
20
-134.06100000000004
30
0
11
38.473199999999999
21
-134.06
31
0
0
LINE
5
125
100
AcDbEntity
8
0
100
AcDbLine
10
128.339
20
-140.05700000000002
30
0
11
124.23999999999999
21
-139.56
31
0
0
LINE
5
126
100
AcDbEntity
8
0
100
AcDbLine
10
124.23999999999999
20
-139.56
30
0
11
120.12500000000001
21
-139.214
31
0
0
LINE
5
127
100
AcDbEntity
8
0
100
AcDbLine
10
38.859900000000003
20
-135.83000000000001
30
0
11
38.5899
21
-134.965
31
0
0
LINE
5
128
100
AcDbEntity
8
0
100
AcDbLine
10
39.280099999999997
20
-136.643
30
0
11
39.277799999999999
21
-136.63900000000001
31
0
0
LINE
5
129
100
AcDbEntity
8
0
100
AcDbLine
10
90.050299999999993
20
-34.4101
30
0
11
90.050399999999996
21
-34.4101
31
0
0
LINE
5
130
100
AcDbEntity
8
0
100
AcDbLine
10
90.050399999999996
20
-34.4101
30
0
11
90.0505
21
-34.4101
31
0
0
LINE
5
131
100
AcDbEntity
8
0
100
AcDbLine
10
38.5899
20
-134.965
30
0
11
38.588999999999999
21
-134.96000000000004
31
0
0
LINE
5
132
100
AcDbEntity
8
0
100
AcDbLine
10
80.353800000000021
20
-36.328299999999999
30
0
11
85.899500000000003
21
-35.096299999999999
31
0
0
LINE
5
133
100
AcDbEntity
8
0
100
AcDbLine
10
42.106999999999999
20
-138.82499999999999
30
0
11
42.106000000000002
21
-138.82399999999998
31
0
0
LINE
5
134
100
AcDbEntity
8
0
100
AcDbLine
10
42.106000000000002
20
-138.82399999999998
30
0
11
41.269599999999997
21
-138.47499999999999
31
0
0
LINE
5
135
100
AcDbEntity
8
0
100
AcDbLine
10
38.9846
20
-43.318700000000007
30
0
11
39.473799999999997
21
-42.555599999999998
31
0
0
LINE
5
136
100
AcDbEntity
8
0
100
AcDbLine
10
38.432899999999997
20
-45.048099999999998
30
0
11
38.433300000000003
21
-45.046600000000005
31
0
0
LINE
5
137
100
AcDbEntity
8
0
100
AcDbLine
10
38.433300000000003
20
-45.046600000000005
30
0
11
38.631900000000002
21
-44.1631
31
0
0
LINE
5
138
100
AcDbEntity
8
0
100
AcDbLine
10
38.468699999999998
20
-133.84799999999998
30
0
11
38.432499999999997
21
-45.051699999999997
31
0
0
LINE
5
139
100
AcDbEntity
8
0
100
AcDbLine
10
38.432499999999997
20
-45.051699999999997
30
0
11
38.432899999999997
21
-45.048099999999998
31
0
0
LINE
5
140
100
AcDbEntity
8
0
100
AcDbLine
10
38.468800000000002
20
-133.84799999999998
30
0
11
38.468699999999998
21
-133.84799999999998
31
0
0
LINE
5
141
100
AcDbEntity
8
0
100
AcDbLine
10
40.502700000000004
20
-137.98400000000001
30
0
11
40.499200000000002
21
-137.98099999999999
31
0
0
LINE
5
142
100
AcDbEntity
8
0
100
AcDbLine
10
40.499200000000002
20
-137.98099999999999
30
0
11
40.499200000000002
21
-137.98099999999999
31
0
0
LINE
5
143
100
AcDbEntity
8
0
100
AcDbLine
10
38.983499999999999
20
-43.320700000000009
30
0
11
38.9846
21
-43.318700000000007
31
0
0
LINE
5
144
100
AcDbEntity
8
0
100
AcDbLine
10
39.473799999999997
20
-42.555599999999998
30
0
11
39.476500000000001
21
-42.552200000000006
31
0
0
LINE
5
145
100
AcDbEntity
8
0
100
AcDbLine
10
38.631900000000002
20
-44.1631
30
0
11
38.633200000000002
21
-44.158999999999999
31
0
0
LINE
5
146
100
AcDbEntity
8
0
100
AcDbLine
10
41.269599999999997
20
-138.47499999999999
30
0
11
41.265700000000002
21
-138.47299999999998
31
0
0
LINE
5
147
100
AcDbEntity
8
0
100
AcDbLine
10
41.265700000000002
20
-138.47299999999998
30
0
11
40.502700000000004
21
-137.98400000000001
31
0
0
LINE
5
148
100
AcDbEntity
8
0
100
AcDbLine
10
38.633200000000002
20
-44.158999999999999
30
0
11
38.982500000000002
21
-43.322600000000008
31
0
0
LINE
5
149
100
AcDbEntity
8
0
100
AcDbLine
10
38.982500000000002
20
-43.322600000000008
30
0
11
38.983499999999999
21
-43.320700000000009
31
0
0
LINE
5
150
100
AcDbEntity
8
0
100
AcDbLine
10
111.02200000000002
20
-33.279499999999999
30
0
11
111.02200000000002
21
-33.279499999999999
31
0
0
LINE
5
151
100
AcDbEntity
8
0
100
AcDbLine
10
46.557500000000005
20
-40.433700000000002
30
0
11
52.230699999999999
21
-40.143700000000003
31
0
0
LINE
5
152
100
AcDbEntity
8
0
100
AcDbLine
10
52.230699999999999
20
-40.143700000000003
30
0
11
57.893600000000006
21
-39.695500000000003
31
0
0
LINE
5
153
100
AcDbEntity
8
0
100
AcDbLine
10
102.61000000000001
20
-33.270099999999999
30
0
11
102.611
21
-33.270099999999999
31
0
0
LINE
5
154
100
AcDbEntity
8
0
100
AcDbLine
10
102.611
20
-33.270099999999999
30
0
11
102.611
21
-33.270099999999999
31
0
0
LINE
5
155
100
AcDbEntity
8
0
100
AcDbLine
10
111.021
20
-33.279499999999999
30
0
11
111.02200000000002
21
-33.279499999999999
31
0
0
LINE
5
156
100
AcDbEntity
8
0
100
AcDbLine
10
111.02200000000002
20
-33.279499999999999
30
0
11
111.02200000000002
21
-33.279499999999999
31
0
0
LINE
5
157
100
AcDbEntity
8
0
100
AcDbLine
10
119.40799999999999
20
-33.904800000000002
30
0
11
119.40899999999999
21
-33.904899999999998
31
0
0
LINE
5
158
100
AcDbEntity
8
0
100
AcDbLine
10
115.22100000000002
20
-33.515300000000003
30
0
11
115.22100000000002
21
-33.515300000000003
31
0
0
LINE
5
159
100
AcDbEntity
8
0
100
AcDbLine
10
115.22100000000002
20
-33.515300000000003
30
0
11
119.40799999999999
21
-33.904800000000002
31
0
0
LINE
5
160
100
AcDbEntity
8
0
100
AcDbLine
10
74.776200000000003
20
-37.405000000000001
30
0
11
80.353800000000021
21
-36.328299999999999
31
0
0
LINE
5
161
100
AcDbEntity
8
0
100
AcDbLine
10
85.899500000000003
20
-35.096299999999999
30
0
11
85.899799999999999
21
-35.096200000000003
31
0
0
LINE
5
162
100
AcDbEntity
8
0
100
AcDbLine
10
63.541699999999999
20
-39.089300000000001
30
0
11
69.170699999999997
21
-38.325600000000001
31
0
0
LINE
5
163
100
AcDbEntity
8
0
100
AcDbLine
10
69.170699999999997
20
-38.325600000000001
30
0
11
74.776200000000003
21
-37.405000000000001
31
0
0
LINE
5
164
100
AcDbEntity
8
0
100
AcDbLine
10
115.22100000000002
20
-33.515300000000003
30
0
11
115.22100000000002
21
-33.515300000000003
31
0
0
LINE
5
165
100
AcDbEntity
8
0
100
AcDbLine
10
111.02200000000002
20
-33.279499999999999
30
0
11
115.22
21
-33.515300000000003
31
0
0
LINE
5
166
100
AcDbEntity
8
0
100
AcDbLine
10
115.22
20
-33.515300000000003
30
0
11
115.22100000000002
21
-33.515300000000003
31
0
0
LINE
5
167
100
AcDbEntity
8
0
100
AcDbLine
10
38.473100000000002
20
-134.059
30
0
11
38.468800000000002
21
-133.84799999999998
31
0
0
LINE
5
168
100
AcDbEntity
8
0
100
AcDbLine
10
106.81600000000002
20
-33.197699999999998
30
0
11
106.81600000000002
21
-33.197699999999998
31
0
0
LINE
5
169
100
AcDbEntity
8
0
100
AcDbLine
10
85.899900000000002
20
-35.096200000000003
30
0
11
85.900499999999994
21
-35.095999999999997
31
0
0
LINE
5
170
100
AcDbEntity
8
0
100
AcDbLine
10
85.900499999999994
20
-35.095999999999997
30
0
11
85.900700000000001
21
-35.095999999999997
31
0
0
LINE
5
171
100
AcDbEntity
8
0
100
AcDbLine
10
42.99880000000001
20
-139.02500000000001
30
0
11
42.995100000000008
21
-139.02500000000001
31
0
0
LINE
5
172
100
AcDbEntity
8
0
100
AcDbLine
10
42.995100000000008
20
-139.02500000000001
30
0
11
42.993600000000001
21
-139.024
31
0
0
LINE
5
173
100
AcDbEntity
8
0
100
AcDbLine
10
119.40899999999999
20
-33.904899999999998
30
0
11
119.40899999999999
21
-33.904899999999998
31
0
0
LINE
5
174
100
AcDbEntity
8
0
100
AcDbLine
10
119.40899999999999
20
-33.904899999999998
30
0
11
119.40899999999999
21
-33.904899999999998
31
0
0
LINE
5
175
100
AcDbEntity
8
0
100
AcDbLine
10
90.0505
20
-34.4101
30
0
11
94.221599999999995
21
-33.876800000000003
31
0
0
LINE
5
176
100
AcDbEntity
8
0
100
AcDbLine
10
94.221599999999995
20
-33.876800000000003
30
0
11
94.222300000000004
21
-33.8767
31
0
0
LINE
5
177
100
AcDbEntity
8
0
100
AcDbLine
10
119.40899999999999
20
-33.904899999999998
30
0
11
123.57900000000001
21
-34.447499999999998
31
0
0
LINE
5
178
100
AcDbEntity
8
0
100
AcDbLine
10
170.79400000000004
20
-154.62899999999999
30
0
11
169.88
21
-154.41899999999998
31
0
0
LINE
5
179
100
AcDbEntity
8
0
100
AcDbLine
10
39.277799999999999
20
-136.63900000000001
30
0
11
38.861600000000003
21
-135.834
31
0
0
LINE
5
180
100
AcDbEntity
8
0
100
AcDbLine
10
38.861600000000003
20
-135.834
30
0
11
38.859900000000003
21
-135.83000000000001
31
0
0
LINE
5
181
100
AcDbEntity
8
0
100
AcDbLine
10
98.411200000000008
20
-33.496499999999997
30
0
11
98.411299999999997
21
-33.496499999999997
31
0
0
LINE
5
182
100
AcDbEntity
8
0
100
AcDbLine
10
98.411299999999997
20
-33.496499999999997
30
0
11
102.61000000000001
21
-33.270099999999999
31
0
0
LINE
5
183
100
AcDbEntity
8
0
100
AcDbLine
10
40.094000000000001
20
-41.882800000000003
30
0
11
40.814700000000002
21
-41.333100000000009
31
0
0
LINE
5
184
100
AcDbEntity
8
0
100
AcDbLine
10
40.814700000000002
20
-41.333100000000009
30
0
11
40.818399999999997
21
-41.3307
31
0
0
LINE
5
185
100
AcDbEntity
8
0
100
AcDbLine
10
40.499200000000002
20
-137.98099999999999
30
0
11
39.832700000000003
21
-137.36700000000002
31
0
0
LINE
5
186
100
AcDbEntity
8
0
100
AcDbLine
10
39.829799999999999
20
-137.364
30
0
11
39.280099999999997
21
-136.643
31
0
0
LINE
5
187
100
AcDbEntity
8
0
100
AcDbLine
10
94.2226
20
-33.8767
30
0
11
98.410399999999996
21
-33.496600000000001
31
0
0
LINE
5
188
100
AcDbEntity
8
0
100
AcDbLine
10
98.410399999999996
20
-33.496600000000001
30
0
11
98.411100000000005
21
-33.496499999999997
31
0
0
LINE
5
189
100
AcDbEntity
8
0
100
AcDbLine
10
98.411100000000005
20
-33.496499999999997
30
0
11
98.411200000000008
21
-33.496499999999997
31
0
0
LINE
5
190
100
AcDbEntity
8
0
100
AcDbLine
10
42.497199999999999
20
-40.6419
30
0
11
43.3962
21
-40.526200000000003
31
0
0
LINE
5
191
100
AcDbEntity
8
0
100
AcDbLine
10
40.818399999999997
20
-41.3307
30
0
11
41.623600000000003
21
-40.914500000000004
31
0
0
LINE
5
192
100
AcDbEntity
8
0
100
AcDbLine
10
41.623600000000003
20
-40.914500000000004
30
0
11
41.627700000000004
21
-40.9129
31
0
0
LINE
5
193
100
AcDbEntity
8
0
100
AcDbLine
10
41.627700000000004
20
-40.9129
30
0
11
42.492900000000006
21
-40.642800000000001
31
0
0
LINE
5
194
100
AcDbEntity
8
0
100
AcDbLine
10
94.222300000000004
20
-33.8767
30
0
11
94.222400000000007
21
-33.8767
31
0
0
LINE
5
195
100
AcDbEntity
8
0
100
AcDbLine
10
94.222400000000007
20
-33.8767
30
0
11
94.2226
21
-33.8767
31
0
0
LINE
5
196
100
AcDbEntity
8
0
100
AcDbLine
10
42.492900000000006
20
-40.642800000000001
30
0
11
42.497199999999999
21
-40.6419
31
0
0
LINE
5
197
100
AcDbEntity
8
0
100
AcDbLine
10
43.3962
20
-40.526200000000003
30
0
11
43.397500000000008
21
-40.526200000000003
31
0
0
LINE
5
198
100
AcDbEntity
8
0
100
AcDbLine
10
43.397500000000008
20
-40.526200000000003
30
0
11
43.398899999999998
21
-40.525999999999996
31
0
0
LINE
5
199
100
AcDbEntity
8
0
100
AcDbLine
10
43.398899999999998
20
-40.525999999999996
30
0
11
43.610399999999998
21
-40.521700000000003
31
0
0
LINE
5
200
100
AcDbEntity
8
0
100
AcDbLine
10
43.610399999999998
20
-40.521700000000003
30
0
11
46.557500000000005
21
-40.433700000000002
31
0
0
LINE
5
201
100
AcDbEntity
8
0
100
AcDbLine
10
170.79800000000003
20
-154.63
30
0
11
170.79400000000004
21
-154.62899999999999
31
0
0
LINE
5
202
100
AcDbEntity
8
0
100
AcDbLine
10
42.993600000000001
20
-139.024
30
0
11
42.110200000000006
21
-138.82599999999999
31
0
0
LINE
5
203
100
AcDbEntity
8
0
100
AcDbLine
10
42.110200000000006
20
-138.82599999999999
30
0
11
42.106999999999999
21
-138.82499999999999
31
0
0
LINE
5
204
100
AcDbEntity
8
0
100
AcDbLine
10
169.00800000000001
20
-154.04900000000001
30
0
11
168.43400000000003
21
-153.696
31
0
0
LINE
5
205
100
AcDbEntity
8
0
100
AcDbLine
10
168.43400000000003
20
-153.696
30
0
11
167.29600000000002
21
-153.05799999999999
31
0
0
LINE
5
206
100
AcDbEntity
8
0
100
AcDbLine
10
69.177899999999994
20
-38.375100000000003
30
0
11
69.177800000000005
21
-38.375100000000003
31
0
0
LINE
5
207
100
AcDbEntity
8
0
100
AcDbLine
10
69.177800000000005
20
-38.375100000000003
30
0
11
63.548100000000005
21
-39.138800000000003
31
0
0
LINE
5
208
100
AcDbEntity
8
0
100
AcDbLine
10
74.784800000000018
20
-37.454300000000003
30
0
11
74.784599999999998
21
-37.454300000000003
31
0
0
LINE
5
209
100
AcDbEntity
8
0
100
AcDbLine
10
74.784599999999998
20
-37.454300000000003
30
0
11
69.178399999999996
21
-38.375
31
0
0
LINE
5
210
100
AcDbEntity
8
0
100
AcDbLine
10
69.178399999999996
20
-38.375
30
0
11
69.178100000000001
21
-38.375
31
0
0
LINE
5
211
100
AcDbEntity
8
0
100
AcDbLine
10
69.178100000000001
20
-38.375
30
0
11
69.177899999999994
21
-38.375100000000003
31
0
0
LINE
5
212
100
AcDbEntity
8
0
100
AcDbLine
10
191.52799999999999
20
-45.298200000000001
30
0
11
191.48400000000004
21
-119.093
31
0
0
LINE
5
213
100
AcDbEntity
8
0
100
AcDbLine
10
191.48400000000004
20
-119.093
30
0
11
191.48400000000004
21
-119.093
31
0
0
LINE
5
214
100
AcDbEntity
8
0
100
AcDbLine
10
191.48400000000004
20
-119.093
30
0
11
191.42099999999999
21
-120.94900000000001
31
0
0
LINE
5
215
100
AcDbEntity
8
0
100
AcDbLine
10
102.613
20
-33.320099999999996
30
0
11
98.414500000000018
21
-33.546399999999998
31
0
0
LINE
5
216
100
AcDbEntity
8
0
100
AcDbLine
10
98.414500000000018
20
-33.546399999999998
30
0
11
94.227500000000006
21
-33.926400000000001
31
0
0
LINE
5
217
100
AcDbEntity
8
0
100
AcDbLine
10
94.227500000000006
20
-33.926400000000001
30
0
11
90.057299999999998
21
-34.459600000000002
31
0
0
LINE
5
218
100
AcDbEntity
8
0
100
AcDbLine
10
90.057299999999998
20
-34.459600000000002
30
0
11
85.909700000000001
21
-35.145200000000003
31
0
0
LINE
5
219
100
AcDbEntity
8
0
100
AcDbLine
10
85.909700000000001
20
-35.145200000000003
30
0
11
80.364300000000014
21
-36.377200000000002
31
0
0
LINE
5
220
100
AcDbEntity
8
0
100
AcDbLine
10
80.364300000000014
20
-36.377200000000002
30
0
11
80.363900000000001
21
-36.377299999999998
31
0
0
LINE
5
221
100
AcDbEntity
8
0
100
AcDbLine
10
80.363900000000001
20
-36.377299999999998
30
0
11
80.363699999999994
21
-36.377299999999998
31
0
0
LINE
5
222
100
AcDbEntity
8
0
100
AcDbLine
10
80.363699999999994
20
-36.377299999999998
30
0
11
80.363600000000005
21
-36.377400000000002
31
0
0
LINE
5
223
100
AcDbEntity
8
0
100
AcDbLine
10
80.363600000000005
20
-36.377400000000002
30
0
11
74.785300000000007
21
-37.4542
31
0
0
LINE
5
224
100
AcDbEntity
8
0
100
AcDbLine
10
74.785300000000007
20
-37.4542
30
0
11
74.784999999999997
21
-37.454300000000003
31
0
0
LINE
5
225
100
AcDbEntity
8
0
100
AcDbLine
10
74.784999999999997
20
-37.454300000000003
30
0
11
74.784800000000018
21
-37.454300000000003
31
0
0
LINE
5
226
100
AcDbEntity
8
0
100
AcDbLine
10
172.67099999999999
20
-154.56399999999999
30
0
11
171.74000000000004
21
-154.679
31
0
0
LINE
5
227
100
AcDbEntity
8
0
100
AcDbLine
10
171.74000000000004
20
-154.679
30
0
11
171.73500000000001
21
-154.679
31
0
0
LINE
5
228
100
AcDbEntity
8
0
100
AcDbLine
10
171.73500000000001
20
-154.679
30
0
11
171.73500000000001
21
-154.679
31
0
0
LINE
5
229
100
AcDbEntity
8
0
100
AcDbLine
10
171.73500000000001
20
-154.679
30
0
11
170.79800000000003
21
-154.63
31
0
0
LINE
5
230
100
AcDbEntity
8
0
100
AcDbLine
10
191.52799999999999
20
-45.296999999999997
30
0
11
191.52799999999999
21
-45.296999999999997
31
0
0
LINE
5
231
100
AcDbEntity
8
0
100
AcDbLine
10
191.52799999999999
20
-45.296999999999997
30
0
11
191.52799999999999
21
-45.296999999999997
31
0
0
LINE
5
232
100
AcDbEntity
8
0
100
AcDbLine
10
191.52799999999999
20
-45.296999999999997
30
0
11
191.52799999999999
21
-45.298200000000001
31
0
0
LINE
5
233
100
AcDbEntity
8
0
100
AcDbLine
10
174.416
20
-153.858
30
0
11
174.416
21
-153.858
31
0
0
LINE
5
234
100
AcDbEntity
8
0
100
AcDbLine
10
174.416
20
-153.858
30
0
11
174.41400000000002
21
-153.85900000000001
31
0
0
LINE
5
235
100
AcDbEntity
8
0
100
AcDbLine
10
174.41400000000002
20
-153.85900000000001
30
0
11
174.41200000000003
21
-153.86099999999999
31
0
0
LINE
5
236
100
AcDbEntity
8
0
100
AcDbLine
10
174.41200000000003
20
-153.86099999999999
30
0
11
174.41200000000003
21
-153.86099999999999
31
0
0
LINE
5
237
100
AcDbEntity
8
0
100
AcDbLine
10
174.41200000000003
20
-153.86099999999999
30
0
11
173.57600000000002
21
-154.28700000000001
31
0
0
LINE
5
238
100
AcDbEntity
8
0
100
AcDbLine
10
173.57600000000002
20
-154.28700000000001
30
0
11
173.57200000000003
21
-154.28799999999998
31
0
0
LINE
5
239
100
AcDbEntity
8
0
100
AcDbLine
10
173.57200000000003
20
-154.28799999999998
30
0
11
172.67500000000001
21
-154.56299999999999
31
0
0
LINE
5
240
100
AcDbEntity
8
0
100
AcDbLine
10
172.67500000000001
20
-154.56299999999999
30
0
11
172.67400000000004
21
-154.56299999999999
31
0
0
LINE
5
241
100
AcDbEntity
8
0
100
AcDbLine
10
172.67400000000004
20
-154.56299999999999
30
0
11
172.67099999999999
21
-154.56399999999999
31
0
0
LINE
5
242
100
AcDbEntity
8
0
100
AcDbLine
10
175.81
20
-152.601
30
0
11
175.81
21
-152.601
31
0
0
LINE
5
243
100
AcDbEntity
8
0
100
AcDbLine
10
175.81
20
-152.601
30
0
11
175.80799999999999
21
-152.60399999999998
31
0
0
LINE
5
244
100
AcDbEntity
8
0
100
AcDbLine
10
175.80799999999999
20
-152.60399999999998
30
0
11
175.16800000000001
21
-153.29000000000002
31
0
0
LINE
5
245
100
AcDbEntity
8
0
100
AcDbLine
10
175.16800000000001
20
-153.29000000000002
30
0
11
175.16800000000001
21
-153.29000000000002
31
0
0
LINE
5
246
100
AcDbEntity
8
0
100
AcDbLine
10
175.16800000000001
20
-153.29000000000002
30
0
11
175.16500000000002
21
-153.29300000000001
31
0
0
LINE
5
247
100
AcDbEntity
8
0
100
AcDbLine
10
175.16500000000002
20
-153.29300000000001
30
0
11
174.416
21
-153.858
31
0
0
LINE
5
248
100
AcDbEntity
8
0
100
AcDbLine
10
191.31
20
-44.514800000000001
30
0
11
191.52700000000004
21
-45.292500000000004
31
0
0
LINE
5
249
100
AcDbEntity
8
0
100
AcDbLine
10
191.52700000000004
20
-45.292500000000004
30
0
11
191.52700000000004
21
-45.294600000000003
31
0
0
LINE
5
250
100
AcDbEntity
8
0
100
AcDbLine
10
191.52700000000004
20
-45.294600000000003
30
0
11
191.52799999999999
21
-45.296999999999997
31
0
0
LINE
5
251
100
AcDbEntity
8
0
100
AcDbLine
10
189.60499999999999
20
-128.12899999999999
30
0
11
188.77800000000002
21
-129.792
31
0
0
LINE
5
252
100
AcDbEntity
8
0
100
AcDbLine
10
188.77800000000002
20
-129.792
30
0
11
188.77800000000002
21
-129.792
31
0
0
LINE
5
253
100
AcDbEntity
8
0
100
AcDbLine
10
188.77800000000002
20
-129.792
30
0
11
188.77800000000002
21
-129.792
31
0
0
LINE
5
254
100
AcDbEntity
8
0
100
AcDbLine
10
188.77800000000002
20
-129.792
30
0
11
188.77700000000002
21
-129.792
31
0
0
LINE
5
255
100
AcDbEntity
8
0
100
AcDbLine
10
188.77700000000002
20
-129.792
30
0
11
188.77700000000002
21
-129.79399999999998
31
0
0
LINE
5
256
100
AcDbEntity
8
0
100
AcDbLine
10
188.77700000000002
20
-129.79399999999998
30
0
11
188.77700000000002
21
-129.79399999999998
31
0
0
LINE
5
257
100
AcDbEntity
8
0
100
AcDbLine
10
188.77700000000002
20
-129.79399999999998
30
0
11
188.77700000000002
21
-129.79399999999998
31
0
0
LINE
5
258
100
AcDbEntity
8
0
100
AcDbLine
10
188.77700000000002
20
-129.79399999999998
30
0
11
187.92200000000003
21
-131.21299999999999
31
0
0
LINE
5
259
100
AcDbEntity
8
0
100
AcDbLine
10
187.92200000000003
20
-131.21299999999999
30
0
11
176.32100000000003
21
-151.81299999999999
31
0
0
LINE
5
260
100
AcDbEntity
8
0
100
AcDbLine
10
176.32100000000003
20
-151.81299999999999
30
0
11
176.32100000000003
21
-151.81399999999999
31
0
0
LINE
5
261
100
AcDbEntity
8
0
100
AcDbLine
10
176.32100000000003
20
-151.81399999999999
30
0
11
175.81
21
-152.601
31
0
0
LINE
5
262
100
AcDbEntity
8
0
100
AcDbLine
10
190.28800000000001
20
-126.40000000000001
30
0
11
189.60599999999999
21
-128.12700000000001
31
0
0
LINE
5
263
100
AcDbEntity
8
0
100
AcDbLine
10
189.60599999999999
20
-128.12700000000001
30
0
11
189.60599999999999
21
-128.12700000000001
31
0
0
LINE
5
264
100
AcDbEntity
8
0
100
AcDbLine
10
189.60599999999999
20
-128.12700000000001
30
0
11
189.60499999999999
21
-128.12700000000001
31
0
0
LINE
5
265
100
AcDbEntity
8
0
100
AcDbLine
10
189.60499999999999
20
-128.12700000000001
30
0
11
189.60499999999999
21
-128.12899999999999
31
0
0
LINE
5
266
100
AcDbEntity
8
0
100
AcDbLine
10
189.60499999999999
20
-128.12899999999999
30
0
11
189.60499999999999
21
-128.12899999999999
31
0
0
LINE
5
267
100
AcDbEntity
8
0
100
AcDbLine
10
189.60499999999999
20
-128.12899999999999
30
0
11
189.60499999999999
21
-128.12899999999999
31
0
0
LINE
5
268
100
AcDbEntity
8
0
100
AcDbLine
10
190.92600000000002
20
-43.689400000000006
30
0
11
191.30900000000003
21
-44.510899999999999
31
0
0
LINE
5
269
100
AcDbEntity
8
0
100
AcDbLine
10
191.30900000000003
20
-44.510899999999999
30
0
11
191.31
21
-44.512900000000002
31
0
0
LINE
5
270
100
AcDbEntity
8
0
100
AcDbLine
10
191.31
20
-44.512900000000002
30
0
11
191.31
21
-44.514800000000001
31
0
0
LINE
5
271
100
AcDbEntity
8
0
100
AcDbLine
10
169.012
20
-154.05100000000002
30
0
11
169.00999999999999
21
-154.05000000000001
31
0
0
LINE
5
272
100
AcDbEntity
8
0
100
AcDbLine
10
167.29600000000002
20
-153.05799999999999
30
0
11
163.64600000000002
21
-151.125
31
0
0
LINE
5
273
100
AcDbEntity
8
0
100
AcDbLine
10
163.64600000000002
20
-151.125
30
0
11
159.928
21
-149.327
31
0
0
LINE
5
274
100
AcDbEntity
8
0
100
AcDbLine
10
191.19900000000001
20
-122.79700000000003
30
0
11
191.19900000000001
21
-122.79700000000003
31
0
0
LINE
5
275
100
AcDbEntity
8
0
100
AcDbLine
10
191.19900000000001
20
-122.79700000000003
30
0
11
191.19900000000001
21
-122.79700000000003
31
0
0
LINE
5
276
100
AcDbEntity
8
0
100
AcDbLine
10
191.19900000000001
20
-122.79700000000003
30
0
11
190.821
21
-124.61600000000001
31
0
0
LINE
5
277
100
AcDbEntity
8
0
100
AcDbLine
10
190.821
20
-124.61600000000001
30
0
11
190.821
21
-124.617
31
0
0
LINE
5
278
100
AcDbEntity
8
0
100
AcDbLine
10
190.821
20
-124.617
30
0
11
190.81999999999999
21
-124.61799999999999
31
0
0
LINE
5
279
100
AcDbEntity
8
0
100
AcDbLine
10
190.81999999999999
20
-124.61799999999999
30
0
11
190.81999999999999
21
-124.61799999999999
31
0
0
LINE
5
280
100
AcDbEntity
8
0
100
AcDbLine
10
190.81999999999999
20
-124.61799999999999
30
0
11
190.28800000000001
21
-126.39800000000001
31
0
0
LINE
5
281
100
AcDbEntity
8
0
100
AcDbLine
10
190.28800000000001
20
-126.39800000000001
30
0
11
190.28800000000001
21
-126.399
31
0
0
LINE
5
282
100
AcDbEntity
8
0
100
AcDbLine
10
190.28800000000001
20
-126.399
30
0
11
190.28800000000001
21
-126.399
31
0
0
LINE
5
283
100
AcDbEntity
8
0
100
AcDbLine
10
190.28800000000001
20
-126.399
30
0
11
190.28800000000001
21
-126.40000000000001
31
0
0
LINE
5
284
100
AcDbEntity
8
0
100
AcDbLine
10
191.42099999999999
20
-120.94900000000001
30
0
11
191.42099999999999
21
-120.95
31
0
0
LINE
5
285
100
AcDbEntity
8
0
100
AcDbLine
10
191.42099999999999
20
-120.95
30
0
11
191.42099999999999
21
-120.95100000000002
31
0
0
LINE
5
286
100
AcDbEntity
8
0
100
AcDbLine
10
191.42099999999999
20
-120.95100000000002
30
0
11
191.42099999999999
21
-120.95100000000002
31
0
0
LINE
5
287
100
AcDbEntity
8
0
100
AcDbLine
10
191.42099999999999
20
-120.95100000000002
30
0
11
191.19900000000001
21
-122.795
31
0
0
LINE
5
288
100
AcDbEntity
8
0
100
AcDbLine
10
191.19900000000001
20
-122.795
30
0
11
191.19900000000001
21
-122.79700000000003
31
0
0
LINE
5
289
100
AcDbEntity
8
0
100
AcDbLine
10
190.40400000000002
20
-42.943199999999997
30
0
11
190.92400000000001
21
-43.685699999999997
31
0
0
LINE
5
290
100
AcDbEntity
8
0
100
AcDbLine
10
190.92400000000001
20
-43.685699999999997
30
0
11
190.92400000000001
21
-43.685699999999997
31
0
0
LINE
5
291
100
AcDbEntity
8
0
100
AcDbLine
10
190.92400000000001
20
-43.685699999999997
30
0
11
190.92600000000002
21
-43.689400000000006
31
0
0
LINE
5
292
100
AcDbEntity
8
0
100
AcDbLine
10
169.88
20
-154.41899999999998
30
0
11
169.87599999999998
21
-154.417
31
0
0
LINE
5
293
100
AcDbEntity
8
0
100
AcDbLine
10
169.87599999999998
20
-154.417
30
0
11
169.012
21
-154.05100000000002
31
0
0
LINE
5
294
100
AcDbEntity
8
0
100
AcDbLine
10
142.21299999999999
20
-38.223199999999999
30
0
11
142.21200000000005
21
-38.223199999999999
31
0
0
LINE
5
295
100
AcDbEntity
8
0
100
AcDbLine
10
142.21200000000005
20
-38.223199999999999
30
0
11
142.21200000000005
21
-38.223100000000002
31
0
0
LINE
5
296
100
AcDbEntity
8
0
100
AcDbLine
10
147.84100000000001
20
-39.009500000000003
30
0
11
142.21299999999999
21
-38.223199999999999
31
0
0
LINE
5
297
100
AcDbEntity
8
0
100
AcDbLine
10
164.83000000000001
20
-40.421800000000005
30
0
11
164.83000000000001
21
-40.421800000000005
31
0
0
LINE
5
298
100
AcDbEntity
8
0
100
AcDbLine
10
131.041
20
-36.131700000000002
30
0
11
136.61600000000001
21
-37.230800000000002
31
0
0
LINE
5
299
100
AcDbEntity
8
0
100
AcDbLine
10
136.61600000000001
20
-37.230800000000002
30
0
11
142.22000000000003
21
-38.173699999999997
31
0
0
LINE
5
300
100
AcDbEntity
8
0
100
AcDbLine
10
124.009
20
-34.5124
30
0
11
124.01000000000002
21
-34.512500000000003
31
0
0
LINE
5
301
100
AcDbEntity
8
0
100
AcDbLine
10
124.01000000000002
20
-34.512500000000003
30
0
11
124.01000000000002
21
-34.512500000000003
31
0
0
LINE
5
302
100
AcDbEntity
8
0
100
AcDbLine
10
159.15799999999999
20
-40.059399999999997
30
0
11
164.83199999999999
21
-40.371899999999997
31
0
0
LINE
5
303
100
AcDbEntity
8
0
100
AcDbLine
10
164.83199999999999
20
-40.371899999999997
30
0
11
170.512
21
-40.525799999999997
31
0
0
LINE
5
304
100
AcDbEntity
8
0
100
AcDbLine
10
170.512
20
-40.525799999999997
30
0
11
170.512
21
-40.525799999999997
31
0
0
LINE
5
305
100
AcDbEntity
8
0
100
AcDbLine
10
111.01900000000001
20
-33.329500000000003
30
0
11
106.81600000000002
21
-33.247700000000002
31
0
0
LINE
5
306
100
AcDbEntity
8
0
100
AcDbLine
10
106.81600000000002
20
-33.247700000000002
30
0
11
102.613
21
-33.320099999999996
31
0
0
LINE
5
307
100
AcDbEntity
8
0
100
AcDbLine
10
131.03100000000001
20
-36.180700000000002
30
0
11
131.03100000000001
21
-36.180599999999998
31
0
0
LINE
5
308
100
AcDbEntity
8
0
100
AcDbLine
10
131.03100000000001
20
-36.180599999999998
30
0
11
131.03100000000001
21
-36.180500000000002
31
0
0
LINE
5
309
100
AcDbEntity
8
0
100
AcDbLine
10
131.03100000000001
20
-36.180500000000002
30
0
11
131.03100000000001
21
-36.180500000000002
31
0
0
LINE
5
310
100
AcDbEntity
8
0
100
AcDbLine
10
131.03100000000001
20
-36.180500000000002
30
0
11
125.488
21
-34.926000000000002
31
0
0
LINE
5
311
100
AcDbEntity
8
0
100
AcDbLine
10
125.488
20
-34.926000000000002
30
0
11
125.48700000000002
21
-34.926000000000002
31
0
0
LINE
5
312
100
AcDbEntity
8
0
100
AcDbLine
10
125.48700000000002
20
-34.926000000000002
30
0
11
125.48700000000002
21
-34.926000000000002
31
0
0
LINE
5
313
100
AcDbEntity
8
0
100
AcDbLine
10
125.48700000000002
20
-34.926000000000002
30
0
11
125.48700000000002
21
-34.925899999999999
31
0
0
LINE
5
314
100
AcDbEntity
8
0
100
AcDbLine
10
125.48700000000002
20
-34.925899999999999
30
0
11
124
21
-34.561500000000002
31
0
0
LINE
5
315
100
AcDbEntity
8
0
100
AcDbLine
10
124
20
-34.561500000000002
30
0
11
123.572
21
-34.497
31
0
0
LINE
5
316
100
AcDbEntity
8
0
100
AcDbLine
10
123.572
20
-34.497
30
0
11
119.40300000000001
21
-33.954500000000003
31
0
0
LINE
5
317
100
AcDbEntity
8
0
100
AcDbLine
10
119.40300000000001
20
-33.954500000000003
30
0
11
115.21700000000003
21
-33.565199999999997
31
0
0
LINE
5
318
100
AcDbEntity
8
0
100
AcDbLine
10
115.21700000000003
20
-33.565199999999997
30
0
11
111.01900000000001
21
-33.329500000000003
31
0
0
LINE
5
319
100
AcDbEntity
8
0
100
AcDbLine
10
142.21200000000005
20
-38.223100000000002
30
0
11
142.21200000000005
21
-38.223100000000002
31
0
0
LINE
5
320
100
AcDbEntity
8
0
100
AcDbLine
10
124.009
20
-34.51230000000001
30
0
11
124.009
21
-34.5124
31
0
0
LINE
5
321
100
AcDbEntity
8
0
100
AcDbLine
10
124.009
20
-34.5124
30
0
11
124.009
21
-34.5124
31
0
0
LINE
5
322
100
AcDbEntity
8
0
100
AcDbLine
10
142.22000000000003
20
-38.173699999999997
30
0
11
147.84799999999998
21
-38.959899999999998
31
0
0
LINE
5
323
100
AcDbEntity
8
0
100
AcDbLine
10
147.84799999999998
20
-38.959899999999998
30
0
11
153.495
21
-39.5886
31
0
0
LINE
5
324
100
AcDbEntity
8
0
100
AcDbLine
10
153.495
20
-39.5886
30
0
11
159.15799999999999
21
-40.059399999999997
31
0
0
LINE
5
325
100
AcDbEntity
8
0
100
AcDbLine
10
142.21200000000005
20
-38.223100000000002
30
0
11
136.608
21
-37.280000000000001
31
0
0
LINE
5
326
100
AcDbEntity
8
0
100
AcDbLine
10
136.608
20
-37.280000000000001
30
0
11
136.607
21
-37.279899999999998
31
0
0
LINE
5
327
100
AcDbEntity
8
0
100
AcDbLine
10
136.607
20
-37.279899999999998
30
0
11
136.607
21
-37.279899999999998
31
0
0
LINE
5
328
100
AcDbEntity
8
0
100
AcDbLine
10
136.607
20
-37.279899999999998
30
0
11
136.607
21
-37.279899999999998
31
0
0
LINE
5
329
100
AcDbEntity
8
0
100
AcDbLine
10
136.607
20
-37.279899999999998
30
0
11
131.03100000000001
21
-36.180700000000002
31
0
0
LINE
5
330
100
AcDbEntity
8
0
100
AcDbLine
10
153.49000000000001
20
-39.638300000000001
30
0
11
153.49000000000001
21
-39.638300000000001
31
0
0
LINE
5
331
100
AcDbEntity
8
0
100
AcDbLine
10
153.49000000000001
20
-39.638300000000001
30
0
11
147.84200000000001
21
-39.009500000000003
31
0
0
LINE
5
332
100
AcDbEntity
8
0
100
AcDbLine
10
147.84200000000001
20
-39.009500000000003
30
0
11
147.84200000000001
21
-39.009500000000003
31
0
0
LINE
5
333
100
AcDbEntity
8
0
100
AcDbLine
10
147.84200000000001
20
-39.009500000000003
30
0
11
147.84100000000001
21
-39.009500000000003
31
0
0
LINE
5
334
100
AcDbEntity
8
0
100
AcDbLine
10
147.84100000000001
20
-39.009500000000003
30
0
11
147.84100000000001
21
-39.009500000000003
31
0
0
LINE
5
335
100
AcDbEntity
8
0
100
AcDbLine
10
124.009
20
-34.5124
30
0
11
124.009
21
-34.5124
31
0
0
LINE
5
336
100
AcDbEntity
8
0
100
AcDbLine
10
169.00999999999999
20
-154.05000000000001
30
0
11
169.00800000000001
21
-154.04900000000001
31
0
0
LINE
5
337
100
AcDbEntity
8
0
100
AcDbLine
10
124.01000000000002
20
-34.512500000000003
30
0
11
124.01000000000002
21
-34.512500000000003
31
0
0
LINE
5
338
100
AcDbEntity
8
0
100
AcDbLine
10
124.01000000000002
20
-34.512500000000003
30
0
11
124.01100000000001
21
-34.512700000000002
31
0
0
LINE
5
339
100
AcDbEntity
8
0
100
AcDbLine
10
124.01100000000001
20
-34.512700000000002
30
0
11
125.49900000000001
21
-34.877299999999998
31
0
0
LINE
5
340
100
AcDbEntity
8
0
100
AcDbLine
10
125.49900000000001
20
-34.877299999999998
30
0
11
131.041
21
-36.131700000000002
31
0
0
LINE
5
341
100
AcDbEntity
8
0
100
AcDbLine
10
164.83000000000001
20
-40.421800000000005
30
0
11
164.83000000000001
21
-40.421800000000005
31
0
0
LINE
5
342
100
AcDbEntity
8
0
100
AcDbLine
10
164.83000000000001
20
-40.421800000000005
30
0
11
164.83000000000001
21
-40.421800000000005
31
0
0
LINE
5
343
100
AcDbEntity
8
0
100
AcDbLine
10
164.83000000000001
20
-40.421800000000005
30
0
11
159.15500000000003
21
-40.109300000000005
31
0
0
LINE
5
344
100
AcDbEntity
8
0
100
AcDbLine
10
159.15500000000003
20
-40.109300000000005
30
0
11
159.15500000000003
21
-40.109300000000005
31
0
0
LINE
5
345
100
AcDbEntity
8
0
100
AcDbLine
10
159.15500000000003
20
-40.109300000000005
30
0
11
159.15500000000003
21
-40.109200000000001
31
0
0
LINE
5
346
100
AcDbEntity
8
0
100
AcDbLine
10
159.15500000000003
20
-40.109200000000001
30
0
11
159.154
21
-40.109200000000001
31
0
0
LINE
5
347
100
AcDbEntity
8
0
100
AcDbLine
10
186.40200000000004
20
-41.075100000000006
30
0
11
186.40299999999999
21
-41.075100000000006
31
0
0
LINE
5
348
100
AcDbEntity
8
0
100
AcDbLine
10
186.40299999999999
20
-41.075100000000006
30
0
11
187.30500000000004
21
-41.1541
31
0
0
LINE
5
349
100
AcDbEntity
8
0
100
AcDbLine
10
170.512
20
-40.525799999999997
30
0
11
186.40200000000004
21
-41.075100000000006
31
0
0
LINE
5
350
100
AcDbEntity
8
0
100
AcDbLine
10
159.154
20
-40.109200000000001
30
0
11
153.49100000000001
21
-39.638399999999997
31
0
0
LINE
5
351
100
AcDbEntity
8
0
100
AcDbLine
10
153.49100000000001
20
-39.638399999999997
30
0
11
153.49100000000001
21
-39.638399999999997
31
0
0
LINE
5
352
100
AcDbEntity
8
0
100
AcDbLine
10
153.49100000000001
20
-39.638399999999997
30
0
11
153.49000000000001
21
-39.638300000000001
31
0
0
LINE
5
353
100
AcDbEntity
8
0
100
AcDbLine
10
190.88200000000001
20
-43.712499999999999
30
0
11
190.364
21
-42.973600000000005
31
0
0
LINE
5
354
100
AcDbEntity
8
0
100
AcDbLine
10
190.364
20
-42.973600000000005
30
0
11
189.726
21
-42.335799999999999
31
0
0
LINE
5
355
100
AcDbEntity
8
0
100
AcDbLine
10
189.726
20
-42.335799999999999
30
0
11
188.98700000000002
21
-41.818400000000004
31
0
0
LINE
5
356
100
AcDbEntity
8
0
100
AcDbLine
10
188.98700000000002
20
-41.818400000000004
30
0
11
188.17000000000002
21
-41.437200000000004
31
0
0
LINE
5
357
100
AcDbEntity
8
0
100
AcDbLine
10
188.17000000000002
20
-41.437200000000004
30
0
11
187.29900000000001
21
-41.203700000000005
31
0
0
LINE
5
358
100
AcDbEntity
8
0
100
AcDbLine
10
187.29900000000001
20
-41.203700000000005
30
0
11
186.39800000000002
21
-41.125
31
0
0
LINE
5
359
100
AcDbEntity
8
0
100
AcDbLine
10
186.39800000000002
20
-41.125
30
0
11
170.51100000000002
21
-40.575800000000008
31
0
0
LINE
5
360
100
AcDbEntity
8
0
100
AcDbLine
10
170.51100000000002
20
-40.575800000000008
30
0
11
170.51100000000002
21
-40.575800000000008
31
0
0
LINE
5
361
100
AcDbEntity
8
0
100
AcDbLine
10
170.51100000000002
20
-40.575800000000008
30
0
11
164.83000000000001
21
-40.421800000000005
31
0
0
LINE
5
362
100
AcDbEntity
8
0
100
AcDbLine
10
187.30500000000004
20
-41.1541
30
0
11
187.30900000000003
21
-41.154900000000005
31
0
0
LINE
5
363
100
AcDbEntity
8
0
100
AcDbLine
10
176.27900000000005
20
-151.78700000000001
30
0
11
187.87900000000005
21
-131.18700000000001
31
0
0
LINE
5
364
100
AcDbEntity
8
0
100
AcDbLine
10
187.87900000000005
20
-131.18700000000001
30
0
11
187.87900000000005
21
-131.18600000000001
31
0
0
LINE
5
365
100
AcDbEntity
8
0
100
AcDbLine
10
187.87900000000005
20
-131.18600000000001
30
0
11
188.733
21
-129.76900000000001
31
0
0
LINE
5
366
100
AcDbEntity
8
0
100
AcDbLine
10
188.733
20
-129.76900000000001
30
0
11
189.55900000000003
21
-128.108
31
0
0
LINE
5
367
100
AcDbEntity
8
0
100
AcDbLine
10
189.55900000000003
20
-128.108
30
0
11
190.24100000000001
21
-126.38200000000001
31
0
0
LINE
5
368
100
AcDbEntity
8
0
100
AcDbLine
10
190.24100000000001
20
-126.38200000000001
30
0
11
190.77200000000002
21
-124.60500000000002
31
0
0
LINE
5
369
100
AcDbEntity
8
0
100
AcDbLine
10
190.77200000000002
20
-124.60500000000002
30
0
11
191.15000000000003
21
-122.78800000000001
31
0
0
LINE
5
370
100
AcDbEntity
8
0
100
AcDbLine
10
191.15000000000003
20
-122.78800000000001
30
0
11
191.37100000000001
21
-120.946
31
0
0
LINE
5
371
100
AcDbEntity
8
0
100
AcDbLine
10
191.37100000000001
20
-120.946
30
0
11
191.43400000000003
21
-119.09100000000002
31
0
0
LINE
5
372
100
AcDbEntity
8
0
100
AcDbLine
10
191.43400000000003
20
-119.09100000000002
30
0
11
191.47800000000001
21
-45.302800000000005
31
0
0
LINE
5
373
100
AcDbEntity
8
0
100
AcDbLine
10
191.47800000000001
20
-45.302800000000005
30
0
11
191.26300000000001
21
-44.530200000000008
31
0
0
LINE
5
374
100
AcDbEntity
8
0
100
AcDbLine
10
191.26300000000001
20
-44.530200000000008
30
0
11
190.88200000000001
21
-43.712499999999999
31
0
0
LINE
5
375
100
AcDbEntity
8
0
100
AcDbLine
10
171.73599999999999
20
-154.62899999999999
30
0
11
172.66200000000001
21
-154.51499999999999
31
0
0
LINE
5
376
100
AcDbEntity
8
0
100
AcDbLine
10
189.01400000000001
20
-41.776200000000003
30
0
11
189.75700000000001
21
-42.296100000000003
31
0
0
LINE
5
377
100
AcDbEntity
8
0
100
AcDbLine
10
172.66200000000001
20
-154.51499999999999
30
0
11
173.55500000000004
21
-154.24100000000004
31
0
0
LINE
5
378
100
AcDbEntity
8
0
100
AcDbLine
10
173.55500000000004
20
-154.24100000000004
30
0
11
174.387
21
-153.81700000000001
31
0
0
LINE
5
379
100
AcDbEntity
8
0
100
AcDbLine
10
188.18900000000002
20
-41.390900000000002
30
0
11
189.011
21
-41.773999999999994
31
0
0
LINE
5
380
100
AcDbEntity
8
0
100
AcDbLine
10
189.011
20
-41.773999999999994
30
0
11
189.01400000000001
21
-41.776200000000003
31
0
0
LINE
5
381
100
AcDbEntity
8
0
100
AcDbLine
10
174.387
20
-153.81700000000001
30
0
11
175.13299999999998
21
-153.255
31
0
0
LINE
5
382
100
AcDbEntity
8
0
100
AcDbLine
10
188.185
20
-41.389400000000009
30
0
11
188.18900000000002
21
-41.390900000000002
31
0
0
LINE
5
383
100
AcDbEntity
8
0
100
AcDbLine
10
187.30900000000003
20
-41.154900000000005
30
0
11
188.185
21
-41.389400000000009
31
0
0
LINE
5
384
100
AcDbEntity
8
0
100
AcDbLine
10
188.185
20
-41.389400000000009
30
0
11
188.185
21
-41.389400000000009
31
0
0
LINE
5
385
100
AcDbEntity
8
0
100
AcDbLine
10
175.13299999999998
20
-153.255
30
0
11
175.77000000000001
21
-152.572
31
0
0
LINE
5
386
100
AcDbEntity
8
0
100
AcDbLine
10
175.77000000000001
20
-152.572
30
0
11
176.27900000000005
21
-151.78700000000001
31
0
0
LINE
5
387
100
AcDbEntity
8
0
100
AcDbLine
10
163.66899999999998
20
-151.08100000000002
30
0
11
167.31900000000002
21
-153.01400000000001
31
0
0
LINE
5
388
100
AcDbEntity
8
0
100
AcDbLine
10
167.31900000000002
20
-153.01400000000001
30
0
11
167.31999999999999
21
-153.01400000000001
31
0
0
LINE
5
389
100
AcDbEntity
8
0
100
AcDbLine
10
167.31999999999999
20
-153.01400000000001
30
0
11
167.31999999999999
21
-153.01400000000001
31
0
0
LINE
5
390
100
AcDbEntity
8
0
100
AcDbLine
10
167.31999999999999
20
-153.01400000000001
30
0
11
168.459
21
-153.65299999999999
31
0
0
LINE
5
391
100
AcDbEntity
8
0
100
AcDbLine
10
168.459
20
-153.65299999999999
30
0
11
168.46000000000001
21
-153.65299999999999
31
0
0
LINE
5
392
100
AcDbEntity
8
0
100
AcDbLine
10
168.46000000000001
20
-153.65299999999999
30
0
11
168.46000000000001
21
-153.654
31
0
0
LINE
5
393
100
AcDbEntity
8
0
100
AcDbLine
10
168.46000000000001
20
-153.654
30
0
11
168.46000000000001
21
-153.654
31
0
0
LINE
5
394
100
AcDbEntity
8
0
100
AcDbLine
10
168.46000000000001
20
-153.654
30
0
11
169.03299999999999
21
-154.006
31
0
0
LINE
5
395
100
AcDbEntity
8
0
100
AcDbLine
10
169.03299999999999
20
-154.006
30
0
11
169.893
21
-154.37
31
0
0
LINE
5
396
100
AcDbEntity
8
0
100
AcDbLine
10
169.893
20
-154.37
30
0
11
170.803
21
-154.58000000000001
31
0
0
LINE
5
397
100
AcDbEntity
8
0
100
AcDbLine
10
170.803
20
-154.58000000000001
30
0
11
171.73599999999999
21
-154.62899999999999
31
0
0
LINE
5
398
100
AcDbEntity
8
0
100
AcDbLine
10
152.32499999999999
20
-146.09999999999999
30
0
11
156.166
21
-147.62100000000001
31
0
0
LINE
5
399
100
AcDbEntity
8
0
100
AcDbLine
10
156.166
20
-147.62100000000001
30
0
11
156.166
21
-147.62100000000001
31
0
0
LINE
5
400
100
AcDbEntity
8
0
100
AcDbLine
10
156.166
20
-147.62100000000001
30
0
11
156.166
21
-147.62100000000001
31
0
0
LINE
5
401
100
AcDbEntity
8
0
100
AcDbLine
10
156.166
20
-147.62100000000001
30
0
11
156.16700000000003
21
-147.62100000000001
31
0
0
LINE
5
402
100
AcDbEntity
8
0
100
AcDbLine
10
156.16700000000003
20
-147.62100000000001
30
0
11
159.94899999999998
21
-149.28200000000001
31
0
0
LINE
5
403
100
AcDbEntity
8
0
100
AcDbLine
10
159.94899999999998
20
-149.28200000000001
30
0
11
159.94899999999998
21
-149.28200000000001
31
0
0
LINE
5
404
100
AcDbEntity
8
0
100
AcDbLine
10
159.94899999999998
20
-149.28200000000001
30
0
11
159.94899999999998
21
-149.28200000000001
31
0
0
LINE
5
405
100
AcDbEntity
8
0
100
AcDbLine
10
159.94899999999998
20
-149.28200000000001
30
0
11
159.94899999999998
21
-149.28200000000001
31
0
0
LINE
5
406
100
AcDbEntity
8
0
100
AcDbLine
10
159.94899999999998
20
-149.28200000000001
30
0
11
163.66800000000001
21
-151.08000000000001
31
0
0
LINE
5
407
100
AcDbEntity
8
0
100
AcDbLine
10
163.66800000000001
20
-151.08000000000001
30
0
11
163.66899999999998
21
-151.08000000000001
31
0
0
LINE
5
408
100
AcDbEntity
8
0
100
AcDbLine
10
163.66899999999998
20
-151.08000000000001
30
0
11
163.66899999999998
21
-151.08100000000002
31
0
0
LINE
5
409
100
AcDbEntity
8
0
100
AcDbLine
10
163.66899999999998
20
-151.08100000000002
30
0
11
163.66899999999998
21
-151.08100000000002
31
0
0
LINE
5
410
100
AcDbEntity
8
0
100
AcDbLine
10
140.50399999999999
20
-142.39400000000001
30
0
11
144.488
21
-143.48400000000001
31
0
0
LINE
5
411
100
AcDbEntity
8
0
100
AcDbLine
10
144.488
20
-143.48400000000001
30
0
11
144.488
21
-143.48400000000001
31
0
0
LINE
5
412
100
AcDbEntity
8
0
100
AcDbLine
10
144.488
20
-143.48400000000001
30
0
11
144.48900000000003
21
-143.48400000000001
31
0
0
LINE
5
413
100
AcDbEntity
8
0
100
AcDbLine
10
144.48900000000003
20
-143.48400000000001
30
0
11
144.48900000000003
21
-143.48400000000001
31
0
0
LINE
5
414
100
AcDbEntity
8
0
100
AcDbLine
10
144.48900000000003
20
-143.48400000000001
30
0
11
148.43000000000001
21
-144.72000000000003
31
0
0
LINE
5
415
100
AcDbEntity
8
0
100
AcDbLine
10
148.43000000000001
20
-144.72000000000003
30
0
11
148.43100000000001
21
-144.72000000000003
31
0
0
LINE
5
416
100
AcDbEntity
8
0
100
AcDbLine
10
148.43100000000001
20
-144.72000000000003
30
0
11
148.43100000000001
21
-144.72000000000003
31
0
0
LINE
5
417
100
AcDbEntity
8
0
100
AcDbLine
10
148.43100000000001
20
-144.72000000000003
30
0
11
148.43100000000001
21
-144.72000000000003
31
0
0
LINE
5
418
100
AcDbEntity
8
0
100
AcDbLine
10
148.43100000000001
20
-144.72000000000003
30
0
11
152.32399999999998
21
-146.09899999999999
31
0
0
LINE
5
419
100
AcDbEntity
8
0
100
AcDbLine
10
152.32399999999998
20
-146.09899999999999
30
0
11
152.32499999999999
21
-146.09999999999999
31
0
0
LINE
5
420
100
AcDbEntity
8
0
100
AcDbLine
10
152.32499999999999
20
-146.09999999999999
30
0
11
152.32499999999999
21
-146.09999999999999
31
0
0
LINE
5
421
100
AcDbEntity
8
0
100
AcDbLine
10
152.32499999999999
20
-146.09999999999999
30
0
11
152.32499999999999
21
-146.09999999999999
31
0
0
LINE
5
422
100
AcDbEntity
8
0
100
AcDbLine
10
189.75700000000001
20
-42.296100000000003
30
0
11
189.75999999999999
21
-42.298900000000003
31
0
0
LINE
5
423
100
AcDbEntity
8
0
100
AcDbLine
10
189.75999999999999
20
-42.298900000000003
30
0
11
190.40099999999998
21
-42.939800000000005
31
0
0
LINE
5
424
100
AcDbEntity
8
0
100
AcDbLine
10
132.42700000000002
20
-140.654
30
0
11
132.42700000000002
21
-140.654
31
0
0
LINE
5
425
100
AcDbEntity
8
0
100
AcDbLine
10
132.42700000000002
20
-140.654
30
0
11
136.48099999999999
21
-141.44999999999999
31
0
0
LINE
5
426
100
AcDbEntity
8
0
100
AcDbLine
10
136.48099999999999
20
-141.44999999999999
30
0
11
136.48099999999999
21
-141.44999999999999
31
0
0
LINE
5
427
100
AcDbEntity
8
0
100
AcDbLine
10
136.48099999999999
20
-141.44999999999999
30
0
11
136.48099999999999
21
-141.44999999999999
31
0
0
LINE
5
428
100
AcDbEntity
8
0
100
AcDbLine
10
136.48099999999999
20
-141.44999999999999
30
0
11
136.48099999999999
21
-141.44999999999999
31
0
0
LINE
5
429
100
AcDbEntity
8
0
100
AcDbLine
10
136.48099999999999
20
-141.44999999999999
30
0
11
140.50299999999999
21
-142.39400000000001
31
0
0
LINE
5
430
100
AcDbEntity
8
0
100
AcDbLine
10
140.50299999999999
20
-142.39400000000001
30
0
11
140.50299999999999
21
-142.39400000000001
31
0
0
LINE
5
431
100
AcDbEntity
8
0
100
AcDbLine
10
140.50299999999999
20
-142.39400000000001
30
0
11
140.50399999999999
21
-142.39400000000001
31
0
0
LINE
5
432
100
AcDbEntity
8
0
100
AcDbLine
10
140.50399999999999
20
-142.39400000000001
30
0
11
140.50399999999999
21
-142.39400000000001
31
0
0
LINE
5
433
100
AcDbEntity
8
0
100
AcDbLine
10
120.12799999999999
20
-139.16499999999999
30
0
11
120.12799999999999
21
-139.16499999999999
31
0
0
LINE
5
434
100
AcDbEntity
8
0
100
AcDbLine
10
120.12799999999999
20
-139.16499999999999
30
0
11
124.244
21
-139.511
31
0
0
LINE
5
435
100
AcDbEntity
8
0
100
AcDbLine
10
124.244
20
-139.511
30
0
11
124.24500000000002
21
-139.511
31
0
0
LINE
5
436
100
AcDbEntity
8
0
100
AcDbLine
10
124.24500000000002
20
-139.511
30
0
11
124.24500000000002
21
-139.511
31
0
0
LINE
5
437
100
AcDbEntity
8
0
100
AcDbLine
10
124.24500000000002
20
-139.511
30
0
11
124.24500000000002
21
-139.511
31
0
0
LINE
5
438
100
AcDbEntity
8
0
100
AcDbLine
10
124.24500000000002
20
-139.511
30
0
11
128.346
21
-140.00700000000001
31
0
0
LINE
5
439
100
AcDbEntity
8
0
100
AcDbLine
10
128.346
20
-140.00700000000001
30
0
11
128.346
21
-140.00700000000001
31
0
0
LINE
5
440
100
AcDbEntity
8
0
100
AcDbLine
10
128.346
20
-140.00700000000001
30
0
11
128.34700000000001
21
-140.00700000000001
31
0
0
LINE
5
441
100
AcDbEntity
8
0
100
AcDbLine
10
128.34700000000001
20
-140.00700000000001
30
0
11
128.34700000000001
21
-140.00700000000001
31
0
0
LINE
5
442
100
AcDbEntity
8
0
100
AcDbLine
10
128.34700000000001
20
-140.00700000000001
30
0
11
132.42600000000004
21
-140.654
31
0
0
LINE
5
443
100
AcDbEntity
8
0
100
AcDbLine
10
132.42600000000004
20
-140.654
30
0
11
132.42700000000002
21
-140.654
31
0
0
LINE
5
444
100
AcDbEntity
8
0
100
AcDbLine
10
132.42700000000002
20
-140.654
30
0
11
132.42700000000002
21
-140.654
31
0
0
LINE
5
445
100
AcDbEntity
8
0
100
AcDbLine
10
38.638300000000001
20
-134.952
30
0
11
38.906999999999996
21
-135.81299999999999
31
0
0
LINE
5
446
100
AcDbEntity
8
0
100
AcDbLine
10
38.906999999999996
20
-135.81299999999999
30
0
11
39.321199999999997
21
-136.614
31
0
0
LINE
5
447
100
AcDbEntity
8
0
100
AcDbLine
10
39.321199999999997
20
-136.614
30
0
11
39.868200000000002
21
-137.33100000000002
31
0
0
LINE
5
448
100
AcDbEntity
8
0
100
AcDbLine
10
39.868200000000002
20
-137.33100000000002
30
0
11
40.531500000000008
21
-137.94299999999998
31
0
0
LINE
5
449
100
AcDbEntity
8
0
100
AcDbLine
10
40.531500000000008
20
-137.94299999999998
30
0
11
41.290900000000008
21
-138.43000000000001
31
0
0
LINE
5
450
100
AcDbEntity
8
0
100
AcDbLine
10
41.290900000000008
20
-138.43000000000001
30
0
11
42.123300000000008
21
-138.77700000000002
31
0
0
LINE
5
451
100
AcDbEntity
8
0
100
AcDbLine
10
42.123300000000008
20
-138.77700000000002
30
0
11
43.002800000000001
21
-138.97500000000002
31
0
0
LINE
5
452
100
AcDbEntity
8
0
100
AcDbLine
10
43.002800000000001
20
-138.97500000000002
30
0
11
116.001
21
-138.96899999999999
31
0
0
LINE
5
453
100
AcDbEntity
8
0
100
AcDbLine
10
116.001
20
-138.96899999999999
30
0
11
116.00200000000001
21
-138.97
31
0
0
LINE
5
454
100
AcDbEntity
8
0
100
AcDbLine
10
116.00200000000001
20
-138.97
30
0
11
120.12700000000002
21
-139.16399999999999
31
0
0
LINE
5
455
100
AcDbEntity
8
0
100
AcDbLine
10
120.12700000000002
20
-139.16399999999999
30
0
11
120.12799999999999
21
-139.16499999999999
31
0
0
LINE
5
456
100
AcDbEntity
8
0
100
AcDbLine
10
120.12799999999999
20
-139.16499999999999
30
0
11
120.12799999999999
21
-139.16499999999999
31
0
0
LINE
5
457
100
AcDbEntity
8
0
100
AcDbLine
10
38.5246
20
-119.495
30
0
11
38.525100000000009
21
-119.50000000000001
31
0
0
LINE
5
458
100
AcDbEntity
8
0
100
AcDbLine
10
38.525100000000009
20
-119.50000000000001
30
0
11
38.5246
21
-119.505
31
0
0
LINE
5
459
100
AcDbEntity
8
0
100
AcDbLine
10
38.5246
20
-119.505
30
0
11
38.523200000000003
21
-119.51000000000001
31
0
0
LINE
5
460
100
AcDbEntity
8
0
100
AcDbLine
10
38.523200000000003
20
-119.51000000000001
30
0
11
38.520899999999997
21
-119.514
31
0
0
LINE
5
461
100
AcDbEntity
8
0
100
AcDbLine
10
38.520899999999997
20
-119.514
30
0
11
38.517800000000001
21
-119.51799999999999
31
0
0
LINE
5
462
100
AcDbEntity
8
0
100
AcDbLine
10
38.517800000000001
20
-119.51799999999999
30
0
11
38.514000000000003
21
-119.52100000000002
31
0
0
LINE
5
463
100
AcDbEntity
8
0
100
AcDbLine
10
38.514000000000003
20
-119.52100000000002
30
0
11
38.512900000000002
21
-119.52100000000002
31
0
0
LINE
5
464
100
AcDbEntity
8
0
100
AcDbLine
10
38.512900000000002
20
-119.52100000000002
30
0
11
38.518700000000003
21
-133.846
31
0
0
LINE
5
465
100
AcDbEntity
8
0
100
AcDbLine
10
38.518700000000003
20
-133.846
30
0
11
38.523000000000003
21
-134.05600000000001
31
0
0
LINE
5
466
100
AcDbEntity
8
0
100
AcDbLine
10
38.523000000000003
20
-134.05600000000001
30
0
11
38.638300000000001
21
-134.952
31
0
0
LINE
5
467
100
AcDbEntity
8
0
100
AcDbLine
10
40.843300000000006
20
-41.374200000000002
30
0
11
40.126100000000008
21
-41.921199999999999
31
0
0
LINE
5
468
100
AcDbEntity
8
0
100
AcDbLine
10
40.126100000000008
20
-41.921199999999999
30
0
11
39.514699999999998
21
-42.584499999999998
31
0
0
LINE
5
469
100
AcDbEntity
8
0
100
AcDbLine
10
39.514699999999998
20
-42.584499999999998
30
0
11
39.027799999999999
21
-43.343800000000002
31
0
0
LINE
5
470
100
AcDbEntity
8
0
100
AcDbLine
10
39.027799999999999
20
-43.343800000000002
30
0
11
38.680199999999999
21
-44.176200000000001
31
0
0
LINE
5
471
100
AcDbEntity
8
0
100
AcDbLine
10
38.680199999999999
20
-44.176200000000001
30
0
11
38.482500000000002
21
-45.055700000000002
31
0
0
LINE
5
472
100
AcDbEntity
8
0
100
AcDbLine
10
38.482500000000002
20
-45.055700000000002
30
0
11
38.512900000000002
21
-119.47900000000001
31
0
0
LINE
5
473
100
AcDbEntity
8
0
100
AcDbLine
10
38.512900000000002
20
-119.47900000000001
30
0
11
38.514000000000003
21
-119.47900000000001
31
0
0
LINE
5
474
100
AcDbEntity
8
0
100
AcDbLine
10
38.514000000000003
20
-119.47900000000001
30
0
11
38.517800000000001
21
-119.48200000000001
31
0
0
LINE
5
475
100
AcDbEntity
8
0
100
AcDbLine
10
38.517800000000001
20
-119.48200000000001
30
0
11
38.520899999999997
21
-119.486
31
0
0
LINE
5
476
100
AcDbEntity
8
0
100
AcDbLine
10
38.520899999999997
20
-119.486
30
0
11
38.523200000000003
21
-119.48999999999999
31
0
0
LINE
5
477
100
AcDbEntity
8
0
100
AcDbLine
10
38.523200000000003
20
-119.48999999999999
30
0
11
38.5246
21
-119.495
31
0
0
LINE
5
478
100
AcDbEntity
8
0
100
AcDbLine
10
190.40099999999998
20
-42.939800000000005
30
0
11
190.40400000000002
21
-42.943199999999997
31
0
0
LINE
5
479
100
AcDbEntity
8
0
100
AcDbLine
10
52.233699999999999
20
-40.193600000000004
30
0
11
52.233600000000003
21
-40.193600000000004
31
0
0
LINE
5
480
100
AcDbEntity
8
0
100
AcDbLine
10
52.233600000000003
20
-40.193600000000004
30
0
11
46.559699999999999
21
-40.48360000000001
31
0
0
LINE
5
481
100
AcDbEntity
8
0
100
AcDbLine
10
46.559699999999999
20
-40.48360000000001
30
0
11
46.559400000000004
21
-40.483699999999999
31
0
0
LINE
5
482
100
AcDbEntity
8
0
100
AcDbLine
10
46.559400000000004
20
-40.483699999999999
30
0
11
46.559300000000007
21
-40.483699999999999
31
0
0
LINE
5
483
100
AcDbEntity
8
0
100
AcDbLine
10
46.559300000000007
20
-40.483699999999999
30
0
11
46.559200000000004
21
-40.483699999999999
31
0
0
LINE
5
484
100
AcDbEntity
8
0
100
AcDbLine
10
46.559200000000004
20
-40.483699999999999
30
0
11
43.611800000000002
21
-40.5717
31
0
0
LINE
5
485
100
AcDbEntity
8
0
100
AcDbLine
10
43.611800000000002
20
-40.5717
30
0
11
43.61160000000001
21
-40.5717
31
0
0
LINE
5
486
100
AcDbEntity
8
0
100
AcDbLine
10
43.61160000000001
20
-40.5717
30
0
11
43.61160000000001
21
-40.5717
31
0
0
LINE
5
487
100
AcDbEntity
8
0
100
AcDbLine
10
43.61160000000001
20
-40.5717
30
0
11
43.401200000000003
21
-40.576000000000001
31
0
0
LINE
5
488
100
AcDbEntity
8
0
100
AcDbLine
10
43.401200000000003
20
-40.576000000000001
30
0
11
42.505699999999997
21
-40.691200000000009
31
0
0
LINE
5
489
100
AcDbEntity
8
0
100
AcDbLine
10
42.505699999999997
20
-40.691200000000009
30
0
11
41.644599999999997
21
-40.960000000000001
31
0
0
LINE
5
490
100
AcDbEntity
8
0
100
AcDbLine
10
41.644599999999997
20
-40.960000000000001
30
0
11
40.843300000000006
21
-41.374200000000002
31
0
0
LINE
5
491
100
AcDbEntity
8
0
100
AcDbLine
10
63.548100000000005
20
-39.138800000000003
30
0
11
63.547700000000006
21
-39.138900000000007
31
0
0
LINE
5
492
100
AcDbEntity
8
0
100
AcDbLine
10
63.547700000000006
20
-39.138900000000007
30
0
11
63.547499999999999
21
-39.138900000000007
31
0
0
LINE
5
493
100
AcDbEntity
8
0
100
AcDbLine
10
63.547499999999999
20
-39.138900000000007
30
0
11
63.547400000000003
21
-39.138900000000007
31
0
0
LINE
5
494
100
AcDbEntity
8
0
100
AcDbLine
10
63.547400000000003
20
-39.138900000000007
30
0
11
57.898500000000006
21
-39.745199999999997
31
0
0
LINE
5
495
100
AcDbEntity
8
0
100
AcDbLine
10
57.898500000000006
20
-39.745199999999997
30
0
11
57.898200000000003
21
-39.745199999999997
31
0
0
LINE
5
496
100
AcDbEntity
8
0
100
AcDbLine
10
57.898200000000003
20
-39.745199999999997
30
0
11
57.898000000000003
21
-39.7453
31
0
0
LINE
5
497
100
AcDbEntity
8
0
100
AcDbLine
10
57.898000000000003
20
-39.7453
30
0
11
57.897800000000004
21
-39.7453
31
0
0
LINE
5
498
100
AcDbEntity
8
0
100
AcDbLine
10
57.897800000000004
20
-39.7453
30
0
11
52.234300000000005
21
-40.193600000000004
31
0
0
LINE
5
499
100
AcDbEntity
8
0
100
AcDbLine
10
52.234300000000005
20
-40.193600000000004
30
0
11
52.233900000000006
21
-40.193600000000004
31
0
0
LINE
5
500
100
AcDbEntity
8
0
100
AcDbLine
10
52.233900000000006
20
-40.193600000000004
30
0
11
52.233699999999999
21
-40.193600000000004
31
0
0
LINE
5
501
100
AcDbEntity
8
0
100
AcDbLine
10
39.832700000000003
20
-137.36700000000002
30
0
11
39.829799999999999
21
-137.364
31
0
0
LINE
5
502
100
AcDbEntity
8
0
100
AcDbLine
10
124.009
20
-34.5122
30
0
11
124.009
21
-34.51230000000001
31
0
0
LINE
5
503
100
AcDbEntity
8
0
100
AcDbLine
10
124.009
20
-34.51230000000001
30
0
11
124.009
21
-34.51230000000001
31
0
0
LINE
5
504
100
AcDbEntity
8
0
100
AcDbLine
10
124.009
20
-34.51230000000001
30
0
11
124.009
21
-34.51230000000001
31
0
0
LINE
5
505
100
AcDbEntity
8
0
100
AcDbLine
10
38.588999999999999
20
-134.96000000000004
30
0
11
38.473300000000002
21
-134.06100000000004
31
0
0
LINE
5
506
100
AcDbEntity
8
0
100
AcDbLine
10
38.473199999999999
20
-134.06
30
0
11
38.473100000000002
21
-134.059
31
0
0
LINE
5
507
100
AcDbEntity
8
0
100
AcDbLine
10
85.899900000000002
20
-35.096200000000003
30
0
11
85.899900000000002
21
-35.096200000000003
31
0
0
LINE
5
508
100
AcDbEntity
8
0
100
AcDbLine
10
85.899900000000002
20
-35.096200000000003
30
0
11
85.899900000000002
21
-35.096200000000003
31
0
0
LINE
5
509
100
AcDbEntity
8
0
100
AcDbLine
10
85.899799999999999
20
-35.096200000000003
30
0
11
85.899900000000002
21
-35.096200000000003
31
0
0
LINE
5
510
100
AcDbEntity
8
0
100
AcDbLine
10
159.928
20
-149.327
30
0
11
156.14700000000002
21
-147.667
31
0
0
LINE
5
511
100
AcDbEntity
8
0
100
AcDbLine
10
156.14700000000002
20
-147.667
30
0
11
152.30700000000002
21
-146.14600000000002
31
0
0
LINE
5
512
100
AcDbEntity
8
0
100
AcDbLine
10
152.30700000000002
20
-146.14600000000002
30
0
11
148.41499999999999
21
-144.768
31
0
0
LINE
5
513
100
AcDbEntity
8
0
100
AcDbLine
10
148.41499999999999
20
-144.768
30
0
11
144.47399999999999
21
-143.53200000000001
31
0
0
LINE
5
514
100
AcDbEntity
8
0
100
AcDbLine
10
144.47399999999999
20
-143.53200000000001
30
0
11
140.49100000000004
21
-142.44200000000001
31
0
0
LINE
5
515
100
AcDbEntity
8
0
100
AcDbLine
10
140.49100000000004
20
-142.44200000000001
30
0
11
136.47
21
-141.499
31
0
0
LINE
5
516
100
AcDbEntity
8
0
100
AcDbLine
10
136.47
20
-141.499
30
0
11
132.41800000000001
21
-140.703
31
0
0
LINE
5
517
100
AcDbEntity
8
0
100
AcDbLine
10
132.41800000000001
20
-140.703
30
0
11
128.339
21
-140.05700000000002
31
0
0
ENDSEC
0
SECTION
2
OBJECTS
0
DICTIONARY
5
C
100
AcDbDictionary
3
ACAD_GROUP
350
D
3
ACAD_MLINESTYLE
350
17
0
DICTIONARY
5
D
100
AcDbDictionary
0
DICTIONARY
5
1A
330
C
100
AcDbDictionary
0
DICTIONARY
5
17
100
AcDbDictionary
0
ENDSEC
0
EOF
