  0
SECTION
  2
HEADER
  9
$ANGBASE
  50
0.0
  9
$ANGDIR
  70
1
  9
$MEASUREMENT
  70
1
  0
ENDSEC
  0
SECTION
  2
TABLES
  0
TABLE
  2
LTYPE
  70
4
  0
LTYPE
  5
40F
  2
CONTINUOUS
  70
0
  3
Solid line
  72
65
  73
0
  40
0.0
  0
LTYPE
  5
410
  2
DASHDOT
 70
0
  3
Dash Dot ____ _ ____ _
 72
65
 73
4
 40
2.0
 49
1.25
 49
-0.25
 49
0.25
 49
-0.25
  0
LTYPE
  5
411
  2
DASHED
 70
0
  3
Dashed __ __ __ __ __
 72
65
 73
2
 40
0.75
 49
0.5
 49
-0.25
  0
LTYPE
  5
43B
  2
DOTTED
 70
0
  3
Dotted .  .  .  .
 72
65
 73
2
 40
0.2
 49
0.0
 49
-0.2
  0
ENDTAB
  0
TABLE
  2
STYLE
  70
4
  0
STYLE
  2
KICAD
  70
0
  40
0
  41
1
  42
1
  50
0
  71
0
  3
isocp.shx
  0
STYLE
  2
KICADB
  70
0
  40
0
  41
1
  42
1
  50
0
  71
0
  3
isocp.shx
  0
STYLE
  2
KICADI
  70
0
  40
0
  41
1
  42
1
  50
15
  71
0
  3
isocp.shx
  0
STYLE
  2
KICADBI
  70
0
  40
0
  41
1
  42
1
  50
15
  71
0
  3
isocp.shx
  0
ENDTAB
  0
TABLE
  2
LAYER
  70
1
  0
LAYER
  2
BLACK
  70
0
  62
7
  6
CONTINUOUS
  0
ENDTAB
  0
ENDSEC
  0
SECTION
  2
ENTITIES
0
LINE
8
BLACK
6
CONTINUOUS
10
171.335
20
-129.894
11
171.545
21
-129.981
0
LINE
8
BLACK
6
CONTINUOUS
10
171.545
20
-129.981
11
171.733
21
-130.107
0
LINE
8
BLACK
6
CONTINUOUS
10
171.733
20
-130.107
11
171.893
21
-130.267
0
LINE
8
BLACK
6
CONTINUOUS
10
171.893
20
-130.267
11
172.019
21
-130.455
0
LINE
8
BLACK
6
CONTINUOUS
10
172.019
20
-130.455
11
172.106
21
-130.665
0
LINE
8
BLACK
6
CONTINUOUS
10
172.106
20
-130.665
11
172.15
21
-130.887
0
LINE
8
BLACK
6
CONTINUOUS
10
172.15
20
-130.887
11
172.15
21
-131.113
0
LINE
8
BLACK
6
CONTINUOUS
10
172.15
20
-131.113
11
172.106
21
-131.335
0
LINE
8
BLACK
6
CONTINUOUS
10
172.106
20
-131.335
11
172.019
21
-131.545
0
LINE
8
BLACK
6
CONTINUOUS
10
172.019
20
-131.545
11
171.893
21
-131.733
0
LINE
8
BLACK
6
CONTINUOUS
10
171.893
20
-131.733
11
171.733
21
-131.893
0
LINE
8
BLACK
6
CONTINUOUS
10
171.733
20
-131.893
11
171.545
21
-132.019
0
LINE
8
BLACK
6
CONTINUOUS
10
171.545
20
-132.019
11
171.335
21
-132.106
0
LINE
8
BLACK
6
CONTINUOUS
10
171.335
20
-132.106
11
171.113
21
-132.15
0
LINE
8
BLACK
6
CONTINUOUS
10
171.113
20
-132.15
11
170.887
21
-132.15
0
LINE
8
BLACK
6
CONTINUOUS
10
170.887
20
-132.15
11
170.665
21
-132.106
0
LINE
8
BLACK
6
CONTINUOUS
10
170.665
20
-132.106
11
170.455
21
-132.019
0
LINE
8
BLACK
6
CONTINUOUS
10
170.455
20
-132.019
11
170.267
21
-131.893
0
LINE
8
BLACK
6
CONTINUOUS
10
170.267
20
-131.893
11
170.107
21
-131.733
0
LINE
8
BLACK
6
CONTINUOUS
10
170.107
20
-131.733
11
169.981
21
-131.545
0
LINE
8
BLACK
6
CONTINUOUS
10
169.981
20
-131.545
11
169.894
21
-131.335
0
LINE
8
BLACK
6
CONTINUOUS
10
169.894
20
-131.335
11
169.85
21
-131.113
0
LINE
8
BLACK
6
CONTINUOUS
10
169.85
20
-131.113
11
169.85
21
-130.887
0
LINE
8
BLACK
6
CONTINUOUS
10
169.85
20
-130.887
11
169.894
21
-130.665
0
LINE
8
BLACK
6
CONTINUOUS
10
169.894
20
-130.665
11
169.981
21
-130.455
0
LINE
8
BLACK
6
CONTINUOUS
10
169.981
20
-130.455
11
170.107
21
-130.267
0
LINE
8
BLACK
6
CONTINUOUS
10
170.107
20
-130.267
11
170.267
21
-130.107
0
LINE
8
BLACK
6
CONTINUOUS
10
170.267
20
-130.107
11
170.455
21
-129.981
0
LINE
8
BLACK
6
CONTINUOUS
10
170.455
20
-129.981
11
170.665
21
-129.894
0
LINE
8
BLACK
6
CONTINUOUS
10
170.665
20
-129.894
11
170.887
21
-129.85
0
LINE
8
BLACK
6
CONTINUOUS
10
170.887
20
-129.85
11
171.113
21
-129.85
0
LINE
8
BLACK
6
CONTINUOUS
10
171.113
20
-129.85
11
171.335
21
-129.894
0
LINE
8
BLACK
6
CONTINUOUS
10
152.535
20
-96.4942
11
152.745
21
-96.5809
0
LINE
8
BLACK
6
CONTINUOUS
10
152.745
20
-96.5809
11
152.933
21
-96.7067
0
LINE
8
BLACK
6
CONTINUOUS
10
152.933
20
-96.7067
11
153.093
21
-96.8669
0
LINE
8
BLACK
6
CONTINUOUS
10
153.093
20
-96.8669
11
153.219
21
-97.0553
0
LINE
8
BLACK
6
CONTINUOUS
10
153.219
20
-97.0553
11
153.306
21
-97.2646
0
LINE
8
BLACK
6
CONTINUOUS
10
153.306
20
-97.2646
11
153.35
21
-97.4867
0
LINE
8
BLACK
6
CONTINUOUS
10
153.35
20
-97.4867
11
153.35
21
-97.7133
0
LINE
8
BLACK
6
CONTINUOUS
10
153.35
20
-97.7133
11
153.306
21
-97.9354
0
LINE
8
BLACK
6
CONTINUOUS
10
153.306
20
-97.9354
11
153.219
21
-98.1447
0
LINE
8
BLACK
6
CONTINUOUS
10
153.219
20
-98.1447
11
153.093
21
-98.3331
0
LINE
8
BLACK
6
CONTINUOUS
10
153.093
20
-98.3331
11
152.933
21
-98.4933
0
LINE
8
BLACK
6
CONTINUOUS
10
152.933
20
-98.4933
11
152.745
21
-98.6191
0
LINE
8
BLACK
6
CONTINUOUS
10
152.745
20
-98.6191
11
152.535
21
-98.7058
0
LINE
8
BLACK
6
CONTINUOUS
10
152.535
20
-98.7058
11
152.313
21
-98.75
0
LINE
8
BLACK
6
CONTINUOUS
10
152.313
20
-98.75
11
152.087
21
-98.75
0
LINE
8
BLACK
6
CONTINUOUS
10
152.087
20
-98.75
11
151.865
21
-98.7058
0
LINE
8
BLACK
6
CONTINUOUS
10
151.865
20
-98.7058
11
151.655
21
-98.6191
0
LINE
8
BLACK
6
CONTINUOUS
10
151.655
20
-98.6191
11
151.467
21
-98.4933
0
LINE
8
BLACK
6
CONTINUOUS
10
151.467
20
-98.4933
11
151.307
21
-98.3331
0
LINE
8
BLACK
6
CONTINUOUS
10
151.307
20
-98.3331
11
151.181
21
-98.1447
0
LINE
8
BLACK
6
CONTINUOUS
10
151.181
20
-98.1447
11
151.094
21
-97.9354
0
LINE
8
BLACK
6
CONTINUOUS
10
151.094
20
-97.9354
11
151.05
21
-97.7133
0
LINE
8
BLACK
6
CONTINUOUS
10
151.05
20
-97.7133
11
151.05
21
-97.4867
0
LINE
8
BLACK
6
CONTINUOUS
10
151.05
20
-97.4867
11
151.094
21
-97.2646
0
LINE
8
BLACK
6
CONTINUOUS
10
151.094
20
-97.2646
11
151.181
21
-97.0553
0
LINE
8
BLACK
6
CONTINUOUS
10
151.181
20
-97.0553
11
151.307
21
-96.8669
0
LINE
8
BLACK
6
CONTINUOUS
10
151.307
20
-96.8669
11
151.467
21
-96.7067
0
LINE
8
BLACK
6
CONTINUOUS
10
151.467
20
-96.7067
11
151.655
21
-96.5809
0
LINE
8
BLACK
6
CONTINUOUS
10
151.655
20
-96.5809
11
151.865
21
-96.4942
0
LINE
8
BLACK
6
CONTINUOUS
10
151.865
20
-96.4942
11
152.087
21
-96.45
0
LINE
8
BLACK
6
CONTINUOUS
10
152.087
20
-96.45
11
152.313
21
-96.45
0
LINE
8
BLACK
6
CONTINUOUS
10
152.313
20
-96.45
11
152.535
21
-96.4942
0
LINE
8
BLACK
6
CONTINUOUS
10
57.3354
20
-96.4942
11
57.5447
21
-96.5809
0
LINE
8
BLACK
6
CONTINUOUS
10
57.5447
20
-96.5809
11
57.7331
21
-96.7067
0
LINE
8
BLACK
6
CONTINUOUS
10
57.7331
20
-96.7067
11
57.8933
21
-96.8669
0
LINE
8
BLACK
6
CONTINUOUS
10
57.8933
20
-96.8669
11
58.0191
21
-97.0553
0
LINE
8
BLACK
6
CONTINUOUS
10
58.0191
20
-97.0553
11
58.1058
21
-97.2646
0
LINE
8
BLACK
6
CONTINUOUS
10
58.1058
20
-97.2646
11
58.15
21
-97.4867
0
LINE
8
BLACK
6
CONTINUOUS
10
58.15
20
-97.4867
11
58.15
21
-97.7133
0
LINE
8
BLACK
6
CONTINUOUS
10
58.15
20
-97.7133
11
58.1058
21
-97.9354
0
LINE
8
BLACK
6
CONTINUOUS
10
58.1058
20
-97.9354
11
58.0191
21
-98.1447
0
LINE
8
BLACK
6
CONTINUOUS
10
58.0191
20
-98.1447
11
57.8933
21
-98.3331
0
LINE
8
BLACK
6
CONTINUOUS
10
57.8933
20
-98.3331
11
57.7331
21
-98.4933
0
LINE
8
BLACK
6
CONTINUOUS
10
57.7331
20
-98.4933
11
57.5447
21
-98.6191
0
LINE
8
BLACK
6
CONTINUOUS
10
57.5447
20
-98.6191
11
57.3354
21
-98.7058
0
LINE
8
BLACK
6
CONTINUOUS
10
57.3354
20
-98.7058
11
57.1133
21
-98.75
0
LINE
8
BLACK
6
CONTINUOUS
10
57.1133
20
-98.75
11
56.8867
21
-98.75
0
LINE
8
BLACK
6
CONTINUOUS
10
56.8867
20
-98.75
11
56.6646
21
-98.7058
0
LINE
8
BLACK
6
CONTINUOUS
10
56.6646
20
-98.7058
11
56.4553
21
-98.6191
0
LINE
8
BLACK
6
CONTINUOUS
10
56.4553
20
-98.6191
11
56.2669
21
-98.4933
0
LINE
8
BLACK
6
CONTINUOUS
10
56.2669
20
-98.4933
11
56.1067
21
-98.3331
0
LINE
8
BLACK
6
CONTINUOUS
10
56.1067
20
-98.3331
11
55.9809
21
-98.1447
0
LINE
8
BLACK
6
CONTINUOUS
10
55.9809
20
-98.1447
11
55.8942
21
-97.9354
0
LINE
8
BLACK
6
CONTINUOUS
10
55.8942
20
-97.9354
11
55.85
21
-97.7133
0
LINE
8
BLACK
6
CONTINUOUS
10
55.85
20
-97.7133
11
55.85
21
-97.4867
0
LINE
8
BLACK
6
CONTINUOUS
10
55.85
20
-97.4867
11
55.8942
21
-97.2646
0
LINE
8
BLACK
6
CONTINUOUS
10
55.8942
20
-97.2646
11
55.9809
21
-97.0553
0
LINE
8
BLACK
6
CONTINUOUS
10
55.9809
20
-97.0553
11
56.1067
21
-96.8669
0
LINE
8
BLACK
6
CONTINUOUS
10
56.1067
20
-96.8669
11
56.2669
21
-96.7067
0
LINE
8
BLACK
6
CONTINUOUS
10
56.2669
20
-96.7067
11
56.4553
21
-96.5809
0
LINE
8
BLACK
6
CONTINUOUS
10
56.4553
20
-96.5809
11
56.6646
21
-96.4942
0
LINE
8
BLACK
6
CONTINUOUS
10
56.6646
20
-96.4942
11
56.8867
21
-96.45
0
LINE
8
BLACK
6
CONTINUOUS
10
56.8867
20
-96.45
11
57.1133
21
-96.45
0
LINE
8
BLACK
6
CONTINUOUS
10
57.1133
20
-96.45
11
57.3354
21
-96.4942
0
LINE
8
BLACK
6
CONTINUOUS
10
95.3354
20
-92.5942
11
95.5447
21
-92.6809
0
LINE
8
BLACK
6
CONTINUOUS
10
95.5447
20
-92.6809
11
95.7331
21
-92.8067
0
LINE
8
BLACK
6
CONTINUOUS
10
95.7331
20
-92.8067
11
95.8933
21
-92.9669
0
LINE
8
BLACK
6
CONTINUOUS
10
95.8933
20
-92.9669
11
96.0191
21
-93.1553
0
LINE
8
BLACK
6
CONTINUOUS
10
96.0191
20
-93.1553
11
96.1058
21
-93.3646
0
LINE
8
BLACK
6
CONTINUOUS
10
96.1058
20
-93.3646
11
96.15
21
-93.5867
0
LINE
8
BLACK
6
CONTINUOUS
10
96.15
20
-93.5867
11
96.15
21
-93.8133
0
LINE
8
BLACK
6
CONTINUOUS
10
96.15
20
-93.8133
11
96.1058
21
-94.0354
0
LINE
8
BLACK
6
CONTINUOUS
10
96.1058
20
-94.0354
11
96.0191
21
-94.2447
0
LINE
8
BLACK
6
CONTINUOUS
10
96.0191
20
-94.2447
11
95.8933
21
-94.4331
0
LINE
8
BLACK
6
CONTINUOUS
10
95.8933
20
-94.4331
11
95.7331
21
-94.5933
0
LINE
8
BLACK
6
CONTINUOUS
10
95.7331
20
-94.5933
11
95.5447
21
-94.7191
0
LINE
8
BLACK
6
CONTINUOUS
10
95.5447
20
-94.7191
11
95.3354
21
-94.8058
0
LINE
8
BLACK
6
CONTINUOUS
10
95.3354
20
-94.8058
11
95.1133
21
-94.85
0
LINE
8
BLACK
6
CONTINUOUS
10
95.1133
20
-94.85
11
94.8867
21
-94.85
0
LINE
8
BLACK
6
CONTINUOUS
10
94.8867
20
-94.85
11
94.6646
21
-94.8058
0
LINE
8
BLACK
6
CONTINUOUS
10
94.6646
20
-94.8058
11
94.4553
21
-94.7191
0
LINE
8
BLACK
6
CONTINUOUS
10
94.4553
20
-94.7191
11
94.2669
21
-94.5933
0
LINE
8
BLACK
6
CONTINUOUS
10
94.2669
20
-94.5933
11
94.1067
21
-94.4331
0
LINE
8
BLACK
6
CONTINUOUS
10
94.1067
20
-94.4331
11
93.9809
21
-94.2447
0
LINE
8
BLACK
6
CONTINUOUS
10
93.9809
20
-94.2447
11
93.8942
21
-94.0354
0
LINE
8
BLACK
6
CONTINUOUS
10
93.8942
20
-94.0354
11
93.85
21
-93.8133
0
LINE
8
BLACK
6
CONTINUOUS
10
93.85
20
-93.8133
11
93.85
21
-93.5867
0
LINE
8
BLACK
6
CONTINUOUS
10
93.85
20
-93.5867
11
93.8942
21
-93.3646
0
LINE
8
BLACK
6
CONTINUOUS
10
93.8942
20
-93.3646
11
93.9809
21
-93.1553
0
LINE
8
BLACK
6
CONTINUOUS
10
93.9809
20
-93.1553
11
94.1067
21
-92.9669
0
LINE
8
BLACK
6
CONTINUOUS
10
94.1067
20
-92.9669
11
94.2669
21
-92.8067
0
LINE
8
BLACK
6
CONTINUOUS
10
94.2669
20
-92.8067
11
94.4553
21
-92.6809
0
LINE
8
BLACK
6
CONTINUOUS
10
94.4553
20
-92.6809
11
94.6646
21
-92.5942
0
LINE
8
BLACK
6
CONTINUOUS
10
94.6646
20
-92.5942
11
94.8867
21
-92.55
0
LINE
8
BLACK
6
CONTINUOUS
10
94.8867
20
-92.55
11
95.1133
21
-92.55
0
LINE
8
BLACK
6
CONTINUOUS
10
95.1133
20
-92.55
11
95.3354
21
-92.5942
0
LINE
8
BLACK
6
CONTINUOUS
10
57.3354
20
-58.3942
11
57.5447
21
-58.4809
0
LINE
8
BLACK
6
CONTINUOUS
10
57.5447
20
-58.4809
11
57.7331
21
-58.6067
0
LINE
8
BLACK
6
CONTINUOUS
10
57.7331
20
-58.6067
11
57.8933
21
-58.7669
0
LINE
8
BLACK
6
CONTINUOUS
10
57.8933
20
-58.7669
11
58.0191
21
-58.9553
0
LINE
8
BLACK
6
CONTINUOUS
10
58.0191
20
-58.9553
11
58.1058
21
-59.1646
0
LINE
8
BLACK
6
CONTINUOUS
10
58.1058
20
-59.1646
11
58.15
21
-59.3867
0
LINE
8
BLACK
6
CONTINUOUS
10
58.15
20
-59.3867
11
58.15
21
-59.6133
0
LINE
8
BLACK
6
CONTINUOUS
10
58.15
20
-59.6133
11
58.1058
21
-59.8354
0
LINE
8
BLACK
6
CONTINUOUS
10
58.1058
20
-59.8354
11
58.0191
21
-60.0447
0
LINE
8
BLACK
6
CONTINUOUS
10
58.0191
20
-60.0447
11
57.8933
21
-60.2331
0
LINE
8
BLACK
6
CONTINUOUS
10
57.8933
20
-60.2331
11
57.7331
21
-60.3933
0
LINE
8
BLACK
6
CONTINUOUS
10
57.7331
20
-60.3933
11
57.5447
21
-60.5191
0
LINE
8
BLACK
6
CONTINUOUS
10
57.5447
20
-60.5191
11
57.3354
21
-60.6058
0
LINE
8
BLACK
6
CONTINUOUS
10
57.3354
20
-60.6058
11
57.1133
21
-60.65
0
LINE
8
BLACK
6
CONTINUOUS
10
57.1133
20
-60.65
11
56.8867
21
-60.65
0
LINE
8
BLACK
6
CONTINUOUS
10
56.8867
20
-60.65
11
56.6646
21
-60.6058
0
LINE
8
BLACK
6
CONTINUOUS
10
56.6646
20
-60.6058
11
56.4553
21
-60.5191
0
LINE
8
BLACK
6
CONTINUOUS
10
56.4553
20
-60.5191
11
56.2669
21
-60.3933
0
LINE
8
BLACK
6
CONTINUOUS
10
56.2669
20
-60.3933
11
56.1067
21
-60.2331
0
LINE
8
BLACK
6
CONTINUOUS
10
56.1067
20
-60.2331
11
55.9809
21
-60.0447
0
LINE
8
BLACK
6
CONTINUOUS
10
55.9809
20
-60.0447
11
55.8942
21
-59.8354
0
LINE
8
BLACK
6
CONTINUOUS
10
55.8942
20
-59.8354
11
55.85
21
-59.6133
0
LINE
8
BLACK
6
CONTINUOUS
10
55.85
20
-59.6133
11
55.85
21
-59.3867
0
LINE
8
BLACK
6
CONTINUOUS
10
55.85
20
-59.3867
11
55.8942
21
-59.1646
0
LINE
8
BLACK
6
CONTINUOUS
10
55.8942
20
-59.1646
11
55.9809
21
-58.9553
0
LINE
8
BLACK
6
CONTINUOUS
10
55.9809
20
-58.9553
11
56.1067
21
-58.7669
0
LINE
8
BLACK
6
CONTINUOUS
10
56.1067
20
-58.7669
11
56.2669
21
-58.6067
0
LINE
8
BLACK
6
CONTINUOUS
10
56.2669
20
-58.6067
11
56.4553
21
-58.4809
0
LINE
8
BLACK
6
CONTINUOUS
10
56.4553
20
-58.4809
11
56.6646
21
-58.3942
0
LINE
8
BLACK
6
CONTINUOUS
10
56.6646
20
-58.3942
11
56.8867
21
-58.35
0
LINE
8
BLACK
6
CONTINUOUS
10
56.8867
20
-58.35
11
57.1133
21
-58.35
0
LINE
8
BLACK
6
CONTINUOUS
10
57.1133
20
-58.35
11
57.3354
21
-58.3942
0
LINE
8
BLACK
6
CONTINUOUS
10
152.535
20
-57.5942
11
152.745
21
-57.6809
0
LINE
8
BLACK
6
CONTINUOUS
10
152.745
20
-57.6809
11
152.933
21
-57.8067
0
LINE
8
BLACK
6
CONTINUOUS
10
152.933
20
-57.8067
11
153.093
21
-57.9669
0
LINE
8
BLACK
6
CONTINUOUS
10
153.093
20
-57.9669
11
153.219
21
-58.1553
0
LINE
8
BLACK
6
CONTINUOUS
10
153.219
20
-58.1553
11
153.306
21
-58.3646
0
LINE
8
BLACK
6
CONTINUOUS
10
153.306
20
-58.3646
11
153.35
21
-58.5867
0
LINE
8
BLACK
6
CONTINUOUS
10
153.35
20
-58.5867
11
153.35
21
-58.8133
0
LINE
8
BLACK
6
CONTINUOUS
10
153.35
20
-58.8133
11
153.306
21
-59.0354
0
LINE
8
BLACK
6
CONTINUOUS
10
153.306
20
-59.0354
11
153.219
21
-59.2447
0
LINE
8
BLACK
6
CONTINUOUS
10
153.219
20
-59.2447
11
153.093
21
-59.4331
0
LINE
8
BLACK
6
CONTINUOUS
10
153.093
20
-59.4331
11
152.933
21
-59.5933
0
LINE
8
BLACK
6
CONTINUOUS
10
152.933
20
-59.5933
11
152.745
21
-59.7191
0
LINE
8
BLACK
6
CONTINUOUS
10
152.745
20
-59.7191
11
152.535
21
-59.8058
0
LINE
8
BLACK
6
CONTINUOUS
10
152.535
20
-59.8058
11
152.313
21
-59.85
0
LINE
8
BLACK
6
CONTINUOUS
10
152.313
20
-59.85
11
152.087
21
-59.85
0
LINE
8
BLACK
6
CONTINUOUS
10
152.087
20
-59.85
11
151.865
21
-59.8058
0
LINE
8
BLACK
6
CONTINUOUS
10
151.865
20
-59.8058
11
151.655
21
-59.7191
0
LINE
8
BLACK
6
CONTINUOUS
10
151.655
20
-59.7191
11
151.467
21
-59.5933
0
LINE
8
BLACK
6
CONTINUOUS
10
151.467
20
-59.5933
11
151.307
21
-59.4331
0
LINE
8
BLACK
6
CONTINUOUS
10
151.307
20
-59.4331
11
151.181
21
-59.2447
0
LINE
8
BLACK
6
CONTINUOUS
10
151.181
20
-59.2447
11
151.094
21
-59.0354
0
LINE
8
BLACK
6
CONTINUOUS
10
151.094
20
-59.0354
11
151.05
21
-58.8133
0
LINE
8
BLACK
6
CONTINUOUS
10
151.05
20
-58.8133
11
151.05
21
-58.5867
0
LINE
8
BLACK
6
CONTINUOUS
10
151.05
20
-58.5867
11
151.094
21
-58.3646
0
LINE
8
BLACK
6
CONTINUOUS
10
151.094
20
-58.3646
11
151.181
21
-58.1553
0
LINE
8
BLACK
6
CONTINUOUS
10
151.181
20
-58.1553
11
151.307
21
-57.9669
0
LINE
8
BLACK
6
CONTINUOUS
10
151.307
20
-57.9669
11
151.467
21
-57.8067
0
LINE
8
BLACK
6
CONTINUOUS
10
151.467
20
-57.8067
11
151.655
21
-57.6809
0
LINE
8
BLACK
6
CONTINUOUS
10
151.655
20
-57.6809
11
151.865
21
-57.5942
0
LINE
8
BLACK
6
CONTINUOUS
10
151.865
20
-57.5942
11
152.087
21
-57.55
0
LINE
8
BLACK
6
CONTINUOUS
10
152.087
20
-57.55
11
152.313
21
-57.55
0
LINE
8
BLACK
6
CONTINUOUS
10
152.313
20
-57.55
11
152.535
21
-57.5942
0
LINE
8
BLACK
6
CONTINUOUS
10
95.3354
20
-52.2942
11
95.5447
21
-52.3809
0
LINE
8
BLACK
6
CONTINUOUS
10
95.5447
20
-52.3809
11
95.7331
21
-52.5067
0
LINE
8
BLACK
6
CONTINUOUS
10
95.7331
20
-52.5067
11
95.8933
21
-52.6669
0
LINE
8
BLACK
6
CONTINUOUS
10
95.8933
20
-52.6669
11
96.0191
21
-52.8553
0
LINE
8
BLACK
6
CONTINUOUS
10
96.0191
20
-52.8553
11
96.1058
21
-53.0646
0
LINE
8
BLACK
6
CONTINUOUS
10
96.1058
20
-53.0646
11
96.15
21
-53.2867
0
LINE
8
BLACK
6
CONTINUOUS
10
96.15
20
-53.2867
11
96.15
21
-53.5133
0
LINE
8
BLACK
6
CONTINUOUS
10
96.15
20
-53.5133
11
96.1058
21
-53.7354
0
LINE
8
BLACK
6
CONTINUOUS
10
96.1058
20
-53.7354
11
96.0191
21
-53.9447
0
LINE
8
BLACK
6
CONTINUOUS
10
96.0191
20
-53.9447
11
95.8933
21
-54.1331
0
LINE
8
BLACK
6
CONTINUOUS
10
95.8933
20
-54.1331
11
95.7331
21
-54.2933
0
LINE
8
BLACK
6
CONTINUOUS
10
95.7331
20
-54.2933
11
95.5447
21
-54.4191
0
LINE
8
BLACK
6
CONTINUOUS
10
95.5447
20
-54.4191
11
95.3354
21
-54.5058
0
LINE
8
BLACK
6
CONTINUOUS
10
95.3354
20
-54.5058
11
95.1133
21
-54.55
0
LINE
8
BLACK
6
CONTINUOUS
10
95.1133
20
-54.55
11
94.8867
21
-54.55
0
LINE
8
BLACK
6
CONTINUOUS
10
94.8867
20
-54.55
11
94.6646
21
-54.5058
0
LINE
8
BLACK
6
CONTINUOUS
10
94.6646
20
-54.5058
11
94.4553
21
-54.4191
0
LINE
8
BLACK
6
CONTINUOUS
10
94.4553
20
-54.4191
11
94.2669
21
-54.2933
0
LINE
8
BLACK
6
CONTINUOUS
10
94.2669
20
-54.2933
11
94.1067
21
-54.1331
0
LINE
8
BLACK
6
CONTINUOUS
10
94.1067
20
-54.1331
11
93.9809
21
-53.9447
0
LINE
8
BLACK
6
CONTINUOUS
10
93.9809
20
-53.9447
11
93.8942
21
-53.7354
0
LINE
8
BLACK
6
CONTINUOUS
10
93.8942
20
-53.7354
11
93.85
21
-53.5133
0
LINE
8
BLACK
6
CONTINUOUS
10
93.85
20
-53.5133
11
93.85
21
-53.2867
0
LINE
8
BLACK
6
CONTINUOUS
10
93.85
20
-53.2867
11
93.8942
21
-53.0646
0
LINE
8
BLACK
6
CONTINUOUS
10
93.8942
20
-53.0646
11
93.9809
21
-52.8553
0
LINE
8
BLACK
6
CONTINUOUS
10
93.9809
20
-52.8553
11
94.1067
21
-52.6669
0
LINE
8
BLACK
6
CONTINUOUS
10
94.1067
20
-52.6669
11
94.2669
21
-52.5067
0
LINE
8
BLACK
6
CONTINUOUS
10
94.2669
20
-52.5067
11
94.4553
21
-52.3809
0
LINE
8
BLACK
6
CONTINUOUS
10
94.4553
20
-52.3809
11
94.6646
21
-52.2942
0
LINE
8
BLACK
6
CONTINUOUS
10
94.6646
20
-52.2942
11
94.8867
21
-52.25
0
LINE
8
BLACK
6
CONTINUOUS
10
94.8867
20
-52.25
11
95.1133
21
-52.25
0
LINE
8
BLACK
6
CONTINUOUS
10
95.1133
20
-52.25
11
95.3354
21
-52.2942
0
LINE
8
BLACK
6
CONTINUOUS
10
170.798
20
-154.63
11
170.794
21
-154.629
0
LINE
8
BLACK
6
CONTINUOUS
10
170.794
20
-154.629
11
169.88
21
-154.419
0
LINE
8
BLACK
6
CONTINUOUS
10
169.88
20
-154.419
11
169.876
21
-154.417
0
LINE
8
BLACK
6
CONTINUOUS
10
169.876
20
-154.417
11
169.012
21
-154.051
0
LINE
8
BLACK
6
CONTINUOUS
10
169.012
20
-154.051
11
169.01
21
-154.05
0
LINE
8
BLACK
6
CONTINUOUS
10
169.01
20
-154.05
11
169.008
21
-154.049
0
LINE
8
BLACK
6
CONTINUOUS
10
169.008
20
-154.049
11
168.434
21
-153.696
0
LINE
8
BLACK
6
CONTINUOUS
10
168.434
20
-153.696
11
167.296
21
-153.058
0
LINE
8
BLACK
6
CONTINUOUS
10
167.296
20
-153.058
11
163.646
21
-151.125
0
LINE
8
BLACK
6
CONTINUOUS
10
163.646
20
-151.125
11
159.928
21
-149.327
0
LINE
8
BLACK
6
CONTINUOUS
10
159.928
20
-149.327
11
156.147
21
-147.667
0
LINE
8
BLACK
6
CONTINUOUS
10
156.147
20
-147.667
11
152.307
21
-146.146
0
LINE
8
BLACK
6
CONTINUOUS
10
152.307
20
-146.146
11
148.415
21
-144.768
0
LINE
8
BLACK
6
CONTINUOUS
10
148.415
20
-144.768
11
144.474
21
-143.532
0
LINE
8
BLACK
6
CONTINUOUS
10
144.474
20
-143.532
11
140.491
21
-142.442
0
LINE
8
BLACK
6
CONTINUOUS
10
140.491
20
-142.442
11
136.47
21
-141.499
0
LINE
8
BLACK
6
CONTINUOUS
10
136.47
20
-141.499
11
132.418
21
-140.703
0
LINE
8
BLACK
6
CONTINUOUS
10
132.418
20
-140.703
11
128.339
21
-140.057
0
LINE
8
BLACK
6
CONTINUOUS
10
128.339
20
-140.057
11
124.24
21
-139.56
0
LINE
8
BLACK
6
CONTINUOUS
10
124.24
20
-139.56
11
120.125
21
-139.214
0
LINE
8
BLACK
6
CONTINUOUS
10
120.125
20
-139.214
11
116
21
-139.019
0
LINE
8
BLACK
6
CONTINUOUS
10
116
20
-139.019
11
42.9988
21
-139.025
0
LINE
8
BLACK
6
CONTINUOUS
10
42.9988
20
-139.025
11
42.9951
21
-139.025
0
LINE
8
BLACK
6
CONTINUOUS
10
42.9951
20
-139.025
11
42.9936
21
-139.024
0
LINE
8
BLACK
6
CONTINUOUS
10
42.9936
20
-139.024
11
42.1102
21
-138.826
0
LINE
8
BLACK
6
CONTINUOUS
10
42.1102
20
-138.826
11
42.107
21
-138.825
0
LINE
8
BLACK
6
CONTINUOUS
10
42.107
20
-138.825
11
42.106
21
-138.824
0
LINE
8
BLACK
6
CONTINUOUS
10
42.106
20
-138.824
11
41.2696
21
-138.475
0
LINE
8
BLACK
6
CONTINUOUS
10
41.2696
20
-138.475
11
41.2657
21
-138.473
0
LINE
8
BLACK
6
CONTINUOUS
10
41.2657
20
-138.473
11
40.5027
21
-137.984
0
LINE
8
BLACK
6
CONTINUOUS
10
40.5027
20
-137.984
11
40.4992
21
-137.981
0
LINE
8
BLACK
6
CONTINUOUS
10
40.4992
20
-137.981
11
40.4992
21
-137.981
0
LINE
8
BLACK
6
CONTINUOUS
10
40.4992
20
-137.981
11
39.8327
21
-137.367
0
LINE
8
BLACK
6
CONTINUOUS
10
39.8327
20
-137.367
11
39.8298
21
-137.364
0
LINE
8
BLACK
6
CONTINUOUS
10
39.8298
20
-137.364
11
39.2801
21
-136.643
0
LINE
8
BLACK
6
CONTINUOUS
10
39.2801
20
-136.643
11
39.2778
21
-136.639
0
LINE
8
BLACK
6
CONTINUOUS
10
39.2778
20
-136.639
11
38.8616
21
-135.834
0
LINE
8
BLACK
6
CONTINUOUS
10
38.8616
20
-135.834
11
38.8599
21
-135.83
0
LINE
8
BLACK
6
CONTINUOUS
10
38.8599
20
-135.83
11
38.5899
21
-134.965
0
LINE
8
BLACK
6
CONTINUOUS
10
38.5899
20
-134.965
11
38.589
21
-134.96
0
LINE
8
BLACK
6
CONTINUOUS
10
38.589
20
-134.96
11
38.4733
21
-134.061
0
LINE
8
BLACK
6
CONTINUOUS
10
38.4733
20
-134.061
11
38.4732
21
-134.06
0
LINE
8
BLACK
6
CONTINUOUS
10
38.4732
20
-134.06
11
38.4731
21
-134.059
0
LINE
8
BLACK
6
CONTINUOUS
10
38.4731
20
-134.059
11
38.4688
21
-133.848
0
LINE
8
BLACK
6
CONTINUOUS
10
38.4688
20
-133.848
11
38.4687
21
-133.848
0
LINE
8
BLACK
6
CONTINUOUS
10
38.4687
20
-133.848
11
38.4325
21
-45.0517
0
LINE
8
BLACK
6
CONTINUOUS
10
38.4325
20
-45.0517
11
38.4329
21
-45.0481
0
LINE
8
BLACK
6
CONTINUOUS
10
38.4329
20
-45.0481
11
38.4333
21
-45.0466
0
LINE
8
BLACK
6
CONTINUOUS
10
38.4333
20
-45.0466
11
38.6319
21
-44.1631
0
LINE
8
BLACK
6
CONTINUOUS
10
38.6319
20
-44.1631
11
38.6332
21
-44.159
0
LINE
8
BLACK
6
CONTINUOUS
10
38.6332
20
-44.159
11
38.9825
21
-43.3226
0
LINE
8
BLACK
6
CONTINUOUS
10
38.9825
20
-43.3226
11
38.9835
21
-43.3207
0
LINE
8
BLACK
6
CONTINUOUS
10
38.9835
20
-43.3207
11
38.9846
21
-43.3187
0
LINE
8
BLACK
6
CONTINUOUS
10
38.9846
20
-43.3187
11
39.4738
21
-42.5556
0
LINE
8
BLACK
6
CONTINUOUS
10
39.4738
20
-42.5556
11
39.4765
21
-42.5522
0
LINE
8
BLACK
6
CONTINUOUS
10
39.4765
20
-42.5522
11
40.0908
21
-41.8857
0
LINE
8
BLACK
6
CONTINUOUS
10
40.0908
20
-41.8857
11
40.094
21
-41.8828
0
LINE
8
BLACK
6
CONTINUOUS
10
40.094
20
-41.8828
11
40.094
21
-41.8828
0
LINE
8
BLACK
6
CONTINUOUS
10
40.094
20
-41.8828
11
40.8147
21
-41.3331
0
LINE
8
BLACK
6
CONTINUOUS
10
40.8147
20
-41.3331
11
40.8184
21
-41.3307
0
LINE
8
BLACK
6
CONTINUOUS
10
40.8184
20
-41.3307
11
41.6236
21
-40.9145
0
LINE
8
BLACK
6
CONTINUOUS
10
41.6236
20
-40.9145
11
41.6277
21
-40.9129
0
LINE
8
BLACK
6
CONTINUOUS
10
41.6277
20
-40.9129
11
42.4929
21
-40.6428
0
LINE
8
BLACK
6
CONTINUOUS
10
42.4929
20
-40.6428
11
42.4972
21
-40.6419
0
LINE
8
BLACK
6
CONTINUOUS
10
42.4972
20
-40.6419
11
43.3962
21
-40.5262
0
LINE
8
BLACK
6
CONTINUOUS
10
43.3962
20
-40.5262
11
43.3975
21
-40.5262
0
LINE
8
BLACK
6
CONTINUOUS
10
43.3975
20
-40.5262
11
43.3989
21
-40.526
0
LINE
8
BLACK
6
CONTINUOUS
10
43.3989
20
-40.526
11
43.6104
21
-40.5217
0
LINE
8
BLACK
6
CONTINUOUS
10
43.6104
20
-40.5217
11
46.5575
21
-40.4337
0
LINE
8
BLACK
6
CONTINUOUS
10
46.5575
20
-40.4337
11
52.2307
21
-40.1437
0
LINE
8
BLACK
6
CONTINUOUS
10
52.2307
20
-40.1437
11
57.8936
21
-39.6955
0
LINE
8
BLACK
6
CONTINUOUS
10
57.8936
20
-39.6955
11
63.5417
21
-39.0893
0
LINE
8
BLACK
6
CONTINUOUS
10
63.5417
20
-39.0893
11
69.1707
21
-38.3256
0
LINE
8
BLACK
6
CONTINUOUS
10
69.1707
20
-38.3256
11
74.7762
21
-37.405
0
LINE
8
BLACK
6
CONTINUOUS
10
74.7762
20
-37.405
11
80.3538
21
-36.3283
0
LINE
8
BLACK
6
CONTINUOUS
10
80.3538
20
-36.3283
11
85.8995
21
-35.0963
0
LINE
8
BLACK
6
CONTINUOUS
10
85.8995
20
-35.0963
11
85.8998
21
-35.0962
0
LINE
8
BLACK
6
CONTINUOUS
10
85.8998
20
-35.0962
11
85.8999
21
-35.0962
0
LINE
8
BLACK
6
CONTINUOUS
10
85.8999
20
-35.0962
11
85.8999
21
-35.0962
0
LINE
8
BLACK
6
CONTINUOUS
10
85.8999
20
-35.0962
11
85.8999
21
-35.0962
0
LINE
8
BLACK
6
CONTINUOUS
10
85.8999
20
-35.0962
11
85.9005
21
-35.096
0
LINE
8
BLACK
6
CONTINUOUS
10
85.9005
20
-35.096
11
85.9007
21
-35.096
0
LINE
8
BLACK
6
CONTINUOUS
10
85.9007
20
-35.096
11
85.9008
21
-35.096
0
LINE
8
BLACK
6
CONTINUOUS
10
85.9008
20
-35.096
11
90.0496
21
-34.4102
0
LINE
8
BLACK
6
CONTINUOUS
10
90.0496
20
-34.4102
11
90.0503
21
-34.4101
0
LINE
8
BLACK
6
CONTINUOUS
10
90.0503
20
-34.4101
11
90.0504
21
-34.4101
0
LINE
8
BLACK
6
CONTINUOUS
10
90.0504
20
-34.4101
11
90.0505
21
-34.4101
0
LINE
8
BLACK
6
CONTINUOUS
10
90.0505
20
-34.4101
11
94.2216
21
-33.8768
0
LINE
8
BLACK
6
CONTINUOUS
10
94.2216
20
-33.8768
11
94.2223
21
-33.8767
0
LINE
8
BLACK
6
CONTINUOUS
10
94.2223
20
-33.8767
11
94.2224
21
-33.8767
0
LINE
8
BLACK
6
CONTINUOUS
10
94.2224
20
-33.8767
11
94.2226
21
-33.8767
0
LINE
8
BLACK
6
CONTINUOUS
10
94.2226
20
-33.8767
11
98.4104
21
-33.4966
0
LINE
8
BLACK
6
CONTINUOUS
10
98.4104
20
-33.4966
11
98.4111
21
-33.4965
0
LINE
8
BLACK
6
CONTINUOUS
10
98.4111
20
-33.4965
11
98.4112
21
-33.4965
0
LINE
8
BLACK
6
CONTINUOUS
10
98.4112
20
-33.4965
11
98.4113
21
-33.4965
0
LINE
8
BLACK
6
CONTINUOUS
10
98.4113
20
-33.4965
11
102.61
21
-33.2701
0
LINE
8
BLACK
6
CONTINUOUS
10
102.61
20
-33.2701
11
102.611
21
-33.2701
0
LINE
8
BLACK
6
CONTINUOUS
10
102.611
20
-33.2701
11
102.611
21
-33.2701
0
LINE
8
BLACK
6
CONTINUOUS
10
102.611
20
-33.2701
11
102.611
21
-33.2701
0
LINE
8
BLACK
6
CONTINUOUS
10
102.611
20
-33.2701
11
106.816
21
-33.1977
0
LINE
8
BLACK
6
CONTINUOUS
10
106.816
20
-33.1977
11
106.816
21
-33.1977
0
LINE
8
BLACK
6
CONTINUOUS
10
106.816
20
-33.1977
11
106.817
21
-33.1977
0
LINE
8
BLACK
6
CONTINUOUS
10
106.817
20
-33.1977
11
106.817
21
-33.1977
0
LINE
8
BLACK
6
CONTINUOUS
10
106.817
20
-33.1977
11
111.021
21
-33.2795
0
LINE
8
BLACK
6
CONTINUOUS
10
111.021
20
-33.2795
11
111.022
21
-33.2795
0
LINE
8
BLACK
6
CONTINUOUS
10
111.022
20
-33.2795
11
111.022
21
-33.2795
0
LINE
8
BLACK
6
CONTINUOUS
10
111.022
20
-33.2795
11
111.022
21
-33.2795
0
LINE
8
BLACK
6
CONTINUOUS
10
111.022
20
-33.2795
11
115.22
21
-33.5153
0
LINE
8
BLACK
6
CONTINUOUS
10
115.22
20
-33.5153
11
115.221
21
-33.5153
0
LINE
8
BLACK
6
CONTINUOUS
10
115.221
20
-33.5153
11
115.221
21
-33.5153
0
LINE
8
BLACK
6
CONTINUOUS
10
115.221
20
-33.5153
11
115.221
21
-33.5153
0
LINE
8
BLACK
6
CONTINUOUS
10
115.221
20
-33.5153
11
119.408
21
-33.9048
0
LINE
8
BLACK
6
CONTINUOUS
10
119.408
20
-33.9048
11
119.409
21
-33.9049
0
LINE
8
BLACK
6
CONTINUOUS
10
119.409
20
-33.9049
11
119.409
21
-33.9049
0
LINE
8
BLACK
6
CONTINUOUS
10
119.409
20
-33.9049
11
119.409
21
-33.9049
0
LINE
8
BLACK
6
CONTINUOUS
10
119.409
20
-33.9049
11
123.579
21
-34.4475
0
LINE
8
BLACK
6
CONTINUOUS
10
123.579
20
-34.4475
11
123.579
21
-34.4475
0
LINE
8
BLACK
6
CONTINUOUS
10
123.579
20
-34.4475
11
123.58
21
-34.4476
0
LINE
8
BLACK
6
CONTINUOUS
10
123.58
20
-34.4476
11
124.009
21
-34.5122
0
LINE
8
BLACK
6
CONTINUOUS
10
124.009
20
-34.5122
11
124.009
21
-34.5123
0
LINE
8
BLACK
6
CONTINUOUS
10
124.009
20
-34.5123
11
124.009
21
-34.5123
0
LINE
8
BLACK
6
CONTINUOUS
10
124.009
20
-34.5123
11
124.009
21
-34.5123
0
LINE
8
BLACK
6
CONTINUOUS
10
124.009
20
-34.5123
11
124.009
21
-34.5124
0
LINE
8
BLACK
6
CONTINUOUS
10
124.009
20
-34.5124
11
124.009
21
-34.5124
0
LINE
8
BLACK
6
CONTINUOUS
10
124.009
20
-34.5124
11
124.009
21
-34.5124
0
LINE
8
BLACK
6
CONTINUOUS
10
124.009
20
-34.5124
11
124.01
21
-34.5125
0
LINE
8
BLACK
6
CONTINUOUS
10
124.01
20
-34.5125
11
124.01
21
-34.5125
0
LINE
8
BLACK
6
CONTINUOUS
10
124.01
20
-34.5125
11
124.01
21
-34.5125
0
LINE
8
BLACK
6
CONTINUOUS
10
124.01
20
-34.5125
11
124.011
21
-34.5127
0
LINE
8
BLACK
6
CONTINUOUS
10
124.011
20
-34.5127
11
125.499
21
-34.8773
0
LINE
8
BLACK
6
CONTINUOUS
10
125.499
20
-34.8773
11
131.041
21
-36.1317
0
LINE
8
BLACK
6
CONTINUOUS
10
131.041
20
-36.1317
11
136.616
21
-37.2308
0
LINE
8
BLACK
6
CONTINUOUS
10
136.616
20
-37.2308
11
142.22
21
-38.1737
0
LINE
8
BLACK
6
CONTINUOUS
10
142.22
20
-38.1737
11
147.848
21
-38.9599
0
LINE
8
BLACK
6
CONTINUOUS
10
147.848
20
-38.9599
11
153.495
21
-39.5886
0
LINE
8
BLACK
6
CONTINUOUS
10
153.495
20
-39.5886
11
159.158
21
-40.0594
0
LINE
8
BLACK
6
CONTINUOUS
10
159.158
20
-40.0594
11
164.832
21
-40.3719
0
LINE
8
BLACK
6
CONTINUOUS
10
164.832
20
-40.3719
11
170.512
21
-40.5258
0
LINE
8
BLACK
6
CONTINUOUS
10
170.512
20
-40.5258
11
170.512
21
-40.5258
0
LINE
8
BLACK
6
CONTINUOUS
10
170.512
20
-40.5258
11
186.402
21
-41.0751
0
LINE
8
BLACK
6
CONTINUOUS
10
186.402
20
-41.0751
11
186.403
21
-41.0751
0
LINE
8
BLACK
6
CONTINUOUS
10
186.403
20
-41.0751
11
187.305
21
-41.1541
0
LINE
8
BLACK
6
CONTINUOUS
10
187.305
20
-41.1541
11
187.309
21
-41.1549
0
LINE
8
BLACK
6
CONTINUOUS
10
187.309
20
-41.1549
11
188.185
21
-41.3894
0
LINE
8
BLACK
6
CONTINUOUS
10
188.185
20
-41.3894
11
188.185
21
-41.3894
0
LINE
8
BLACK
6
CONTINUOUS
10
188.185
20
-41.3894
11
188.189
21
-41.3909
0
LINE
8
BLACK
6
CONTINUOUS
10
188.189
20
-41.3909
11
189.011
21
-41.774
0
LINE
8
BLACK
6
CONTINUOUS
10
189.011
20
-41.774
11
189.014
21
-41.7762
0
LINE
8
BLACK
6
CONTINUOUS
10
189.014
20
-41.7762
11
189.757
21
-42.2961
0
LINE
8
BLACK
6
CONTINUOUS
10
189.757
20
-42.2961
11
189.76
21
-42.2989
0
LINE
8
BLACK
6
CONTINUOUS
10
189.76
20
-42.2989
11
190.401
21
-42.9398
0
LINE
8
BLACK
6
CONTINUOUS
10
190.401
20
-42.9398
11
190.404
21
-42.9432
0
LINE
8
BLACK
6
CONTINUOUS
10
190.404
20
-42.9432
11
190.924
21
-43.6857
0
LINE
8
BLACK
6
CONTINUOUS
10
190.924
20
-43.6857
11
190.924
21
-43.6857
0
LINE
8
BLACK
6
CONTINUOUS
10
190.924
20
-43.6857
11
190.926
21
-43.6894
0
LINE
8
BLACK
6
CONTINUOUS
10
190.926
20
-43.6894
11
191.309
21
-44.5109
0
LINE
8
BLACK
6
CONTINUOUS
10
191.309
20
-44.5109
11
191.31
21
-44.5129
0
LINE
8
BLACK
6
CONTINUOUS
10
191.31
20
-44.5129
11
191.31
21
-44.5148
0
LINE
8
BLACK
6
CONTINUOUS
10
191.31
20
-44.5148
11
191.527
21
-45.2925
0
LINE
8
BLACK
6
CONTINUOUS
10
191.527
20
-45.2925
11
191.527
21
-45.2946
0
LINE
8
BLACK
6
CONTINUOUS
10
191.527
20
-45.2946
11
191.528
21
-45.297
0
LINE
8
BLACK
6
CONTINUOUS
10
191.528
20
-45.297
11
191.528
21
-45.297
0
LINE
8
BLACK
6
CONTINUOUS
10
191.528
20
-45.297
11
191.528
21
-45.297
0
LINE
8
BLACK
6
CONTINUOUS
10
191.528
20
-45.297
11
191.528
21
-45.2982
0
LINE
8
BLACK
6
CONTINUOUS
10
191.528
20
-45.2982
11
191.484
21
-119.093
0
LINE
8
BLACK
6
CONTINUOUS
10
191.484
20
-119.093
11
191.484
21
-119.093
0
LINE
8
BLACK
6
CONTINUOUS
10
191.484
20
-119.093
11
191.421
21
-120.949
0
LINE
8
BLACK
6
CONTINUOUS
10
191.421
20
-120.949
11
191.421
21
-120.95
0
LINE
8
BLACK
6
CONTINUOUS
10
191.421
20
-120.95
11
191.421
21
-120.951
0
LINE
8
BLACK
6
CONTINUOUS
10
191.421
20
-120.951
11
191.421
21
-120.951
0
LINE
8
BLACK
6
CONTINUOUS
10
191.421
20
-120.951
11
191.199
21
-122.795
0
LINE
8
BLACK
6
CONTINUOUS
10
191.199
20
-122.795
11
191.199
21
-122.797
0
LINE
8
BLACK
6
CONTINUOUS
10
191.199
20
-122.797
11
191.199
21
-122.797
0
LINE
8
BLACK
6
CONTINUOUS
10
191.199
20
-122.797
11
191.199
21
-122.797
0
LINE
8
BLACK
6
CONTINUOUS
10
191.199
20
-122.797
11
190.821
21
-124.616
0
LINE
8
BLACK
6
CONTINUOUS
10
190.821
20
-124.616
11
190.821
21
-124.617
0
LINE
8
BLACK
6
CONTINUOUS
10
190.821
20
-124.617
11
190.82
21
-124.618
0
LINE
8
BLACK
6
CONTINUOUS
10
190.82
20
-124.618
11
190.82
21
-124.618
0
LINE
8
BLACK
6
CONTINUOUS
10
190.82
20
-124.618
11
190.288
21
-126.398
0
LINE
8
BLACK
6
CONTINUOUS
10
190.288
20
-126.398
11
190.288
21
-126.399
0
LINE
8
BLACK
6
CONTINUOUS
10
190.288
20
-126.399
11
190.288
21
-126.399
0
LINE
8
BLACK
6
CONTINUOUS
10
190.288
20
-126.399
11
190.288
21
-126.4
0
LINE
8
BLACK
6
CONTINUOUS
10
190.288
20
-126.4
11
189.606
21
-128.127
0
LINE
8
BLACK
6
CONTINUOUS
10
189.606
20
-128.127
11
189.606
21
-128.127
0
LINE
8
BLACK
6
CONTINUOUS
10
189.606
20
-128.127
11
189.605
21
-128.127
0
LINE
8
BLACK
6
CONTINUOUS
10
189.605
20
-128.127
11
189.605
21
-128.129
0
LINE
8
BLACK
6
CONTINUOUS
10
189.605
20
-128.129
11
189.605
21
-128.129
0
LINE
8
BLACK
6
CONTINUOUS
10
189.605
20
-128.129
11
189.605
21
-128.129
0
LINE
8
BLACK
6
CONTINUOUS
10
189.605
20
-128.129
11
188.778
21
-129.792
0
LINE
8
BLACK
6
CONTINUOUS
10
188.778
20
-129.792
11
188.778
21
-129.792
0
LINE
8
BLACK
6
CONTINUOUS
10
188.778
20
-129.792
11
188.778
21
-129.792
0
LINE
8
BLACK
6
CONTINUOUS
10
188.778
20
-129.792
11
188.777
21
-129.792
0
LINE
8
BLACK
6
CONTINUOUS
10
188.777
20
-129.792
11
188.777
21
-129.794
0
LINE
8
BLACK
6
CONTINUOUS
10
188.777
20
-129.794
11
188.777
21
-129.794
0
LINE
8
BLACK
6
CONTINUOUS
10
188.777
20
-129.794
11
188.777
21
-129.794
0
LINE
8
BLACK
6
CONTINUOUS
10
188.777
20
-129.794
11
187.922
21
-131.213
0
LINE
8
BLACK
6
CONTINUOUS
10
187.922
20
-131.213
11
176.321
21
-151.813
0
LINE
8
BLACK
6
CONTINUOUS
10
176.321
20
-151.813
11
176.321
21
-151.814
0
LINE
8
BLACK
6
CONTINUOUS
10
176.321
20
-151.814
11
175.81
21
-152.601
0
LINE
8
BLACK
6
CONTINUOUS
10
175.81
20
-152.601
11
175.81
21
-152.601
0
LINE
8
BLACK
6
CONTINUOUS
10
175.81
20
-152.601
11
175.808
21
-152.604
0
LINE
8
BLACK
6
CONTINUOUS
10
175.808
20
-152.604
11
175.168
21
-153.29
0
LINE
8
BLACK
6
CONTINUOUS
10
175.168
20
-153.29
11
175.168
21
-153.29
0
LINE
8
BLACK
6
CONTINUOUS
10
175.168
20
-153.29
11
175.165
21
-153.293
0
LINE
8
BLACK
6
CONTINUOUS
10
175.165
20
-153.293
11
174.416
21
-153.858
0
LINE
8
BLACK
6
CONTINUOUS
10
174.416
20
-153.858
11
174.416
21
-153.858
0
LINE
8
BLACK
6
CONTINUOUS
10
174.416
20
-153.858
11
174.414
21
-153.859
0
LINE
8
BLACK
6
CONTINUOUS
10
174.414
20
-153.859
11
174.412
21
-153.861
0
LINE
8
BLACK
6
CONTINUOUS
10
174.412
20
-153.861
11
174.412
21
-153.861
0
LINE
8
BLACK
6
CONTINUOUS
10
174.412
20
-153.861
11
173.576
21
-154.287
0
LINE
8
BLACK
6
CONTINUOUS
10
173.576
20
-154.287
11
173.572
21
-154.288
0
LINE
8
BLACK
6
CONTINUOUS
10
173.572
20
-154.288
11
172.675
21
-154.563
0
LINE
8
BLACK
6
CONTINUOUS
10
172.675
20
-154.563
11
172.674
21
-154.563
0
LINE
8
BLACK
6
CONTINUOUS
10
172.674
20
-154.563
11
172.671
21
-154.564
0
LINE
8
BLACK
6
CONTINUOUS
10
172.671
20
-154.564
11
171.74
21
-154.679
0
LINE
8
BLACK
6
CONTINUOUS
10
171.74
20
-154.679
11
171.735
21
-154.679
0
LINE
8
BLACK
6
CONTINUOUS
10
171.735
20
-154.679
11
171.735
21
-154.679
0
LINE
8
BLACK
6
CONTINUOUS
10
171.735
20
-154.679
11
170.798
21
-154.63
0
LINE
8
BLACK
6
CONTINUOUS
10
102.613
20
-33.3201
11
98.4145
21
-33.5464
0
LINE
8
BLACK
6
CONTINUOUS
10
98.4145
20
-33.5464
11
94.2275
21
-33.9264
0
LINE
8
BLACK
6
CONTINUOUS
10
94.2275
20
-33.9264
11
90.0573
21
-34.4596
0
LINE
8
BLACK
6
CONTINUOUS
10
90.0573
20
-34.4596
11
85.9097
21
-35.1452
0
LINE
8
BLACK
6
CONTINUOUS
10
85.9097
20
-35.1452
11
80.3643
21
-36.3772
0
LINE
8
BLACK
6
CONTINUOUS
10
80.3643
20
-36.3772
11
80.3639
21
-36.3773
0
LINE
8
BLACK
6
CONTINUOUS
10
80.3639
20
-36.3773
11
80.3637
21
-36.3773
0
LINE
8
BLACK
6
CONTINUOUS
10
80.3637
20
-36.3773
11
80.3636
21
-36.3774
0
LINE
8
BLACK
6
CONTINUOUS
10
80.3636
20
-36.3774
11
74.7853
21
-37.4542
0
LINE
8
BLACK
6
CONTINUOUS
10
74.7853
20
-37.4542
11
74.785
21
-37.4543
0
LINE
8
BLACK
6
CONTINUOUS
10
74.785
20
-37.4543
11
74.7848
21
-37.4543
0
LINE
8
BLACK
6
CONTINUOUS
10
74.7848
20
-37.4543
11
74.7846
21
-37.4543
0
LINE
8
BLACK
6
CONTINUOUS
10
74.7846
20
-37.4543
11
69.1784
21
-38.375
0
LINE
8
BLACK
6
CONTINUOUS
10
69.1784
20
-38.375
11
69.1781
21
-38.375
0
LINE
8
BLACK
6
CONTINUOUS
10
69.1781
20
-38.375
11
69.1779
21
-38.3751
0
LINE
8
BLACK
6
CONTINUOUS
10
69.1779
20
-38.3751
11
69.1778
21
-38.3751
0
LINE
8
BLACK
6
CONTINUOUS
10
69.1778
20
-38.3751
11
63.5481
21
-39.1388
0
LINE
8
BLACK
6
CONTINUOUS
10
63.5481
20
-39.1388
11
63.5477
21
-39.1389
0
LINE
8
BLACK
6
CONTINUOUS
10
63.5477
20
-39.1389
11
63.5475
21
-39.1389
0
LINE
8
BLACK
6
CONTINUOUS
10
63.5475
20
-39.1389
11
63.5474
21
-39.1389
0
LINE
8
BLACK
6
CONTINUOUS
10
63.5474
20
-39.1389
11
57.8985
21
-39.7452
0
LINE
8
BLACK
6
CONTINUOUS
10
57.8985
20
-39.7452
11
57.8982
21
-39.7452
0
LINE
8
BLACK
6
CONTINUOUS
10
57.8982
20
-39.7452
11
57.898
21
-39.7453
0
LINE
8
BLACK
6
CONTINUOUS
10
57.898
20
-39.7453
11
57.8978
21
-39.7453
0
LINE
8
BLACK
6
CONTINUOUS
10
57.8978
20
-39.7453
11
52.2343
21
-40.1936
0
LINE
8
BLACK
6
CONTINUOUS
10
52.2343
20
-40.1936
11
52.2339
21
-40.1936
0
LINE
8
BLACK
6
CONTINUOUS
10
52.2339
20
-40.1936
11
52.2337
21
-40.1936
0
LINE
8
BLACK
6
CONTINUOUS
10
52.2337
20
-40.1936
11
52.2336
21
-40.1936
0
LINE
8
BLACK
6
CONTINUOUS
10
52.2336
20
-40.1936
11
46.5597
21
-40.4836
0
LINE
8
BLACK
6
CONTINUOUS
10
46.5597
20
-40.4836
11
46.5594
21
-40.4837
0
LINE
8
BLACK
6
CONTINUOUS
10
46.5594
20
-40.4837
11
46.5593
21
-40.4837
0
LINE
8
BLACK
6
CONTINUOUS
10
46.5593
20
-40.4837
11
46.5592
21
-40.4837
0
LINE
8
BLACK
6
CONTINUOUS
10
46.5592
20
-40.4837
11
43.6118
21
-40.5717
0
LINE
8
BLACK
6
CONTINUOUS
10
43.6118
20
-40.5717
11
43.6116
21
-40.5717
0
LINE
8
BLACK
6
CONTINUOUS
10
43.6116
20
-40.5717
11
43.6116
21
-40.5717
0
LINE
8
BLACK
6
CONTINUOUS
10
43.6116
20
-40.5717
11
43.4012
21
-40.576
0
LINE
8
BLACK
6
CONTINUOUS
10
43.4012
20
-40.576
11
42.5057
21
-40.6912
0
LINE
8
BLACK
6
CONTINUOUS
10
42.5057
20
-40.6912
11
41.6446
21
-40.96
0
LINE
8
BLACK
6
CONTINUOUS
10
41.6446
20
-40.96
11
40.8433
21
-41.3742
0
LINE
8
BLACK
6
CONTINUOUS
10
40.8433
20
-41.3742
11
40.1261
21
-41.9212
0
LINE
8
BLACK
6
CONTINUOUS
10
40.1261
20
-41.9212
11
39.5147
21
-42.5845
0
LINE
8
BLACK
6
CONTINUOUS
10
39.5147
20
-42.5845
11
39.0278
21
-43.3438
0
LINE
8
BLACK
6
CONTINUOUS
10
39.0278
20
-43.3438
11
38.6802
21
-44.1762
0
LINE
8
BLACK
6
CONTINUOUS
10
38.6802
20
-44.1762
11
38.4825
21
-45.0557
0
LINE
8
BLACK
6
CONTINUOUS
10
38.4825
20
-45.0557
11
38.5129
21
-119.479
0
LINE
8
BLACK
6
CONTINUOUS
10
38.5129
20
-119.479
11
38.514
21
-119.479
0
LINE
8
BLACK
6
CONTINUOUS
10
38.514
20
-119.479
11
38.5178
21
-119.482
0
LINE
8
BLACK
6
CONTINUOUS
10
38.5178
20
-119.482
11
38.5209
21
-119.486
0
LINE
8
BLACK
6
CONTINUOUS
10
38.5209
20
-119.486
11
38.5232
21
-119.49
0
LINE
8
BLACK
6
CONTINUOUS
10
38.5232
20
-119.49
11
38.5246
21
-119.495
0
LINE
8
BLACK
6
CONTINUOUS
10
38.5246
20
-119.495
11
38.5251
21
-119.5
0
LINE
8
BLACK
6
CONTINUOUS
10
38.5251
20
-119.5
11
38.5246
21
-119.505
0
LINE
8
BLACK
6
CONTINUOUS
10
38.5246
20
-119.505
11
38.5232
21
-119.51
0
LINE
8
BLACK
6
CONTINUOUS
10
38.5232
20
-119.51
11
38.5209
21
-119.514
0
LINE
8
BLACK
6
CONTINUOUS
10
38.5209
20
-119.514
11
38.5178
21
-119.518
0
LINE
8
BLACK
6
CONTINUOUS
10
38.5178
20
-119.518
11
38.514
21
-119.521
0
LINE
8
BLACK
6
CONTINUOUS
10
38.514
20
-119.521
11
38.5129
21
-119.521
0
LINE
8
BLACK
6
CONTINUOUS
10
38.5129
20
-119.521
11
38.5187
21
-133.846
0
LINE
8
BLACK
6
CONTINUOUS
10
38.5187
20
-133.846
11
38.523
21
-134.056
0
LINE
8
BLACK
6
CONTINUOUS
10
38.523
20
-134.056
11
38.6383
21
-134.952
0
LINE
8
BLACK
6
CONTINUOUS
10
38.6383
20
-134.952
11
38.907
21
-135.813
0
LINE
8
BLACK
6
CONTINUOUS
10
38.907
20
-135.813
11
39.3212
21
-136.614
0
LINE
8
BLACK
6
CONTINUOUS
10
39.3212
20
-136.614
11
39.8682
21
-137.331
0
LINE
8
BLACK
6
CONTINUOUS
10
39.8682
20
-137.331
11
40.5315
21
-137.943
0
LINE
8
BLACK
6
CONTINUOUS
10
40.5315
20
-137.943
11
41.2909
21
-138.43
0
LINE
8
BLACK
6
CONTINUOUS
10
41.2909
20
-138.43
11
42.1233
21
-138.777
0
LINE
8
BLACK
6
CONTINUOUS
10
42.1233
20
-138.777
11
43.0028
21
-138.975
0
LINE
8
BLACK
6
CONTINUOUS
10
43.0028
20
-138.975
11
116.001
21
-138.969
0
LINE
8
BLACK
6
CONTINUOUS
10
116.001
20
-138.969
11
116.002
21
-138.97
0
LINE
8
BLACK
6
CONTINUOUS
10
116.002
20
-138.97
11
120.127
21
-139.164
0
LINE
8
BLACK
6
CONTINUOUS
10
120.127
20
-139.164
11
120.128
21
-139.165
0
LINE
8
BLACK
6
CONTINUOUS
10
120.128
20
-139.165
11
120.128
21
-139.165
0
LINE
8
BLACK
6
CONTINUOUS
10
120.128
20
-139.165
11
120.128
21
-139.165
0
LINE
8
BLACK
6
CONTINUOUS
10
120.128
20
-139.165
11
124.244
21
-139.511
0
LINE
8
BLACK
6
CONTINUOUS
10
124.244
20
-139.511
11
124.245
21
-139.511
0
LINE
8
BLACK
6
CONTINUOUS
10
124.245
20
-139.511
11
124.245
21
-139.511
0
LINE
8
BLACK
6
CONTINUOUS
10
124.245
20
-139.511
11
124.245
21
-139.511
0
LINE
8
BLACK
6
CONTINUOUS
10
124.245
20
-139.511
11
128.346
21
-140.007
0
LINE
8
BLACK
6
CONTINUOUS
10
128.346
20
-140.007
11
128.346
21
-140.007
0
LINE
8
BLACK
6
CONTINUOUS
10
128.346
20
-140.007
11
128.347
21
-140.007
0
LINE
8
BLACK
6
CONTINUOUS
10
128.347
20
-140.007
11
128.347
21
-140.007
0
LINE
8
BLACK
6
CONTINUOUS
10
128.347
20
-140.007
11
132.426
21
-140.654
0
LINE
8
BLACK
6
CONTINUOUS
10
132.426
20
-140.654
11
132.427
21
-140.654
0
LINE
8
BLACK
6
CONTINUOUS
10
132.427
20
-140.654
11
132.427
21
-140.654
0
LINE
8
BLACK
6
CONTINUOUS
10
132.427
20
-140.654
11
132.427
21
-140.654
0
LINE
8
BLACK
6
CONTINUOUS
10
132.427
20
-140.654
11
136.481
21
-141.45
0
LINE
8
BLACK
6
CONTINUOUS
10
136.481
20
-141.45
11
136.481
21
-141.45
0
LINE
8
BLACK
6
CONTINUOUS
10
136.481
20
-141.45
11
136.481
21
-141.45
0
LINE
8
BLACK
6
CONTINUOUS
10
136.481
20
-141.45
11
136.481
21
-141.45
0
LINE
8
BLACK
6
CONTINUOUS
10
136.481
20
-141.45
11
140.503
21
-142.394
0
LINE
8
BLACK
6
CONTINUOUS
10
140.503
20
-142.394
11
140.503
21
-142.394
0
LINE
8
BLACK
6
CONTINUOUS
10
140.503
20
-142.394
11
140.504
21
-142.394
0
LINE
8
BLACK
6
CONTINUOUS
10
140.504
20
-142.394
11
140.504
21
-142.394
0
LINE
8
BLACK
6
CONTINUOUS
10
140.504
20
-142.394
11
144.488
21
-143.484
0
LINE
8
BLACK
6
CONTINUOUS
10
144.488
20
-143.484
11
144.488
21
-143.484
0
LINE
8
BLACK
6
CONTINUOUS
10
144.488
20
-143.484
11
144.489
21
-143.484
0
LINE
8
BLACK
6
CONTINUOUS
10
144.489
20
-143.484
11
144.489
21
-143.484
0
LINE
8
BLACK
6
CONTINUOUS
10
144.489
20
-143.484
11
148.43
21
-144.72
0
LINE
8
BLACK
6
CONTINUOUS
10
148.43
20
-144.72
11
148.431
21
-144.72
0
LINE
8
BLACK
6
CONTINUOUS
10
148.431
20
-144.72
11
148.431
21
-144.72
0
LINE
8
BLACK
6
CONTINUOUS
10
148.431
20
-144.72
11
148.431
21
-144.72
0
LINE
8
BLACK
6
CONTINUOUS
10
148.431
20
-144.72
11
152.324
21
-146.099
0
LINE
8
BLACK
6
CONTINUOUS
10
152.324
20
-146.099
11
152.325
21
-146.1
0
LINE
8
BLACK
6
CONTINUOUS
10
152.325
20
-146.1
11
152.325
21
-146.1
0
LINE
8
BLACK
6
CONTINUOUS
10
152.325
20
-146.1
11
152.325
21
-146.1
0
LINE
8
BLACK
6
CONTINUOUS
10
152.325
20
-146.1
11
156.166
21
-147.621
0
LINE
8
BLACK
6
CONTINUOUS
10
156.166
20
-147.621
11
156.166
21
-147.621
0
LINE
8
BLACK
6
CONTINUOUS
10
156.166
20
-147.621
11
156.166
21
-147.621
0
LINE
8
BLACK
6
CONTINUOUS
10
156.166
20
-147.621
11
156.167
21
-147.621
0
LINE
8
BLACK
6
CONTINUOUS
10
156.167
20
-147.621
11
159.949
21
-149.282
0
LINE
8
BLACK
6
CONTINUOUS
10
159.949
20
-149.282
11
159.949
21
-149.282
0
LINE
8
BLACK
6
CONTINUOUS
10
159.949
20
-149.282
11
159.949
21
-149.282
0
LINE
8
BLACK
6
CONTINUOUS
10
159.949
20
-149.282
11
159.949
21
-149.282
0
LINE
8
BLACK
6
CONTINUOUS
10
159.949
20
-149.282
11
163.668
21
-151.08
0
LINE
8
BLACK
6
CONTINUOUS
10
163.668
20
-151.08
11
163.669
21
-151.08
0
LINE
8
BLACK
6
CONTINUOUS
10
163.669
20
-151.08
11
163.669
21
-151.081
0
LINE
8
BLACK
6
CONTINUOUS
10
163.669
20
-151.081
11
163.669
21
-151.081
0
LINE
8
BLACK
6
CONTINUOUS
10
163.669
20
-151.081
11
167.319
21
-153.014
0
LINE
8
BLACK
6
CONTINUOUS
10
167.319
20
-153.014
11
167.32
21
-153.014
0
LINE
8
BLACK
6
CONTINUOUS
10
167.32
20
-153.014
11
167.32
21
-153.014
0
LINE
8
BLACK
6
CONTINUOUS
10
167.32
20
-153.014
11
168.459
21
-153.653
0
LINE
8
BLACK
6
CONTINUOUS
10
168.459
20
-153.653
11
168.46
21
-153.653
0
LINE
8
BLACK
6
CONTINUOUS
10
168.46
20
-153.653
11
168.46
21
-153.654
0
LINE
8
BLACK
6
CONTINUOUS
10
168.46
20
-153.654
11
168.46
21
-153.654
0
LINE
8
BLACK
6
CONTINUOUS
10
168.46
20
-153.654
11
169.033
21
-154.006
0
LINE
8
BLACK
6
CONTINUOUS
10
169.033
20
-154.006
11
169.893
21
-154.37
0
LINE
8
BLACK
6
CONTINUOUS
10
169.893
20
-154.37
11
170.803
21
-154.58
0
LINE
8
BLACK
6
CONTINUOUS
10
170.803
20
-154.58
11
171.736
21
-154.629
0
LINE
8
BLACK
6
CONTINUOUS
10
171.736
20
-154.629
11
172.662
21
-154.515
0
LINE
8
BLACK
6
CONTINUOUS
10
172.662
20
-154.515
11
173.555
21
-154.241
0
LINE
8
BLACK
6
CONTINUOUS
10
173.555
20
-154.241
11
174.387
21
-153.817
0
LINE
8
BLACK
6
CONTINUOUS
10
174.387
20
-153.817
11
175.133
21
-153.255
0
LINE
8
BLACK
6
CONTINUOUS
10
175.133
20
-153.255
11
175.77
21
-152.572
0
LINE
8
BLACK
6
CONTINUOUS
10
175.77
20
-152.572
11
176.279
21
-151.787
0
LINE
8
BLACK
6
CONTINUOUS
10
176.279
20
-151.787
11
187.879
21
-131.187
0
LINE
8
BLACK
6
CONTINUOUS
10
187.879
20
-131.187
11
187.879
21
-131.186
0
LINE
8
BLACK
6
CONTINUOUS
10
187.879
20
-131.186
11
188.733
21
-129.769
0
LINE
8
BLACK
6
CONTINUOUS
10
188.733
20
-129.769
11
189.559
21
-128.108
0
LINE
8
BLACK
6
CONTINUOUS
10
189.559
20
-128.108
11
190.241
21
-126.382
0
LINE
8
BLACK
6
CONTINUOUS
10
190.241
20
-126.382
11
190.772
21
-124.605
0
LINE
8
BLACK
6
CONTINUOUS
10
190.772
20
-124.605
11
191.15
21
-122.788
0
LINE
8
BLACK
6
CONTINUOUS
10
191.15
20
-122.788
11
191.371
21
-120.946
0
LINE
8
BLACK
6
CONTINUOUS
10
191.371
20
-120.946
11
191.434
21
-119.091
0
LINE
8
BLACK
6
CONTINUOUS
10
191.434
20
-119.091
11
191.478
21
-45.3028
0
LINE
8
BLACK
6
CONTINUOUS
10
191.478
20
-45.3028
11
191.263
21
-44.5302
0
LINE
8
BLACK
6
CONTINUOUS
10
191.263
20
-44.5302
11
190.882
21
-43.7125
0
LINE
8
BLACK
6
CONTINUOUS
10
190.882
20
-43.7125
11
190.364
21
-42.9736
0
LINE
8
BLACK
6
CONTINUOUS
10
190.364
20
-42.9736
11
189.726
21
-42.3358
0
LINE
8
BLACK
6
CONTINUOUS
10
189.726
20
-42.3358
11
188.987
21
-41.8184
0
LINE
8
BLACK
6
CONTINUOUS
10
188.987
20
-41.8184
11
188.17
21
-41.4372
0
LINE
8
BLACK
6
CONTINUOUS
10
188.17
20
-41.4372
11
187.299
21
-41.2037
0
LINE
8
BLACK
6
CONTINUOUS
10
187.299
20
-41.2037
11
186.398
21
-41.125
0
LINE
8
BLACK
6
CONTINUOUS
10
186.398
20
-41.125
11
170.511
21
-40.5758
0
LINE
8
BLACK
6
CONTINUOUS
10
170.511
20
-40.5758
11
170.511
21
-40.5758
0
LINE
8
BLACK
6
CONTINUOUS
10
170.511
20
-40.5758
11
164.83
21
-40.4218
0
LINE
8
BLACK
6
CONTINUOUS
10
164.83
20
-40.4218
11
164.83
21
-40.4218
0
LINE
8
BLACK
6
CONTINUOUS
10
164.83
20
-40.4218
11
164.83
21
-40.4218
0
LINE
8
BLACK
6
CONTINUOUS
10
164.83
20
-40.4218
11
164.83
21
-40.4218
0
LINE
8
BLACK
6
CONTINUOUS
10
164.83
20
-40.4218
11
159.155
21
-40.1093
0
LINE
8
BLACK
6
CONTINUOUS
10
159.155
20
-40.1093
11
159.155
21
-40.1093
0
LINE
8
BLACK
6
CONTINUOUS
10
159.155
20
-40.1093
11
159.155
21
-40.1092
0
LINE
8
BLACK
6
CONTINUOUS
10
159.155
20
-40.1092
11
159.154
21
-40.1092
0
LINE
8
BLACK
6
CONTINUOUS
10
159.154
20
-40.1092
11
153.491
21
-39.6384
0
LINE
8
BLACK
6
CONTINUOUS
10
153.491
20
-39.6384
11
153.491
21
-39.6384
0
LINE
8
BLACK
6
CONTINUOUS
10
153.491
20
-39.6384
11
153.49
21
-39.6383
0
LINE
8
BLACK
6
CONTINUOUS
10
153.49
20
-39.6383
11
153.49
21
-39.6383
0
LINE
8
BLACK
6
CONTINUOUS
10
153.49
20
-39.6383
11
147.842
21
-39.0095
0
LINE
8
BLACK
6
CONTINUOUS
10
147.842
20
-39.0095
11
147.842
21
-39.0095
0
LINE
8
BLACK
6
CONTINUOUS
10
147.842
20
-39.0095
11
147.841
21
-39.0095
0
LINE
8
BLACK
6
CONTINUOUS
10
147.841
20
-39.0095
11
147.841
21
-39.0095
0
LINE
8
BLACK
6
CONTINUOUS
10
147.841
20
-39.0095
11
142.213
21
-38.2232
0
LINE
8
BLACK
6
CONTINUOUS
10
142.213
20
-38.2232
11
142.212
21
-38.2232
0
LINE
8
BLACK
6
CONTINUOUS
10
142.212
20
-38.2232
11
142.212
21
-38.2231
0
LINE
8
BLACK
6
CONTINUOUS
10
142.212
20
-38.2231
11
142.212
21
-38.2231
0
LINE
8
BLACK
6
CONTINUOUS
10
142.212
20
-38.2231
11
136.608
21
-37.28
0
LINE
8
BLACK
6
CONTINUOUS
10
136.608
20
-37.28
11
136.607
21
-37.2799
0
LINE
8
BLACK
6
CONTINUOUS
10
136.607
20
-37.2799
11
136.607
21
-37.2799
0
LINE
8
BLACK
6
CONTINUOUS
10
136.607
20
-37.2799
11
136.607
21
-37.2799
0
LINE
8
BLACK
6
CONTINUOUS
10
136.607
20
-37.2799
11
131.031
21
-36.1807
0
LINE
8
BLACK
6
CONTINUOUS
10
131.031
20
-36.1807
11
131.031
21
-36.1806
0
LINE
8
BLACK
6
CONTINUOUS
10
131.031
20
-36.1806
11
131.031
21
-36.1805
0
LINE
8
BLACK
6
CONTINUOUS
10
131.031
20
-36.1805
11
131.031
21
-36.1805
0
LINE
8
BLACK
6
CONTINUOUS
10
131.031
20
-36.1805
11
125.488
21
-34.926
0
LINE
8
BLACK
6
CONTINUOUS
10
125.488
20
-34.926
11
125.487
21
-34.926
0
LINE
8
BLACK
6
CONTINUOUS
10
125.487
20
-34.926
11
125.487
21
-34.926
0
LINE
8
BLACK
6
CONTINUOUS
10
125.487
20
-34.926
11
125.487
21
-34.9259
0
LINE
8
BLACK
6
CONTINUOUS
10
125.487
20
-34.9259
11
124
21
-34.5615
0
LINE
8
BLACK
6
CONTINUOUS
10
124
20
-34.5615
11
123.572
21
-34.497
0
LINE
8
BLACK
6
CONTINUOUS
10
123.572
20
-34.497
11
119.403
21
-33.9545
0
LINE
8
BLACK
6
CONTINUOUS
10
119.403
20
-33.9545
11
115.217
21
-33.5652
0
LINE
8
BLACK
6
CONTINUOUS
10
115.217
20
-33.5652
11
111.019
21
-33.3295
0
LINE
8
BLACK
6
CONTINUOUS
10
111.019
20
-33.3295
11
106.816
21
-33.2477
0
LINE
8
BLACK
6
CONTINUOUS
10
106.816
20
-33.2477
11
102.613
21
-33.3201
  0
ENDSEC
  0
EOF
