%TF.GenerationSoftware,KiCad,Pcbnew,(5.1.6-0-10_14)*%
%TF.CreationDate,2020-07-06T11:25:28+02:00*%
%TF.ProjectId,splitkb,73706c69-746b-4622-9e6b-696361645f70,rev?*%
%TF.SameCoordinates,Original*%
%TF.FileFunction,Paste,Top*%
%TF.FilePolarity,Positive*%
%FSLAX46Y46*%
G04 Gerber Fmt 4.6, Leading zero omitted, Abs format (unit mm)*
G04 Created by KiCad (PCBNEW (5.1.6-0-10_14)) date 2020-07-06 11:25:28*
%MOMM*%
%LPD*%
G01*
G04 APERTURE LIST*
%ADD10R,2.300000X2.000000*%
%ADD11C,0.100000*%
%ADD12R,0.950000X1.300000*%
%ADD13R,1.300000X0.950000*%
G04 APERTURE END LIST*
D10*
%TO.C,SW9*%
X80400000Y-43830000D03*
X93100000Y-46370000D03*
%TD*%
%TO.C,SW30*%
X169300000Y-88470000D03*
X156600000Y-85930000D03*
%TD*%
%TO.C,SW2*%
X42300000Y-66880000D03*
X55000000Y-69420000D03*
%TD*%
D11*
%TO.C,SW17*%
G36*
X127335665Y-122713587D02*
G01*
X126988369Y-124683203D01*
X125018753Y-124335907D01*
X125366049Y-122366291D01*
X127335665Y-122713587D01*
G37*
G36*
X139204696Y-127385601D02*
G01*
X138857400Y-129355217D01*
X136887784Y-129007921D01*
X137235080Y-127038305D01*
X139204696Y-127385601D01*
G37*
G36*
X128087989Y-133995627D02*
G01*
X127740693Y-135965242D01*
X125968039Y-135652675D01*
X126315335Y-133683060D01*
X128087989Y-133995627D01*
G37*
G36*
X139302901Y-133739179D02*
G01*
X138955605Y-135708795D01*
X136985989Y-135361499D01*
X137333285Y-133391883D01*
X139302901Y-133739179D01*
G37*
%TD*%
D12*
%TO.C,D1*%
X43000000Y-125450000D03*
X43000000Y-129000000D03*
%TD*%
%TO.C,D2*%
X45000000Y-129000000D03*
X45000000Y-125450000D03*
%TD*%
%TO.C,D3*%
X47000000Y-125450000D03*
X47000000Y-129000000D03*
%TD*%
%TO.C,D4*%
X49000000Y-125450000D03*
X49000000Y-129000000D03*
%TD*%
%TO.C,D5*%
X51000000Y-129000000D03*
X51000000Y-125450000D03*
%TD*%
%TO.C,D6*%
X53000000Y-125450000D03*
X53000000Y-129000000D03*
%TD*%
%TO.C,D7*%
X55000000Y-125450000D03*
X55000000Y-129000000D03*
%TD*%
%TO.C,D8*%
X57000000Y-129000000D03*
X57000000Y-125450000D03*
%TD*%
%TO.C,D9*%
X59000000Y-129000000D03*
X59000000Y-125450000D03*
%TD*%
%TO.C,D10*%
X61000000Y-125450000D03*
X61000000Y-129000000D03*
%TD*%
%TO.C,D11*%
X63000000Y-129000000D03*
X63000000Y-125450000D03*
%TD*%
%TO.C,D12*%
X65000000Y-125450000D03*
X65000000Y-129000000D03*
%TD*%
%TO.C,D13*%
X67000000Y-129000000D03*
X67000000Y-125450000D03*
%TD*%
%TO.C,D14*%
X69000000Y-125450000D03*
X69000000Y-129000000D03*
%TD*%
%TO.C,D15*%
X71000000Y-125450000D03*
X71000000Y-129000000D03*
%TD*%
%TO.C,D16*%
X73000000Y-129000000D03*
X73000000Y-125450000D03*
%TD*%
D13*
%TO.C,D17*%
X180725000Y-98500000D03*
X184275000Y-98500000D03*
%TD*%
D12*
%TO.C,D18*%
X75000000Y-129000000D03*
X75000000Y-125450000D03*
%TD*%
%TO.C,D19*%
X77000000Y-125450000D03*
X77000000Y-129000000D03*
%TD*%
%TO.C,D20*%
X79000000Y-129000000D03*
X79000000Y-125450000D03*
%TD*%
%TO.C,D21*%
X81000000Y-125450000D03*
X81000000Y-129000000D03*
%TD*%
D13*
%TO.C,D22*%
X180725000Y-96000000D03*
X184275000Y-96000000D03*
%TD*%
D12*
%TO.C,D23*%
X83000000Y-125450000D03*
X83000000Y-129000000D03*
%TD*%
%TO.C,D24*%
X85000000Y-129000000D03*
X85000000Y-125450000D03*
%TD*%
%TO.C,D25*%
X87000000Y-125450000D03*
X87000000Y-129000000D03*
%TD*%
%TO.C,D26*%
X89000000Y-129000000D03*
X89000000Y-125450000D03*
%TD*%
D13*
%TO.C,D27*%
X184275000Y-93500000D03*
X180725000Y-93500000D03*
%TD*%
D12*
%TO.C,D28*%
X91000000Y-125450000D03*
X91000000Y-129000000D03*
%TD*%
%TO.C,D29*%
X93000000Y-129000000D03*
X93000000Y-125450000D03*
%TD*%
%TO.C,D30*%
X95000000Y-129000000D03*
X95000000Y-125450000D03*
%TD*%
%TO.C,D31*%
X97000000Y-125450000D03*
X97000000Y-129000000D03*
%TD*%
D13*
%TO.C,D32*%
X180725000Y-91000000D03*
X184275000Y-91000000D03*
%TD*%
D11*
%TO.C,SW22*%
G36*
X157891114Y-138663253D02*
G01*
X157373476Y-140595105D01*
X155441624Y-140077467D01*
X155959262Y-138145615D01*
X157891114Y-138663253D01*
G37*
G36*
X146696527Y-137941280D02*
G01*
X146178889Y-139873132D01*
X144440223Y-139407258D01*
X144957861Y-137475406D01*
X146696527Y-137941280D01*
G37*
G36*
X158347034Y-132325293D02*
G01*
X157829396Y-134257145D01*
X155897544Y-133739507D01*
X156415182Y-131807655D01*
X158347034Y-132325293D01*
G37*
G36*
X146930361Y-126636603D02*
G01*
X146412723Y-128568455D01*
X144480871Y-128050817D01*
X144998509Y-126118965D01*
X146930361Y-126636603D01*
G37*
%TD*%
%TO.C,SW27*%
G36*
X166156897Y-132313377D02*
G01*
X165472856Y-134192762D01*
X163593471Y-133508721D01*
X164277512Y-131629336D01*
X166156897Y-132313377D01*
G37*
G36*
X177034323Y-138975448D02*
G01*
X176350282Y-140854833D01*
X174470897Y-140170792D01*
X175154938Y-138291407D01*
X177034323Y-138975448D01*
G37*
G36*
X164938686Y-143554656D02*
G01*
X164254645Y-145434041D01*
X162563198Y-144818404D01*
X163247239Y-142939019D01*
X164938686Y-143554656D01*
G37*
G36*
X176027749Y-145249554D02*
G01*
X175343708Y-147128939D01*
X173464323Y-146444898D01*
X174148364Y-144565513D01*
X176027749Y-145249554D01*
G37*
%TD*%
D10*
%TO.C,SW1*%
X42300000Y-47830000D03*
X55000000Y-50370000D03*
%TD*%
%TO.C,SW3*%
X42300000Y-85930000D03*
X55000000Y-88470000D03*
%TD*%
%TO.C,SW4*%
X55000000Y-107520000D03*
X42300000Y-104980000D03*
%TD*%
%TO.C,SW5*%
X74050000Y-48370000D03*
X61350000Y-45830000D03*
%TD*%
%TO.C,SW6*%
X74050000Y-67420000D03*
X61350000Y-64880000D03*
%TD*%
%TO.C,SW7*%
X61350000Y-83930000D03*
X74050000Y-86470000D03*
%TD*%
%TO.C,SW8*%
X61350000Y-102980000D03*
X74050000Y-105520000D03*
%TD*%
%TO.C,SW10*%
X80400000Y-62880000D03*
X93100000Y-65420000D03*
%TD*%
%TO.C,SW11*%
X93100000Y-84470000D03*
X80400000Y-81930000D03*
%TD*%
%TO.C,SW12*%
X93100000Y-103520000D03*
X80400000Y-100980000D03*
%TD*%
%TO.C,SW13*%
X112150000Y-44370000D03*
X99450000Y-41830000D03*
%TD*%
%TO.C,SW14*%
X112150000Y-63420000D03*
X99450000Y-60880000D03*
%TD*%
%TO.C,SW15*%
X112150000Y-82470000D03*
X99450000Y-79930000D03*
%TD*%
%TO.C,SW16*%
X112150000Y-101520000D03*
X99450000Y-98980000D03*
%TD*%
%TO.C,SW18*%
X118500000Y-43830000D03*
X131200000Y-46370000D03*
%TD*%
%TO.C,SW19*%
X131200000Y-65420000D03*
X118500000Y-62880000D03*
%TD*%
%TO.C,SW20*%
X118500000Y-81930000D03*
X131200000Y-84470000D03*
%TD*%
%TO.C,SW21*%
X131200000Y-103520000D03*
X118500000Y-100980000D03*
%TD*%
%TO.C,SW23*%
X137550000Y-45830000D03*
X150250000Y-48370000D03*
%TD*%
%TO.C,SW24*%
X137550000Y-64880000D03*
X150250000Y-67420000D03*
%TD*%
%TO.C,SW25*%
X137550000Y-83930000D03*
X150250000Y-86470000D03*
%TD*%
%TO.C,SW26*%
X137550000Y-102980000D03*
X150250000Y-105520000D03*
%TD*%
%TO.C,SW28*%
X156600000Y-47830000D03*
X169300000Y-50370000D03*
%TD*%
%TO.C,SW29*%
X169300000Y-69420000D03*
X156600000Y-66880000D03*
%TD*%
D11*
%TO.C,SW31*%
G36*
X171832927Y-116873365D02*
G01*
X171148886Y-118752750D01*
X168987593Y-117966103D01*
X169671634Y-116086718D01*
X171832927Y-116873365D01*
G37*
G36*
X160767562Y-110142890D02*
G01*
X160083521Y-112022275D01*
X157922228Y-111235628D01*
X158606269Y-109356243D01*
X160767562Y-110142890D01*
G37*
%TD*%
%TO.C,SW32*%
G36*
X189782927Y-123423365D02*
G01*
X189098886Y-125302750D01*
X186937593Y-124516103D01*
X187621634Y-122636718D01*
X189782927Y-123423365D01*
G37*
G36*
X178717562Y-116692890D02*
G01*
X178033521Y-118572275D01*
X175872228Y-117785628D01*
X176556269Y-115906243D01*
X178717562Y-116692890D01*
G37*
%TD*%
M02*
