%TF.GenerationSoftware,KiCad,Pcbnew,(5.1.6-0-10_14)*%
%TF.CreationDate,2020-07-06T11:25:28+02:00*%
%TF.ProjectId,splitkb,73706c69-746b-4622-9e6b-696361645f70,rev?*%
%TF.SameCoordinates,Original*%
%TF.FileFunction,Soldermask,Bot*%
%TF.FilePolarity,Negative*%
%FSLAX46Y46*%
G04 Gerber Fmt 4.6, Leading zero omitted, Abs format (unit mm)*
G04 Created by KiCad (PCBNEW (5.1.6-0-10_14)) date 2020-07-06 11:25:28*
%MOMM*%
%LPD*%
G01*
G04 APERTURE LIST*
%ADD10C,2.300000*%
%ADD11R,2.400000X2.100000*%
%ADD12C,2.000000*%
%ADD13C,4.200000*%
%ADD14C,3.100000*%
%ADD15C,0.100000*%
%ADD16C,4.100000*%
%ADD17C,1.800000*%
%ADD18C,1.497000*%
%ADD19R,1.497000X1.497000*%
%ADD20R,1.050000X1.400000*%
%ADD21R,1.400000X1.050000*%
%ADD22C,2.100000*%
%ADD23C,1.624000*%
%ADD24C,1.300000*%
%ADD25O,2.600000X1.800000*%
G04 APERTURE END LIST*
D10*
%TO.C,REF\u002A\u002A*%
X107500000Y-133500000D03*
%TD*%
%TO.C,REF\u002A\u002A*%
X177120000Y-133940000D03*
%TD*%
%TO.C,REF\u002A\u002A*%
X116680000Y-96540000D03*
%TD*%
%TO.C,REF\u002A\u002A*%
X115950000Y-58500000D03*
%TD*%
%TO.C,REF\u002A\u002A*%
X59730000Y-98540000D03*
%TD*%
%TO.C,REF\u002A\u002A*%
X58690000Y-60540000D03*
%TD*%
%TO.C,REF\u002A\u002A*%
X155340000Y-100570000D03*
%TD*%
%TO.C,REF\u002A\u002A*%
X154500000Y-62530000D03*
%TD*%
D11*
%TO.C,SW9*%
X91800000Y-43830000D03*
D12*
X81020000Y-48950000D03*
X91180000Y-48950000D03*
D13*
X86100000Y-48950000D03*
D14*
X88640000Y-43870000D03*
X89910000Y-46409999D03*
X83560000Y-43870000D03*
X82290000Y-46410000D03*
D11*
X79100000Y-46370000D03*
%TD*%
D10*
%TO.C,REF\u002A\u002A*%
X107500000Y-124000000D03*
%TD*%
%TO.C,REF\u002A\u002A*%
X40500000Y-133500000D03*
%TD*%
%TO.C,REF\u002A\u002A*%
X40500000Y-124000000D03*
%TD*%
D11*
%TO.C,SW30*%
X155300000Y-88470000D03*
D14*
X158490000Y-88510000D03*
X159760000Y-85970000D03*
X166110000Y-88509999D03*
X164840000Y-85970000D03*
D13*
X162300000Y-91050000D03*
D12*
X167380000Y-91050000D03*
X157220000Y-91050000D03*
D11*
X168000000Y-85930000D03*
%TD*%
%TO.C,SW2*%
X53700000Y-66880000D03*
D12*
X42920000Y-72000000D03*
X53080000Y-72000000D03*
D13*
X48000000Y-72000000D03*
D14*
X50540000Y-66920000D03*
X51810000Y-69459999D03*
X45460000Y-66920000D03*
X44190000Y-69460000D03*
D11*
X41000000Y-69420000D03*
%TD*%
D14*
%TO.C,SW17*%
X135003184Y-127660188D03*
X129190721Y-124056110D03*
X135091541Y-134012030D03*
D15*
G36*
X123406938Y-130885520D02*
G01*
X123042277Y-132953617D01*
X120974180Y-132588956D01*
X121338841Y-130520859D01*
X123406938Y-130885520D01*
G37*
G36*
X133710075Y-134936181D02*
G01*
X133345414Y-137004277D01*
X131375799Y-136656981D01*
X131740460Y-134588885D01*
X133710075Y-134936181D01*
G37*
D14*
X125243463Y-132275548D03*
X129785476Y-135310366D03*
D15*
G36*
X125672272Y-124948698D02*
G01*
X125307611Y-127016795D01*
X123239514Y-126652134D01*
X123604175Y-124584037D01*
X125672272Y-124948698D01*
G37*
D14*
X134193544Y-124938243D03*
D16*
X130810000Y-129500000D03*
D12*
X125393557Y-128544935D03*
X136226443Y-130455065D03*
D17*
X135812823Y-130382133D03*
X125807177Y-128617867D03*
D14*
X127498949Y-126336989D03*
D15*
G36*
X138423435Y-124617888D02*
G01*
X138058774Y-126685985D01*
X135990677Y-126321324D01*
X136355338Y-124253227D01*
X138423435Y-124617888D01*
G37*
%TD*%
D18*
%TO.C,D1*%
X43000000Y-123415000D03*
D19*
X43000000Y-131035000D03*
D20*
X43000000Y-129000000D03*
X43000000Y-125450000D03*
%TD*%
%TO.C,D2*%
X45000000Y-125450000D03*
X45000000Y-129000000D03*
D19*
X45000000Y-131035000D03*
D18*
X45000000Y-123415000D03*
%TD*%
%TO.C,D3*%
X47000000Y-123415000D03*
D19*
X47000000Y-131035000D03*
D20*
X47000000Y-129000000D03*
X47000000Y-125450000D03*
%TD*%
D18*
%TO.C,D4*%
X49000000Y-123415000D03*
D19*
X49000000Y-131035000D03*
D20*
X49000000Y-129000000D03*
X49000000Y-125450000D03*
%TD*%
%TO.C,D5*%
X51000000Y-125450000D03*
X51000000Y-129000000D03*
D19*
X51000000Y-131035000D03*
D18*
X51000000Y-123415000D03*
%TD*%
%TO.C,D6*%
X53000000Y-123415000D03*
D19*
X53000000Y-131035000D03*
D20*
X53000000Y-129000000D03*
X53000000Y-125450000D03*
%TD*%
D18*
%TO.C,D7*%
X55000000Y-123415000D03*
D19*
X55000000Y-131035000D03*
D20*
X55000000Y-129000000D03*
X55000000Y-125450000D03*
%TD*%
%TO.C,D8*%
X57000000Y-125450000D03*
X57000000Y-129000000D03*
D19*
X57000000Y-131035000D03*
D18*
X57000000Y-123415000D03*
%TD*%
D20*
%TO.C,D9*%
X59000000Y-125450000D03*
X59000000Y-129000000D03*
D19*
X59000000Y-131035000D03*
D18*
X59000000Y-123415000D03*
%TD*%
%TO.C,D10*%
X61000000Y-123415000D03*
D19*
X61000000Y-131035000D03*
D20*
X61000000Y-129000000D03*
X61000000Y-125450000D03*
%TD*%
%TO.C,D11*%
X63000000Y-125450000D03*
X63000000Y-129000000D03*
D19*
X63000000Y-131035000D03*
D18*
X63000000Y-123415000D03*
%TD*%
%TO.C,D12*%
X65000000Y-123415000D03*
D19*
X65000000Y-131035000D03*
D20*
X65000000Y-129000000D03*
X65000000Y-125450000D03*
%TD*%
%TO.C,D13*%
X67000000Y-125450000D03*
X67000000Y-129000000D03*
D19*
X67000000Y-131035000D03*
D18*
X67000000Y-123415000D03*
%TD*%
%TO.C,D14*%
X69000000Y-123415000D03*
D19*
X69000000Y-131035000D03*
D20*
X69000000Y-129000000D03*
X69000000Y-125450000D03*
%TD*%
D18*
%TO.C,D15*%
X71000000Y-123415000D03*
D19*
X71000000Y-131035000D03*
D20*
X71000000Y-129000000D03*
X71000000Y-125450000D03*
%TD*%
%TO.C,D16*%
X73000000Y-125450000D03*
X73000000Y-129000000D03*
D19*
X73000000Y-131035000D03*
D18*
X73000000Y-123415000D03*
%TD*%
D21*
%TO.C,D17*%
X184275000Y-98500000D03*
X180725000Y-98500000D03*
D19*
X178690000Y-98500000D03*
D18*
X186310000Y-98500000D03*
%TD*%
D20*
%TO.C,D18*%
X75000000Y-125450000D03*
X75000000Y-129000000D03*
D19*
X75000000Y-131035000D03*
D18*
X75000000Y-123415000D03*
%TD*%
%TO.C,D19*%
X77000000Y-123415000D03*
D19*
X77000000Y-131035000D03*
D20*
X77000000Y-129000000D03*
X77000000Y-125450000D03*
%TD*%
%TO.C,D20*%
X79000000Y-125450000D03*
X79000000Y-129000000D03*
D19*
X79000000Y-131035000D03*
D18*
X79000000Y-123415000D03*
%TD*%
%TO.C,D21*%
X81000000Y-123415000D03*
D19*
X81000000Y-131035000D03*
D20*
X81000000Y-129000000D03*
X81000000Y-125450000D03*
%TD*%
D21*
%TO.C,D22*%
X184275000Y-96000000D03*
X180725000Y-96000000D03*
D19*
X178690000Y-96000000D03*
D18*
X186310000Y-96000000D03*
%TD*%
%TO.C,D23*%
X83000000Y-123415000D03*
D19*
X83000000Y-131035000D03*
D20*
X83000000Y-129000000D03*
X83000000Y-125450000D03*
%TD*%
%TO.C,D24*%
X85000000Y-125450000D03*
X85000000Y-129000000D03*
D19*
X85000000Y-131035000D03*
D18*
X85000000Y-123415000D03*
%TD*%
%TO.C,D25*%
X87000000Y-123415000D03*
D19*
X87000000Y-131035000D03*
D20*
X87000000Y-129000000D03*
X87000000Y-125450000D03*
%TD*%
%TO.C,D26*%
X89000000Y-125450000D03*
X89000000Y-129000000D03*
D19*
X89000000Y-131035000D03*
D18*
X89000000Y-123415000D03*
%TD*%
%TO.C,D27*%
X186310000Y-93500000D03*
D19*
X178690000Y-93500000D03*
D21*
X180725000Y-93500000D03*
X184275000Y-93500000D03*
%TD*%
D18*
%TO.C,D28*%
X91000000Y-123415000D03*
D19*
X91000000Y-131035000D03*
D20*
X91000000Y-129000000D03*
X91000000Y-125450000D03*
%TD*%
%TO.C,D29*%
X93000000Y-125450000D03*
X93000000Y-129000000D03*
D19*
X93000000Y-131035000D03*
D18*
X93000000Y-123415000D03*
%TD*%
D20*
%TO.C,D30*%
X95000000Y-125450000D03*
X95000000Y-129000000D03*
D19*
X95000000Y-131035000D03*
D18*
X95000000Y-123415000D03*
%TD*%
%TO.C,D31*%
X97000000Y-123415000D03*
D19*
X97000000Y-131035000D03*
D20*
X97000000Y-129000000D03*
X97000000Y-125450000D03*
%TD*%
D21*
%TO.C,D32*%
X184275000Y-91000000D03*
X180725000Y-91000000D03*
D19*
X178690000Y-91000000D03*
D18*
X186310000Y-91000000D03*
%TD*%
D22*
%TO.C,K1*%
X187500000Y-79750000D03*
X187500000Y-86250000D03*
%TD*%
D15*
%TO.C,SW22*%
G36*
X157809967Y-129500021D02*
G01*
X157266447Y-131528465D01*
X155238003Y-130984945D01*
X155781523Y-128956501D01*
X157809967Y-129500021D01*
G37*
D14*
X146777223Y-130260448D03*
D17*
X144893097Y-132385199D03*
X154706903Y-135014801D03*
D12*
X155112592Y-135123505D03*
X144487408Y-132276495D03*
D16*
X149800000Y-133700000D03*
D14*
X153568252Y-129450497D03*
D15*
G36*
X145078494Y-128718235D02*
G01*
X144534974Y-130746679D01*
X142506530Y-130203159D01*
X143050050Y-128174715D01*
X145078494Y-128718235D01*
G37*
D14*
X148272968Y-139398962D03*
X144012740Y-135979830D03*
D15*
G36*
X152215246Y-139368253D02*
G01*
X151671726Y-141396697D01*
X149739874Y-140879059D01*
X150283394Y-138850615D01*
X152215246Y-139368253D01*
G37*
G36*
X142304352Y-134435029D02*
G01*
X141760832Y-136463473D01*
X139732388Y-135919953D01*
X140275908Y-133891509D01*
X142304352Y-134435029D01*
G37*
D14*
X153671999Y-138568021D03*
X148661349Y-128135696D03*
X154137578Y-132232649D03*
%TD*%
%TO.C,SW27*%
X172848960Y-138516277D03*
X167750643Y-133957630D03*
X171832989Y-144786963D03*
D15*
G36*
X160868813Y-139678944D02*
G01*
X160150571Y-141652298D01*
X158177217Y-140934056D01*
X158895459Y-138960702D01*
X160868813Y-139678944D01*
G37*
G36*
X170312034Y-145457186D02*
G01*
X169593791Y-147430540D01*
X167714406Y-146746500D01*
X168432649Y-144773146D01*
X170312034Y-145457186D01*
G37*
D14*
X162436062Y-141366762D03*
X166382081Y-145144186D03*
D15*
G36*
X164130650Y-134225686D02*
G01*
X163412408Y-136199040D01*
X161439054Y-135480798D01*
X162157296Y-133507444D01*
X164130650Y-134225686D01*
G37*
D14*
X172524282Y-135695093D03*
D16*
X168400000Y-139600000D03*
D12*
X163231691Y-137718889D03*
X173568309Y-141481111D03*
D17*
X173173639Y-141337462D03*
X163626361Y-137862538D03*
D14*
X165688502Y-135910084D03*
D15*
G36*
X176745539Y-136114118D02*
G01*
X176027297Y-138087472D01*
X174053943Y-137369230D01*
X174772185Y-135395876D01*
X176745539Y-136114118D01*
G37*
%TD*%
D23*
%TO.C,U1*%
X174936400Y-45022000D03*
X174936400Y-47562000D03*
X174936400Y-50102000D03*
X174936400Y-52642000D03*
X174936400Y-55182000D03*
X174936400Y-57722000D03*
X174936400Y-60262000D03*
X174936400Y-62802000D03*
X174936400Y-65342000D03*
X174936400Y-67882000D03*
X174936400Y-70422000D03*
X174936400Y-72962000D03*
X190156400Y-72962000D03*
X190156400Y-70422000D03*
X190156400Y-67882000D03*
X190156400Y-65342000D03*
X190156400Y-62802000D03*
X190156400Y-60262000D03*
X190156400Y-57722000D03*
X190156400Y-55182000D03*
X190156400Y-52642000D03*
X190156400Y-50102000D03*
X190156400Y-47562000D03*
X190156400Y-45022000D03*
X173610000Y-46292000D03*
X173610000Y-48832000D03*
X173610000Y-51372000D03*
X173610000Y-53912000D03*
X173610000Y-56452000D03*
X173610000Y-58992000D03*
X173610000Y-61532000D03*
X173610000Y-64072000D03*
X173610000Y-66612000D03*
X173610000Y-69152000D03*
X173610000Y-71692000D03*
X173610000Y-74232000D03*
X188850000Y-74232000D03*
X188850000Y-71692000D03*
X188850000Y-69152000D03*
X188850000Y-66612000D03*
X188850000Y-64072000D03*
X188850000Y-61532000D03*
X188850000Y-58992000D03*
X188850000Y-56452000D03*
X188850000Y-53912000D03*
X188850000Y-51372000D03*
X188850000Y-48832000D03*
X188850000Y-46292000D03*
%TD*%
D24*
%TO.C,J1*%
X183400000Y-108250000D03*
X190400000Y-108250000D03*
D25*
X181600000Y-106150000D03*
X180100000Y-110350000D03*
X188600000Y-106150000D03*
X185600000Y-106150000D03*
D24*
X190400000Y-110000000D03*
X183400000Y-110000000D03*
D25*
X188600000Y-112100000D03*
X185600000Y-112100000D03*
X181600000Y-112100000D03*
X180100000Y-107900000D03*
%TD*%
D11*
%TO.C,SW1*%
X53700000Y-47830000D03*
D12*
X42920000Y-52950000D03*
X53080000Y-52950000D03*
D13*
X48000000Y-52950000D03*
D14*
X50540000Y-47870000D03*
X51810000Y-50409999D03*
X45460000Y-47870000D03*
X44190000Y-50410000D03*
D11*
X41000000Y-50370000D03*
%TD*%
%TO.C,SW3*%
X53700000Y-85930000D03*
D12*
X42920000Y-91050000D03*
X53080000Y-91050000D03*
D13*
X48000000Y-91050000D03*
D14*
X50540000Y-85970000D03*
X51810000Y-88509999D03*
X45460000Y-85970000D03*
X44190000Y-88510000D03*
D11*
X41000000Y-88470000D03*
%TD*%
%TO.C,SW4*%
X41000000Y-107520000D03*
D14*
X44190000Y-107560000D03*
X45460000Y-105020000D03*
X51810000Y-107559999D03*
X50540000Y-105020000D03*
D13*
X48000000Y-110100000D03*
D12*
X53080000Y-110100000D03*
X42920000Y-110100000D03*
D11*
X53700000Y-104980000D03*
%TD*%
%TO.C,SW5*%
X60050000Y-48370000D03*
D14*
X63240000Y-48410000D03*
X64510000Y-45870000D03*
X70860000Y-48409999D03*
X69590000Y-45870000D03*
D13*
X67050000Y-50950000D03*
D12*
X72130000Y-50950000D03*
X61970000Y-50950000D03*
D11*
X72750000Y-45830000D03*
%TD*%
%TO.C,SW6*%
X60050000Y-67420000D03*
D14*
X63240000Y-67460000D03*
X64510000Y-64920000D03*
X70860000Y-67459999D03*
X69590000Y-64920000D03*
D13*
X67050000Y-70000000D03*
D12*
X72130000Y-70000000D03*
X61970000Y-70000000D03*
D11*
X72750000Y-64880000D03*
%TD*%
%TO.C,SW7*%
X72750000Y-83930000D03*
D12*
X61970000Y-89050000D03*
X72130000Y-89050000D03*
D13*
X67050000Y-89050000D03*
D14*
X69590000Y-83970000D03*
X70860000Y-86509999D03*
X64510000Y-83970000D03*
X63240000Y-86510000D03*
D11*
X60050000Y-86470000D03*
%TD*%
%TO.C,SW8*%
X72750000Y-102980000D03*
D12*
X61970000Y-108100000D03*
X72130000Y-108100000D03*
D13*
X67050000Y-108100000D03*
D14*
X69590000Y-103020000D03*
X70860000Y-105559999D03*
X64510000Y-103020000D03*
X63240000Y-105560000D03*
D11*
X60050000Y-105520000D03*
%TD*%
%TO.C,SW10*%
X91800000Y-62880000D03*
D12*
X81020000Y-68000000D03*
X91180000Y-68000000D03*
D13*
X86100000Y-68000000D03*
D14*
X88640000Y-62920000D03*
X89910000Y-65459999D03*
X83560000Y-62920000D03*
X82290000Y-65460000D03*
D11*
X79100000Y-65420000D03*
%TD*%
%TO.C,SW11*%
X79100000Y-84470000D03*
D14*
X82290000Y-84510000D03*
X83560000Y-81970000D03*
X89910000Y-84509999D03*
X88640000Y-81970000D03*
D13*
X86100000Y-87050000D03*
D12*
X91180000Y-87050000D03*
X81020000Y-87050000D03*
D11*
X91800000Y-81930000D03*
%TD*%
%TO.C,SW12*%
X79100000Y-103520000D03*
D14*
X82290000Y-103560000D03*
X83560000Y-101020000D03*
X89910000Y-103559999D03*
X88640000Y-101020000D03*
D13*
X86100000Y-106100000D03*
D12*
X91180000Y-106100000D03*
X81020000Y-106100000D03*
D11*
X91800000Y-100980000D03*
%TD*%
%TO.C,SW13*%
X98150000Y-44370000D03*
D14*
X101340000Y-44410000D03*
X102610000Y-41870000D03*
X108960000Y-44409999D03*
X107690000Y-41870000D03*
D13*
X105150000Y-46950000D03*
D12*
X110230000Y-46950000D03*
X100070000Y-46950000D03*
D11*
X110850000Y-41830000D03*
%TD*%
%TO.C,SW14*%
X98150000Y-63420000D03*
D14*
X101340000Y-63460000D03*
X102610000Y-60920000D03*
X108960000Y-63459999D03*
X107690000Y-60920000D03*
D13*
X105150000Y-66000000D03*
D12*
X110230000Y-66000000D03*
X100070000Y-66000000D03*
D11*
X110850000Y-60880000D03*
%TD*%
%TO.C,SW15*%
X98150000Y-82470000D03*
D14*
X101340000Y-82510000D03*
X102610000Y-79970000D03*
X108960000Y-82509999D03*
X107690000Y-79970000D03*
D13*
X105150000Y-85050000D03*
D12*
X110230000Y-85050000D03*
X100070000Y-85050000D03*
D11*
X110850000Y-79930000D03*
%TD*%
%TO.C,SW16*%
X98150000Y-101520000D03*
D14*
X101340000Y-101560000D03*
X102610000Y-99020000D03*
X108960000Y-101559999D03*
X107690000Y-99020000D03*
D13*
X105150000Y-104100000D03*
D12*
X110230000Y-104100000D03*
X100070000Y-104100000D03*
D11*
X110850000Y-98980000D03*
%TD*%
%TO.C,SW18*%
X129900000Y-43830000D03*
D12*
X119120000Y-48950000D03*
X129280000Y-48950000D03*
D13*
X124200000Y-48950000D03*
D14*
X126740000Y-43870000D03*
X128010000Y-46409999D03*
X121660000Y-43870000D03*
X120390000Y-46410000D03*
D11*
X117200000Y-46370000D03*
%TD*%
%TO.C,SW19*%
X117200000Y-65420000D03*
D14*
X120390000Y-65460000D03*
X121660000Y-62920000D03*
X128010000Y-65459999D03*
X126740000Y-62920000D03*
D13*
X124200000Y-68000000D03*
D12*
X129280000Y-68000000D03*
X119120000Y-68000000D03*
D11*
X129900000Y-62880000D03*
%TD*%
%TO.C,SW20*%
X129900000Y-81930000D03*
D12*
X119120000Y-87050000D03*
X129280000Y-87050000D03*
D13*
X124200000Y-87050000D03*
D14*
X126740000Y-81970000D03*
X128010000Y-84509999D03*
X121660000Y-81970000D03*
X120390000Y-84510000D03*
D11*
X117200000Y-84470000D03*
%TD*%
%TO.C,SW21*%
X117200000Y-103520000D03*
D14*
X120390000Y-103560000D03*
X121660000Y-101020000D03*
X128010000Y-103559999D03*
X126740000Y-101020000D03*
D13*
X124200000Y-106100000D03*
D12*
X129280000Y-106100000D03*
X119120000Y-106100000D03*
D11*
X129900000Y-100980000D03*
%TD*%
%TO.C,SW23*%
X148950000Y-45830000D03*
D12*
X138170000Y-50950000D03*
X148330000Y-50950000D03*
D13*
X143250000Y-50950000D03*
D14*
X145790000Y-45870000D03*
X147060000Y-48409999D03*
X140710000Y-45870000D03*
X139440000Y-48410000D03*
D11*
X136250000Y-48370000D03*
%TD*%
%TO.C,SW24*%
X148950000Y-64880000D03*
D12*
X138170000Y-70000000D03*
X148330000Y-70000000D03*
D13*
X143250000Y-70000000D03*
D14*
X145790000Y-64920000D03*
X147060000Y-67459999D03*
X140710000Y-64920000D03*
X139440000Y-67460000D03*
D11*
X136250000Y-67420000D03*
%TD*%
%TO.C,SW25*%
X148950000Y-83930000D03*
D12*
X138170000Y-89050000D03*
X148330000Y-89050000D03*
D13*
X143250000Y-89050000D03*
D14*
X145790000Y-83970000D03*
X147060000Y-86509999D03*
X140710000Y-83970000D03*
X139440000Y-86510000D03*
D11*
X136250000Y-86470000D03*
%TD*%
%TO.C,SW26*%
X148950000Y-102980000D03*
D12*
X138170000Y-108100000D03*
X148330000Y-108100000D03*
D13*
X143250000Y-108100000D03*
D14*
X145790000Y-103020000D03*
X147060000Y-105559999D03*
X140710000Y-103020000D03*
X139440000Y-105560000D03*
D11*
X136250000Y-105520000D03*
%TD*%
%TO.C,SW28*%
X168000000Y-47830000D03*
D12*
X157220000Y-52950000D03*
X167380000Y-52950000D03*
D13*
X162300000Y-52950000D03*
D14*
X164840000Y-47870000D03*
X166110000Y-50409999D03*
X159760000Y-47870000D03*
X158490000Y-50410000D03*
D11*
X155300000Y-50370000D03*
%TD*%
%TO.C,SW29*%
X155300000Y-69420000D03*
D14*
X158490000Y-69460000D03*
X159760000Y-66920000D03*
X166110000Y-69459999D03*
X164840000Y-66920000D03*
D13*
X162300000Y-72000000D03*
D12*
X167380000Y-72000000D03*
X157220000Y-72000000D03*
D11*
X168000000Y-66880000D03*
%TD*%
D15*
%TO.C,SW31*%
G36*
X158741316Y-112055199D02*
G01*
X158023074Y-114028553D01*
X155767812Y-113207705D01*
X156486054Y-111234351D01*
X158741316Y-112055199D01*
G37*
D14*
X160238502Y-113760084D03*
X162300643Y-111807630D03*
X167398960Y-116366277D03*
X167074282Y-113545093D03*
D13*
X162950000Y-117450000D03*
D12*
X167723639Y-119187462D03*
X158176361Y-115712538D03*
D15*
G36*
X171544143Y-114012036D02*
G01*
X170825901Y-115985390D01*
X168570639Y-115164542D01*
X169288881Y-113191188D01*
X171544143Y-114012036D01*
G37*
%TD*%
%TO.C,SW32*%
G36*
X176691316Y-118605199D02*
G01*
X175973074Y-120578553D01*
X173717812Y-119757705D01*
X174436054Y-117784351D01*
X176691316Y-118605199D01*
G37*
D14*
X178188502Y-120310084D03*
X180250643Y-118357630D03*
X185348960Y-122916277D03*
X185024282Y-120095093D03*
D13*
X180900000Y-124000000D03*
D12*
X185673639Y-125737462D03*
X176126361Y-122262538D03*
D15*
G36*
X189494143Y-120562036D02*
G01*
X188775901Y-122535390D01*
X186520639Y-121714542D01*
X187238881Y-119741188D01*
X189494143Y-120562036D01*
G37*
%TD*%
M02*
