%TF.GenerationSoftware,KiCad,Pcbnew,(5.1.6-0-10_14)*%
%TF.CreationDate,2020-07-06T11:25:28+02:00*%
%TF.ProjectId,splitkb,73706c69-746b-4622-9e6b-696361645f70,rev?*%
%TF.SameCoordinates,Original*%
%TF.FileFunction,Paste,Bot*%
%TF.FilePolarity,Positive*%
%FSLAX46Y46*%
G04 Gerber Fmt 4.6, Leading zero omitted, Abs format (unit mm)*
G04 Created by KiCad (PCBNEW (5.1.6-0-10_14)) date 2020-07-06 11:25:28*
%MOMM*%
%LPD*%
G01*
G04 APERTURE LIST*
%ADD10R,2.300000X2.000000*%
%ADD11C,0.100000*%
%ADD12R,0.950000X1.300000*%
%ADD13R,1.300000X0.950000*%
G04 APERTURE END LIST*
D10*
%TO.C,SW9*%
X91800000Y-43830000D03*
X79100000Y-46370000D03*
%TD*%
%TO.C,SW30*%
X155300000Y-88470000D03*
X168000000Y-85930000D03*
%TD*%
%TO.C,SW2*%
X53700000Y-66880000D03*
X41000000Y-69420000D03*
%TD*%
D11*
%TO.C,SW17*%
G36*
X123349015Y-130926078D02*
G01*
X123001719Y-132895694D01*
X121032103Y-132548398D01*
X121379399Y-130578782D01*
X123349015Y-130926078D01*
G37*
G36*
X133652153Y-134976739D02*
G01*
X133304856Y-136946355D01*
X131433721Y-136616423D01*
X131781018Y-134646807D01*
X133652153Y-134976739D01*
G37*
G36*
X125614349Y-124989256D02*
G01*
X125267053Y-126958872D01*
X123297437Y-126611576D01*
X123644733Y-124641960D01*
X125614349Y-124989256D01*
G37*
G36*
X138365512Y-124658446D02*
G01*
X138018216Y-126628062D01*
X136048600Y-126280766D01*
X136395896Y-124311150D01*
X138365512Y-124658446D01*
G37*
%TD*%
D12*
%TO.C,D1*%
X43000000Y-129000000D03*
X43000000Y-125450000D03*
%TD*%
%TO.C,D2*%
X45000000Y-125450000D03*
X45000000Y-129000000D03*
%TD*%
%TO.C,D3*%
X47000000Y-129000000D03*
X47000000Y-125450000D03*
%TD*%
%TO.C,D4*%
X49000000Y-129000000D03*
X49000000Y-125450000D03*
%TD*%
%TO.C,D5*%
X51000000Y-125450000D03*
X51000000Y-129000000D03*
%TD*%
%TO.C,D6*%
X53000000Y-129000000D03*
X53000000Y-125450000D03*
%TD*%
%TO.C,D7*%
X55000000Y-129000000D03*
X55000000Y-125450000D03*
%TD*%
%TO.C,D8*%
X57000000Y-125450000D03*
X57000000Y-129000000D03*
%TD*%
%TO.C,D9*%
X59000000Y-125450000D03*
X59000000Y-129000000D03*
%TD*%
%TO.C,D10*%
X61000000Y-129000000D03*
X61000000Y-125450000D03*
%TD*%
%TO.C,D11*%
X63000000Y-125450000D03*
X63000000Y-129000000D03*
%TD*%
%TO.C,D12*%
X65000000Y-129000000D03*
X65000000Y-125450000D03*
%TD*%
%TO.C,D13*%
X67000000Y-125450000D03*
X67000000Y-129000000D03*
%TD*%
%TO.C,D14*%
X69000000Y-129000000D03*
X69000000Y-125450000D03*
%TD*%
%TO.C,D15*%
X71000000Y-129000000D03*
X71000000Y-125450000D03*
%TD*%
%TO.C,D16*%
X73000000Y-125450000D03*
X73000000Y-129000000D03*
%TD*%
D13*
%TO.C,D17*%
X184275000Y-98500000D03*
X180725000Y-98500000D03*
%TD*%
D12*
%TO.C,D18*%
X75000000Y-125450000D03*
X75000000Y-129000000D03*
%TD*%
%TO.C,D19*%
X77000000Y-129000000D03*
X77000000Y-125450000D03*
%TD*%
%TO.C,D20*%
X79000000Y-125450000D03*
X79000000Y-129000000D03*
%TD*%
%TO.C,D21*%
X81000000Y-129000000D03*
X81000000Y-125450000D03*
%TD*%
D13*
%TO.C,D22*%
X184275000Y-96000000D03*
X180725000Y-96000000D03*
%TD*%
D12*
%TO.C,D23*%
X83000000Y-129000000D03*
X83000000Y-125450000D03*
%TD*%
%TO.C,D24*%
X85000000Y-125450000D03*
X85000000Y-129000000D03*
%TD*%
%TO.C,D25*%
X87000000Y-129000000D03*
X87000000Y-125450000D03*
%TD*%
%TO.C,D26*%
X89000000Y-125450000D03*
X89000000Y-129000000D03*
%TD*%
D13*
%TO.C,D27*%
X180725000Y-93500000D03*
X184275000Y-93500000D03*
%TD*%
D12*
%TO.C,D28*%
X91000000Y-129000000D03*
X91000000Y-125450000D03*
%TD*%
%TO.C,D29*%
X93000000Y-125450000D03*
X93000000Y-129000000D03*
%TD*%
%TO.C,D30*%
X95000000Y-125450000D03*
X95000000Y-129000000D03*
%TD*%
%TO.C,D31*%
X97000000Y-129000000D03*
X97000000Y-125450000D03*
%TD*%
D13*
%TO.C,D32*%
X184275000Y-91000000D03*
X180725000Y-91000000D03*
%TD*%
D11*
%TO.C,SW22*%
G36*
X157748730Y-129535376D02*
G01*
X157231092Y-131467228D01*
X155299240Y-130949590D01*
X155816878Y-129017738D01*
X157748730Y-129535376D01*
G37*
G36*
X145017257Y-128753590D02*
G01*
X144499619Y-130685442D01*
X142567767Y-130167804D01*
X143085405Y-128235952D01*
X145017257Y-128753590D01*
G37*
G36*
X152154009Y-139403608D02*
G01*
X151636370Y-141335460D01*
X149801111Y-140843704D01*
X150318750Y-138911852D01*
X152154009Y-139403608D01*
G37*
G36*
X142243115Y-134470384D02*
G01*
X141725477Y-136402236D01*
X139793625Y-135884598D01*
X140311263Y-133952746D01*
X142243115Y-134470384D01*
G37*
%TD*%
%TO.C,SW27*%
G36*
X160804728Y-139708828D02*
G01*
X160120687Y-141588213D01*
X158241302Y-140904172D01*
X158925343Y-139024787D01*
X160804728Y-139708828D01*
G37*
G36*
X170247948Y-145487070D02*
G01*
X169563908Y-147366455D01*
X167778492Y-146716616D01*
X168462532Y-144837231D01*
X170247948Y-145487070D01*
G37*
G36*
X164066565Y-134255570D02*
G01*
X163382524Y-136134955D01*
X161503139Y-135450914D01*
X162187180Y-133571529D01*
X164066565Y-134255570D01*
G37*
G36*
X176681454Y-136144002D02*
G01*
X175997413Y-138023387D01*
X174118028Y-137339346D01*
X174802069Y-135459961D01*
X176681454Y-136144002D01*
G37*
%TD*%
D10*
%TO.C,SW1*%
X53700000Y-47830000D03*
X41000000Y-50370000D03*
%TD*%
%TO.C,SW3*%
X53700000Y-85930000D03*
X41000000Y-88470000D03*
%TD*%
%TO.C,SW4*%
X41000000Y-107520000D03*
X53700000Y-104980000D03*
%TD*%
%TO.C,SW5*%
X60050000Y-48370000D03*
X72750000Y-45830000D03*
%TD*%
%TO.C,SW6*%
X60050000Y-67420000D03*
X72750000Y-64880000D03*
%TD*%
%TO.C,SW7*%
X72750000Y-83930000D03*
X60050000Y-86470000D03*
%TD*%
%TO.C,SW8*%
X72750000Y-102980000D03*
X60050000Y-105520000D03*
%TD*%
%TO.C,SW10*%
X91800000Y-62880000D03*
X79100000Y-65420000D03*
%TD*%
%TO.C,SW11*%
X79100000Y-84470000D03*
X91800000Y-81930000D03*
%TD*%
%TO.C,SW12*%
X79100000Y-103520000D03*
X91800000Y-100980000D03*
%TD*%
%TO.C,SW13*%
X98150000Y-44370000D03*
X110850000Y-41830000D03*
%TD*%
%TO.C,SW14*%
X98150000Y-63420000D03*
X110850000Y-60880000D03*
%TD*%
%TO.C,SW15*%
X98150000Y-82470000D03*
X110850000Y-79930000D03*
%TD*%
%TO.C,SW16*%
X98150000Y-101520000D03*
X110850000Y-98980000D03*
%TD*%
%TO.C,SW18*%
X129900000Y-43830000D03*
X117200000Y-46370000D03*
%TD*%
%TO.C,SW19*%
X117200000Y-65420000D03*
X129900000Y-62880000D03*
%TD*%
%TO.C,SW20*%
X129900000Y-81930000D03*
X117200000Y-84470000D03*
%TD*%
%TO.C,SW21*%
X117200000Y-103520000D03*
X129900000Y-100980000D03*
%TD*%
%TO.C,SW23*%
X148950000Y-45830000D03*
X136250000Y-48370000D03*
%TD*%
%TO.C,SW24*%
X148950000Y-64880000D03*
X136250000Y-67420000D03*
%TD*%
%TO.C,SW25*%
X148950000Y-83930000D03*
X136250000Y-86470000D03*
%TD*%
%TO.C,SW26*%
X148950000Y-102980000D03*
X136250000Y-105520000D03*
%TD*%
%TO.C,SW28*%
X168000000Y-47830000D03*
X155300000Y-50370000D03*
%TD*%
%TO.C,SW29*%
X155300000Y-69420000D03*
X168000000Y-66880000D03*
%TD*%
D11*
%TO.C,SW31*%
G36*
X158677231Y-112085083D02*
G01*
X157993190Y-113964468D01*
X155831897Y-113177821D01*
X156515938Y-111298436D01*
X158677231Y-112085083D01*
G37*
G36*
X171480058Y-114041920D02*
G01*
X170796017Y-115921305D01*
X168634724Y-115134658D01*
X169318765Y-113255273D01*
X171480058Y-114041920D01*
G37*
%TD*%
%TO.C,SW32*%
G36*
X176627231Y-118635083D02*
G01*
X175943190Y-120514468D01*
X173781897Y-119727821D01*
X174465938Y-117848436D01*
X176627231Y-118635083D01*
G37*
G36*
X189430058Y-120591920D02*
G01*
X188746017Y-122471305D01*
X186584724Y-121684658D01*
X187268765Y-119805273D01*
X189430058Y-120591920D01*
G37*
%TD*%
M02*
