M48
; DRILL file {KiCad (5.1.6-0-10_14)} date Monday, July 06, 2020 at 11:25:36 AM
; FORMAT={-:-/ absolute / inch / decimal}
; #@! TF.CreationDate,2020-07-06T11:25:36+02:00
; #@! TF.GenerationSoftware,Kicad,Pcbnew,(5.1.6-0-10_14)
; #@! TF.FileFunction,NonPlated,1,2,NPTH
FMAT,2
INCH
T1C0.0472
T2C0.0669
T3C0.0748
T4C0.0866
T5C0.1181
T6C0.1575
T7C0.1614
%
G90
G05
T1
X7.2205Y-4.2618
X7.2205Y-4.3307
X7.4961Y-4.2618
X7.4961Y-4.3307
T2
X6.442Y-5.4277
X6.8179Y-5.5645
X4.953Y-5.0637
X5.347Y-5.1332
X5.7045Y-5.212
X6.0908Y-5.3155
T3
X3.1898Y-1.9272
X3.5898Y-1.9272
X5.6885Y-5.2077
X6.1068Y-5.3198
X2.4398Y-2.0059
X2.8398Y-2.0059
X2.4398Y-2.7559
X2.8398Y-2.7559
X5.4398Y-3.5059
X5.8398Y-3.5059
X3.9398Y-3.3484
X4.3398Y-3.3484
X3.9398Y-2.5984
X4.3398Y-2.5984
X1.6898Y-4.3346
X2.0898Y-4.3346
X5.4398Y-2.7559
X5.8398Y-2.7559
X5.4398Y-2.0059
X5.8398Y-2.0059
X4.6898Y-4.1772
X5.0898Y-4.1772
X6.1898Y-2.0846
X6.5898Y-2.0846
X3.9398Y-1.8484
X4.3398Y-1.8484
X3.1898Y-4.1772
X3.5898Y-4.1772
X1.6898Y-3.5846
X2.0898Y-3.5846
X6.9341Y-4.8135
X7.31Y-4.9503
X1.6898Y-2.0846
X2.0898Y-2.0846
X6.2274Y-4.5556
X6.6033Y-4.6924
X6.1898Y-2.8346
X6.5898Y-2.8346
X1.6898Y-2.8346
X2.0898Y-2.8346
X5.4398Y-4.2559
X5.8398Y-4.2559
X3.1898Y-3.4272
X3.5898Y-3.4272
X3.1898Y-2.6772
X3.5898Y-2.6772
X2.4398Y-4.2559
X2.8398Y-4.2559
X2.4398Y-3.5059
X2.8398Y-3.5059
X6.4264Y-5.422
X6.8334Y-5.5701
X4.9368Y-5.0608
X5.3632Y-5.136
X4.6898Y-3.4272
X5.0898Y-3.4272
X4.6898Y-2.6772
X5.0898Y-2.6772
X6.1898Y-3.5846
X6.5898Y-3.5846
X4.6898Y-1.9272
X5.0898Y-1.9272
X3.9398Y-4.0984
X4.3398Y-4.0984
T4
X6.1157Y-3.9594
X6.9732Y-5.2732
X2.3516Y-3.8795
X1.5945Y-4.8819
X6.0827Y-2.4618
X4.2323Y-5.2559
X4.5937Y-3.8008
X4.2323Y-4.8819
X2.3106Y-2.3835
X4.565Y-2.3031
X1.5945Y-5.2559
T5
X3.9898Y-2.4984
X4.0398Y-2.3984
X4.2398Y-2.3984
X4.2898Y-2.4984
X1.7398Y-4.2346
X1.7898Y-4.1346
X1.9898Y-4.1346
X2.0398Y-4.2346
X5.4898Y-2.6559
X5.5398Y-2.5559
X5.7398Y-2.5559
X5.7898Y-2.6559
X5.4898Y-1.9059
X5.5398Y-1.8059
X5.7398Y-1.8059
X5.7898Y-1.9059
X4.7398Y-4.0772
X4.7898Y-3.9772
X4.9898Y-3.9772
X5.0398Y-4.0772
X6.2398Y-1.9846
X6.2898Y-1.8846
X6.4898Y-1.8846
X6.5398Y-1.9846
X3.9898Y-1.7484
X4.0398Y-1.6484
X4.2398Y-1.6484
X4.2898Y-1.7484
X3.2398Y-4.0772
X3.2898Y-3.9772
X3.4898Y-3.9772
X3.5398Y-4.0772
X1.7398Y-3.4846
X1.7898Y-3.3846
X1.9898Y-3.3846
X2.0398Y-3.4846
X7.0153Y-4.7366
X7.0965Y-4.6597
X7.2844Y-4.7282
X7.2972Y-4.8392
X1.7398Y-1.9846
X1.7898Y-1.8846
X1.9898Y-1.8846
X2.0398Y-1.9846
X6.3086Y-4.4787
X6.3898Y-4.4019
X6.5777Y-4.4703
X6.5905Y-4.5813
X6.2398Y-2.7346
X6.2898Y-2.6346
X6.4898Y-2.6346
X6.5398Y-2.7346
X1.7398Y-2.7346
X1.7898Y-2.6346
X1.9898Y-2.6346
X2.0398Y-2.7346
X5.4898Y-4.1559
X5.5398Y-4.0559
X5.7398Y-4.0559
X5.7898Y-4.1559
X3.2398Y-3.3272
X3.2898Y-3.2272
X3.4898Y-3.2272
X3.5398Y-3.3272
X3.2398Y-2.5772
X3.2898Y-2.4772
X3.4898Y-2.4772
X3.5398Y-2.5772
X2.4898Y-4.1559
X2.5398Y-4.0559
X2.7398Y-4.0559
X2.7898Y-4.1559
X2.4898Y-3.4059
X2.5398Y-3.3059
X2.7398Y-3.3059
X2.7898Y-3.4059
X6.3951Y-5.5656
X6.5232Y-5.3508
X6.5505Y-5.7143
X6.6044Y-5.2739
X6.7651Y-5.7003
X6.7923Y-5.3423
X6.8051Y-5.4534
X4.9308Y-5.2077
X5.0196Y-4.9739
X5.0862Y-4.8841
X5.1097Y-5.3272
X5.2832Y-4.9188
X5.3151Y-5.026
X5.3186Y-5.2761
X4.7398Y-3.3272
X4.7898Y-3.2272
X4.9898Y-3.2272
X5.0398Y-3.3272
X4.7398Y-2.5772
X4.7898Y-2.4772
X4.9898Y-2.4772
X5.0398Y-2.5772
X6.2398Y-3.4846
X6.2898Y-3.3846
X6.4898Y-3.3846
X6.5398Y-3.4846
X4.7398Y-1.8272
X4.7898Y-1.7272
X4.9898Y-1.7272
X5.0398Y-1.8272
X3.9898Y-3.9984
X4.0398Y-3.8984
X4.2398Y-3.8984
X4.2898Y-3.9984
X3.2398Y-1.8272
X3.2898Y-1.7272
X3.4898Y-1.7272
X3.5398Y-1.8272
X5.6698Y-5.3535
X5.7786Y-5.1284
X5.8375Y-5.4881
X5.8528Y-5.0447
X6.046Y-5.0965
X6.0501Y-5.4554
X6.0684Y-5.206
X2.4898Y-1.9059
X2.5398Y-1.8059
X2.7398Y-1.8059
X2.7898Y-1.9059
X2.4898Y-2.6559
X2.5398Y-2.5559
X2.7398Y-2.5559
X2.7898Y-2.6559
X5.4898Y-3.4059
X5.5398Y-3.3059
X5.7398Y-3.3059
X5.7898Y-3.4059
X3.9898Y-3.2484
X4.0398Y-3.1484
X4.2398Y-3.1484
X4.2898Y-3.2484
T6
X6.6299Y-5.4961
X5.15Y-5.0984
X5.8976Y-5.2638
T7
X4.1398Y-2.5984
X1.8898Y-4.3346
X5.6398Y-2.7559
X5.6398Y-2.0059
X4.8898Y-4.1772
X6.3898Y-2.0846
X4.1398Y-1.8484
X3.3898Y-4.1772
X1.8898Y-3.5846
X7.122Y-4.8819
X1.8898Y-2.0846
X6.4154Y-4.624
X6.3898Y-2.8346
X1.8898Y-2.8346
X5.6398Y-4.2559
X3.3898Y-3.4272
X3.3898Y-2.6772
X2.6398Y-4.2559
X2.6398Y-3.5059
X4.8898Y-3.4272
X4.8898Y-2.6772
X6.3898Y-3.5846
X4.8898Y-1.9272
X4.1398Y-4.0984
X3.3898Y-1.9272
X2.6398Y-2.0059
X2.6398Y-2.7559
X5.6398Y-3.5059
X4.1398Y-3.3484
T0
M30
