%TF.GenerationSoftware,KiCad,Pcbnew,(5.1.6)-1*%
%TF.CreationDate,2020-06-18T19:24:29+02:00*%
%TF.ProjectId,splitkb,73706c69-746b-4622-9e6b-696361645f70,rev?*%
%TF.SameCoordinates,Original*%
%TF.FileFunction,Legend,Bot*%
%TF.FilePolarity,Positive*%
%FSLAX46Y46*%
G04 Gerber Fmt 4.6, Leading zero omitted, Abs format (unit mm)*
G04 Created by KiCad (PCBNEW (5.1.6)-1) date 2020-06-18 19:24:29*
%MOMM*%
%LPD*%
G01*
G04 APERTURE LIST*
%ADD10C,0.150000*%
%ADD11C,0.120000*%
%ADD12C,0.200000*%
G04 APERTURE END LIST*
D10*
%TO.C,U1*%
X173355000Y-42545000D02*
X173355000Y-73025000D01*
X168275000Y-42545000D02*
X173355000Y-42545000D01*
X168275000Y-40005000D02*
X168275000Y-42545000D01*
X160655000Y-40005000D02*
X168275000Y-40005000D01*
X160655000Y-42545000D02*
X160655000Y-40005000D01*
X155575000Y-42545000D02*
X160655000Y-42545000D01*
X155575000Y-73025000D02*
X155575000Y-42545000D01*
X173355000Y-73025000D02*
X155575000Y-73025000D01*
X170815000Y-42545000D02*
X170815000Y-73025000D01*
X170815000Y-42545000D02*
X165735000Y-42545000D01*
X165735000Y-42545000D02*
X165735000Y-40005000D01*
X165735000Y-40005000D02*
X158115000Y-40005000D01*
X158115000Y-40005000D02*
X158115000Y-42545000D01*
X158115000Y-42545000D02*
X153035000Y-42545000D01*
X153035000Y-42545000D02*
X153035000Y-73025000D01*
X153035000Y-73025000D02*
X170815000Y-73025000D01*
D11*
%TO.C,SW9*%
X53975000Y-100965000D02*
X40005000Y-100965000D01*
X40005000Y-100965000D02*
X40005000Y-114935000D01*
X40005000Y-114935000D02*
X53975000Y-114935000D01*
X53975000Y-114935000D02*
X53975000Y-100965000D01*
%TO.C,SW27*%
X130175000Y-62865000D02*
X116205000Y-62865000D01*
X116205000Y-62865000D02*
X116205000Y-76835000D01*
X116205000Y-76835000D02*
X130175000Y-76835000D01*
X130175000Y-76835000D02*
X130175000Y-62865000D01*
%TO.C,SW20*%
X126746921Y-126638827D02*
X113619415Y-121860806D01*
X113619415Y-121860806D02*
X108841393Y-134988312D01*
X108841393Y-134988312D02*
X121968899Y-139766333D01*
X121968899Y-139766333D02*
X126746921Y-126638827D01*
%TO.C,SW30*%
X163455592Y-145124122D02*
X151357217Y-138139122D01*
X151357217Y-138139122D02*
X144372217Y-150237496D01*
X144372217Y-150237496D02*
X156470592Y-157222496D01*
X156470592Y-157222496D02*
X163455592Y-145124122D01*
%TO.C,SW25*%
X145505469Y-135090123D02*
X132844350Y-129186145D01*
X132844350Y-129186145D02*
X126940373Y-141847265D01*
X126940373Y-141847265D02*
X139601492Y-147751242D01*
X139601492Y-147751242D02*
X145505469Y-135090123D01*
%TO.C,SW35*%
X173996592Y-126505922D02*
X161898217Y-119520922D01*
X161898217Y-119520922D02*
X154913217Y-131619296D01*
X154913217Y-131619296D02*
X167011592Y-138604296D01*
X167011592Y-138604296D02*
X173996592Y-126505922D01*
%TO.C,SW34*%
X154522469Y-115709923D02*
X141861350Y-109805945D01*
X141861350Y-109805945D02*
X135957373Y-122467065D01*
X135957373Y-122467065D02*
X148618492Y-128371042D01*
X148618492Y-128371042D02*
X154522469Y-115709923D01*
%TO.C,SW29*%
X130175000Y-100965000D02*
X116205000Y-100965000D01*
X116205000Y-100965000D02*
X116205000Y-114935000D01*
X116205000Y-114935000D02*
X130175000Y-114935000D01*
X130175000Y-114935000D02*
X130175000Y-100965000D01*
%TO.C,SW28*%
X130175000Y-81915000D02*
X116205000Y-81915000D01*
X116205000Y-81915000D02*
X116205000Y-95885000D01*
X116205000Y-95885000D02*
X130175000Y-95885000D01*
X130175000Y-95885000D02*
X130175000Y-81915000D01*
%TO.C,SW33*%
X149225000Y-85725000D02*
X135255000Y-85725000D01*
X135255000Y-85725000D02*
X135255000Y-99695000D01*
X135255000Y-99695000D02*
X149225000Y-99695000D01*
X149225000Y-99695000D02*
X149225000Y-85725000D01*
%TO.C,SW32*%
X149225000Y-66675000D02*
X135255000Y-66675000D01*
X135255000Y-66675000D02*
X135255000Y-80645000D01*
X135255000Y-80645000D02*
X149225000Y-80645000D01*
X149225000Y-80645000D02*
X149225000Y-66675000D01*
%TO.C,SW31*%
X149225000Y-47625000D02*
X135255000Y-47625000D01*
X135255000Y-47625000D02*
X135255000Y-61595000D01*
X135255000Y-61595000D02*
X149225000Y-61595000D01*
X149225000Y-61595000D02*
X149225000Y-47625000D01*
%TO.C,SW26*%
X130175000Y-43815000D02*
X116205000Y-43815000D01*
X116205000Y-43815000D02*
X116205000Y-57785000D01*
X116205000Y-57785000D02*
X130175000Y-57785000D01*
X130175000Y-57785000D02*
X130175000Y-43815000D01*
%TO.C,SW21*%
X111125000Y-40005000D02*
X97155000Y-40005000D01*
X97155000Y-40005000D02*
X97155000Y-53975000D01*
X97155000Y-53975000D02*
X111125000Y-53975000D01*
X111125000Y-53975000D02*
X111125000Y-40005000D01*
%TO.C,SW22*%
X111125000Y-59055000D02*
X97155000Y-59055000D01*
X97155000Y-59055000D02*
X97155000Y-73025000D01*
X97155000Y-73025000D02*
X111125000Y-73025000D01*
X111125000Y-73025000D02*
X111125000Y-59055000D01*
%TO.C,SW23*%
X111125000Y-78105000D02*
X97155000Y-78105000D01*
X97155000Y-78105000D02*
X97155000Y-92075000D01*
X97155000Y-92075000D02*
X111125000Y-92075000D01*
X111125000Y-92075000D02*
X111125000Y-78105000D01*
%TO.C,SW24*%
X111125000Y-97155000D02*
X97155000Y-97155000D01*
X97155000Y-97155000D02*
X97155000Y-111125000D01*
X97155000Y-111125000D02*
X111125000Y-111125000D01*
X111125000Y-111125000D02*
X111125000Y-97155000D01*
%TO.C,SW19*%
X92075000Y-93345000D02*
X78105000Y-93345000D01*
X78105000Y-93345000D02*
X78105000Y-107315000D01*
X78105000Y-107315000D02*
X92075000Y-107315000D01*
X92075000Y-107315000D02*
X92075000Y-93345000D01*
%TO.C,SW18*%
X92075000Y-74295000D02*
X78105000Y-74295000D01*
X78105000Y-74295000D02*
X78105000Y-88265000D01*
X78105000Y-88265000D02*
X92075000Y-88265000D01*
X92075000Y-88265000D02*
X92075000Y-74295000D01*
%TO.C,SW17*%
X92075000Y-55245000D02*
X78105000Y-55245000D01*
X78105000Y-55245000D02*
X78105000Y-69215000D01*
X78105000Y-69215000D02*
X92075000Y-69215000D01*
X92075000Y-69215000D02*
X92075000Y-55245000D01*
%TO.C,SW16*%
X92075000Y-36195000D02*
X78105000Y-36195000D01*
X78105000Y-36195000D02*
X78105000Y-50165000D01*
X78105000Y-50165000D02*
X92075000Y-50165000D01*
X92075000Y-50165000D02*
X92075000Y-36195000D01*
%TO.C,SW11*%
X73025000Y-40005000D02*
X59055000Y-40005000D01*
X59055000Y-40005000D02*
X59055000Y-53975000D01*
X59055000Y-53975000D02*
X73025000Y-53975000D01*
X73025000Y-53975000D02*
X73025000Y-40005000D01*
%TO.C,SW12*%
X73025000Y-59055000D02*
X59055000Y-59055000D01*
X59055000Y-59055000D02*
X59055000Y-73025000D01*
X59055000Y-73025000D02*
X73025000Y-73025000D01*
X73025000Y-73025000D02*
X73025000Y-59055000D01*
%TO.C,SW13*%
X73025000Y-78105000D02*
X59055000Y-78105000D01*
X59055000Y-78105000D02*
X59055000Y-92075000D01*
X59055000Y-92075000D02*
X73025000Y-92075000D01*
X73025000Y-92075000D02*
X73025000Y-78105000D01*
%TO.C,SW14*%
X73025000Y-97155000D02*
X59055000Y-97155000D01*
X59055000Y-97155000D02*
X59055000Y-111125000D01*
X59055000Y-111125000D02*
X73025000Y-111125000D01*
X73025000Y-111125000D02*
X73025000Y-97155000D01*
%TO.C,SW15*%
X73025000Y-116205000D02*
X59055000Y-116205000D01*
X59055000Y-116205000D02*
X59055000Y-130175000D01*
X59055000Y-130175000D02*
X73025000Y-130175000D01*
X73025000Y-130175000D02*
X73025000Y-116205000D01*
%TO.C,SW10*%
X53975000Y-120015000D02*
X40005000Y-120015000D01*
X40005000Y-120015000D02*
X40005000Y-133985000D01*
X40005000Y-133985000D02*
X53975000Y-133985000D01*
X53975000Y-133985000D02*
X53975000Y-120015000D01*
%TO.C,SW5*%
X34925000Y-120015000D02*
X20955000Y-120015000D01*
X20955000Y-120015000D02*
X20955000Y-133985000D01*
X20955000Y-133985000D02*
X34925000Y-133985000D01*
X34925000Y-133985000D02*
X34925000Y-120015000D01*
%TO.C,SW4*%
X34925000Y-100965000D02*
X20955000Y-100965000D01*
X20955000Y-100965000D02*
X20955000Y-114935000D01*
X20955000Y-114935000D02*
X34925000Y-114935000D01*
X34925000Y-114935000D02*
X34925000Y-100965000D01*
%TO.C,SW8*%
X53975000Y-81915000D02*
X40005000Y-81915000D01*
X40005000Y-81915000D02*
X40005000Y-95885000D01*
X40005000Y-95885000D02*
X53975000Y-95885000D01*
X53975000Y-95885000D02*
X53975000Y-81915000D01*
%TO.C,SW3*%
X34925000Y-81915000D02*
X20955000Y-81915000D01*
X20955000Y-81915000D02*
X20955000Y-95885000D01*
X20955000Y-95885000D02*
X34925000Y-95885000D01*
X34925000Y-95885000D02*
X34925000Y-81915000D01*
%TO.C,SW2*%
X34925000Y-62865000D02*
X20955000Y-62865000D01*
X20955000Y-62865000D02*
X20955000Y-76835000D01*
X20955000Y-76835000D02*
X34925000Y-76835000D01*
X34925000Y-76835000D02*
X34925000Y-62865000D01*
%TO.C,SW7*%
X53975000Y-62865000D02*
X40005000Y-62865000D01*
X40005000Y-62865000D02*
X40005000Y-76835000D01*
X40005000Y-76835000D02*
X53975000Y-76835000D01*
X53975000Y-76835000D02*
X53975000Y-62865000D01*
%TO.C,SW6*%
X53975000Y-43815000D02*
X40005000Y-43815000D01*
X40005000Y-43815000D02*
X40005000Y-57785000D01*
X40005000Y-57785000D02*
X53975000Y-57785000D01*
X53975000Y-57785000D02*
X53975000Y-43815000D01*
%TO.C,SW1*%
X34925000Y-43815000D02*
X20955000Y-43815000D01*
X20955000Y-43815000D02*
X20955000Y-57785000D01*
X20955000Y-57785000D02*
X34925000Y-57785000D01*
X34925000Y-57785000D02*
X34925000Y-43815000D01*
D10*
%TO.C,J1*%
X176960000Y-93435000D02*
X176960000Y-98435000D01*
X176960000Y-98435000D02*
X174960000Y-98435000D01*
X176960000Y-93435000D02*
X174960000Y-93435000D01*
X162860000Y-92935000D02*
X162860000Y-98935000D01*
X162860000Y-98935000D02*
X174960000Y-98935000D01*
X174960000Y-98935000D02*
X174960000Y-92935000D01*
X174960000Y-92935000D02*
X162860000Y-92935000D01*
D12*
%TO.C,D1*%
X38030000Y-53165000D02*
X35630000Y-53165000D01*
X38030000Y-53340000D02*
X35630000Y-53340000D01*
X38030000Y-53515000D02*
X35630000Y-53515000D01*
X35630000Y-53915000D02*
X38030000Y-53915000D01*
X38030000Y-53690000D02*
X35630000Y-53690000D01*
X38030000Y-53815000D02*
X35630000Y-53815000D01*
X38030000Y-53890000D02*
X38030000Y-48090000D01*
X38030000Y-48090000D02*
X35630000Y-48090000D01*
X35630000Y-48090000D02*
X35630000Y-53890000D01*
%TO.C,D2*%
X38030000Y-72215000D02*
X35630000Y-72215000D01*
X38030000Y-72390000D02*
X35630000Y-72390000D01*
X38030000Y-72565000D02*
X35630000Y-72565000D01*
X35630000Y-72965000D02*
X38030000Y-72965000D01*
X38030000Y-72740000D02*
X35630000Y-72740000D01*
X38030000Y-72865000D02*
X35630000Y-72865000D01*
X38030000Y-72940000D02*
X38030000Y-67140000D01*
X38030000Y-67140000D02*
X35630000Y-67140000D01*
X35630000Y-67140000D02*
X35630000Y-72940000D01*
%TO.C,D3*%
X35630000Y-86010000D02*
X35630000Y-91810000D01*
X38030000Y-86010000D02*
X35630000Y-86010000D01*
X38030000Y-91810000D02*
X38030000Y-86010000D01*
X38030000Y-91735000D02*
X35630000Y-91735000D01*
X38030000Y-91610000D02*
X35630000Y-91610000D01*
X35630000Y-91835000D02*
X38030000Y-91835000D01*
X38030000Y-91435000D02*
X35630000Y-91435000D01*
X38030000Y-91260000D02*
X35630000Y-91260000D01*
X38030000Y-91085000D02*
X35630000Y-91085000D01*
%TO.C,D4*%
X38030000Y-110315000D02*
X35630000Y-110315000D01*
X38030000Y-110490000D02*
X35630000Y-110490000D01*
X38030000Y-110665000D02*
X35630000Y-110665000D01*
X35630000Y-111065000D02*
X38030000Y-111065000D01*
X38030000Y-110840000D02*
X35630000Y-110840000D01*
X38030000Y-110965000D02*
X35630000Y-110965000D01*
X38030000Y-111040000D02*
X38030000Y-105240000D01*
X38030000Y-105240000D02*
X35630000Y-105240000D01*
X35630000Y-105240000D02*
X35630000Y-111040000D01*
%TO.C,D5*%
X38030000Y-129365000D02*
X35630000Y-129365000D01*
X38030000Y-129540000D02*
X35630000Y-129540000D01*
X38030000Y-129715000D02*
X35630000Y-129715000D01*
X35630000Y-130115000D02*
X38030000Y-130115000D01*
X38030000Y-129890000D02*
X35630000Y-129890000D01*
X38030000Y-130015000D02*
X35630000Y-130015000D01*
X38030000Y-130090000D02*
X38030000Y-124290000D01*
X38030000Y-124290000D02*
X35630000Y-124290000D01*
X35630000Y-124290000D02*
X35630000Y-130090000D01*
%TO.C,D6*%
X57080000Y-53165000D02*
X54680000Y-53165000D01*
X57080000Y-53340000D02*
X54680000Y-53340000D01*
X57080000Y-53515000D02*
X54680000Y-53515000D01*
X54680000Y-53915000D02*
X57080000Y-53915000D01*
X57080000Y-53690000D02*
X54680000Y-53690000D01*
X57080000Y-53815000D02*
X54680000Y-53815000D01*
X57080000Y-53890000D02*
X57080000Y-48090000D01*
X57080000Y-48090000D02*
X54680000Y-48090000D01*
X54680000Y-48090000D02*
X54680000Y-53890000D01*
%TO.C,D7*%
X57080000Y-72430000D02*
X54680000Y-72430000D01*
X57080000Y-72605000D02*
X54680000Y-72605000D01*
X57080000Y-72780000D02*
X54680000Y-72780000D01*
X54680000Y-73180000D02*
X57080000Y-73180000D01*
X57080000Y-72955000D02*
X54680000Y-72955000D01*
X57080000Y-73080000D02*
X54680000Y-73080000D01*
X57080000Y-73155000D02*
X57080000Y-67355000D01*
X57080000Y-67355000D02*
X54680000Y-67355000D01*
X54680000Y-67355000D02*
X54680000Y-73155000D01*
%TO.C,D8*%
X57080000Y-91265000D02*
X54680000Y-91265000D01*
X57080000Y-91440000D02*
X54680000Y-91440000D01*
X57080000Y-91615000D02*
X54680000Y-91615000D01*
X54680000Y-92015000D02*
X57080000Y-92015000D01*
X57080000Y-91790000D02*
X54680000Y-91790000D01*
X57080000Y-91915000D02*
X54680000Y-91915000D01*
X57080000Y-91990000D02*
X57080000Y-86190000D01*
X57080000Y-86190000D02*
X54680000Y-86190000D01*
X54680000Y-86190000D02*
X54680000Y-91990000D01*
%TO.C,D9*%
X54680000Y-105240000D02*
X54680000Y-111040000D01*
X57080000Y-105240000D02*
X54680000Y-105240000D01*
X57080000Y-111040000D02*
X57080000Y-105240000D01*
X57080000Y-110965000D02*
X54680000Y-110965000D01*
X57080000Y-110840000D02*
X54680000Y-110840000D01*
X54680000Y-111065000D02*
X57080000Y-111065000D01*
X57080000Y-110665000D02*
X54680000Y-110665000D01*
X57080000Y-110490000D02*
X54680000Y-110490000D01*
X57080000Y-110315000D02*
X54680000Y-110315000D01*
%TO.C,D10*%
X54680000Y-124188400D02*
X54680000Y-129988400D01*
X57080000Y-124188400D02*
X54680000Y-124188400D01*
X57080000Y-129988400D02*
X57080000Y-124188400D01*
X57080000Y-129913400D02*
X54680000Y-129913400D01*
X57080000Y-129788400D02*
X54680000Y-129788400D01*
X54680000Y-130013400D02*
X57080000Y-130013400D01*
X57080000Y-129613400D02*
X54680000Y-129613400D01*
X57080000Y-129438400D02*
X54680000Y-129438400D01*
X57080000Y-129263400D02*
X54680000Y-129263400D01*
%TO.C,D11*%
X73730000Y-44280000D02*
X73730000Y-50080000D01*
X76130000Y-44280000D02*
X73730000Y-44280000D01*
X76130000Y-50080000D02*
X76130000Y-44280000D01*
X76130000Y-50005000D02*
X73730000Y-50005000D01*
X76130000Y-49880000D02*
X73730000Y-49880000D01*
X73730000Y-50105000D02*
X76130000Y-50105000D01*
X76130000Y-49705000D02*
X73730000Y-49705000D01*
X76130000Y-49530000D02*
X73730000Y-49530000D01*
X76130000Y-49355000D02*
X73730000Y-49355000D01*
%TO.C,D12*%
X76130000Y-67770000D02*
X73730000Y-67770000D01*
X76130000Y-67945000D02*
X73730000Y-67945000D01*
X76130000Y-68120000D02*
X73730000Y-68120000D01*
X73730000Y-68520000D02*
X76130000Y-68520000D01*
X76130000Y-68295000D02*
X73730000Y-68295000D01*
X76130000Y-68420000D02*
X73730000Y-68420000D01*
X76130000Y-68495000D02*
X76130000Y-62695000D01*
X76130000Y-62695000D02*
X73730000Y-62695000D01*
X73730000Y-62695000D02*
X73730000Y-68495000D01*
%TO.C,D13*%
X76130000Y-87372600D02*
X73730000Y-87372600D01*
X76130000Y-87547600D02*
X73730000Y-87547600D01*
X76130000Y-87722600D02*
X73730000Y-87722600D01*
X73730000Y-88122600D02*
X76130000Y-88122600D01*
X76130000Y-87897600D02*
X73730000Y-87897600D01*
X76130000Y-88022600D02*
X73730000Y-88022600D01*
X76130000Y-88097600D02*
X76130000Y-82297600D01*
X76130000Y-82297600D02*
X73730000Y-82297600D01*
X73730000Y-82297600D02*
X73730000Y-88097600D01*
%TO.C,D14*%
X73730000Y-101430000D02*
X73730000Y-107230000D01*
X76130000Y-101430000D02*
X73730000Y-101430000D01*
X76130000Y-107230000D02*
X76130000Y-101430000D01*
X76130000Y-107155000D02*
X73730000Y-107155000D01*
X76130000Y-107030000D02*
X73730000Y-107030000D01*
X73730000Y-107255000D02*
X76130000Y-107255000D01*
X76130000Y-106855000D02*
X73730000Y-106855000D01*
X76130000Y-106680000D02*
X73730000Y-106680000D01*
X76130000Y-106505000D02*
X73730000Y-106505000D01*
%TO.C,D15*%
X73730000Y-120550000D02*
X73730000Y-126350000D01*
X76130000Y-120550000D02*
X73730000Y-120550000D01*
X76130000Y-126350000D02*
X76130000Y-120550000D01*
X76130000Y-126275000D02*
X73730000Y-126275000D01*
X76130000Y-126150000D02*
X73730000Y-126150000D01*
X73730000Y-126375000D02*
X76130000Y-126375000D01*
X76130000Y-125975000D02*
X73730000Y-125975000D01*
X76130000Y-125800000D02*
X73730000Y-125800000D01*
X76130000Y-125625000D02*
X73730000Y-125625000D01*
%TO.C,D16*%
X95180000Y-45545000D02*
X92780000Y-45545000D01*
X95180000Y-45720000D02*
X92780000Y-45720000D01*
X95180000Y-45895000D02*
X92780000Y-45895000D01*
X92780000Y-46295000D02*
X95180000Y-46295000D01*
X95180000Y-46070000D02*
X92780000Y-46070000D01*
X95180000Y-46195000D02*
X92780000Y-46195000D01*
X95180000Y-46270000D02*
X95180000Y-40470000D01*
X95180000Y-40470000D02*
X92780000Y-40470000D01*
X92780000Y-40470000D02*
X92780000Y-46270000D01*
%TO.C,D17*%
X92780000Y-59520000D02*
X92780000Y-65320000D01*
X95180000Y-59520000D02*
X92780000Y-59520000D01*
X95180000Y-65320000D02*
X95180000Y-59520000D01*
X95180000Y-65245000D02*
X92780000Y-65245000D01*
X95180000Y-65120000D02*
X92780000Y-65120000D01*
X92780000Y-65345000D02*
X95180000Y-65345000D01*
X95180000Y-64945000D02*
X92780000Y-64945000D01*
X95180000Y-64770000D02*
X92780000Y-64770000D01*
X95180000Y-64595000D02*
X92780000Y-64595000D01*
%TO.C,D18*%
X92780000Y-78570000D02*
X92780000Y-84370000D01*
X95180000Y-78570000D02*
X92780000Y-78570000D01*
X95180000Y-84370000D02*
X95180000Y-78570000D01*
X95180000Y-84295000D02*
X92780000Y-84295000D01*
X95180000Y-84170000D02*
X92780000Y-84170000D01*
X92780000Y-84395000D02*
X95180000Y-84395000D01*
X95180000Y-83995000D02*
X92780000Y-83995000D01*
X95180000Y-83820000D02*
X92780000Y-83820000D01*
X95180000Y-83645000D02*
X92780000Y-83645000D01*
%TO.C,D19*%
X95180000Y-102695000D02*
X92780000Y-102695000D01*
X95180000Y-102870000D02*
X92780000Y-102870000D01*
X95180000Y-103045000D02*
X92780000Y-103045000D01*
X92780000Y-103445000D02*
X95180000Y-103445000D01*
X95180000Y-103220000D02*
X92780000Y-103220000D01*
X95180000Y-103345000D02*
X92780000Y-103345000D01*
X95180000Y-103420000D02*
X95180000Y-97620000D01*
X95180000Y-97620000D02*
X92780000Y-97620000D01*
X92780000Y-97620000D02*
X92780000Y-103420000D01*
%TO.C,D20*%
X126541571Y-130305606D02*
X124557854Y-135755824D01*
X128796834Y-131126455D02*
X126541571Y-130305606D01*
X126813117Y-136576672D02*
X128796834Y-131126455D01*
X126838768Y-136506195D02*
X124583506Y-135685347D01*
X126881521Y-136388734D02*
X124626258Y-135567885D01*
X124549304Y-135779316D02*
X126804566Y-136600164D01*
X126941374Y-136224287D02*
X124686112Y-135403439D01*
X127001228Y-136059841D02*
X124745966Y-135238993D01*
X127061081Y-135895395D02*
X124805819Y-135074547D01*
%TO.C,D21*%
X111830000Y-44280000D02*
X111830000Y-50080000D01*
X114230000Y-44280000D02*
X111830000Y-44280000D01*
X114230000Y-50080000D02*
X114230000Y-44280000D01*
X114230000Y-50005000D02*
X111830000Y-50005000D01*
X114230000Y-49880000D02*
X111830000Y-49880000D01*
X111830000Y-50105000D02*
X114230000Y-50105000D01*
X114230000Y-49705000D02*
X111830000Y-49705000D01*
X114230000Y-49530000D02*
X111830000Y-49530000D01*
X114230000Y-49355000D02*
X111830000Y-49355000D01*
%TO.C,D22*%
X111830000Y-63330000D02*
X111830000Y-69130000D01*
X114230000Y-63330000D02*
X111830000Y-63330000D01*
X114230000Y-69130000D02*
X114230000Y-63330000D01*
X114230000Y-69055000D02*
X111830000Y-69055000D01*
X114230000Y-68930000D02*
X111830000Y-68930000D01*
X111830000Y-69155000D02*
X114230000Y-69155000D01*
X114230000Y-68755000D02*
X111830000Y-68755000D01*
X114230000Y-68580000D02*
X111830000Y-68580000D01*
X114230000Y-68405000D02*
X111830000Y-68405000D01*
%TO.C,D23*%
X111830000Y-82380000D02*
X111830000Y-88180000D01*
X114230000Y-82380000D02*
X111830000Y-82380000D01*
X114230000Y-88180000D02*
X114230000Y-82380000D01*
X114230000Y-88105000D02*
X111830000Y-88105000D01*
X114230000Y-87980000D02*
X111830000Y-87980000D01*
X111830000Y-88205000D02*
X114230000Y-88205000D01*
X114230000Y-87805000D02*
X111830000Y-87805000D01*
X114230000Y-87630000D02*
X111830000Y-87630000D01*
X114230000Y-87455000D02*
X111830000Y-87455000D01*
%TO.C,D24*%
X111830000Y-101500000D02*
X111830000Y-107300000D01*
X114230000Y-101500000D02*
X111830000Y-101500000D01*
X114230000Y-107300000D02*
X114230000Y-101500000D01*
X114230000Y-107225000D02*
X111830000Y-107225000D01*
X114230000Y-107100000D02*
X111830000Y-107100000D01*
X111830000Y-107325000D02*
X114230000Y-107325000D01*
X114230000Y-106925000D02*
X111830000Y-106925000D01*
X114230000Y-106750000D02*
X111830000Y-106750000D01*
X114230000Y-106575000D02*
X111830000Y-106575000D01*
%TO.C,D25*%
X145035902Y-144711392D02*
X142860763Y-143697108D01*
X144961944Y-144869996D02*
X142786805Y-143855712D01*
X144887985Y-145028600D02*
X142712847Y-144014316D01*
X142543799Y-144376839D02*
X144718938Y-145391123D01*
X144814027Y-145187204D02*
X142638889Y-144172920D01*
X144761200Y-145300492D02*
X142586061Y-144286208D01*
X144729504Y-145368465D02*
X147180689Y-140111880D01*
X147180689Y-140111880D02*
X145005551Y-139097596D01*
X145005551Y-139097596D02*
X142554365Y-144354181D01*
%TO.C,D26*%
X133280000Y-53165000D02*
X130880000Y-53165000D01*
X133280000Y-53340000D02*
X130880000Y-53340000D01*
X133280000Y-53515000D02*
X130880000Y-53515000D01*
X130880000Y-53915000D02*
X133280000Y-53915000D01*
X133280000Y-53690000D02*
X130880000Y-53690000D01*
X133280000Y-53815000D02*
X130880000Y-53815000D01*
X133280000Y-53890000D02*
X133280000Y-48090000D01*
X133280000Y-48090000D02*
X130880000Y-48090000D01*
X130880000Y-48090000D02*
X130880000Y-53890000D01*
%TO.C,D27*%
X130880000Y-67140000D02*
X130880000Y-72940000D01*
X133280000Y-67140000D02*
X130880000Y-67140000D01*
X133280000Y-72940000D02*
X133280000Y-67140000D01*
X133280000Y-72865000D02*
X130880000Y-72865000D01*
X133280000Y-72740000D02*
X130880000Y-72740000D01*
X130880000Y-72965000D02*
X133280000Y-72965000D01*
X133280000Y-72565000D02*
X130880000Y-72565000D01*
X133280000Y-72390000D02*
X130880000Y-72390000D01*
X133280000Y-72215000D02*
X130880000Y-72215000D01*
%TO.C,D28*%
X133280000Y-91265000D02*
X130880000Y-91265000D01*
X133280000Y-91440000D02*
X130880000Y-91440000D01*
X133280000Y-91615000D02*
X130880000Y-91615000D01*
X130880000Y-92015000D02*
X133280000Y-92015000D01*
X133280000Y-91790000D02*
X130880000Y-91790000D01*
X133280000Y-91915000D02*
X130880000Y-91915000D01*
X133280000Y-91990000D02*
X133280000Y-86190000D01*
X133280000Y-86190000D02*
X130880000Y-86190000D01*
X130880000Y-86190000D02*
X130880000Y-91990000D01*
%TO.C,D29*%
X133280000Y-110315000D02*
X130880000Y-110315000D01*
X133280000Y-110490000D02*
X130880000Y-110490000D01*
X133280000Y-110665000D02*
X130880000Y-110665000D01*
X130880000Y-111065000D02*
X133280000Y-111065000D01*
X133280000Y-110840000D02*
X130880000Y-110840000D01*
X133280000Y-110965000D02*
X130880000Y-110965000D01*
X133280000Y-111040000D02*
X133280000Y-105240000D01*
X133280000Y-105240000D02*
X130880000Y-105240000D01*
X130880000Y-105240000D02*
X130880000Y-111040000D01*
%TO.C,D30*%
X162840770Y-148538398D02*
X159940770Y-153561345D01*
X164919230Y-149738398D02*
X162840770Y-148538398D01*
X162019230Y-154761345D02*
X164919230Y-149738398D01*
X162056730Y-154696393D02*
X159978270Y-153496393D01*
X162119230Y-154588140D02*
X160040770Y-153388140D01*
X159928270Y-153582996D02*
X162006730Y-154782996D01*
X162206730Y-154436586D02*
X160128270Y-153236586D01*
X162294230Y-154285031D02*
X160215770Y-153085031D01*
X162381730Y-154133477D02*
X160303270Y-152933477D01*
%TO.C,D31*%
X152330000Y-56975000D02*
X149930000Y-56975000D01*
X152330000Y-57150000D02*
X149930000Y-57150000D01*
X152330000Y-57325000D02*
X149930000Y-57325000D01*
X149930000Y-57725000D02*
X152330000Y-57725000D01*
X152330000Y-57500000D02*
X149930000Y-57500000D01*
X152330000Y-57625000D02*
X149930000Y-57625000D01*
X152330000Y-57700000D02*
X152330000Y-51900000D01*
X152330000Y-51900000D02*
X149930000Y-51900000D01*
X149930000Y-51900000D02*
X149930000Y-57700000D01*
%TO.C,D32*%
X152330000Y-75845000D02*
X149930000Y-75845000D01*
X152330000Y-76020000D02*
X149930000Y-76020000D01*
X152330000Y-76195000D02*
X149930000Y-76195000D01*
X149930000Y-76595000D02*
X152330000Y-76595000D01*
X152330000Y-76370000D02*
X149930000Y-76370000D01*
X152330000Y-76495000D02*
X149930000Y-76495000D01*
X152330000Y-76570000D02*
X152330000Y-70770000D01*
X152330000Y-70770000D02*
X149930000Y-70770000D01*
X149930000Y-70770000D02*
X149930000Y-76570000D01*
%TO.C,D33*%
X152330000Y-95075000D02*
X149930000Y-95075000D01*
X152330000Y-95250000D02*
X149930000Y-95250000D01*
X152330000Y-95425000D02*
X149930000Y-95425000D01*
X149930000Y-95825000D02*
X152330000Y-95825000D01*
X152330000Y-95600000D02*
X149930000Y-95600000D01*
X152330000Y-95725000D02*
X149930000Y-95725000D01*
X152330000Y-95800000D02*
X152330000Y-90000000D01*
X152330000Y-90000000D02*
X149930000Y-90000000D01*
X149930000Y-90000000D02*
X149930000Y-95800000D01*
%TO.C,D34*%
X153894693Y-120052227D02*
X151443507Y-125308812D01*
X156069831Y-121066511D02*
X153894693Y-120052227D01*
X153618646Y-126323096D02*
X156069831Y-121066511D01*
X153650342Y-126255123D02*
X151475203Y-125240839D01*
X153703169Y-126141835D02*
X151528031Y-125127551D01*
X151432941Y-125331470D02*
X153608080Y-126345754D01*
X153777127Y-125983231D02*
X151601989Y-124968947D01*
X153851086Y-125824627D02*
X151675947Y-124810343D01*
X153925044Y-125666023D02*
X151749905Y-124651739D01*
%TO.C,D35*%
X173000770Y-130758398D02*
X170100770Y-135781345D01*
X175079230Y-131958398D02*
X173000770Y-130758398D01*
X172179230Y-136981345D02*
X175079230Y-131958398D01*
X172216730Y-136916393D02*
X170138270Y-135716393D01*
X172279230Y-136808140D02*
X170200770Y-135608140D01*
X170088270Y-135802996D02*
X172166730Y-137002996D01*
X172366730Y-136656586D02*
X170288270Y-135456586D01*
X172454230Y-136505031D02*
X170375770Y-135305031D01*
X172541730Y-136353477D02*
X170463270Y-135153477D01*
%TO.C,SW9*%
D10*
X48323333Y-100480761D02*
X48180476Y-100528380D01*
X47942380Y-100528380D01*
X47847142Y-100480761D01*
X47799523Y-100433142D01*
X47751904Y-100337904D01*
X47751904Y-100242666D01*
X47799523Y-100147428D01*
X47847142Y-100099809D01*
X47942380Y-100052190D01*
X48132857Y-100004571D01*
X48228095Y-99956952D01*
X48275714Y-99909333D01*
X48323333Y-99814095D01*
X48323333Y-99718857D01*
X48275714Y-99623619D01*
X48228095Y-99576000D01*
X48132857Y-99528380D01*
X47894761Y-99528380D01*
X47751904Y-99576000D01*
X47418571Y-99528380D02*
X47180476Y-100528380D01*
X46990000Y-99814095D01*
X46799523Y-100528380D01*
X46561428Y-99528380D01*
X46132857Y-100528380D02*
X45942380Y-100528380D01*
X45847142Y-100480761D01*
X45799523Y-100433142D01*
X45704285Y-100290285D01*
X45656666Y-100099809D01*
X45656666Y-99718857D01*
X45704285Y-99623619D01*
X45751904Y-99576000D01*
X45847142Y-99528380D01*
X46037619Y-99528380D01*
X46132857Y-99576000D01*
X46180476Y-99623619D01*
X46228095Y-99718857D01*
X46228095Y-99956952D01*
X46180476Y-100052190D01*
X46132857Y-100099809D01*
X46037619Y-100147428D01*
X45847142Y-100147428D01*
X45751904Y-100099809D01*
X45704285Y-100052190D01*
X45656666Y-99956952D01*
%TO.C,SW27*%
X124999523Y-62380761D02*
X124856666Y-62428380D01*
X124618571Y-62428380D01*
X124523333Y-62380761D01*
X124475714Y-62333142D01*
X124428095Y-62237904D01*
X124428095Y-62142666D01*
X124475714Y-62047428D01*
X124523333Y-61999809D01*
X124618571Y-61952190D01*
X124809047Y-61904571D01*
X124904285Y-61856952D01*
X124951904Y-61809333D01*
X124999523Y-61714095D01*
X124999523Y-61618857D01*
X124951904Y-61523619D01*
X124904285Y-61476000D01*
X124809047Y-61428380D01*
X124570952Y-61428380D01*
X124428095Y-61476000D01*
X124094761Y-61428380D02*
X123856666Y-62428380D01*
X123666190Y-61714095D01*
X123475714Y-62428380D01*
X123237619Y-61428380D01*
X122904285Y-61523619D02*
X122856666Y-61476000D01*
X122761428Y-61428380D01*
X122523333Y-61428380D01*
X122428095Y-61476000D01*
X122380476Y-61523619D01*
X122332857Y-61618857D01*
X122332857Y-61714095D01*
X122380476Y-61856952D01*
X122951904Y-62428380D01*
X122332857Y-62428380D01*
X121999523Y-61428380D02*
X121332857Y-61428380D01*
X121761428Y-62428380D01*
%TO.C,SW20*%
X122049183Y-124413675D02*
X121898654Y-124409562D01*
X121674918Y-124328129D01*
X121601710Y-124250808D01*
X121573250Y-124189774D01*
X121561076Y-124083993D01*
X121593649Y-123994498D01*
X121670970Y-123921291D01*
X121732004Y-123892830D01*
X121837785Y-123880656D01*
X122033061Y-123901055D01*
X122138842Y-123888882D01*
X122199876Y-123860421D01*
X122277196Y-123787213D01*
X122309770Y-123697719D01*
X122297596Y-123591937D01*
X122269135Y-123530903D01*
X122195927Y-123453583D01*
X121972191Y-123372149D01*
X121821663Y-123368037D01*
X121524718Y-123209283D02*
X120958962Y-124067542D01*
X121024273Y-123331186D01*
X120600984Y-123937249D01*
X120719268Y-122916123D01*
X120373463Y-122891610D02*
X120345003Y-122830576D01*
X120271795Y-122753256D01*
X120048058Y-122671822D01*
X119942277Y-122683996D01*
X119881243Y-122712457D01*
X119803923Y-122785665D01*
X119771349Y-122875159D01*
X119767237Y-123025688D01*
X120108764Y-123758095D01*
X119527049Y-123546368D01*
X119287355Y-122394949D02*
X119197860Y-122362376D01*
X119092079Y-122374550D01*
X119031045Y-122403010D01*
X118953725Y-122476218D01*
X118843831Y-122638920D01*
X118762397Y-122862657D01*
X118741998Y-123057933D01*
X118754172Y-123163714D01*
X118782632Y-123224748D01*
X118855840Y-123302068D01*
X118945335Y-123334642D01*
X119051116Y-123322468D01*
X119112150Y-123294007D01*
X119189471Y-123220799D01*
X119299365Y-123058097D01*
X119380798Y-122834361D01*
X119401197Y-122639085D01*
X119389023Y-122533304D01*
X119360563Y-122472270D01*
X119287355Y-122394949D01*
%TO.C,SW30*%
X159215617Y-142117020D02*
X159068090Y-142086831D01*
X158861893Y-141967784D01*
X158803224Y-141878925D01*
X158785794Y-141813876D01*
X158792174Y-141707588D01*
X158839793Y-141625110D01*
X158928651Y-141566441D01*
X158993700Y-141549011D01*
X159099988Y-141555391D01*
X159288755Y-141609389D01*
X159395043Y-141615769D01*
X159460092Y-141598339D01*
X159548950Y-141539670D01*
X159596570Y-141457192D01*
X159602949Y-141350903D01*
X159585519Y-141285855D01*
X159526850Y-141196996D01*
X159320654Y-141077949D01*
X159173126Y-141047759D01*
X158908261Y-140839853D02*
X158202064Y-141586831D01*
X158394250Y-140873004D01*
X157872150Y-141396355D01*
X158165953Y-140411282D01*
X157918517Y-140268425D02*
X157382407Y-139958901D01*
X157480605Y-140455482D01*
X157356888Y-140384054D01*
X157250599Y-140377674D01*
X157185551Y-140395104D01*
X157096692Y-140453773D01*
X156977645Y-140659969D01*
X156971265Y-140766257D01*
X156988695Y-140831306D01*
X157047364Y-140920165D01*
X157294800Y-141063022D01*
X157401088Y-141069401D01*
X157466137Y-141051972D01*
X156846296Y-139649377D02*
X156763817Y-139601758D01*
X156657529Y-139595378D01*
X156592480Y-139612808D01*
X156503622Y-139671477D01*
X156367144Y-139812625D01*
X156248097Y-140018822D01*
X156194098Y-140207588D01*
X156187718Y-140313876D01*
X156205148Y-140378925D01*
X156263817Y-140467784D01*
X156346296Y-140515403D01*
X156452584Y-140521782D01*
X156517633Y-140504353D01*
X156606491Y-140445684D01*
X156742968Y-140304536D01*
X156862016Y-140098339D01*
X156916015Y-139909573D01*
X156922394Y-139803284D01*
X156904965Y-139738236D01*
X156846296Y-139649377D01*
%TO.C,SW25*%
X141019542Y-132464002D02*
X140869945Y-132446786D01*
X140654157Y-132346162D01*
X140587967Y-132262755D01*
X140564934Y-132199473D01*
X140562026Y-132093033D01*
X140602275Y-132006718D01*
X140685682Y-131940528D01*
X140748965Y-131917495D01*
X140855404Y-131914587D01*
X141048159Y-131951928D01*
X141154599Y-131949020D01*
X141217881Y-131925987D01*
X141301288Y-131859797D01*
X141341537Y-131773482D01*
X141338629Y-131667042D01*
X141315596Y-131603760D01*
X141249406Y-131520353D01*
X141033618Y-131419730D01*
X140884021Y-131402513D01*
X140602043Y-131218483D02*
X139963637Y-132024167D01*
X140092877Y-131296306D01*
X139618377Y-131863170D01*
X139825208Y-130856239D01*
X139482856Y-130801681D02*
X139459823Y-130738399D01*
X139393633Y-130654992D01*
X139177845Y-130554369D01*
X139071405Y-130557277D01*
X139008123Y-130580310D01*
X138924716Y-130646500D01*
X138884467Y-130732815D01*
X138867250Y-130882412D01*
X139143644Y-131641798D01*
X138582597Y-131380178D01*
X138185222Y-130091501D02*
X138616797Y-130292748D01*
X138458708Y-130744448D01*
X138435675Y-130681165D01*
X138369485Y-130597759D01*
X138153697Y-130497135D01*
X138047258Y-130500043D01*
X137983976Y-130523076D01*
X137900569Y-130589266D01*
X137799945Y-130805054D01*
X137802853Y-130911494D01*
X137825886Y-130974776D01*
X137892077Y-131058183D01*
X138107864Y-131158806D01*
X138214304Y-131155898D01*
X138277586Y-131132865D01*
%TO.C,SW35*%
X169756617Y-123498820D02*
X169609090Y-123468631D01*
X169402893Y-123349584D01*
X169344224Y-123260725D01*
X169326794Y-123195676D01*
X169333174Y-123089388D01*
X169380793Y-123006910D01*
X169469651Y-122948241D01*
X169534700Y-122930811D01*
X169640988Y-122937191D01*
X169829755Y-122991189D01*
X169936043Y-122997569D01*
X170001092Y-122980139D01*
X170089950Y-122921470D01*
X170137570Y-122838992D01*
X170143949Y-122732703D01*
X170126519Y-122667655D01*
X170067850Y-122578796D01*
X169861654Y-122459749D01*
X169714126Y-122429559D01*
X169449261Y-122221653D02*
X168743064Y-122968631D01*
X168935250Y-122254804D01*
X168413150Y-122778155D01*
X168706953Y-121793082D01*
X168459517Y-121650225D02*
X167923407Y-121340701D01*
X168021605Y-121837282D01*
X167897888Y-121765854D01*
X167791599Y-121759474D01*
X167726551Y-121776904D01*
X167637692Y-121835573D01*
X167518645Y-122041769D01*
X167512265Y-122148057D01*
X167529695Y-122213106D01*
X167588364Y-122301965D01*
X167835800Y-122444822D01*
X167942088Y-122451201D01*
X168007137Y-122433772D01*
X167139860Y-120888320D02*
X167552253Y-121126415D01*
X167355397Y-121562618D01*
X167337967Y-121497569D01*
X167279298Y-121408711D01*
X167073101Y-121289663D01*
X166966813Y-121283283D01*
X166901765Y-121300713D01*
X166812906Y-121359382D01*
X166693859Y-121565579D01*
X166687479Y-121671867D01*
X166704909Y-121736916D01*
X166763578Y-121825774D01*
X166969774Y-121944822D01*
X167076062Y-121951201D01*
X167141111Y-121933772D01*
%TO.C,SW34*%
X150036542Y-113083802D02*
X149886945Y-113066586D01*
X149671157Y-112965962D01*
X149604967Y-112882555D01*
X149581934Y-112819273D01*
X149579026Y-112712833D01*
X149619275Y-112626518D01*
X149702682Y-112560328D01*
X149765965Y-112537295D01*
X149872404Y-112534387D01*
X150065159Y-112571728D01*
X150171599Y-112568820D01*
X150234881Y-112545787D01*
X150318288Y-112479597D01*
X150358537Y-112393282D01*
X150355629Y-112286842D01*
X150332596Y-112223560D01*
X150266406Y-112140153D01*
X150050618Y-112039530D01*
X149901021Y-112022313D01*
X149619043Y-111838283D02*
X148980637Y-112643967D01*
X149109877Y-111916106D01*
X148635377Y-112482970D01*
X148842208Y-111476039D01*
X148583263Y-111355291D02*
X148022215Y-111093670D01*
X148163320Y-111579803D01*
X148033848Y-111519429D01*
X147927408Y-111522337D01*
X147864126Y-111545370D01*
X147780719Y-111611560D01*
X147680096Y-111827348D01*
X147683004Y-111933787D01*
X147706037Y-111997070D01*
X147772227Y-112080476D01*
X148031172Y-112201224D01*
X148137612Y-112198316D01*
X148200894Y-112175283D01*
X147104507Y-111033528D02*
X146822762Y-111637733D01*
X147481292Y-110788892D02*
X147395209Y-111536878D01*
X146834162Y-111275257D01*
%TO.C,SW29*%
X124999523Y-100480761D02*
X124856666Y-100528380D01*
X124618571Y-100528380D01*
X124523333Y-100480761D01*
X124475714Y-100433142D01*
X124428095Y-100337904D01*
X124428095Y-100242666D01*
X124475714Y-100147428D01*
X124523333Y-100099809D01*
X124618571Y-100052190D01*
X124809047Y-100004571D01*
X124904285Y-99956952D01*
X124951904Y-99909333D01*
X124999523Y-99814095D01*
X124999523Y-99718857D01*
X124951904Y-99623619D01*
X124904285Y-99576000D01*
X124809047Y-99528380D01*
X124570952Y-99528380D01*
X124428095Y-99576000D01*
X124094761Y-99528380D02*
X123856666Y-100528380D01*
X123666190Y-99814095D01*
X123475714Y-100528380D01*
X123237619Y-99528380D01*
X122904285Y-99623619D02*
X122856666Y-99576000D01*
X122761428Y-99528380D01*
X122523333Y-99528380D01*
X122428095Y-99576000D01*
X122380476Y-99623619D01*
X122332857Y-99718857D01*
X122332857Y-99814095D01*
X122380476Y-99956952D01*
X122951904Y-100528380D01*
X122332857Y-100528380D01*
X121856666Y-100528380D02*
X121666190Y-100528380D01*
X121570952Y-100480761D01*
X121523333Y-100433142D01*
X121428095Y-100290285D01*
X121380476Y-100099809D01*
X121380476Y-99718857D01*
X121428095Y-99623619D01*
X121475714Y-99576000D01*
X121570952Y-99528380D01*
X121761428Y-99528380D01*
X121856666Y-99576000D01*
X121904285Y-99623619D01*
X121951904Y-99718857D01*
X121951904Y-99956952D01*
X121904285Y-100052190D01*
X121856666Y-100099809D01*
X121761428Y-100147428D01*
X121570952Y-100147428D01*
X121475714Y-100099809D01*
X121428095Y-100052190D01*
X121380476Y-99956952D01*
%TO.C,SW28*%
X124999523Y-81430761D02*
X124856666Y-81478380D01*
X124618571Y-81478380D01*
X124523333Y-81430761D01*
X124475714Y-81383142D01*
X124428095Y-81287904D01*
X124428095Y-81192666D01*
X124475714Y-81097428D01*
X124523333Y-81049809D01*
X124618571Y-81002190D01*
X124809047Y-80954571D01*
X124904285Y-80906952D01*
X124951904Y-80859333D01*
X124999523Y-80764095D01*
X124999523Y-80668857D01*
X124951904Y-80573619D01*
X124904285Y-80526000D01*
X124809047Y-80478380D01*
X124570952Y-80478380D01*
X124428095Y-80526000D01*
X124094761Y-80478380D02*
X123856666Y-81478380D01*
X123666190Y-80764095D01*
X123475714Y-81478380D01*
X123237619Y-80478380D01*
X122904285Y-80573619D02*
X122856666Y-80526000D01*
X122761428Y-80478380D01*
X122523333Y-80478380D01*
X122428095Y-80526000D01*
X122380476Y-80573619D01*
X122332857Y-80668857D01*
X122332857Y-80764095D01*
X122380476Y-80906952D01*
X122951904Y-81478380D01*
X122332857Y-81478380D01*
X121761428Y-80906952D02*
X121856666Y-80859333D01*
X121904285Y-80811714D01*
X121951904Y-80716476D01*
X121951904Y-80668857D01*
X121904285Y-80573619D01*
X121856666Y-80526000D01*
X121761428Y-80478380D01*
X121570952Y-80478380D01*
X121475714Y-80526000D01*
X121428095Y-80573619D01*
X121380476Y-80668857D01*
X121380476Y-80716476D01*
X121428095Y-80811714D01*
X121475714Y-80859333D01*
X121570952Y-80906952D01*
X121761428Y-80906952D01*
X121856666Y-80954571D01*
X121904285Y-81002190D01*
X121951904Y-81097428D01*
X121951904Y-81287904D01*
X121904285Y-81383142D01*
X121856666Y-81430761D01*
X121761428Y-81478380D01*
X121570952Y-81478380D01*
X121475714Y-81430761D01*
X121428095Y-81383142D01*
X121380476Y-81287904D01*
X121380476Y-81097428D01*
X121428095Y-81002190D01*
X121475714Y-80954571D01*
X121570952Y-80906952D01*
%TO.C,SW33*%
X144049523Y-85240761D02*
X143906666Y-85288380D01*
X143668571Y-85288380D01*
X143573333Y-85240761D01*
X143525714Y-85193142D01*
X143478095Y-85097904D01*
X143478095Y-85002666D01*
X143525714Y-84907428D01*
X143573333Y-84859809D01*
X143668571Y-84812190D01*
X143859047Y-84764571D01*
X143954285Y-84716952D01*
X144001904Y-84669333D01*
X144049523Y-84574095D01*
X144049523Y-84478857D01*
X144001904Y-84383619D01*
X143954285Y-84336000D01*
X143859047Y-84288380D01*
X143620952Y-84288380D01*
X143478095Y-84336000D01*
X143144761Y-84288380D02*
X142906666Y-85288380D01*
X142716190Y-84574095D01*
X142525714Y-85288380D01*
X142287619Y-84288380D01*
X142001904Y-84288380D02*
X141382857Y-84288380D01*
X141716190Y-84669333D01*
X141573333Y-84669333D01*
X141478095Y-84716952D01*
X141430476Y-84764571D01*
X141382857Y-84859809D01*
X141382857Y-85097904D01*
X141430476Y-85193142D01*
X141478095Y-85240761D01*
X141573333Y-85288380D01*
X141859047Y-85288380D01*
X141954285Y-85240761D01*
X142001904Y-85193142D01*
X141049523Y-84288380D02*
X140430476Y-84288380D01*
X140763809Y-84669333D01*
X140620952Y-84669333D01*
X140525714Y-84716952D01*
X140478095Y-84764571D01*
X140430476Y-84859809D01*
X140430476Y-85097904D01*
X140478095Y-85193142D01*
X140525714Y-85240761D01*
X140620952Y-85288380D01*
X140906666Y-85288380D01*
X141001904Y-85240761D01*
X141049523Y-85193142D01*
%TO.C,SW32*%
X144049523Y-66190761D02*
X143906666Y-66238380D01*
X143668571Y-66238380D01*
X143573333Y-66190761D01*
X143525714Y-66143142D01*
X143478095Y-66047904D01*
X143478095Y-65952666D01*
X143525714Y-65857428D01*
X143573333Y-65809809D01*
X143668571Y-65762190D01*
X143859047Y-65714571D01*
X143954285Y-65666952D01*
X144001904Y-65619333D01*
X144049523Y-65524095D01*
X144049523Y-65428857D01*
X144001904Y-65333619D01*
X143954285Y-65286000D01*
X143859047Y-65238380D01*
X143620952Y-65238380D01*
X143478095Y-65286000D01*
X143144761Y-65238380D02*
X142906666Y-66238380D01*
X142716190Y-65524095D01*
X142525714Y-66238380D01*
X142287619Y-65238380D01*
X142001904Y-65238380D02*
X141382857Y-65238380D01*
X141716190Y-65619333D01*
X141573333Y-65619333D01*
X141478095Y-65666952D01*
X141430476Y-65714571D01*
X141382857Y-65809809D01*
X141382857Y-66047904D01*
X141430476Y-66143142D01*
X141478095Y-66190761D01*
X141573333Y-66238380D01*
X141859047Y-66238380D01*
X141954285Y-66190761D01*
X142001904Y-66143142D01*
X141001904Y-65333619D02*
X140954285Y-65286000D01*
X140859047Y-65238380D01*
X140620952Y-65238380D01*
X140525714Y-65286000D01*
X140478095Y-65333619D01*
X140430476Y-65428857D01*
X140430476Y-65524095D01*
X140478095Y-65666952D01*
X141049523Y-66238380D01*
X140430476Y-66238380D01*
%TO.C,SW31*%
X144049523Y-47140761D02*
X143906666Y-47188380D01*
X143668571Y-47188380D01*
X143573333Y-47140761D01*
X143525714Y-47093142D01*
X143478095Y-46997904D01*
X143478095Y-46902666D01*
X143525714Y-46807428D01*
X143573333Y-46759809D01*
X143668571Y-46712190D01*
X143859047Y-46664571D01*
X143954285Y-46616952D01*
X144001904Y-46569333D01*
X144049523Y-46474095D01*
X144049523Y-46378857D01*
X144001904Y-46283619D01*
X143954285Y-46236000D01*
X143859047Y-46188380D01*
X143620952Y-46188380D01*
X143478095Y-46236000D01*
X143144761Y-46188380D02*
X142906666Y-47188380D01*
X142716190Y-46474095D01*
X142525714Y-47188380D01*
X142287619Y-46188380D01*
X142001904Y-46188380D02*
X141382857Y-46188380D01*
X141716190Y-46569333D01*
X141573333Y-46569333D01*
X141478095Y-46616952D01*
X141430476Y-46664571D01*
X141382857Y-46759809D01*
X141382857Y-46997904D01*
X141430476Y-47093142D01*
X141478095Y-47140761D01*
X141573333Y-47188380D01*
X141859047Y-47188380D01*
X141954285Y-47140761D01*
X142001904Y-47093142D01*
X140430476Y-47188380D02*
X141001904Y-47188380D01*
X140716190Y-47188380D02*
X140716190Y-46188380D01*
X140811428Y-46331238D01*
X140906666Y-46426476D01*
X141001904Y-46474095D01*
%TO.C,SW26*%
X124999523Y-43330761D02*
X124856666Y-43378380D01*
X124618571Y-43378380D01*
X124523333Y-43330761D01*
X124475714Y-43283142D01*
X124428095Y-43187904D01*
X124428095Y-43092666D01*
X124475714Y-42997428D01*
X124523333Y-42949809D01*
X124618571Y-42902190D01*
X124809047Y-42854571D01*
X124904285Y-42806952D01*
X124951904Y-42759333D01*
X124999523Y-42664095D01*
X124999523Y-42568857D01*
X124951904Y-42473619D01*
X124904285Y-42426000D01*
X124809047Y-42378380D01*
X124570952Y-42378380D01*
X124428095Y-42426000D01*
X124094761Y-42378380D02*
X123856666Y-43378380D01*
X123666190Y-42664095D01*
X123475714Y-43378380D01*
X123237619Y-42378380D01*
X122904285Y-42473619D02*
X122856666Y-42426000D01*
X122761428Y-42378380D01*
X122523333Y-42378380D01*
X122428095Y-42426000D01*
X122380476Y-42473619D01*
X122332857Y-42568857D01*
X122332857Y-42664095D01*
X122380476Y-42806952D01*
X122951904Y-43378380D01*
X122332857Y-43378380D01*
X121475714Y-42378380D02*
X121666190Y-42378380D01*
X121761428Y-42426000D01*
X121809047Y-42473619D01*
X121904285Y-42616476D01*
X121951904Y-42806952D01*
X121951904Y-43187904D01*
X121904285Y-43283142D01*
X121856666Y-43330761D01*
X121761428Y-43378380D01*
X121570952Y-43378380D01*
X121475714Y-43330761D01*
X121428095Y-43283142D01*
X121380476Y-43187904D01*
X121380476Y-42949809D01*
X121428095Y-42854571D01*
X121475714Y-42806952D01*
X121570952Y-42759333D01*
X121761428Y-42759333D01*
X121856666Y-42806952D01*
X121904285Y-42854571D01*
X121951904Y-42949809D01*
%TO.C,SW21*%
X105949523Y-39520761D02*
X105806666Y-39568380D01*
X105568571Y-39568380D01*
X105473333Y-39520761D01*
X105425714Y-39473142D01*
X105378095Y-39377904D01*
X105378095Y-39282666D01*
X105425714Y-39187428D01*
X105473333Y-39139809D01*
X105568571Y-39092190D01*
X105759047Y-39044571D01*
X105854285Y-38996952D01*
X105901904Y-38949333D01*
X105949523Y-38854095D01*
X105949523Y-38758857D01*
X105901904Y-38663619D01*
X105854285Y-38616000D01*
X105759047Y-38568380D01*
X105520952Y-38568380D01*
X105378095Y-38616000D01*
X105044761Y-38568380D02*
X104806666Y-39568380D01*
X104616190Y-38854095D01*
X104425714Y-39568380D01*
X104187619Y-38568380D01*
X103854285Y-38663619D02*
X103806666Y-38616000D01*
X103711428Y-38568380D01*
X103473333Y-38568380D01*
X103378095Y-38616000D01*
X103330476Y-38663619D01*
X103282857Y-38758857D01*
X103282857Y-38854095D01*
X103330476Y-38996952D01*
X103901904Y-39568380D01*
X103282857Y-39568380D01*
X102330476Y-39568380D02*
X102901904Y-39568380D01*
X102616190Y-39568380D02*
X102616190Y-38568380D01*
X102711428Y-38711238D01*
X102806666Y-38806476D01*
X102901904Y-38854095D01*
%TO.C,SW22*%
X105949523Y-58570761D02*
X105806666Y-58618380D01*
X105568571Y-58618380D01*
X105473333Y-58570761D01*
X105425714Y-58523142D01*
X105378095Y-58427904D01*
X105378095Y-58332666D01*
X105425714Y-58237428D01*
X105473333Y-58189809D01*
X105568571Y-58142190D01*
X105759047Y-58094571D01*
X105854285Y-58046952D01*
X105901904Y-57999333D01*
X105949523Y-57904095D01*
X105949523Y-57808857D01*
X105901904Y-57713619D01*
X105854285Y-57666000D01*
X105759047Y-57618380D01*
X105520952Y-57618380D01*
X105378095Y-57666000D01*
X105044761Y-57618380D02*
X104806666Y-58618380D01*
X104616190Y-57904095D01*
X104425714Y-58618380D01*
X104187619Y-57618380D01*
X103854285Y-57713619D02*
X103806666Y-57666000D01*
X103711428Y-57618380D01*
X103473333Y-57618380D01*
X103378095Y-57666000D01*
X103330476Y-57713619D01*
X103282857Y-57808857D01*
X103282857Y-57904095D01*
X103330476Y-58046952D01*
X103901904Y-58618380D01*
X103282857Y-58618380D01*
X102901904Y-57713619D02*
X102854285Y-57666000D01*
X102759047Y-57618380D01*
X102520952Y-57618380D01*
X102425714Y-57666000D01*
X102378095Y-57713619D01*
X102330476Y-57808857D01*
X102330476Y-57904095D01*
X102378095Y-58046952D01*
X102949523Y-58618380D01*
X102330476Y-58618380D01*
%TO.C,SW23*%
X105949523Y-77620761D02*
X105806666Y-77668380D01*
X105568571Y-77668380D01*
X105473333Y-77620761D01*
X105425714Y-77573142D01*
X105378095Y-77477904D01*
X105378095Y-77382666D01*
X105425714Y-77287428D01*
X105473333Y-77239809D01*
X105568571Y-77192190D01*
X105759047Y-77144571D01*
X105854285Y-77096952D01*
X105901904Y-77049333D01*
X105949523Y-76954095D01*
X105949523Y-76858857D01*
X105901904Y-76763619D01*
X105854285Y-76716000D01*
X105759047Y-76668380D01*
X105520952Y-76668380D01*
X105378095Y-76716000D01*
X105044761Y-76668380D02*
X104806666Y-77668380D01*
X104616190Y-76954095D01*
X104425714Y-77668380D01*
X104187619Y-76668380D01*
X103854285Y-76763619D02*
X103806666Y-76716000D01*
X103711428Y-76668380D01*
X103473333Y-76668380D01*
X103378095Y-76716000D01*
X103330476Y-76763619D01*
X103282857Y-76858857D01*
X103282857Y-76954095D01*
X103330476Y-77096952D01*
X103901904Y-77668380D01*
X103282857Y-77668380D01*
X102949523Y-76668380D02*
X102330476Y-76668380D01*
X102663809Y-77049333D01*
X102520952Y-77049333D01*
X102425714Y-77096952D01*
X102378095Y-77144571D01*
X102330476Y-77239809D01*
X102330476Y-77477904D01*
X102378095Y-77573142D01*
X102425714Y-77620761D01*
X102520952Y-77668380D01*
X102806666Y-77668380D01*
X102901904Y-77620761D01*
X102949523Y-77573142D01*
%TO.C,SW24*%
X105949523Y-96670761D02*
X105806666Y-96718380D01*
X105568571Y-96718380D01*
X105473333Y-96670761D01*
X105425714Y-96623142D01*
X105378095Y-96527904D01*
X105378095Y-96432666D01*
X105425714Y-96337428D01*
X105473333Y-96289809D01*
X105568571Y-96242190D01*
X105759047Y-96194571D01*
X105854285Y-96146952D01*
X105901904Y-96099333D01*
X105949523Y-96004095D01*
X105949523Y-95908857D01*
X105901904Y-95813619D01*
X105854285Y-95766000D01*
X105759047Y-95718380D01*
X105520952Y-95718380D01*
X105378095Y-95766000D01*
X105044761Y-95718380D02*
X104806666Y-96718380D01*
X104616190Y-96004095D01*
X104425714Y-96718380D01*
X104187619Y-95718380D01*
X103854285Y-95813619D02*
X103806666Y-95766000D01*
X103711428Y-95718380D01*
X103473333Y-95718380D01*
X103378095Y-95766000D01*
X103330476Y-95813619D01*
X103282857Y-95908857D01*
X103282857Y-96004095D01*
X103330476Y-96146952D01*
X103901904Y-96718380D01*
X103282857Y-96718380D01*
X102425714Y-96051714D02*
X102425714Y-96718380D01*
X102663809Y-95670761D02*
X102901904Y-96385047D01*
X102282857Y-96385047D01*
%TO.C,SW19*%
X86899523Y-92860761D02*
X86756666Y-92908380D01*
X86518571Y-92908380D01*
X86423333Y-92860761D01*
X86375714Y-92813142D01*
X86328095Y-92717904D01*
X86328095Y-92622666D01*
X86375714Y-92527428D01*
X86423333Y-92479809D01*
X86518571Y-92432190D01*
X86709047Y-92384571D01*
X86804285Y-92336952D01*
X86851904Y-92289333D01*
X86899523Y-92194095D01*
X86899523Y-92098857D01*
X86851904Y-92003619D01*
X86804285Y-91956000D01*
X86709047Y-91908380D01*
X86470952Y-91908380D01*
X86328095Y-91956000D01*
X85994761Y-91908380D02*
X85756666Y-92908380D01*
X85566190Y-92194095D01*
X85375714Y-92908380D01*
X85137619Y-91908380D01*
X84232857Y-92908380D02*
X84804285Y-92908380D01*
X84518571Y-92908380D02*
X84518571Y-91908380D01*
X84613809Y-92051238D01*
X84709047Y-92146476D01*
X84804285Y-92194095D01*
X83756666Y-92908380D02*
X83566190Y-92908380D01*
X83470952Y-92860761D01*
X83423333Y-92813142D01*
X83328095Y-92670285D01*
X83280476Y-92479809D01*
X83280476Y-92098857D01*
X83328095Y-92003619D01*
X83375714Y-91956000D01*
X83470952Y-91908380D01*
X83661428Y-91908380D01*
X83756666Y-91956000D01*
X83804285Y-92003619D01*
X83851904Y-92098857D01*
X83851904Y-92336952D01*
X83804285Y-92432190D01*
X83756666Y-92479809D01*
X83661428Y-92527428D01*
X83470952Y-92527428D01*
X83375714Y-92479809D01*
X83328095Y-92432190D01*
X83280476Y-92336952D01*
%TO.C,SW18*%
X86899523Y-73810761D02*
X86756666Y-73858380D01*
X86518571Y-73858380D01*
X86423333Y-73810761D01*
X86375714Y-73763142D01*
X86328095Y-73667904D01*
X86328095Y-73572666D01*
X86375714Y-73477428D01*
X86423333Y-73429809D01*
X86518571Y-73382190D01*
X86709047Y-73334571D01*
X86804285Y-73286952D01*
X86851904Y-73239333D01*
X86899523Y-73144095D01*
X86899523Y-73048857D01*
X86851904Y-72953619D01*
X86804285Y-72906000D01*
X86709047Y-72858380D01*
X86470952Y-72858380D01*
X86328095Y-72906000D01*
X85994761Y-72858380D02*
X85756666Y-73858380D01*
X85566190Y-73144095D01*
X85375714Y-73858380D01*
X85137619Y-72858380D01*
X84232857Y-73858380D02*
X84804285Y-73858380D01*
X84518571Y-73858380D02*
X84518571Y-72858380D01*
X84613809Y-73001238D01*
X84709047Y-73096476D01*
X84804285Y-73144095D01*
X83661428Y-73286952D02*
X83756666Y-73239333D01*
X83804285Y-73191714D01*
X83851904Y-73096476D01*
X83851904Y-73048857D01*
X83804285Y-72953619D01*
X83756666Y-72906000D01*
X83661428Y-72858380D01*
X83470952Y-72858380D01*
X83375714Y-72906000D01*
X83328095Y-72953619D01*
X83280476Y-73048857D01*
X83280476Y-73096476D01*
X83328095Y-73191714D01*
X83375714Y-73239333D01*
X83470952Y-73286952D01*
X83661428Y-73286952D01*
X83756666Y-73334571D01*
X83804285Y-73382190D01*
X83851904Y-73477428D01*
X83851904Y-73667904D01*
X83804285Y-73763142D01*
X83756666Y-73810761D01*
X83661428Y-73858380D01*
X83470952Y-73858380D01*
X83375714Y-73810761D01*
X83328095Y-73763142D01*
X83280476Y-73667904D01*
X83280476Y-73477428D01*
X83328095Y-73382190D01*
X83375714Y-73334571D01*
X83470952Y-73286952D01*
%TO.C,SW17*%
X86899523Y-54760761D02*
X86756666Y-54808380D01*
X86518571Y-54808380D01*
X86423333Y-54760761D01*
X86375714Y-54713142D01*
X86328095Y-54617904D01*
X86328095Y-54522666D01*
X86375714Y-54427428D01*
X86423333Y-54379809D01*
X86518571Y-54332190D01*
X86709047Y-54284571D01*
X86804285Y-54236952D01*
X86851904Y-54189333D01*
X86899523Y-54094095D01*
X86899523Y-53998857D01*
X86851904Y-53903619D01*
X86804285Y-53856000D01*
X86709047Y-53808380D01*
X86470952Y-53808380D01*
X86328095Y-53856000D01*
X85994761Y-53808380D02*
X85756666Y-54808380D01*
X85566190Y-54094095D01*
X85375714Y-54808380D01*
X85137619Y-53808380D01*
X84232857Y-54808380D02*
X84804285Y-54808380D01*
X84518571Y-54808380D02*
X84518571Y-53808380D01*
X84613809Y-53951238D01*
X84709047Y-54046476D01*
X84804285Y-54094095D01*
X83899523Y-53808380D02*
X83232857Y-53808380D01*
X83661428Y-54808380D01*
%TO.C,SW16*%
X86899523Y-35710761D02*
X86756666Y-35758380D01*
X86518571Y-35758380D01*
X86423333Y-35710761D01*
X86375714Y-35663142D01*
X86328095Y-35567904D01*
X86328095Y-35472666D01*
X86375714Y-35377428D01*
X86423333Y-35329809D01*
X86518571Y-35282190D01*
X86709047Y-35234571D01*
X86804285Y-35186952D01*
X86851904Y-35139333D01*
X86899523Y-35044095D01*
X86899523Y-34948857D01*
X86851904Y-34853619D01*
X86804285Y-34806000D01*
X86709047Y-34758380D01*
X86470952Y-34758380D01*
X86328095Y-34806000D01*
X85994761Y-34758380D02*
X85756666Y-35758380D01*
X85566190Y-35044095D01*
X85375714Y-35758380D01*
X85137619Y-34758380D01*
X84232857Y-35758380D02*
X84804285Y-35758380D01*
X84518571Y-35758380D02*
X84518571Y-34758380D01*
X84613809Y-34901238D01*
X84709047Y-34996476D01*
X84804285Y-35044095D01*
X83375714Y-34758380D02*
X83566190Y-34758380D01*
X83661428Y-34806000D01*
X83709047Y-34853619D01*
X83804285Y-34996476D01*
X83851904Y-35186952D01*
X83851904Y-35567904D01*
X83804285Y-35663142D01*
X83756666Y-35710761D01*
X83661428Y-35758380D01*
X83470952Y-35758380D01*
X83375714Y-35710761D01*
X83328095Y-35663142D01*
X83280476Y-35567904D01*
X83280476Y-35329809D01*
X83328095Y-35234571D01*
X83375714Y-35186952D01*
X83470952Y-35139333D01*
X83661428Y-35139333D01*
X83756666Y-35186952D01*
X83804285Y-35234571D01*
X83851904Y-35329809D01*
%TO.C,SW11*%
X67849523Y-39520761D02*
X67706666Y-39568380D01*
X67468571Y-39568380D01*
X67373333Y-39520761D01*
X67325714Y-39473142D01*
X67278095Y-39377904D01*
X67278095Y-39282666D01*
X67325714Y-39187428D01*
X67373333Y-39139809D01*
X67468571Y-39092190D01*
X67659047Y-39044571D01*
X67754285Y-38996952D01*
X67801904Y-38949333D01*
X67849523Y-38854095D01*
X67849523Y-38758857D01*
X67801904Y-38663619D01*
X67754285Y-38616000D01*
X67659047Y-38568380D01*
X67420952Y-38568380D01*
X67278095Y-38616000D01*
X66944761Y-38568380D02*
X66706666Y-39568380D01*
X66516190Y-38854095D01*
X66325714Y-39568380D01*
X66087619Y-38568380D01*
X65182857Y-39568380D02*
X65754285Y-39568380D01*
X65468571Y-39568380D02*
X65468571Y-38568380D01*
X65563809Y-38711238D01*
X65659047Y-38806476D01*
X65754285Y-38854095D01*
X64230476Y-39568380D02*
X64801904Y-39568380D01*
X64516190Y-39568380D02*
X64516190Y-38568380D01*
X64611428Y-38711238D01*
X64706666Y-38806476D01*
X64801904Y-38854095D01*
%TO.C,SW12*%
X67849523Y-58570761D02*
X67706666Y-58618380D01*
X67468571Y-58618380D01*
X67373333Y-58570761D01*
X67325714Y-58523142D01*
X67278095Y-58427904D01*
X67278095Y-58332666D01*
X67325714Y-58237428D01*
X67373333Y-58189809D01*
X67468571Y-58142190D01*
X67659047Y-58094571D01*
X67754285Y-58046952D01*
X67801904Y-57999333D01*
X67849523Y-57904095D01*
X67849523Y-57808857D01*
X67801904Y-57713619D01*
X67754285Y-57666000D01*
X67659047Y-57618380D01*
X67420952Y-57618380D01*
X67278095Y-57666000D01*
X66944761Y-57618380D02*
X66706666Y-58618380D01*
X66516190Y-57904095D01*
X66325714Y-58618380D01*
X66087619Y-57618380D01*
X65182857Y-58618380D02*
X65754285Y-58618380D01*
X65468571Y-58618380D02*
X65468571Y-57618380D01*
X65563809Y-57761238D01*
X65659047Y-57856476D01*
X65754285Y-57904095D01*
X64801904Y-57713619D02*
X64754285Y-57666000D01*
X64659047Y-57618380D01*
X64420952Y-57618380D01*
X64325714Y-57666000D01*
X64278095Y-57713619D01*
X64230476Y-57808857D01*
X64230476Y-57904095D01*
X64278095Y-58046952D01*
X64849523Y-58618380D01*
X64230476Y-58618380D01*
%TO.C,SW13*%
X67849523Y-77620761D02*
X67706666Y-77668380D01*
X67468571Y-77668380D01*
X67373333Y-77620761D01*
X67325714Y-77573142D01*
X67278095Y-77477904D01*
X67278095Y-77382666D01*
X67325714Y-77287428D01*
X67373333Y-77239809D01*
X67468571Y-77192190D01*
X67659047Y-77144571D01*
X67754285Y-77096952D01*
X67801904Y-77049333D01*
X67849523Y-76954095D01*
X67849523Y-76858857D01*
X67801904Y-76763619D01*
X67754285Y-76716000D01*
X67659047Y-76668380D01*
X67420952Y-76668380D01*
X67278095Y-76716000D01*
X66944761Y-76668380D02*
X66706666Y-77668380D01*
X66516190Y-76954095D01*
X66325714Y-77668380D01*
X66087619Y-76668380D01*
X65182857Y-77668380D02*
X65754285Y-77668380D01*
X65468571Y-77668380D02*
X65468571Y-76668380D01*
X65563809Y-76811238D01*
X65659047Y-76906476D01*
X65754285Y-76954095D01*
X64849523Y-76668380D02*
X64230476Y-76668380D01*
X64563809Y-77049333D01*
X64420952Y-77049333D01*
X64325714Y-77096952D01*
X64278095Y-77144571D01*
X64230476Y-77239809D01*
X64230476Y-77477904D01*
X64278095Y-77573142D01*
X64325714Y-77620761D01*
X64420952Y-77668380D01*
X64706666Y-77668380D01*
X64801904Y-77620761D01*
X64849523Y-77573142D01*
%TO.C,SW14*%
X67849523Y-96670761D02*
X67706666Y-96718380D01*
X67468571Y-96718380D01*
X67373333Y-96670761D01*
X67325714Y-96623142D01*
X67278095Y-96527904D01*
X67278095Y-96432666D01*
X67325714Y-96337428D01*
X67373333Y-96289809D01*
X67468571Y-96242190D01*
X67659047Y-96194571D01*
X67754285Y-96146952D01*
X67801904Y-96099333D01*
X67849523Y-96004095D01*
X67849523Y-95908857D01*
X67801904Y-95813619D01*
X67754285Y-95766000D01*
X67659047Y-95718380D01*
X67420952Y-95718380D01*
X67278095Y-95766000D01*
X66944761Y-95718380D02*
X66706666Y-96718380D01*
X66516190Y-96004095D01*
X66325714Y-96718380D01*
X66087619Y-95718380D01*
X65182857Y-96718380D02*
X65754285Y-96718380D01*
X65468571Y-96718380D02*
X65468571Y-95718380D01*
X65563809Y-95861238D01*
X65659047Y-95956476D01*
X65754285Y-96004095D01*
X64325714Y-96051714D02*
X64325714Y-96718380D01*
X64563809Y-95670761D02*
X64801904Y-96385047D01*
X64182857Y-96385047D01*
%TO.C,SW15*%
X67849523Y-115720761D02*
X67706666Y-115768380D01*
X67468571Y-115768380D01*
X67373333Y-115720761D01*
X67325714Y-115673142D01*
X67278095Y-115577904D01*
X67278095Y-115482666D01*
X67325714Y-115387428D01*
X67373333Y-115339809D01*
X67468571Y-115292190D01*
X67659047Y-115244571D01*
X67754285Y-115196952D01*
X67801904Y-115149333D01*
X67849523Y-115054095D01*
X67849523Y-114958857D01*
X67801904Y-114863619D01*
X67754285Y-114816000D01*
X67659047Y-114768380D01*
X67420952Y-114768380D01*
X67278095Y-114816000D01*
X66944761Y-114768380D02*
X66706666Y-115768380D01*
X66516190Y-115054095D01*
X66325714Y-115768380D01*
X66087619Y-114768380D01*
X65182857Y-115768380D02*
X65754285Y-115768380D01*
X65468571Y-115768380D02*
X65468571Y-114768380D01*
X65563809Y-114911238D01*
X65659047Y-115006476D01*
X65754285Y-115054095D01*
X64278095Y-114768380D02*
X64754285Y-114768380D01*
X64801904Y-115244571D01*
X64754285Y-115196952D01*
X64659047Y-115149333D01*
X64420952Y-115149333D01*
X64325714Y-115196952D01*
X64278095Y-115244571D01*
X64230476Y-115339809D01*
X64230476Y-115577904D01*
X64278095Y-115673142D01*
X64325714Y-115720761D01*
X64420952Y-115768380D01*
X64659047Y-115768380D01*
X64754285Y-115720761D01*
X64801904Y-115673142D01*
%TO.C,SW10*%
X48799523Y-119530761D02*
X48656666Y-119578380D01*
X48418571Y-119578380D01*
X48323333Y-119530761D01*
X48275714Y-119483142D01*
X48228095Y-119387904D01*
X48228095Y-119292666D01*
X48275714Y-119197428D01*
X48323333Y-119149809D01*
X48418571Y-119102190D01*
X48609047Y-119054571D01*
X48704285Y-119006952D01*
X48751904Y-118959333D01*
X48799523Y-118864095D01*
X48799523Y-118768857D01*
X48751904Y-118673619D01*
X48704285Y-118626000D01*
X48609047Y-118578380D01*
X48370952Y-118578380D01*
X48228095Y-118626000D01*
X47894761Y-118578380D02*
X47656666Y-119578380D01*
X47466190Y-118864095D01*
X47275714Y-119578380D01*
X47037619Y-118578380D01*
X46132857Y-119578380D02*
X46704285Y-119578380D01*
X46418571Y-119578380D02*
X46418571Y-118578380D01*
X46513809Y-118721238D01*
X46609047Y-118816476D01*
X46704285Y-118864095D01*
X45513809Y-118578380D02*
X45418571Y-118578380D01*
X45323333Y-118626000D01*
X45275714Y-118673619D01*
X45228095Y-118768857D01*
X45180476Y-118959333D01*
X45180476Y-119197428D01*
X45228095Y-119387904D01*
X45275714Y-119483142D01*
X45323333Y-119530761D01*
X45418571Y-119578380D01*
X45513809Y-119578380D01*
X45609047Y-119530761D01*
X45656666Y-119483142D01*
X45704285Y-119387904D01*
X45751904Y-119197428D01*
X45751904Y-118959333D01*
X45704285Y-118768857D01*
X45656666Y-118673619D01*
X45609047Y-118626000D01*
X45513809Y-118578380D01*
%TO.C,SW5*%
X29273333Y-119530761D02*
X29130476Y-119578380D01*
X28892380Y-119578380D01*
X28797142Y-119530761D01*
X28749523Y-119483142D01*
X28701904Y-119387904D01*
X28701904Y-119292666D01*
X28749523Y-119197428D01*
X28797142Y-119149809D01*
X28892380Y-119102190D01*
X29082857Y-119054571D01*
X29178095Y-119006952D01*
X29225714Y-118959333D01*
X29273333Y-118864095D01*
X29273333Y-118768857D01*
X29225714Y-118673619D01*
X29178095Y-118626000D01*
X29082857Y-118578380D01*
X28844761Y-118578380D01*
X28701904Y-118626000D01*
X28368571Y-118578380D02*
X28130476Y-119578380D01*
X27940000Y-118864095D01*
X27749523Y-119578380D01*
X27511428Y-118578380D01*
X26654285Y-118578380D02*
X27130476Y-118578380D01*
X27178095Y-119054571D01*
X27130476Y-119006952D01*
X27035238Y-118959333D01*
X26797142Y-118959333D01*
X26701904Y-119006952D01*
X26654285Y-119054571D01*
X26606666Y-119149809D01*
X26606666Y-119387904D01*
X26654285Y-119483142D01*
X26701904Y-119530761D01*
X26797142Y-119578380D01*
X27035238Y-119578380D01*
X27130476Y-119530761D01*
X27178095Y-119483142D01*
%TO.C,SW4*%
X29273333Y-100480761D02*
X29130476Y-100528380D01*
X28892380Y-100528380D01*
X28797142Y-100480761D01*
X28749523Y-100433142D01*
X28701904Y-100337904D01*
X28701904Y-100242666D01*
X28749523Y-100147428D01*
X28797142Y-100099809D01*
X28892380Y-100052190D01*
X29082857Y-100004571D01*
X29178095Y-99956952D01*
X29225714Y-99909333D01*
X29273333Y-99814095D01*
X29273333Y-99718857D01*
X29225714Y-99623619D01*
X29178095Y-99576000D01*
X29082857Y-99528380D01*
X28844761Y-99528380D01*
X28701904Y-99576000D01*
X28368571Y-99528380D02*
X28130476Y-100528380D01*
X27940000Y-99814095D01*
X27749523Y-100528380D01*
X27511428Y-99528380D01*
X26701904Y-99861714D02*
X26701904Y-100528380D01*
X26940000Y-99480761D02*
X27178095Y-100195047D01*
X26559047Y-100195047D01*
%TO.C,SW8*%
X48323333Y-81430761D02*
X48180476Y-81478380D01*
X47942380Y-81478380D01*
X47847142Y-81430761D01*
X47799523Y-81383142D01*
X47751904Y-81287904D01*
X47751904Y-81192666D01*
X47799523Y-81097428D01*
X47847142Y-81049809D01*
X47942380Y-81002190D01*
X48132857Y-80954571D01*
X48228095Y-80906952D01*
X48275714Y-80859333D01*
X48323333Y-80764095D01*
X48323333Y-80668857D01*
X48275714Y-80573619D01*
X48228095Y-80526000D01*
X48132857Y-80478380D01*
X47894761Y-80478380D01*
X47751904Y-80526000D01*
X47418571Y-80478380D02*
X47180476Y-81478380D01*
X46990000Y-80764095D01*
X46799523Y-81478380D01*
X46561428Y-80478380D01*
X46037619Y-80906952D02*
X46132857Y-80859333D01*
X46180476Y-80811714D01*
X46228095Y-80716476D01*
X46228095Y-80668857D01*
X46180476Y-80573619D01*
X46132857Y-80526000D01*
X46037619Y-80478380D01*
X45847142Y-80478380D01*
X45751904Y-80526000D01*
X45704285Y-80573619D01*
X45656666Y-80668857D01*
X45656666Y-80716476D01*
X45704285Y-80811714D01*
X45751904Y-80859333D01*
X45847142Y-80906952D01*
X46037619Y-80906952D01*
X46132857Y-80954571D01*
X46180476Y-81002190D01*
X46228095Y-81097428D01*
X46228095Y-81287904D01*
X46180476Y-81383142D01*
X46132857Y-81430761D01*
X46037619Y-81478380D01*
X45847142Y-81478380D01*
X45751904Y-81430761D01*
X45704285Y-81383142D01*
X45656666Y-81287904D01*
X45656666Y-81097428D01*
X45704285Y-81002190D01*
X45751904Y-80954571D01*
X45847142Y-80906952D01*
%TO.C,SW3*%
X29273333Y-81430761D02*
X29130476Y-81478380D01*
X28892380Y-81478380D01*
X28797142Y-81430761D01*
X28749523Y-81383142D01*
X28701904Y-81287904D01*
X28701904Y-81192666D01*
X28749523Y-81097428D01*
X28797142Y-81049809D01*
X28892380Y-81002190D01*
X29082857Y-80954571D01*
X29178095Y-80906952D01*
X29225714Y-80859333D01*
X29273333Y-80764095D01*
X29273333Y-80668857D01*
X29225714Y-80573619D01*
X29178095Y-80526000D01*
X29082857Y-80478380D01*
X28844761Y-80478380D01*
X28701904Y-80526000D01*
X28368571Y-80478380D02*
X28130476Y-81478380D01*
X27940000Y-80764095D01*
X27749523Y-81478380D01*
X27511428Y-80478380D01*
X27225714Y-80478380D02*
X26606666Y-80478380D01*
X26940000Y-80859333D01*
X26797142Y-80859333D01*
X26701904Y-80906952D01*
X26654285Y-80954571D01*
X26606666Y-81049809D01*
X26606666Y-81287904D01*
X26654285Y-81383142D01*
X26701904Y-81430761D01*
X26797142Y-81478380D01*
X27082857Y-81478380D01*
X27178095Y-81430761D01*
X27225714Y-81383142D01*
%TO.C,SW2*%
X29273333Y-62380761D02*
X29130476Y-62428380D01*
X28892380Y-62428380D01*
X28797142Y-62380761D01*
X28749523Y-62333142D01*
X28701904Y-62237904D01*
X28701904Y-62142666D01*
X28749523Y-62047428D01*
X28797142Y-61999809D01*
X28892380Y-61952190D01*
X29082857Y-61904571D01*
X29178095Y-61856952D01*
X29225714Y-61809333D01*
X29273333Y-61714095D01*
X29273333Y-61618857D01*
X29225714Y-61523619D01*
X29178095Y-61476000D01*
X29082857Y-61428380D01*
X28844761Y-61428380D01*
X28701904Y-61476000D01*
X28368571Y-61428380D02*
X28130476Y-62428380D01*
X27940000Y-61714095D01*
X27749523Y-62428380D01*
X27511428Y-61428380D01*
X27178095Y-61523619D02*
X27130476Y-61476000D01*
X27035238Y-61428380D01*
X26797142Y-61428380D01*
X26701904Y-61476000D01*
X26654285Y-61523619D01*
X26606666Y-61618857D01*
X26606666Y-61714095D01*
X26654285Y-61856952D01*
X27225714Y-62428380D01*
X26606666Y-62428380D01*
%TO.C,SW7*%
X48323333Y-62380761D02*
X48180476Y-62428380D01*
X47942380Y-62428380D01*
X47847142Y-62380761D01*
X47799523Y-62333142D01*
X47751904Y-62237904D01*
X47751904Y-62142666D01*
X47799523Y-62047428D01*
X47847142Y-61999809D01*
X47942380Y-61952190D01*
X48132857Y-61904571D01*
X48228095Y-61856952D01*
X48275714Y-61809333D01*
X48323333Y-61714095D01*
X48323333Y-61618857D01*
X48275714Y-61523619D01*
X48228095Y-61476000D01*
X48132857Y-61428380D01*
X47894761Y-61428380D01*
X47751904Y-61476000D01*
X47418571Y-61428380D02*
X47180476Y-62428380D01*
X46990000Y-61714095D01*
X46799523Y-62428380D01*
X46561428Y-61428380D01*
X46275714Y-61428380D02*
X45609047Y-61428380D01*
X46037619Y-62428380D01*
%TO.C,SW6*%
X48323333Y-43330761D02*
X48180476Y-43378380D01*
X47942380Y-43378380D01*
X47847142Y-43330761D01*
X47799523Y-43283142D01*
X47751904Y-43187904D01*
X47751904Y-43092666D01*
X47799523Y-42997428D01*
X47847142Y-42949809D01*
X47942380Y-42902190D01*
X48132857Y-42854571D01*
X48228095Y-42806952D01*
X48275714Y-42759333D01*
X48323333Y-42664095D01*
X48323333Y-42568857D01*
X48275714Y-42473619D01*
X48228095Y-42426000D01*
X48132857Y-42378380D01*
X47894761Y-42378380D01*
X47751904Y-42426000D01*
X47418571Y-42378380D02*
X47180476Y-43378380D01*
X46990000Y-42664095D01*
X46799523Y-43378380D01*
X46561428Y-42378380D01*
X45751904Y-42378380D02*
X45942380Y-42378380D01*
X46037619Y-42426000D01*
X46085238Y-42473619D01*
X46180476Y-42616476D01*
X46228095Y-42806952D01*
X46228095Y-43187904D01*
X46180476Y-43283142D01*
X46132857Y-43330761D01*
X46037619Y-43378380D01*
X45847142Y-43378380D01*
X45751904Y-43330761D01*
X45704285Y-43283142D01*
X45656666Y-43187904D01*
X45656666Y-42949809D01*
X45704285Y-42854571D01*
X45751904Y-42806952D01*
X45847142Y-42759333D01*
X46037619Y-42759333D01*
X46132857Y-42806952D01*
X46180476Y-42854571D01*
X46228095Y-42949809D01*
%TO.C,SW1*%
X29273333Y-43330761D02*
X29130476Y-43378380D01*
X28892380Y-43378380D01*
X28797142Y-43330761D01*
X28749523Y-43283142D01*
X28701904Y-43187904D01*
X28701904Y-43092666D01*
X28749523Y-42997428D01*
X28797142Y-42949809D01*
X28892380Y-42902190D01*
X29082857Y-42854571D01*
X29178095Y-42806952D01*
X29225714Y-42759333D01*
X29273333Y-42664095D01*
X29273333Y-42568857D01*
X29225714Y-42473619D01*
X29178095Y-42426000D01*
X29082857Y-42378380D01*
X28844761Y-42378380D01*
X28701904Y-42426000D01*
X28368571Y-42378380D02*
X28130476Y-43378380D01*
X27940000Y-42664095D01*
X27749523Y-43378380D01*
X27511428Y-42378380D01*
X26606666Y-43378380D02*
X27178095Y-43378380D01*
X26892380Y-43378380D02*
X26892380Y-42378380D01*
X26987619Y-42521238D01*
X27082857Y-42616476D01*
X27178095Y-42664095D01*
%TO.C,J1*%
X169243333Y-97445580D02*
X169243333Y-98159866D01*
X169290952Y-98302723D01*
X169386190Y-98397961D01*
X169529047Y-98445580D01*
X169624285Y-98445580D01*
X168243333Y-98445580D02*
X168814761Y-98445580D01*
X168529047Y-98445580D02*
X168529047Y-97445580D01*
X168624285Y-97588438D01*
X168719523Y-97683676D01*
X168814761Y-97731295D01*
%TO.C,D1*%
X35266904Y-50299523D02*
X34466904Y-50299523D01*
X34466904Y-50490000D01*
X34505000Y-50604285D01*
X34581190Y-50680476D01*
X34657380Y-50718571D01*
X34809761Y-50756666D01*
X34924047Y-50756666D01*
X35076428Y-50718571D01*
X35152619Y-50680476D01*
X35228809Y-50604285D01*
X35266904Y-50490000D01*
X35266904Y-50299523D01*
X35266904Y-51518571D02*
X35266904Y-51061428D01*
X35266904Y-51290000D02*
X34466904Y-51290000D01*
X34581190Y-51213809D01*
X34657380Y-51137619D01*
X34695476Y-51061428D01*
%TO.C,D2*%
X35266904Y-69349523D02*
X34466904Y-69349523D01*
X34466904Y-69540000D01*
X34505000Y-69654285D01*
X34581190Y-69730476D01*
X34657380Y-69768571D01*
X34809761Y-69806666D01*
X34924047Y-69806666D01*
X35076428Y-69768571D01*
X35152619Y-69730476D01*
X35228809Y-69654285D01*
X35266904Y-69540000D01*
X35266904Y-69349523D01*
X34543095Y-70111428D02*
X34505000Y-70149523D01*
X34466904Y-70225714D01*
X34466904Y-70416190D01*
X34505000Y-70492380D01*
X34543095Y-70530476D01*
X34619285Y-70568571D01*
X34695476Y-70568571D01*
X34809761Y-70530476D01*
X35266904Y-70073333D01*
X35266904Y-70568571D01*
%TO.C,D3*%
X35266904Y-88219523D02*
X34466904Y-88219523D01*
X34466904Y-88410000D01*
X34505000Y-88524285D01*
X34581190Y-88600476D01*
X34657380Y-88638571D01*
X34809761Y-88676666D01*
X34924047Y-88676666D01*
X35076428Y-88638571D01*
X35152619Y-88600476D01*
X35228809Y-88524285D01*
X35266904Y-88410000D01*
X35266904Y-88219523D01*
X34466904Y-88943333D02*
X34466904Y-89438571D01*
X34771666Y-89171904D01*
X34771666Y-89286190D01*
X34809761Y-89362380D01*
X34847857Y-89400476D01*
X34924047Y-89438571D01*
X35114523Y-89438571D01*
X35190714Y-89400476D01*
X35228809Y-89362380D01*
X35266904Y-89286190D01*
X35266904Y-89057619D01*
X35228809Y-88981428D01*
X35190714Y-88943333D01*
%TO.C,D4*%
X35266904Y-107449523D02*
X34466904Y-107449523D01*
X34466904Y-107640000D01*
X34505000Y-107754285D01*
X34581190Y-107830476D01*
X34657380Y-107868571D01*
X34809761Y-107906666D01*
X34924047Y-107906666D01*
X35076428Y-107868571D01*
X35152619Y-107830476D01*
X35228809Y-107754285D01*
X35266904Y-107640000D01*
X35266904Y-107449523D01*
X34733571Y-108592380D02*
X35266904Y-108592380D01*
X34428809Y-108401904D02*
X35000238Y-108211428D01*
X35000238Y-108706666D01*
%TO.C,D5*%
X35266904Y-126499523D02*
X34466904Y-126499523D01*
X34466904Y-126690000D01*
X34505000Y-126804285D01*
X34581190Y-126880476D01*
X34657380Y-126918571D01*
X34809761Y-126956666D01*
X34924047Y-126956666D01*
X35076428Y-126918571D01*
X35152619Y-126880476D01*
X35228809Y-126804285D01*
X35266904Y-126690000D01*
X35266904Y-126499523D01*
X34466904Y-127680476D02*
X34466904Y-127299523D01*
X34847857Y-127261428D01*
X34809761Y-127299523D01*
X34771666Y-127375714D01*
X34771666Y-127566190D01*
X34809761Y-127642380D01*
X34847857Y-127680476D01*
X34924047Y-127718571D01*
X35114523Y-127718571D01*
X35190714Y-127680476D01*
X35228809Y-127642380D01*
X35266904Y-127566190D01*
X35266904Y-127375714D01*
X35228809Y-127299523D01*
X35190714Y-127261428D01*
%TO.C,D6*%
X54316904Y-50299523D02*
X53516904Y-50299523D01*
X53516904Y-50490000D01*
X53555000Y-50604285D01*
X53631190Y-50680476D01*
X53707380Y-50718571D01*
X53859761Y-50756666D01*
X53974047Y-50756666D01*
X54126428Y-50718571D01*
X54202619Y-50680476D01*
X54278809Y-50604285D01*
X54316904Y-50490000D01*
X54316904Y-50299523D01*
X53516904Y-51442380D02*
X53516904Y-51290000D01*
X53555000Y-51213809D01*
X53593095Y-51175714D01*
X53707380Y-51099523D01*
X53859761Y-51061428D01*
X54164523Y-51061428D01*
X54240714Y-51099523D01*
X54278809Y-51137619D01*
X54316904Y-51213809D01*
X54316904Y-51366190D01*
X54278809Y-51442380D01*
X54240714Y-51480476D01*
X54164523Y-51518571D01*
X53974047Y-51518571D01*
X53897857Y-51480476D01*
X53859761Y-51442380D01*
X53821666Y-51366190D01*
X53821666Y-51213809D01*
X53859761Y-51137619D01*
X53897857Y-51099523D01*
X53974047Y-51061428D01*
%TO.C,D7*%
X54316904Y-69564523D02*
X53516904Y-69564523D01*
X53516904Y-69755000D01*
X53555000Y-69869285D01*
X53631190Y-69945476D01*
X53707380Y-69983571D01*
X53859761Y-70021666D01*
X53974047Y-70021666D01*
X54126428Y-69983571D01*
X54202619Y-69945476D01*
X54278809Y-69869285D01*
X54316904Y-69755000D01*
X54316904Y-69564523D01*
X53516904Y-70288333D02*
X53516904Y-70821666D01*
X54316904Y-70478809D01*
%TO.C,D8*%
X54316904Y-88399523D02*
X53516904Y-88399523D01*
X53516904Y-88590000D01*
X53555000Y-88704285D01*
X53631190Y-88780476D01*
X53707380Y-88818571D01*
X53859761Y-88856666D01*
X53974047Y-88856666D01*
X54126428Y-88818571D01*
X54202619Y-88780476D01*
X54278809Y-88704285D01*
X54316904Y-88590000D01*
X54316904Y-88399523D01*
X53859761Y-89313809D02*
X53821666Y-89237619D01*
X53783571Y-89199523D01*
X53707380Y-89161428D01*
X53669285Y-89161428D01*
X53593095Y-89199523D01*
X53555000Y-89237619D01*
X53516904Y-89313809D01*
X53516904Y-89466190D01*
X53555000Y-89542380D01*
X53593095Y-89580476D01*
X53669285Y-89618571D01*
X53707380Y-89618571D01*
X53783571Y-89580476D01*
X53821666Y-89542380D01*
X53859761Y-89466190D01*
X53859761Y-89313809D01*
X53897857Y-89237619D01*
X53935952Y-89199523D01*
X54012142Y-89161428D01*
X54164523Y-89161428D01*
X54240714Y-89199523D01*
X54278809Y-89237619D01*
X54316904Y-89313809D01*
X54316904Y-89466190D01*
X54278809Y-89542380D01*
X54240714Y-89580476D01*
X54164523Y-89618571D01*
X54012142Y-89618571D01*
X53935952Y-89580476D01*
X53897857Y-89542380D01*
X53859761Y-89466190D01*
%TO.C,D9*%
X54316904Y-107449523D02*
X53516904Y-107449523D01*
X53516904Y-107640000D01*
X53555000Y-107754285D01*
X53631190Y-107830476D01*
X53707380Y-107868571D01*
X53859761Y-107906666D01*
X53974047Y-107906666D01*
X54126428Y-107868571D01*
X54202619Y-107830476D01*
X54278809Y-107754285D01*
X54316904Y-107640000D01*
X54316904Y-107449523D01*
X54316904Y-108287619D02*
X54316904Y-108440000D01*
X54278809Y-108516190D01*
X54240714Y-108554285D01*
X54126428Y-108630476D01*
X53974047Y-108668571D01*
X53669285Y-108668571D01*
X53593095Y-108630476D01*
X53555000Y-108592380D01*
X53516904Y-108516190D01*
X53516904Y-108363809D01*
X53555000Y-108287619D01*
X53593095Y-108249523D01*
X53669285Y-108211428D01*
X53859761Y-108211428D01*
X53935952Y-108249523D01*
X53974047Y-108287619D01*
X54012142Y-108363809D01*
X54012142Y-108516190D01*
X53974047Y-108592380D01*
X53935952Y-108630476D01*
X53859761Y-108668571D01*
%TO.C,D10*%
X54316904Y-126016971D02*
X53516904Y-126016971D01*
X53516904Y-126207447D01*
X53555000Y-126321733D01*
X53631190Y-126397923D01*
X53707380Y-126436019D01*
X53859761Y-126474114D01*
X53974047Y-126474114D01*
X54126428Y-126436019D01*
X54202619Y-126397923D01*
X54278809Y-126321733D01*
X54316904Y-126207447D01*
X54316904Y-126016971D01*
X54316904Y-127236019D02*
X54316904Y-126778876D01*
X54316904Y-127007447D02*
X53516904Y-127007447D01*
X53631190Y-126931257D01*
X53707380Y-126855066D01*
X53745476Y-126778876D01*
X53516904Y-127731257D02*
X53516904Y-127807447D01*
X53555000Y-127883638D01*
X53593095Y-127921733D01*
X53669285Y-127959828D01*
X53821666Y-127997923D01*
X54012142Y-127997923D01*
X54164523Y-127959828D01*
X54240714Y-127921733D01*
X54278809Y-127883638D01*
X54316904Y-127807447D01*
X54316904Y-127731257D01*
X54278809Y-127655066D01*
X54240714Y-127616971D01*
X54164523Y-127578876D01*
X54012142Y-127540780D01*
X53821666Y-127540780D01*
X53669285Y-127578876D01*
X53593095Y-127616971D01*
X53555000Y-127655066D01*
X53516904Y-127731257D01*
%TO.C,D11*%
X73366904Y-46108571D02*
X72566904Y-46108571D01*
X72566904Y-46299047D01*
X72605000Y-46413333D01*
X72681190Y-46489523D01*
X72757380Y-46527619D01*
X72909761Y-46565714D01*
X73024047Y-46565714D01*
X73176428Y-46527619D01*
X73252619Y-46489523D01*
X73328809Y-46413333D01*
X73366904Y-46299047D01*
X73366904Y-46108571D01*
X73366904Y-47327619D02*
X73366904Y-46870476D01*
X73366904Y-47099047D02*
X72566904Y-47099047D01*
X72681190Y-47022857D01*
X72757380Y-46946666D01*
X72795476Y-46870476D01*
X73366904Y-48089523D02*
X73366904Y-47632380D01*
X73366904Y-47860952D02*
X72566904Y-47860952D01*
X72681190Y-47784761D01*
X72757380Y-47708571D01*
X72795476Y-47632380D01*
%TO.C,D12*%
X73366904Y-64523571D02*
X72566904Y-64523571D01*
X72566904Y-64714047D01*
X72605000Y-64828333D01*
X72681190Y-64904523D01*
X72757380Y-64942619D01*
X72909761Y-64980714D01*
X73024047Y-64980714D01*
X73176428Y-64942619D01*
X73252619Y-64904523D01*
X73328809Y-64828333D01*
X73366904Y-64714047D01*
X73366904Y-64523571D01*
X73366904Y-65742619D02*
X73366904Y-65285476D01*
X73366904Y-65514047D02*
X72566904Y-65514047D01*
X72681190Y-65437857D01*
X72757380Y-65361666D01*
X72795476Y-65285476D01*
X72643095Y-66047380D02*
X72605000Y-66085476D01*
X72566904Y-66161666D01*
X72566904Y-66352142D01*
X72605000Y-66428333D01*
X72643095Y-66466428D01*
X72719285Y-66504523D01*
X72795476Y-66504523D01*
X72909761Y-66466428D01*
X73366904Y-66009285D01*
X73366904Y-66504523D01*
%TO.C,D13*%
X73366904Y-84126171D02*
X72566904Y-84126171D01*
X72566904Y-84316647D01*
X72605000Y-84430933D01*
X72681190Y-84507123D01*
X72757380Y-84545219D01*
X72909761Y-84583314D01*
X73024047Y-84583314D01*
X73176428Y-84545219D01*
X73252619Y-84507123D01*
X73328809Y-84430933D01*
X73366904Y-84316647D01*
X73366904Y-84126171D01*
X73366904Y-85345219D02*
X73366904Y-84888076D01*
X73366904Y-85116647D02*
X72566904Y-85116647D01*
X72681190Y-85040457D01*
X72757380Y-84964266D01*
X72795476Y-84888076D01*
X72566904Y-85611885D02*
X72566904Y-86107123D01*
X72871666Y-85840457D01*
X72871666Y-85954742D01*
X72909761Y-86030933D01*
X72947857Y-86069028D01*
X73024047Y-86107123D01*
X73214523Y-86107123D01*
X73290714Y-86069028D01*
X73328809Y-86030933D01*
X73366904Y-85954742D01*
X73366904Y-85726171D01*
X73328809Y-85649980D01*
X73290714Y-85611885D01*
%TO.C,D14*%
X73366904Y-103258571D02*
X72566904Y-103258571D01*
X72566904Y-103449047D01*
X72605000Y-103563333D01*
X72681190Y-103639523D01*
X72757380Y-103677619D01*
X72909761Y-103715714D01*
X73024047Y-103715714D01*
X73176428Y-103677619D01*
X73252619Y-103639523D01*
X73328809Y-103563333D01*
X73366904Y-103449047D01*
X73366904Y-103258571D01*
X73366904Y-104477619D02*
X73366904Y-104020476D01*
X73366904Y-104249047D02*
X72566904Y-104249047D01*
X72681190Y-104172857D01*
X72757380Y-104096666D01*
X72795476Y-104020476D01*
X72833571Y-105163333D02*
X73366904Y-105163333D01*
X72528809Y-104972857D02*
X73100238Y-104782380D01*
X73100238Y-105277619D01*
%TO.C,D15*%
X73366904Y-122378571D02*
X72566904Y-122378571D01*
X72566904Y-122569047D01*
X72605000Y-122683333D01*
X72681190Y-122759523D01*
X72757380Y-122797619D01*
X72909761Y-122835714D01*
X73024047Y-122835714D01*
X73176428Y-122797619D01*
X73252619Y-122759523D01*
X73328809Y-122683333D01*
X73366904Y-122569047D01*
X73366904Y-122378571D01*
X73366904Y-123597619D02*
X73366904Y-123140476D01*
X73366904Y-123369047D02*
X72566904Y-123369047D01*
X72681190Y-123292857D01*
X72757380Y-123216666D01*
X72795476Y-123140476D01*
X72566904Y-124321428D02*
X72566904Y-123940476D01*
X72947857Y-123902380D01*
X72909761Y-123940476D01*
X72871666Y-124016666D01*
X72871666Y-124207142D01*
X72909761Y-124283333D01*
X72947857Y-124321428D01*
X73024047Y-124359523D01*
X73214523Y-124359523D01*
X73290714Y-124321428D01*
X73328809Y-124283333D01*
X73366904Y-124207142D01*
X73366904Y-124016666D01*
X73328809Y-123940476D01*
X73290714Y-123902380D01*
%TO.C,D16*%
X92416904Y-42298571D02*
X91616904Y-42298571D01*
X91616904Y-42489047D01*
X91655000Y-42603333D01*
X91731190Y-42679523D01*
X91807380Y-42717619D01*
X91959761Y-42755714D01*
X92074047Y-42755714D01*
X92226428Y-42717619D01*
X92302619Y-42679523D01*
X92378809Y-42603333D01*
X92416904Y-42489047D01*
X92416904Y-42298571D01*
X92416904Y-43517619D02*
X92416904Y-43060476D01*
X92416904Y-43289047D02*
X91616904Y-43289047D01*
X91731190Y-43212857D01*
X91807380Y-43136666D01*
X91845476Y-43060476D01*
X91616904Y-44203333D02*
X91616904Y-44050952D01*
X91655000Y-43974761D01*
X91693095Y-43936666D01*
X91807380Y-43860476D01*
X91959761Y-43822380D01*
X92264523Y-43822380D01*
X92340714Y-43860476D01*
X92378809Y-43898571D01*
X92416904Y-43974761D01*
X92416904Y-44127142D01*
X92378809Y-44203333D01*
X92340714Y-44241428D01*
X92264523Y-44279523D01*
X92074047Y-44279523D01*
X91997857Y-44241428D01*
X91959761Y-44203333D01*
X91921666Y-44127142D01*
X91921666Y-43974761D01*
X91959761Y-43898571D01*
X91997857Y-43860476D01*
X92074047Y-43822380D01*
%TO.C,D17*%
X92416904Y-61348571D02*
X91616904Y-61348571D01*
X91616904Y-61539047D01*
X91655000Y-61653333D01*
X91731190Y-61729523D01*
X91807380Y-61767619D01*
X91959761Y-61805714D01*
X92074047Y-61805714D01*
X92226428Y-61767619D01*
X92302619Y-61729523D01*
X92378809Y-61653333D01*
X92416904Y-61539047D01*
X92416904Y-61348571D01*
X92416904Y-62567619D02*
X92416904Y-62110476D01*
X92416904Y-62339047D02*
X91616904Y-62339047D01*
X91731190Y-62262857D01*
X91807380Y-62186666D01*
X91845476Y-62110476D01*
X91616904Y-62834285D02*
X91616904Y-63367619D01*
X92416904Y-63024761D01*
%TO.C,D18*%
X92416904Y-80398571D02*
X91616904Y-80398571D01*
X91616904Y-80589047D01*
X91655000Y-80703333D01*
X91731190Y-80779523D01*
X91807380Y-80817619D01*
X91959761Y-80855714D01*
X92074047Y-80855714D01*
X92226428Y-80817619D01*
X92302619Y-80779523D01*
X92378809Y-80703333D01*
X92416904Y-80589047D01*
X92416904Y-80398571D01*
X92416904Y-81617619D02*
X92416904Y-81160476D01*
X92416904Y-81389047D02*
X91616904Y-81389047D01*
X91731190Y-81312857D01*
X91807380Y-81236666D01*
X91845476Y-81160476D01*
X91959761Y-82074761D02*
X91921666Y-81998571D01*
X91883571Y-81960476D01*
X91807380Y-81922380D01*
X91769285Y-81922380D01*
X91693095Y-81960476D01*
X91655000Y-81998571D01*
X91616904Y-82074761D01*
X91616904Y-82227142D01*
X91655000Y-82303333D01*
X91693095Y-82341428D01*
X91769285Y-82379523D01*
X91807380Y-82379523D01*
X91883571Y-82341428D01*
X91921666Y-82303333D01*
X91959761Y-82227142D01*
X91959761Y-82074761D01*
X91997857Y-81998571D01*
X92035952Y-81960476D01*
X92112142Y-81922380D01*
X92264523Y-81922380D01*
X92340714Y-81960476D01*
X92378809Y-81998571D01*
X92416904Y-82074761D01*
X92416904Y-82227142D01*
X92378809Y-82303333D01*
X92340714Y-82341428D01*
X92264523Y-82379523D01*
X92112142Y-82379523D01*
X92035952Y-82341428D01*
X91997857Y-82303333D01*
X91959761Y-82227142D01*
%TO.C,D19*%
X92416904Y-99448571D02*
X91616904Y-99448571D01*
X91616904Y-99639047D01*
X91655000Y-99753333D01*
X91731190Y-99829523D01*
X91807380Y-99867619D01*
X91959761Y-99905714D01*
X92074047Y-99905714D01*
X92226428Y-99867619D01*
X92302619Y-99829523D01*
X92378809Y-99753333D01*
X92416904Y-99639047D01*
X92416904Y-99448571D01*
X92416904Y-100667619D02*
X92416904Y-100210476D01*
X92416904Y-100439047D02*
X91616904Y-100439047D01*
X91731190Y-100362857D01*
X91807380Y-100286666D01*
X91845476Y-100210476D01*
X92416904Y-101048571D02*
X92416904Y-101200952D01*
X92378809Y-101277142D01*
X92340714Y-101315238D01*
X92226428Y-101391428D01*
X92074047Y-101429523D01*
X91769285Y-101429523D01*
X91693095Y-101391428D01*
X91655000Y-101353333D01*
X91616904Y-101277142D01*
X91616904Y-101124761D01*
X91655000Y-101048571D01*
X91693095Y-101010476D01*
X91769285Y-100972380D01*
X91959761Y-100972380D01*
X92035952Y-101010476D01*
X92074047Y-101048571D01*
X92112142Y-101124761D01*
X92112142Y-101277142D01*
X92074047Y-101353333D01*
X92035952Y-101391428D01*
X91959761Y-101429523D01*
%TO.C,D20*%
X125574965Y-131899715D02*
X124823211Y-131626099D01*
X124758064Y-131805088D01*
X124754774Y-131925511D01*
X124800311Y-132023165D01*
X124858877Y-132085021D01*
X124989039Y-132172937D01*
X125096432Y-132212025D01*
X125252653Y-132228344D01*
X125337278Y-132218605D01*
X125434932Y-132173068D01*
X125509818Y-132078704D01*
X125574965Y-131899715D01*
X124634220Y-132368114D02*
X124585392Y-132390882D01*
X124523536Y-132449449D01*
X124458389Y-132628438D01*
X124468128Y-132713063D01*
X124490897Y-132761890D01*
X124549463Y-132823746D01*
X124621059Y-132849805D01*
X124741482Y-132853095D01*
X125327407Y-132579873D01*
X125158026Y-133045245D01*
X124236891Y-133237000D02*
X124210832Y-133308596D01*
X124220571Y-133393221D01*
X124243339Y-133442048D01*
X124301906Y-133503905D01*
X124432068Y-133591820D01*
X124611057Y-133656967D01*
X124767277Y-133673286D01*
X124851902Y-133663547D01*
X124900729Y-133640779D01*
X124962586Y-133582212D01*
X124988645Y-133510617D01*
X124978905Y-133425992D01*
X124956137Y-133377164D01*
X124897571Y-133315308D01*
X124767409Y-133227393D01*
X124588420Y-133162246D01*
X124432199Y-133145927D01*
X124347574Y-133155666D01*
X124298747Y-133178434D01*
X124236891Y-133237000D01*
%TO.C,D21*%
X111466904Y-46108571D02*
X110666904Y-46108571D01*
X110666904Y-46299047D01*
X110705000Y-46413333D01*
X110781190Y-46489523D01*
X110857380Y-46527619D01*
X111009761Y-46565714D01*
X111124047Y-46565714D01*
X111276428Y-46527619D01*
X111352619Y-46489523D01*
X111428809Y-46413333D01*
X111466904Y-46299047D01*
X111466904Y-46108571D01*
X110743095Y-46870476D02*
X110705000Y-46908571D01*
X110666904Y-46984761D01*
X110666904Y-47175238D01*
X110705000Y-47251428D01*
X110743095Y-47289523D01*
X110819285Y-47327619D01*
X110895476Y-47327619D01*
X111009761Y-47289523D01*
X111466904Y-46832380D01*
X111466904Y-47327619D01*
X111466904Y-48089523D02*
X111466904Y-47632380D01*
X111466904Y-47860952D02*
X110666904Y-47860952D01*
X110781190Y-47784761D01*
X110857380Y-47708571D01*
X110895476Y-47632380D01*
%TO.C,D22*%
X111466904Y-65158571D02*
X110666904Y-65158571D01*
X110666904Y-65349047D01*
X110705000Y-65463333D01*
X110781190Y-65539523D01*
X110857380Y-65577619D01*
X111009761Y-65615714D01*
X111124047Y-65615714D01*
X111276428Y-65577619D01*
X111352619Y-65539523D01*
X111428809Y-65463333D01*
X111466904Y-65349047D01*
X111466904Y-65158571D01*
X110743095Y-65920476D02*
X110705000Y-65958571D01*
X110666904Y-66034761D01*
X110666904Y-66225238D01*
X110705000Y-66301428D01*
X110743095Y-66339523D01*
X110819285Y-66377619D01*
X110895476Y-66377619D01*
X111009761Y-66339523D01*
X111466904Y-65882380D01*
X111466904Y-66377619D01*
X110743095Y-66682380D02*
X110705000Y-66720476D01*
X110666904Y-66796666D01*
X110666904Y-66987142D01*
X110705000Y-67063333D01*
X110743095Y-67101428D01*
X110819285Y-67139523D01*
X110895476Y-67139523D01*
X111009761Y-67101428D01*
X111466904Y-66644285D01*
X111466904Y-67139523D01*
%TO.C,D23*%
X111466904Y-84208571D02*
X110666904Y-84208571D01*
X110666904Y-84399047D01*
X110705000Y-84513333D01*
X110781190Y-84589523D01*
X110857380Y-84627619D01*
X111009761Y-84665714D01*
X111124047Y-84665714D01*
X111276428Y-84627619D01*
X111352619Y-84589523D01*
X111428809Y-84513333D01*
X111466904Y-84399047D01*
X111466904Y-84208571D01*
X110743095Y-84970476D02*
X110705000Y-85008571D01*
X110666904Y-85084761D01*
X110666904Y-85275238D01*
X110705000Y-85351428D01*
X110743095Y-85389523D01*
X110819285Y-85427619D01*
X110895476Y-85427619D01*
X111009761Y-85389523D01*
X111466904Y-84932380D01*
X111466904Y-85427619D01*
X110666904Y-85694285D02*
X110666904Y-86189523D01*
X110971666Y-85922857D01*
X110971666Y-86037142D01*
X111009761Y-86113333D01*
X111047857Y-86151428D01*
X111124047Y-86189523D01*
X111314523Y-86189523D01*
X111390714Y-86151428D01*
X111428809Y-86113333D01*
X111466904Y-86037142D01*
X111466904Y-85808571D01*
X111428809Y-85732380D01*
X111390714Y-85694285D01*
%TO.C,D24*%
X111466904Y-103328571D02*
X110666904Y-103328571D01*
X110666904Y-103519047D01*
X110705000Y-103633333D01*
X110781190Y-103709523D01*
X110857380Y-103747619D01*
X111009761Y-103785714D01*
X111124047Y-103785714D01*
X111276428Y-103747619D01*
X111352619Y-103709523D01*
X111428809Y-103633333D01*
X111466904Y-103519047D01*
X111466904Y-103328571D01*
X110743095Y-104090476D02*
X110705000Y-104128571D01*
X110666904Y-104204761D01*
X110666904Y-104395238D01*
X110705000Y-104471428D01*
X110743095Y-104509523D01*
X110819285Y-104547619D01*
X110895476Y-104547619D01*
X111009761Y-104509523D01*
X111466904Y-104052380D01*
X111466904Y-104547619D01*
X110933571Y-105233333D02*
X111466904Y-105233333D01*
X110628809Y-105042857D02*
X111200238Y-104852380D01*
X111200238Y-105347619D01*
%TO.C,D25*%
X143903687Y-140601394D02*
X143178641Y-140263299D01*
X143098142Y-140435929D01*
X143084369Y-140555607D01*
X143121221Y-140656859D01*
X143174174Y-140723584D01*
X143296178Y-140822509D01*
X143399756Y-140870808D01*
X143553960Y-140900681D01*
X143639112Y-140898355D01*
X143740363Y-140861502D01*
X143823188Y-140774024D01*
X143903687Y-140601394D01*
X142925698Y-140986019D02*
X142875072Y-141004445D01*
X142808347Y-141057397D01*
X142727848Y-141230027D01*
X142730175Y-141315179D01*
X142748601Y-141365805D01*
X142801553Y-141432530D01*
X142870605Y-141464730D01*
X142990283Y-141478503D01*
X143597792Y-141257388D01*
X143388495Y-141706226D01*
X142357554Y-142024126D02*
X142518551Y-141678866D01*
X142879911Y-141805337D01*
X142829285Y-141823763D01*
X142762560Y-141876716D01*
X142682061Y-142049346D01*
X142684388Y-142134497D01*
X142702814Y-142185123D01*
X142755766Y-142251849D01*
X142928396Y-142332347D01*
X143013548Y-142330021D01*
X143064174Y-142311595D01*
X143130899Y-142258642D01*
X143211398Y-142086012D01*
X143209072Y-142000860D01*
X143190645Y-141950235D01*
%TO.C,D26*%
X130516904Y-49918571D02*
X129716904Y-49918571D01*
X129716904Y-50109047D01*
X129755000Y-50223333D01*
X129831190Y-50299523D01*
X129907380Y-50337619D01*
X130059761Y-50375714D01*
X130174047Y-50375714D01*
X130326428Y-50337619D01*
X130402619Y-50299523D01*
X130478809Y-50223333D01*
X130516904Y-50109047D01*
X130516904Y-49918571D01*
X129793095Y-50680476D02*
X129755000Y-50718571D01*
X129716904Y-50794761D01*
X129716904Y-50985238D01*
X129755000Y-51061428D01*
X129793095Y-51099523D01*
X129869285Y-51137619D01*
X129945476Y-51137619D01*
X130059761Y-51099523D01*
X130516904Y-50642380D01*
X130516904Y-51137619D01*
X129716904Y-51823333D02*
X129716904Y-51670952D01*
X129755000Y-51594761D01*
X129793095Y-51556666D01*
X129907380Y-51480476D01*
X130059761Y-51442380D01*
X130364523Y-51442380D01*
X130440714Y-51480476D01*
X130478809Y-51518571D01*
X130516904Y-51594761D01*
X130516904Y-51747142D01*
X130478809Y-51823333D01*
X130440714Y-51861428D01*
X130364523Y-51899523D01*
X130174047Y-51899523D01*
X130097857Y-51861428D01*
X130059761Y-51823333D01*
X130021666Y-51747142D01*
X130021666Y-51594761D01*
X130059761Y-51518571D01*
X130097857Y-51480476D01*
X130174047Y-51442380D01*
%TO.C,D27*%
X130516904Y-68968571D02*
X129716904Y-68968571D01*
X129716904Y-69159047D01*
X129755000Y-69273333D01*
X129831190Y-69349523D01*
X129907380Y-69387619D01*
X130059761Y-69425714D01*
X130174047Y-69425714D01*
X130326428Y-69387619D01*
X130402619Y-69349523D01*
X130478809Y-69273333D01*
X130516904Y-69159047D01*
X130516904Y-68968571D01*
X129793095Y-69730476D02*
X129755000Y-69768571D01*
X129716904Y-69844761D01*
X129716904Y-70035238D01*
X129755000Y-70111428D01*
X129793095Y-70149523D01*
X129869285Y-70187619D01*
X129945476Y-70187619D01*
X130059761Y-70149523D01*
X130516904Y-69692380D01*
X130516904Y-70187619D01*
X129716904Y-70454285D02*
X129716904Y-70987619D01*
X130516904Y-70644761D01*
%TO.C,D28*%
X130516904Y-88018571D02*
X129716904Y-88018571D01*
X129716904Y-88209047D01*
X129755000Y-88323333D01*
X129831190Y-88399523D01*
X129907380Y-88437619D01*
X130059761Y-88475714D01*
X130174047Y-88475714D01*
X130326428Y-88437619D01*
X130402619Y-88399523D01*
X130478809Y-88323333D01*
X130516904Y-88209047D01*
X130516904Y-88018571D01*
X129793095Y-88780476D02*
X129755000Y-88818571D01*
X129716904Y-88894761D01*
X129716904Y-89085238D01*
X129755000Y-89161428D01*
X129793095Y-89199523D01*
X129869285Y-89237619D01*
X129945476Y-89237619D01*
X130059761Y-89199523D01*
X130516904Y-88742380D01*
X130516904Y-89237619D01*
X130059761Y-89694761D02*
X130021666Y-89618571D01*
X129983571Y-89580476D01*
X129907380Y-89542380D01*
X129869285Y-89542380D01*
X129793095Y-89580476D01*
X129755000Y-89618571D01*
X129716904Y-89694761D01*
X129716904Y-89847142D01*
X129755000Y-89923333D01*
X129793095Y-89961428D01*
X129869285Y-89999523D01*
X129907380Y-89999523D01*
X129983571Y-89961428D01*
X130021666Y-89923333D01*
X130059761Y-89847142D01*
X130059761Y-89694761D01*
X130097857Y-89618571D01*
X130135952Y-89580476D01*
X130212142Y-89542380D01*
X130364523Y-89542380D01*
X130440714Y-89580476D01*
X130478809Y-89618571D01*
X130516904Y-89694761D01*
X130516904Y-89847142D01*
X130478809Y-89923333D01*
X130440714Y-89961428D01*
X130364523Y-89999523D01*
X130212142Y-89999523D01*
X130135952Y-89961428D01*
X130097857Y-89923333D01*
X130059761Y-89847142D01*
%TO.C,D29*%
X130516904Y-107068571D02*
X129716904Y-107068571D01*
X129716904Y-107259047D01*
X129755000Y-107373333D01*
X129831190Y-107449523D01*
X129907380Y-107487619D01*
X130059761Y-107525714D01*
X130174047Y-107525714D01*
X130326428Y-107487619D01*
X130402619Y-107449523D01*
X130478809Y-107373333D01*
X130516904Y-107259047D01*
X130516904Y-107068571D01*
X129793095Y-107830476D02*
X129755000Y-107868571D01*
X129716904Y-107944761D01*
X129716904Y-108135238D01*
X129755000Y-108211428D01*
X129793095Y-108249523D01*
X129869285Y-108287619D01*
X129945476Y-108287619D01*
X130059761Y-108249523D01*
X130516904Y-107792380D01*
X130516904Y-108287619D01*
X130516904Y-108668571D02*
X130516904Y-108820952D01*
X130478809Y-108897142D01*
X130440714Y-108935238D01*
X130326428Y-109011428D01*
X130174047Y-109049523D01*
X129869285Y-109049523D01*
X129793095Y-109011428D01*
X129755000Y-108973333D01*
X129716904Y-108897142D01*
X129716904Y-108744761D01*
X129755000Y-108668571D01*
X129793095Y-108630476D01*
X129869285Y-108592380D01*
X130059761Y-108592380D01*
X130135952Y-108630476D01*
X130174047Y-108668571D01*
X130212142Y-108744761D01*
X130212142Y-108897142D01*
X130174047Y-108973333D01*
X130135952Y-109011428D01*
X130059761Y-109049523D01*
%TO.C,D30*%
X161612034Y-149940439D02*
X160919213Y-149540439D01*
X160823975Y-149705396D01*
X160799824Y-149823418D01*
X160827711Y-149927496D01*
X160874647Y-149998583D01*
X160987565Y-150107765D01*
X161086539Y-150164908D01*
X161237552Y-150208107D01*
X161322583Y-150213211D01*
X161426661Y-150185323D01*
X161516795Y-150105396D01*
X161612034Y-149940439D01*
X160557308Y-150167276D02*
X160309689Y-150596165D01*
X160706954Y-150517606D01*
X160649811Y-150616580D01*
X160644708Y-150701611D01*
X160658651Y-150753650D01*
X160705587Y-150824737D01*
X160870544Y-150919975D01*
X160955574Y-150925079D01*
X161007613Y-150911135D01*
X161078700Y-150864199D01*
X161192986Y-150666251D01*
X161198090Y-150581220D01*
X161184146Y-150529181D01*
X160062070Y-151025054D02*
X160023975Y-151091037D01*
X160018871Y-151176067D01*
X160032815Y-151228106D01*
X160079750Y-151299193D01*
X160192669Y-151408375D01*
X160357626Y-151503613D01*
X160508639Y-151546812D01*
X160593670Y-151551916D01*
X160645709Y-151537972D01*
X160716795Y-151491037D01*
X160754891Y-151425054D01*
X160759994Y-151340024D01*
X160746051Y-151287984D01*
X160699115Y-151216898D01*
X160586197Y-151107716D01*
X160421240Y-151012478D01*
X160270227Y-150969279D01*
X160185196Y-150964175D01*
X160133157Y-150978119D01*
X160062070Y-151025054D01*
%TO.C,D31*%
X149566904Y-53728571D02*
X148766904Y-53728571D01*
X148766904Y-53919047D01*
X148805000Y-54033333D01*
X148881190Y-54109523D01*
X148957380Y-54147619D01*
X149109761Y-54185714D01*
X149224047Y-54185714D01*
X149376428Y-54147619D01*
X149452619Y-54109523D01*
X149528809Y-54033333D01*
X149566904Y-53919047D01*
X149566904Y-53728571D01*
X148766904Y-54452380D02*
X148766904Y-54947619D01*
X149071666Y-54680952D01*
X149071666Y-54795238D01*
X149109761Y-54871428D01*
X149147857Y-54909523D01*
X149224047Y-54947619D01*
X149414523Y-54947619D01*
X149490714Y-54909523D01*
X149528809Y-54871428D01*
X149566904Y-54795238D01*
X149566904Y-54566666D01*
X149528809Y-54490476D01*
X149490714Y-54452380D01*
X149566904Y-55709523D02*
X149566904Y-55252380D01*
X149566904Y-55480952D02*
X148766904Y-55480952D01*
X148881190Y-55404761D01*
X148957380Y-55328571D01*
X148995476Y-55252380D01*
%TO.C,D32*%
X149566904Y-72598571D02*
X148766904Y-72598571D01*
X148766904Y-72789047D01*
X148805000Y-72903333D01*
X148881190Y-72979523D01*
X148957380Y-73017619D01*
X149109761Y-73055714D01*
X149224047Y-73055714D01*
X149376428Y-73017619D01*
X149452619Y-72979523D01*
X149528809Y-72903333D01*
X149566904Y-72789047D01*
X149566904Y-72598571D01*
X148766904Y-73322380D02*
X148766904Y-73817619D01*
X149071666Y-73550952D01*
X149071666Y-73665238D01*
X149109761Y-73741428D01*
X149147857Y-73779523D01*
X149224047Y-73817619D01*
X149414523Y-73817619D01*
X149490714Y-73779523D01*
X149528809Y-73741428D01*
X149566904Y-73665238D01*
X149566904Y-73436666D01*
X149528809Y-73360476D01*
X149490714Y-73322380D01*
X148843095Y-74122380D02*
X148805000Y-74160476D01*
X148766904Y-74236666D01*
X148766904Y-74427142D01*
X148805000Y-74503333D01*
X148843095Y-74541428D01*
X148919285Y-74579523D01*
X148995476Y-74579523D01*
X149109761Y-74541428D01*
X149566904Y-74084285D01*
X149566904Y-74579523D01*
%TO.C,D33*%
X149566904Y-91828571D02*
X148766904Y-91828571D01*
X148766904Y-92019047D01*
X148805000Y-92133333D01*
X148881190Y-92209523D01*
X148957380Y-92247619D01*
X149109761Y-92285714D01*
X149224047Y-92285714D01*
X149376428Y-92247619D01*
X149452619Y-92209523D01*
X149528809Y-92133333D01*
X149566904Y-92019047D01*
X149566904Y-91828571D01*
X148766904Y-92552380D02*
X148766904Y-93047619D01*
X149071666Y-92780952D01*
X149071666Y-92895238D01*
X149109761Y-92971428D01*
X149147857Y-93009523D01*
X149224047Y-93047619D01*
X149414523Y-93047619D01*
X149490714Y-93009523D01*
X149528809Y-92971428D01*
X149566904Y-92895238D01*
X149566904Y-92666666D01*
X149528809Y-92590476D01*
X149490714Y-92552380D01*
X148766904Y-93314285D02*
X148766904Y-93809523D01*
X149071666Y-93542857D01*
X149071666Y-93657142D01*
X149109761Y-93733333D01*
X149147857Y-93771428D01*
X149224047Y-93809523D01*
X149414523Y-93809523D01*
X149490714Y-93771428D01*
X149528809Y-93733333D01*
X149566904Y-93657142D01*
X149566904Y-93428571D01*
X149528809Y-93352380D01*
X149490714Y-93314285D01*
%TO.C,D34*%
X152792829Y-121556025D02*
X152067783Y-121217930D01*
X151987284Y-121390560D01*
X151973511Y-121510238D01*
X152010363Y-121611490D01*
X152063316Y-121678215D01*
X152185320Y-121777140D01*
X152288898Y-121825439D01*
X152443102Y-121855312D01*
X152528254Y-121852986D01*
X152629505Y-121816133D01*
X152712330Y-121728655D01*
X152792829Y-121556025D01*
X151761888Y-121873924D02*
X151552591Y-122322763D01*
X151941497Y-122209878D01*
X151893198Y-122313456D01*
X151895525Y-122398608D01*
X151913951Y-122449234D01*
X151966903Y-122515959D01*
X152139533Y-122596458D01*
X152224685Y-122594132D01*
X152275311Y-122575705D01*
X152342036Y-122522753D01*
X152438635Y-122315597D01*
X152436308Y-122230445D01*
X152417882Y-122179820D01*
X151504478Y-123056929D02*
X151987842Y-123282325D01*
X151308768Y-122755501D02*
X151907157Y-122824367D01*
X151697861Y-123273205D01*
%TO.C,D35*%
X171772034Y-132160439D02*
X171079213Y-131760439D01*
X170983975Y-131925396D01*
X170959824Y-132043418D01*
X170987711Y-132147496D01*
X171034647Y-132218583D01*
X171147565Y-132327765D01*
X171246539Y-132384908D01*
X171397552Y-132428107D01*
X171482583Y-132433211D01*
X171586661Y-132405323D01*
X171676795Y-132325396D01*
X171772034Y-132160439D01*
X170717308Y-132387276D02*
X170469689Y-132816165D01*
X170866954Y-132737606D01*
X170809811Y-132836580D01*
X170804708Y-132921611D01*
X170818651Y-132973650D01*
X170865587Y-133044737D01*
X171030544Y-133139975D01*
X171115574Y-133145079D01*
X171167613Y-133131135D01*
X171238700Y-133084199D01*
X171352986Y-132886251D01*
X171358090Y-132801220D01*
X171344146Y-132749181D01*
X170107785Y-133443003D02*
X170298261Y-133113088D01*
X170647223Y-133270573D01*
X170595184Y-133284517D01*
X170524097Y-133331452D01*
X170428859Y-133496409D01*
X170423755Y-133581440D01*
X170437699Y-133633479D01*
X170484634Y-133704566D01*
X170649592Y-133799804D01*
X170734622Y-133804907D01*
X170786661Y-133790964D01*
X170857748Y-133744028D01*
X170952986Y-133579071D01*
X170958090Y-133494041D01*
X170944146Y-133442002D01*
%TD*%
M02*
