%TF.GenerationSoftware,KiCad,Pcbnew,(5.1.6)-1*%
%TF.CreationDate,2020-06-18T19:24:29+02:00*%
%TF.ProjectId,splitkb,73706c69-746b-4622-9e6b-696361645f70,rev?*%
%TF.SameCoordinates,Original*%
%TF.FileFunction,Legend,Top*%
%TF.FilePolarity,Positive*%
%FSLAX46Y46*%
G04 Gerber Fmt 4.6, Leading zero omitted, Abs format (unit mm)*
G04 Created by KiCad (PCBNEW (5.1.6)-1) date 2020-06-18 19:24:29*
%MOMM*%
%LPD*%
G01*
G04 APERTURE LIST*
%ADD10C,0.500000*%
%ADD11C,0.150000*%
%ADD12C,0.200000*%
%ADD13C,0.120000*%
G04 APERTURE END LIST*
D10*
X79776276Y-121189523D02*
X79776276Y-117189523D01*
X82061990Y-121189523D02*
X80347704Y-118903809D01*
X82061990Y-117189523D02*
X79776276Y-119475238D01*
X83776276Y-119094285D02*
X85109609Y-119094285D01*
X85681038Y-121189523D02*
X83776276Y-121189523D01*
X83776276Y-117189523D01*
X85681038Y-117189523D01*
X87395323Y-121189523D02*
X87395323Y-117189523D01*
X89681038Y-121189523D02*
X87966752Y-118903809D01*
X89681038Y-117189523D02*
X87395323Y-119475238D01*
X94061990Y-118522857D02*
X95014371Y-121189523D01*
X95966752Y-118522857D01*
X99585800Y-121189523D02*
X97300085Y-121189523D01*
X98442942Y-121189523D02*
X98442942Y-117189523D01*
X98061990Y-117760952D01*
X97681038Y-118141904D01*
X97300085Y-118332380D01*
D11*
%TO.C,U1*%
X173355000Y-73025000D02*
X155575000Y-73025000D01*
X173355000Y-42545000D02*
X173355000Y-73025000D01*
X168275000Y-42545000D02*
X173355000Y-42545000D01*
X168275000Y-40005000D02*
X168275000Y-42545000D01*
X160655000Y-40005000D02*
X168275000Y-40005000D01*
X160655000Y-42545000D02*
X160655000Y-40005000D01*
X155575000Y-42545000D02*
X160655000Y-42545000D01*
X155575000Y-42545000D02*
X155575000Y-73025000D01*
D12*
%TO.C,D35*%
X175079230Y-131958398D02*
X172179230Y-136981345D01*
X173000770Y-130758398D02*
X175079230Y-131958398D01*
X170100770Y-135781345D02*
X173000770Y-130758398D01*
X170138270Y-135716393D02*
X172216730Y-136916393D01*
X170200770Y-135608140D02*
X172279230Y-136808140D01*
X172166730Y-137002996D02*
X170088270Y-135802996D01*
X170288270Y-135456586D02*
X172366730Y-136656586D01*
X170375770Y-135305031D02*
X172454230Y-136505031D01*
X170463270Y-135153477D02*
X172541730Y-136353477D01*
%TO.C,D34*%
X156069831Y-121066511D02*
X153618646Y-126323096D01*
X153894693Y-120052227D02*
X156069831Y-121066511D01*
X151443507Y-125308812D02*
X153894693Y-120052227D01*
X151475203Y-125240839D02*
X153650342Y-126255123D01*
X151528031Y-125127551D02*
X153703169Y-126141835D01*
X153608080Y-126345754D02*
X151432941Y-125331470D01*
X151601989Y-124968947D02*
X153777127Y-125983231D01*
X151675947Y-124810343D02*
X153851086Y-125824627D01*
X151749905Y-124651739D02*
X153925044Y-125666023D01*
%TO.C,D33*%
X152330000Y-90000000D02*
X152330000Y-95800000D01*
X149930000Y-90000000D02*
X152330000Y-90000000D01*
X149930000Y-95800000D02*
X149930000Y-90000000D01*
X149930000Y-95725000D02*
X152330000Y-95725000D01*
X149930000Y-95600000D02*
X152330000Y-95600000D01*
X152330000Y-95825000D02*
X149930000Y-95825000D01*
X149930000Y-95425000D02*
X152330000Y-95425000D01*
X149930000Y-95250000D02*
X152330000Y-95250000D01*
X149930000Y-95075000D02*
X152330000Y-95075000D01*
%TO.C,D32*%
X152330000Y-70769660D02*
X152330000Y-76569660D01*
X149930000Y-70769660D02*
X152330000Y-70769660D01*
X149930000Y-76569660D02*
X149930000Y-70769660D01*
X149930000Y-76494660D02*
X152330000Y-76494660D01*
X149930000Y-76369660D02*
X152330000Y-76369660D01*
X152330000Y-76594660D02*
X149930000Y-76594660D01*
X149930000Y-76194660D02*
X152330000Y-76194660D01*
X149930000Y-76019660D02*
X152330000Y-76019660D01*
X149930000Y-75844660D02*
X152330000Y-75844660D01*
%TO.C,D31*%
X152330000Y-51900000D02*
X152330000Y-57700000D01*
X149930000Y-51900000D02*
X152330000Y-51900000D01*
X149930000Y-57700000D02*
X149930000Y-51900000D01*
X149930000Y-57625000D02*
X152330000Y-57625000D01*
X149930000Y-57500000D02*
X152330000Y-57500000D01*
X152330000Y-57725000D02*
X149930000Y-57725000D01*
X149930000Y-57325000D02*
X152330000Y-57325000D01*
X149930000Y-57150000D02*
X152330000Y-57150000D01*
X149930000Y-56975000D02*
X152330000Y-56975000D01*
%TO.C,D30*%
X164919230Y-149738398D02*
X162019230Y-154761345D01*
X162840770Y-148538398D02*
X164919230Y-149738398D01*
X159940770Y-153561345D02*
X162840770Y-148538398D01*
X159978270Y-153496393D02*
X162056730Y-154696393D01*
X160040770Y-153388140D02*
X162119230Y-154588140D01*
X162006730Y-154782996D02*
X159928270Y-153582996D01*
X160128270Y-153236586D02*
X162206730Y-154436586D01*
X160215770Y-153085031D02*
X162294230Y-154285031D01*
X160303270Y-152933477D02*
X162381730Y-154133477D01*
%TO.C,D29*%
X133280000Y-105240000D02*
X133280000Y-111040000D01*
X130880000Y-105240000D02*
X133280000Y-105240000D01*
X130880000Y-111040000D02*
X130880000Y-105240000D01*
X130880000Y-110965000D02*
X133280000Y-110965000D01*
X130880000Y-110840000D02*
X133280000Y-110840000D01*
X133280000Y-111065000D02*
X130880000Y-111065000D01*
X130880000Y-110665000D02*
X133280000Y-110665000D01*
X130880000Y-110490000D02*
X133280000Y-110490000D01*
X130880000Y-110315000D02*
X133280000Y-110315000D01*
%TO.C,D28*%
X133280000Y-86190000D02*
X133280000Y-91990000D01*
X130880000Y-86190000D02*
X133280000Y-86190000D01*
X130880000Y-91990000D02*
X130880000Y-86190000D01*
X130880000Y-91915000D02*
X133280000Y-91915000D01*
X130880000Y-91790000D02*
X133280000Y-91790000D01*
X133280000Y-92015000D02*
X130880000Y-92015000D01*
X130880000Y-91615000D02*
X133280000Y-91615000D01*
X130880000Y-91440000D02*
X133280000Y-91440000D01*
X130880000Y-91265000D02*
X133280000Y-91265000D01*
%TO.C,D27*%
X133280000Y-67140000D02*
X133280000Y-72940000D01*
X130880000Y-67140000D02*
X133280000Y-67140000D01*
X130880000Y-72940000D02*
X130880000Y-67140000D01*
X130880000Y-72865000D02*
X133280000Y-72865000D01*
X130880000Y-72740000D02*
X133280000Y-72740000D01*
X133280000Y-72965000D02*
X130880000Y-72965000D01*
X130880000Y-72565000D02*
X133280000Y-72565000D01*
X130880000Y-72390000D02*
X133280000Y-72390000D01*
X130880000Y-72215000D02*
X133280000Y-72215000D01*
%TO.C,D26*%
X133280000Y-48090000D02*
X133280000Y-53890000D01*
X130880000Y-48090000D02*
X133280000Y-48090000D01*
X130880000Y-53890000D02*
X130880000Y-48090000D01*
X130880000Y-53815000D02*
X133280000Y-53815000D01*
X130880000Y-53690000D02*
X133280000Y-53690000D01*
X133280000Y-53915000D02*
X130880000Y-53915000D01*
X130880000Y-53515000D02*
X133280000Y-53515000D01*
X130880000Y-53340000D02*
X133280000Y-53340000D01*
X130880000Y-53165000D02*
X133280000Y-53165000D01*
%TO.C,D25*%
X147179831Y-140111880D02*
X144728646Y-145368465D01*
X145004693Y-139097596D02*
X147179831Y-140111880D01*
X142553507Y-144354181D02*
X145004693Y-139097596D01*
X142585203Y-144286208D02*
X144760342Y-145300492D01*
X142638031Y-144172920D02*
X144813169Y-145187204D01*
X144718080Y-145391123D02*
X142542941Y-144376839D01*
X142711989Y-144014316D02*
X144887127Y-145028600D01*
X142785947Y-143855712D02*
X144961086Y-144869996D01*
X142859905Y-143697108D02*
X145035044Y-144711392D01*
%TO.C,D24*%
X114230000Y-101498920D02*
X114230000Y-107298920D01*
X111830000Y-101498920D02*
X114230000Y-101498920D01*
X111830000Y-107298920D02*
X111830000Y-101498920D01*
X111830000Y-107223920D02*
X114230000Y-107223920D01*
X111830000Y-107098920D02*
X114230000Y-107098920D01*
X114230000Y-107323920D02*
X111830000Y-107323920D01*
X111830000Y-106923920D02*
X114230000Y-106923920D01*
X111830000Y-106748920D02*
X114230000Y-106748920D01*
X111830000Y-106573920D02*
X114230000Y-106573920D01*
%TO.C,D23*%
X114230000Y-82380000D02*
X114230000Y-88180000D01*
X111830000Y-82380000D02*
X114230000Y-82380000D01*
X111830000Y-88180000D02*
X111830000Y-82380000D01*
X111830000Y-88105000D02*
X114230000Y-88105000D01*
X111830000Y-87980000D02*
X114230000Y-87980000D01*
X114230000Y-88205000D02*
X111830000Y-88205000D01*
X111830000Y-87805000D02*
X114230000Y-87805000D01*
X111830000Y-87630000D02*
X114230000Y-87630000D01*
X111830000Y-87455000D02*
X114230000Y-87455000D01*
%TO.C,D22*%
X114230000Y-63330000D02*
X114230000Y-69130000D01*
X111830000Y-63330000D02*
X114230000Y-63330000D01*
X111830000Y-69130000D02*
X111830000Y-63330000D01*
X111830000Y-69055000D02*
X114230000Y-69055000D01*
X111830000Y-68930000D02*
X114230000Y-68930000D01*
X114230000Y-69155000D02*
X111830000Y-69155000D01*
X111830000Y-68755000D02*
X114230000Y-68755000D01*
X111830000Y-68580000D02*
X114230000Y-68580000D01*
X111830000Y-68405000D02*
X114230000Y-68405000D01*
%TO.C,D21*%
X114230000Y-44280000D02*
X114230000Y-50080000D01*
X111830000Y-44280000D02*
X114230000Y-44280000D01*
X111830000Y-50080000D02*
X111830000Y-44280000D01*
X111830000Y-50005000D02*
X114230000Y-50005000D01*
X111830000Y-49880000D02*
X114230000Y-49880000D01*
X114230000Y-50105000D02*
X111830000Y-50105000D01*
X111830000Y-49705000D02*
X114230000Y-49705000D01*
X111830000Y-49530000D02*
X114230000Y-49530000D01*
X111830000Y-49355000D02*
X114230000Y-49355000D01*
%TO.C,D20*%
X128796834Y-131126455D02*
X126813117Y-136576672D01*
X126541571Y-130305606D02*
X128796834Y-131126455D01*
X124557854Y-135755824D02*
X126541571Y-130305606D01*
X124583506Y-135685347D02*
X126838768Y-136506195D01*
X124626258Y-135567885D02*
X126881521Y-136388734D01*
X126804566Y-136600164D02*
X124549304Y-135779316D01*
X124686112Y-135403439D02*
X126941374Y-136224287D01*
X124745966Y-135238993D02*
X127001228Y-136059841D01*
X124805819Y-135074547D02*
X127061081Y-135895395D01*
%TO.C,D19*%
X95180000Y-97620000D02*
X95180000Y-103420000D01*
X92780000Y-97620000D02*
X95180000Y-97620000D01*
X92780000Y-103420000D02*
X92780000Y-97620000D01*
X92780000Y-103345000D02*
X95180000Y-103345000D01*
X92780000Y-103220000D02*
X95180000Y-103220000D01*
X95180000Y-103445000D02*
X92780000Y-103445000D01*
X92780000Y-103045000D02*
X95180000Y-103045000D01*
X92780000Y-102870000D02*
X95180000Y-102870000D01*
X92780000Y-102695000D02*
X95180000Y-102695000D01*
%TO.C,D18*%
X95180000Y-78570000D02*
X95180000Y-84370000D01*
X92780000Y-78570000D02*
X95180000Y-78570000D01*
X92780000Y-84370000D02*
X92780000Y-78570000D01*
X92780000Y-84295000D02*
X95180000Y-84295000D01*
X92780000Y-84170000D02*
X95180000Y-84170000D01*
X95180000Y-84395000D02*
X92780000Y-84395000D01*
X92780000Y-83995000D02*
X95180000Y-83995000D01*
X92780000Y-83820000D02*
X95180000Y-83820000D01*
X92780000Y-83645000D02*
X95180000Y-83645000D01*
%TO.C,D17*%
X95180000Y-59520000D02*
X95180000Y-65320000D01*
X92780000Y-59520000D02*
X95180000Y-59520000D01*
X92780000Y-65320000D02*
X92780000Y-59520000D01*
X92780000Y-65245000D02*
X95180000Y-65245000D01*
X92780000Y-65120000D02*
X95180000Y-65120000D01*
X95180000Y-65345000D02*
X92780000Y-65345000D01*
X92780000Y-64945000D02*
X95180000Y-64945000D01*
X92780000Y-64770000D02*
X95180000Y-64770000D01*
X92780000Y-64595000D02*
X95180000Y-64595000D01*
%TO.C,D16*%
X95180000Y-40470000D02*
X95180000Y-46270000D01*
X92780000Y-40470000D02*
X95180000Y-40470000D01*
X92780000Y-46270000D02*
X92780000Y-40470000D01*
X92780000Y-46195000D02*
X95180000Y-46195000D01*
X92780000Y-46070000D02*
X95180000Y-46070000D01*
X95180000Y-46295000D02*
X92780000Y-46295000D01*
X92780000Y-45895000D02*
X95180000Y-45895000D01*
X92780000Y-45720000D02*
X95180000Y-45720000D01*
X92780000Y-45545000D02*
X95180000Y-45545000D01*
%TO.C,D15*%
X76130000Y-120550000D02*
X76130000Y-126350000D01*
X73730000Y-120550000D02*
X76130000Y-120550000D01*
X73730000Y-126350000D02*
X73730000Y-120550000D01*
X73730000Y-126275000D02*
X76130000Y-126275000D01*
X73730000Y-126150000D02*
X76130000Y-126150000D01*
X76130000Y-126375000D02*
X73730000Y-126375000D01*
X73730000Y-125975000D02*
X76130000Y-125975000D01*
X73730000Y-125800000D02*
X76130000Y-125800000D01*
X73730000Y-125625000D02*
X76130000Y-125625000D01*
%TO.C,D14*%
X76130000Y-101430000D02*
X76130000Y-107230000D01*
X73730000Y-101430000D02*
X76130000Y-101430000D01*
X73730000Y-107230000D02*
X73730000Y-101430000D01*
X73730000Y-107155000D02*
X76130000Y-107155000D01*
X73730000Y-107030000D02*
X76130000Y-107030000D01*
X76130000Y-107255000D02*
X73730000Y-107255000D01*
X73730000Y-106855000D02*
X76130000Y-106855000D01*
X73730000Y-106680000D02*
X76130000Y-106680000D01*
X73730000Y-106505000D02*
X76130000Y-106505000D01*
%TO.C,D13*%
X76130000Y-82303800D02*
X76130000Y-88103800D01*
X73730000Y-82303800D02*
X76130000Y-82303800D01*
X73730000Y-88103800D02*
X73730000Y-82303800D01*
X73730000Y-88028800D02*
X76130000Y-88028800D01*
X73730000Y-87903800D02*
X76130000Y-87903800D01*
X76130000Y-88128800D02*
X73730000Y-88128800D01*
X73730000Y-87728800D02*
X76130000Y-87728800D01*
X73730000Y-87553800D02*
X76130000Y-87553800D01*
X73730000Y-87378800D02*
X76130000Y-87378800D01*
%TO.C,D12*%
X76130000Y-62695000D02*
X76130000Y-68495000D01*
X73730000Y-62695000D02*
X76130000Y-62695000D01*
X73730000Y-68495000D02*
X73730000Y-62695000D01*
X73730000Y-68420000D02*
X76130000Y-68420000D01*
X73730000Y-68295000D02*
X76130000Y-68295000D01*
X76130000Y-68520000D02*
X73730000Y-68520000D01*
X73730000Y-68120000D02*
X76130000Y-68120000D01*
X73730000Y-67945000D02*
X76130000Y-67945000D01*
X73730000Y-67770000D02*
X76130000Y-67770000D01*
%TO.C,D11*%
X76130000Y-44280000D02*
X76130000Y-50080000D01*
X73730000Y-44280000D02*
X76130000Y-44280000D01*
X73730000Y-50080000D02*
X73730000Y-44280000D01*
X73730000Y-50005000D02*
X76130000Y-50005000D01*
X73730000Y-49880000D02*
X76130000Y-49880000D01*
X76130000Y-50105000D02*
X73730000Y-50105000D01*
X73730000Y-49705000D02*
X76130000Y-49705000D01*
X73730000Y-49530000D02*
X76130000Y-49530000D01*
X73730000Y-49355000D02*
X76130000Y-49355000D01*
%TO.C,D10*%
X57080000Y-124188400D02*
X57080000Y-129988400D01*
X54680000Y-124188400D02*
X57080000Y-124188400D01*
X54680000Y-129988400D02*
X54680000Y-124188400D01*
X54680000Y-129913400D02*
X57080000Y-129913400D01*
X54680000Y-129788400D02*
X57080000Y-129788400D01*
X57080000Y-130013400D02*
X54680000Y-130013400D01*
X54680000Y-129613400D02*
X57080000Y-129613400D01*
X54680000Y-129438400D02*
X57080000Y-129438400D01*
X54680000Y-129263400D02*
X57080000Y-129263400D01*
%TO.C,D9*%
X57080000Y-105240000D02*
X57080000Y-111040000D01*
X54680000Y-105240000D02*
X57080000Y-105240000D01*
X54680000Y-111040000D02*
X54680000Y-105240000D01*
X54680000Y-110965000D02*
X57080000Y-110965000D01*
X54680000Y-110840000D02*
X57080000Y-110840000D01*
X57080000Y-111065000D02*
X54680000Y-111065000D01*
X54680000Y-110665000D02*
X57080000Y-110665000D01*
X54680000Y-110490000D02*
X57080000Y-110490000D01*
X54680000Y-110315000D02*
X57080000Y-110315000D01*
%TO.C,D8*%
X57080000Y-86190000D02*
X57080000Y-91990000D01*
X54680000Y-86190000D02*
X57080000Y-86190000D01*
X54680000Y-91990000D02*
X54680000Y-86190000D01*
X54680000Y-91915000D02*
X57080000Y-91915000D01*
X54680000Y-91790000D02*
X57080000Y-91790000D01*
X57080000Y-92015000D02*
X54680000Y-92015000D01*
X54680000Y-91615000D02*
X57080000Y-91615000D01*
X54680000Y-91440000D02*
X57080000Y-91440000D01*
X54680000Y-91265000D02*
X57080000Y-91265000D01*
%TO.C,D7*%
X57080000Y-67355900D02*
X57080000Y-73155900D01*
X54680000Y-67355900D02*
X57080000Y-67355900D01*
X54680000Y-73155900D02*
X54680000Y-67355900D01*
X54680000Y-73080900D02*
X57080000Y-73080900D01*
X54680000Y-72955900D02*
X57080000Y-72955900D01*
X57080000Y-73180900D02*
X54680000Y-73180900D01*
X54680000Y-72780900D02*
X57080000Y-72780900D01*
X54680000Y-72605900D02*
X57080000Y-72605900D01*
X54680000Y-72430900D02*
X57080000Y-72430900D01*
%TO.C,D6*%
X57080000Y-48090000D02*
X57080000Y-53890000D01*
X54680000Y-48090000D02*
X57080000Y-48090000D01*
X54680000Y-53890000D02*
X54680000Y-48090000D01*
X54680000Y-53815000D02*
X57080000Y-53815000D01*
X54680000Y-53690000D02*
X57080000Y-53690000D01*
X57080000Y-53915000D02*
X54680000Y-53915000D01*
X54680000Y-53515000D02*
X57080000Y-53515000D01*
X54680000Y-53340000D02*
X57080000Y-53340000D01*
X54680000Y-53165000D02*
X57080000Y-53165000D01*
%TO.C,D5*%
X38030000Y-124290000D02*
X38030000Y-130090000D01*
X35630000Y-124290000D02*
X38030000Y-124290000D01*
X35630000Y-130090000D02*
X35630000Y-124290000D01*
X35630000Y-130015000D02*
X38030000Y-130015000D01*
X35630000Y-129890000D02*
X38030000Y-129890000D01*
X38030000Y-130115000D02*
X35630000Y-130115000D01*
X35630000Y-129715000D02*
X38030000Y-129715000D01*
X35630000Y-129540000D02*
X38030000Y-129540000D01*
X35630000Y-129365000D02*
X38030000Y-129365000D01*
%TO.C,D4*%
X38030000Y-105240000D02*
X38030000Y-111040000D01*
X35630000Y-105240000D02*
X38030000Y-105240000D01*
X35630000Y-111040000D02*
X35630000Y-105240000D01*
X35630000Y-110965000D02*
X38030000Y-110965000D01*
X35630000Y-110840000D02*
X38030000Y-110840000D01*
X38030000Y-111065000D02*
X35630000Y-111065000D01*
X35630000Y-110665000D02*
X38030000Y-110665000D01*
X35630000Y-110490000D02*
X38030000Y-110490000D01*
X35630000Y-110315000D02*
X38030000Y-110315000D01*
%TO.C,D3*%
X38030000Y-86010000D02*
X38030000Y-91810000D01*
X35630000Y-86010000D02*
X38030000Y-86010000D01*
X35630000Y-91810000D02*
X35630000Y-86010000D01*
X35630000Y-91735000D02*
X38030000Y-91735000D01*
X35630000Y-91610000D02*
X38030000Y-91610000D01*
X38030000Y-91835000D02*
X35630000Y-91835000D01*
X35630000Y-91435000D02*
X38030000Y-91435000D01*
X35630000Y-91260000D02*
X38030000Y-91260000D01*
X35630000Y-91085000D02*
X38030000Y-91085000D01*
%TO.C,D2*%
X38030000Y-67140000D02*
X38030000Y-72940000D01*
X35630000Y-67140000D02*
X38030000Y-67140000D01*
X35630000Y-72940000D02*
X35630000Y-67140000D01*
X35630000Y-72865000D02*
X38030000Y-72865000D01*
X35630000Y-72740000D02*
X38030000Y-72740000D01*
X38030000Y-72965000D02*
X35630000Y-72965000D01*
X35630000Y-72565000D02*
X38030000Y-72565000D01*
X35630000Y-72390000D02*
X38030000Y-72390000D01*
X35630000Y-72215000D02*
X38030000Y-72215000D01*
%TO.C,D1*%
X38030000Y-48090000D02*
X38030000Y-53890000D01*
X35630000Y-48090000D02*
X38030000Y-48090000D01*
X35630000Y-53890000D02*
X35630000Y-48090000D01*
X35630000Y-53815000D02*
X38030000Y-53815000D01*
X35630000Y-53690000D02*
X38030000Y-53690000D01*
X38030000Y-53915000D02*
X35630000Y-53915000D01*
X35630000Y-53515000D02*
X38030000Y-53515000D01*
X35630000Y-53340000D02*
X38030000Y-53340000D01*
X35630000Y-53165000D02*
X38030000Y-53165000D01*
D13*
%TO.C,SW23*%
X97155000Y-92075000D02*
X97155000Y-78105000D01*
X111125000Y-92075000D02*
X97155000Y-92075000D01*
X111125000Y-78105000D02*
X111125000Y-92075000D01*
X97155000Y-78105000D02*
X111125000Y-78105000D01*
D11*
%TO.C,K1*%
X174635000Y-78900000D02*
X171035000Y-78900000D01*
X174635000Y-86200000D02*
X174635000Y-78900000D01*
X171035000Y-86200000D02*
X174635000Y-86200000D01*
X168085000Y-86300000D02*
X168085000Y-78800000D01*
X175835000Y-81050000D02*
X174835000Y-81050000D01*
X175835000Y-84050000D02*
X175835000Y-81050000D01*
X174835000Y-84050000D02*
X175835000Y-84050000D01*
%TO.C,U1*%
X153035000Y-73025000D02*
X170815000Y-73025000D01*
X170815000Y-73025000D02*
X170815000Y-42545000D01*
X170815000Y-42545000D02*
X165735000Y-42545000D01*
X165735000Y-42545000D02*
X165735000Y-40005000D01*
X165735000Y-40005000D02*
X158115000Y-40005000D01*
X158115000Y-40005000D02*
X158115000Y-42545000D01*
X158115000Y-42545000D02*
X153035000Y-42545000D01*
X153035000Y-42545000D02*
X153035000Y-73025000D01*
D13*
%TO.C,SW35*%
X154908008Y-131619296D02*
X161893008Y-119520922D01*
X167006383Y-138604296D02*
X154908008Y-131619296D01*
X173991383Y-126505922D02*
X167006383Y-138604296D01*
X161893008Y-119520922D02*
X173991383Y-126505922D01*
%TO.C,SW34*%
X141854706Y-109792645D02*
X154515826Y-115696622D01*
X154515826Y-115696622D02*
X148611849Y-128357742D01*
X148611849Y-128357742D02*
X135950729Y-122453765D01*
X135950729Y-122453765D02*
X141854706Y-109792645D01*
%TO.C,SW33*%
X135255000Y-99695000D02*
X135255000Y-85725000D01*
X149225000Y-99695000D02*
X135255000Y-99695000D01*
X149225000Y-85725000D02*
X149225000Y-99695000D01*
X135255000Y-85725000D02*
X149225000Y-85725000D01*
%TO.C,SW32*%
X135255000Y-80645000D02*
X135255000Y-66675000D01*
X149225000Y-80645000D02*
X135255000Y-80645000D01*
X149225000Y-66675000D02*
X149225000Y-80645000D01*
X135255000Y-66675000D02*
X149225000Y-66675000D01*
%TO.C,SW31*%
X135255000Y-61595000D02*
X135255000Y-47625000D01*
X149225000Y-61595000D02*
X135255000Y-61595000D01*
X149225000Y-47625000D02*
X149225000Y-61595000D01*
X135255000Y-47625000D02*
X149225000Y-47625000D01*
%TO.C,SW30*%
X144367008Y-150237496D02*
X151352008Y-138139122D01*
X156465383Y-157222496D02*
X144367008Y-150237496D01*
X163450383Y-145124122D02*
X156465383Y-157222496D01*
X151352008Y-138139122D02*
X163450383Y-145124122D01*
%TO.C,SW29*%
X116205000Y-114935000D02*
X116205000Y-100965000D01*
X130175000Y-114935000D02*
X116205000Y-114935000D01*
X130175000Y-100965000D02*
X130175000Y-114935000D01*
X116205000Y-100965000D02*
X130175000Y-100965000D01*
%TO.C,SW28*%
X116205000Y-95885000D02*
X116205000Y-81915000D01*
X130175000Y-95885000D02*
X116205000Y-95885000D01*
X130175000Y-81915000D02*
X130175000Y-95885000D01*
X116205000Y-81915000D02*
X130175000Y-81915000D01*
%TO.C,SW27*%
X116205000Y-76835000D02*
X116205000Y-62865000D01*
X130175000Y-76835000D02*
X116205000Y-76835000D01*
X130175000Y-62865000D02*
X130175000Y-76835000D01*
X116205000Y-62865000D02*
X130175000Y-62865000D01*
%TO.C,SW26*%
X116205000Y-57785000D02*
X116205000Y-43815000D01*
X130175000Y-57785000D02*
X116205000Y-57785000D01*
X130175000Y-43815000D02*
X130175000Y-57785000D01*
X116205000Y-43815000D02*
X130175000Y-43815000D01*
%TO.C,SW25*%
X126933729Y-141859365D02*
X132837706Y-129198245D01*
X139594849Y-147763342D02*
X126933729Y-141859365D01*
X145498826Y-135102222D02*
X139594849Y-147763342D01*
X132837706Y-129198245D02*
X145498826Y-135102222D01*
%TO.C,SW24*%
X97155000Y-111125000D02*
X97155000Y-97155000D01*
X111125000Y-111125000D02*
X97155000Y-111125000D01*
X111125000Y-97155000D02*
X111125000Y-111125000D01*
X97155000Y-97155000D02*
X111125000Y-97155000D01*
%TO.C,SW22*%
X97155000Y-73025000D02*
X97155000Y-59055000D01*
X111125000Y-73025000D02*
X97155000Y-73025000D01*
X111125000Y-59055000D02*
X111125000Y-73025000D01*
X97155000Y-59055000D02*
X111125000Y-59055000D01*
%TO.C,SW21*%
X97155000Y-53975000D02*
X97155000Y-40005000D01*
X111125000Y-53975000D02*
X97155000Y-53975000D01*
X111125000Y-40005000D02*
X111125000Y-53975000D01*
X97155000Y-40005000D02*
X111125000Y-40005000D01*
%TO.C,SW20*%
X108842955Y-134984743D02*
X113620976Y-121857237D01*
X121970461Y-139762764D02*
X108842955Y-134984743D01*
X126748482Y-126635258D02*
X121970461Y-139762764D01*
X113620976Y-121857237D02*
X126748482Y-126635258D01*
%TO.C,SW19*%
X78105000Y-107315000D02*
X78105000Y-93345000D01*
X92075000Y-107315000D02*
X78105000Y-107315000D01*
X92075000Y-93345000D02*
X92075000Y-107315000D01*
X78105000Y-93345000D02*
X92075000Y-93345000D01*
%TO.C,SW18*%
X78105000Y-88265000D02*
X78105000Y-74295000D01*
X92075000Y-88265000D02*
X78105000Y-88265000D01*
X92075000Y-74295000D02*
X92075000Y-88265000D01*
X78105000Y-74295000D02*
X92075000Y-74295000D01*
%TO.C,SW17*%
X78105000Y-69215000D02*
X78105000Y-55245000D01*
X92075000Y-69215000D02*
X78105000Y-69215000D01*
X92075000Y-55245000D02*
X92075000Y-69215000D01*
X78105000Y-55245000D02*
X92075000Y-55245000D01*
%TO.C,SW16*%
X78105000Y-50165000D02*
X78105000Y-36195000D01*
X92075000Y-50165000D02*
X78105000Y-50165000D01*
X92075000Y-36195000D02*
X92075000Y-50165000D01*
X78105000Y-36195000D02*
X92075000Y-36195000D01*
%TO.C,SW15*%
X59055000Y-130175000D02*
X59055000Y-116205000D01*
X73025000Y-130175000D02*
X59055000Y-130175000D01*
X73025000Y-116205000D02*
X73025000Y-130175000D01*
X59055000Y-116205000D02*
X73025000Y-116205000D01*
%TO.C,SW14*%
X59055000Y-111125000D02*
X59055000Y-97155000D01*
X73025000Y-111125000D02*
X59055000Y-111125000D01*
X73025000Y-97155000D02*
X73025000Y-111125000D01*
X59055000Y-97155000D02*
X73025000Y-97155000D01*
%TO.C,SW13*%
X59055000Y-92075000D02*
X59055000Y-78105000D01*
X73025000Y-92075000D02*
X59055000Y-92075000D01*
X73025000Y-78105000D02*
X73025000Y-92075000D01*
X59055000Y-78105000D02*
X73025000Y-78105000D01*
%TO.C,SW12*%
X59055000Y-73025000D02*
X59055000Y-59055000D01*
X73025000Y-73025000D02*
X59055000Y-73025000D01*
X73025000Y-59055000D02*
X73025000Y-73025000D01*
X59055000Y-59055000D02*
X73025000Y-59055000D01*
%TO.C,SW11*%
X59055000Y-53975000D02*
X59055000Y-40005000D01*
X73025000Y-53975000D02*
X59055000Y-53975000D01*
X73025000Y-40005000D02*
X73025000Y-53975000D01*
X59055000Y-40005000D02*
X73025000Y-40005000D01*
%TO.C,SW10*%
X40005000Y-133985000D02*
X40005000Y-120015000D01*
X53975000Y-133985000D02*
X40005000Y-133985000D01*
X53975000Y-120015000D02*
X53975000Y-133985000D01*
X40005000Y-120015000D02*
X53975000Y-120015000D01*
%TO.C,SW9*%
X40005000Y-114935000D02*
X40005000Y-100965000D01*
X53975000Y-114935000D02*
X40005000Y-114935000D01*
X53975000Y-100965000D02*
X53975000Y-114935000D01*
X40005000Y-100965000D02*
X53975000Y-100965000D01*
%TO.C,SW8*%
X40005000Y-95885000D02*
X40005000Y-81915000D01*
X53975000Y-95885000D02*
X40005000Y-95885000D01*
X53975000Y-81915000D02*
X53975000Y-95885000D01*
X40005000Y-81915000D02*
X53975000Y-81915000D01*
%TO.C,SW7*%
X40005000Y-76835000D02*
X40005000Y-62865000D01*
X53975000Y-76835000D02*
X40005000Y-76835000D01*
X53975000Y-62865000D02*
X53975000Y-76835000D01*
X40005000Y-62865000D02*
X53975000Y-62865000D01*
%TO.C,SW6*%
X40005000Y-57785000D02*
X40005000Y-43815000D01*
X53975000Y-57785000D02*
X40005000Y-57785000D01*
X53975000Y-43815000D02*
X53975000Y-57785000D01*
X40005000Y-43815000D02*
X53975000Y-43815000D01*
%TO.C,SW5*%
X20955000Y-133985000D02*
X20955000Y-120015000D01*
X34925000Y-133985000D02*
X20955000Y-133985000D01*
X34925000Y-120015000D02*
X34925000Y-133985000D01*
X20955000Y-120015000D02*
X34925000Y-120015000D01*
%TO.C,SW4*%
X20955000Y-114935000D02*
X20955000Y-100965000D01*
X34925000Y-114935000D02*
X20955000Y-114935000D01*
X34925000Y-100965000D02*
X34925000Y-114935000D01*
X20955000Y-100965000D02*
X34925000Y-100965000D01*
%TO.C,SW3*%
X20955000Y-95885000D02*
X20955000Y-81915000D01*
X34925000Y-95885000D02*
X20955000Y-95885000D01*
X34925000Y-81915000D02*
X34925000Y-95885000D01*
X20955000Y-81915000D02*
X34925000Y-81915000D01*
%TO.C,SW2*%
X20955000Y-76835000D02*
X20955000Y-62865000D01*
X34925000Y-76835000D02*
X20955000Y-76835000D01*
X34925000Y-62865000D02*
X34925000Y-76835000D01*
X20955000Y-62865000D02*
X34925000Y-62865000D01*
%TO.C,SW1*%
X20955000Y-57785000D02*
X20955000Y-43815000D01*
X34925000Y-57785000D02*
X20955000Y-57785000D01*
X34925000Y-43815000D02*
X34925000Y-57785000D01*
X20955000Y-43815000D02*
X34925000Y-43815000D01*
D11*
%TO.C,J1*%
X174960000Y-100740000D02*
X162860000Y-100740000D01*
X174960000Y-94740000D02*
X174960000Y-100740000D01*
X162860000Y-94740000D02*
X174960000Y-94740000D01*
X162860000Y-100740000D02*
X162860000Y-94740000D01*
X176960000Y-100240000D02*
X174960000Y-100240000D01*
X176960000Y-95240000D02*
X174960000Y-95240000D01*
X176960000Y-100240000D02*
X176960000Y-95240000D01*
%TO.C,REF\u002A\u002A*%
X36131666Y-113427380D02*
X35798333Y-112951190D01*
X35560238Y-113427380D02*
X35560238Y-112427380D01*
X35941190Y-112427380D01*
X36036428Y-112475000D01*
X36084047Y-112522619D01*
X36131666Y-112617857D01*
X36131666Y-112760714D01*
X36084047Y-112855952D01*
X36036428Y-112903571D01*
X35941190Y-112951190D01*
X35560238Y-112951190D01*
X36560238Y-112903571D02*
X36893571Y-112903571D01*
X37036428Y-113427380D02*
X36560238Y-113427380D01*
X36560238Y-112427380D01*
X37036428Y-112427380D01*
X37798333Y-112903571D02*
X37465000Y-112903571D01*
X37465000Y-113427380D02*
X37465000Y-112427380D01*
X37941190Y-112427380D01*
X38465000Y-112427380D02*
X38465000Y-112665476D01*
X38226904Y-112570238D02*
X38465000Y-112665476D01*
X38703095Y-112570238D01*
X38322142Y-112855952D02*
X38465000Y-112665476D01*
X38607857Y-112855952D01*
X39226904Y-112427380D02*
X39226904Y-112665476D01*
X38988809Y-112570238D02*
X39226904Y-112665476D01*
X39465000Y-112570238D01*
X39084047Y-112855952D02*
X39226904Y-112665476D01*
X39369761Y-112855952D01*
X36131666Y-56277380D02*
X35798333Y-55801190D01*
X35560238Y-56277380D02*
X35560238Y-55277380D01*
X35941190Y-55277380D01*
X36036428Y-55325000D01*
X36084047Y-55372619D01*
X36131666Y-55467857D01*
X36131666Y-55610714D01*
X36084047Y-55705952D01*
X36036428Y-55753571D01*
X35941190Y-55801190D01*
X35560238Y-55801190D01*
X36560238Y-55753571D02*
X36893571Y-55753571D01*
X37036428Y-56277380D02*
X36560238Y-56277380D01*
X36560238Y-55277380D01*
X37036428Y-55277380D01*
X37798333Y-55753571D02*
X37465000Y-55753571D01*
X37465000Y-56277380D02*
X37465000Y-55277380D01*
X37941190Y-55277380D01*
X38465000Y-55277380D02*
X38465000Y-55515476D01*
X38226904Y-55420238D02*
X38465000Y-55515476D01*
X38703095Y-55420238D01*
X38322142Y-55705952D02*
X38465000Y-55515476D01*
X38607857Y-55705952D01*
X39226904Y-55277380D02*
X39226904Y-55515476D01*
X38988809Y-55420238D02*
X39226904Y-55515476D01*
X39465000Y-55420238D01*
X39084047Y-55705952D02*
X39226904Y-55515476D01*
X39369761Y-55705952D01*
X92646666Y-86757380D02*
X92313333Y-86281190D01*
X92075238Y-86757380D02*
X92075238Y-85757380D01*
X92456190Y-85757380D01*
X92551428Y-85805000D01*
X92599047Y-85852619D01*
X92646666Y-85947857D01*
X92646666Y-86090714D01*
X92599047Y-86185952D01*
X92551428Y-86233571D01*
X92456190Y-86281190D01*
X92075238Y-86281190D01*
X93075238Y-86233571D02*
X93408571Y-86233571D01*
X93551428Y-86757380D02*
X93075238Y-86757380D01*
X93075238Y-85757380D01*
X93551428Y-85757380D01*
X94313333Y-86233571D02*
X93980000Y-86233571D01*
X93980000Y-86757380D02*
X93980000Y-85757380D01*
X94456190Y-85757380D01*
X94980000Y-85757380D02*
X94980000Y-85995476D01*
X94741904Y-85900238D02*
X94980000Y-85995476D01*
X95218095Y-85900238D01*
X94837142Y-86185952D02*
X94980000Y-85995476D01*
X95122857Y-86185952D01*
X95741904Y-85757380D02*
X95741904Y-85995476D01*
X95503809Y-85900238D02*
X95741904Y-85995476D01*
X95980000Y-85900238D01*
X95599047Y-86185952D02*
X95741904Y-85995476D01*
X95884761Y-86185952D01*
X92646666Y-48657380D02*
X92313333Y-48181190D01*
X92075238Y-48657380D02*
X92075238Y-47657380D01*
X92456190Y-47657380D01*
X92551428Y-47705000D01*
X92599047Y-47752619D01*
X92646666Y-47847857D01*
X92646666Y-47990714D01*
X92599047Y-48085952D01*
X92551428Y-48133571D01*
X92456190Y-48181190D01*
X92075238Y-48181190D01*
X93075238Y-48133571D02*
X93408571Y-48133571D01*
X93551428Y-48657380D02*
X93075238Y-48657380D01*
X93075238Y-47657380D01*
X93551428Y-47657380D01*
X94313333Y-48133571D02*
X93980000Y-48133571D01*
X93980000Y-48657380D02*
X93980000Y-47657380D01*
X94456190Y-47657380D01*
X94980000Y-47657380D02*
X94980000Y-47895476D01*
X94741904Y-47800238D02*
X94980000Y-47895476D01*
X95218095Y-47800238D01*
X94837142Y-48085952D02*
X94980000Y-47895476D01*
X95122857Y-48085952D01*
X95741904Y-47657380D02*
X95741904Y-47895476D01*
X95503809Y-47800238D02*
X95741904Y-47895476D01*
X95980000Y-47800238D01*
X95599047Y-48085952D02*
X95741904Y-47895476D01*
X95884761Y-48085952D01*
X130746666Y-56912380D02*
X130413333Y-56436190D01*
X130175238Y-56912380D02*
X130175238Y-55912380D01*
X130556190Y-55912380D01*
X130651428Y-55960000D01*
X130699047Y-56007619D01*
X130746666Y-56102857D01*
X130746666Y-56245714D01*
X130699047Y-56340952D01*
X130651428Y-56388571D01*
X130556190Y-56436190D01*
X130175238Y-56436190D01*
X131175238Y-56388571D02*
X131508571Y-56388571D01*
X131651428Y-56912380D02*
X131175238Y-56912380D01*
X131175238Y-55912380D01*
X131651428Y-55912380D01*
X132413333Y-56388571D02*
X132080000Y-56388571D01*
X132080000Y-56912380D02*
X132080000Y-55912380D01*
X132556190Y-55912380D01*
X133080000Y-55912380D02*
X133080000Y-56150476D01*
X132841904Y-56055238D02*
X133080000Y-56150476D01*
X133318095Y-56055238D01*
X132937142Y-56340952D02*
X133080000Y-56150476D01*
X133222857Y-56340952D01*
X133841904Y-55912380D02*
X133841904Y-56150476D01*
X133603809Y-56055238D02*
X133841904Y-56150476D01*
X134080000Y-56055238D01*
X133699047Y-56340952D02*
X133841904Y-56150476D01*
X133984761Y-56340952D01*
X149161666Y-128032380D02*
X148828333Y-127556190D01*
X148590238Y-128032380D02*
X148590238Y-127032380D01*
X148971190Y-127032380D01*
X149066428Y-127080000D01*
X149114047Y-127127619D01*
X149161666Y-127222857D01*
X149161666Y-127365714D01*
X149114047Y-127460952D01*
X149066428Y-127508571D01*
X148971190Y-127556190D01*
X148590238Y-127556190D01*
X149590238Y-127508571D02*
X149923571Y-127508571D01*
X150066428Y-128032380D02*
X149590238Y-128032380D01*
X149590238Y-127032380D01*
X150066428Y-127032380D01*
X150828333Y-127508571D02*
X150495000Y-127508571D01*
X150495000Y-128032380D02*
X150495000Y-127032380D01*
X150971190Y-127032380D01*
X151495000Y-127032380D02*
X151495000Y-127270476D01*
X151256904Y-127175238D02*
X151495000Y-127270476D01*
X151733095Y-127175238D01*
X151352142Y-127460952D02*
X151495000Y-127270476D01*
X151637857Y-127460952D01*
X152256904Y-127032380D02*
X152256904Y-127270476D01*
X152018809Y-127175238D02*
X152256904Y-127270476D01*
X152495000Y-127175238D01*
X152114047Y-127460952D02*
X152256904Y-127270476D01*
X152399761Y-127460952D01*
%TO.C,D35*%
X174134803Y-135768003D02*
X173441983Y-135368003D01*
X173537221Y-135203045D01*
X173627355Y-135123119D01*
X173731433Y-135095231D01*
X173816464Y-135100335D01*
X173967477Y-135143534D01*
X174066451Y-135200677D01*
X174179370Y-135309859D01*
X174226305Y-135380945D01*
X174254192Y-135485024D01*
X174230041Y-135603045D01*
X174134803Y-135768003D01*
X173803887Y-134741165D02*
X174051506Y-134312276D01*
X174182105Y-134695598D01*
X174239247Y-134596623D01*
X174310334Y-134549688D01*
X174362373Y-134535744D01*
X174447404Y-134540848D01*
X174612361Y-134636086D01*
X174659296Y-134707173D01*
X174673240Y-134759212D01*
X174668136Y-134844242D01*
X174553851Y-135042191D01*
X174482764Y-135089126D01*
X174430725Y-135103070D01*
X174413411Y-133685439D02*
X174222935Y-134015353D01*
X174533802Y-134238821D01*
X174519858Y-134186782D01*
X174524962Y-134101752D01*
X174620200Y-133936794D01*
X174691287Y-133889859D01*
X174743326Y-133875915D01*
X174828356Y-133881019D01*
X174993313Y-133976257D01*
X175040249Y-134047344D01*
X175054192Y-134099383D01*
X175049089Y-134184413D01*
X174953851Y-134349371D01*
X174882764Y-134396306D01*
X174830725Y-134410250D01*
%TO.C,D34*%
X155461026Y-124943931D02*
X154735980Y-124605837D01*
X154816479Y-124433207D01*
X154899304Y-124345728D01*
X155000555Y-124308876D01*
X155085707Y-124306549D01*
X155239911Y-124336422D01*
X155343489Y-124384722D01*
X155465493Y-124483647D01*
X155518446Y-124550372D01*
X155555298Y-124651624D01*
X155541525Y-124771301D01*
X155461026Y-124943931D01*
X155041875Y-123949843D02*
X155251172Y-123501004D01*
X155414682Y-123871484D01*
X155462981Y-123767906D01*
X155529706Y-123714954D01*
X155580332Y-123696528D01*
X155665484Y-123694201D01*
X155838114Y-123774700D01*
X155891066Y-123841426D01*
X155909492Y-123892051D01*
X155911819Y-123977203D01*
X155815221Y-124184359D01*
X155748495Y-124237311D01*
X155697869Y-124255738D01*
X155782649Y-122992234D02*
X156266013Y-123217631D01*
X155425942Y-123036066D02*
X155863334Y-123450193D01*
X156072630Y-123001355D01*
%TO.C,D33*%
X153416904Y-93771428D02*
X152616904Y-93771428D01*
X152616904Y-93580952D01*
X152655000Y-93466666D01*
X152731190Y-93390476D01*
X152807380Y-93352380D01*
X152959761Y-93314285D01*
X153074047Y-93314285D01*
X153226428Y-93352380D01*
X153302619Y-93390476D01*
X153378809Y-93466666D01*
X153416904Y-93580952D01*
X153416904Y-93771428D01*
X152616904Y-93047619D02*
X152616904Y-92552380D01*
X152921666Y-92819047D01*
X152921666Y-92704761D01*
X152959761Y-92628571D01*
X152997857Y-92590476D01*
X153074047Y-92552380D01*
X153264523Y-92552380D01*
X153340714Y-92590476D01*
X153378809Y-92628571D01*
X153416904Y-92704761D01*
X153416904Y-92933333D01*
X153378809Y-93009523D01*
X153340714Y-93047619D01*
X152616904Y-92285714D02*
X152616904Y-91790476D01*
X152921666Y-92057142D01*
X152921666Y-91942857D01*
X152959761Y-91866666D01*
X152997857Y-91828571D01*
X153074047Y-91790476D01*
X153264523Y-91790476D01*
X153340714Y-91828571D01*
X153378809Y-91866666D01*
X153416904Y-91942857D01*
X153416904Y-92171428D01*
X153378809Y-92247619D01*
X153340714Y-92285714D01*
%TO.C,D32*%
X153416904Y-74541088D02*
X152616904Y-74541088D01*
X152616904Y-74350612D01*
X152655000Y-74236326D01*
X152731190Y-74160136D01*
X152807380Y-74122040D01*
X152959761Y-74083945D01*
X153074047Y-74083945D01*
X153226428Y-74122040D01*
X153302619Y-74160136D01*
X153378809Y-74236326D01*
X153416904Y-74350612D01*
X153416904Y-74541088D01*
X152616904Y-73817279D02*
X152616904Y-73322040D01*
X152921666Y-73588707D01*
X152921666Y-73474421D01*
X152959761Y-73398231D01*
X152997857Y-73360136D01*
X153074047Y-73322040D01*
X153264523Y-73322040D01*
X153340714Y-73360136D01*
X153378809Y-73398231D01*
X153416904Y-73474421D01*
X153416904Y-73702993D01*
X153378809Y-73779183D01*
X153340714Y-73817279D01*
X152693095Y-73017279D02*
X152655000Y-72979183D01*
X152616904Y-72902993D01*
X152616904Y-72712517D01*
X152655000Y-72636326D01*
X152693095Y-72598231D01*
X152769285Y-72560136D01*
X152845476Y-72560136D01*
X152959761Y-72598231D01*
X153416904Y-73055374D01*
X153416904Y-72560136D01*
%TO.C,D31*%
X153416904Y-55671428D02*
X152616904Y-55671428D01*
X152616904Y-55480952D01*
X152655000Y-55366666D01*
X152731190Y-55290476D01*
X152807380Y-55252380D01*
X152959761Y-55214285D01*
X153074047Y-55214285D01*
X153226428Y-55252380D01*
X153302619Y-55290476D01*
X153378809Y-55366666D01*
X153416904Y-55480952D01*
X153416904Y-55671428D01*
X152616904Y-54947619D02*
X152616904Y-54452380D01*
X152921666Y-54719047D01*
X152921666Y-54604761D01*
X152959761Y-54528571D01*
X152997857Y-54490476D01*
X153074047Y-54452380D01*
X153264523Y-54452380D01*
X153340714Y-54490476D01*
X153378809Y-54528571D01*
X153416904Y-54604761D01*
X153416904Y-54833333D01*
X153378809Y-54909523D01*
X153340714Y-54947619D01*
X153416904Y-53690476D02*
X153416904Y-54147619D01*
X153416904Y-53919047D02*
X152616904Y-53919047D01*
X152731190Y-53995238D01*
X152807380Y-54071428D01*
X152845476Y-54147619D01*
%TO.C,D30*%
X163974803Y-153548003D02*
X163281983Y-153148003D01*
X163377221Y-152983045D01*
X163467355Y-152903119D01*
X163571433Y-152875231D01*
X163656464Y-152880335D01*
X163807477Y-152923534D01*
X163906451Y-152980677D01*
X164019370Y-153089859D01*
X164066305Y-153160945D01*
X164094192Y-153265024D01*
X164070041Y-153383045D01*
X163974803Y-153548003D01*
X163643887Y-152521165D02*
X163891506Y-152092276D01*
X164022105Y-152475598D01*
X164079247Y-152376623D01*
X164150334Y-152329688D01*
X164202373Y-152315744D01*
X164287404Y-152320848D01*
X164452361Y-152416086D01*
X164499296Y-152487173D01*
X164513240Y-152539212D01*
X164508136Y-152624242D01*
X164393851Y-152822191D01*
X164322764Y-152869126D01*
X164270725Y-152883070D01*
X164139125Y-151663388D02*
X164177221Y-151597405D01*
X164248307Y-151550470D01*
X164300346Y-151536526D01*
X164385377Y-151541630D01*
X164536390Y-151584829D01*
X164701348Y-151680067D01*
X164814266Y-151789249D01*
X164861201Y-151860335D01*
X164875145Y-151912374D01*
X164870041Y-151997405D01*
X164831946Y-152063388D01*
X164760859Y-152110323D01*
X164708820Y-152124267D01*
X164623790Y-152119163D01*
X164472776Y-152075964D01*
X164307819Y-151980726D01*
X164194901Y-151871544D01*
X164147965Y-151800457D01*
X164134022Y-151748418D01*
X164139125Y-151663388D01*
%TO.C,D29*%
X134366904Y-109011428D02*
X133566904Y-109011428D01*
X133566904Y-108820952D01*
X133605000Y-108706666D01*
X133681190Y-108630476D01*
X133757380Y-108592380D01*
X133909761Y-108554285D01*
X134024047Y-108554285D01*
X134176428Y-108592380D01*
X134252619Y-108630476D01*
X134328809Y-108706666D01*
X134366904Y-108820952D01*
X134366904Y-109011428D01*
X133643095Y-108249523D02*
X133605000Y-108211428D01*
X133566904Y-108135238D01*
X133566904Y-107944761D01*
X133605000Y-107868571D01*
X133643095Y-107830476D01*
X133719285Y-107792380D01*
X133795476Y-107792380D01*
X133909761Y-107830476D01*
X134366904Y-108287619D01*
X134366904Y-107792380D01*
X134366904Y-107411428D02*
X134366904Y-107259047D01*
X134328809Y-107182857D01*
X134290714Y-107144761D01*
X134176428Y-107068571D01*
X134024047Y-107030476D01*
X133719285Y-107030476D01*
X133643095Y-107068571D01*
X133605000Y-107106666D01*
X133566904Y-107182857D01*
X133566904Y-107335238D01*
X133605000Y-107411428D01*
X133643095Y-107449523D01*
X133719285Y-107487619D01*
X133909761Y-107487619D01*
X133985952Y-107449523D01*
X134024047Y-107411428D01*
X134062142Y-107335238D01*
X134062142Y-107182857D01*
X134024047Y-107106666D01*
X133985952Y-107068571D01*
X133909761Y-107030476D01*
%TO.C,D28*%
X134366904Y-89961428D02*
X133566904Y-89961428D01*
X133566904Y-89770952D01*
X133605000Y-89656666D01*
X133681190Y-89580476D01*
X133757380Y-89542380D01*
X133909761Y-89504285D01*
X134024047Y-89504285D01*
X134176428Y-89542380D01*
X134252619Y-89580476D01*
X134328809Y-89656666D01*
X134366904Y-89770952D01*
X134366904Y-89961428D01*
X133643095Y-89199523D02*
X133605000Y-89161428D01*
X133566904Y-89085238D01*
X133566904Y-88894761D01*
X133605000Y-88818571D01*
X133643095Y-88780476D01*
X133719285Y-88742380D01*
X133795476Y-88742380D01*
X133909761Y-88780476D01*
X134366904Y-89237619D01*
X134366904Y-88742380D01*
X133909761Y-88285238D02*
X133871666Y-88361428D01*
X133833571Y-88399523D01*
X133757380Y-88437619D01*
X133719285Y-88437619D01*
X133643095Y-88399523D01*
X133605000Y-88361428D01*
X133566904Y-88285238D01*
X133566904Y-88132857D01*
X133605000Y-88056666D01*
X133643095Y-88018571D01*
X133719285Y-87980476D01*
X133757380Y-87980476D01*
X133833571Y-88018571D01*
X133871666Y-88056666D01*
X133909761Y-88132857D01*
X133909761Y-88285238D01*
X133947857Y-88361428D01*
X133985952Y-88399523D01*
X134062142Y-88437619D01*
X134214523Y-88437619D01*
X134290714Y-88399523D01*
X134328809Y-88361428D01*
X134366904Y-88285238D01*
X134366904Y-88132857D01*
X134328809Y-88056666D01*
X134290714Y-88018571D01*
X134214523Y-87980476D01*
X134062142Y-87980476D01*
X133985952Y-88018571D01*
X133947857Y-88056666D01*
X133909761Y-88132857D01*
%TO.C,D27*%
X134366904Y-70911428D02*
X133566904Y-70911428D01*
X133566904Y-70720952D01*
X133605000Y-70606666D01*
X133681190Y-70530476D01*
X133757380Y-70492380D01*
X133909761Y-70454285D01*
X134024047Y-70454285D01*
X134176428Y-70492380D01*
X134252619Y-70530476D01*
X134328809Y-70606666D01*
X134366904Y-70720952D01*
X134366904Y-70911428D01*
X133643095Y-70149523D02*
X133605000Y-70111428D01*
X133566904Y-70035238D01*
X133566904Y-69844761D01*
X133605000Y-69768571D01*
X133643095Y-69730476D01*
X133719285Y-69692380D01*
X133795476Y-69692380D01*
X133909761Y-69730476D01*
X134366904Y-70187619D01*
X134366904Y-69692380D01*
X133566904Y-69425714D02*
X133566904Y-68892380D01*
X134366904Y-69235238D01*
%TO.C,D26*%
X134366904Y-51861428D02*
X133566904Y-51861428D01*
X133566904Y-51670952D01*
X133605000Y-51556666D01*
X133681190Y-51480476D01*
X133757380Y-51442380D01*
X133909761Y-51404285D01*
X134024047Y-51404285D01*
X134176428Y-51442380D01*
X134252619Y-51480476D01*
X134328809Y-51556666D01*
X134366904Y-51670952D01*
X134366904Y-51861428D01*
X133643095Y-51099523D02*
X133605000Y-51061428D01*
X133566904Y-50985238D01*
X133566904Y-50794761D01*
X133605000Y-50718571D01*
X133643095Y-50680476D01*
X133719285Y-50642380D01*
X133795476Y-50642380D01*
X133909761Y-50680476D01*
X134366904Y-51137619D01*
X134366904Y-50642380D01*
X133566904Y-49956666D02*
X133566904Y-50109047D01*
X133605000Y-50185238D01*
X133643095Y-50223333D01*
X133757380Y-50299523D01*
X133909761Y-50337619D01*
X134214523Y-50337619D01*
X134290714Y-50299523D01*
X134328809Y-50261428D01*
X134366904Y-50185238D01*
X134366904Y-50032857D01*
X134328809Y-49956666D01*
X134290714Y-49918571D01*
X134214523Y-49880476D01*
X134024047Y-49880476D01*
X133947857Y-49918571D01*
X133909761Y-49956666D01*
X133871666Y-50032857D01*
X133871666Y-50185238D01*
X133909761Y-50261428D01*
X133947857Y-50299523D01*
X134024047Y-50337619D01*
%TO.C,D25*%
X146571026Y-143989300D02*
X145845980Y-143651206D01*
X145926479Y-143478576D01*
X146009304Y-143391097D01*
X146110555Y-143354245D01*
X146195707Y-143351918D01*
X146349911Y-143381791D01*
X146453489Y-143430091D01*
X146575493Y-143529016D01*
X146628446Y-143595741D01*
X146665298Y-143696993D01*
X146651525Y-143816670D01*
X146571026Y-143989300D01*
X146237027Y-142992885D02*
X146218601Y-142942259D01*
X146216274Y-142857107D01*
X146296773Y-142684477D01*
X146363498Y-142631525D01*
X146414124Y-142613099D01*
X146499276Y-142610772D01*
X146568328Y-142642972D01*
X146655806Y-142725797D01*
X146876921Y-143333306D01*
X147086218Y-142884468D01*
X146667067Y-141890379D02*
X146506069Y-142235639D01*
X146835230Y-142431163D01*
X146816803Y-142380537D01*
X146814477Y-142295385D01*
X146894976Y-142122755D01*
X146961701Y-142069803D01*
X147012327Y-142051377D01*
X147097479Y-142049050D01*
X147270109Y-142129549D01*
X147323061Y-142196274D01*
X147341487Y-142246900D01*
X147343814Y-142332052D01*
X147263315Y-142504682D01*
X147196590Y-142557634D01*
X147145964Y-142576060D01*
%TO.C,D24*%
X115316904Y-105270348D02*
X114516904Y-105270348D01*
X114516904Y-105079872D01*
X114555000Y-104965586D01*
X114631190Y-104889396D01*
X114707380Y-104851300D01*
X114859761Y-104813205D01*
X114974047Y-104813205D01*
X115126428Y-104851300D01*
X115202619Y-104889396D01*
X115278809Y-104965586D01*
X115316904Y-105079872D01*
X115316904Y-105270348D01*
X114593095Y-104508443D02*
X114555000Y-104470348D01*
X114516904Y-104394158D01*
X114516904Y-104203681D01*
X114555000Y-104127491D01*
X114593095Y-104089396D01*
X114669285Y-104051300D01*
X114745476Y-104051300D01*
X114859761Y-104089396D01*
X115316904Y-104546539D01*
X115316904Y-104051300D01*
X114783571Y-103365586D02*
X115316904Y-103365586D01*
X114478809Y-103556062D02*
X115050238Y-103746539D01*
X115050238Y-103251300D01*
%TO.C,D23*%
X115316904Y-86151428D02*
X114516904Y-86151428D01*
X114516904Y-85960952D01*
X114555000Y-85846666D01*
X114631190Y-85770476D01*
X114707380Y-85732380D01*
X114859761Y-85694285D01*
X114974047Y-85694285D01*
X115126428Y-85732380D01*
X115202619Y-85770476D01*
X115278809Y-85846666D01*
X115316904Y-85960952D01*
X115316904Y-86151428D01*
X114593095Y-85389523D02*
X114555000Y-85351428D01*
X114516904Y-85275238D01*
X114516904Y-85084761D01*
X114555000Y-85008571D01*
X114593095Y-84970476D01*
X114669285Y-84932380D01*
X114745476Y-84932380D01*
X114859761Y-84970476D01*
X115316904Y-85427619D01*
X115316904Y-84932380D01*
X114516904Y-84665714D02*
X114516904Y-84170476D01*
X114821666Y-84437142D01*
X114821666Y-84322857D01*
X114859761Y-84246666D01*
X114897857Y-84208571D01*
X114974047Y-84170476D01*
X115164523Y-84170476D01*
X115240714Y-84208571D01*
X115278809Y-84246666D01*
X115316904Y-84322857D01*
X115316904Y-84551428D01*
X115278809Y-84627619D01*
X115240714Y-84665714D01*
%TO.C,D22*%
X115316904Y-67101428D02*
X114516904Y-67101428D01*
X114516904Y-66910952D01*
X114555000Y-66796666D01*
X114631190Y-66720476D01*
X114707380Y-66682380D01*
X114859761Y-66644285D01*
X114974047Y-66644285D01*
X115126428Y-66682380D01*
X115202619Y-66720476D01*
X115278809Y-66796666D01*
X115316904Y-66910952D01*
X115316904Y-67101428D01*
X114593095Y-66339523D02*
X114555000Y-66301428D01*
X114516904Y-66225238D01*
X114516904Y-66034761D01*
X114555000Y-65958571D01*
X114593095Y-65920476D01*
X114669285Y-65882380D01*
X114745476Y-65882380D01*
X114859761Y-65920476D01*
X115316904Y-66377619D01*
X115316904Y-65882380D01*
X114593095Y-65577619D02*
X114555000Y-65539523D01*
X114516904Y-65463333D01*
X114516904Y-65272857D01*
X114555000Y-65196666D01*
X114593095Y-65158571D01*
X114669285Y-65120476D01*
X114745476Y-65120476D01*
X114859761Y-65158571D01*
X115316904Y-65615714D01*
X115316904Y-65120476D01*
%TO.C,D21*%
X115316904Y-48051428D02*
X114516904Y-48051428D01*
X114516904Y-47860952D01*
X114555000Y-47746666D01*
X114631190Y-47670476D01*
X114707380Y-47632380D01*
X114859761Y-47594285D01*
X114974047Y-47594285D01*
X115126428Y-47632380D01*
X115202619Y-47670476D01*
X115278809Y-47746666D01*
X115316904Y-47860952D01*
X115316904Y-48051428D01*
X114593095Y-47289523D02*
X114555000Y-47251428D01*
X114516904Y-47175238D01*
X114516904Y-46984761D01*
X114555000Y-46908571D01*
X114593095Y-46870476D01*
X114669285Y-46832380D01*
X114745476Y-46832380D01*
X114859761Y-46870476D01*
X115316904Y-47327619D01*
X115316904Y-46832380D01*
X115316904Y-46070476D02*
X115316904Y-46527619D01*
X115316904Y-46299047D02*
X114516904Y-46299047D01*
X114631190Y-46375238D01*
X114707380Y-46451428D01*
X114745476Y-46527619D01*
%TO.C,D20*%
X128528285Y-135042181D02*
X127776530Y-134768565D01*
X127841677Y-134589576D01*
X127916563Y-134495212D01*
X128014217Y-134449675D01*
X128098842Y-134439936D01*
X128255063Y-134456256D01*
X128362456Y-134495344D01*
X128492618Y-134583259D01*
X128551185Y-134645115D01*
X128596721Y-134742770D01*
X128593431Y-134863192D01*
X128528285Y-135042181D01*
X128108713Y-134078668D02*
X128085944Y-134029841D01*
X128076205Y-133945216D01*
X128141352Y-133766227D01*
X128203208Y-133707660D01*
X128252036Y-133684892D01*
X128336661Y-133675153D01*
X128408256Y-133701211D01*
X128502620Y-133776097D01*
X128775842Y-134362023D01*
X128945223Y-133896651D01*
X128362851Y-133157664D02*
X128388909Y-133086068D01*
X128450766Y-133027502D01*
X128499593Y-133004733D01*
X128584218Y-132994994D01*
X128740439Y-133011314D01*
X128919428Y-133076460D01*
X129049590Y-133164376D01*
X129108156Y-133226232D01*
X129130924Y-133275059D01*
X129140664Y-133359684D01*
X129114605Y-133431280D01*
X129052748Y-133489846D01*
X129003921Y-133512615D01*
X128919296Y-133522354D01*
X128763076Y-133506034D01*
X128584087Y-133440888D01*
X128453925Y-133352972D01*
X128395358Y-133291116D01*
X128372590Y-133242289D01*
X128362851Y-133157664D01*
%TO.C,D19*%
X96266904Y-101391428D02*
X95466904Y-101391428D01*
X95466904Y-101200952D01*
X95505000Y-101086666D01*
X95581190Y-101010476D01*
X95657380Y-100972380D01*
X95809761Y-100934285D01*
X95924047Y-100934285D01*
X96076428Y-100972380D01*
X96152619Y-101010476D01*
X96228809Y-101086666D01*
X96266904Y-101200952D01*
X96266904Y-101391428D01*
X96266904Y-100172380D02*
X96266904Y-100629523D01*
X96266904Y-100400952D02*
X95466904Y-100400952D01*
X95581190Y-100477142D01*
X95657380Y-100553333D01*
X95695476Y-100629523D01*
X96266904Y-99791428D02*
X96266904Y-99639047D01*
X96228809Y-99562857D01*
X96190714Y-99524761D01*
X96076428Y-99448571D01*
X95924047Y-99410476D01*
X95619285Y-99410476D01*
X95543095Y-99448571D01*
X95505000Y-99486666D01*
X95466904Y-99562857D01*
X95466904Y-99715238D01*
X95505000Y-99791428D01*
X95543095Y-99829523D01*
X95619285Y-99867619D01*
X95809761Y-99867619D01*
X95885952Y-99829523D01*
X95924047Y-99791428D01*
X95962142Y-99715238D01*
X95962142Y-99562857D01*
X95924047Y-99486666D01*
X95885952Y-99448571D01*
X95809761Y-99410476D01*
%TO.C,D18*%
X96266904Y-82341428D02*
X95466904Y-82341428D01*
X95466904Y-82150952D01*
X95505000Y-82036666D01*
X95581190Y-81960476D01*
X95657380Y-81922380D01*
X95809761Y-81884285D01*
X95924047Y-81884285D01*
X96076428Y-81922380D01*
X96152619Y-81960476D01*
X96228809Y-82036666D01*
X96266904Y-82150952D01*
X96266904Y-82341428D01*
X96266904Y-81122380D02*
X96266904Y-81579523D01*
X96266904Y-81350952D02*
X95466904Y-81350952D01*
X95581190Y-81427142D01*
X95657380Y-81503333D01*
X95695476Y-81579523D01*
X95809761Y-80665238D02*
X95771666Y-80741428D01*
X95733571Y-80779523D01*
X95657380Y-80817619D01*
X95619285Y-80817619D01*
X95543095Y-80779523D01*
X95505000Y-80741428D01*
X95466904Y-80665238D01*
X95466904Y-80512857D01*
X95505000Y-80436666D01*
X95543095Y-80398571D01*
X95619285Y-80360476D01*
X95657380Y-80360476D01*
X95733571Y-80398571D01*
X95771666Y-80436666D01*
X95809761Y-80512857D01*
X95809761Y-80665238D01*
X95847857Y-80741428D01*
X95885952Y-80779523D01*
X95962142Y-80817619D01*
X96114523Y-80817619D01*
X96190714Y-80779523D01*
X96228809Y-80741428D01*
X96266904Y-80665238D01*
X96266904Y-80512857D01*
X96228809Y-80436666D01*
X96190714Y-80398571D01*
X96114523Y-80360476D01*
X95962142Y-80360476D01*
X95885952Y-80398571D01*
X95847857Y-80436666D01*
X95809761Y-80512857D01*
%TO.C,D17*%
X96266904Y-63291428D02*
X95466904Y-63291428D01*
X95466904Y-63100952D01*
X95505000Y-62986666D01*
X95581190Y-62910476D01*
X95657380Y-62872380D01*
X95809761Y-62834285D01*
X95924047Y-62834285D01*
X96076428Y-62872380D01*
X96152619Y-62910476D01*
X96228809Y-62986666D01*
X96266904Y-63100952D01*
X96266904Y-63291428D01*
X96266904Y-62072380D02*
X96266904Y-62529523D01*
X96266904Y-62300952D02*
X95466904Y-62300952D01*
X95581190Y-62377142D01*
X95657380Y-62453333D01*
X95695476Y-62529523D01*
X95466904Y-61805714D02*
X95466904Y-61272380D01*
X96266904Y-61615238D01*
%TO.C,D16*%
X96266904Y-44241428D02*
X95466904Y-44241428D01*
X95466904Y-44050952D01*
X95505000Y-43936666D01*
X95581190Y-43860476D01*
X95657380Y-43822380D01*
X95809761Y-43784285D01*
X95924047Y-43784285D01*
X96076428Y-43822380D01*
X96152619Y-43860476D01*
X96228809Y-43936666D01*
X96266904Y-44050952D01*
X96266904Y-44241428D01*
X96266904Y-43022380D02*
X96266904Y-43479523D01*
X96266904Y-43250952D02*
X95466904Y-43250952D01*
X95581190Y-43327142D01*
X95657380Y-43403333D01*
X95695476Y-43479523D01*
X95466904Y-42336666D02*
X95466904Y-42489047D01*
X95505000Y-42565238D01*
X95543095Y-42603333D01*
X95657380Y-42679523D01*
X95809761Y-42717619D01*
X96114523Y-42717619D01*
X96190714Y-42679523D01*
X96228809Y-42641428D01*
X96266904Y-42565238D01*
X96266904Y-42412857D01*
X96228809Y-42336666D01*
X96190714Y-42298571D01*
X96114523Y-42260476D01*
X95924047Y-42260476D01*
X95847857Y-42298571D01*
X95809761Y-42336666D01*
X95771666Y-42412857D01*
X95771666Y-42565238D01*
X95809761Y-42641428D01*
X95847857Y-42679523D01*
X95924047Y-42717619D01*
%TO.C,D15*%
X77216904Y-124321428D02*
X76416904Y-124321428D01*
X76416904Y-124130952D01*
X76455000Y-124016666D01*
X76531190Y-123940476D01*
X76607380Y-123902380D01*
X76759761Y-123864285D01*
X76874047Y-123864285D01*
X77026428Y-123902380D01*
X77102619Y-123940476D01*
X77178809Y-124016666D01*
X77216904Y-124130952D01*
X77216904Y-124321428D01*
X77216904Y-123102380D02*
X77216904Y-123559523D01*
X77216904Y-123330952D02*
X76416904Y-123330952D01*
X76531190Y-123407142D01*
X76607380Y-123483333D01*
X76645476Y-123559523D01*
X76416904Y-122378571D02*
X76416904Y-122759523D01*
X76797857Y-122797619D01*
X76759761Y-122759523D01*
X76721666Y-122683333D01*
X76721666Y-122492857D01*
X76759761Y-122416666D01*
X76797857Y-122378571D01*
X76874047Y-122340476D01*
X77064523Y-122340476D01*
X77140714Y-122378571D01*
X77178809Y-122416666D01*
X77216904Y-122492857D01*
X77216904Y-122683333D01*
X77178809Y-122759523D01*
X77140714Y-122797619D01*
%TO.C,D14*%
X77216904Y-105201428D02*
X76416904Y-105201428D01*
X76416904Y-105010952D01*
X76455000Y-104896666D01*
X76531190Y-104820476D01*
X76607380Y-104782380D01*
X76759761Y-104744285D01*
X76874047Y-104744285D01*
X77026428Y-104782380D01*
X77102619Y-104820476D01*
X77178809Y-104896666D01*
X77216904Y-105010952D01*
X77216904Y-105201428D01*
X77216904Y-103982380D02*
X77216904Y-104439523D01*
X77216904Y-104210952D02*
X76416904Y-104210952D01*
X76531190Y-104287142D01*
X76607380Y-104363333D01*
X76645476Y-104439523D01*
X76683571Y-103296666D02*
X77216904Y-103296666D01*
X76378809Y-103487142D02*
X76950238Y-103677619D01*
X76950238Y-103182380D01*
%TO.C,D13*%
X77216904Y-86075228D02*
X76416904Y-86075228D01*
X76416904Y-85884752D01*
X76455000Y-85770466D01*
X76531190Y-85694276D01*
X76607380Y-85656180D01*
X76759761Y-85618085D01*
X76874047Y-85618085D01*
X77026428Y-85656180D01*
X77102619Y-85694276D01*
X77178809Y-85770466D01*
X77216904Y-85884752D01*
X77216904Y-86075228D01*
X77216904Y-84856180D02*
X77216904Y-85313323D01*
X77216904Y-85084752D02*
X76416904Y-85084752D01*
X76531190Y-85160942D01*
X76607380Y-85237133D01*
X76645476Y-85313323D01*
X76416904Y-84589514D02*
X76416904Y-84094276D01*
X76721666Y-84360942D01*
X76721666Y-84246657D01*
X76759761Y-84170466D01*
X76797857Y-84132371D01*
X76874047Y-84094276D01*
X77064523Y-84094276D01*
X77140714Y-84132371D01*
X77178809Y-84170466D01*
X77216904Y-84246657D01*
X77216904Y-84475228D01*
X77178809Y-84551419D01*
X77140714Y-84589514D01*
%TO.C,D12*%
X77216904Y-66466428D02*
X76416904Y-66466428D01*
X76416904Y-66275952D01*
X76455000Y-66161666D01*
X76531190Y-66085476D01*
X76607380Y-66047380D01*
X76759761Y-66009285D01*
X76874047Y-66009285D01*
X77026428Y-66047380D01*
X77102619Y-66085476D01*
X77178809Y-66161666D01*
X77216904Y-66275952D01*
X77216904Y-66466428D01*
X77216904Y-65247380D02*
X77216904Y-65704523D01*
X77216904Y-65475952D02*
X76416904Y-65475952D01*
X76531190Y-65552142D01*
X76607380Y-65628333D01*
X76645476Y-65704523D01*
X76493095Y-64942619D02*
X76455000Y-64904523D01*
X76416904Y-64828333D01*
X76416904Y-64637857D01*
X76455000Y-64561666D01*
X76493095Y-64523571D01*
X76569285Y-64485476D01*
X76645476Y-64485476D01*
X76759761Y-64523571D01*
X77216904Y-64980714D01*
X77216904Y-64485476D01*
%TO.C,D11*%
X77216904Y-48051428D02*
X76416904Y-48051428D01*
X76416904Y-47860952D01*
X76455000Y-47746666D01*
X76531190Y-47670476D01*
X76607380Y-47632380D01*
X76759761Y-47594285D01*
X76874047Y-47594285D01*
X77026428Y-47632380D01*
X77102619Y-47670476D01*
X77178809Y-47746666D01*
X77216904Y-47860952D01*
X77216904Y-48051428D01*
X77216904Y-46832380D02*
X77216904Y-47289523D01*
X77216904Y-47060952D02*
X76416904Y-47060952D01*
X76531190Y-47137142D01*
X76607380Y-47213333D01*
X76645476Y-47289523D01*
X77216904Y-46070476D02*
X77216904Y-46527619D01*
X77216904Y-46299047D02*
X76416904Y-46299047D01*
X76531190Y-46375238D01*
X76607380Y-46451428D01*
X76645476Y-46527619D01*
%TO.C,D10*%
X58166904Y-127959828D02*
X57366904Y-127959828D01*
X57366904Y-127769352D01*
X57405000Y-127655066D01*
X57481190Y-127578876D01*
X57557380Y-127540780D01*
X57709761Y-127502685D01*
X57824047Y-127502685D01*
X57976428Y-127540780D01*
X58052619Y-127578876D01*
X58128809Y-127655066D01*
X58166904Y-127769352D01*
X58166904Y-127959828D01*
X58166904Y-126740780D02*
X58166904Y-127197923D01*
X58166904Y-126969352D02*
X57366904Y-126969352D01*
X57481190Y-127045542D01*
X57557380Y-127121733D01*
X57595476Y-127197923D01*
X57366904Y-126245542D02*
X57366904Y-126169352D01*
X57405000Y-126093161D01*
X57443095Y-126055066D01*
X57519285Y-126016971D01*
X57671666Y-125978876D01*
X57862142Y-125978876D01*
X58014523Y-126016971D01*
X58090714Y-126055066D01*
X58128809Y-126093161D01*
X58166904Y-126169352D01*
X58166904Y-126245542D01*
X58128809Y-126321733D01*
X58090714Y-126359828D01*
X58014523Y-126397923D01*
X57862142Y-126436019D01*
X57671666Y-126436019D01*
X57519285Y-126397923D01*
X57443095Y-126359828D01*
X57405000Y-126321733D01*
X57366904Y-126245542D01*
%TO.C,D9*%
X58166904Y-108630476D02*
X57366904Y-108630476D01*
X57366904Y-108440000D01*
X57405000Y-108325714D01*
X57481190Y-108249523D01*
X57557380Y-108211428D01*
X57709761Y-108173333D01*
X57824047Y-108173333D01*
X57976428Y-108211428D01*
X58052619Y-108249523D01*
X58128809Y-108325714D01*
X58166904Y-108440000D01*
X58166904Y-108630476D01*
X58166904Y-107792380D02*
X58166904Y-107640000D01*
X58128809Y-107563809D01*
X58090714Y-107525714D01*
X57976428Y-107449523D01*
X57824047Y-107411428D01*
X57519285Y-107411428D01*
X57443095Y-107449523D01*
X57405000Y-107487619D01*
X57366904Y-107563809D01*
X57366904Y-107716190D01*
X57405000Y-107792380D01*
X57443095Y-107830476D01*
X57519285Y-107868571D01*
X57709761Y-107868571D01*
X57785952Y-107830476D01*
X57824047Y-107792380D01*
X57862142Y-107716190D01*
X57862142Y-107563809D01*
X57824047Y-107487619D01*
X57785952Y-107449523D01*
X57709761Y-107411428D01*
%TO.C,D8*%
X58166904Y-89580476D02*
X57366904Y-89580476D01*
X57366904Y-89390000D01*
X57405000Y-89275714D01*
X57481190Y-89199523D01*
X57557380Y-89161428D01*
X57709761Y-89123333D01*
X57824047Y-89123333D01*
X57976428Y-89161428D01*
X58052619Y-89199523D01*
X58128809Y-89275714D01*
X58166904Y-89390000D01*
X58166904Y-89580476D01*
X57709761Y-88666190D02*
X57671666Y-88742380D01*
X57633571Y-88780476D01*
X57557380Y-88818571D01*
X57519285Y-88818571D01*
X57443095Y-88780476D01*
X57405000Y-88742380D01*
X57366904Y-88666190D01*
X57366904Y-88513809D01*
X57405000Y-88437619D01*
X57443095Y-88399523D01*
X57519285Y-88361428D01*
X57557380Y-88361428D01*
X57633571Y-88399523D01*
X57671666Y-88437619D01*
X57709761Y-88513809D01*
X57709761Y-88666190D01*
X57747857Y-88742380D01*
X57785952Y-88780476D01*
X57862142Y-88818571D01*
X58014523Y-88818571D01*
X58090714Y-88780476D01*
X58128809Y-88742380D01*
X58166904Y-88666190D01*
X58166904Y-88513809D01*
X58128809Y-88437619D01*
X58090714Y-88399523D01*
X58014523Y-88361428D01*
X57862142Y-88361428D01*
X57785952Y-88399523D01*
X57747857Y-88437619D01*
X57709761Y-88513809D01*
%TO.C,D7*%
X58166904Y-70746376D02*
X57366904Y-70746376D01*
X57366904Y-70555900D01*
X57405000Y-70441614D01*
X57481190Y-70365423D01*
X57557380Y-70327328D01*
X57709761Y-70289233D01*
X57824047Y-70289233D01*
X57976428Y-70327328D01*
X58052619Y-70365423D01*
X58128809Y-70441614D01*
X58166904Y-70555900D01*
X58166904Y-70746376D01*
X57366904Y-70022566D02*
X57366904Y-69489233D01*
X58166904Y-69832090D01*
%TO.C,D6*%
X58166904Y-51480476D02*
X57366904Y-51480476D01*
X57366904Y-51290000D01*
X57405000Y-51175714D01*
X57481190Y-51099523D01*
X57557380Y-51061428D01*
X57709761Y-51023333D01*
X57824047Y-51023333D01*
X57976428Y-51061428D01*
X58052619Y-51099523D01*
X58128809Y-51175714D01*
X58166904Y-51290000D01*
X58166904Y-51480476D01*
X57366904Y-50337619D02*
X57366904Y-50490000D01*
X57405000Y-50566190D01*
X57443095Y-50604285D01*
X57557380Y-50680476D01*
X57709761Y-50718571D01*
X58014523Y-50718571D01*
X58090714Y-50680476D01*
X58128809Y-50642380D01*
X58166904Y-50566190D01*
X58166904Y-50413809D01*
X58128809Y-50337619D01*
X58090714Y-50299523D01*
X58014523Y-50261428D01*
X57824047Y-50261428D01*
X57747857Y-50299523D01*
X57709761Y-50337619D01*
X57671666Y-50413809D01*
X57671666Y-50566190D01*
X57709761Y-50642380D01*
X57747857Y-50680476D01*
X57824047Y-50718571D01*
%TO.C,D5*%
X39116904Y-127680476D02*
X38316904Y-127680476D01*
X38316904Y-127490000D01*
X38355000Y-127375714D01*
X38431190Y-127299523D01*
X38507380Y-127261428D01*
X38659761Y-127223333D01*
X38774047Y-127223333D01*
X38926428Y-127261428D01*
X39002619Y-127299523D01*
X39078809Y-127375714D01*
X39116904Y-127490000D01*
X39116904Y-127680476D01*
X38316904Y-126499523D02*
X38316904Y-126880476D01*
X38697857Y-126918571D01*
X38659761Y-126880476D01*
X38621666Y-126804285D01*
X38621666Y-126613809D01*
X38659761Y-126537619D01*
X38697857Y-126499523D01*
X38774047Y-126461428D01*
X38964523Y-126461428D01*
X39040714Y-126499523D01*
X39078809Y-126537619D01*
X39116904Y-126613809D01*
X39116904Y-126804285D01*
X39078809Y-126880476D01*
X39040714Y-126918571D01*
%TO.C,D4*%
X39116904Y-108630476D02*
X38316904Y-108630476D01*
X38316904Y-108440000D01*
X38355000Y-108325714D01*
X38431190Y-108249523D01*
X38507380Y-108211428D01*
X38659761Y-108173333D01*
X38774047Y-108173333D01*
X38926428Y-108211428D01*
X39002619Y-108249523D01*
X39078809Y-108325714D01*
X39116904Y-108440000D01*
X39116904Y-108630476D01*
X38583571Y-107487619D02*
X39116904Y-107487619D01*
X38278809Y-107678095D02*
X38850238Y-107868571D01*
X38850238Y-107373333D01*
%TO.C,D3*%
X39116904Y-89400476D02*
X38316904Y-89400476D01*
X38316904Y-89210000D01*
X38355000Y-89095714D01*
X38431190Y-89019523D01*
X38507380Y-88981428D01*
X38659761Y-88943333D01*
X38774047Y-88943333D01*
X38926428Y-88981428D01*
X39002619Y-89019523D01*
X39078809Y-89095714D01*
X39116904Y-89210000D01*
X39116904Y-89400476D01*
X38316904Y-88676666D02*
X38316904Y-88181428D01*
X38621666Y-88448095D01*
X38621666Y-88333809D01*
X38659761Y-88257619D01*
X38697857Y-88219523D01*
X38774047Y-88181428D01*
X38964523Y-88181428D01*
X39040714Y-88219523D01*
X39078809Y-88257619D01*
X39116904Y-88333809D01*
X39116904Y-88562380D01*
X39078809Y-88638571D01*
X39040714Y-88676666D01*
%TO.C,D2*%
X39116904Y-70530476D02*
X38316904Y-70530476D01*
X38316904Y-70340000D01*
X38355000Y-70225714D01*
X38431190Y-70149523D01*
X38507380Y-70111428D01*
X38659761Y-70073333D01*
X38774047Y-70073333D01*
X38926428Y-70111428D01*
X39002619Y-70149523D01*
X39078809Y-70225714D01*
X39116904Y-70340000D01*
X39116904Y-70530476D01*
X38393095Y-69768571D02*
X38355000Y-69730476D01*
X38316904Y-69654285D01*
X38316904Y-69463809D01*
X38355000Y-69387619D01*
X38393095Y-69349523D01*
X38469285Y-69311428D01*
X38545476Y-69311428D01*
X38659761Y-69349523D01*
X39116904Y-69806666D01*
X39116904Y-69311428D01*
%TO.C,D1*%
X39116904Y-51480476D02*
X38316904Y-51480476D01*
X38316904Y-51290000D01*
X38355000Y-51175714D01*
X38431190Y-51099523D01*
X38507380Y-51061428D01*
X38659761Y-51023333D01*
X38774047Y-51023333D01*
X38926428Y-51061428D01*
X39002619Y-51099523D01*
X39078809Y-51175714D01*
X39116904Y-51290000D01*
X39116904Y-51480476D01*
X39116904Y-50261428D02*
X39116904Y-50718571D01*
X39116904Y-50490000D02*
X38316904Y-50490000D01*
X38431190Y-50566190D01*
X38507380Y-50642380D01*
X38545476Y-50718571D01*
%TO.C,SW23*%
X102330476Y-77620761D02*
X102473333Y-77668380D01*
X102711428Y-77668380D01*
X102806666Y-77620761D01*
X102854285Y-77573142D01*
X102901904Y-77477904D01*
X102901904Y-77382666D01*
X102854285Y-77287428D01*
X102806666Y-77239809D01*
X102711428Y-77192190D01*
X102520952Y-77144571D01*
X102425714Y-77096952D01*
X102378095Y-77049333D01*
X102330476Y-76954095D01*
X102330476Y-76858857D01*
X102378095Y-76763619D01*
X102425714Y-76716000D01*
X102520952Y-76668380D01*
X102759047Y-76668380D01*
X102901904Y-76716000D01*
X103235238Y-76668380D02*
X103473333Y-77668380D01*
X103663809Y-76954095D01*
X103854285Y-77668380D01*
X104092380Y-76668380D01*
X104425714Y-76763619D02*
X104473333Y-76716000D01*
X104568571Y-76668380D01*
X104806666Y-76668380D01*
X104901904Y-76716000D01*
X104949523Y-76763619D01*
X104997142Y-76858857D01*
X104997142Y-76954095D01*
X104949523Y-77096952D01*
X104378095Y-77668380D01*
X104997142Y-77668380D01*
X105330476Y-76668380D02*
X105949523Y-76668380D01*
X105616190Y-77049333D01*
X105759047Y-77049333D01*
X105854285Y-77096952D01*
X105901904Y-77144571D01*
X105949523Y-77239809D01*
X105949523Y-77477904D01*
X105901904Y-77573142D01*
X105854285Y-77620761D01*
X105759047Y-77668380D01*
X105473333Y-77668380D01*
X105378095Y-77620761D01*
X105330476Y-77573142D01*
%TO.C,K1*%
X169987380Y-84740476D02*
X168987380Y-84740476D01*
X169987380Y-84169047D02*
X169415952Y-84597619D01*
X168987380Y-84169047D02*
X169558809Y-84740476D01*
X169463571Y-83740476D02*
X169463571Y-83407142D01*
X169987380Y-83264285D02*
X169987380Y-83740476D01*
X168987380Y-83740476D01*
X168987380Y-83264285D01*
X169511190Y-82645238D02*
X169987380Y-82645238D01*
X168987380Y-82978571D02*
X169511190Y-82645238D01*
X168987380Y-82311904D01*
X169939761Y-82026190D02*
X169987380Y-81883333D01*
X169987380Y-81645238D01*
X169939761Y-81550000D01*
X169892142Y-81502380D01*
X169796904Y-81454761D01*
X169701666Y-81454761D01*
X169606428Y-81502380D01*
X169558809Y-81550000D01*
X169511190Y-81645238D01*
X169463571Y-81835714D01*
X169415952Y-81930952D01*
X169368333Y-81978571D01*
X169273095Y-82026190D01*
X169177857Y-82026190D01*
X169082619Y-81978571D01*
X169035000Y-81930952D01*
X168987380Y-81835714D01*
X168987380Y-81597619D01*
X169035000Y-81454761D01*
X168987380Y-81121428D02*
X169987380Y-80883333D01*
X169273095Y-80692857D01*
X169987380Y-80502380D01*
X168987380Y-80264285D01*
%TO.C,SW35*%
X166617220Y-121689297D02*
X166717128Y-121801965D01*
X166923325Y-121921012D01*
X167029613Y-121927392D01*
X167094662Y-121909962D01*
X167183520Y-121851293D01*
X167231139Y-121768814D01*
X167237519Y-121662526D01*
X167220089Y-121597477D01*
X167161420Y-121508619D01*
X167020272Y-121372142D01*
X166961603Y-121283283D01*
X166944174Y-121218235D01*
X166950553Y-121111946D01*
X166998172Y-121029468D01*
X167087031Y-120970799D01*
X167152080Y-120953369D01*
X167258368Y-120959749D01*
X167464564Y-121078796D01*
X167564473Y-121191464D01*
X167876957Y-121316892D02*
X167583154Y-122301965D01*
X168105254Y-121778613D01*
X167913068Y-122492441D01*
X168619265Y-121745463D01*
X168866701Y-121888320D02*
X169402812Y-122197844D01*
X168923660Y-122361092D01*
X169047378Y-122432520D01*
X169106047Y-122521379D01*
X169123477Y-122586427D01*
X169117097Y-122692716D01*
X168998050Y-122898912D01*
X168909191Y-122957581D01*
X168844142Y-122975011D01*
X168737854Y-122968631D01*
X168490418Y-122825774D01*
X168431749Y-122736916D01*
X168414320Y-122671867D01*
X170186358Y-122650225D02*
X169773965Y-122412130D01*
X169494631Y-122800713D01*
X169559680Y-122783283D01*
X169665968Y-122789663D01*
X169872164Y-122908711D01*
X169930833Y-122997569D01*
X169948263Y-123062618D01*
X169941883Y-123168906D01*
X169822836Y-123375103D01*
X169733977Y-123433772D01*
X169668929Y-123451201D01*
X169562640Y-123444822D01*
X169356444Y-123325774D01*
X169297775Y-123236916D01*
X169280345Y-123171867D01*
%TO.C,SW34*%
X146749928Y-111541027D02*
X146859276Y-111644558D01*
X147075064Y-111745182D01*
X147181503Y-111742273D01*
X147244786Y-111719241D01*
X147328192Y-111653050D01*
X147368442Y-111566735D01*
X147365534Y-111460295D01*
X147342501Y-111397013D01*
X147276310Y-111313606D01*
X147123805Y-111189950D01*
X147057615Y-111106543D01*
X147034582Y-111043261D01*
X147031674Y-110936821D01*
X147071923Y-110850506D01*
X147155330Y-110784316D01*
X147218612Y-110761283D01*
X147325052Y-110758375D01*
X147540839Y-110858998D01*
X147650187Y-110962530D01*
X147972415Y-111060245D02*
X147765584Y-112067176D01*
X148240084Y-111500312D01*
X148110844Y-112228174D01*
X148749250Y-111422489D01*
X149008195Y-111543237D02*
X149569243Y-111804858D01*
X149106143Y-112009246D01*
X149235615Y-112069620D01*
X149301805Y-112153027D01*
X149324838Y-112216309D01*
X149327746Y-112322748D01*
X149227123Y-112538536D01*
X149143716Y-112604726D01*
X149080434Y-112627759D01*
X148973994Y-112630667D01*
X148715049Y-112509919D01*
X148648859Y-112426512D01*
X148625826Y-112363230D01*
X150205205Y-112469205D02*
X149923460Y-113073410D01*
X150150415Y-112023322D02*
X149632757Y-112570061D01*
X150193805Y-112831682D01*
%TO.C,SW33*%
X140430476Y-85240761D02*
X140573333Y-85288380D01*
X140811428Y-85288380D01*
X140906666Y-85240761D01*
X140954285Y-85193142D01*
X141001904Y-85097904D01*
X141001904Y-85002666D01*
X140954285Y-84907428D01*
X140906666Y-84859809D01*
X140811428Y-84812190D01*
X140620952Y-84764571D01*
X140525714Y-84716952D01*
X140478095Y-84669333D01*
X140430476Y-84574095D01*
X140430476Y-84478857D01*
X140478095Y-84383619D01*
X140525714Y-84336000D01*
X140620952Y-84288380D01*
X140859047Y-84288380D01*
X141001904Y-84336000D01*
X141335238Y-84288380D02*
X141573333Y-85288380D01*
X141763809Y-84574095D01*
X141954285Y-85288380D01*
X142192380Y-84288380D01*
X142478095Y-84288380D02*
X143097142Y-84288380D01*
X142763809Y-84669333D01*
X142906666Y-84669333D01*
X143001904Y-84716952D01*
X143049523Y-84764571D01*
X143097142Y-84859809D01*
X143097142Y-85097904D01*
X143049523Y-85193142D01*
X143001904Y-85240761D01*
X142906666Y-85288380D01*
X142620952Y-85288380D01*
X142525714Y-85240761D01*
X142478095Y-85193142D01*
X143430476Y-84288380D02*
X144049523Y-84288380D01*
X143716190Y-84669333D01*
X143859047Y-84669333D01*
X143954285Y-84716952D01*
X144001904Y-84764571D01*
X144049523Y-84859809D01*
X144049523Y-85097904D01*
X144001904Y-85193142D01*
X143954285Y-85240761D01*
X143859047Y-85288380D01*
X143573333Y-85288380D01*
X143478095Y-85240761D01*
X143430476Y-85193142D01*
%TO.C,SW32*%
X140430476Y-66190761D02*
X140573333Y-66238380D01*
X140811428Y-66238380D01*
X140906666Y-66190761D01*
X140954285Y-66143142D01*
X141001904Y-66047904D01*
X141001904Y-65952666D01*
X140954285Y-65857428D01*
X140906666Y-65809809D01*
X140811428Y-65762190D01*
X140620952Y-65714571D01*
X140525714Y-65666952D01*
X140478095Y-65619333D01*
X140430476Y-65524095D01*
X140430476Y-65428857D01*
X140478095Y-65333619D01*
X140525714Y-65286000D01*
X140620952Y-65238380D01*
X140859047Y-65238380D01*
X141001904Y-65286000D01*
X141335238Y-65238380D02*
X141573333Y-66238380D01*
X141763809Y-65524095D01*
X141954285Y-66238380D01*
X142192380Y-65238380D01*
X142478095Y-65238380D02*
X143097142Y-65238380D01*
X142763809Y-65619333D01*
X142906666Y-65619333D01*
X143001904Y-65666952D01*
X143049523Y-65714571D01*
X143097142Y-65809809D01*
X143097142Y-66047904D01*
X143049523Y-66143142D01*
X143001904Y-66190761D01*
X142906666Y-66238380D01*
X142620952Y-66238380D01*
X142525714Y-66190761D01*
X142478095Y-66143142D01*
X143478095Y-65333619D02*
X143525714Y-65286000D01*
X143620952Y-65238380D01*
X143859047Y-65238380D01*
X143954285Y-65286000D01*
X144001904Y-65333619D01*
X144049523Y-65428857D01*
X144049523Y-65524095D01*
X144001904Y-65666952D01*
X143430476Y-66238380D01*
X144049523Y-66238380D01*
%TO.C,SW31*%
X140430476Y-47140761D02*
X140573333Y-47188380D01*
X140811428Y-47188380D01*
X140906666Y-47140761D01*
X140954285Y-47093142D01*
X141001904Y-46997904D01*
X141001904Y-46902666D01*
X140954285Y-46807428D01*
X140906666Y-46759809D01*
X140811428Y-46712190D01*
X140620952Y-46664571D01*
X140525714Y-46616952D01*
X140478095Y-46569333D01*
X140430476Y-46474095D01*
X140430476Y-46378857D01*
X140478095Y-46283619D01*
X140525714Y-46236000D01*
X140620952Y-46188380D01*
X140859047Y-46188380D01*
X141001904Y-46236000D01*
X141335238Y-46188380D02*
X141573333Y-47188380D01*
X141763809Y-46474095D01*
X141954285Y-47188380D01*
X142192380Y-46188380D01*
X142478095Y-46188380D02*
X143097142Y-46188380D01*
X142763809Y-46569333D01*
X142906666Y-46569333D01*
X143001904Y-46616952D01*
X143049523Y-46664571D01*
X143097142Y-46759809D01*
X143097142Y-46997904D01*
X143049523Y-47093142D01*
X143001904Y-47140761D01*
X142906666Y-47188380D01*
X142620952Y-47188380D01*
X142525714Y-47140761D01*
X142478095Y-47093142D01*
X144049523Y-47188380D02*
X143478095Y-47188380D01*
X143763809Y-47188380D02*
X143763809Y-46188380D01*
X143668571Y-46331238D01*
X143573333Y-46426476D01*
X143478095Y-46474095D01*
%TO.C,SW30*%
X156076220Y-140307497D02*
X156176128Y-140420165D01*
X156382325Y-140539212D01*
X156488613Y-140545592D01*
X156553662Y-140528162D01*
X156642520Y-140469493D01*
X156690139Y-140387014D01*
X156696519Y-140280726D01*
X156679089Y-140215677D01*
X156620420Y-140126819D01*
X156479272Y-139990342D01*
X156420603Y-139901483D01*
X156403174Y-139836435D01*
X156409553Y-139730146D01*
X156457172Y-139647668D01*
X156546031Y-139588999D01*
X156611080Y-139571569D01*
X156717368Y-139577949D01*
X156923564Y-139696996D01*
X157023473Y-139809664D01*
X157335957Y-139935092D02*
X157042154Y-140920165D01*
X157564254Y-140396813D01*
X157372068Y-141110641D01*
X158078265Y-140363663D01*
X158325701Y-140506520D02*
X158861812Y-140816044D01*
X158382660Y-140979292D01*
X158506378Y-141050720D01*
X158565047Y-141139579D01*
X158582477Y-141204627D01*
X158576097Y-141310916D01*
X158457050Y-141517112D01*
X158368191Y-141575781D01*
X158303142Y-141593211D01*
X158196854Y-141586831D01*
X157949418Y-141443974D01*
X157890749Y-141355116D01*
X157873320Y-141290067D01*
X159397922Y-141125568D02*
X159480401Y-141173187D01*
X159539070Y-141262045D01*
X159556500Y-141327094D01*
X159550120Y-141433382D01*
X159496121Y-141622149D01*
X159377074Y-141828345D01*
X159240596Y-141969493D01*
X159151738Y-142028162D01*
X159086689Y-142045592D01*
X158980401Y-142039212D01*
X158897922Y-141991593D01*
X158839253Y-141902735D01*
X158821824Y-141837686D01*
X158828203Y-141731398D01*
X158882202Y-141542631D01*
X159001250Y-141336435D01*
X159137727Y-141195287D01*
X159226586Y-141136618D01*
X159291634Y-141119188D01*
X159397922Y-141125568D01*
%TO.C,SW29*%
X121380476Y-100480761D02*
X121523333Y-100528380D01*
X121761428Y-100528380D01*
X121856666Y-100480761D01*
X121904285Y-100433142D01*
X121951904Y-100337904D01*
X121951904Y-100242666D01*
X121904285Y-100147428D01*
X121856666Y-100099809D01*
X121761428Y-100052190D01*
X121570952Y-100004571D01*
X121475714Y-99956952D01*
X121428095Y-99909333D01*
X121380476Y-99814095D01*
X121380476Y-99718857D01*
X121428095Y-99623619D01*
X121475714Y-99576000D01*
X121570952Y-99528380D01*
X121809047Y-99528380D01*
X121951904Y-99576000D01*
X122285238Y-99528380D02*
X122523333Y-100528380D01*
X122713809Y-99814095D01*
X122904285Y-100528380D01*
X123142380Y-99528380D01*
X123475714Y-99623619D02*
X123523333Y-99576000D01*
X123618571Y-99528380D01*
X123856666Y-99528380D01*
X123951904Y-99576000D01*
X123999523Y-99623619D01*
X124047142Y-99718857D01*
X124047142Y-99814095D01*
X123999523Y-99956952D01*
X123428095Y-100528380D01*
X124047142Y-100528380D01*
X124523333Y-100528380D02*
X124713809Y-100528380D01*
X124809047Y-100480761D01*
X124856666Y-100433142D01*
X124951904Y-100290285D01*
X124999523Y-100099809D01*
X124999523Y-99718857D01*
X124951904Y-99623619D01*
X124904285Y-99576000D01*
X124809047Y-99528380D01*
X124618571Y-99528380D01*
X124523333Y-99576000D01*
X124475714Y-99623619D01*
X124428095Y-99718857D01*
X124428095Y-99956952D01*
X124475714Y-100052190D01*
X124523333Y-100099809D01*
X124618571Y-100147428D01*
X124809047Y-100147428D01*
X124904285Y-100099809D01*
X124951904Y-100052190D01*
X124999523Y-99956952D01*
%TO.C,SW28*%
X121380476Y-81430761D02*
X121523333Y-81478380D01*
X121761428Y-81478380D01*
X121856666Y-81430761D01*
X121904285Y-81383142D01*
X121951904Y-81287904D01*
X121951904Y-81192666D01*
X121904285Y-81097428D01*
X121856666Y-81049809D01*
X121761428Y-81002190D01*
X121570952Y-80954571D01*
X121475714Y-80906952D01*
X121428095Y-80859333D01*
X121380476Y-80764095D01*
X121380476Y-80668857D01*
X121428095Y-80573619D01*
X121475714Y-80526000D01*
X121570952Y-80478380D01*
X121809047Y-80478380D01*
X121951904Y-80526000D01*
X122285238Y-80478380D02*
X122523333Y-81478380D01*
X122713809Y-80764095D01*
X122904285Y-81478380D01*
X123142380Y-80478380D01*
X123475714Y-80573619D02*
X123523333Y-80526000D01*
X123618571Y-80478380D01*
X123856666Y-80478380D01*
X123951904Y-80526000D01*
X123999523Y-80573619D01*
X124047142Y-80668857D01*
X124047142Y-80764095D01*
X123999523Y-80906952D01*
X123428095Y-81478380D01*
X124047142Y-81478380D01*
X124618571Y-80906952D02*
X124523333Y-80859333D01*
X124475714Y-80811714D01*
X124428095Y-80716476D01*
X124428095Y-80668857D01*
X124475714Y-80573619D01*
X124523333Y-80526000D01*
X124618571Y-80478380D01*
X124809047Y-80478380D01*
X124904285Y-80526000D01*
X124951904Y-80573619D01*
X124999523Y-80668857D01*
X124999523Y-80716476D01*
X124951904Y-80811714D01*
X124904285Y-80859333D01*
X124809047Y-80906952D01*
X124618571Y-80906952D01*
X124523333Y-80954571D01*
X124475714Y-81002190D01*
X124428095Y-81097428D01*
X124428095Y-81287904D01*
X124475714Y-81383142D01*
X124523333Y-81430761D01*
X124618571Y-81478380D01*
X124809047Y-81478380D01*
X124904285Y-81430761D01*
X124951904Y-81383142D01*
X124999523Y-81287904D01*
X124999523Y-81097428D01*
X124951904Y-81002190D01*
X124904285Y-80954571D01*
X124809047Y-80906952D01*
%TO.C,SW27*%
X121380476Y-62380761D02*
X121523333Y-62428380D01*
X121761428Y-62428380D01*
X121856666Y-62380761D01*
X121904285Y-62333142D01*
X121951904Y-62237904D01*
X121951904Y-62142666D01*
X121904285Y-62047428D01*
X121856666Y-61999809D01*
X121761428Y-61952190D01*
X121570952Y-61904571D01*
X121475714Y-61856952D01*
X121428095Y-61809333D01*
X121380476Y-61714095D01*
X121380476Y-61618857D01*
X121428095Y-61523619D01*
X121475714Y-61476000D01*
X121570952Y-61428380D01*
X121809047Y-61428380D01*
X121951904Y-61476000D01*
X122285238Y-61428380D02*
X122523333Y-62428380D01*
X122713809Y-61714095D01*
X122904285Y-62428380D01*
X123142380Y-61428380D01*
X123475714Y-61523619D02*
X123523333Y-61476000D01*
X123618571Y-61428380D01*
X123856666Y-61428380D01*
X123951904Y-61476000D01*
X123999523Y-61523619D01*
X124047142Y-61618857D01*
X124047142Y-61714095D01*
X123999523Y-61856952D01*
X123428095Y-62428380D01*
X124047142Y-62428380D01*
X124380476Y-61428380D02*
X125047142Y-61428380D01*
X124618571Y-62428380D01*
%TO.C,SW26*%
X121380476Y-43330761D02*
X121523333Y-43378380D01*
X121761428Y-43378380D01*
X121856666Y-43330761D01*
X121904285Y-43283142D01*
X121951904Y-43187904D01*
X121951904Y-43092666D01*
X121904285Y-42997428D01*
X121856666Y-42949809D01*
X121761428Y-42902190D01*
X121570952Y-42854571D01*
X121475714Y-42806952D01*
X121428095Y-42759333D01*
X121380476Y-42664095D01*
X121380476Y-42568857D01*
X121428095Y-42473619D01*
X121475714Y-42426000D01*
X121570952Y-42378380D01*
X121809047Y-42378380D01*
X121951904Y-42426000D01*
X122285238Y-42378380D02*
X122523333Y-43378380D01*
X122713809Y-42664095D01*
X122904285Y-43378380D01*
X123142380Y-42378380D01*
X123475714Y-42473619D02*
X123523333Y-42426000D01*
X123618571Y-42378380D01*
X123856666Y-42378380D01*
X123951904Y-42426000D01*
X123999523Y-42473619D01*
X124047142Y-42568857D01*
X124047142Y-42664095D01*
X123999523Y-42806952D01*
X123428095Y-43378380D01*
X124047142Y-43378380D01*
X124904285Y-42378380D02*
X124713809Y-42378380D01*
X124618571Y-42426000D01*
X124570952Y-42473619D01*
X124475714Y-42616476D01*
X124428095Y-42806952D01*
X124428095Y-43187904D01*
X124475714Y-43283142D01*
X124523333Y-43330761D01*
X124618571Y-43378380D01*
X124809047Y-43378380D01*
X124904285Y-43330761D01*
X124951904Y-43283142D01*
X124999523Y-43187904D01*
X124999523Y-42949809D01*
X124951904Y-42854571D01*
X124904285Y-42806952D01*
X124809047Y-42759333D01*
X124618571Y-42759333D01*
X124523333Y-42806952D01*
X124475714Y-42854571D01*
X124428095Y-42949809D01*
%TO.C,SW25*%
X137732928Y-130946627D02*
X137842276Y-131050158D01*
X138058064Y-131150782D01*
X138164503Y-131147873D01*
X138227786Y-131124841D01*
X138311192Y-131058650D01*
X138351442Y-130972335D01*
X138348534Y-130865895D01*
X138325501Y-130802613D01*
X138259310Y-130719206D01*
X138106805Y-130595550D01*
X138040615Y-130512143D01*
X138017582Y-130448861D01*
X138014674Y-130342421D01*
X138054923Y-130256106D01*
X138138330Y-130189916D01*
X138201612Y-130166883D01*
X138308052Y-130163975D01*
X138523839Y-130264598D01*
X138633187Y-130368130D01*
X138955415Y-130465845D02*
X138748584Y-131472776D01*
X139223084Y-130905912D01*
X139093844Y-131633774D01*
X139732250Y-130828089D01*
X139994103Y-131055277D02*
X140057385Y-131032244D01*
X140163825Y-131029336D01*
X140379613Y-131129960D01*
X140445803Y-131213366D01*
X140468836Y-131276649D01*
X140471744Y-131383088D01*
X140431494Y-131469403D01*
X140327963Y-131578751D01*
X139568577Y-131855145D01*
X140129624Y-132116766D01*
X141372235Y-131592827D02*
X140940660Y-131391580D01*
X140696256Y-131803031D01*
X140759538Y-131779998D01*
X140865978Y-131777090D01*
X141081765Y-131877713D01*
X141147956Y-131961120D01*
X141170989Y-132024402D01*
X141173897Y-132130842D01*
X141073273Y-132346630D01*
X140989866Y-132412820D01*
X140926584Y-132435853D01*
X140820145Y-132438761D01*
X140604357Y-132338138D01*
X140538167Y-132254731D01*
X140515134Y-132191449D01*
%TO.C,SW24*%
X102330476Y-96670761D02*
X102473333Y-96718380D01*
X102711428Y-96718380D01*
X102806666Y-96670761D01*
X102854285Y-96623142D01*
X102901904Y-96527904D01*
X102901904Y-96432666D01*
X102854285Y-96337428D01*
X102806666Y-96289809D01*
X102711428Y-96242190D01*
X102520952Y-96194571D01*
X102425714Y-96146952D01*
X102378095Y-96099333D01*
X102330476Y-96004095D01*
X102330476Y-95908857D01*
X102378095Y-95813619D01*
X102425714Y-95766000D01*
X102520952Y-95718380D01*
X102759047Y-95718380D01*
X102901904Y-95766000D01*
X103235238Y-95718380D02*
X103473333Y-96718380D01*
X103663809Y-96004095D01*
X103854285Y-96718380D01*
X104092380Y-95718380D01*
X104425714Y-95813619D02*
X104473333Y-95766000D01*
X104568571Y-95718380D01*
X104806666Y-95718380D01*
X104901904Y-95766000D01*
X104949523Y-95813619D01*
X104997142Y-95908857D01*
X104997142Y-96004095D01*
X104949523Y-96146952D01*
X104378095Y-96718380D01*
X104997142Y-96718380D01*
X105854285Y-96051714D02*
X105854285Y-96718380D01*
X105616190Y-95670761D02*
X105378095Y-96385047D01*
X105997142Y-96385047D01*
%TO.C,SW22*%
X102330476Y-58570761D02*
X102473333Y-58618380D01*
X102711428Y-58618380D01*
X102806666Y-58570761D01*
X102854285Y-58523142D01*
X102901904Y-58427904D01*
X102901904Y-58332666D01*
X102854285Y-58237428D01*
X102806666Y-58189809D01*
X102711428Y-58142190D01*
X102520952Y-58094571D01*
X102425714Y-58046952D01*
X102378095Y-57999333D01*
X102330476Y-57904095D01*
X102330476Y-57808857D01*
X102378095Y-57713619D01*
X102425714Y-57666000D01*
X102520952Y-57618380D01*
X102759047Y-57618380D01*
X102901904Y-57666000D01*
X103235238Y-57618380D02*
X103473333Y-58618380D01*
X103663809Y-57904095D01*
X103854285Y-58618380D01*
X104092380Y-57618380D01*
X104425714Y-57713619D02*
X104473333Y-57666000D01*
X104568571Y-57618380D01*
X104806666Y-57618380D01*
X104901904Y-57666000D01*
X104949523Y-57713619D01*
X104997142Y-57808857D01*
X104997142Y-57904095D01*
X104949523Y-58046952D01*
X104378095Y-58618380D01*
X104997142Y-58618380D01*
X105378095Y-57713619D02*
X105425714Y-57666000D01*
X105520952Y-57618380D01*
X105759047Y-57618380D01*
X105854285Y-57666000D01*
X105901904Y-57713619D01*
X105949523Y-57808857D01*
X105949523Y-57904095D01*
X105901904Y-58046952D01*
X105330476Y-58618380D01*
X105949523Y-58618380D01*
%TO.C,SW21*%
X102330476Y-39520761D02*
X102473333Y-39568380D01*
X102711428Y-39568380D01*
X102806666Y-39520761D01*
X102854285Y-39473142D01*
X102901904Y-39377904D01*
X102901904Y-39282666D01*
X102854285Y-39187428D01*
X102806666Y-39139809D01*
X102711428Y-39092190D01*
X102520952Y-39044571D01*
X102425714Y-38996952D01*
X102378095Y-38949333D01*
X102330476Y-38854095D01*
X102330476Y-38758857D01*
X102378095Y-38663619D01*
X102425714Y-38616000D01*
X102520952Y-38568380D01*
X102759047Y-38568380D01*
X102901904Y-38616000D01*
X103235238Y-38568380D02*
X103473333Y-39568380D01*
X103663809Y-38854095D01*
X103854285Y-39568380D01*
X104092380Y-38568380D01*
X104425714Y-38663619D02*
X104473333Y-38616000D01*
X104568571Y-38568380D01*
X104806666Y-38568380D01*
X104901904Y-38616000D01*
X104949523Y-38663619D01*
X104997142Y-38758857D01*
X104997142Y-38854095D01*
X104949523Y-38996952D01*
X104378095Y-39568380D01*
X104997142Y-39568380D01*
X105949523Y-39568380D02*
X105378095Y-39568380D01*
X105663809Y-39568380D02*
X105663809Y-38568380D01*
X105568571Y-38711238D01*
X105473333Y-38806476D01*
X105378095Y-38854095D01*
%TO.C,SW20*%
X118649952Y-123172319D02*
X118767907Y-123265926D01*
X118991643Y-123347359D01*
X119097424Y-123335185D01*
X119158458Y-123306725D01*
X119235779Y-123233517D01*
X119268352Y-123144022D01*
X119256178Y-123038241D01*
X119227718Y-122977207D01*
X119154510Y-122899887D01*
X118991807Y-122789993D01*
X118918600Y-122712672D01*
X118890139Y-122651638D01*
X118877965Y-122545857D01*
X118910538Y-122456362D01*
X118987859Y-122383155D01*
X119048893Y-122354694D01*
X119154674Y-122342520D01*
X119378410Y-122423953D01*
X119496366Y-122517561D01*
X119825883Y-122586820D02*
X119707599Y-123607946D01*
X120130889Y-123001884D01*
X120065577Y-123738240D01*
X120631334Y-122879980D01*
X120911992Y-123083481D02*
X120973025Y-123055021D01*
X121078807Y-123042847D01*
X121302543Y-123124280D01*
X121375751Y-123201601D01*
X121404211Y-123262635D01*
X121416385Y-123368416D01*
X121383812Y-123457911D01*
X121290205Y-123575866D01*
X120557797Y-123917393D01*
X121139512Y-124129120D01*
X122063247Y-123401154D02*
X122152741Y-123433727D01*
X122225949Y-123511048D01*
X122254410Y-123572082D01*
X122266583Y-123677863D01*
X122246184Y-123873139D01*
X122164751Y-124096875D01*
X122054857Y-124259577D01*
X121977536Y-124332785D01*
X121916502Y-124361246D01*
X121810721Y-124373420D01*
X121721226Y-124340846D01*
X121648019Y-124263526D01*
X121619558Y-124202492D01*
X121607384Y-124096711D01*
X121627783Y-123901435D01*
X121709217Y-123677699D01*
X121819111Y-123514996D01*
X121896431Y-123441788D01*
X121957465Y-123413328D01*
X122063247Y-123401154D01*
%TO.C,SW19*%
X83280476Y-92860761D02*
X83423333Y-92908380D01*
X83661428Y-92908380D01*
X83756666Y-92860761D01*
X83804285Y-92813142D01*
X83851904Y-92717904D01*
X83851904Y-92622666D01*
X83804285Y-92527428D01*
X83756666Y-92479809D01*
X83661428Y-92432190D01*
X83470952Y-92384571D01*
X83375714Y-92336952D01*
X83328095Y-92289333D01*
X83280476Y-92194095D01*
X83280476Y-92098857D01*
X83328095Y-92003619D01*
X83375714Y-91956000D01*
X83470952Y-91908380D01*
X83709047Y-91908380D01*
X83851904Y-91956000D01*
X84185238Y-91908380D02*
X84423333Y-92908380D01*
X84613809Y-92194095D01*
X84804285Y-92908380D01*
X85042380Y-91908380D01*
X85947142Y-92908380D02*
X85375714Y-92908380D01*
X85661428Y-92908380D02*
X85661428Y-91908380D01*
X85566190Y-92051238D01*
X85470952Y-92146476D01*
X85375714Y-92194095D01*
X86423333Y-92908380D02*
X86613809Y-92908380D01*
X86709047Y-92860761D01*
X86756666Y-92813142D01*
X86851904Y-92670285D01*
X86899523Y-92479809D01*
X86899523Y-92098857D01*
X86851904Y-92003619D01*
X86804285Y-91956000D01*
X86709047Y-91908380D01*
X86518571Y-91908380D01*
X86423333Y-91956000D01*
X86375714Y-92003619D01*
X86328095Y-92098857D01*
X86328095Y-92336952D01*
X86375714Y-92432190D01*
X86423333Y-92479809D01*
X86518571Y-92527428D01*
X86709047Y-92527428D01*
X86804285Y-92479809D01*
X86851904Y-92432190D01*
X86899523Y-92336952D01*
%TO.C,SW18*%
X83280476Y-73810761D02*
X83423333Y-73858380D01*
X83661428Y-73858380D01*
X83756666Y-73810761D01*
X83804285Y-73763142D01*
X83851904Y-73667904D01*
X83851904Y-73572666D01*
X83804285Y-73477428D01*
X83756666Y-73429809D01*
X83661428Y-73382190D01*
X83470952Y-73334571D01*
X83375714Y-73286952D01*
X83328095Y-73239333D01*
X83280476Y-73144095D01*
X83280476Y-73048857D01*
X83328095Y-72953619D01*
X83375714Y-72906000D01*
X83470952Y-72858380D01*
X83709047Y-72858380D01*
X83851904Y-72906000D01*
X84185238Y-72858380D02*
X84423333Y-73858380D01*
X84613809Y-73144095D01*
X84804285Y-73858380D01*
X85042380Y-72858380D01*
X85947142Y-73858380D02*
X85375714Y-73858380D01*
X85661428Y-73858380D02*
X85661428Y-72858380D01*
X85566190Y-73001238D01*
X85470952Y-73096476D01*
X85375714Y-73144095D01*
X86518571Y-73286952D02*
X86423333Y-73239333D01*
X86375714Y-73191714D01*
X86328095Y-73096476D01*
X86328095Y-73048857D01*
X86375714Y-72953619D01*
X86423333Y-72906000D01*
X86518571Y-72858380D01*
X86709047Y-72858380D01*
X86804285Y-72906000D01*
X86851904Y-72953619D01*
X86899523Y-73048857D01*
X86899523Y-73096476D01*
X86851904Y-73191714D01*
X86804285Y-73239333D01*
X86709047Y-73286952D01*
X86518571Y-73286952D01*
X86423333Y-73334571D01*
X86375714Y-73382190D01*
X86328095Y-73477428D01*
X86328095Y-73667904D01*
X86375714Y-73763142D01*
X86423333Y-73810761D01*
X86518571Y-73858380D01*
X86709047Y-73858380D01*
X86804285Y-73810761D01*
X86851904Y-73763142D01*
X86899523Y-73667904D01*
X86899523Y-73477428D01*
X86851904Y-73382190D01*
X86804285Y-73334571D01*
X86709047Y-73286952D01*
%TO.C,SW17*%
X83280476Y-54760761D02*
X83423333Y-54808380D01*
X83661428Y-54808380D01*
X83756666Y-54760761D01*
X83804285Y-54713142D01*
X83851904Y-54617904D01*
X83851904Y-54522666D01*
X83804285Y-54427428D01*
X83756666Y-54379809D01*
X83661428Y-54332190D01*
X83470952Y-54284571D01*
X83375714Y-54236952D01*
X83328095Y-54189333D01*
X83280476Y-54094095D01*
X83280476Y-53998857D01*
X83328095Y-53903619D01*
X83375714Y-53856000D01*
X83470952Y-53808380D01*
X83709047Y-53808380D01*
X83851904Y-53856000D01*
X84185238Y-53808380D02*
X84423333Y-54808380D01*
X84613809Y-54094095D01*
X84804285Y-54808380D01*
X85042380Y-53808380D01*
X85947142Y-54808380D02*
X85375714Y-54808380D01*
X85661428Y-54808380D02*
X85661428Y-53808380D01*
X85566190Y-53951238D01*
X85470952Y-54046476D01*
X85375714Y-54094095D01*
X86280476Y-53808380D02*
X86947142Y-53808380D01*
X86518571Y-54808380D01*
%TO.C,SW16*%
X83280476Y-35710761D02*
X83423333Y-35758380D01*
X83661428Y-35758380D01*
X83756666Y-35710761D01*
X83804285Y-35663142D01*
X83851904Y-35567904D01*
X83851904Y-35472666D01*
X83804285Y-35377428D01*
X83756666Y-35329809D01*
X83661428Y-35282190D01*
X83470952Y-35234571D01*
X83375714Y-35186952D01*
X83328095Y-35139333D01*
X83280476Y-35044095D01*
X83280476Y-34948857D01*
X83328095Y-34853619D01*
X83375714Y-34806000D01*
X83470952Y-34758380D01*
X83709047Y-34758380D01*
X83851904Y-34806000D01*
X84185238Y-34758380D02*
X84423333Y-35758380D01*
X84613809Y-35044095D01*
X84804285Y-35758380D01*
X85042380Y-34758380D01*
X85947142Y-35758380D02*
X85375714Y-35758380D01*
X85661428Y-35758380D02*
X85661428Y-34758380D01*
X85566190Y-34901238D01*
X85470952Y-34996476D01*
X85375714Y-35044095D01*
X86804285Y-34758380D02*
X86613809Y-34758380D01*
X86518571Y-34806000D01*
X86470952Y-34853619D01*
X86375714Y-34996476D01*
X86328095Y-35186952D01*
X86328095Y-35567904D01*
X86375714Y-35663142D01*
X86423333Y-35710761D01*
X86518571Y-35758380D01*
X86709047Y-35758380D01*
X86804285Y-35710761D01*
X86851904Y-35663142D01*
X86899523Y-35567904D01*
X86899523Y-35329809D01*
X86851904Y-35234571D01*
X86804285Y-35186952D01*
X86709047Y-35139333D01*
X86518571Y-35139333D01*
X86423333Y-35186952D01*
X86375714Y-35234571D01*
X86328095Y-35329809D01*
%TO.C,SW15*%
X64230476Y-115720761D02*
X64373333Y-115768380D01*
X64611428Y-115768380D01*
X64706666Y-115720761D01*
X64754285Y-115673142D01*
X64801904Y-115577904D01*
X64801904Y-115482666D01*
X64754285Y-115387428D01*
X64706666Y-115339809D01*
X64611428Y-115292190D01*
X64420952Y-115244571D01*
X64325714Y-115196952D01*
X64278095Y-115149333D01*
X64230476Y-115054095D01*
X64230476Y-114958857D01*
X64278095Y-114863619D01*
X64325714Y-114816000D01*
X64420952Y-114768380D01*
X64659047Y-114768380D01*
X64801904Y-114816000D01*
X65135238Y-114768380D02*
X65373333Y-115768380D01*
X65563809Y-115054095D01*
X65754285Y-115768380D01*
X65992380Y-114768380D01*
X66897142Y-115768380D02*
X66325714Y-115768380D01*
X66611428Y-115768380D02*
X66611428Y-114768380D01*
X66516190Y-114911238D01*
X66420952Y-115006476D01*
X66325714Y-115054095D01*
X67801904Y-114768380D02*
X67325714Y-114768380D01*
X67278095Y-115244571D01*
X67325714Y-115196952D01*
X67420952Y-115149333D01*
X67659047Y-115149333D01*
X67754285Y-115196952D01*
X67801904Y-115244571D01*
X67849523Y-115339809D01*
X67849523Y-115577904D01*
X67801904Y-115673142D01*
X67754285Y-115720761D01*
X67659047Y-115768380D01*
X67420952Y-115768380D01*
X67325714Y-115720761D01*
X67278095Y-115673142D01*
%TO.C,SW14*%
X64230476Y-96670761D02*
X64373333Y-96718380D01*
X64611428Y-96718380D01*
X64706666Y-96670761D01*
X64754285Y-96623142D01*
X64801904Y-96527904D01*
X64801904Y-96432666D01*
X64754285Y-96337428D01*
X64706666Y-96289809D01*
X64611428Y-96242190D01*
X64420952Y-96194571D01*
X64325714Y-96146952D01*
X64278095Y-96099333D01*
X64230476Y-96004095D01*
X64230476Y-95908857D01*
X64278095Y-95813619D01*
X64325714Y-95766000D01*
X64420952Y-95718380D01*
X64659047Y-95718380D01*
X64801904Y-95766000D01*
X65135238Y-95718380D02*
X65373333Y-96718380D01*
X65563809Y-96004095D01*
X65754285Y-96718380D01*
X65992380Y-95718380D01*
X66897142Y-96718380D02*
X66325714Y-96718380D01*
X66611428Y-96718380D02*
X66611428Y-95718380D01*
X66516190Y-95861238D01*
X66420952Y-95956476D01*
X66325714Y-96004095D01*
X67754285Y-96051714D02*
X67754285Y-96718380D01*
X67516190Y-95670761D02*
X67278095Y-96385047D01*
X67897142Y-96385047D01*
%TO.C,SW13*%
X64230476Y-77620761D02*
X64373333Y-77668380D01*
X64611428Y-77668380D01*
X64706666Y-77620761D01*
X64754285Y-77573142D01*
X64801904Y-77477904D01*
X64801904Y-77382666D01*
X64754285Y-77287428D01*
X64706666Y-77239809D01*
X64611428Y-77192190D01*
X64420952Y-77144571D01*
X64325714Y-77096952D01*
X64278095Y-77049333D01*
X64230476Y-76954095D01*
X64230476Y-76858857D01*
X64278095Y-76763619D01*
X64325714Y-76716000D01*
X64420952Y-76668380D01*
X64659047Y-76668380D01*
X64801904Y-76716000D01*
X65135238Y-76668380D02*
X65373333Y-77668380D01*
X65563809Y-76954095D01*
X65754285Y-77668380D01*
X65992380Y-76668380D01*
X66897142Y-77668380D02*
X66325714Y-77668380D01*
X66611428Y-77668380D02*
X66611428Y-76668380D01*
X66516190Y-76811238D01*
X66420952Y-76906476D01*
X66325714Y-76954095D01*
X67230476Y-76668380D02*
X67849523Y-76668380D01*
X67516190Y-77049333D01*
X67659047Y-77049333D01*
X67754285Y-77096952D01*
X67801904Y-77144571D01*
X67849523Y-77239809D01*
X67849523Y-77477904D01*
X67801904Y-77573142D01*
X67754285Y-77620761D01*
X67659047Y-77668380D01*
X67373333Y-77668380D01*
X67278095Y-77620761D01*
X67230476Y-77573142D01*
%TO.C,SW12*%
X64230476Y-58570761D02*
X64373333Y-58618380D01*
X64611428Y-58618380D01*
X64706666Y-58570761D01*
X64754285Y-58523142D01*
X64801904Y-58427904D01*
X64801904Y-58332666D01*
X64754285Y-58237428D01*
X64706666Y-58189809D01*
X64611428Y-58142190D01*
X64420952Y-58094571D01*
X64325714Y-58046952D01*
X64278095Y-57999333D01*
X64230476Y-57904095D01*
X64230476Y-57808857D01*
X64278095Y-57713619D01*
X64325714Y-57666000D01*
X64420952Y-57618380D01*
X64659047Y-57618380D01*
X64801904Y-57666000D01*
X65135238Y-57618380D02*
X65373333Y-58618380D01*
X65563809Y-57904095D01*
X65754285Y-58618380D01*
X65992380Y-57618380D01*
X66897142Y-58618380D02*
X66325714Y-58618380D01*
X66611428Y-58618380D02*
X66611428Y-57618380D01*
X66516190Y-57761238D01*
X66420952Y-57856476D01*
X66325714Y-57904095D01*
X67278095Y-57713619D02*
X67325714Y-57666000D01*
X67420952Y-57618380D01*
X67659047Y-57618380D01*
X67754285Y-57666000D01*
X67801904Y-57713619D01*
X67849523Y-57808857D01*
X67849523Y-57904095D01*
X67801904Y-58046952D01*
X67230476Y-58618380D01*
X67849523Y-58618380D01*
%TO.C,SW11*%
X64230476Y-39520761D02*
X64373333Y-39568380D01*
X64611428Y-39568380D01*
X64706666Y-39520761D01*
X64754285Y-39473142D01*
X64801904Y-39377904D01*
X64801904Y-39282666D01*
X64754285Y-39187428D01*
X64706666Y-39139809D01*
X64611428Y-39092190D01*
X64420952Y-39044571D01*
X64325714Y-38996952D01*
X64278095Y-38949333D01*
X64230476Y-38854095D01*
X64230476Y-38758857D01*
X64278095Y-38663619D01*
X64325714Y-38616000D01*
X64420952Y-38568380D01*
X64659047Y-38568380D01*
X64801904Y-38616000D01*
X65135238Y-38568380D02*
X65373333Y-39568380D01*
X65563809Y-38854095D01*
X65754285Y-39568380D01*
X65992380Y-38568380D01*
X66897142Y-39568380D02*
X66325714Y-39568380D01*
X66611428Y-39568380D02*
X66611428Y-38568380D01*
X66516190Y-38711238D01*
X66420952Y-38806476D01*
X66325714Y-38854095D01*
X67849523Y-39568380D02*
X67278095Y-39568380D01*
X67563809Y-39568380D02*
X67563809Y-38568380D01*
X67468571Y-38711238D01*
X67373333Y-38806476D01*
X67278095Y-38854095D01*
%TO.C,SW10*%
X45180476Y-119530761D02*
X45323333Y-119578380D01*
X45561428Y-119578380D01*
X45656666Y-119530761D01*
X45704285Y-119483142D01*
X45751904Y-119387904D01*
X45751904Y-119292666D01*
X45704285Y-119197428D01*
X45656666Y-119149809D01*
X45561428Y-119102190D01*
X45370952Y-119054571D01*
X45275714Y-119006952D01*
X45228095Y-118959333D01*
X45180476Y-118864095D01*
X45180476Y-118768857D01*
X45228095Y-118673619D01*
X45275714Y-118626000D01*
X45370952Y-118578380D01*
X45609047Y-118578380D01*
X45751904Y-118626000D01*
X46085238Y-118578380D02*
X46323333Y-119578380D01*
X46513809Y-118864095D01*
X46704285Y-119578380D01*
X46942380Y-118578380D01*
X47847142Y-119578380D02*
X47275714Y-119578380D01*
X47561428Y-119578380D02*
X47561428Y-118578380D01*
X47466190Y-118721238D01*
X47370952Y-118816476D01*
X47275714Y-118864095D01*
X48466190Y-118578380D02*
X48561428Y-118578380D01*
X48656666Y-118626000D01*
X48704285Y-118673619D01*
X48751904Y-118768857D01*
X48799523Y-118959333D01*
X48799523Y-119197428D01*
X48751904Y-119387904D01*
X48704285Y-119483142D01*
X48656666Y-119530761D01*
X48561428Y-119578380D01*
X48466190Y-119578380D01*
X48370952Y-119530761D01*
X48323333Y-119483142D01*
X48275714Y-119387904D01*
X48228095Y-119197428D01*
X48228095Y-118959333D01*
X48275714Y-118768857D01*
X48323333Y-118673619D01*
X48370952Y-118626000D01*
X48466190Y-118578380D01*
%TO.C,SW9*%
X45656666Y-100480761D02*
X45799523Y-100528380D01*
X46037619Y-100528380D01*
X46132857Y-100480761D01*
X46180476Y-100433142D01*
X46228095Y-100337904D01*
X46228095Y-100242666D01*
X46180476Y-100147428D01*
X46132857Y-100099809D01*
X46037619Y-100052190D01*
X45847142Y-100004571D01*
X45751904Y-99956952D01*
X45704285Y-99909333D01*
X45656666Y-99814095D01*
X45656666Y-99718857D01*
X45704285Y-99623619D01*
X45751904Y-99576000D01*
X45847142Y-99528380D01*
X46085238Y-99528380D01*
X46228095Y-99576000D01*
X46561428Y-99528380D02*
X46799523Y-100528380D01*
X46990000Y-99814095D01*
X47180476Y-100528380D01*
X47418571Y-99528380D01*
X47847142Y-100528380D02*
X48037619Y-100528380D01*
X48132857Y-100480761D01*
X48180476Y-100433142D01*
X48275714Y-100290285D01*
X48323333Y-100099809D01*
X48323333Y-99718857D01*
X48275714Y-99623619D01*
X48228095Y-99576000D01*
X48132857Y-99528380D01*
X47942380Y-99528380D01*
X47847142Y-99576000D01*
X47799523Y-99623619D01*
X47751904Y-99718857D01*
X47751904Y-99956952D01*
X47799523Y-100052190D01*
X47847142Y-100099809D01*
X47942380Y-100147428D01*
X48132857Y-100147428D01*
X48228095Y-100099809D01*
X48275714Y-100052190D01*
X48323333Y-99956952D01*
%TO.C,SW8*%
X45656666Y-81430761D02*
X45799523Y-81478380D01*
X46037619Y-81478380D01*
X46132857Y-81430761D01*
X46180476Y-81383142D01*
X46228095Y-81287904D01*
X46228095Y-81192666D01*
X46180476Y-81097428D01*
X46132857Y-81049809D01*
X46037619Y-81002190D01*
X45847142Y-80954571D01*
X45751904Y-80906952D01*
X45704285Y-80859333D01*
X45656666Y-80764095D01*
X45656666Y-80668857D01*
X45704285Y-80573619D01*
X45751904Y-80526000D01*
X45847142Y-80478380D01*
X46085238Y-80478380D01*
X46228095Y-80526000D01*
X46561428Y-80478380D02*
X46799523Y-81478380D01*
X46990000Y-80764095D01*
X47180476Y-81478380D01*
X47418571Y-80478380D01*
X47942380Y-80906952D02*
X47847142Y-80859333D01*
X47799523Y-80811714D01*
X47751904Y-80716476D01*
X47751904Y-80668857D01*
X47799523Y-80573619D01*
X47847142Y-80526000D01*
X47942380Y-80478380D01*
X48132857Y-80478380D01*
X48228095Y-80526000D01*
X48275714Y-80573619D01*
X48323333Y-80668857D01*
X48323333Y-80716476D01*
X48275714Y-80811714D01*
X48228095Y-80859333D01*
X48132857Y-80906952D01*
X47942380Y-80906952D01*
X47847142Y-80954571D01*
X47799523Y-81002190D01*
X47751904Y-81097428D01*
X47751904Y-81287904D01*
X47799523Y-81383142D01*
X47847142Y-81430761D01*
X47942380Y-81478380D01*
X48132857Y-81478380D01*
X48228095Y-81430761D01*
X48275714Y-81383142D01*
X48323333Y-81287904D01*
X48323333Y-81097428D01*
X48275714Y-81002190D01*
X48228095Y-80954571D01*
X48132857Y-80906952D01*
%TO.C,SW7*%
X45656666Y-62380761D02*
X45799523Y-62428380D01*
X46037619Y-62428380D01*
X46132857Y-62380761D01*
X46180476Y-62333142D01*
X46228095Y-62237904D01*
X46228095Y-62142666D01*
X46180476Y-62047428D01*
X46132857Y-61999809D01*
X46037619Y-61952190D01*
X45847142Y-61904571D01*
X45751904Y-61856952D01*
X45704285Y-61809333D01*
X45656666Y-61714095D01*
X45656666Y-61618857D01*
X45704285Y-61523619D01*
X45751904Y-61476000D01*
X45847142Y-61428380D01*
X46085238Y-61428380D01*
X46228095Y-61476000D01*
X46561428Y-61428380D02*
X46799523Y-62428380D01*
X46990000Y-61714095D01*
X47180476Y-62428380D01*
X47418571Y-61428380D01*
X47704285Y-61428380D02*
X48370952Y-61428380D01*
X47942380Y-62428380D01*
%TO.C,SW6*%
X45656666Y-43330761D02*
X45799523Y-43378380D01*
X46037619Y-43378380D01*
X46132857Y-43330761D01*
X46180476Y-43283142D01*
X46228095Y-43187904D01*
X46228095Y-43092666D01*
X46180476Y-42997428D01*
X46132857Y-42949809D01*
X46037619Y-42902190D01*
X45847142Y-42854571D01*
X45751904Y-42806952D01*
X45704285Y-42759333D01*
X45656666Y-42664095D01*
X45656666Y-42568857D01*
X45704285Y-42473619D01*
X45751904Y-42426000D01*
X45847142Y-42378380D01*
X46085238Y-42378380D01*
X46228095Y-42426000D01*
X46561428Y-42378380D02*
X46799523Y-43378380D01*
X46990000Y-42664095D01*
X47180476Y-43378380D01*
X47418571Y-42378380D01*
X48228095Y-42378380D02*
X48037619Y-42378380D01*
X47942380Y-42426000D01*
X47894761Y-42473619D01*
X47799523Y-42616476D01*
X47751904Y-42806952D01*
X47751904Y-43187904D01*
X47799523Y-43283142D01*
X47847142Y-43330761D01*
X47942380Y-43378380D01*
X48132857Y-43378380D01*
X48228095Y-43330761D01*
X48275714Y-43283142D01*
X48323333Y-43187904D01*
X48323333Y-42949809D01*
X48275714Y-42854571D01*
X48228095Y-42806952D01*
X48132857Y-42759333D01*
X47942380Y-42759333D01*
X47847142Y-42806952D01*
X47799523Y-42854571D01*
X47751904Y-42949809D01*
%TO.C,SW5*%
X26606666Y-119530761D02*
X26749523Y-119578380D01*
X26987619Y-119578380D01*
X27082857Y-119530761D01*
X27130476Y-119483142D01*
X27178095Y-119387904D01*
X27178095Y-119292666D01*
X27130476Y-119197428D01*
X27082857Y-119149809D01*
X26987619Y-119102190D01*
X26797142Y-119054571D01*
X26701904Y-119006952D01*
X26654285Y-118959333D01*
X26606666Y-118864095D01*
X26606666Y-118768857D01*
X26654285Y-118673619D01*
X26701904Y-118626000D01*
X26797142Y-118578380D01*
X27035238Y-118578380D01*
X27178095Y-118626000D01*
X27511428Y-118578380D02*
X27749523Y-119578380D01*
X27940000Y-118864095D01*
X28130476Y-119578380D01*
X28368571Y-118578380D01*
X29225714Y-118578380D02*
X28749523Y-118578380D01*
X28701904Y-119054571D01*
X28749523Y-119006952D01*
X28844761Y-118959333D01*
X29082857Y-118959333D01*
X29178095Y-119006952D01*
X29225714Y-119054571D01*
X29273333Y-119149809D01*
X29273333Y-119387904D01*
X29225714Y-119483142D01*
X29178095Y-119530761D01*
X29082857Y-119578380D01*
X28844761Y-119578380D01*
X28749523Y-119530761D01*
X28701904Y-119483142D01*
%TO.C,SW4*%
X26606666Y-100480761D02*
X26749523Y-100528380D01*
X26987619Y-100528380D01*
X27082857Y-100480761D01*
X27130476Y-100433142D01*
X27178095Y-100337904D01*
X27178095Y-100242666D01*
X27130476Y-100147428D01*
X27082857Y-100099809D01*
X26987619Y-100052190D01*
X26797142Y-100004571D01*
X26701904Y-99956952D01*
X26654285Y-99909333D01*
X26606666Y-99814095D01*
X26606666Y-99718857D01*
X26654285Y-99623619D01*
X26701904Y-99576000D01*
X26797142Y-99528380D01*
X27035238Y-99528380D01*
X27178095Y-99576000D01*
X27511428Y-99528380D02*
X27749523Y-100528380D01*
X27940000Y-99814095D01*
X28130476Y-100528380D01*
X28368571Y-99528380D01*
X29178095Y-99861714D02*
X29178095Y-100528380D01*
X28940000Y-99480761D02*
X28701904Y-100195047D01*
X29320952Y-100195047D01*
%TO.C,SW3*%
X26606666Y-81430761D02*
X26749523Y-81478380D01*
X26987619Y-81478380D01*
X27082857Y-81430761D01*
X27130476Y-81383142D01*
X27178095Y-81287904D01*
X27178095Y-81192666D01*
X27130476Y-81097428D01*
X27082857Y-81049809D01*
X26987619Y-81002190D01*
X26797142Y-80954571D01*
X26701904Y-80906952D01*
X26654285Y-80859333D01*
X26606666Y-80764095D01*
X26606666Y-80668857D01*
X26654285Y-80573619D01*
X26701904Y-80526000D01*
X26797142Y-80478380D01*
X27035238Y-80478380D01*
X27178095Y-80526000D01*
X27511428Y-80478380D02*
X27749523Y-81478380D01*
X27940000Y-80764095D01*
X28130476Y-81478380D01*
X28368571Y-80478380D01*
X28654285Y-80478380D02*
X29273333Y-80478380D01*
X28940000Y-80859333D01*
X29082857Y-80859333D01*
X29178095Y-80906952D01*
X29225714Y-80954571D01*
X29273333Y-81049809D01*
X29273333Y-81287904D01*
X29225714Y-81383142D01*
X29178095Y-81430761D01*
X29082857Y-81478380D01*
X28797142Y-81478380D01*
X28701904Y-81430761D01*
X28654285Y-81383142D01*
%TO.C,SW2*%
X26606666Y-62380761D02*
X26749523Y-62428380D01*
X26987619Y-62428380D01*
X27082857Y-62380761D01*
X27130476Y-62333142D01*
X27178095Y-62237904D01*
X27178095Y-62142666D01*
X27130476Y-62047428D01*
X27082857Y-61999809D01*
X26987619Y-61952190D01*
X26797142Y-61904571D01*
X26701904Y-61856952D01*
X26654285Y-61809333D01*
X26606666Y-61714095D01*
X26606666Y-61618857D01*
X26654285Y-61523619D01*
X26701904Y-61476000D01*
X26797142Y-61428380D01*
X27035238Y-61428380D01*
X27178095Y-61476000D01*
X27511428Y-61428380D02*
X27749523Y-62428380D01*
X27940000Y-61714095D01*
X28130476Y-62428380D01*
X28368571Y-61428380D01*
X28701904Y-61523619D02*
X28749523Y-61476000D01*
X28844761Y-61428380D01*
X29082857Y-61428380D01*
X29178095Y-61476000D01*
X29225714Y-61523619D01*
X29273333Y-61618857D01*
X29273333Y-61714095D01*
X29225714Y-61856952D01*
X28654285Y-62428380D01*
X29273333Y-62428380D01*
%TO.C,SW1*%
X26606666Y-43330761D02*
X26749523Y-43378380D01*
X26987619Y-43378380D01*
X27082857Y-43330761D01*
X27130476Y-43283142D01*
X27178095Y-43187904D01*
X27178095Y-43092666D01*
X27130476Y-42997428D01*
X27082857Y-42949809D01*
X26987619Y-42902190D01*
X26797142Y-42854571D01*
X26701904Y-42806952D01*
X26654285Y-42759333D01*
X26606666Y-42664095D01*
X26606666Y-42568857D01*
X26654285Y-42473619D01*
X26701904Y-42426000D01*
X26797142Y-42378380D01*
X27035238Y-42378380D01*
X27178095Y-42426000D01*
X27511428Y-42378380D02*
X27749523Y-43378380D01*
X27940000Y-42664095D01*
X28130476Y-43378380D01*
X28368571Y-42378380D01*
X29273333Y-43378380D02*
X28701904Y-43378380D01*
X28987619Y-43378380D02*
X28987619Y-42378380D01*
X28892380Y-42521238D01*
X28797142Y-42616476D01*
X28701904Y-42664095D01*
%TO.C,J1*%
X168576666Y-95134180D02*
X168576666Y-95848466D01*
X168529047Y-95991323D01*
X168433809Y-96086561D01*
X168290952Y-96134180D01*
X168195714Y-96134180D01*
X169576666Y-96134180D02*
X169005238Y-96134180D01*
X169290952Y-96134180D02*
X169290952Y-95134180D01*
X169195714Y-95277038D01*
X169100476Y-95372276D01*
X169005238Y-95419895D01*
%TD*%
M02*
