M48
; DRILL file {KiCad (5.1.6)-1} date 06/18/20 19:24:32
; FORMAT={-:-/ absolute / metric / decimal}
; #@! TF.CreationDate,2020-06-18T19:24:32+02:00
; #@! TF.GenerationSoftware,Kicad,Pcbnew,(5.1.6)-1
; #@! TF.FileFunction,Plated,1,2,PTH
FMAT,2
METRIC
T1C0.700
T2C1.000
T3C1.100
T4C1.300
T5C1.500
%
G90
G05
T1
X143.262Y-145.677
X146.558Y-138.608
X74.93Y-100.33
X74.93Y-108.13
X93.98Y-96.52
X93.98Y-104.32
X170.69Y-137.161
X174.59Y-130.406
X93.98Y-58.42
X93.98Y-66.22
X151.13Y-50.8
X151.13Y-58.6
X36.83Y-84.91
X36.83Y-92.71
X36.83Y-104.14
X36.83Y-111.94
X36.83Y-84.91
X36.83Y-92.71
X132.08Y-66.04
X132.08Y-73.84
X151.13Y-88.9
X151.13Y-96.7
X132.08Y-46.99
X132.08Y-54.79
X125.378Y-137.012
X128.045Y-129.682
X113.03Y-100.399
X113.03Y-108.199
X55.88Y-85.09
X55.88Y-92.89
X36.83Y-46.99
X36.83Y-54.79
X55.88Y-46.99
X55.88Y-54.79
X132.08Y-85.09
X132.08Y-92.89
X170.69Y-137.161
X174.59Y-130.406
X74.93Y-119.45
X74.93Y-127.25
X93.98Y-96.52
X93.98Y-104.32
X74.93Y-61.595
X74.93Y-69.395
X132.08Y-46.99
X132.08Y-54.79
X55.88Y-104.14
X55.88Y-111.94
X55.88Y-104.14
X55.88Y-111.94
X36.83Y-66.04
X36.83Y-73.84
X36.83Y-104.14
X36.83Y-111.94
X132.08Y-104.14
X132.08Y-111.94
X55.88Y-123.088
X55.88Y-130.888
X113.03Y-62.23
X113.03Y-70.03
X113.03Y-43.18
X113.03Y-50.98
X93.98Y-58.42
X93.98Y-66.22
X132.08Y-85.09
X132.08Y-92.89
X113.03Y-81.28
X113.03Y-89.08
X151.13Y-69.67
X151.13Y-77.47
X93.98Y-39.37
X93.98Y-47.17
X55.88Y-85.09
X55.88Y-92.89
X36.83Y-46.99
X36.83Y-54.79
X36.83Y-123.19
X36.83Y-130.99
X160.53Y-154.941
X164.43Y-148.186
X74.93Y-61.595
X74.93Y-69.395
X93.98Y-39.37
X93.98Y-47.17
X74.93Y-81.204
X74.93Y-89.004
X74.93Y-81.198
X74.93Y-88.998
X125.378Y-137.012
X128.045Y-129.682
X55.88Y-123.088
X55.88Y-130.888
X151.13Y-88.9
X151.13Y-96.7
X55.88Y-46.99
X55.88Y-54.79
X151.13Y-50.8
X151.13Y-58.6
X151.13Y-69.67
X151.13Y-77.47
X152.151Y-126.632
X155.447Y-119.562
X132.08Y-66.04
X132.08Y-73.84
X113.03Y-43.18
X113.03Y-50.98
X93.98Y-77.47
X93.98Y-85.27
X113.03Y-100.4
X113.03Y-108.2
X74.93Y-119.45
X74.93Y-127.25
X74.93Y-43.18
X74.93Y-50.98
X160.53Y-154.941
X164.43Y-148.186
X36.83Y-123.19
X36.83Y-130.99
X113.03Y-81.28
X113.03Y-89.08
X74.93Y-43.18
X74.93Y-50.98
X143.261Y-145.677
X146.557Y-138.608
X93.98Y-77.47
X93.98Y-85.27
X113.03Y-62.23
X113.03Y-70.03
X152.151Y-126.632
X155.447Y-119.562
X74.93Y-100.33
X74.93Y-108.13
X132.08Y-104.14
X132.08Y-111.94
X55.88Y-66.255
X55.88Y-74.055
X36.83Y-66.04
X36.83Y-73.84
X55.88Y-66.256
X55.88Y-74.056
T2
X172.085Y-80.05
X172.085Y-85.05
T3
X156.845Y-43.815
X156.845Y-46.355
X156.845Y-48.895
X156.845Y-51.435
X156.845Y-53.975
X156.845Y-56.515
X156.845Y-59.055
X156.845Y-61.595
X156.845Y-64.135
X156.845Y-66.675
X156.845Y-69.215
X156.845Y-71.755
X172.085Y-43.815
X172.085Y-46.355
X172.085Y-48.895
X172.085Y-51.435
X172.085Y-53.975
X172.085Y-56.515
X172.085Y-59.055
X172.085Y-61.595
X172.085Y-64.135
X172.085Y-66.675
X172.085Y-69.215
X172.085Y-71.755
X154.305Y-43.815
X154.305Y-46.355
X154.305Y-48.895
X154.305Y-51.435
X154.305Y-53.975
X154.305Y-56.515
X154.305Y-59.055
X154.305Y-61.595
X154.305Y-64.135
X154.305Y-66.675
X154.305Y-69.215
X154.305Y-71.755
X169.545Y-43.815
X169.545Y-46.355
X169.545Y-48.895
X169.545Y-51.435
X169.545Y-53.975
X169.545Y-56.515
X169.545Y-59.055
X169.545Y-61.595
X169.545Y-64.135
X169.545Y-66.675
X169.545Y-69.215
X169.545Y-71.755
T4
X169.535Y-86.05
X169.585Y-79.05
T5
X24.13Y-67.31
X30.48Y-64.77
X139.7Y-49.53
X146.05Y-52.07
X43.18Y-48.26
X49.53Y-45.72
X101.6Y-99.06
X107.95Y-101.6
X44.45Y-45.72
X50.8Y-48.26
X138.43Y-71.12
X144.78Y-68.58
X100.33Y-44.45
X106.68Y-41.91
X81.28Y-78.74
X87.63Y-76.2
X81.28Y-59.69
X87.63Y-57.15
X24.13Y-48.26
X30.48Y-45.72
X139.7Y-87.63
X146.05Y-90.17
X43.18Y-86.36
X49.53Y-83.82
X139.7Y-68.58
X146.05Y-71.12
X151.879Y-143.576
X158.648Y-144.551
X62.23Y-63.5
X68.58Y-60.96
X62.23Y-120.65
X68.58Y-118.11
X81.28Y-40.64
X87.63Y-38.1
X63.5Y-80.01
X69.85Y-82.55
X120.65Y-83.82
X127.0Y-86.36
X82.55Y-57.15
X88.9Y-59.69
X119.38Y-86.36
X125.73Y-83.82
X138.43Y-90.17
X144.78Y-87.63
X117.145Y-125.171
X122.243Y-129.73
X44.45Y-64.77
X50.8Y-67.31
X120.65Y-102.87
X127.0Y-105.41
X62.23Y-82.55
X68.58Y-80.01
X100.33Y-63.5
X106.68Y-60.96
X62.23Y-44.45
X68.58Y-41.91
X63.5Y-60.96
X69.85Y-63.5
X101.6Y-60.96
X107.95Y-63.5
X63.5Y-118.11
X69.85Y-120.65
X25.4Y-45.72
X31.75Y-48.26
X154.254Y-142.011
X158.483Y-147.386
X25.4Y-83.82
X31.75Y-86.36
X120.65Y-64.77
X127.0Y-67.31
X25.4Y-102.87
X31.75Y-105.41
X164.795Y-123.393
X169.024Y-128.768
X100.33Y-101.6
X106.68Y-99.06
X119.38Y-67.31
X125.73Y-64.77
X120.65Y-45.72
X127.0Y-48.26
X24.13Y-86.36
X30.48Y-83.82
X82.55Y-38.1
X88.9Y-40.64
X63.5Y-99.06
X69.85Y-101.6
X138.43Y-52.07
X144.78Y-49.53
X44.45Y-102.87
X50.8Y-105.41
X44.45Y-83.82
X50.8Y-86.36
X44.45Y-121.92
X50.8Y-124.46
X145.085Y-113.411
X149.766Y-118.397
X119.38Y-48.26
X125.73Y-45.72
X43.18Y-105.41
X49.53Y-102.87
X43.18Y-67.31
X49.53Y-64.77
X101.6Y-80.01
X107.95Y-82.55
X24.13Y-105.41
X30.48Y-102.87
X63.5Y-41.91
X69.85Y-44.45
X82.55Y-76.2
X88.9Y-78.74
X119.38Y-105.41
X125.73Y-102.87
X25.4Y-121.92
X31.75Y-124.46
X100.33Y-82.55
X106.68Y-80.01
X162.42Y-124.958
X169.189Y-125.933
X115.084Y-127.12
X121.92Y-126.905
X133.837Y-134.569
X140.665Y-134.95
X101.6Y-41.91
X107.95Y-44.45
X24.13Y-124.46
X30.48Y-121.92
X82.55Y-95.25
X88.9Y-97.79
X142.854Y-115.163
X149.682Y-115.545
X25.4Y-64.77
X31.75Y-67.31
X136.068Y-132.791
X140.749Y-137.777
X81.28Y-97.79
X87.63Y-95.25
X62.23Y-101.6
X68.58Y-99.06
X43.18Y-124.46
X49.53Y-121.92
T2
G00X163.41Y-95.59
M15
G01X162.91Y-95.59
M16
G05
G00X164.91Y-99.89
M15
G01X164.41Y-99.89
M16
G05
G00X168.91Y-99.89
M15
G01X168.41Y-99.89
M16
G05
G00X171.91Y-99.89
M15
G01X171.41Y-99.89
M16
G05
G00X163.41Y-98.085
M15
G01X162.91Y-98.085
M16
G05
G00X164.91Y-93.785
M15
G01X164.41Y-93.785
M16
G05
G00X168.91Y-93.785
M15
G01X168.41Y-93.785
M16
G05
G00X171.91Y-93.785
M15
G01X171.41Y-93.785
M16
G05
T0
M30
