M48
; DRILL file {KiCad (5.1.6)-1} date 06/18/20 19:24:32
; FORMAT={-:-/ absolute / metric / decimal}
; #@! TF.CreationDate,2020-06-18T19:24:32+02:00
; #@! TF.GenerationSoftware,Kicad,Pcbnew,(5.1.6)-1
; #@! TF.FileFunction,NonPlated,1,2,NPTH
FMAT,2
METRIC
T1C1.200
T2C1.700
T3C4.000
T4C4.300
%
G90
G05
T1
X166.46Y-97.74
X173.46Y-97.74
X166.46Y-95.935
X173.46Y-95.935
T2
X118.11Y-50.8
X128.27Y-50.8
X22.86Y-88.9
X33.02Y-88.9
X80.01Y-43.18
X90.17Y-43.18
X60.96Y-104.14
X71.12Y-104.14
X137.16Y-54.61
X147.32Y-54.61
X41.91Y-107.95
X52.07Y-107.95
X41.91Y-88.9
X52.07Y-88.9
X41.91Y-127.0
X52.07Y-127.0
X140.636Y-116.942
X149.844Y-121.235
X118.11Y-50.8
X128.27Y-50.8
X41.91Y-107.95
X52.07Y-107.95
X41.91Y-69.85
X52.07Y-69.85
X99.06Y-85.09
X109.22Y-85.09
X22.86Y-107.95
X33.02Y-107.95
X60.96Y-46.99
X71.12Y-46.99
X80.01Y-81.28
X90.17Y-81.28
X118.11Y-107.95
X128.27Y-107.95
X22.86Y-127.0
X33.02Y-127.0
X99.06Y-85.09
X109.22Y-85.09
X160.05Y-126.523
X168.849Y-131.603
X113.022Y-129.073
X122.569Y-132.547
X131.612Y-136.334
X140.82Y-140.628
X99.06Y-46.99
X109.22Y-46.99
X22.86Y-127.0
X33.02Y-127.0
X80.01Y-100.33
X90.17Y-100.33
X140.629Y-116.928
X149.837Y-121.222
X22.86Y-69.85
X33.02Y-69.85
X131.619Y-136.322
X140.827Y-140.616
X80.01Y-100.33
X90.17Y-100.33
X60.96Y-104.14
X71.12Y-104.14
X41.91Y-127.0
X52.07Y-127.0
X22.86Y-69.85
X33.02Y-69.85
X137.16Y-54.61
X147.32Y-54.61
X41.91Y-50.8
X52.07Y-50.8
X99.06Y-104.14
X109.22Y-104.14
X41.91Y-50.8
X52.07Y-50.8
X137.16Y-73.66
X147.32Y-73.66
X99.06Y-46.99
X109.22Y-46.99
X80.01Y-81.28
X90.17Y-81.28
X80.01Y-62.23
X90.17Y-62.23
X22.86Y-50.8
X33.02Y-50.8
X137.16Y-92.71
X147.32Y-92.71
X41.91Y-88.9
X52.07Y-88.9
X137.16Y-73.66
X147.32Y-73.66
X149.509Y-145.141
X158.308Y-150.221
X60.96Y-66.04
X71.12Y-66.04
X60.96Y-123.19
X71.12Y-123.19
X80.01Y-43.18
X90.17Y-43.18
X60.96Y-85.09
X71.12Y-85.09
X118.11Y-88.9
X128.27Y-88.9
X80.01Y-62.23
X90.17Y-62.23
X118.11Y-88.9
X128.27Y-88.9
X137.16Y-92.71
X147.32Y-92.71
X113.021Y-129.076
X122.568Y-132.551
X41.91Y-69.85
X52.07Y-69.85
X118.11Y-107.95
X128.27Y-107.95
X60.96Y-85.09
X71.12Y-85.09
X99.06Y-66.04
X109.22Y-66.04
X60.96Y-46.99
X71.12Y-46.99
X60.96Y-66.04
X71.12Y-66.04
X99.06Y-66.04
X109.22Y-66.04
X60.96Y-123.19
X71.12Y-123.19
X22.86Y-50.8
X33.02Y-50.8
X149.514Y-145.141
X158.313Y-150.221
X22.86Y-88.9
X33.02Y-88.9
X118.11Y-69.85
X128.27Y-69.85
X22.86Y-107.95
X33.02Y-107.95
X160.055Y-126.523
X168.854Y-131.603
X99.06Y-104.14
X109.22Y-104.14
X118.11Y-69.85
X128.27Y-69.85
T3
X104.14Y-46.99
X27.94Y-127.0
X85.09Y-100.33
X145.233Y-119.075
X27.94Y-69.85
X136.223Y-138.469
X85.09Y-100.33
X66.04Y-104.14
X46.99Y-127.0
X27.94Y-69.85
X142.24Y-54.61
X46.99Y-50.8
X104.14Y-104.14
X46.99Y-50.8
X142.24Y-73.66
X104.14Y-46.99
X85.09Y-81.28
X85.09Y-62.23
X27.94Y-50.8
X142.24Y-92.71
X46.99Y-88.9
X142.24Y-73.66
X153.909Y-147.681
X66.04Y-66.04
X66.04Y-123.19
X85.09Y-43.18
X66.04Y-85.09
X123.19Y-88.9
X85.09Y-62.23
X123.19Y-88.9
X142.24Y-92.71
X117.794Y-130.814
X46.99Y-69.85
X123.19Y-107.95
X66.04Y-85.09
X104.14Y-66.04
X66.04Y-46.99
X66.04Y-66.04
X104.14Y-66.04
X66.04Y-123.19
X27.94Y-50.8
X153.914Y-147.681
X27.94Y-88.9
X123.19Y-69.85
X27.94Y-107.95
X164.455Y-129.063
X104.14Y-104.14
X123.19Y-69.85
X123.19Y-50.8
X27.94Y-88.9
X85.09Y-43.18
X66.04Y-104.14
X142.24Y-54.61
X46.99Y-107.95
X46.99Y-88.9
X46.99Y-127.0
X145.24Y-119.088
X123.19Y-50.8
X46.99Y-107.95
X46.99Y-69.85
X104.14Y-85.09
X27.94Y-107.95
X66.04Y-46.99
X85.09Y-81.28
X123.19Y-107.95
X27.94Y-127.0
X104.14Y-85.09
X164.45Y-129.063
X117.796Y-130.81
X136.216Y-138.481
T4
X132.08Y-60.96
X93.98Y-90.805
X37.465Y-60.325
X150.495Y-132.08
X37.465Y-117.475
X93.98Y-52.705
T0
M30
