%TF.GenerationSoftware,KiCad,Pcbnew,(5.1.6-0-10_14)*%
%TF.CreationDate,2020-07-09T23:16:05+02:00*%
%TF.ProjectId,splitkb,73706c69-746b-4622-9e6b-696361645f70,rev?*%
%TF.SameCoordinates,Original*%
%TF.FileFunction,Legend,Top*%
%TF.FilePolarity,Positive*%
%FSLAX46Y46*%
G04 Gerber Fmt 4.6, Leading zero omitted, Abs format (unit mm)*
G04 Created by KiCad (PCBNEW (5.1.6-0-10_14)) date 2020-07-09 23:16:05*
%MOMM*%
%LPD*%
G01*
G04 APERTURE LIST*
%ADD10C,0.150000*%
%ADD11C,0.400000*%
%ADD12C,0.500000*%
%ADD13C,3.500000*%
%ADD14C,1.000000*%
%ADD15C,3.000000*%
%ADD16C,0.800000*%
%ADD17C,0.300000*%
%ADD18C,0.125000*%
G04 APERTURE END LIST*
D10*
%TO.C,SW27*%
X175230755Y-145874041D02*
X172104403Y-144069041D01*
X177207755Y-142449777D02*
X175235255Y-145866247D01*
X168745078Y-135307563D02*
X176214547Y-139620063D01*
X166791078Y-138691990D02*
X168745078Y-135307563D01*
X166768078Y-138731828D02*
X171118506Y-141296665D01*
X163417292Y-149585559D02*
X167357708Y-151860559D01*
X165742292Y-145558541D02*
X167950657Y-146833541D01*
X171042515Y-146078285D02*
X175112835Y-148428285D01*
X169518589Y-150567803D02*
X172787835Y-152455303D01*
X165708142Y-145567691D02*
X163408142Y-149551408D01*
X175100335Y-148449936D02*
X172821985Y-152446152D01*
X167724538Y-151235191D02*
X167374538Y-151841408D01*
X177233229Y-142383655D02*
G75*
G03*
X176214547Y-139620063I-1891137J872455D01*
G01*
X172112073Y-144045756D02*
G75*
G03*
X171094856Y-141287629I-1887672J870455D01*
G01*
X171025686Y-146097436D02*
G75*
G02*
X167888205Y-146791711I-1915878J1221603D01*
G01*
X167749537Y-151191889D02*
G75*
G02*
X169516089Y-150572133I1193154J-573398D01*
G01*
%TO.C,SW22*%
X156838575Y-136144358D02*
X153446285Y-134909666D01*
X158190923Y-132428814D02*
X156841653Y-136135901D01*
X148616580Y-126864635D02*
X156721429Y-129814558D01*
X147279966Y-130536953D02*
X148616580Y-126864635D01*
X147264233Y-130580179D02*
X151993948Y-132350607D01*
X145849084Y-141850876D02*
X150124685Y-143407068D01*
X147439477Y-137481305D02*
X149835693Y-138353457D01*
X152749431Y-137072779D02*
X157165986Y-138680274D01*
X152028253Y-141758719D02*
X155575592Y-143049845D01*
X147407434Y-137496247D02*
X145834142Y-141818833D01*
X157157436Y-138703766D02*
X155607635Y-143034903D01*
X150377348Y-142727501D02*
X150137934Y-143385285D01*
X158204528Y-132359273D02*
G75*
G03*
X156721429Y-129814558I-2013907J530808D01*
G01*
X153449795Y-134885403D02*
G75*
G03*
X151969087Y-132345815I-2010148J529440D01*
G01*
X152736183Y-137094561D02*
G75*
G02*
X149766927Y-138323107I-2098901J870355D01*
G01*
X150394449Y-142680515D02*
G75*
G02*
X152026543Y-141763417I1274596J-357498D01*
G01*
%TO.C,SW17*%
X136972916Y-129676866D02*
X133417760Y-129049996D01*
X137659521Y-125782936D02*
X136974479Y-129668003D01*
X127264425Y-121965857D02*
X135758392Y-123463572D01*
X126585808Y-125814485D02*
X127264425Y-121965857D01*
X126577820Y-125859787D02*
X131543111Y-126782011D01*
X127141306Y-137204994D02*
X131622181Y-137995093D01*
X127948770Y-132625638D02*
X130460030Y-133068441D01*
X133107114Y-131301255D02*
X137735710Y-132117401D01*
X133210597Y-136041235D02*
X136928246Y-136696757D01*
X127919809Y-132645917D02*
X127121027Y-137176033D01*
X137731369Y-132142021D02*
X136957208Y-136676478D01*
X131753000Y-137281976D02*
X131631447Y-137971341D01*
X137660844Y-125712090D02*
G75*
G03*
X135758392Y-123463572I-2075485J173033D01*
G01*
X133417003Y-129025493D02*
G75*
G03*
X131517797Y-126781609I-2071545J172339D01*
G01*
X133097848Y-131325007D02*
G75*
G02*
X130387038Y-133050493I-2218148J492662D01*
G01*
X131761683Y-137232735D02*
G75*
G02*
X133209729Y-136046159I1317311J-130735D01*
G01*
D11*
%TO.C,SW9*%
X81700000Y-43050000D02*
X81700000Y-43750000D01*
X81700000Y-40550000D02*
X83100000Y-40550000D01*
D12*
X91800000Y-45650000D02*
X89100000Y-45650000D01*
D10*
X81500000Y-40700000D02*
X81500000Y-40350000D01*
X81500000Y-40350000D02*
X89900000Y-40349999D01*
X86500000Y-43950000D02*
X81500000Y-43950000D01*
X92000000Y-45850000D02*
X88720000Y-45850000D01*
X92000000Y-42250000D02*
X92000000Y-43250000D01*
X92000000Y-45850000D02*
X92000000Y-45490000D01*
X91800000Y-45490000D02*
X92000000Y-45490000D01*
X91770000Y-43250000D02*
X91770000Y-45490000D01*
X92000000Y-43250000D02*
X91800000Y-43250000D01*
X81700000Y-40700000D02*
X81500000Y-40700000D01*
X81720000Y-42950000D02*
X81720000Y-40700000D01*
X81500000Y-42950000D02*
X81700000Y-42950000D01*
X81500000Y-43950000D02*
X81500000Y-42950000D01*
D13*
X83500000Y-42150000D02*
X90200000Y-42150000D01*
D14*
X82200000Y-40950000D02*
X82200000Y-43450000D01*
D12*
X81800000Y-43650000D02*
X83200000Y-43650000D01*
D15*
X90270000Y-41850000D02*
X90270000Y-44090000D01*
D16*
X91400000Y-45350000D02*
X91400000Y-43550000D01*
D17*
X91899999Y-43150000D02*
X91900000Y-42250001D01*
D14*
X89116318Y-45428529D02*
G75*
G03*
X86900000Y-43550000I-2151318J-291471D01*
G01*
D10*
X92000001Y-42250000D02*
G75*
G03*
X89900000Y-40349999I-2000001J-100000D01*
G01*
X88716318Y-45828529D02*
G75*
G03*
X86500000Y-43950000I-2151318J-291471D01*
G01*
D17*
%TO.C,SW30*%
X168099999Y-87250000D02*
X168100000Y-86350001D01*
D16*
X167600000Y-89450000D02*
X167600000Y-87650000D01*
D15*
X166470000Y-85950000D02*
X166470000Y-88190000D01*
D12*
X158000000Y-87750000D02*
X159400000Y-87750000D01*
D14*
X158400000Y-85050000D02*
X158400000Y-87550000D01*
D13*
X159700000Y-86250000D02*
X166400000Y-86250000D01*
D10*
X157700000Y-88050000D02*
X157700000Y-87050000D01*
X157700000Y-87050000D02*
X157900000Y-87050000D01*
X157920000Y-87050000D02*
X157920000Y-84800000D01*
X157900000Y-84800000D02*
X157700000Y-84800000D01*
X168200000Y-87350000D02*
X168000000Y-87350000D01*
X167970000Y-87350000D02*
X167970000Y-89590000D01*
X168000000Y-89590000D02*
X168200000Y-89590000D01*
X168200000Y-89950000D02*
X168200000Y-89590000D01*
X168200000Y-86350000D02*
X168200000Y-87350000D01*
X168200000Y-89950000D02*
X164920000Y-89950000D01*
X162700000Y-88050000D02*
X157700000Y-88050000D01*
X157700000Y-84450000D02*
X166100000Y-84449999D01*
X157700000Y-84800000D02*
X157700000Y-84450000D01*
D12*
X168000000Y-89750000D02*
X165300000Y-89750000D01*
D11*
X157900000Y-84650000D02*
X159300000Y-84650000D01*
X157900000Y-87150000D02*
X157900000Y-87850000D01*
D10*
X164916318Y-89928529D02*
G75*
G03*
X162700000Y-88050000I-2151318J-291471D01*
G01*
X168200001Y-86350000D02*
G75*
G03*
X166100000Y-84449999I-2000001J-100000D01*
G01*
D14*
X165316318Y-89528529D02*
G75*
G03*
X163100000Y-87650000I-2151318J-291471D01*
G01*
D11*
%TO.C,SW2*%
X43600000Y-65100000D02*
X43600000Y-65800000D01*
X43600000Y-62600000D02*
X45000000Y-62600000D01*
D12*
X53700000Y-67700000D02*
X51000000Y-67700000D01*
D10*
X43400000Y-62750000D02*
X43400000Y-62400000D01*
X43400000Y-62400000D02*
X51800000Y-62399999D01*
X48400000Y-66000000D02*
X43400000Y-66000000D01*
X53900000Y-67900000D02*
X50620000Y-67900000D01*
X53900000Y-64300000D02*
X53900000Y-65300000D01*
X53900000Y-67900000D02*
X53900000Y-67540000D01*
X53700000Y-67540000D02*
X53900000Y-67540000D01*
X53670000Y-65300000D02*
X53670000Y-67540000D01*
X53900000Y-65300000D02*
X53700000Y-65300000D01*
X43600000Y-62750000D02*
X43400000Y-62750000D01*
X43620000Y-65000000D02*
X43620000Y-62750000D01*
X43400000Y-65000000D02*
X43600000Y-65000000D01*
X43400000Y-66000000D02*
X43400000Y-65000000D01*
D13*
X45400000Y-64200000D02*
X52100000Y-64200000D01*
D14*
X44100000Y-63000000D02*
X44100000Y-65500000D01*
D12*
X43700000Y-65700000D02*
X45100000Y-65700000D01*
D15*
X52170000Y-63900000D02*
X52170000Y-66140000D01*
D16*
X53300000Y-67400000D02*
X53300000Y-65600000D01*
D17*
X53799999Y-65200000D02*
X53800000Y-64300001D01*
D14*
X51016318Y-67478529D02*
G75*
G03*
X48800000Y-65600000I-2151318J-291471D01*
G01*
D10*
X53900001Y-64300000D02*
G75*
G03*
X51800000Y-62399999I-2000001J-100000D01*
G01*
X50616318Y-67878529D02*
G75*
G03*
X48400000Y-66000000I-2151318J-291471D01*
G01*
%TO.C,D1*%
X43000000Y-128525000D02*
X42500000Y-127625000D01*
X42500000Y-127625000D02*
X43500000Y-127625000D01*
X43500000Y-127625000D02*
X43000000Y-128525000D01*
X42500000Y-128625000D02*
X43500000Y-128625000D01*
X42250000Y-125425000D02*
X42250000Y-130825000D01*
X42250000Y-130825000D02*
X43750000Y-130825000D01*
X43750000Y-130825000D02*
X43750000Y-125425000D01*
X43750000Y-125425000D02*
X42250000Y-125425000D01*
%TO.C,D2*%
X45750000Y-125425000D02*
X44250000Y-125425000D01*
X45750000Y-130825000D02*
X45750000Y-125425000D01*
X44250000Y-130825000D02*
X45750000Y-130825000D01*
X44250000Y-125425000D02*
X44250000Y-130825000D01*
X44500000Y-128625000D02*
X45500000Y-128625000D01*
X45500000Y-127625000D02*
X45000000Y-128525000D01*
X44500000Y-127625000D02*
X45500000Y-127625000D01*
X45000000Y-128525000D02*
X44500000Y-127625000D01*
%TO.C,D3*%
X47000000Y-128525000D02*
X46500000Y-127625000D01*
X46500000Y-127625000D02*
X47500000Y-127625000D01*
X47500000Y-127625000D02*
X47000000Y-128525000D01*
X46500000Y-128625000D02*
X47500000Y-128625000D01*
X46250000Y-125425000D02*
X46250000Y-130825000D01*
X46250000Y-130825000D02*
X47750000Y-130825000D01*
X47750000Y-130825000D02*
X47750000Y-125425000D01*
X47750000Y-125425000D02*
X46250000Y-125425000D01*
%TO.C,D4*%
X49000000Y-128525000D02*
X48500000Y-127625000D01*
X48500000Y-127625000D02*
X49500000Y-127625000D01*
X49500000Y-127625000D02*
X49000000Y-128525000D01*
X48500000Y-128625000D02*
X49500000Y-128625000D01*
X48250000Y-125425000D02*
X48250000Y-130825000D01*
X48250000Y-130825000D02*
X49750000Y-130825000D01*
X49750000Y-130825000D02*
X49750000Y-125425000D01*
X49750000Y-125425000D02*
X48250000Y-125425000D01*
%TO.C,D5*%
X51750000Y-125425000D02*
X50250000Y-125425000D01*
X51750000Y-130825000D02*
X51750000Y-125425000D01*
X50250000Y-130825000D02*
X51750000Y-130825000D01*
X50250000Y-125425000D02*
X50250000Y-130825000D01*
X50500000Y-128625000D02*
X51500000Y-128625000D01*
X51500000Y-127625000D02*
X51000000Y-128525000D01*
X50500000Y-127625000D02*
X51500000Y-127625000D01*
X51000000Y-128525000D02*
X50500000Y-127625000D01*
%TO.C,D6*%
X53000000Y-128525000D02*
X52500000Y-127625000D01*
X52500000Y-127625000D02*
X53500000Y-127625000D01*
X53500000Y-127625000D02*
X53000000Y-128525000D01*
X52500000Y-128625000D02*
X53500000Y-128625000D01*
X52250000Y-125425000D02*
X52250000Y-130825000D01*
X52250000Y-130825000D02*
X53750000Y-130825000D01*
X53750000Y-130825000D02*
X53750000Y-125425000D01*
X53750000Y-125425000D02*
X52250000Y-125425000D01*
%TO.C,D7*%
X55000000Y-128525000D02*
X54500000Y-127625000D01*
X54500000Y-127625000D02*
X55500000Y-127625000D01*
X55500000Y-127625000D02*
X55000000Y-128525000D01*
X54500000Y-128625000D02*
X55500000Y-128625000D01*
X54250000Y-125425000D02*
X54250000Y-130825000D01*
X54250000Y-130825000D02*
X55750000Y-130825000D01*
X55750000Y-130825000D02*
X55750000Y-125425000D01*
X55750000Y-125425000D02*
X54250000Y-125425000D01*
%TO.C,D8*%
X57750000Y-125425000D02*
X56250000Y-125425000D01*
X57750000Y-130825000D02*
X57750000Y-125425000D01*
X56250000Y-130825000D02*
X57750000Y-130825000D01*
X56250000Y-125425000D02*
X56250000Y-130825000D01*
X56500000Y-128625000D02*
X57500000Y-128625000D01*
X57500000Y-127625000D02*
X57000000Y-128525000D01*
X56500000Y-127625000D02*
X57500000Y-127625000D01*
X57000000Y-128525000D02*
X56500000Y-127625000D01*
%TO.C,D9*%
X59750000Y-125425000D02*
X58250000Y-125425000D01*
X59750000Y-130825000D02*
X59750000Y-125425000D01*
X58250000Y-130825000D02*
X59750000Y-130825000D01*
X58250000Y-125425000D02*
X58250000Y-130825000D01*
X58500000Y-128625000D02*
X59500000Y-128625000D01*
X59500000Y-127625000D02*
X59000000Y-128525000D01*
X58500000Y-127625000D02*
X59500000Y-127625000D01*
X59000000Y-128525000D02*
X58500000Y-127625000D01*
%TO.C,D10*%
X61000000Y-128525000D02*
X60500000Y-127625000D01*
X60500000Y-127625000D02*
X61500000Y-127625000D01*
X61500000Y-127625000D02*
X61000000Y-128525000D01*
X60500000Y-128625000D02*
X61500000Y-128625000D01*
X60250000Y-125425000D02*
X60250000Y-130825000D01*
X60250000Y-130825000D02*
X61750000Y-130825000D01*
X61750000Y-130825000D02*
X61750000Y-125425000D01*
X61750000Y-125425000D02*
X60250000Y-125425000D01*
%TO.C,D11*%
X63750000Y-125425000D02*
X62250000Y-125425000D01*
X63750000Y-130825000D02*
X63750000Y-125425000D01*
X62250000Y-130825000D02*
X63750000Y-130825000D01*
X62250000Y-125425000D02*
X62250000Y-130825000D01*
X62500000Y-128625000D02*
X63500000Y-128625000D01*
X63500000Y-127625000D02*
X63000000Y-128525000D01*
X62500000Y-127625000D02*
X63500000Y-127625000D01*
X63000000Y-128525000D02*
X62500000Y-127625000D01*
%TO.C,D12*%
X65000000Y-128525000D02*
X64500000Y-127625000D01*
X64500000Y-127625000D02*
X65500000Y-127625000D01*
X65500000Y-127625000D02*
X65000000Y-128525000D01*
X64500000Y-128625000D02*
X65500000Y-128625000D01*
X64250000Y-125425000D02*
X64250000Y-130825000D01*
X64250000Y-130825000D02*
X65750000Y-130825000D01*
X65750000Y-130825000D02*
X65750000Y-125425000D01*
X65750000Y-125425000D02*
X64250000Y-125425000D01*
%TO.C,D13*%
X67750000Y-125425000D02*
X66250000Y-125425000D01*
X67750000Y-130825000D02*
X67750000Y-125425000D01*
X66250000Y-130825000D02*
X67750000Y-130825000D01*
X66250000Y-125425000D02*
X66250000Y-130825000D01*
X66500000Y-128625000D02*
X67500000Y-128625000D01*
X67500000Y-127625000D02*
X67000000Y-128525000D01*
X66500000Y-127625000D02*
X67500000Y-127625000D01*
X67000000Y-128525000D02*
X66500000Y-127625000D01*
%TO.C,D14*%
X69000000Y-128525000D02*
X68500000Y-127625000D01*
X68500000Y-127625000D02*
X69500000Y-127625000D01*
X69500000Y-127625000D02*
X69000000Y-128525000D01*
X68500000Y-128625000D02*
X69500000Y-128625000D01*
X68250000Y-125425000D02*
X68250000Y-130825000D01*
X68250000Y-130825000D02*
X69750000Y-130825000D01*
X69750000Y-130825000D02*
X69750000Y-125425000D01*
X69750000Y-125425000D02*
X68250000Y-125425000D01*
%TO.C,D15*%
X71000000Y-128525000D02*
X70500000Y-127625000D01*
X70500000Y-127625000D02*
X71500000Y-127625000D01*
X71500000Y-127625000D02*
X71000000Y-128525000D01*
X70500000Y-128625000D02*
X71500000Y-128625000D01*
X70250000Y-125425000D02*
X70250000Y-130825000D01*
X70250000Y-130825000D02*
X71750000Y-130825000D01*
X71750000Y-130825000D02*
X71750000Y-125425000D01*
X71750000Y-125425000D02*
X70250000Y-125425000D01*
%TO.C,D16*%
X73750000Y-125425000D02*
X72250000Y-125425000D01*
X73750000Y-130825000D02*
X73750000Y-125425000D01*
X72250000Y-130825000D02*
X73750000Y-130825000D01*
X72250000Y-125425000D02*
X72250000Y-130825000D01*
X72500000Y-128625000D02*
X73500000Y-128625000D01*
X73500000Y-127625000D02*
X73000000Y-128525000D01*
X72500000Y-127625000D02*
X73500000Y-127625000D01*
X73000000Y-128525000D02*
X72500000Y-127625000D01*
%TO.C,D17*%
X185200000Y-99250000D02*
X185200000Y-97750000D01*
X179800000Y-99250000D02*
X185200000Y-99250000D01*
X179800000Y-97750000D02*
X179800000Y-99250000D01*
X185200000Y-97750000D02*
X179800000Y-97750000D01*
X182000000Y-98000000D02*
X182000000Y-99000000D01*
X183000000Y-99000000D02*
X182100000Y-98500000D01*
X183000000Y-98000000D02*
X183000000Y-99000000D01*
X182100000Y-98500000D02*
X183000000Y-98000000D01*
%TO.C,D18*%
X75750000Y-125425000D02*
X74250000Y-125425000D01*
X75750000Y-130825000D02*
X75750000Y-125425000D01*
X74250000Y-130825000D02*
X75750000Y-130825000D01*
X74250000Y-125425000D02*
X74250000Y-130825000D01*
X74500000Y-128625000D02*
X75500000Y-128625000D01*
X75500000Y-127625000D02*
X75000000Y-128525000D01*
X74500000Y-127625000D02*
X75500000Y-127625000D01*
X75000000Y-128525000D02*
X74500000Y-127625000D01*
%TO.C,D19*%
X77000000Y-128525000D02*
X76500000Y-127625000D01*
X76500000Y-127625000D02*
X77500000Y-127625000D01*
X77500000Y-127625000D02*
X77000000Y-128525000D01*
X76500000Y-128625000D02*
X77500000Y-128625000D01*
X76250000Y-125425000D02*
X76250000Y-130825000D01*
X76250000Y-130825000D02*
X77750000Y-130825000D01*
X77750000Y-130825000D02*
X77750000Y-125425000D01*
X77750000Y-125425000D02*
X76250000Y-125425000D01*
%TO.C,D20*%
X79750000Y-125425000D02*
X78250000Y-125425000D01*
X79750000Y-130825000D02*
X79750000Y-125425000D01*
X78250000Y-130825000D02*
X79750000Y-130825000D01*
X78250000Y-125425000D02*
X78250000Y-130825000D01*
X78500000Y-128625000D02*
X79500000Y-128625000D01*
X79500000Y-127625000D02*
X79000000Y-128525000D01*
X78500000Y-127625000D02*
X79500000Y-127625000D01*
X79000000Y-128525000D02*
X78500000Y-127625000D01*
%TO.C,D21*%
X81000000Y-128525000D02*
X80500000Y-127625000D01*
X80500000Y-127625000D02*
X81500000Y-127625000D01*
X81500000Y-127625000D02*
X81000000Y-128525000D01*
X80500000Y-128625000D02*
X81500000Y-128625000D01*
X80250000Y-125425000D02*
X80250000Y-130825000D01*
X80250000Y-130825000D02*
X81750000Y-130825000D01*
X81750000Y-130825000D02*
X81750000Y-125425000D01*
X81750000Y-125425000D02*
X80250000Y-125425000D01*
%TO.C,D22*%
X185200000Y-96750000D02*
X185200000Y-95250000D01*
X179800000Y-96750000D02*
X185200000Y-96750000D01*
X179800000Y-95250000D02*
X179800000Y-96750000D01*
X185200000Y-95250000D02*
X179800000Y-95250000D01*
X182000000Y-95500000D02*
X182000000Y-96500000D01*
X183000000Y-96500000D02*
X182100000Y-96000000D01*
X183000000Y-95500000D02*
X183000000Y-96500000D01*
X182100000Y-96000000D02*
X183000000Y-95500000D01*
%TO.C,D23*%
X83000000Y-128525000D02*
X82500000Y-127625000D01*
X82500000Y-127625000D02*
X83500000Y-127625000D01*
X83500000Y-127625000D02*
X83000000Y-128525000D01*
X82500000Y-128625000D02*
X83500000Y-128625000D01*
X82250000Y-125425000D02*
X82250000Y-130825000D01*
X82250000Y-130825000D02*
X83750000Y-130825000D01*
X83750000Y-130825000D02*
X83750000Y-125425000D01*
X83750000Y-125425000D02*
X82250000Y-125425000D01*
%TO.C,D24*%
X85750000Y-125425000D02*
X84250000Y-125425000D01*
X85750000Y-130825000D02*
X85750000Y-125425000D01*
X84250000Y-130825000D02*
X85750000Y-130825000D01*
X84250000Y-125425000D02*
X84250000Y-130825000D01*
X84500000Y-128625000D02*
X85500000Y-128625000D01*
X85500000Y-127625000D02*
X85000000Y-128525000D01*
X84500000Y-127625000D02*
X85500000Y-127625000D01*
X85000000Y-128525000D02*
X84500000Y-127625000D01*
%TO.C,D25*%
X87000000Y-128525000D02*
X86500000Y-127625000D01*
X86500000Y-127625000D02*
X87500000Y-127625000D01*
X87500000Y-127625000D02*
X87000000Y-128525000D01*
X86500000Y-128625000D02*
X87500000Y-128625000D01*
X86250000Y-125425000D02*
X86250000Y-130825000D01*
X86250000Y-130825000D02*
X87750000Y-130825000D01*
X87750000Y-130825000D02*
X87750000Y-125425000D01*
X87750000Y-125425000D02*
X86250000Y-125425000D01*
%TO.C,D26*%
X89750000Y-125425000D02*
X88250000Y-125425000D01*
X89750000Y-130825000D02*
X89750000Y-125425000D01*
X88250000Y-130825000D02*
X89750000Y-130825000D01*
X88250000Y-125425000D02*
X88250000Y-130825000D01*
X88500000Y-128625000D02*
X89500000Y-128625000D01*
X89500000Y-127625000D02*
X89000000Y-128525000D01*
X88500000Y-127625000D02*
X89500000Y-127625000D01*
X89000000Y-128525000D02*
X88500000Y-127625000D01*
%TO.C,D27*%
X182100000Y-93500000D02*
X183000000Y-93000000D01*
X183000000Y-93000000D02*
X183000000Y-94000000D01*
X183000000Y-94000000D02*
X182100000Y-93500000D01*
X182000000Y-93000000D02*
X182000000Y-94000000D01*
X185200000Y-92750000D02*
X179800000Y-92750000D01*
X179800000Y-92750000D02*
X179800000Y-94250000D01*
X179800000Y-94250000D02*
X185200000Y-94250000D01*
X185200000Y-94250000D02*
X185200000Y-92750000D01*
%TO.C,D28*%
X91000000Y-128525000D02*
X90500000Y-127625000D01*
X90500000Y-127625000D02*
X91500000Y-127625000D01*
X91500000Y-127625000D02*
X91000000Y-128525000D01*
X90500000Y-128625000D02*
X91500000Y-128625000D01*
X90250000Y-125425000D02*
X90250000Y-130825000D01*
X90250000Y-130825000D02*
X91750000Y-130825000D01*
X91750000Y-130825000D02*
X91750000Y-125425000D01*
X91750000Y-125425000D02*
X90250000Y-125425000D01*
%TO.C,D29*%
X93750000Y-125425000D02*
X92250000Y-125425000D01*
X93750000Y-130825000D02*
X93750000Y-125425000D01*
X92250000Y-130825000D02*
X93750000Y-130825000D01*
X92250000Y-125425000D02*
X92250000Y-130825000D01*
X92500000Y-128625000D02*
X93500000Y-128625000D01*
X93500000Y-127625000D02*
X93000000Y-128525000D01*
X92500000Y-127625000D02*
X93500000Y-127625000D01*
X93000000Y-128525000D02*
X92500000Y-127625000D01*
%TO.C,D30*%
X95750000Y-125425000D02*
X94250000Y-125425000D01*
X95750000Y-130825000D02*
X95750000Y-125425000D01*
X94250000Y-130825000D02*
X95750000Y-130825000D01*
X94250000Y-125425000D02*
X94250000Y-130825000D01*
X94500000Y-128625000D02*
X95500000Y-128625000D01*
X95500000Y-127625000D02*
X95000000Y-128525000D01*
X94500000Y-127625000D02*
X95500000Y-127625000D01*
X95000000Y-128525000D02*
X94500000Y-127625000D01*
%TO.C,D31*%
X97000000Y-128525000D02*
X96500000Y-127625000D01*
X96500000Y-127625000D02*
X97500000Y-127625000D01*
X97500000Y-127625000D02*
X97000000Y-128525000D01*
X96500000Y-128625000D02*
X97500000Y-128625000D01*
X96250000Y-125425000D02*
X96250000Y-130825000D01*
X96250000Y-130825000D02*
X97750000Y-130825000D01*
X97750000Y-130825000D02*
X97750000Y-125425000D01*
X97750000Y-125425000D02*
X96250000Y-125425000D01*
%TO.C,D32*%
X185200000Y-91750000D02*
X185200000Y-90250000D01*
X179800000Y-91750000D02*
X185200000Y-91750000D01*
X179800000Y-90250000D02*
X179800000Y-91750000D01*
X185200000Y-90250000D02*
X179800000Y-90250000D01*
X182000000Y-90500000D02*
X182000000Y-91500000D01*
X183000000Y-91500000D02*
X182100000Y-91000000D01*
X183000000Y-90500000D02*
X183000000Y-91500000D01*
X182100000Y-91000000D02*
X183000000Y-90500000D01*
%TO.C,K1*%
X189250000Y-80000000D02*
X189000000Y-80000000D01*
X189250000Y-86000000D02*
X189250000Y-80000000D01*
X189000000Y-86000000D02*
X189250000Y-86000000D01*
X185750000Y-86000000D02*
X186000000Y-86000000D01*
X185750000Y-80000000D02*
X185750000Y-86000000D01*
X186000000Y-80000000D02*
X185750000Y-80000000D01*
%TO.C,U1*%
X173666400Y-43752000D02*
X176206400Y-43752000D01*
X176206400Y-43752000D02*
X176206400Y-74232000D01*
X176206400Y-74232000D02*
X173666400Y-74232000D01*
X173666400Y-74232000D02*
X173666400Y-43752000D01*
X188886400Y-43752000D02*
X191426400Y-43752000D01*
X191426400Y-43752000D02*
X191426400Y-74232000D01*
X191426400Y-74232000D02*
X188886400Y-74232000D01*
X188886400Y-74232000D02*
X188886400Y-43752000D01*
%TO.C,J1*%
X179900000Y-107000000D02*
X191900000Y-107000000D01*
X179900000Y-113000000D02*
X179900000Y-107000000D01*
X191900000Y-113000000D02*
X179900000Y-113000000D01*
X191900000Y-107000000D02*
X191900000Y-113000000D01*
D11*
%TO.C,SW1*%
X43600000Y-46050000D02*
X43600000Y-46750000D01*
X43600000Y-43550000D02*
X45000000Y-43550000D01*
D12*
X53700000Y-48650000D02*
X51000000Y-48650000D01*
D10*
X43400000Y-43700000D02*
X43400000Y-43350000D01*
X43400000Y-43350000D02*
X51800000Y-43349999D01*
X48400000Y-46950000D02*
X43400000Y-46950000D01*
X53900000Y-48850000D02*
X50620000Y-48850000D01*
X53900000Y-45250000D02*
X53900000Y-46250000D01*
X53900000Y-48850000D02*
X53900000Y-48490000D01*
X53700000Y-48490000D02*
X53900000Y-48490000D01*
X53670000Y-46250000D02*
X53670000Y-48490000D01*
X53900000Y-46250000D02*
X53700000Y-46250000D01*
X43600000Y-43700000D02*
X43400000Y-43700000D01*
X43620000Y-45950000D02*
X43620000Y-43700000D01*
X43400000Y-45950000D02*
X43600000Y-45950000D01*
X43400000Y-46950000D02*
X43400000Y-45950000D01*
D13*
X45400000Y-45150000D02*
X52100000Y-45150000D01*
D14*
X44100000Y-43950000D02*
X44100000Y-46450000D01*
D12*
X43700000Y-46650000D02*
X45100000Y-46650000D01*
D15*
X52170000Y-44850000D02*
X52170000Y-47090000D01*
D16*
X53300000Y-48350000D02*
X53300000Y-46550000D01*
D17*
X53799999Y-46150000D02*
X53800000Y-45250001D01*
D14*
X51016318Y-48428529D02*
G75*
G03*
X48800000Y-46550000I-2151318J-291471D01*
G01*
D10*
X53900001Y-45250000D02*
G75*
G03*
X51800000Y-43349999I-2000001J-100000D01*
G01*
X50616318Y-48828529D02*
G75*
G03*
X48400000Y-46950000I-2151318J-291471D01*
G01*
D11*
%TO.C,SW3*%
X43600000Y-84150000D02*
X43600000Y-84850000D01*
X43600000Y-81650000D02*
X45000000Y-81650000D01*
D12*
X53700000Y-86750000D02*
X51000000Y-86750000D01*
D10*
X43400000Y-81800000D02*
X43400000Y-81450000D01*
X43400000Y-81450000D02*
X51800000Y-81449999D01*
X48400000Y-85050000D02*
X43400000Y-85050000D01*
X53900000Y-86950000D02*
X50620000Y-86950000D01*
X53900000Y-83350000D02*
X53900000Y-84350000D01*
X53900000Y-86950000D02*
X53900000Y-86590000D01*
X53700000Y-86590000D02*
X53900000Y-86590000D01*
X53670000Y-84350000D02*
X53670000Y-86590000D01*
X53900000Y-84350000D02*
X53700000Y-84350000D01*
X43600000Y-81800000D02*
X43400000Y-81800000D01*
X43620000Y-84050000D02*
X43620000Y-81800000D01*
X43400000Y-84050000D02*
X43600000Y-84050000D01*
X43400000Y-85050000D02*
X43400000Y-84050000D01*
D13*
X45400000Y-83250000D02*
X52100000Y-83250000D01*
D14*
X44100000Y-82050000D02*
X44100000Y-84550000D01*
D12*
X43700000Y-84750000D02*
X45100000Y-84750000D01*
D15*
X52170000Y-82950000D02*
X52170000Y-85190000D01*
D16*
X53300000Y-86450000D02*
X53300000Y-84650000D01*
D17*
X53799999Y-84250000D02*
X53800000Y-83350001D01*
D14*
X51016318Y-86528529D02*
G75*
G03*
X48800000Y-84650000I-2151318J-291471D01*
G01*
D10*
X53900001Y-83350000D02*
G75*
G03*
X51800000Y-81449999I-2000001J-100000D01*
G01*
X50616318Y-86928529D02*
G75*
G03*
X48400000Y-85050000I-2151318J-291471D01*
G01*
D17*
%TO.C,SW4*%
X53799999Y-103300000D02*
X53800000Y-102400001D01*
D16*
X53300000Y-105500000D02*
X53300000Y-103700000D01*
D15*
X52170000Y-102000000D02*
X52170000Y-104240000D01*
D12*
X43700000Y-103800000D02*
X45100000Y-103800000D01*
D14*
X44100000Y-101100000D02*
X44100000Y-103600000D01*
D13*
X45400000Y-102300000D02*
X52100000Y-102300000D01*
D10*
X43400000Y-104100000D02*
X43400000Y-103100000D01*
X43400000Y-103100000D02*
X43600000Y-103100000D01*
X43620000Y-103100000D02*
X43620000Y-100850000D01*
X43600000Y-100850000D02*
X43400000Y-100850000D01*
X53900000Y-103400000D02*
X53700000Y-103400000D01*
X53670000Y-103400000D02*
X53670000Y-105640000D01*
X53700000Y-105640000D02*
X53900000Y-105640000D01*
X53900000Y-106000000D02*
X53900000Y-105640000D01*
X53900000Y-102400000D02*
X53900000Y-103400000D01*
X53900000Y-106000000D02*
X50620000Y-106000000D01*
X48400000Y-104100000D02*
X43400000Y-104100000D01*
X43400000Y-100500000D02*
X51800000Y-100499999D01*
X43400000Y-100850000D02*
X43400000Y-100500000D01*
D12*
X53700000Y-105800000D02*
X51000000Y-105800000D01*
D11*
X43600000Y-100700000D02*
X45000000Y-100700000D01*
X43600000Y-103200000D02*
X43600000Y-103900000D01*
D10*
X50616318Y-105978529D02*
G75*
G03*
X48400000Y-104100000I-2151318J-291471D01*
G01*
X53900001Y-102400000D02*
G75*
G03*
X51800000Y-100499999I-2000001J-100000D01*
G01*
D14*
X51016318Y-105578529D02*
G75*
G03*
X48800000Y-103700000I-2151318J-291471D01*
G01*
D17*
%TO.C,SW5*%
X72849999Y-46150000D02*
X72850000Y-45250001D01*
D16*
X72350000Y-48350000D02*
X72350000Y-46550000D01*
D15*
X71220000Y-44850000D02*
X71220000Y-47090000D01*
D12*
X62750000Y-46650000D02*
X64150000Y-46650000D01*
D14*
X63150000Y-43950000D02*
X63150000Y-46450000D01*
D13*
X64450000Y-45150000D02*
X71150000Y-45150000D01*
D10*
X62450000Y-46950000D02*
X62450000Y-45950000D01*
X62450000Y-45950000D02*
X62650000Y-45950000D01*
X62670000Y-45950000D02*
X62670000Y-43700000D01*
X62650000Y-43700000D02*
X62450000Y-43700000D01*
X72950000Y-46250000D02*
X72750000Y-46250000D01*
X72720000Y-46250000D02*
X72720000Y-48490000D01*
X72750000Y-48490000D02*
X72950000Y-48490000D01*
X72950000Y-48850000D02*
X72950000Y-48490000D01*
X72950000Y-45250000D02*
X72950000Y-46250000D01*
X72950000Y-48850000D02*
X69670000Y-48850000D01*
X67450000Y-46950000D02*
X62450000Y-46950000D01*
X62450000Y-43350000D02*
X70850000Y-43349999D01*
X62450000Y-43700000D02*
X62450000Y-43350000D01*
D12*
X72750000Y-48650000D02*
X70050000Y-48650000D01*
D11*
X62650000Y-43550000D02*
X64050000Y-43550000D01*
X62650000Y-46050000D02*
X62650000Y-46750000D01*
D10*
X69666318Y-48828529D02*
G75*
G03*
X67450000Y-46950000I-2151318J-291471D01*
G01*
X72950001Y-45250000D02*
G75*
G03*
X70850000Y-43349999I-2000001J-100000D01*
G01*
D14*
X70066318Y-48428529D02*
G75*
G03*
X67850000Y-46550000I-2151318J-291471D01*
G01*
D17*
%TO.C,SW6*%
X72849999Y-65200000D02*
X72850000Y-64300001D01*
D16*
X72350000Y-67400000D02*
X72350000Y-65600000D01*
D15*
X71220000Y-63900000D02*
X71220000Y-66140000D01*
D12*
X62750000Y-65700000D02*
X64150000Y-65700000D01*
D14*
X63150000Y-63000000D02*
X63150000Y-65500000D01*
D13*
X64450000Y-64200000D02*
X71150000Y-64200000D01*
D10*
X62450000Y-66000000D02*
X62450000Y-65000000D01*
X62450000Y-65000000D02*
X62650000Y-65000000D01*
X62670000Y-65000000D02*
X62670000Y-62750000D01*
X62650000Y-62750000D02*
X62450000Y-62750000D01*
X72950000Y-65300000D02*
X72750000Y-65300000D01*
X72720000Y-65300000D02*
X72720000Y-67540000D01*
X72750000Y-67540000D02*
X72950000Y-67540000D01*
X72950000Y-67900000D02*
X72950000Y-67540000D01*
X72950000Y-64300000D02*
X72950000Y-65300000D01*
X72950000Y-67900000D02*
X69670000Y-67900000D01*
X67450000Y-66000000D02*
X62450000Y-66000000D01*
X62450000Y-62400000D02*
X70850000Y-62399999D01*
X62450000Y-62750000D02*
X62450000Y-62400000D01*
D12*
X72750000Y-67700000D02*
X70050000Y-67700000D01*
D11*
X62650000Y-62600000D02*
X64050000Y-62600000D01*
X62650000Y-65100000D02*
X62650000Y-65800000D01*
D10*
X69666318Y-67878529D02*
G75*
G03*
X67450000Y-66000000I-2151318J-291471D01*
G01*
X72950001Y-64300000D02*
G75*
G03*
X70850000Y-62399999I-2000001J-100000D01*
G01*
D14*
X70066318Y-67478529D02*
G75*
G03*
X67850000Y-65600000I-2151318J-291471D01*
G01*
D11*
%TO.C,SW7*%
X62650000Y-84150000D02*
X62650000Y-84850000D01*
X62650000Y-81650000D02*
X64050000Y-81650000D01*
D12*
X72750000Y-86750000D02*
X70050000Y-86750000D01*
D10*
X62450000Y-81800000D02*
X62450000Y-81450000D01*
X62450000Y-81450000D02*
X70850000Y-81449999D01*
X67450000Y-85050000D02*
X62450000Y-85050000D01*
X72950000Y-86950000D02*
X69670000Y-86950000D01*
X72950000Y-83350000D02*
X72950000Y-84350000D01*
X72950000Y-86950000D02*
X72950000Y-86590000D01*
X72750000Y-86590000D02*
X72950000Y-86590000D01*
X72720000Y-84350000D02*
X72720000Y-86590000D01*
X72950000Y-84350000D02*
X72750000Y-84350000D01*
X62650000Y-81800000D02*
X62450000Y-81800000D01*
X62670000Y-84050000D02*
X62670000Y-81800000D01*
X62450000Y-84050000D02*
X62650000Y-84050000D01*
X62450000Y-85050000D02*
X62450000Y-84050000D01*
D13*
X64450000Y-83250000D02*
X71150000Y-83250000D01*
D14*
X63150000Y-82050000D02*
X63150000Y-84550000D01*
D12*
X62750000Y-84750000D02*
X64150000Y-84750000D01*
D15*
X71220000Y-82950000D02*
X71220000Y-85190000D01*
D16*
X72350000Y-86450000D02*
X72350000Y-84650000D01*
D17*
X72849999Y-84250000D02*
X72850000Y-83350001D01*
D14*
X70066318Y-86528529D02*
G75*
G03*
X67850000Y-84650000I-2151318J-291471D01*
G01*
D10*
X72950001Y-83350000D02*
G75*
G03*
X70850000Y-81449999I-2000001J-100000D01*
G01*
X69666318Y-86928529D02*
G75*
G03*
X67450000Y-85050000I-2151318J-291471D01*
G01*
D11*
%TO.C,SW8*%
X62650000Y-103200000D02*
X62650000Y-103900000D01*
X62650000Y-100700000D02*
X64050000Y-100700000D01*
D12*
X72750000Y-105800000D02*
X70050000Y-105800000D01*
D10*
X62450000Y-100850000D02*
X62450000Y-100500000D01*
X62450000Y-100500000D02*
X70850000Y-100499999D01*
X67450000Y-104100000D02*
X62450000Y-104100000D01*
X72950000Y-106000000D02*
X69670000Y-106000000D01*
X72950000Y-102400000D02*
X72950000Y-103400000D01*
X72950000Y-106000000D02*
X72950000Y-105640000D01*
X72750000Y-105640000D02*
X72950000Y-105640000D01*
X72720000Y-103400000D02*
X72720000Y-105640000D01*
X72950000Y-103400000D02*
X72750000Y-103400000D01*
X62650000Y-100850000D02*
X62450000Y-100850000D01*
X62670000Y-103100000D02*
X62670000Y-100850000D01*
X62450000Y-103100000D02*
X62650000Y-103100000D01*
X62450000Y-104100000D02*
X62450000Y-103100000D01*
D13*
X64450000Y-102300000D02*
X71150000Y-102300000D01*
D14*
X63150000Y-101100000D02*
X63150000Y-103600000D01*
D12*
X62750000Y-103800000D02*
X64150000Y-103800000D01*
D15*
X71220000Y-102000000D02*
X71220000Y-104240000D01*
D16*
X72350000Y-105500000D02*
X72350000Y-103700000D01*
D17*
X72849999Y-103300000D02*
X72850000Y-102400001D01*
D14*
X70066318Y-105578529D02*
G75*
G03*
X67850000Y-103700000I-2151318J-291471D01*
G01*
D10*
X72950001Y-102400000D02*
G75*
G03*
X70850000Y-100499999I-2000001J-100000D01*
G01*
X69666318Y-105978529D02*
G75*
G03*
X67450000Y-104100000I-2151318J-291471D01*
G01*
D11*
%TO.C,SW10*%
X81700000Y-62100000D02*
X81700000Y-62800000D01*
X81700000Y-59600000D02*
X83100000Y-59600000D01*
D12*
X91800000Y-64700000D02*
X89100000Y-64700000D01*
D10*
X81500000Y-59750000D02*
X81500000Y-59400000D01*
X81500000Y-59400000D02*
X89900000Y-59399999D01*
X86500000Y-63000000D02*
X81500000Y-63000000D01*
X92000000Y-64900000D02*
X88720000Y-64900000D01*
X92000000Y-61300000D02*
X92000000Y-62300000D01*
X92000000Y-64900000D02*
X92000000Y-64540000D01*
X91800000Y-64540000D02*
X92000000Y-64540000D01*
X91770000Y-62300000D02*
X91770000Y-64540000D01*
X92000000Y-62300000D02*
X91800000Y-62300000D01*
X81700000Y-59750000D02*
X81500000Y-59750000D01*
X81720000Y-62000000D02*
X81720000Y-59750000D01*
X81500000Y-62000000D02*
X81700000Y-62000000D01*
X81500000Y-63000000D02*
X81500000Y-62000000D01*
D13*
X83500000Y-61200000D02*
X90200000Y-61200000D01*
D14*
X82200000Y-60000000D02*
X82200000Y-62500000D01*
D12*
X81800000Y-62700000D02*
X83200000Y-62700000D01*
D15*
X90270000Y-60900000D02*
X90270000Y-63140000D01*
D16*
X91400000Y-64400000D02*
X91400000Y-62600000D01*
D17*
X91899999Y-62200000D02*
X91900000Y-61300001D01*
D14*
X89116318Y-64478529D02*
G75*
G03*
X86900000Y-62600000I-2151318J-291471D01*
G01*
D10*
X92000001Y-61300000D02*
G75*
G03*
X89900000Y-59399999I-2000001J-100000D01*
G01*
X88716318Y-64878529D02*
G75*
G03*
X86500000Y-63000000I-2151318J-291471D01*
G01*
D17*
%TO.C,SW11*%
X91899999Y-81250000D02*
X91900000Y-80350001D01*
D16*
X91400000Y-83450000D02*
X91400000Y-81650000D01*
D15*
X90270000Y-79950000D02*
X90270000Y-82190000D01*
D12*
X81800000Y-81750000D02*
X83200000Y-81750000D01*
D14*
X82200000Y-79050000D02*
X82200000Y-81550000D01*
D13*
X83500000Y-80250000D02*
X90200000Y-80250000D01*
D10*
X81500000Y-82050000D02*
X81500000Y-81050000D01*
X81500000Y-81050000D02*
X81700000Y-81050000D01*
X81720000Y-81050000D02*
X81720000Y-78800000D01*
X81700000Y-78800000D02*
X81500000Y-78800000D01*
X92000000Y-81350000D02*
X91800000Y-81350000D01*
X91770000Y-81350000D02*
X91770000Y-83590000D01*
X91800000Y-83590000D02*
X92000000Y-83590000D01*
X92000000Y-83950000D02*
X92000000Y-83590000D01*
X92000000Y-80350000D02*
X92000000Y-81350000D01*
X92000000Y-83950000D02*
X88720000Y-83950000D01*
X86500000Y-82050000D02*
X81500000Y-82050000D01*
X81500000Y-78450000D02*
X89900000Y-78449999D01*
X81500000Y-78800000D02*
X81500000Y-78450000D01*
D12*
X91800000Y-83750000D02*
X89100000Y-83750000D01*
D11*
X81700000Y-78650000D02*
X83100000Y-78650000D01*
X81700000Y-81150000D02*
X81700000Y-81850000D01*
D10*
X88716318Y-83928529D02*
G75*
G03*
X86500000Y-82050000I-2151318J-291471D01*
G01*
X92000001Y-80350000D02*
G75*
G03*
X89900000Y-78449999I-2000001J-100000D01*
G01*
D14*
X89116318Y-83528529D02*
G75*
G03*
X86900000Y-81650000I-2151318J-291471D01*
G01*
D17*
%TO.C,SW12*%
X91899999Y-100300000D02*
X91900000Y-99400001D01*
D16*
X91400000Y-102500000D02*
X91400000Y-100700000D01*
D15*
X90270000Y-99000000D02*
X90270000Y-101240000D01*
D12*
X81800000Y-100800000D02*
X83200000Y-100800000D01*
D14*
X82200000Y-98100000D02*
X82200000Y-100600000D01*
D13*
X83500000Y-99300000D02*
X90200000Y-99300000D01*
D10*
X81500000Y-101100000D02*
X81500000Y-100100000D01*
X81500000Y-100100000D02*
X81700000Y-100100000D01*
X81720000Y-100100000D02*
X81720000Y-97850000D01*
X81700000Y-97850000D02*
X81500000Y-97850000D01*
X92000000Y-100400000D02*
X91800000Y-100400000D01*
X91770000Y-100400000D02*
X91770000Y-102640000D01*
X91800000Y-102640000D02*
X92000000Y-102640000D01*
X92000000Y-103000000D02*
X92000000Y-102640000D01*
X92000000Y-99400000D02*
X92000000Y-100400000D01*
X92000000Y-103000000D02*
X88720000Y-103000000D01*
X86500000Y-101100000D02*
X81500000Y-101100000D01*
X81500000Y-97500000D02*
X89900000Y-97499999D01*
X81500000Y-97850000D02*
X81500000Y-97500000D01*
D12*
X91800000Y-102800000D02*
X89100000Y-102800000D01*
D11*
X81700000Y-97700000D02*
X83100000Y-97700000D01*
X81700000Y-100200000D02*
X81700000Y-100900000D01*
D10*
X88716318Y-102978529D02*
G75*
G03*
X86500000Y-101100000I-2151318J-291471D01*
G01*
X92000001Y-99400000D02*
G75*
G03*
X89900000Y-97499999I-2000001J-100000D01*
G01*
D14*
X89116318Y-102578529D02*
G75*
G03*
X86900000Y-100700000I-2151318J-291471D01*
G01*
D17*
%TO.C,SW13*%
X110949999Y-40150000D02*
X110950000Y-39250001D01*
D16*
X110450000Y-42350000D02*
X110450000Y-40550000D01*
D15*
X109320000Y-38850000D02*
X109320000Y-41090000D01*
D12*
X100850000Y-40650000D02*
X102250000Y-40650000D01*
D14*
X101250000Y-37950000D02*
X101250000Y-40450000D01*
D13*
X102550000Y-39150000D02*
X109250000Y-39150000D01*
D10*
X100550000Y-40950000D02*
X100550000Y-39950000D01*
X100550000Y-39950000D02*
X100750000Y-39950000D01*
X100770000Y-39950000D02*
X100770000Y-37700000D01*
X100750000Y-37700000D02*
X100550000Y-37700000D01*
X111050000Y-40250000D02*
X110850000Y-40250000D01*
X110820000Y-40250000D02*
X110820000Y-42490000D01*
X110850000Y-42490000D02*
X111050000Y-42490000D01*
X111050000Y-42850000D02*
X111050000Y-42490000D01*
X111050000Y-39250000D02*
X111050000Y-40250000D01*
X111050000Y-42850000D02*
X107770000Y-42850000D01*
X105550000Y-40950000D02*
X100550000Y-40950000D01*
X100550000Y-37350000D02*
X108950000Y-37349999D01*
X100550000Y-37700000D02*
X100550000Y-37350000D01*
D12*
X110850000Y-42650000D02*
X108150000Y-42650000D01*
D11*
X100750000Y-37550000D02*
X102150000Y-37550000D01*
X100750000Y-40050000D02*
X100750000Y-40750000D01*
D10*
X107766318Y-42828529D02*
G75*
G03*
X105550000Y-40950000I-2151318J-291471D01*
G01*
X111050001Y-39250000D02*
G75*
G03*
X108950000Y-37349999I-2000001J-100000D01*
G01*
D14*
X108166318Y-42428529D02*
G75*
G03*
X105950000Y-40550000I-2151318J-291471D01*
G01*
D17*
%TO.C,SW14*%
X110949999Y-59200000D02*
X110950000Y-58300001D01*
D16*
X110450000Y-61400000D02*
X110450000Y-59600000D01*
D15*
X109320000Y-57900000D02*
X109320000Y-60140000D01*
D12*
X100850000Y-59700000D02*
X102250000Y-59700000D01*
D14*
X101250000Y-57000000D02*
X101250000Y-59500000D01*
D13*
X102550000Y-58200000D02*
X109250000Y-58200000D01*
D10*
X100550000Y-60000000D02*
X100550000Y-59000000D01*
X100550000Y-59000000D02*
X100750000Y-59000000D01*
X100770000Y-59000000D02*
X100770000Y-56750000D01*
X100750000Y-56750000D02*
X100550000Y-56750000D01*
X111050000Y-59300000D02*
X110850000Y-59300000D01*
X110820000Y-59300000D02*
X110820000Y-61540000D01*
X110850000Y-61540000D02*
X111050000Y-61540000D01*
X111050000Y-61900000D02*
X111050000Y-61540000D01*
X111050000Y-58300000D02*
X111050000Y-59300000D01*
X111050000Y-61900000D02*
X107770000Y-61900000D01*
X105550000Y-60000000D02*
X100550000Y-60000000D01*
X100550000Y-56400000D02*
X108950000Y-56399999D01*
X100550000Y-56750000D02*
X100550000Y-56400000D01*
D12*
X110850000Y-61700000D02*
X108150000Y-61700000D01*
D11*
X100750000Y-56600000D02*
X102150000Y-56600000D01*
X100750000Y-59100000D02*
X100750000Y-59800000D01*
D10*
X107766318Y-61878529D02*
G75*
G03*
X105550000Y-60000000I-2151318J-291471D01*
G01*
X111050001Y-58300000D02*
G75*
G03*
X108950000Y-56399999I-2000001J-100000D01*
G01*
D14*
X108166318Y-61478529D02*
G75*
G03*
X105950000Y-59600000I-2151318J-291471D01*
G01*
D17*
%TO.C,SW15*%
X110949999Y-78250000D02*
X110950000Y-77350001D01*
D16*
X110450000Y-80450000D02*
X110450000Y-78650000D01*
D15*
X109320000Y-76950000D02*
X109320000Y-79190000D01*
D12*
X100850000Y-78750000D02*
X102250000Y-78750000D01*
D14*
X101250000Y-76050000D02*
X101250000Y-78550000D01*
D13*
X102550000Y-77250000D02*
X109250000Y-77250000D01*
D10*
X100550000Y-79050000D02*
X100550000Y-78050000D01*
X100550000Y-78050000D02*
X100750000Y-78050000D01*
X100770000Y-78050000D02*
X100770000Y-75800000D01*
X100750000Y-75800000D02*
X100550000Y-75800000D01*
X111050000Y-78350000D02*
X110850000Y-78350000D01*
X110820000Y-78350000D02*
X110820000Y-80590000D01*
X110850000Y-80590000D02*
X111050000Y-80590000D01*
X111050000Y-80950000D02*
X111050000Y-80590000D01*
X111050000Y-77350000D02*
X111050000Y-78350000D01*
X111050000Y-80950000D02*
X107770000Y-80950000D01*
X105550000Y-79050000D02*
X100550000Y-79050000D01*
X100550000Y-75450000D02*
X108950000Y-75449999D01*
X100550000Y-75800000D02*
X100550000Y-75450000D01*
D12*
X110850000Y-80750000D02*
X108150000Y-80750000D01*
D11*
X100750000Y-75650000D02*
X102150000Y-75650000D01*
X100750000Y-78150000D02*
X100750000Y-78850000D01*
D10*
X107766318Y-80928529D02*
G75*
G03*
X105550000Y-79050000I-2151318J-291471D01*
G01*
X111050001Y-77350000D02*
G75*
G03*
X108950000Y-75449999I-2000001J-100000D01*
G01*
D14*
X108166318Y-80528529D02*
G75*
G03*
X105950000Y-78650000I-2151318J-291471D01*
G01*
D17*
%TO.C,SW16*%
X110949999Y-97300000D02*
X110950000Y-96400001D01*
D16*
X110450000Y-99500000D02*
X110450000Y-97700000D01*
D15*
X109320000Y-96000000D02*
X109320000Y-98240000D01*
D12*
X100850000Y-97800000D02*
X102250000Y-97800000D01*
D14*
X101250000Y-95100000D02*
X101250000Y-97600000D01*
D13*
X102550000Y-96300000D02*
X109250000Y-96300000D01*
D10*
X100550000Y-98100000D02*
X100550000Y-97100000D01*
X100550000Y-97100000D02*
X100750000Y-97100000D01*
X100770000Y-97100000D02*
X100770000Y-94850000D01*
X100750000Y-94850000D02*
X100550000Y-94850000D01*
X111050000Y-97400000D02*
X110850000Y-97400000D01*
X110820000Y-97400000D02*
X110820000Y-99640000D01*
X110850000Y-99640000D02*
X111050000Y-99640000D01*
X111050000Y-100000000D02*
X111050000Y-99640000D01*
X111050000Y-96400000D02*
X111050000Y-97400000D01*
X111050000Y-100000000D02*
X107770000Y-100000000D01*
X105550000Y-98100000D02*
X100550000Y-98100000D01*
X100550000Y-94500000D02*
X108950000Y-94499999D01*
X100550000Y-94850000D02*
X100550000Y-94500000D01*
D12*
X110850000Y-99800000D02*
X108150000Y-99800000D01*
D11*
X100750000Y-94700000D02*
X102150000Y-94700000D01*
X100750000Y-97200000D02*
X100750000Y-97900000D01*
D10*
X107766318Y-99978529D02*
G75*
G03*
X105550000Y-98100000I-2151318J-291471D01*
G01*
X111050001Y-96400000D02*
G75*
G03*
X108950000Y-94499999I-2000001J-100000D01*
G01*
D14*
X108166318Y-99578529D02*
G75*
G03*
X105950000Y-97700000I-2151318J-291471D01*
G01*
D11*
%TO.C,SW18*%
X119800000Y-43050000D02*
X119800000Y-43750000D01*
X119800000Y-40550000D02*
X121200000Y-40550000D01*
D12*
X129900000Y-45650000D02*
X127200000Y-45650000D01*
D10*
X119600000Y-40700000D02*
X119600000Y-40350000D01*
X119600000Y-40350000D02*
X128000000Y-40349999D01*
X124600000Y-43950000D02*
X119600000Y-43950000D01*
X130100000Y-45850000D02*
X126820000Y-45850000D01*
X130100000Y-42250000D02*
X130100000Y-43250000D01*
X130100000Y-45850000D02*
X130100000Y-45490000D01*
X129900000Y-45490000D02*
X130100000Y-45490000D01*
X129870000Y-43250000D02*
X129870000Y-45490000D01*
X130100000Y-43250000D02*
X129900000Y-43250000D01*
X119800000Y-40700000D02*
X119600000Y-40700000D01*
X119820000Y-42950000D02*
X119820000Y-40700000D01*
X119600000Y-42950000D02*
X119800000Y-42950000D01*
X119600000Y-43950000D02*
X119600000Y-42950000D01*
D13*
X121600000Y-42150000D02*
X128300000Y-42150000D01*
D14*
X120300000Y-40950000D02*
X120300000Y-43450000D01*
D12*
X119900000Y-43650000D02*
X121300000Y-43650000D01*
D15*
X128370000Y-41850000D02*
X128370000Y-44090000D01*
D16*
X129500000Y-45350000D02*
X129500000Y-43550000D01*
D17*
X129999999Y-43150000D02*
X130000000Y-42250001D01*
D14*
X127216318Y-45428529D02*
G75*
G03*
X125000000Y-43550000I-2151318J-291471D01*
G01*
D10*
X130100001Y-42250000D02*
G75*
G03*
X128000000Y-40349999I-2000001J-100000D01*
G01*
X126816318Y-45828529D02*
G75*
G03*
X124600000Y-43950000I-2151318J-291471D01*
G01*
D17*
%TO.C,SW19*%
X129999999Y-62200000D02*
X130000000Y-61300001D01*
D16*
X129500000Y-64400000D02*
X129500000Y-62600000D01*
D15*
X128370000Y-60900000D02*
X128370000Y-63140000D01*
D12*
X119900000Y-62700000D02*
X121300000Y-62700000D01*
D14*
X120300000Y-60000000D02*
X120300000Y-62500000D01*
D13*
X121600000Y-61200000D02*
X128300000Y-61200000D01*
D10*
X119600000Y-63000000D02*
X119600000Y-62000000D01*
X119600000Y-62000000D02*
X119800000Y-62000000D01*
X119820000Y-62000000D02*
X119820000Y-59750000D01*
X119800000Y-59750000D02*
X119600000Y-59750000D01*
X130100000Y-62300000D02*
X129900000Y-62300000D01*
X129870000Y-62300000D02*
X129870000Y-64540000D01*
X129900000Y-64540000D02*
X130100000Y-64540000D01*
X130100000Y-64900000D02*
X130100000Y-64540000D01*
X130100000Y-61300000D02*
X130100000Y-62300000D01*
X130100000Y-64900000D02*
X126820000Y-64900000D01*
X124600000Y-63000000D02*
X119600000Y-63000000D01*
X119600000Y-59400000D02*
X128000000Y-59399999D01*
X119600000Y-59750000D02*
X119600000Y-59400000D01*
D12*
X129900000Y-64700000D02*
X127200000Y-64700000D01*
D11*
X119800000Y-59600000D02*
X121200000Y-59600000D01*
X119800000Y-62100000D02*
X119800000Y-62800000D01*
D10*
X126816318Y-64878529D02*
G75*
G03*
X124600000Y-63000000I-2151318J-291471D01*
G01*
X130100001Y-61300000D02*
G75*
G03*
X128000000Y-59399999I-2000001J-100000D01*
G01*
D14*
X127216318Y-64478529D02*
G75*
G03*
X125000000Y-62600000I-2151318J-291471D01*
G01*
D11*
%TO.C,SW20*%
X119800000Y-81150000D02*
X119800000Y-81850000D01*
X119800000Y-78650000D02*
X121200000Y-78650000D01*
D12*
X129900000Y-83750000D02*
X127200000Y-83750000D01*
D10*
X119600000Y-78800000D02*
X119600000Y-78450000D01*
X119600000Y-78450000D02*
X128000000Y-78449999D01*
X124600000Y-82050000D02*
X119600000Y-82050000D01*
X130100000Y-83950000D02*
X126820000Y-83950000D01*
X130100000Y-80350000D02*
X130100000Y-81350000D01*
X130100000Y-83950000D02*
X130100000Y-83590000D01*
X129900000Y-83590000D02*
X130100000Y-83590000D01*
X129870000Y-81350000D02*
X129870000Y-83590000D01*
X130100000Y-81350000D02*
X129900000Y-81350000D01*
X119800000Y-78800000D02*
X119600000Y-78800000D01*
X119820000Y-81050000D02*
X119820000Y-78800000D01*
X119600000Y-81050000D02*
X119800000Y-81050000D01*
X119600000Y-82050000D02*
X119600000Y-81050000D01*
D13*
X121600000Y-80250000D02*
X128300000Y-80250000D01*
D14*
X120300000Y-79050000D02*
X120300000Y-81550000D01*
D12*
X119900000Y-81750000D02*
X121300000Y-81750000D01*
D15*
X128370000Y-79950000D02*
X128370000Y-82190000D01*
D16*
X129500000Y-83450000D02*
X129500000Y-81650000D01*
D17*
X129999999Y-81250000D02*
X130000000Y-80350001D01*
D14*
X127216318Y-83528529D02*
G75*
G03*
X125000000Y-81650000I-2151318J-291471D01*
G01*
D10*
X130100001Y-80350000D02*
G75*
G03*
X128000000Y-78449999I-2000001J-100000D01*
G01*
X126816318Y-83928529D02*
G75*
G03*
X124600000Y-82050000I-2151318J-291471D01*
G01*
D17*
%TO.C,SW21*%
X129999999Y-100300000D02*
X130000000Y-99400001D01*
D16*
X129500000Y-102500000D02*
X129500000Y-100700000D01*
D15*
X128370000Y-99000000D02*
X128370000Y-101240000D01*
D12*
X119900000Y-100800000D02*
X121300000Y-100800000D01*
D14*
X120300000Y-98100000D02*
X120300000Y-100600000D01*
D13*
X121600000Y-99300000D02*
X128300000Y-99300000D01*
D10*
X119600000Y-101100000D02*
X119600000Y-100100000D01*
X119600000Y-100100000D02*
X119800000Y-100100000D01*
X119820000Y-100100000D02*
X119820000Y-97850000D01*
X119800000Y-97850000D02*
X119600000Y-97850000D01*
X130100000Y-100400000D02*
X129900000Y-100400000D01*
X129870000Y-100400000D02*
X129870000Y-102640000D01*
X129900000Y-102640000D02*
X130100000Y-102640000D01*
X130100000Y-103000000D02*
X130100000Y-102640000D01*
X130100000Y-99400000D02*
X130100000Y-100400000D01*
X130100000Y-103000000D02*
X126820000Y-103000000D01*
X124600000Y-101100000D02*
X119600000Y-101100000D01*
X119600000Y-97500000D02*
X128000000Y-97499999D01*
X119600000Y-97850000D02*
X119600000Y-97500000D01*
D12*
X129900000Y-102800000D02*
X127200000Y-102800000D01*
D11*
X119800000Y-97700000D02*
X121200000Y-97700000D01*
X119800000Y-100200000D02*
X119800000Y-100900000D01*
D10*
X126816318Y-102978529D02*
G75*
G03*
X124600000Y-101100000I-2151318J-291471D01*
G01*
X130100001Y-99400000D02*
G75*
G03*
X128000000Y-97499999I-2000001J-100000D01*
G01*
D14*
X127216318Y-102578529D02*
G75*
G03*
X125000000Y-100700000I-2151318J-291471D01*
G01*
D11*
%TO.C,SW23*%
X138850000Y-46050000D02*
X138850000Y-46750000D01*
X138850000Y-43550000D02*
X140250000Y-43550000D01*
D12*
X148950000Y-48650000D02*
X146250000Y-48650000D01*
D10*
X138650000Y-43700000D02*
X138650000Y-43350000D01*
X138650000Y-43350000D02*
X147050000Y-43349999D01*
X143650000Y-46950000D02*
X138650000Y-46950000D01*
X149150000Y-48850000D02*
X145870000Y-48850000D01*
X149150000Y-45250000D02*
X149150000Y-46250000D01*
X149150000Y-48850000D02*
X149150000Y-48490000D01*
X148950000Y-48490000D02*
X149150000Y-48490000D01*
X148920000Y-46250000D02*
X148920000Y-48490000D01*
X149150000Y-46250000D02*
X148950000Y-46250000D01*
X138850000Y-43700000D02*
X138650000Y-43700000D01*
X138870000Y-45950000D02*
X138870000Y-43700000D01*
X138650000Y-45950000D02*
X138850000Y-45950000D01*
X138650000Y-46950000D02*
X138650000Y-45950000D01*
D13*
X140650000Y-45150000D02*
X147350000Y-45150000D01*
D14*
X139350000Y-43950000D02*
X139350000Y-46450000D01*
D12*
X138950000Y-46650000D02*
X140350000Y-46650000D01*
D15*
X147420000Y-44850000D02*
X147420000Y-47090000D01*
D16*
X148550000Y-48350000D02*
X148550000Y-46550000D01*
D17*
X149049999Y-46150000D02*
X149050000Y-45250001D01*
D14*
X146266318Y-48428529D02*
G75*
G03*
X144050000Y-46550000I-2151318J-291471D01*
G01*
D10*
X149150001Y-45250000D02*
G75*
G03*
X147050000Y-43349999I-2000001J-100000D01*
G01*
X145866318Y-48828529D02*
G75*
G03*
X143650000Y-46950000I-2151318J-291471D01*
G01*
D11*
%TO.C,SW24*%
X138850000Y-65100000D02*
X138850000Y-65800000D01*
X138850000Y-62600000D02*
X140250000Y-62600000D01*
D12*
X148950000Y-67700000D02*
X146250000Y-67700000D01*
D10*
X138650000Y-62750000D02*
X138650000Y-62400000D01*
X138650000Y-62400000D02*
X147050000Y-62399999D01*
X143650000Y-66000000D02*
X138650000Y-66000000D01*
X149150000Y-67900000D02*
X145870000Y-67900000D01*
X149150000Y-64300000D02*
X149150000Y-65300000D01*
X149150000Y-67900000D02*
X149150000Y-67540000D01*
X148950000Y-67540000D02*
X149150000Y-67540000D01*
X148920000Y-65300000D02*
X148920000Y-67540000D01*
X149150000Y-65300000D02*
X148950000Y-65300000D01*
X138850000Y-62750000D02*
X138650000Y-62750000D01*
X138870000Y-65000000D02*
X138870000Y-62750000D01*
X138650000Y-65000000D02*
X138850000Y-65000000D01*
X138650000Y-66000000D02*
X138650000Y-65000000D01*
D13*
X140650000Y-64200000D02*
X147350000Y-64200000D01*
D14*
X139350000Y-63000000D02*
X139350000Y-65500000D01*
D12*
X138950000Y-65700000D02*
X140350000Y-65700000D01*
D15*
X147420000Y-63900000D02*
X147420000Y-66140000D01*
D16*
X148550000Y-67400000D02*
X148550000Y-65600000D01*
D17*
X149049999Y-65200000D02*
X149050000Y-64300001D01*
D14*
X146266318Y-67478529D02*
G75*
G03*
X144050000Y-65600000I-2151318J-291471D01*
G01*
D10*
X149150001Y-64300000D02*
G75*
G03*
X147050000Y-62399999I-2000001J-100000D01*
G01*
X145866318Y-67878529D02*
G75*
G03*
X143650000Y-66000000I-2151318J-291471D01*
G01*
D11*
%TO.C,SW25*%
X138850000Y-84150000D02*
X138850000Y-84850000D01*
X138850000Y-81650000D02*
X140250000Y-81650000D01*
D12*
X148950000Y-86750000D02*
X146250000Y-86750000D01*
D10*
X138650000Y-81800000D02*
X138650000Y-81450000D01*
X138650000Y-81450000D02*
X147050000Y-81449999D01*
X143650000Y-85050000D02*
X138650000Y-85050000D01*
X149150000Y-86950000D02*
X145870000Y-86950000D01*
X149150000Y-83350000D02*
X149150000Y-84350000D01*
X149150000Y-86950000D02*
X149150000Y-86590000D01*
X148950000Y-86590000D02*
X149150000Y-86590000D01*
X148920000Y-84350000D02*
X148920000Y-86590000D01*
X149150000Y-84350000D02*
X148950000Y-84350000D01*
X138850000Y-81800000D02*
X138650000Y-81800000D01*
X138870000Y-84050000D02*
X138870000Y-81800000D01*
X138650000Y-84050000D02*
X138850000Y-84050000D01*
X138650000Y-85050000D02*
X138650000Y-84050000D01*
D13*
X140650000Y-83250000D02*
X147350000Y-83250000D01*
D14*
X139350000Y-82050000D02*
X139350000Y-84550000D01*
D12*
X138950000Y-84750000D02*
X140350000Y-84750000D01*
D15*
X147420000Y-82950000D02*
X147420000Y-85190000D01*
D16*
X148550000Y-86450000D02*
X148550000Y-84650000D01*
D17*
X149049999Y-84250000D02*
X149050000Y-83350001D01*
D14*
X146266318Y-86528529D02*
G75*
G03*
X144050000Y-84650000I-2151318J-291471D01*
G01*
D10*
X149150001Y-83350000D02*
G75*
G03*
X147050000Y-81449999I-2000001J-100000D01*
G01*
X145866318Y-86928529D02*
G75*
G03*
X143650000Y-85050000I-2151318J-291471D01*
G01*
D11*
%TO.C,SW26*%
X138850000Y-103200000D02*
X138850000Y-103900000D01*
X138850000Y-100700000D02*
X140250000Y-100700000D01*
D12*
X148950000Y-105800000D02*
X146250000Y-105800000D01*
D10*
X138650000Y-100850000D02*
X138650000Y-100500000D01*
X138650000Y-100500000D02*
X147050000Y-100499999D01*
X143650000Y-104100000D02*
X138650000Y-104100000D01*
X149150000Y-106000000D02*
X145870000Y-106000000D01*
X149150000Y-102400000D02*
X149150000Y-103400000D01*
X149150000Y-106000000D02*
X149150000Y-105640000D01*
X148950000Y-105640000D02*
X149150000Y-105640000D01*
X148920000Y-103400000D02*
X148920000Y-105640000D01*
X149150000Y-103400000D02*
X148950000Y-103400000D01*
X138850000Y-100850000D02*
X138650000Y-100850000D01*
X138870000Y-103100000D02*
X138870000Y-100850000D01*
X138650000Y-103100000D02*
X138850000Y-103100000D01*
X138650000Y-104100000D02*
X138650000Y-103100000D01*
D13*
X140650000Y-102300000D02*
X147350000Y-102300000D01*
D14*
X139350000Y-101100000D02*
X139350000Y-103600000D01*
D12*
X138950000Y-103800000D02*
X140350000Y-103800000D01*
D15*
X147420000Y-102000000D02*
X147420000Y-104240000D01*
D16*
X148550000Y-105500000D02*
X148550000Y-103700000D01*
D17*
X149049999Y-103300000D02*
X149050000Y-102400001D01*
D14*
X146266318Y-105578529D02*
G75*
G03*
X144050000Y-103700000I-2151318J-291471D01*
G01*
D10*
X149150001Y-102400000D02*
G75*
G03*
X147050000Y-100499999I-2000001J-100000D01*
G01*
X145866318Y-105978529D02*
G75*
G03*
X143650000Y-104100000I-2151318J-291471D01*
G01*
D11*
%TO.C,SW28*%
X157900000Y-49050000D02*
X157900000Y-49750000D01*
X157900000Y-46550000D02*
X159300000Y-46550000D01*
D12*
X168000000Y-51650000D02*
X165300000Y-51650000D01*
D10*
X157700000Y-46700000D02*
X157700000Y-46350000D01*
X157700000Y-46350000D02*
X166100000Y-46349999D01*
X162700000Y-49950000D02*
X157700000Y-49950000D01*
X168200000Y-51850000D02*
X164920000Y-51850000D01*
X168200000Y-48250000D02*
X168200000Y-49250000D01*
X168200000Y-51850000D02*
X168200000Y-51490000D01*
X168000000Y-51490000D02*
X168200000Y-51490000D01*
X167970000Y-49250000D02*
X167970000Y-51490000D01*
X168200000Y-49250000D02*
X168000000Y-49250000D01*
X157900000Y-46700000D02*
X157700000Y-46700000D01*
X157920000Y-48950000D02*
X157920000Y-46700000D01*
X157700000Y-48950000D02*
X157900000Y-48950000D01*
X157700000Y-49950000D02*
X157700000Y-48950000D01*
D13*
X159700000Y-48150000D02*
X166400000Y-48150000D01*
D14*
X158400000Y-46950000D02*
X158400000Y-49450000D01*
D12*
X158000000Y-49650000D02*
X159400000Y-49650000D01*
D15*
X166470000Y-47850000D02*
X166470000Y-50090000D01*
D16*
X167600000Y-51350000D02*
X167600000Y-49550000D01*
D17*
X168099999Y-49150000D02*
X168100000Y-48250001D01*
D14*
X165316318Y-51428529D02*
G75*
G03*
X163100000Y-49550000I-2151318J-291471D01*
G01*
D10*
X168200001Y-48250000D02*
G75*
G03*
X166100000Y-46349999I-2000001J-100000D01*
G01*
X164916318Y-51828529D02*
G75*
G03*
X162700000Y-49950000I-2151318J-291471D01*
G01*
D17*
%TO.C,SW29*%
X168099999Y-68200000D02*
X168100000Y-67300001D01*
D16*
X167600000Y-70400000D02*
X167600000Y-68600000D01*
D15*
X166470000Y-66900000D02*
X166470000Y-69140000D01*
D12*
X158000000Y-68700000D02*
X159400000Y-68700000D01*
D14*
X158400000Y-66000000D02*
X158400000Y-68500000D01*
D13*
X159700000Y-67200000D02*
X166400000Y-67200000D01*
D10*
X157700000Y-69000000D02*
X157700000Y-68000000D01*
X157700000Y-68000000D02*
X157900000Y-68000000D01*
X157920000Y-68000000D02*
X157920000Y-65750000D01*
X157900000Y-65750000D02*
X157700000Y-65750000D01*
X168200000Y-68300000D02*
X168000000Y-68300000D01*
X167970000Y-68300000D02*
X167970000Y-70540000D01*
X168000000Y-70540000D02*
X168200000Y-70540000D01*
X168200000Y-70900000D02*
X168200000Y-70540000D01*
X168200000Y-67300000D02*
X168200000Y-68300000D01*
X168200000Y-70900000D02*
X164920000Y-70900000D01*
X162700000Y-69000000D02*
X157700000Y-69000000D01*
X157700000Y-65400000D02*
X166100000Y-65399999D01*
X157700000Y-65750000D02*
X157700000Y-65400000D01*
D12*
X168000000Y-70700000D02*
X165300000Y-70700000D01*
D11*
X157900000Y-65600000D02*
X159300000Y-65600000D01*
X157900000Y-68100000D02*
X157900000Y-68800000D01*
D10*
X164916318Y-70878529D02*
G75*
G03*
X162700000Y-69000000I-2151318J-291471D01*
G01*
X168200001Y-67300000D02*
G75*
G03*
X166100000Y-65399999I-2000001J-100000D01*
G01*
D14*
X165316318Y-70478529D02*
G75*
G03*
X163100000Y-68600000I-2151318J-291471D01*
G01*
D17*
%TO.C,SW31*%
X169699893Y-115862885D02*
X170007712Y-115017162D01*
D16*
X168477603Y-117759199D02*
X169093239Y-116067752D01*
D15*
X168612821Y-114083792D02*
X167846696Y-116188703D01*
D12*
X160037988Y-112878328D02*
X161353558Y-113357156D01*
D14*
X161337320Y-110477966D02*
X160482269Y-112827197D01*
D13*
X162148496Y-112050223D02*
X168444436Y-114341758D01*
D10*
X159653474Y-113057629D02*
X159995495Y-112117937D01*
X159995495Y-112117937D02*
X160183433Y-112186341D01*
X160202227Y-112193181D02*
X160971772Y-110078873D01*
X160952978Y-110072032D02*
X160765040Y-110003628D01*
X169759661Y-115991056D02*
X169571722Y-115922652D01*
X169543532Y-115912392D02*
X168777407Y-118017303D01*
X168805597Y-118027564D02*
X168993536Y-118095968D01*
X168870409Y-118434257D02*
X168993536Y-118095968D01*
X170101681Y-115051364D02*
X169759661Y-115991056D01*
X168870409Y-118434257D02*
X165788217Y-117312431D01*
X164351937Y-114767730D02*
X159653474Y-113057629D01*
X160884747Y-109674736D02*
X168778165Y-112547704D01*
X160765040Y-110003628D02*
X160884747Y-109674736D01*
D12*
X168750874Y-118177914D02*
X166213704Y-117254460D01*
D11*
X161004281Y-109931079D02*
X162319851Y-110409907D01*
X160149231Y-112280310D02*
X159909817Y-112938095D01*
D10*
X165792100Y-117290995D02*
G75*
G03*
X164351937Y-114767730I-2121266J461901D01*
G01*
X170101683Y-115051364D02*
G75*
G03*
X168778165Y-112547704I-1913589J590071D01*
G01*
D14*
X166304786Y-117051928D02*
G75*
G03*
X164864623Y-114528661I-2121267J461902D01*
G01*
D17*
%TO.C,SW32*%
X187649893Y-122412885D02*
X187957712Y-121567162D01*
D16*
X186427603Y-124309199D02*
X187043239Y-122617752D01*
D15*
X186562821Y-120633792D02*
X185796696Y-122738703D01*
D12*
X177987988Y-119428328D02*
X179303558Y-119907156D01*
D14*
X179287320Y-117027966D02*
X178432269Y-119377197D01*
D13*
X180098496Y-118600223D02*
X186394436Y-120891758D01*
D10*
X177603474Y-119607629D02*
X177945495Y-118667937D01*
X177945495Y-118667937D02*
X178133433Y-118736341D01*
X178152227Y-118743181D02*
X178921772Y-116628873D01*
X178902978Y-116622032D02*
X178715040Y-116553628D01*
X187709661Y-122541056D02*
X187521722Y-122472652D01*
X187493532Y-122462392D02*
X186727407Y-124567303D01*
X186755597Y-124577564D02*
X186943536Y-124645968D01*
X186820409Y-124984257D02*
X186943536Y-124645968D01*
X188051681Y-121601364D02*
X187709661Y-122541056D01*
X186820409Y-124984257D02*
X183738217Y-123862431D01*
X182301937Y-121317730D02*
X177603474Y-119607629D01*
X178834747Y-116224736D02*
X186728165Y-119097704D01*
X178715040Y-116553628D02*
X178834747Y-116224736D01*
D12*
X186700874Y-124727914D02*
X184163704Y-123804460D01*
D11*
X178954281Y-116481079D02*
X180269851Y-116959907D01*
X178099231Y-118830310D02*
X177859817Y-119488095D01*
D10*
X183742100Y-123840995D02*
G75*
G03*
X182301937Y-121317730I-2121266J461901D01*
G01*
X188051683Y-121601364D02*
G75*
G03*
X186728165Y-119097704I-1913589J590071D01*
G01*
D14*
X184254786Y-123601928D02*
G75*
G03*
X182814623Y-121078661I-2121267J461902D01*
G01*
%TO.C, *%
D10*
%TO.C,K1*%
X187952380Y-84325380D02*
X187476190Y-84658714D01*
X187952380Y-84896809D02*
X186952380Y-84896809D01*
X186952380Y-84515857D01*
X187000000Y-84420619D01*
X187047619Y-84373000D01*
X187142857Y-84325380D01*
X187285714Y-84325380D01*
X187380952Y-84373000D01*
X187428571Y-84420619D01*
X187476190Y-84515857D01*
X187476190Y-84896809D01*
X187428571Y-83896809D02*
X187428571Y-83563476D01*
X187952380Y-83420619D02*
X187952380Y-83896809D01*
X186952380Y-83896809D01*
X186952380Y-83420619D01*
X187904761Y-83039666D02*
X187952380Y-82896809D01*
X187952380Y-82658714D01*
X187904761Y-82563476D01*
X187857142Y-82515857D01*
X187761904Y-82468238D01*
X187666666Y-82468238D01*
X187571428Y-82515857D01*
X187523809Y-82563476D01*
X187476190Y-82658714D01*
X187428571Y-82849190D01*
X187380952Y-82944428D01*
X187333333Y-82992047D01*
X187238095Y-83039666D01*
X187142857Y-83039666D01*
X187047619Y-82992047D01*
X187000000Y-82944428D01*
X186952380Y-82849190D01*
X186952380Y-82611095D01*
X187000000Y-82468238D01*
X187428571Y-82039666D02*
X187428571Y-81706333D01*
X187952380Y-81563476D02*
X187952380Y-82039666D01*
X186952380Y-82039666D01*
X186952380Y-81563476D01*
X186952380Y-81277761D02*
X186952380Y-80706333D01*
X187952380Y-80992047D02*
X186952380Y-80992047D01*
%TO.C,U1*%
D18*
X187119047Y-63141285D02*
X186952380Y-62784142D01*
X186833333Y-63141285D02*
X186833333Y-62391285D01*
X187023809Y-62391285D01*
X187071428Y-62427000D01*
X187095238Y-62462714D01*
X187119047Y-62534142D01*
X187119047Y-62641285D01*
X187095238Y-62712714D01*
X187071428Y-62748428D01*
X187023809Y-62784142D01*
X186833333Y-62784142D01*
X187428571Y-62391285D02*
X187523809Y-62391285D01*
X187571428Y-62427000D01*
X187619047Y-62498428D01*
X187642857Y-62641285D01*
X187642857Y-62891285D01*
X187619047Y-63034142D01*
X187571428Y-63105571D01*
X187523809Y-63141285D01*
X187428571Y-63141285D01*
X187380952Y-63105571D01*
X187333333Y-63034142D01*
X187309523Y-62891285D01*
X187309523Y-62641285D01*
X187333333Y-62498428D01*
X187380952Y-62427000D01*
X187428571Y-62391285D01*
X187809523Y-62391285D02*
X187928571Y-63141285D01*
X188023809Y-62605571D01*
X188119047Y-63141285D01*
X188238095Y-62391285D01*
X188690476Y-63141285D02*
X188404761Y-63141285D01*
X188547619Y-63141285D02*
X188547619Y-62391285D01*
X188500000Y-62498428D01*
X188452380Y-62569857D01*
X188404761Y-62605571D01*
X172002380Y-65617857D02*
X171978571Y-65653571D01*
X171907142Y-65689285D01*
X171859523Y-65689285D01*
X171788095Y-65653571D01*
X171740476Y-65582142D01*
X171716666Y-65510714D01*
X171692857Y-65367857D01*
X171692857Y-65260714D01*
X171716666Y-65117857D01*
X171740476Y-65046428D01*
X171788095Y-64975000D01*
X171859523Y-64939285D01*
X171907142Y-64939285D01*
X171978571Y-64975000D01*
X172002380Y-65010714D01*
X172311904Y-64939285D02*
X172407142Y-64939285D01*
X172454761Y-64975000D01*
X172502380Y-65046428D01*
X172526190Y-65189285D01*
X172526190Y-65439285D01*
X172502380Y-65582142D01*
X172454761Y-65653571D01*
X172407142Y-65689285D01*
X172311904Y-65689285D01*
X172264285Y-65653571D01*
X172216666Y-65582142D01*
X172192857Y-65439285D01*
X172192857Y-65189285D01*
X172216666Y-65046428D01*
X172264285Y-64975000D01*
X172311904Y-64939285D01*
X172978571Y-65689285D02*
X172740476Y-65689285D01*
X172740476Y-64939285D01*
X173359523Y-65189285D02*
X173359523Y-65689285D01*
X173240476Y-64903571D02*
X173121428Y-65439285D01*
X173430952Y-65439285D01*
X187069047Y-65689285D02*
X186902380Y-65332142D01*
X186783333Y-65689285D02*
X186783333Y-64939285D01*
X186973809Y-64939285D01*
X187021428Y-64975000D01*
X187045238Y-65010714D01*
X187069047Y-65082142D01*
X187069047Y-65189285D01*
X187045238Y-65260714D01*
X187021428Y-65296428D01*
X186973809Y-65332142D01*
X186783333Y-65332142D01*
X187378571Y-64939285D02*
X187473809Y-64939285D01*
X187521428Y-64975000D01*
X187569047Y-65046428D01*
X187592857Y-65189285D01*
X187592857Y-65439285D01*
X187569047Y-65582142D01*
X187521428Y-65653571D01*
X187473809Y-65689285D01*
X187378571Y-65689285D01*
X187330952Y-65653571D01*
X187283333Y-65582142D01*
X187259523Y-65439285D01*
X187259523Y-65189285D01*
X187283333Y-65046428D01*
X187330952Y-64975000D01*
X187378571Y-64939285D01*
X187759523Y-64939285D02*
X187878571Y-65689285D01*
X187973809Y-65153571D01*
X188069047Y-65689285D01*
X188188095Y-64939285D01*
X188354761Y-65010714D02*
X188378571Y-64975000D01*
X188426190Y-64939285D01*
X188545238Y-64939285D01*
X188592857Y-64975000D01*
X188616666Y-65010714D01*
X188640476Y-65082142D01*
X188640476Y-65153571D01*
X188616666Y-65260714D01*
X188330952Y-65689285D01*
X188640476Y-65689285D01*
X172002380Y-68213357D02*
X171978571Y-68249071D01*
X171907142Y-68284785D01*
X171859523Y-68284785D01*
X171788095Y-68249071D01*
X171740476Y-68177642D01*
X171716666Y-68106214D01*
X171692857Y-67963357D01*
X171692857Y-67856214D01*
X171716666Y-67713357D01*
X171740476Y-67641928D01*
X171788095Y-67570500D01*
X171859523Y-67534785D01*
X171907142Y-67534785D01*
X171978571Y-67570500D01*
X172002380Y-67606214D01*
X172311904Y-67534785D02*
X172407142Y-67534785D01*
X172454761Y-67570500D01*
X172502380Y-67641928D01*
X172526190Y-67784785D01*
X172526190Y-68034785D01*
X172502380Y-68177642D01*
X172454761Y-68249071D01*
X172407142Y-68284785D01*
X172311904Y-68284785D01*
X172264285Y-68249071D01*
X172216666Y-68177642D01*
X172192857Y-68034785D01*
X172192857Y-67784785D01*
X172216666Y-67641928D01*
X172264285Y-67570500D01*
X172311904Y-67534785D01*
X172978571Y-68284785D02*
X172740476Y-68284785D01*
X172740476Y-67534785D01*
X173383333Y-67534785D02*
X173145238Y-67534785D01*
X173121428Y-67891928D01*
X173145238Y-67856214D01*
X173192857Y-67820500D01*
X173311904Y-67820500D01*
X173359523Y-67856214D01*
X173383333Y-67891928D01*
X173407142Y-67963357D01*
X173407142Y-68141928D01*
X173383333Y-68213357D01*
X173359523Y-68249071D01*
X173311904Y-68284785D01*
X173192857Y-68284785D01*
X173145238Y-68249071D01*
X173121428Y-68213357D01*
X187069047Y-68284785D02*
X186902380Y-67927642D01*
X186783333Y-68284785D02*
X186783333Y-67534785D01*
X186973809Y-67534785D01*
X187021428Y-67570500D01*
X187045238Y-67606214D01*
X187069047Y-67677642D01*
X187069047Y-67784785D01*
X187045238Y-67856214D01*
X187021428Y-67891928D01*
X186973809Y-67927642D01*
X186783333Y-67927642D01*
X187378571Y-67534785D02*
X187473809Y-67534785D01*
X187521428Y-67570500D01*
X187569047Y-67641928D01*
X187592857Y-67784785D01*
X187592857Y-68034785D01*
X187569047Y-68177642D01*
X187521428Y-68249071D01*
X187473809Y-68284785D01*
X187378571Y-68284785D01*
X187330952Y-68249071D01*
X187283333Y-68177642D01*
X187259523Y-68034785D01*
X187259523Y-67784785D01*
X187283333Y-67641928D01*
X187330952Y-67570500D01*
X187378571Y-67534785D01*
X187759523Y-67534785D02*
X187878571Y-68284785D01*
X187973809Y-67749071D01*
X188069047Y-68284785D01*
X188188095Y-67534785D01*
X188330952Y-67534785D02*
X188640476Y-67534785D01*
X188473809Y-67820500D01*
X188545238Y-67820500D01*
X188592857Y-67856214D01*
X188616666Y-67891928D01*
X188640476Y-67963357D01*
X188640476Y-68141928D01*
X188616666Y-68213357D01*
X188592857Y-68249071D01*
X188545238Y-68284785D01*
X188402380Y-68284785D01*
X188354761Y-68249071D01*
X188330952Y-68213357D01*
X172347619Y-70396428D02*
X172419047Y-70432142D01*
X172442857Y-70467857D01*
X172466666Y-70539285D01*
X172466666Y-70646428D01*
X172442857Y-70717857D01*
X172419047Y-70753571D01*
X172371428Y-70789285D01*
X172180952Y-70789285D01*
X172180952Y-70039285D01*
X172347619Y-70039285D01*
X172395238Y-70075000D01*
X172419047Y-70110714D01*
X172442857Y-70182142D01*
X172442857Y-70253571D01*
X172419047Y-70325000D01*
X172395238Y-70360714D01*
X172347619Y-70396428D01*
X172180952Y-70396428D01*
X172657142Y-70110714D02*
X172680952Y-70075000D01*
X172728571Y-70039285D01*
X172847619Y-70039285D01*
X172895238Y-70075000D01*
X172919047Y-70110714D01*
X172942857Y-70182142D01*
X172942857Y-70253571D01*
X172919047Y-70360714D01*
X172633333Y-70789285D01*
X172942857Y-70789285D01*
X187497619Y-70368428D02*
X187569047Y-70404142D01*
X187592857Y-70439857D01*
X187616666Y-70511285D01*
X187616666Y-70618428D01*
X187592857Y-70689857D01*
X187569047Y-70725571D01*
X187521428Y-70761285D01*
X187330952Y-70761285D01*
X187330952Y-70011285D01*
X187497619Y-70011285D01*
X187545238Y-70047000D01*
X187569047Y-70082714D01*
X187592857Y-70154142D01*
X187592857Y-70225571D01*
X187569047Y-70297000D01*
X187545238Y-70332714D01*
X187497619Y-70368428D01*
X187330952Y-70368428D01*
X188045238Y-70261285D02*
X188045238Y-70761285D01*
X187926190Y-69975571D02*
X187807142Y-70511285D01*
X188116666Y-70511285D01*
X187497619Y-72971928D02*
X187569047Y-73007642D01*
X187592857Y-73043357D01*
X187616666Y-73114785D01*
X187616666Y-73221928D01*
X187592857Y-73293357D01*
X187569047Y-73329071D01*
X187521428Y-73364785D01*
X187330952Y-73364785D01*
X187330952Y-72614785D01*
X187497619Y-72614785D01*
X187545238Y-72650500D01*
X187569047Y-72686214D01*
X187592857Y-72757642D01*
X187592857Y-72829071D01*
X187569047Y-72900500D01*
X187545238Y-72936214D01*
X187497619Y-72971928D01*
X187330952Y-72971928D01*
X188069047Y-72614785D02*
X187830952Y-72614785D01*
X187807142Y-72971928D01*
X187830952Y-72936214D01*
X187878571Y-72900500D01*
X187997619Y-72900500D01*
X188045238Y-72936214D01*
X188069047Y-72971928D01*
X188092857Y-73043357D01*
X188092857Y-73221928D01*
X188069047Y-73293357D01*
X188045238Y-73329071D01*
X187997619Y-73364785D01*
X187878571Y-73364785D01*
X187830952Y-73329071D01*
X187807142Y-73293357D01*
X172247619Y-72946428D02*
X172319047Y-72982142D01*
X172342857Y-73017857D01*
X172366666Y-73089285D01*
X172366666Y-73196428D01*
X172342857Y-73267857D01*
X172319047Y-73303571D01*
X172271428Y-73339285D01*
X172080952Y-73339285D01*
X172080952Y-72589285D01*
X172247619Y-72589285D01*
X172295238Y-72625000D01*
X172319047Y-72660714D01*
X172342857Y-72732142D01*
X172342857Y-72803571D01*
X172319047Y-72875000D01*
X172295238Y-72910714D01*
X172247619Y-72946428D01*
X172080952Y-72946428D01*
X172795238Y-72589285D02*
X172700000Y-72589285D01*
X172652380Y-72625000D01*
X172628571Y-72660714D01*
X172580952Y-72767857D01*
X172557142Y-72910714D01*
X172557142Y-73196428D01*
X172580952Y-73267857D01*
X172604761Y-73303571D01*
X172652380Y-73339285D01*
X172747619Y-73339285D01*
X172795238Y-73303571D01*
X172819047Y-73267857D01*
X172842857Y-73196428D01*
X172842857Y-73017857D01*
X172819047Y-72946428D01*
X172795238Y-72910714D01*
X172747619Y-72875000D01*
X172652380Y-72875000D01*
X172604761Y-72910714D01*
X172580952Y-72946428D01*
X172557142Y-73017857D01*
X172052380Y-55467857D02*
X172028571Y-55503571D01*
X171957142Y-55539285D01*
X171909523Y-55539285D01*
X171838095Y-55503571D01*
X171790476Y-55432142D01*
X171766666Y-55360714D01*
X171742857Y-55217857D01*
X171742857Y-55110714D01*
X171766666Y-54967857D01*
X171790476Y-54896428D01*
X171838095Y-54825000D01*
X171909523Y-54789285D01*
X171957142Y-54789285D01*
X172028571Y-54825000D01*
X172052380Y-54860714D01*
X172361904Y-54789285D02*
X172457142Y-54789285D01*
X172504761Y-54825000D01*
X172552380Y-54896428D01*
X172576190Y-55039285D01*
X172576190Y-55289285D01*
X172552380Y-55432142D01*
X172504761Y-55503571D01*
X172457142Y-55539285D01*
X172361904Y-55539285D01*
X172314285Y-55503571D01*
X172266666Y-55432142D01*
X172242857Y-55289285D01*
X172242857Y-55039285D01*
X172266666Y-54896428D01*
X172314285Y-54825000D01*
X172361904Y-54789285D01*
X173028571Y-55539285D02*
X172790476Y-55539285D01*
X172790476Y-54789285D01*
X173290476Y-54789285D02*
X173338095Y-54789285D01*
X173385714Y-54825000D01*
X173409523Y-54860714D01*
X173433333Y-54932142D01*
X173457142Y-55075000D01*
X173457142Y-55253571D01*
X173433333Y-55396428D01*
X173409523Y-55467857D01*
X173385714Y-55503571D01*
X173338095Y-55539285D01*
X173290476Y-55539285D01*
X173242857Y-55503571D01*
X173219047Y-55467857D01*
X173195238Y-55396428D01*
X173171428Y-55253571D01*
X173171428Y-55075000D01*
X173195238Y-54932142D01*
X173219047Y-54860714D01*
X173242857Y-54825000D01*
X173290476Y-54789285D01*
X187353857Y-55485571D02*
X187425285Y-55521285D01*
X187544333Y-55521285D01*
X187591952Y-55485571D01*
X187615761Y-55449857D01*
X187639571Y-55378428D01*
X187639571Y-55307000D01*
X187615761Y-55235571D01*
X187591952Y-55199857D01*
X187544333Y-55164142D01*
X187449095Y-55128428D01*
X187401476Y-55092714D01*
X187377666Y-55057000D01*
X187353857Y-54985571D01*
X187353857Y-54914142D01*
X187377666Y-54842714D01*
X187401476Y-54807000D01*
X187449095Y-54771285D01*
X187568142Y-54771285D01*
X187639571Y-54807000D01*
X187853857Y-55521285D02*
X187853857Y-54771285D01*
X187972904Y-54771285D01*
X188044333Y-54807000D01*
X188091952Y-54878428D01*
X188115761Y-54949857D01*
X188139571Y-55092714D01*
X188139571Y-55199857D01*
X188115761Y-55342714D01*
X188091952Y-55414142D01*
X188044333Y-55485571D01*
X187972904Y-55521285D01*
X187853857Y-55521285D01*
X188330047Y-55307000D02*
X188568142Y-55307000D01*
X188282428Y-55521285D02*
X188449095Y-54771285D01*
X188615761Y-55521285D01*
X172102380Y-57989857D02*
X172078571Y-58025571D01*
X172007142Y-58061285D01*
X171959523Y-58061285D01*
X171888095Y-58025571D01*
X171840476Y-57954142D01*
X171816666Y-57882714D01*
X171792857Y-57739857D01*
X171792857Y-57632714D01*
X171816666Y-57489857D01*
X171840476Y-57418428D01*
X171888095Y-57347000D01*
X171959523Y-57311285D01*
X172007142Y-57311285D01*
X172078571Y-57347000D01*
X172102380Y-57382714D01*
X172411904Y-57311285D02*
X172507142Y-57311285D01*
X172554761Y-57347000D01*
X172602380Y-57418428D01*
X172626190Y-57561285D01*
X172626190Y-57811285D01*
X172602380Y-57954142D01*
X172554761Y-58025571D01*
X172507142Y-58061285D01*
X172411904Y-58061285D01*
X172364285Y-58025571D01*
X172316666Y-57954142D01*
X172292857Y-57811285D01*
X172292857Y-57561285D01*
X172316666Y-57418428D01*
X172364285Y-57347000D01*
X172411904Y-57311285D01*
X173078571Y-58061285D02*
X172840476Y-58061285D01*
X172840476Y-57311285D01*
X173507142Y-58061285D02*
X173221428Y-58061285D01*
X173364285Y-58061285D02*
X173364285Y-57311285D01*
X173316666Y-57418428D01*
X173269047Y-57489857D01*
X173221428Y-57525571D01*
X187365761Y-58025571D02*
X187437190Y-58061285D01*
X187556238Y-58061285D01*
X187603857Y-58025571D01*
X187627666Y-57989857D01*
X187651476Y-57918428D01*
X187651476Y-57847000D01*
X187627666Y-57775571D01*
X187603857Y-57739857D01*
X187556238Y-57704142D01*
X187461000Y-57668428D01*
X187413380Y-57632714D01*
X187389571Y-57597000D01*
X187365761Y-57525571D01*
X187365761Y-57454142D01*
X187389571Y-57382714D01*
X187413380Y-57347000D01*
X187461000Y-57311285D01*
X187580047Y-57311285D01*
X187651476Y-57347000D01*
X188151476Y-57989857D02*
X188127666Y-58025571D01*
X188056238Y-58061285D01*
X188008619Y-58061285D01*
X187937190Y-58025571D01*
X187889571Y-57954142D01*
X187865761Y-57882714D01*
X187841952Y-57739857D01*
X187841952Y-57632714D01*
X187865761Y-57489857D01*
X187889571Y-57418428D01*
X187937190Y-57347000D01*
X188008619Y-57311285D01*
X188056238Y-57311285D01*
X188127666Y-57347000D01*
X188151476Y-57382714D01*
X188603857Y-58061285D02*
X188365761Y-58061285D01*
X188365761Y-57311285D01*
X172052380Y-60529857D02*
X172028571Y-60565571D01*
X171957142Y-60601285D01*
X171909523Y-60601285D01*
X171838095Y-60565571D01*
X171790476Y-60494142D01*
X171766666Y-60422714D01*
X171742857Y-60279857D01*
X171742857Y-60172714D01*
X171766666Y-60029857D01*
X171790476Y-59958428D01*
X171838095Y-59887000D01*
X171909523Y-59851285D01*
X171957142Y-59851285D01*
X172028571Y-59887000D01*
X172052380Y-59922714D01*
X172361904Y-59851285D02*
X172457142Y-59851285D01*
X172504761Y-59887000D01*
X172552380Y-59958428D01*
X172576190Y-60101285D01*
X172576190Y-60351285D01*
X172552380Y-60494142D01*
X172504761Y-60565571D01*
X172457142Y-60601285D01*
X172361904Y-60601285D01*
X172314285Y-60565571D01*
X172266666Y-60494142D01*
X172242857Y-60351285D01*
X172242857Y-60101285D01*
X172266666Y-59958428D01*
X172314285Y-59887000D01*
X172361904Y-59851285D01*
X173028571Y-60601285D02*
X172790476Y-60601285D01*
X172790476Y-59851285D01*
X173171428Y-59922714D02*
X173195238Y-59887000D01*
X173242857Y-59851285D01*
X173361904Y-59851285D01*
X173409523Y-59887000D01*
X173433333Y-59922714D01*
X173457142Y-59994142D01*
X173457142Y-60065571D01*
X173433333Y-60172714D01*
X173147619Y-60601285D01*
X173457142Y-60601285D01*
X187069047Y-60639285D02*
X186902380Y-60282142D01*
X186783333Y-60639285D02*
X186783333Y-59889285D01*
X186973809Y-59889285D01*
X187021428Y-59925000D01*
X187045238Y-59960714D01*
X187069047Y-60032142D01*
X187069047Y-60139285D01*
X187045238Y-60210714D01*
X187021428Y-60246428D01*
X186973809Y-60282142D01*
X186783333Y-60282142D01*
X187378571Y-59889285D02*
X187473809Y-59889285D01*
X187521428Y-59925000D01*
X187569047Y-59996428D01*
X187592857Y-60139285D01*
X187592857Y-60389285D01*
X187569047Y-60532142D01*
X187521428Y-60603571D01*
X187473809Y-60639285D01*
X187378571Y-60639285D01*
X187330952Y-60603571D01*
X187283333Y-60532142D01*
X187259523Y-60389285D01*
X187259523Y-60139285D01*
X187283333Y-59996428D01*
X187330952Y-59925000D01*
X187378571Y-59889285D01*
X187759523Y-59889285D02*
X187878571Y-60639285D01*
X187973809Y-60103571D01*
X188069047Y-60639285D01*
X188188095Y-59889285D01*
X188473809Y-59889285D02*
X188521428Y-59889285D01*
X188569047Y-59925000D01*
X188592857Y-59960714D01*
X188616666Y-60032142D01*
X188640476Y-60175000D01*
X188640476Y-60353571D01*
X188616666Y-60496428D01*
X188592857Y-60567857D01*
X188569047Y-60603571D01*
X188521428Y-60639285D01*
X188473809Y-60639285D01*
X188426190Y-60603571D01*
X188402380Y-60567857D01*
X188378571Y-60496428D01*
X188354761Y-60353571D01*
X188354761Y-60175000D01*
X188378571Y-60032142D01*
X188402380Y-59960714D01*
X188426190Y-59925000D01*
X188473809Y-59889285D01*
X171952380Y-63117857D02*
X171928571Y-63153571D01*
X171857142Y-63189285D01*
X171809523Y-63189285D01*
X171738095Y-63153571D01*
X171690476Y-63082142D01*
X171666666Y-63010714D01*
X171642857Y-62867857D01*
X171642857Y-62760714D01*
X171666666Y-62617857D01*
X171690476Y-62546428D01*
X171738095Y-62475000D01*
X171809523Y-62439285D01*
X171857142Y-62439285D01*
X171928571Y-62475000D01*
X171952380Y-62510714D01*
X172261904Y-62439285D02*
X172357142Y-62439285D01*
X172404761Y-62475000D01*
X172452380Y-62546428D01*
X172476190Y-62689285D01*
X172476190Y-62939285D01*
X172452380Y-63082142D01*
X172404761Y-63153571D01*
X172357142Y-63189285D01*
X172261904Y-63189285D01*
X172214285Y-63153571D01*
X172166666Y-63082142D01*
X172142857Y-62939285D01*
X172142857Y-62689285D01*
X172166666Y-62546428D01*
X172214285Y-62475000D01*
X172261904Y-62439285D01*
X172928571Y-63189285D02*
X172690476Y-63189285D01*
X172690476Y-62439285D01*
X173047619Y-62439285D02*
X173357142Y-62439285D01*
X173190476Y-62725000D01*
X173261904Y-62725000D01*
X173309523Y-62760714D01*
X173333333Y-62796428D01*
X173357142Y-62867857D01*
X173357142Y-63046428D01*
X173333333Y-63117857D01*
X173309523Y-63153571D01*
X173261904Y-63189285D01*
X173119047Y-63189285D01*
X173071428Y-63153571D01*
X173047619Y-63117857D01*
X187580047Y-52330500D02*
X187532428Y-52294785D01*
X187461000Y-52294785D01*
X187389571Y-52330500D01*
X187341952Y-52401928D01*
X187318142Y-52473357D01*
X187294333Y-52616214D01*
X187294333Y-52723357D01*
X187318142Y-52866214D01*
X187341952Y-52937642D01*
X187389571Y-53009071D01*
X187461000Y-53044785D01*
X187508619Y-53044785D01*
X187580047Y-53009071D01*
X187603857Y-52973357D01*
X187603857Y-52723357D01*
X187508619Y-52723357D01*
X187818142Y-53044785D02*
X187818142Y-52294785D01*
X188103857Y-53044785D01*
X188103857Y-52294785D01*
X188341952Y-53044785D02*
X188341952Y-52294785D01*
X188461000Y-52294785D01*
X188532428Y-52330500D01*
X188580047Y-52401928D01*
X188603857Y-52473357D01*
X188627666Y-52616214D01*
X188627666Y-52723357D01*
X188603857Y-52866214D01*
X188580047Y-52937642D01*
X188532428Y-53009071D01*
X188461000Y-53044785D01*
X188341952Y-53044785D01*
X172117833Y-52231285D02*
X172284500Y-52981285D01*
X172451166Y-52231285D01*
X172903547Y-52909857D02*
X172879738Y-52945571D01*
X172808309Y-52981285D01*
X172760690Y-52981285D01*
X172689261Y-52945571D01*
X172641642Y-52874142D01*
X172617833Y-52802714D01*
X172594023Y-52659857D01*
X172594023Y-52552714D01*
X172617833Y-52409857D01*
X172641642Y-52338428D01*
X172689261Y-52267000D01*
X172760690Y-52231285D01*
X172808309Y-52231285D01*
X172879738Y-52267000D01*
X172903547Y-52302714D01*
X173403547Y-52909857D02*
X173379738Y-52945571D01*
X173308309Y-52981285D01*
X173260690Y-52981285D01*
X173189261Y-52945571D01*
X173141642Y-52874142D01*
X173117833Y-52802714D01*
X173094023Y-52659857D01*
X173094023Y-52552714D01*
X173117833Y-52409857D01*
X173141642Y-52338428D01*
X173189261Y-52267000D01*
X173260690Y-52231285D01*
X173308309Y-52231285D01*
X173379738Y-52267000D01*
X173403547Y-52302714D01*
X187643547Y-49790500D02*
X187595928Y-49754785D01*
X187524500Y-49754785D01*
X187453071Y-49790500D01*
X187405452Y-49861928D01*
X187381642Y-49933357D01*
X187357833Y-50076214D01*
X187357833Y-50183357D01*
X187381642Y-50326214D01*
X187405452Y-50397642D01*
X187453071Y-50469071D01*
X187524500Y-50504785D01*
X187572119Y-50504785D01*
X187643547Y-50469071D01*
X187667357Y-50433357D01*
X187667357Y-50183357D01*
X187572119Y-50183357D01*
X187881642Y-50504785D02*
X187881642Y-49754785D01*
X188167357Y-50504785D01*
X188167357Y-49754785D01*
X188405452Y-50504785D02*
X188405452Y-49754785D01*
X188524500Y-49754785D01*
X188595928Y-49790500D01*
X188643547Y-49861928D01*
X188667357Y-49933357D01*
X188691166Y-50076214D01*
X188691166Y-50183357D01*
X188667357Y-50326214D01*
X188643547Y-50397642D01*
X188595928Y-50469071D01*
X188524500Y-50504785D01*
X188405452Y-50504785D01*
X172510690Y-50504785D02*
X172344023Y-50147642D01*
X172224976Y-50504785D02*
X172224976Y-49754785D01*
X172415452Y-49754785D01*
X172463071Y-49790500D01*
X172486880Y-49826214D01*
X172510690Y-49897642D01*
X172510690Y-50004785D01*
X172486880Y-50076214D01*
X172463071Y-50111928D01*
X172415452Y-50147642D01*
X172224976Y-50147642D01*
X172701166Y-50469071D02*
X172772595Y-50504785D01*
X172891642Y-50504785D01*
X172939261Y-50469071D01*
X172963071Y-50433357D01*
X172986880Y-50361928D01*
X172986880Y-50290500D01*
X172963071Y-50219071D01*
X172939261Y-50183357D01*
X172891642Y-50147642D01*
X172796404Y-50111928D01*
X172748785Y-50076214D01*
X172724976Y-50040500D01*
X172701166Y-49969071D01*
X172701166Y-49897642D01*
X172724976Y-49826214D01*
X172748785Y-49790500D01*
X172796404Y-49754785D01*
X172915452Y-49754785D01*
X172986880Y-49790500D01*
X173129738Y-49754785D02*
X173415452Y-49754785D01*
X173272595Y-50504785D02*
X173272595Y-49754785D01*
X187100000Y-47889285D02*
X187100000Y-47139285D01*
X187219047Y-47139285D01*
X187290476Y-47175000D01*
X187338095Y-47246428D01*
X187361904Y-47317857D01*
X187385714Y-47460714D01*
X187385714Y-47567857D01*
X187361904Y-47710714D01*
X187338095Y-47782142D01*
X187290476Y-47853571D01*
X187219047Y-47889285D01*
X187100000Y-47889285D01*
X187576190Y-47675000D02*
X187814285Y-47675000D01*
X187528571Y-47889285D02*
X187695238Y-47139285D01*
X187861904Y-47889285D01*
X187957142Y-47139285D02*
X188242857Y-47139285D01*
X188100000Y-47889285D02*
X188100000Y-47139285D01*
X188385714Y-47675000D02*
X188623809Y-47675000D01*
X188338095Y-47889285D02*
X188504761Y-47139285D01*
X188671428Y-47889285D01*
X172403547Y-47187000D02*
X172355928Y-47151285D01*
X172284500Y-47151285D01*
X172213071Y-47187000D01*
X172165452Y-47258428D01*
X172141642Y-47329857D01*
X172117833Y-47472714D01*
X172117833Y-47579857D01*
X172141642Y-47722714D01*
X172165452Y-47794142D01*
X172213071Y-47865571D01*
X172284500Y-47901285D01*
X172332119Y-47901285D01*
X172403547Y-47865571D01*
X172427357Y-47829857D01*
X172427357Y-47579857D01*
X172332119Y-47579857D01*
X172641642Y-47901285D02*
X172641642Y-47151285D01*
X172927357Y-47901285D01*
X172927357Y-47151285D01*
X173165452Y-47901285D02*
X173165452Y-47151285D01*
X173284500Y-47151285D01*
X173355928Y-47187000D01*
X173403547Y-47258428D01*
X173427357Y-47329857D01*
X173451166Y-47472714D01*
X173451166Y-47579857D01*
X173427357Y-47722714D01*
X173403547Y-47794142D01*
X173355928Y-47865571D01*
X173284500Y-47901285D01*
X173165452Y-47901285D01*
X187678571Y-45361285D02*
X187440476Y-45361285D01*
X187440476Y-44611285D01*
X187845238Y-44968428D02*
X188011904Y-44968428D01*
X188083333Y-45361285D02*
X187845238Y-45361285D01*
X187845238Y-44611285D01*
X188083333Y-44611285D01*
X188297619Y-45361285D02*
X188297619Y-44611285D01*
X188416666Y-44611285D01*
X188488095Y-44647000D01*
X188535714Y-44718428D01*
X188559523Y-44789857D01*
X188583333Y-44932714D01*
X188583333Y-45039857D01*
X188559523Y-45182714D01*
X188535714Y-45254142D01*
X188488095Y-45325571D01*
X188416666Y-45361285D01*
X188297619Y-45361285D01*
X172439261Y-45361285D02*
X172272595Y-45004142D01*
X172153547Y-45361285D02*
X172153547Y-44611285D01*
X172344023Y-44611285D01*
X172391642Y-44647000D01*
X172415452Y-44682714D01*
X172439261Y-44754142D01*
X172439261Y-44861285D01*
X172415452Y-44932714D01*
X172391642Y-44968428D01*
X172344023Y-45004142D01*
X172153547Y-45004142D01*
X172629738Y-45147000D02*
X172867833Y-45147000D01*
X172582119Y-45361285D02*
X172748785Y-44611285D01*
X172915452Y-45361285D01*
X173034500Y-44611285D02*
X173153547Y-45361285D01*
X173248785Y-44825571D01*
X173344023Y-45361285D01*
X173463071Y-44611285D01*
D10*
%TO.C,J1*%
X184902380Y-111011904D02*
X184902380Y-110440476D01*
X185902380Y-110726190D02*
X184902380Y-110726190D01*
X185902380Y-109535714D02*
X185426190Y-109869047D01*
X185902380Y-110107142D02*
X184902380Y-110107142D01*
X184902380Y-109726190D01*
X184950000Y-109630952D01*
X184997619Y-109583333D01*
X185092857Y-109535714D01*
X185235714Y-109535714D01*
X185330952Y-109583333D01*
X185378571Y-109630952D01*
X185426190Y-109726190D01*
X185426190Y-110107142D01*
X185902380Y-108535714D02*
X185426190Y-108869047D01*
X185902380Y-109107142D02*
X184902380Y-109107142D01*
X184902380Y-108726190D01*
X184950000Y-108630952D01*
X184997619Y-108583333D01*
X185092857Y-108535714D01*
X185235714Y-108535714D01*
X185330952Y-108583333D01*
X185378571Y-108630952D01*
X185426190Y-108726190D01*
X185426190Y-109107142D01*
X185854761Y-108154761D02*
X185902380Y-108011904D01*
X185902380Y-107773809D01*
X185854761Y-107678571D01*
X185807142Y-107630952D01*
X185711904Y-107583333D01*
X185616666Y-107583333D01*
X185521428Y-107630952D01*
X185473809Y-107678571D01*
X185426190Y-107773809D01*
X185378571Y-107964285D01*
X185330952Y-108059523D01*
X185283333Y-108107142D01*
X185188095Y-108154761D01*
X185092857Y-108154761D01*
X184997619Y-108107142D01*
X184950000Y-108059523D01*
X184902380Y-107964285D01*
X184902380Y-107726190D01*
X184950000Y-107583333D01*
%TD*%
M02*
