%TF.GenerationSoftware,KiCad,Pcbnew,(5.1.6-0-10_14)*%
%TF.CreationDate,2020-07-09T23:16:05+02:00*%
%TF.ProjectId,splitkb,73706c69-746b-4622-9e6b-696361645f70,rev?*%
%TF.SameCoordinates,Original*%
%TF.FileFunction,Legend,Bot*%
%TF.FilePolarity,Positive*%
%FSLAX46Y46*%
G04 Gerber Fmt 4.6, Leading zero omitted, Abs format (unit mm)*
G04 Created by KiCad (PCBNEW (5.1.6-0-10_14)) date 2020-07-09 23:16:05*
%MOMM*%
%LPD*%
G01*
G04 APERTURE LIST*
%ADD10C,0.150000*%
%ADD11C,0.300000*%
%ADD12C,0.800000*%
%ADD13C,3.000000*%
%ADD14C,0.500000*%
%ADD15C,1.000000*%
%ADD16C,3.500000*%
%ADD17C,0.400000*%
%ADD18C,0.125000*%
G04 APERTURE END LIST*
D10*
%TO.C,SW27*%
X163775462Y-148955191D02*
X163425462Y-149561408D01*
X162499665Y-141174936D02*
X160178015Y-145146152D01*
X169691858Y-147867691D02*
X167391858Y-151851408D01*
X163456411Y-147067803D02*
X160187165Y-145180303D01*
X166582485Y-143503285D02*
X162512165Y-141153285D01*
X169682708Y-147833541D02*
X167474343Y-146558541D01*
X167357708Y-151860559D02*
X163417292Y-149585559D01*
X175081922Y-143531828D02*
X170685494Y-141046665D01*
X175104922Y-143491990D02*
X177058922Y-140107563D01*
X177058922Y-140107563D02*
X169589453Y-135795063D01*
X166642245Y-136349777D02*
X164669745Y-139766247D01*
X164665245Y-139774041D02*
X167791597Y-141579041D01*
X163800463Y-148911889D02*
G75*
G03*
X163453911Y-147072133I-1093154J746602D01*
G01*
X166574314Y-143527436D02*
G75*
G03*
X167541795Y-146591711I2015878J-1048397D01*
G01*
X167807927Y-141560756D02*
G75*
G02*
X170705144Y-141062629I1697672J-1199545D01*
G01*
X166686771Y-136294655D02*
G75*
G02*
X169589453Y-135795063I1701137J-1201545D01*
G01*
%TO.C,SW22*%
X146092350Y-141167889D02*
X145852936Y-141825674D01*
X143484908Y-133727373D02*
X141888123Y-138041409D01*
X151730021Y-139069540D02*
X150156728Y-143392126D01*
X145450404Y-139364578D02*
X141903065Y-138073451D01*
X147910014Y-135311375D02*
X143493458Y-133703881D01*
X151715079Y-139037497D02*
X149318863Y-138165346D01*
X150124685Y-143407068D02*
X145849084Y-141850876D01*
X156285282Y-133863573D02*
X151524101Y-132179597D01*
X156301015Y-133820347D02*
X157637630Y-130148028D01*
X157637630Y-130148028D02*
X149532781Y-127198104D01*
X146726673Y-128256168D02*
X145377403Y-131963255D01*
X145374325Y-131971713D02*
X148766615Y-133206405D01*
X146109451Y-141120903D02*
G75*
G03*
X145448694Y-139369276I-1206192J545435D01*
G01*
X147906161Y-135336578D02*
G75*
G03*
X149391050Y-138186299I2167305J-682416D01*
G01*
X148779522Y-133185562D02*
G75*
G02*
X151546226Y-132191906I1880180J-886524D01*
G01*
X146760950Y-128194151D02*
G75*
G02*
X149532781Y-127198104I1883939J-887892D01*
G01*
%TO.C,SW17*%
X127262277Y-136490140D02*
X127140723Y-137179506D01*
X123402416Y-129615440D02*
X122579014Y-134141215D01*
X132449924Y-133444699D02*
X131651143Y-137974814D01*
X126316943Y-134825698D02*
X122599293Y-134170176D01*
X128035354Y-130406967D02*
X123406757Y-129590820D01*
X132429645Y-133415737D02*
X129918386Y-132972934D01*
X131622181Y-137995093D02*
X127141306Y-137204994D01*
X136031975Y-127526809D02*
X131050708Y-126695187D01*
X136039962Y-127481508D02*
X136718579Y-123632879D01*
X136718579Y-123632879D02*
X128224613Y-122135164D01*
X125644866Y-123664429D02*
X124959824Y-127549495D01*
X124958261Y-127558358D02*
X128513417Y-128185228D01*
X127270960Y-136440900D02*
G75*
G03*
X126316074Y-134830622I-1282582J327696D01*
G01*
X128035937Y-130432455D02*
G75*
G03*
X129993114Y-132981034I2252878J-295701D01*
G01*
X128522509Y-128162461D02*
G75*
G02*
X131074633Y-126703467I2005559J-546565D01*
G01*
X125667855Y-123597402D02*
G75*
G02*
X128224613Y-122135164I2009498J-547260D01*
G01*
D11*
%TO.C,SW9*%
X80300000Y-43149999D02*
X80300000Y-42250000D01*
D12*
X80800000Y-45350000D02*
X80800000Y-43550001D01*
D13*
X81930000Y-41850000D02*
X81930000Y-44090000D01*
D14*
X90400000Y-43650000D02*
X89000000Y-43650000D01*
D15*
X90000000Y-40950000D02*
X90000000Y-43450000D01*
D16*
X88700000Y-42150000D02*
X82000000Y-42150000D01*
D10*
X90700000Y-43950000D02*
X90700000Y-42950000D01*
X90700000Y-42950000D02*
X90500000Y-42950000D01*
X90480000Y-42950000D02*
X90480000Y-40700000D01*
X90500000Y-40700000D02*
X90700000Y-40700000D01*
X80200000Y-43250000D02*
X80400000Y-43250000D01*
X80430000Y-43250000D02*
X80430000Y-45490000D01*
X80400000Y-45490000D02*
X80200000Y-45490000D01*
X80200000Y-45850000D02*
X80200000Y-45490000D01*
X80200000Y-42250000D02*
X80200000Y-43250000D01*
X80200000Y-45850000D02*
X83480000Y-45850000D01*
X85700000Y-43950000D02*
X90700000Y-43950000D01*
X90700000Y-40350000D02*
X82299999Y-40350000D01*
X90700000Y-40700000D02*
X90700000Y-40350000D01*
D14*
X80400000Y-45650000D02*
X83100000Y-45650000D01*
D17*
X90500000Y-40550000D02*
X89100000Y-40550000D01*
X90500000Y-43050000D02*
X90500000Y-43750000D01*
D10*
X83483682Y-45828529D02*
G75*
G02*
X85700000Y-43950000I2151318J-291471D01*
G01*
X80200000Y-42250001D02*
G75*
G02*
X82299999Y-40350000I2000000J-99999D01*
G01*
D15*
X83083682Y-45428529D02*
G75*
G02*
X85300000Y-43550000I2151318J-291471D01*
G01*
D17*
%TO.C,SW30*%
X166700000Y-87150000D02*
X166700000Y-87850000D01*
X166700000Y-84650000D02*
X165300000Y-84650000D01*
D14*
X156600000Y-89750000D02*
X159300000Y-89750000D01*
D10*
X166900000Y-84800000D02*
X166900000Y-84450000D01*
X166900000Y-84450000D02*
X158499999Y-84450000D01*
X161900000Y-88050000D02*
X166900000Y-88050000D01*
X156400000Y-89950000D02*
X159680000Y-89950000D01*
X156400000Y-86350000D02*
X156400000Y-87350000D01*
X156400000Y-89950000D02*
X156400000Y-89590000D01*
X156600000Y-89590000D02*
X156400000Y-89590000D01*
X156630000Y-87350000D02*
X156630000Y-89590000D01*
X156400000Y-87350000D02*
X156600000Y-87350000D01*
X166700000Y-84800000D02*
X166900000Y-84800000D01*
X166680000Y-87050000D02*
X166680000Y-84800000D01*
X166900000Y-87050000D02*
X166700000Y-87050000D01*
X166900000Y-88050000D02*
X166900000Y-87050000D01*
D16*
X164900000Y-86250000D02*
X158200000Y-86250000D01*
D15*
X166200000Y-85050000D02*
X166200000Y-87550000D01*
D14*
X166600000Y-87750000D02*
X165200000Y-87750000D01*
D13*
X158130000Y-85950000D02*
X158130000Y-88190000D01*
D12*
X157000000Y-89450000D02*
X157000000Y-87650001D01*
D11*
X156500000Y-87249999D02*
X156500000Y-86350000D01*
D15*
X159283682Y-89528529D02*
G75*
G02*
X161500000Y-87650000I2151318J-291471D01*
G01*
D10*
X156400000Y-86350001D02*
G75*
G02*
X158499999Y-84450000I2000000J-99999D01*
G01*
X159683682Y-89928529D02*
G75*
G02*
X161900000Y-88050000I2151318J-291471D01*
G01*
D11*
%TO.C,SW2*%
X42200000Y-65199999D02*
X42200000Y-64300000D01*
D12*
X42700000Y-67400000D02*
X42700000Y-65600001D01*
D13*
X43830000Y-63900000D02*
X43830000Y-66140000D01*
D14*
X52300000Y-65700000D02*
X50900000Y-65700000D01*
D15*
X51900000Y-63000000D02*
X51900000Y-65500000D01*
D16*
X50600000Y-64200000D02*
X43900000Y-64200000D01*
D10*
X52600000Y-66000000D02*
X52600000Y-65000000D01*
X52600000Y-65000000D02*
X52400000Y-65000000D01*
X52380000Y-65000000D02*
X52380000Y-62750000D01*
X52400000Y-62750000D02*
X52600000Y-62750000D01*
X42100000Y-65300000D02*
X42300000Y-65300000D01*
X42330000Y-65300000D02*
X42330000Y-67540000D01*
X42300000Y-67540000D02*
X42100000Y-67540000D01*
X42100000Y-67900000D02*
X42100000Y-67540000D01*
X42100000Y-64300000D02*
X42100000Y-65300000D01*
X42100000Y-67900000D02*
X45380000Y-67900000D01*
X47600000Y-66000000D02*
X52600000Y-66000000D01*
X52600000Y-62400000D02*
X44199999Y-62400000D01*
X52600000Y-62750000D02*
X52600000Y-62400000D01*
D14*
X42300000Y-67700000D02*
X45000000Y-67700000D01*
D17*
X52400000Y-62600000D02*
X51000000Y-62600000D01*
X52400000Y-65100000D02*
X52400000Y-65800000D01*
D10*
X45383682Y-67878529D02*
G75*
G02*
X47600000Y-66000000I2151318J-291471D01*
G01*
X42100000Y-64300001D02*
G75*
G02*
X44199999Y-62400000I2000000J-99999D01*
G01*
D15*
X44983682Y-67478529D02*
G75*
G02*
X47200000Y-65600000I2151318J-291471D01*
G01*
D10*
%TO.C,D1*%
X43000000Y-128525000D02*
X42500000Y-127625000D01*
X42500000Y-127625000D02*
X43500000Y-127625000D01*
X43500000Y-127625000D02*
X43000000Y-128525000D01*
X42500000Y-128625000D02*
X43500000Y-128625000D01*
X42250000Y-125425000D02*
X42250000Y-130825000D01*
X42250000Y-130825000D02*
X43750000Y-130825000D01*
X43750000Y-130825000D02*
X43750000Y-125425000D01*
X43750000Y-125425000D02*
X42250000Y-125425000D01*
%TO.C,D2*%
X45750000Y-125425000D02*
X44250000Y-125425000D01*
X45750000Y-130825000D02*
X45750000Y-125425000D01*
X44250000Y-130825000D02*
X45750000Y-130825000D01*
X44250000Y-125425000D02*
X44250000Y-130825000D01*
X44500000Y-128625000D02*
X45500000Y-128625000D01*
X45500000Y-127625000D02*
X45000000Y-128525000D01*
X44500000Y-127625000D02*
X45500000Y-127625000D01*
X45000000Y-128525000D02*
X44500000Y-127625000D01*
%TO.C,D3*%
X47000000Y-128525000D02*
X46500000Y-127625000D01*
X46500000Y-127625000D02*
X47500000Y-127625000D01*
X47500000Y-127625000D02*
X47000000Y-128525000D01*
X46500000Y-128625000D02*
X47500000Y-128625000D01*
X46250000Y-125425000D02*
X46250000Y-130825000D01*
X46250000Y-130825000D02*
X47750000Y-130825000D01*
X47750000Y-130825000D02*
X47750000Y-125425000D01*
X47750000Y-125425000D02*
X46250000Y-125425000D01*
%TO.C,D4*%
X49000000Y-128525000D02*
X48500000Y-127625000D01*
X48500000Y-127625000D02*
X49500000Y-127625000D01*
X49500000Y-127625000D02*
X49000000Y-128525000D01*
X48500000Y-128625000D02*
X49500000Y-128625000D01*
X48250000Y-125425000D02*
X48250000Y-130825000D01*
X48250000Y-130825000D02*
X49750000Y-130825000D01*
X49750000Y-130825000D02*
X49750000Y-125425000D01*
X49750000Y-125425000D02*
X48250000Y-125425000D01*
%TO.C,D5*%
X51750000Y-125425000D02*
X50250000Y-125425000D01*
X51750000Y-130825000D02*
X51750000Y-125425000D01*
X50250000Y-130825000D02*
X51750000Y-130825000D01*
X50250000Y-125425000D02*
X50250000Y-130825000D01*
X50500000Y-128625000D02*
X51500000Y-128625000D01*
X51500000Y-127625000D02*
X51000000Y-128525000D01*
X50500000Y-127625000D02*
X51500000Y-127625000D01*
X51000000Y-128525000D02*
X50500000Y-127625000D01*
%TO.C,D6*%
X53000000Y-128525000D02*
X52500000Y-127625000D01*
X52500000Y-127625000D02*
X53500000Y-127625000D01*
X53500000Y-127625000D02*
X53000000Y-128525000D01*
X52500000Y-128625000D02*
X53500000Y-128625000D01*
X52250000Y-125425000D02*
X52250000Y-130825000D01*
X52250000Y-130825000D02*
X53750000Y-130825000D01*
X53750000Y-130825000D02*
X53750000Y-125425000D01*
X53750000Y-125425000D02*
X52250000Y-125425000D01*
%TO.C,D7*%
X55000000Y-128525000D02*
X54500000Y-127625000D01*
X54500000Y-127625000D02*
X55500000Y-127625000D01*
X55500000Y-127625000D02*
X55000000Y-128525000D01*
X54500000Y-128625000D02*
X55500000Y-128625000D01*
X54250000Y-125425000D02*
X54250000Y-130825000D01*
X54250000Y-130825000D02*
X55750000Y-130825000D01*
X55750000Y-130825000D02*
X55750000Y-125425000D01*
X55750000Y-125425000D02*
X54250000Y-125425000D01*
%TO.C,D8*%
X57750000Y-125425000D02*
X56250000Y-125425000D01*
X57750000Y-130825000D02*
X57750000Y-125425000D01*
X56250000Y-130825000D02*
X57750000Y-130825000D01*
X56250000Y-125425000D02*
X56250000Y-130825000D01*
X56500000Y-128625000D02*
X57500000Y-128625000D01*
X57500000Y-127625000D02*
X57000000Y-128525000D01*
X56500000Y-127625000D02*
X57500000Y-127625000D01*
X57000000Y-128525000D02*
X56500000Y-127625000D01*
%TO.C,D9*%
X59750000Y-125425000D02*
X58250000Y-125425000D01*
X59750000Y-130825000D02*
X59750000Y-125425000D01*
X58250000Y-130825000D02*
X59750000Y-130825000D01*
X58250000Y-125425000D02*
X58250000Y-130825000D01*
X58500000Y-128625000D02*
X59500000Y-128625000D01*
X59500000Y-127625000D02*
X59000000Y-128525000D01*
X58500000Y-127625000D02*
X59500000Y-127625000D01*
X59000000Y-128525000D02*
X58500000Y-127625000D01*
%TO.C,D10*%
X61000000Y-128525000D02*
X60500000Y-127625000D01*
X60500000Y-127625000D02*
X61500000Y-127625000D01*
X61500000Y-127625000D02*
X61000000Y-128525000D01*
X60500000Y-128625000D02*
X61500000Y-128625000D01*
X60250000Y-125425000D02*
X60250000Y-130825000D01*
X60250000Y-130825000D02*
X61750000Y-130825000D01*
X61750000Y-130825000D02*
X61750000Y-125425000D01*
X61750000Y-125425000D02*
X60250000Y-125425000D01*
%TO.C,D11*%
X63750000Y-125425000D02*
X62250000Y-125425000D01*
X63750000Y-130825000D02*
X63750000Y-125425000D01*
X62250000Y-130825000D02*
X63750000Y-130825000D01*
X62250000Y-125425000D02*
X62250000Y-130825000D01*
X62500000Y-128625000D02*
X63500000Y-128625000D01*
X63500000Y-127625000D02*
X63000000Y-128525000D01*
X62500000Y-127625000D02*
X63500000Y-127625000D01*
X63000000Y-128525000D02*
X62500000Y-127625000D01*
%TO.C,D12*%
X65000000Y-128525000D02*
X64500000Y-127625000D01*
X64500000Y-127625000D02*
X65500000Y-127625000D01*
X65500000Y-127625000D02*
X65000000Y-128525000D01*
X64500000Y-128625000D02*
X65500000Y-128625000D01*
X64250000Y-125425000D02*
X64250000Y-130825000D01*
X64250000Y-130825000D02*
X65750000Y-130825000D01*
X65750000Y-130825000D02*
X65750000Y-125425000D01*
X65750000Y-125425000D02*
X64250000Y-125425000D01*
%TO.C,D13*%
X67750000Y-125425000D02*
X66250000Y-125425000D01*
X67750000Y-130825000D02*
X67750000Y-125425000D01*
X66250000Y-130825000D02*
X67750000Y-130825000D01*
X66250000Y-125425000D02*
X66250000Y-130825000D01*
X66500000Y-128625000D02*
X67500000Y-128625000D01*
X67500000Y-127625000D02*
X67000000Y-128525000D01*
X66500000Y-127625000D02*
X67500000Y-127625000D01*
X67000000Y-128525000D02*
X66500000Y-127625000D01*
%TO.C,D14*%
X69000000Y-128525000D02*
X68500000Y-127625000D01*
X68500000Y-127625000D02*
X69500000Y-127625000D01*
X69500000Y-127625000D02*
X69000000Y-128525000D01*
X68500000Y-128625000D02*
X69500000Y-128625000D01*
X68250000Y-125425000D02*
X68250000Y-130825000D01*
X68250000Y-130825000D02*
X69750000Y-130825000D01*
X69750000Y-130825000D02*
X69750000Y-125425000D01*
X69750000Y-125425000D02*
X68250000Y-125425000D01*
%TO.C,D15*%
X71000000Y-128525000D02*
X70500000Y-127625000D01*
X70500000Y-127625000D02*
X71500000Y-127625000D01*
X71500000Y-127625000D02*
X71000000Y-128525000D01*
X70500000Y-128625000D02*
X71500000Y-128625000D01*
X70250000Y-125425000D02*
X70250000Y-130825000D01*
X70250000Y-130825000D02*
X71750000Y-130825000D01*
X71750000Y-130825000D02*
X71750000Y-125425000D01*
X71750000Y-125425000D02*
X70250000Y-125425000D01*
%TO.C,D16*%
X73750000Y-125425000D02*
X72250000Y-125425000D01*
X73750000Y-130825000D02*
X73750000Y-125425000D01*
X72250000Y-130825000D02*
X73750000Y-130825000D01*
X72250000Y-125425000D02*
X72250000Y-130825000D01*
X72500000Y-128625000D02*
X73500000Y-128625000D01*
X73500000Y-127625000D02*
X73000000Y-128525000D01*
X72500000Y-127625000D02*
X73500000Y-127625000D01*
X73000000Y-128525000D02*
X72500000Y-127625000D01*
%TO.C,D17*%
X185200000Y-99250000D02*
X185200000Y-97750000D01*
X179800000Y-99250000D02*
X185200000Y-99250000D01*
X179800000Y-97750000D02*
X179800000Y-99250000D01*
X185200000Y-97750000D02*
X179800000Y-97750000D01*
X182000000Y-98000000D02*
X182000000Y-99000000D01*
X183000000Y-99000000D02*
X182100000Y-98500000D01*
X183000000Y-98000000D02*
X183000000Y-99000000D01*
X182100000Y-98500000D02*
X183000000Y-98000000D01*
%TO.C,D18*%
X75750000Y-125425000D02*
X74250000Y-125425000D01*
X75750000Y-130825000D02*
X75750000Y-125425000D01*
X74250000Y-130825000D02*
X75750000Y-130825000D01*
X74250000Y-125425000D02*
X74250000Y-130825000D01*
X74500000Y-128625000D02*
X75500000Y-128625000D01*
X75500000Y-127625000D02*
X75000000Y-128525000D01*
X74500000Y-127625000D02*
X75500000Y-127625000D01*
X75000000Y-128525000D02*
X74500000Y-127625000D01*
%TO.C,D19*%
X77000000Y-128525000D02*
X76500000Y-127625000D01*
X76500000Y-127625000D02*
X77500000Y-127625000D01*
X77500000Y-127625000D02*
X77000000Y-128525000D01*
X76500000Y-128625000D02*
X77500000Y-128625000D01*
X76250000Y-125425000D02*
X76250000Y-130825000D01*
X76250000Y-130825000D02*
X77750000Y-130825000D01*
X77750000Y-130825000D02*
X77750000Y-125425000D01*
X77750000Y-125425000D02*
X76250000Y-125425000D01*
%TO.C,D20*%
X79750000Y-125425000D02*
X78250000Y-125425000D01*
X79750000Y-130825000D02*
X79750000Y-125425000D01*
X78250000Y-130825000D02*
X79750000Y-130825000D01*
X78250000Y-125425000D02*
X78250000Y-130825000D01*
X78500000Y-128625000D02*
X79500000Y-128625000D01*
X79500000Y-127625000D02*
X79000000Y-128525000D01*
X78500000Y-127625000D02*
X79500000Y-127625000D01*
X79000000Y-128525000D02*
X78500000Y-127625000D01*
%TO.C,D21*%
X81000000Y-128525000D02*
X80500000Y-127625000D01*
X80500000Y-127625000D02*
X81500000Y-127625000D01*
X81500000Y-127625000D02*
X81000000Y-128525000D01*
X80500000Y-128625000D02*
X81500000Y-128625000D01*
X80250000Y-125425000D02*
X80250000Y-130825000D01*
X80250000Y-130825000D02*
X81750000Y-130825000D01*
X81750000Y-130825000D02*
X81750000Y-125425000D01*
X81750000Y-125425000D02*
X80250000Y-125425000D01*
%TO.C,D22*%
X185200000Y-96750000D02*
X185200000Y-95250000D01*
X179800000Y-96750000D02*
X185200000Y-96750000D01*
X179800000Y-95250000D02*
X179800000Y-96750000D01*
X185200000Y-95250000D02*
X179800000Y-95250000D01*
X182000000Y-95500000D02*
X182000000Y-96500000D01*
X183000000Y-96500000D02*
X182100000Y-96000000D01*
X183000000Y-95500000D02*
X183000000Y-96500000D01*
X182100000Y-96000000D02*
X183000000Y-95500000D01*
%TO.C,D23*%
X83000000Y-128525000D02*
X82500000Y-127625000D01*
X82500000Y-127625000D02*
X83500000Y-127625000D01*
X83500000Y-127625000D02*
X83000000Y-128525000D01*
X82500000Y-128625000D02*
X83500000Y-128625000D01*
X82250000Y-125425000D02*
X82250000Y-130825000D01*
X82250000Y-130825000D02*
X83750000Y-130825000D01*
X83750000Y-130825000D02*
X83750000Y-125425000D01*
X83750000Y-125425000D02*
X82250000Y-125425000D01*
%TO.C,D24*%
X85750000Y-125425000D02*
X84250000Y-125425000D01*
X85750000Y-130825000D02*
X85750000Y-125425000D01*
X84250000Y-130825000D02*
X85750000Y-130825000D01*
X84250000Y-125425000D02*
X84250000Y-130825000D01*
X84500000Y-128625000D02*
X85500000Y-128625000D01*
X85500000Y-127625000D02*
X85000000Y-128525000D01*
X84500000Y-127625000D02*
X85500000Y-127625000D01*
X85000000Y-128525000D02*
X84500000Y-127625000D01*
%TO.C,D25*%
X87000000Y-128525000D02*
X86500000Y-127625000D01*
X86500000Y-127625000D02*
X87500000Y-127625000D01*
X87500000Y-127625000D02*
X87000000Y-128525000D01*
X86500000Y-128625000D02*
X87500000Y-128625000D01*
X86250000Y-125425000D02*
X86250000Y-130825000D01*
X86250000Y-130825000D02*
X87750000Y-130825000D01*
X87750000Y-130825000D02*
X87750000Y-125425000D01*
X87750000Y-125425000D02*
X86250000Y-125425000D01*
%TO.C,D26*%
X89750000Y-125425000D02*
X88250000Y-125425000D01*
X89750000Y-130825000D02*
X89750000Y-125425000D01*
X88250000Y-130825000D02*
X89750000Y-130825000D01*
X88250000Y-125425000D02*
X88250000Y-130825000D01*
X88500000Y-128625000D02*
X89500000Y-128625000D01*
X89500000Y-127625000D02*
X89000000Y-128525000D01*
X88500000Y-127625000D02*
X89500000Y-127625000D01*
X89000000Y-128525000D02*
X88500000Y-127625000D01*
%TO.C,D27*%
X182100000Y-93500000D02*
X183000000Y-93000000D01*
X183000000Y-93000000D02*
X183000000Y-94000000D01*
X183000000Y-94000000D02*
X182100000Y-93500000D01*
X182000000Y-93000000D02*
X182000000Y-94000000D01*
X185200000Y-92750000D02*
X179800000Y-92750000D01*
X179800000Y-92750000D02*
X179800000Y-94250000D01*
X179800000Y-94250000D02*
X185200000Y-94250000D01*
X185200000Y-94250000D02*
X185200000Y-92750000D01*
%TO.C,D28*%
X91000000Y-128525000D02*
X90500000Y-127625000D01*
X90500000Y-127625000D02*
X91500000Y-127625000D01*
X91500000Y-127625000D02*
X91000000Y-128525000D01*
X90500000Y-128625000D02*
X91500000Y-128625000D01*
X90250000Y-125425000D02*
X90250000Y-130825000D01*
X90250000Y-130825000D02*
X91750000Y-130825000D01*
X91750000Y-130825000D02*
X91750000Y-125425000D01*
X91750000Y-125425000D02*
X90250000Y-125425000D01*
%TO.C,D29*%
X93750000Y-125425000D02*
X92250000Y-125425000D01*
X93750000Y-130825000D02*
X93750000Y-125425000D01*
X92250000Y-130825000D02*
X93750000Y-130825000D01*
X92250000Y-125425000D02*
X92250000Y-130825000D01*
X92500000Y-128625000D02*
X93500000Y-128625000D01*
X93500000Y-127625000D02*
X93000000Y-128525000D01*
X92500000Y-127625000D02*
X93500000Y-127625000D01*
X93000000Y-128525000D02*
X92500000Y-127625000D01*
%TO.C,D30*%
X95750000Y-125425000D02*
X94250000Y-125425000D01*
X95750000Y-130825000D02*
X95750000Y-125425000D01*
X94250000Y-130825000D02*
X95750000Y-130825000D01*
X94250000Y-125425000D02*
X94250000Y-130825000D01*
X94500000Y-128625000D02*
X95500000Y-128625000D01*
X95500000Y-127625000D02*
X95000000Y-128525000D01*
X94500000Y-127625000D02*
X95500000Y-127625000D01*
X95000000Y-128525000D02*
X94500000Y-127625000D01*
%TO.C,D31*%
X97000000Y-128525000D02*
X96500000Y-127625000D01*
X96500000Y-127625000D02*
X97500000Y-127625000D01*
X97500000Y-127625000D02*
X97000000Y-128525000D01*
X96500000Y-128625000D02*
X97500000Y-128625000D01*
X96250000Y-125425000D02*
X96250000Y-130825000D01*
X96250000Y-130825000D02*
X97750000Y-130825000D01*
X97750000Y-130825000D02*
X97750000Y-125425000D01*
X97750000Y-125425000D02*
X96250000Y-125425000D01*
%TO.C,D32*%
X185200000Y-91750000D02*
X185200000Y-90250000D01*
X179800000Y-91750000D02*
X185200000Y-91750000D01*
X179800000Y-90250000D02*
X179800000Y-91750000D01*
X185200000Y-90250000D02*
X179800000Y-90250000D01*
X182000000Y-90500000D02*
X182000000Y-91500000D01*
X183000000Y-91500000D02*
X182100000Y-91000000D01*
X183000000Y-90500000D02*
X183000000Y-91500000D01*
X182100000Y-91000000D02*
X183000000Y-90500000D01*
%TO.C,K1*%
X189250000Y-80000000D02*
X189000000Y-80000000D01*
X189250000Y-86000000D02*
X189250000Y-80000000D01*
X189250000Y-86000000D02*
X189000000Y-86000000D01*
X185750000Y-86000000D02*
X186000000Y-86000000D01*
X185750000Y-80000000D02*
X186000000Y-80000000D01*
X185750000Y-86000000D02*
X185750000Y-80000000D01*
%TO.C,U1*%
X172340000Y-75502000D02*
X172340000Y-45022000D01*
X174880000Y-75502000D02*
X172340000Y-75502000D01*
X174880000Y-45022000D02*
X174880000Y-75502000D01*
X172340000Y-45022000D02*
X174880000Y-45022000D01*
X187580000Y-75502000D02*
X187580000Y-45022000D01*
X190120000Y-75502000D02*
X187580000Y-75502000D01*
X190120000Y-45022000D02*
X190120000Y-75502000D01*
X187580000Y-45022000D02*
X190120000Y-45022000D01*
%TO.C,J1*%
X191900000Y-105250000D02*
X191900000Y-111250000D01*
X191900000Y-111250000D02*
X179900000Y-111250000D01*
X179900000Y-111250000D02*
X179900000Y-105250000D01*
X179900000Y-105250000D02*
X191900000Y-105250000D01*
D11*
%TO.C,SW1*%
X42200000Y-46149999D02*
X42200000Y-45250000D01*
D12*
X42700000Y-48350000D02*
X42700000Y-46550001D01*
D13*
X43830000Y-44850000D02*
X43830000Y-47090000D01*
D14*
X52300000Y-46650000D02*
X50900000Y-46650000D01*
D15*
X51900000Y-43950000D02*
X51900000Y-46450000D01*
D16*
X50600000Y-45150000D02*
X43900000Y-45150000D01*
D10*
X52600000Y-46950000D02*
X52600000Y-45950000D01*
X52600000Y-45950000D02*
X52400000Y-45950000D01*
X52380000Y-45950000D02*
X52380000Y-43700000D01*
X52400000Y-43700000D02*
X52600000Y-43700000D01*
X42100000Y-46250000D02*
X42300000Y-46250000D01*
X42330000Y-46250000D02*
X42330000Y-48490000D01*
X42300000Y-48490000D02*
X42100000Y-48490000D01*
X42100000Y-48850000D02*
X42100000Y-48490000D01*
X42100000Y-45250000D02*
X42100000Y-46250000D01*
X42100000Y-48850000D02*
X45380000Y-48850000D01*
X47600000Y-46950000D02*
X52600000Y-46950000D01*
X52600000Y-43350000D02*
X44199999Y-43350000D01*
X52600000Y-43700000D02*
X52600000Y-43350000D01*
D14*
X42300000Y-48650000D02*
X45000000Y-48650000D01*
D17*
X52400000Y-43550000D02*
X51000000Y-43550000D01*
X52400000Y-46050000D02*
X52400000Y-46750000D01*
D10*
X45383682Y-48828529D02*
G75*
G02*
X47600000Y-46950000I2151318J-291471D01*
G01*
X42100000Y-45250001D02*
G75*
G02*
X44199999Y-43350000I2000000J-99999D01*
G01*
D15*
X44983682Y-48428529D02*
G75*
G02*
X47200000Y-46550000I2151318J-291471D01*
G01*
D11*
%TO.C,SW3*%
X42200000Y-84249999D02*
X42200000Y-83350000D01*
D12*
X42700000Y-86450000D02*
X42700000Y-84650001D01*
D13*
X43830000Y-82950000D02*
X43830000Y-85190000D01*
D14*
X52300000Y-84750000D02*
X50900000Y-84750000D01*
D15*
X51900000Y-82050000D02*
X51900000Y-84550000D01*
D16*
X50600000Y-83250000D02*
X43900000Y-83250000D01*
D10*
X52600000Y-85050000D02*
X52600000Y-84050000D01*
X52600000Y-84050000D02*
X52400000Y-84050000D01*
X52380000Y-84050000D02*
X52380000Y-81800000D01*
X52400000Y-81800000D02*
X52600000Y-81800000D01*
X42100000Y-84350000D02*
X42300000Y-84350000D01*
X42330000Y-84350000D02*
X42330000Y-86590000D01*
X42300000Y-86590000D02*
X42100000Y-86590000D01*
X42100000Y-86950000D02*
X42100000Y-86590000D01*
X42100000Y-83350000D02*
X42100000Y-84350000D01*
X42100000Y-86950000D02*
X45380000Y-86950000D01*
X47600000Y-85050000D02*
X52600000Y-85050000D01*
X52600000Y-81450000D02*
X44199999Y-81450000D01*
X52600000Y-81800000D02*
X52600000Y-81450000D01*
D14*
X42300000Y-86750000D02*
X45000000Y-86750000D01*
D17*
X52400000Y-81650000D02*
X51000000Y-81650000D01*
X52400000Y-84150000D02*
X52400000Y-84850000D01*
D10*
X45383682Y-86928529D02*
G75*
G02*
X47600000Y-85050000I2151318J-291471D01*
G01*
X42100000Y-83350001D02*
G75*
G02*
X44199999Y-81450000I2000000J-99999D01*
G01*
D15*
X44983682Y-86528529D02*
G75*
G02*
X47200000Y-84650000I2151318J-291471D01*
G01*
D17*
%TO.C,SW4*%
X52400000Y-103200000D02*
X52400000Y-103900000D01*
X52400000Y-100700000D02*
X51000000Y-100700000D01*
D14*
X42300000Y-105800000D02*
X45000000Y-105800000D01*
D10*
X52600000Y-100850000D02*
X52600000Y-100500000D01*
X52600000Y-100500000D02*
X44199999Y-100500000D01*
X47600000Y-104100000D02*
X52600000Y-104100000D01*
X42100000Y-106000000D02*
X45380000Y-106000000D01*
X42100000Y-102400000D02*
X42100000Y-103400000D01*
X42100000Y-106000000D02*
X42100000Y-105640000D01*
X42300000Y-105640000D02*
X42100000Y-105640000D01*
X42330000Y-103400000D02*
X42330000Y-105640000D01*
X42100000Y-103400000D02*
X42300000Y-103400000D01*
X52400000Y-100850000D02*
X52600000Y-100850000D01*
X52380000Y-103100000D02*
X52380000Y-100850000D01*
X52600000Y-103100000D02*
X52400000Y-103100000D01*
X52600000Y-104100000D02*
X52600000Y-103100000D01*
D16*
X50600000Y-102300000D02*
X43900000Y-102300000D01*
D15*
X51900000Y-101100000D02*
X51900000Y-103600000D01*
D14*
X52300000Y-103800000D02*
X50900000Y-103800000D01*
D13*
X43830000Y-102000000D02*
X43830000Y-104240000D01*
D12*
X42700000Y-105500000D02*
X42700000Y-103700001D01*
D11*
X42200000Y-103299999D02*
X42200000Y-102400000D01*
D15*
X44983682Y-105578529D02*
G75*
G02*
X47200000Y-103700000I2151318J-291471D01*
G01*
D10*
X42100000Y-102400001D02*
G75*
G02*
X44199999Y-100500000I2000000J-99999D01*
G01*
X45383682Y-105978529D02*
G75*
G02*
X47600000Y-104100000I2151318J-291471D01*
G01*
D17*
%TO.C,SW5*%
X71450000Y-46050000D02*
X71450000Y-46750000D01*
X71450000Y-43550000D02*
X70050000Y-43550000D01*
D14*
X61350000Y-48650000D02*
X64050000Y-48650000D01*
D10*
X71650000Y-43700000D02*
X71650000Y-43350000D01*
X71650000Y-43350000D02*
X63249999Y-43350000D01*
X66650000Y-46950000D02*
X71650000Y-46950000D01*
X61150000Y-48850000D02*
X64430000Y-48850000D01*
X61150000Y-45250000D02*
X61150000Y-46250000D01*
X61150000Y-48850000D02*
X61150000Y-48490000D01*
X61350000Y-48490000D02*
X61150000Y-48490000D01*
X61380000Y-46250000D02*
X61380000Y-48490000D01*
X61150000Y-46250000D02*
X61350000Y-46250000D01*
X71450000Y-43700000D02*
X71650000Y-43700000D01*
X71430000Y-45950000D02*
X71430000Y-43700000D01*
X71650000Y-45950000D02*
X71450000Y-45950000D01*
X71650000Y-46950000D02*
X71650000Y-45950000D01*
D16*
X69650000Y-45150000D02*
X62950000Y-45150000D01*
D15*
X70950000Y-43950000D02*
X70950000Y-46450000D01*
D14*
X71350000Y-46650000D02*
X69950000Y-46650000D01*
D13*
X62880000Y-44850000D02*
X62880000Y-47090000D01*
D12*
X61750000Y-48350000D02*
X61750000Y-46550001D01*
D11*
X61250000Y-46149999D02*
X61250000Y-45250000D01*
D15*
X64033682Y-48428529D02*
G75*
G02*
X66250000Y-46550000I2151318J-291471D01*
G01*
D10*
X61150000Y-45250001D02*
G75*
G02*
X63249999Y-43350000I2000000J-99999D01*
G01*
X64433682Y-48828529D02*
G75*
G02*
X66650000Y-46950000I2151318J-291471D01*
G01*
D17*
%TO.C,SW6*%
X71450000Y-65100000D02*
X71450000Y-65800000D01*
X71450000Y-62600000D02*
X70050000Y-62600000D01*
D14*
X61350000Y-67700000D02*
X64050000Y-67700000D01*
D10*
X71650000Y-62750000D02*
X71650000Y-62400000D01*
X71650000Y-62400000D02*
X63249999Y-62400000D01*
X66650000Y-66000000D02*
X71650000Y-66000000D01*
X61150000Y-67900000D02*
X64430000Y-67900000D01*
X61150000Y-64300000D02*
X61150000Y-65300000D01*
X61150000Y-67900000D02*
X61150000Y-67540000D01*
X61350000Y-67540000D02*
X61150000Y-67540000D01*
X61380000Y-65300000D02*
X61380000Y-67540000D01*
X61150000Y-65300000D02*
X61350000Y-65300000D01*
X71450000Y-62750000D02*
X71650000Y-62750000D01*
X71430000Y-65000000D02*
X71430000Y-62750000D01*
X71650000Y-65000000D02*
X71450000Y-65000000D01*
X71650000Y-66000000D02*
X71650000Y-65000000D01*
D16*
X69650000Y-64200000D02*
X62950000Y-64200000D01*
D15*
X70950000Y-63000000D02*
X70950000Y-65500000D01*
D14*
X71350000Y-65700000D02*
X69950000Y-65700000D01*
D13*
X62880000Y-63900000D02*
X62880000Y-66140000D01*
D12*
X61750000Y-67400000D02*
X61750000Y-65600001D01*
D11*
X61250000Y-65199999D02*
X61250000Y-64300000D01*
D15*
X64033682Y-67478529D02*
G75*
G02*
X66250000Y-65600000I2151318J-291471D01*
G01*
D10*
X61150000Y-64300001D02*
G75*
G02*
X63249999Y-62400000I2000000J-99999D01*
G01*
X64433682Y-67878529D02*
G75*
G02*
X66650000Y-66000000I2151318J-291471D01*
G01*
D11*
%TO.C,SW7*%
X61250000Y-84249999D02*
X61250000Y-83350000D01*
D12*
X61750000Y-86450000D02*
X61750000Y-84650001D01*
D13*
X62880000Y-82950000D02*
X62880000Y-85190000D01*
D14*
X71350000Y-84750000D02*
X69950000Y-84750000D01*
D15*
X70950000Y-82050000D02*
X70950000Y-84550000D01*
D16*
X69650000Y-83250000D02*
X62950000Y-83250000D01*
D10*
X71650000Y-85050000D02*
X71650000Y-84050000D01*
X71650000Y-84050000D02*
X71450000Y-84050000D01*
X71430000Y-84050000D02*
X71430000Y-81800000D01*
X71450000Y-81800000D02*
X71650000Y-81800000D01*
X61150000Y-84350000D02*
X61350000Y-84350000D01*
X61380000Y-84350000D02*
X61380000Y-86590000D01*
X61350000Y-86590000D02*
X61150000Y-86590000D01*
X61150000Y-86950000D02*
X61150000Y-86590000D01*
X61150000Y-83350000D02*
X61150000Y-84350000D01*
X61150000Y-86950000D02*
X64430000Y-86950000D01*
X66650000Y-85050000D02*
X71650000Y-85050000D01*
X71650000Y-81450000D02*
X63249999Y-81450000D01*
X71650000Y-81800000D02*
X71650000Y-81450000D01*
D14*
X61350000Y-86750000D02*
X64050000Y-86750000D01*
D17*
X71450000Y-81650000D02*
X70050000Y-81650000D01*
X71450000Y-84150000D02*
X71450000Y-84850000D01*
D10*
X64433682Y-86928529D02*
G75*
G02*
X66650000Y-85050000I2151318J-291471D01*
G01*
X61150000Y-83350001D02*
G75*
G02*
X63249999Y-81450000I2000000J-99999D01*
G01*
D15*
X64033682Y-86528529D02*
G75*
G02*
X66250000Y-84650000I2151318J-291471D01*
G01*
D11*
%TO.C,SW8*%
X61250000Y-103299999D02*
X61250000Y-102400000D01*
D12*
X61750000Y-105500000D02*
X61750000Y-103700001D01*
D13*
X62880000Y-102000000D02*
X62880000Y-104240000D01*
D14*
X71350000Y-103800000D02*
X69950000Y-103800000D01*
D15*
X70950000Y-101100000D02*
X70950000Y-103600000D01*
D16*
X69650000Y-102300000D02*
X62950000Y-102300000D01*
D10*
X71650000Y-104100000D02*
X71650000Y-103100000D01*
X71650000Y-103100000D02*
X71450000Y-103100000D01*
X71430000Y-103100000D02*
X71430000Y-100850000D01*
X71450000Y-100850000D02*
X71650000Y-100850000D01*
X61150000Y-103400000D02*
X61350000Y-103400000D01*
X61380000Y-103400000D02*
X61380000Y-105640000D01*
X61350000Y-105640000D02*
X61150000Y-105640000D01*
X61150000Y-106000000D02*
X61150000Y-105640000D01*
X61150000Y-102400000D02*
X61150000Y-103400000D01*
X61150000Y-106000000D02*
X64430000Y-106000000D01*
X66650000Y-104100000D02*
X71650000Y-104100000D01*
X71650000Y-100500000D02*
X63249999Y-100500000D01*
X71650000Y-100850000D02*
X71650000Y-100500000D01*
D14*
X61350000Y-105800000D02*
X64050000Y-105800000D01*
D17*
X71450000Y-100700000D02*
X70050000Y-100700000D01*
X71450000Y-103200000D02*
X71450000Y-103900000D01*
D10*
X64433682Y-105978529D02*
G75*
G02*
X66650000Y-104100000I2151318J-291471D01*
G01*
X61150000Y-102400001D02*
G75*
G02*
X63249999Y-100500000I2000000J-99999D01*
G01*
D15*
X64033682Y-105578529D02*
G75*
G02*
X66250000Y-103700000I2151318J-291471D01*
G01*
D11*
%TO.C,SW10*%
X80300000Y-62199999D02*
X80300000Y-61300000D01*
D12*
X80800000Y-64400000D02*
X80800000Y-62600001D01*
D13*
X81930000Y-60900000D02*
X81930000Y-63140000D01*
D14*
X90400000Y-62700000D02*
X89000000Y-62700000D01*
D15*
X90000000Y-60000000D02*
X90000000Y-62500000D01*
D16*
X88700000Y-61200000D02*
X82000000Y-61200000D01*
D10*
X90700000Y-63000000D02*
X90700000Y-62000000D01*
X90700000Y-62000000D02*
X90500000Y-62000000D01*
X90480000Y-62000000D02*
X90480000Y-59750000D01*
X90500000Y-59750000D02*
X90700000Y-59750000D01*
X80200000Y-62300000D02*
X80400000Y-62300000D01*
X80430000Y-62300000D02*
X80430000Y-64540000D01*
X80400000Y-64540000D02*
X80200000Y-64540000D01*
X80200000Y-64900000D02*
X80200000Y-64540000D01*
X80200000Y-61300000D02*
X80200000Y-62300000D01*
X80200000Y-64900000D02*
X83480000Y-64900000D01*
X85700000Y-63000000D02*
X90700000Y-63000000D01*
X90700000Y-59400000D02*
X82299999Y-59400000D01*
X90700000Y-59750000D02*
X90700000Y-59400000D01*
D14*
X80400000Y-64700000D02*
X83100000Y-64700000D01*
D17*
X90500000Y-59600000D02*
X89100000Y-59600000D01*
X90500000Y-62100000D02*
X90500000Y-62800000D01*
D10*
X83483682Y-64878529D02*
G75*
G02*
X85700000Y-63000000I2151318J-291471D01*
G01*
X80200000Y-61300001D02*
G75*
G02*
X82299999Y-59400000I2000000J-99999D01*
G01*
D15*
X83083682Y-64478529D02*
G75*
G02*
X85300000Y-62600000I2151318J-291471D01*
G01*
D17*
%TO.C,SW11*%
X90500000Y-81150000D02*
X90500000Y-81850000D01*
X90500000Y-78650000D02*
X89100000Y-78650000D01*
D14*
X80400000Y-83750000D02*
X83100000Y-83750000D01*
D10*
X90700000Y-78800000D02*
X90700000Y-78450000D01*
X90700000Y-78450000D02*
X82299999Y-78450000D01*
X85700000Y-82050000D02*
X90700000Y-82050000D01*
X80200000Y-83950000D02*
X83480000Y-83950000D01*
X80200000Y-80350000D02*
X80200000Y-81350000D01*
X80200000Y-83950000D02*
X80200000Y-83590000D01*
X80400000Y-83590000D02*
X80200000Y-83590000D01*
X80430000Y-81350000D02*
X80430000Y-83590000D01*
X80200000Y-81350000D02*
X80400000Y-81350000D01*
X90500000Y-78800000D02*
X90700000Y-78800000D01*
X90480000Y-81050000D02*
X90480000Y-78800000D01*
X90700000Y-81050000D02*
X90500000Y-81050000D01*
X90700000Y-82050000D02*
X90700000Y-81050000D01*
D16*
X88700000Y-80250000D02*
X82000000Y-80250000D01*
D15*
X90000000Y-79050000D02*
X90000000Y-81550000D01*
D14*
X90400000Y-81750000D02*
X89000000Y-81750000D01*
D13*
X81930000Y-79950000D02*
X81930000Y-82190000D01*
D12*
X80800000Y-83450000D02*
X80800000Y-81650001D01*
D11*
X80300000Y-81249999D02*
X80300000Y-80350000D01*
D15*
X83083682Y-83528529D02*
G75*
G02*
X85300000Y-81650000I2151318J-291471D01*
G01*
D10*
X80200000Y-80350001D02*
G75*
G02*
X82299999Y-78450000I2000000J-99999D01*
G01*
X83483682Y-83928529D02*
G75*
G02*
X85700000Y-82050000I2151318J-291471D01*
G01*
D17*
%TO.C,SW12*%
X90500000Y-100200000D02*
X90500000Y-100900000D01*
X90500000Y-97700000D02*
X89100000Y-97700000D01*
D14*
X80400000Y-102800000D02*
X83100000Y-102800000D01*
D10*
X90700000Y-97850000D02*
X90700000Y-97500000D01*
X90700000Y-97500000D02*
X82299999Y-97500000D01*
X85700000Y-101100000D02*
X90700000Y-101100000D01*
X80200000Y-103000000D02*
X83480000Y-103000000D01*
X80200000Y-99400000D02*
X80200000Y-100400000D01*
X80200000Y-103000000D02*
X80200000Y-102640000D01*
X80400000Y-102640000D02*
X80200000Y-102640000D01*
X80430000Y-100400000D02*
X80430000Y-102640000D01*
X80200000Y-100400000D02*
X80400000Y-100400000D01*
X90500000Y-97850000D02*
X90700000Y-97850000D01*
X90480000Y-100100000D02*
X90480000Y-97850000D01*
X90700000Y-100100000D02*
X90500000Y-100100000D01*
X90700000Y-101100000D02*
X90700000Y-100100000D01*
D16*
X88700000Y-99300000D02*
X82000000Y-99300000D01*
D15*
X90000000Y-98100000D02*
X90000000Y-100600000D01*
D14*
X90400000Y-100800000D02*
X89000000Y-100800000D01*
D13*
X81930000Y-99000000D02*
X81930000Y-101240000D01*
D12*
X80800000Y-102500000D02*
X80800000Y-100700001D01*
D11*
X80300000Y-100299999D02*
X80300000Y-99400000D01*
D15*
X83083682Y-102578529D02*
G75*
G02*
X85300000Y-100700000I2151318J-291471D01*
G01*
D10*
X80200000Y-99400001D02*
G75*
G02*
X82299999Y-97500000I2000000J-99999D01*
G01*
X83483682Y-102978529D02*
G75*
G02*
X85700000Y-101100000I2151318J-291471D01*
G01*
D17*
%TO.C,SW13*%
X109550000Y-40050000D02*
X109550000Y-40750000D01*
X109550000Y-37550000D02*
X108150000Y-37550000D01*
D14*
X99450000Y-42650000D02*
X102150000Y-42650000D01*
D10*
X109750000Y-37700000D02*
X109750000Y-37350000D01*
X109750000Y-37350000D02*
X101349999Y-37350000D01*
X104750000Y-40950000D02*
X109750000Y-40950000D01*
X99250000Y-42850000D02*
X102530000Y-42850000D01*
X99250000Y-39250000D02*
X99250000Y-40250000D01*
X99250000Y-42850000D02*
X99250000Y-42490000D01*
X99450000Y-42490000D02*
X99250000Y-42490000D01*
X99480000Y-40250000D02*
X99480000Y-42490000D01*
X99250000Y-40250000D02*
X99450000Y-40250000D01*
X109550000Y-37700000D02*
X109750000Y-37700000D01*
X109530000Y-39950000D02*
X109530000Y-37700000D01*
X109750000Y-39950000D02*
X109550000Y-39950000D01*
X109750000Y-40950000D02*
X109750000Y-39950000D01*
D16*
X107750000Y-39150000D02*
X101050000Y-39150000D01*
D15*
X109050000Y-37950000D02*
X109050000Y-40450000D01*
D14*
X109450000Y-40650000D02*
X108050000Y-40650000D01*
D13*
X100980000Y-38850000D02*
X100980000Y-41090000D01*
D12*
X99850000Y-42350000D02*
X99850000Y-40550001D01*
D11*
X99350000Y-40149999D02*
X99350000Y-39250000D01*
D15*
X102133682Y-42428529D02*
G75*
G02*
X104350000Y-40550000I2151318J-291471D01*
G01*
D10*
X99250000Y-39250001D02*
G75*
G02*
X101349999Y-37350000I2000000J-99999D01*
G01*
X102533682Y-42828529D02*
G75*
G02*
X104750000Y-40950000I2151318J-291471D01*
G01*
D17*
%TO.C,SW14*%
X109550000Y-59100000D02*
X109550000Y-59800000D01*
X109550000Y-56600000D02*
X108150000Y-56600000D01*
D14*
X99450000Y-61700000D02*
X102150000Y-61700000D01*
D10*
X109750000Y-56750000D02*
X109750000Y-56400000D01*
X109750000Y-56400000D02*
X101349999Y-56400000D01*
X104750000Y-60000000D02*
X109750000Y-60000000D01*
X99250000Y-61900000D02*
X102530000Y-61900000D01*
X99250000Y-58300000D02*
X99250000Y-59300000D01*
X99250000Y-61900000D02*
X99250000Y-61540000D01*
X99450000Y-61540000D02*
X99250000Y-61540000D01*
X99480000Y-59300000D02*
X99480000Y-61540000D01*
X99250000Y-59300000D02*
X99450000Y-59300000D01*
X109550000Y-56750000D02*
X109750000Y-56750000D01*
X109530000Y-59000000D02*
X109530000Y-56750000D01*
X109750000Y-59000000D02*
X109550000Y-59000000D01*
X109750000Y-60000000D02*
X109750000Y-59000000D01*
D16*
X107750000Y-58200000D02*
X101050000Y-58200000D01*
D15*
X109050000Y-57000000D02*
X109050000Y-59500000D01*
D14*
X109450000Y-59700000D02*
X108050000Y-59700000D01*
D13*
X100980000Y-57900000D02*
X100980000Y-60140000D01*
D12*
X99850000Y-61400000D02*
X99850000Y-59600001D01*
D11*
X99350000Y-59199999D02*
X99350000Y-58300000D01*
D15*
X102133682Y-61478529D02*
G75*
G02*
X104350000Y-59600000I2151318J-291471D01*
G01*
D10*
X99250000Y-58300001D02*
G75*
G02*
X101349999Y-56400000I2000000J-99999D01*
G01*
X102533682Y-61878529D02*
G75*
G02*
X104750000Y-60000000I2151318J-291471D01*
G01*
D17*
%TO.C,SW15*%
X109550000Y-78150000D02*
X109550000Y-78850000D01*
X109550000Y-75650000D02*
X108150000Y-75650000D01*
D14*
X99450000Y-80750000D02*
X102150000Y-80750000D01*
D10*
X109750000Y-75800000D02*
X109750000Y-75450000D01*
X109750000Y-75450000D02*
X101349999Y-75450000D01*
X104750000Y-79050000D02*
X109750000Y-79050000D01*
X99250000Y-80950000D02*
X102530000Y-80950000D01*
X99250000Y-77350000D02*
X99250000Y-78350000D01*
X99250000Y-80950000D02*
X99250000Y-80590000D01*
X99450000Y-80590000D02*
X99250000Y-80590000D01*
X99480000Y-78350000D02*
X99480000Y-80590000D01*
X99250000Y-78350000D02*
X99450000Y-78350000D01*
X109550000Y-75800000D02*
X109750000Y-75800000D01*
X109530000Y-78050000D02*
X109530000Y-75800000D01*
X109750000Y-78050000D02*
X109550000Y-78050000D01*
X109750000Y-79050000D02*
X109750000Y-78050000D01*
D16*
X107750000Y-77250000D02*
X101050000Y-77250000D01*
D15*
X109050000Y-76050000D02*
X109050000Y-78550000D01*
D14*
X109450000Y-78750000D02*
X108050000Y-78750000D01*
D13*
X100980000Y-76950000D02*
X100980000Y-79190000D01*
D12*
X99850000Y-80450000D02*
X99850000Y-78650001D01*
D11*
X99350000Y-78249999D02*
X99350000Y-77350000D01*
D15*
X102133682Y-80528529D02*
G75*
G02*
X104350000Y-78650000I2151318J-291471D01*
G01*
D10*
X99250000Y-77350001D02*
G75*
G02*
X101349999Y-75450000I2000000J-99999D01*
G01*
X102533682Y-80928529D02*
G75*
G02*
X104750000Y-79050000I2151318J-291471D01*
G01*
D17*
%TO.C,SW16*%
X109550000Y-97200000D02*
X109550000Y-97900000D01*
X109550000Y-94700000D02*
X108150000Y-94700000D01*
D14*
X99450000Y-99800000D02*
X102150000Y-99800000D01*
D10*
X109750000Y-94850000D02*
X109750000Y-94500000D01*
X109750000Y-94500000D02*
X101349999Y-94500000D01*
X104750000Y-98100000D02*
X109750000Y-98100000D01*
X99250000Y-100000000D02*
X102530000Y-100000000D01*
X99250000Y-96400000D02*
X99250000Y-97400000D01*
X99250000Y-100000000D02*
X99250000Y-99640000D01*
X99450000Y-99640000D02*
X99250000Y-99640000D01*
X99480000Y-97400000D02*
X99480000Y-99640000D01*
X99250000Y-97400000D02*
X99450000Y-97400000D01*
X109550000Y-94850000D02*
X109750000Y-94850000D01*
X109530000Y-97100000D02*
X109530000Y-94850000D01*
X109750000Y-97100000D02*
X109550000Y-97100000D01*
X109750000Y-98100000D02*
X109750000Y-97100000D01*
D16*
X107750000Y-96300000D02*
X101050000Y-96300000D01*
D15*
X109050000Y-95100000D02*
X109050000Y-97600000D01*
D14*
X109450000Y-97800000D02*
X108050000Y-97800000D01*
D13*
X100980000Y-96000000D02*
X100980000Y-98240000D01*
D12*
X99850000Y-99500000D02*
X99850000Y-97700001D01*
D11*
X99350000Y-97299999D02*
X99350000Y-96400000D01*
D15*
X102133682Y-99578529D02*
G75*
G02*
X104350000Y-97700000I2151318J-291471D01*
G01*
D10*
X99250000Y-96400001D02*
G75*
G02*
X101349999Y-94500000I2000000J-99999D01*
G01*
X102533682Y-99978529D02*
G75*
G02*
X104750000Y-98100000I2151318J-291471D01*
G01*
D11*
%TO.C,SW18*%
X118400000Y-43149999D02*
X118400000Y-42250000D01*
D12*
X118900000Y-45350000D02*
X118900000Y-43550001D01*
D13*
X120030000Y-41850000D02*
X120030000Y-44090000D01*
D14*
X128500000Y-43650000D02*
X127100000Y-43650000D01*
D15*
X128100000Y-40950000D02*
X128100000Y-43450000D01*
D16*
X126800000Y-42150000D02*
X120100000Y-42150000D01*
D10*
X128800000Y-43950000D02*
X128800000Y-42950000D01*
X128800000Y-42950000D02*
X128600000Y-42950000D01*
X128580000Y-42950000D02*
X128580000Y-40700000D01*
X128600000Y-40700000D02*
X128800000Y-40700000D01*
X118300000Y-43250000D02*
X118500000Y-43250000D01*
X118530000Y-43250000D02*
X118530000Y-45490000D01*
X118500000Y-45490000D02*
X118300000Y-45490000D01*
X118300000Y-45850000D02*
X118300000Y-45490000D01*
X118300000Y-42250000D02*
X118300000Y-43250000D01*
X118300000Y-45850000D02*
X121580000Y-45850000D01*
X123800000Y-43950000D02*
X128800000Y-43950000D01*
X128800000Y-40350000D02*
X120399999Y-40350000D01*
X128800000Y-40700000D02*
X128800000Y-40350000D01*
D14*
X118500000Y-45650000D02*
X121200000Y-45650000D01*
D17*
X128600000Y-40550000D02*
X127200000Y-40550000D01*
X128600000Y-43050000D02*
X128600000Y-43750000D01*
D10*
X121583682Y-45828529D02*
G75*
G02*
X123800000Y-43950000I2151318J-291471D01*
G01*
X118300000Y-42250001D02*
G75*
G02*
X120399999Y-40350000I2000000J-99999D01*
G01*
D15*
X121183682Y-45428529D02*
G75*
G02*
X123400000Y-43550000I2151318J-291471D01*
G01*
D17*
%TO.C,SW19*%
X128600000Y-62100000D02*
X128600000Y-62800000D01*
X128600000Y-59600000D02*
X127200000Y-59600000D01*
D14*
X118500000Y-64700000D02*
X121200000Y-64700000D01*
D10*
X128800000Y-59750000D02*
X128800000Y-59400000D01*
X128800000Y-59400000D02*
X120399999Y-59400000D01*
X123800000Y-63000000D02*
X128800000Y-63000000D01*
X118300000Y-64900000D02*
X121580000Y-64900000D01*
X118300000Y-61300000D02*
X118300000Y-62300000D01*
X118300000Y-64900000D02*
X118300000Y-64540000D01*
X118500000Y-64540000D02*
X118300000Y-64540000D01*
X118530000Y-62300000D02*
X118530000Y-64540000D01*
X118300000Y-62300000D02*
X118500000Y-62300000D01*
X128600000Y-59750000D02*
X128800000Y-59750000D01*
X128580000Y-62000000D02*
X128580000Y-59750000D01*
X128800000Y-62000000D02*
X128600000Y-62000000D01*
X128800000Y-63000000D02*
X128800000Y-62000000D01*
D16*
X126800000Y-61200000D02*
X120100000Y-61200000D01*
D15*
X128100000Y-60000000D02*
X128100000Y-62500000D01*
D14*
X128500000Y-62700000D02*
X127100000Y-62700000D01*
D13*
X120030000Y-60900000D02*
X120030000Y-63140000D01*
D12*
X118900000Y-64400000D02*
X118900000Y-62600001D01*
D11*
X118400000Y-62199999D02*
X118400000Y-61300000D01*
D15*
X121183682Y-64478529D02*
G75*
G02*
X123400000Y-62600000I2151318J-291471D01*
G01*
D10*
X118300000Y-61300001D02*
G75*
G02*
X120399999Y-59400000I2000000J-99999D01*
G01*
X121583682Y-64878529D02*
G75*
G02*
X123800000Y-63000000I2151318J-291471D01*
G01*
D11*
%TO.C,SW20*%
X118400000Y-81249999D02*
X118400000Y-80350000D01*
D12*
X118900000Y-83450000D02*
X118900000Y-81650001D01*
D13*
X120030000Y-79950000D02*
X120030000Y-82190000D01*
D14*
X128500000Y-81750000D02*
X127100000Y-81750000D01*
D15*
X128100000Y-79050000D02*
X128100000Y-81550000D01*
D16*
X126800000Y-80250000D02*
X120100000Y-80250000D01*
D10*
X128800000Y-82050000D02*
X128800000Y-81050000D01*
X128800000Y-81050000D02*
X128600000Y-81050000D01*
X128580000Y-81050000D02*
X128580000Y-78800000D01*
X128600000Y-78800000D02*
X128800000Y-78800000D01*
X118300000Y-81350000D02*
X118500000Y-81350000D01*
X118530000Y-81350000D02*
X118530000Y-83590000D01*
X118500000Y-83590000D02*
X118300000Y-83590000D01*
X118300000Y-83950000D02*
X118300000Y-83590000D01*
X118300000Y-80350000D02*
X118300000Y-81350000D01*
X118300000Y-83950000D02*
X121580000Y-83950000D01*
X123800000Y-82050000D02*
X128800000Y-82050000D01*
X128800000Y-78450000D02*
X120399999Y-78450000D01*
X128800000Y-78800000D02*
X128800000Y-78450000D01*
D14*
X118500000Y-83750000D02*
X121200000Y-83750000D01*
D17*
X128600000Y-78650000D02*
X127200000Y-78650000D01*
X128600000Y-81150000D02*
X128600000Y-81850000D01*
D10*
X121583682Y-83928529D02*
G75*
G02*
X123800000Y-82050000I2151318J-291471D01*
G01*
X118300000Y-80350001D02*
G75*
G02*
X120399999Y-78450000I2000000J-99999D01*
G01*
D15*
X121183682Y-83528529D02*
G75*
G02*
X123400000Y-81650000I2151318J-291471D01*
G01*
D17*
%TO.C,SW21*%
X128600000Y-100200000D02*
X128600000Y-100900000D01*
X128600000Y-97700000D02*
X127200000Y-97700000D01*
D14*
X118500000Y-102800000D02*
X121200000Y-102800000D01*
D10*
X128800000Y-97850000D02*
X128800000Y-97500000D01*
X128800000Y-97500000D02*
X120399999Y-97500000D01*
X123800000Y-101100000D02*
X128800000Y-101100000D01*
X118300000Y-103000000D02*
X121580000Y-103000000D01*
X118300000Y-99400000D02*
X118300000Y-100400000D01*
X118300000Y-103000000D02*
X118300000Y-102640000D01*
X118500000Y-102640000D02*
X118300000Y-102640000D01*
X118530000Y-100400000D02*
X118530000Y-102640000D01*
X118300000Y-100400000D02*
X118500000Y-100400000D01*
X128600000Y-97850000D02*
X128800000Y-97850000D01*
X128580000Y-100100000D02*
X128580000Y-97850000D01*
X128800000Y-100100000D02*
X128600000Y-100100000D01*
X128800000Y-101100000D02*
X128800000Y-100100000D01*
D16*
X126800000Y-99300000D02*
X120100000Y-99300000D01*
D15*
X128100000Y-98100000D02*
X128100000Y-100600000D01*
D14*
X128500000Y-100800000D02*
X127100000Y-100800000D01*
D13*
X120030000Y-99000000D02*
X120030000Y-101240000D01*
D12*
X118900000Y-102500000D02*
X118900000Y-100700001D01*
D11*
X118400000Y-100299999D02*
X118400000Y-99400000D01*
D15*
X121183682Y-102578529D02*
G75*
G02*
X123400000Y-100700000I2151318J-291471D01*
G01*
D10*
X118300000Y-99400001D02*
G75*
G02*
X120399999Y-97500000I2000000J-99999D01*
G01*
X121583682Y-102978529D02*
G75*
G02*
X123800000Y-101100000I2151318J-291471D01*
G01*
D11*
%TO.C,SW23*%
X137450000Y-46149999D02*
X137450000Y-45250000D01*
D12*
X137950000Y-48350000D02*
X137950000Y-46550001D01*
D13*
X139080000Y-44850000D02*
X139080000Y-47090000D01*
D14*
X147550000Y-46650000D02*
X146150000Y-46650000D01*
D15*
X147150000Y-43950000D02*
X147150000Y-46450000D01*
D16*
X145850000Y-45150000D02*
X139150000Y-45150000D01*
D10*
X147850000Y-46950000D02*
X147850000Y-45950000D01*
X147850000Y-45950000D02*
X147650000Y-45950000D01*
X147630000Y-45950000D02*
X147630000Y-43700000D01*
X147650000Y-43700000D02*
X147850000Y-43700000D01*
X137350000Y-46250000D02*
X137550000Y-46250000D01*
X137580000Y-46250000D02*
X137580000Y-48490000D01*
X137550000Y-48490000D02*
X137350000Y-48490000D01*
X137350000Y-48850000D02*
X137350000Y-48490000D01*
X137350000Y-45250000D02*
X137350000Y-46250000D01*
X137350000Y-48850000D02*
X140630000Y-48850000D01*
X142850000Y-46950000D02*
X147850000Y-46950000D01*
X147850000Y-43350000D02*
X139449999Y-43350000D01*
X147850000Y-43700000D02*
X147850000Y-43350000D01*
D14*
X137550000Y-48650000D02*
X140250000Y-48650000D01*
D17*
X147650000Y-43550000D02*
X146250000Y-43550000D01*
X147650000Y-46050000D02*
X147650000Y-46750000D01*
D10*
X140633682Y-48828529D02*
G75*
G02*
X142850000Y-46950000I2151318J-291471D01*
G01*
X137350000Y-45250001D02*
G75*
G02*
X139449999Y-43350000I2000000J-99999D01*
G01*
D15*
X140233682Y-48428529D02*
G75*
G02*
X142450000Y-46550000I2151318J-291471D01*
G01*
D11*
%TO.C,SW24*%
X137450000Y-65199999D02*
X137450000Y-64300000D01*
D12*
X137950000Y-67400000D02*
X137950000Y-65600001D01*
D13*
X139080000Y-63900000D02*
X139080000Y-66140000D01*
D14*
X147550000Y-65700000D02*
X146150000Y-65700000D01*
D15*
X147150000Y-63000000D02*
X147150000Y-65500000D01*
D16*
X145850000Y-64200000D02*
X139150000Y-64200000D01*
D10*
X147850000Y-66000000D02*
X147850000Y-65000000D01*
X147850000Y-65000000D02*
X147650000Y-65000000D01*
X147630000Y-65000000D02*
X147630000Y-62750000D01*
X147650000Y-62750000D02*
X147850000Y-62750000D01*
X137350000Y-65300000D02*
X137550000Y-65300000D01*
X137580000Y-65300000D02*
X137580000Y-67540000D01*
X137550000Y-67540000D02*
X137350000Y-67540000D01*
X137350000Y-67900000D02*
X137350000Y-67540000D01*
X137350000Y-64300000D02*
X137350000Y-65300000D01*
X137350000Y-67900000D02*
X140630000Y-67900000D01*
X142850000Y-66000000D02*
X147850000Y-66000000D01*
X147850000Y-62400000D02*
X139449999Y-62400000D01*
X147850000Y-62750000D02*
X147850000Y-62400000D01*
D14*
X137550000Y-67700000D02*
X140250000Y-67700000D01*
D17*
X147650000Y-62600000D02*
X146250000Y-62600000D01*
X147650000Y-65100000D02*
X147650000Y-65800000D01*
D10*
X140633682Y-67878529D02*
G75*
G02*
X142850000Y-66000000I2151318J-291471D01*
G01*
X137350000Y-64300001D02*
G75*
G02*
X139449999Y-62400000I2000000J-99999D01*
G01*
D15*
X140233682Y-67478529D02*
G75*
G02*
X142450000Y-65600000I2151318J-291471D01*
G01*
D11*
%TO.C,SW25*%
X137450000Y-84249999D02*
X137450000Y-83350000D01*
D12*
X137950000Y-86450000D02*
X137950000Y-84650001D01*
D13*
X139080000Y-82950000D02*
X139080000Y-85190000D01*
D14*
X147550000Y-84750000D02*
X146150000Y-84750000D01*
D15*
X147150000Y-82050000D02*
X147150000Y-84550000D01*
D16*
X145850000Y-83250000D02*
X139150000Y-83250000D01*
D10*
X147850000Y-85050000D02*
X147850000Y-84050000D01*
X147850000Y-84050000D02*
X147650000Y-84050000D01*
X147630000Y-84050000D02*
X147630000Y-81800000D01*
X147650000Y-81800000D02*
X147850000Y-81800000D01*
X137350000Y-84350000D02*
X137550000Y-84350000D01*
X137580000Y-84350000D02*
X137580000Y-86590000D01*
X137550000Y-86590000D02*
X137350000Y-86590000D01*
X137350000Y-86950000D02*
X137350000Y-86590000D01*
X137350000Y-83350000D02*
X137350000Y-84350000D01*
X137350000Y-86950000D02*
X140630000Y-86950000D01*
X142850000Y-85050000D02*
X147850000Y-85050000D01*
X147850000Y-81450000D02*
X139449999Y-81450000D01*
X147850000Y-81800000D02*
X147850000Y-81450000D01*
D14*
X137550000Y-86750000D02*
X140250000Y-86750000D01*
D17*
X147650000Y-81650000D02*
X146250000Y-81650000D01*
X147650000Y-84150000D02*
X147650000Y-84850000D01*
D10*
X140633682Y-86928529D02*
G75*
G02*
X142850000Y-85050000I2151318J-291471D01*
G01*
X137350000Y-83350001D02*
G75*
G02*
X139449999Y-81450000I2000000J-99999D01*
G01*
D15*
X140233682Y-86528529D02*
G75*
G02*
X142450000Y-84650000I2151318J-291471D01*
G01*
D11*
%TO.C,SW26*%
X137450000Y-103299999D02*
X137450000Y-102400000D01*
D12*
X137950000Y-105500000D02*
X137950000Y-103700001D01*
D13*
X139080000Y-102000000D02*
X139080000Y-104240000D01*
D14*
X147550000Y-103800000D02*
X146150000Y-103800000D01*
D15*
X147150000Y-101100000D02*
X147150000Y-103600000D01*
D16*
X145850000Y-102300000D02*
X139150000Y-102300000D01*
D10*
X147850000Y-104100000D02*
X147850000Y-103100000D01*
X147850000Y-103100000D02*
X147650000Y-103100000D01*
X147630000Y-103100000D02*
X147630000Y-100850000D01*
X147650000Y-100850000D02*
X147850000Y-100850000D01*
X137350000Y-103400000D02*
X137550000Y-103400000D01*
X137580000Y-103400000D02*
X137580000Y-105640000D01*
X137550000Y-105640000D02*
X137350000Y-105640000D01*
X137350000Y-106000000D02*
X137350000Y-105640000D01*
X137350000Y-102400000D02*
X137350000Y-103400000D01*
X137350000Y-106000000D02*
X140630000Y-106000000D01*
X142850000Y-104100000D02*
X147850000Y-104100000D01*
X147850000Y-100500000D02*
X139449999Y-100500000D01*
X147850000Y-100850000D02*
X147850000Y-100500000D01*
D14*
X137550000Y-105800000D02*
X140250000Y-105800000D01*
D17*
X147650000Y-100700000D02*
X146250000Y-100700000D01*
X147650000Y-103200000D02*
X147650000Y-103900000D01*
D10*
X140633682Y-105978529D02*
G75*
G02*
X142850000Y-104100000I2151318J-291471D01*
G01*
X137350000Y-102400001D02*
G75*
G02*
X139449999Y-100500000I2000000J-99999D01*
G01*
D15*
X140233682Y-105578529D02*
G75*
G02*
X142450000Y-103700000I2151318J-291471D01*
G01*
D11*
%TO.C,SW28*%
X156500000Y-49149999D02*
X156500000Y-48250000D01*
D12*
X157000000Y-51350000D02*
X157000000Y-49550001D01*
D13*
X158130000Y-47850000D02*
X158130000Y-50090000D01*
D14*
X166600000Y-49650000D02*
X165200000Y-49650000D01*
D15*
X166200000Y-46950000D02*
X166200000Y-49450000D01*
D16*
X164900000Y-48150000D02*
X158200000Y-48150000D01*
D10*
X166900000Y-49950000D02*
X166900000Y-48950000D01*
X166900000Y-48950000D02*
X166700000Y-48950000D01*
X166680000Y-48950000D02*
X166680000Y-46700000D01*
X166700000Y-46700000D02*
X166900000Y-46700000D01*
X156400000Y-49250000D02*
X156600000Y-49250000D01*
X156630000Y-49250000D02*
X156630000Y-51490000D01*
X156600000Y-51490000D02*
X156400000Y-51490000D01*
X156400000Y-51850000D02*
X156400000Y-51490000D01*
X156400000Y-48250000D02*
X156400000Y-49250000D01*
X156400000Y-51850000D02*
X159680000Y-51850000D01*
X161900000Y-49950000D02*
X166900000Y-49950000D01*
X166900000Y-46350000D02*
X158499999Y-46350000D01*
X166900000Y-46700000D02*
X166900000Y-46350000D01*
D14*
X156600000Y-51650000D02*
X159300000Y-51650000D01*
D17*
X166700000Y-46550000D02*
X165300000Y-46550000D01*
X166700000Y-49050000D02*
X166700000Y-49750000D01*
D10*
X159683682Y-51828529D02*
G75*
G02*
X161900000Y-49950000I2151318J-291471D01*
G01*
X156400000Y-48250001D02*
G75*
G02*
X158499999Y-46350000I2000000J-99999D01*
G01*
D15*
X159283682Y-51428529D02*
G75*
G02*
X161500000Y-49550000I2151318J-291471D01*
G01*
D17*
%TO.C,SW29*%
X166700000Y-68100000D02*
X166700000Y-68800000D01*
X166700000Y-65600000D02*
X165300000Y-65600000D01*
D14*
X156600000Y-70700000D02*
X159300000Y-70700000D01*
D10*
X166900000Y-65750000D02*
X166900000Y-65400000D01*
X166900000Y-65400000D02*
X158499999Y-65400000D01*
X161900000Y-69000000D02*
X166900000Y-69000000D01*
X156400000Y-70900000D02*
X159680000Y-70900000D01*
X156400000Y-67300000D02*
X156400000Y-68300000D01*
X156400000Y-70900000D02*
X156400000Y-70540000D01*
X156600000Y-70540000D02*
X156400000Y-70540000D01*
X156630000Y-68300000D02*
X156630000Y-70540000D01*
X156400000Y-68300000D02*
X156600000Y-68300000D01*
X166700000Y-65750000D02*
X166900000Y-65750000D01*
X166680000Y-68000000D02*
X166680000Y-65750000D01*
X166900000Y-68000000D02*
X166700000Y-68000000D01*
X166900000Y-69000000D02*
X166900000Y-68000000D01*
D16*
X164900000Y-67200000D02*
X158200000Y-67200000D01*
D15*
X166200000Y-66000000D02*
X166200000Y-68500000D01*
D14*
X166600000Y-68700000D02*
X165200000Y-68700000D01*
D13*
X158130000Y-66900000D02*
X158130000Y-69140000D01*
D12*
X157000000Y-70400000D02*
X157000000Y-68600001D01*
D11*
X156500000Y-68199999D02*
X156500000Y-67300000D01*
D15*
X159283682Y-70478529D02*
G75*
G02*
X161500000Y-68600000I2151318J-291471D01*
G01*
D10*
X156400000Y-67300001D02*
G75*
G02*
X158499999Y-65400000I2000000J-99999D01*
G01*
X159683682Y-70878529D02*
G75*
G02*
X161900000Y-69000000I2151318J-291471D01*
G01*
D17*
%TO.C,SW31*%
X168418526Y-115290087D02*
X168179112Y-115947872D01*
X169273576Y-112940856D02*
X167958007Y-112462028D01*
D14*
X158038378Y-114278885D02*
X160575548Y-115202339D01*
D10*
X169410212Y-113150214D02*
X169529919Y-112821321D01*
X169529919Y-112821321D02*
X161636500Y-109948352D01*
X163600183Y-114494114D02*
X168298646Y-116204215D01*
X157782036Y-114398419D02*
X160864227Y-115520245D01*
X159013308Y-111015526D02*
X158671288Y-111955218D01*
X157782036Y-114398419D02*
X157905163Y-114060130D01*
X158093101Y-114128534D02*
X157905163Y-114060130D01*
X158887417Y-112033883D02*
X158121292Y-114138795D01*
X158671288Y-111955218D02*
X158859227Y-112023622D01*
X169222273Y-113081810D02*
X169410212Y-113150214D01*
X168433934Y-115189278D02*
X169203480Y-113074969D01*
X168640667Y-115264522D02*
X168452728Y-115196118D01*
X168298646Y-116204215D02*
X168640667Y-115264522D01*
D16*
X167034898Y-113828728D02*
X160738957Y-111537193D01*
D15*
X168666922Y-113145723D02*
X167811872Y-115494954D01*
D14*
X168119345Y-115819701D02*
X166803775Y-115340873D01*
D13*
X160775785Y-111231344D02*
X160009659Y-113336255D01*
D12*
X158516861Y-114133785D02*
X159132497Y-112442339D01*
D11*
X158799460Y-111895450D02*
X159107277Y-111049728D01*
D15*
X160635962Y-114988645D02*
G75*
G02*
X163361114Y-113981429I1921889J-1009686D01*
G01*
D10*
X159013308Y-111015526D02*
G75*
G02*
X161636500Y-109948352I1845183J-778009D01*
G01*
X160875031Y-115501330D02*
G75*
G02*
X163600183Y-114494114I1921889J-1009686D01*
G01*
D17*
%TO.C,SW32*%
X186368526Y-121840087D02*
X186129112Y-122497872D01*
X187223576Y-119490856D02*
X185908007Y-119012028D01*
D14*
X175988378Y-120828885D02*
X178525548Y-121752339D01*
D10*
X187360212Y-119700214D02*
X187479919Y-119371321D01*
X187479919Y-119371321D02*
X179586500Y-116498352D01*
X181550183Y-121044114D02*
X186248646Y-122754215D01*
X175732036Y-120948419D02*
X178814227Y-122070245D01*
X176963308Y-117565526D02*
X176621288Y-118505218D01*
X175732036Y-120948419D02*
X175855163Y-120610130D01*
X176043101Y-120678534D02*
X175855163Y-120610130D01*
X176837417Y-118583883D02*
X176071292Y-120688795D01*
X176621288Y-118505218D02*
X176809227Y-118573622D01*
X187172273Y-119631810D02*
X187360212Y-119700214D01*
X186383934Y-121739278D02*
X187153480Y-119624969D01*
X186590667Y-121814522D02*
X186402728Y-121746118D01*
X186248646Y-122754215D02*
X186590667Y-121814522D01*
D16*
X184984898Y-120378728D02*
X178688957Y-118087193D01*
D15*
X186616922Y-119695723D02*
X185761872Y-122044954D01*
D14*
X186069345Y-122369701D02*
X184753775Y-121890873D01*
D13*
X178725785Y-117781344D02*
X177959659Y-119886255D01*
D12*
X176466861Y-120683785D02*
X177082497Y-118992339D01*
D11*
X176749460Y-118445450D02*
X177057277Y-117599728D01*
D15*
X178585962Y-121538645D02*
G75*
G02*
X181311114Y-120531429I1921889J-1009686D01*
G01*
D10*
X176963308Y-117565526D02*
G75*
G02*
X179586500Y-116498352I1845183J-778009D01*
G01*
X178825031Y-122051330D02*
G75*
G02*
X181550183Y-121044114I1921889J-1009686D01*
G01*
%TO.C,K1*%
X187952380Y-81547619D02*
X187476190Y-81214285D01*
X187952380Y-80976190D02*
X186952380Y-80976190D01*
X186952380Y-81357142D01*
X187000000Y-81452380D01*
X187047619Y-81500000D01*
X187142857Y-81547619D01*
X187285714Y-81547619D01*
X187380952Y-81500000D01*
X187428571Y-81452380D01*
X187476190Y-81357142D01*
X187476190Y-80976190D01*
X187428571Y-81976190D02*
X187428571Y-82309523D01*
X187952380Y-82452380D02*
X187952380Y-81976190D01*
X186952380Y-81976190D01*
X186952380Y-82452380D01*
X187904761Y-82833333D02*
X187952380Y-82976190D01*
X187952380Y-83214285D01*
X187904761Y-83309523D01*
X187857142Y-83357142D01*
X187761904Y-83404761D01*
X187666666Y-83404761D01*
X187571428Y-83357142D01*
X187523809Y-83309523D01*
X187476190Y-83214285D01*
X187428571Y-83023809D01*
X187380952Y-82928571D01*
X187333333Y-82880952D01*
X187238095Y-82833333D01*
X187142857Y-82833333D01*
X187047619Y-82880952D01*
X187000000Y-82928571D01*
X186952380Y-83023809D01*
X186952380Y-83261904D01*
X187000000Y-83404761D01*
X187428571Y-83833333D02*
X187428571Y-84166666D01*
X187952380Y-84309523D02*
X187952380Y-83833333D01*
X186952380Y-83833333D01*
X186952380Y-84309523D01*
X186952380Y-84595238D02*
X186952380Y-85166666D01*
X187952380Y-84880952D02*
X186952380Y-84880952D01*
%TO.C,U1*%
D18*
X187036238Y-46694785D02*
X187202904Y-46337642D01*
X187321952Y-46694785D02*
X187321952Y-45944785D01*
X187131476Y-45944785D01*
X187083857Y-45980500D01*
X187060047Y-46016214D01*
X187036238Y-46087642D01*
X187036238Y-46194785D01*
X187060047Y-46266214D01*
X187083857Y-46301928D01*
X187131476Y-46337642D01*
X187321952Y-46337642D01*
X186845761Y-46480500D02*
X186607666Y-46480500D01*
X186893380Y-46694785D02*
X186726714Y-45944785D01*
X186560047Y-46694785D01*
X186441000Y-45944785D02*
X186321952Y-46694785D01*
X186226714Y-46159071D01*
X186131476Y-46694785D01*
X186012428Y-45944785D01*
X171772428Y-46694785D02*
X172010523Y-46694785D01*
X172010523Y-45944785D01*
X171605761Y-46301928D02*
X171439095Y-46301928D01*
X171367666Y-46694785D02*
X171605761Y-46694785D01*
X171605761Y-45944785D01*
X171367666Y-45944785D01*
X171153380Y-46694785D02*
X171153380Y-45944785D01*
X171034333Y-45944785D01*
X170962904Y-45980500D01*
X170915285Y-46051928D01*
X170891476Y-46123357D01*
X170867666Y-46266214D01*
X170867666Y-46373357D01*
X170891476Y-46516214D01*
X170915285Y-46587642D01*
X170962904Y-46659071D01*
X171034333Y-46694785D01*
X171153380Y-46694785D01*
X187008452Y-48457000D02*
X187056071Y-48421285D01*
X187127500Y-48421285D01*
X187198928Y-48457000D01*
X187246547Y-48528428D01*
X187270357Y-48599857D01*
X187294166Y-48742714D01*
X187294166Y-48849857D01*
X187270357Y-48992714D01*
X187246547Y-49064142D01*
X187198928Y-49135571D01*
X187127500Y-49171285D01*
X187079880Y-49171285D01*
X187008452Y-49135571D01*
X186984642Y-49099857D01*
X186984642Y-48849857D01*
X187079880Y-48849857D01*
X186770357Y-49171285D02*
X186770357Y-48421285D01*
X186484642Y-49171285D01*
X186484642Y-48421285D01*
X186246547Y-49171285D02*
X186246547Y-48421285D01*
X186127500Y-48421285D01*
X186056071Y-48457000D01*
X186008452Y-48528428D01*
X185984642Y-48599857D01*
X185960833Y-48742714D01*
X185960833Y-48849857D01*
X185984642Y-48992714D01*
X186008452Y-49064142D01*
X186056071Y-49135571D01*
X186127500Y-49171285D01*
X186246547Y-49171285D01*
X172050000Y-49339285D02*
X172050000Y-48589285D01*
X171930952Y-48589285D01*
X171859523Y-48625000D01*
X171811904Y-48696428D01*
X171788095Y-48767857D01*
X171764285Y-48910714D01*
X171764285Y-49017857D01*
X171788095Y-49160714D01*
X171811904Y-49232142D01*
X171859523Y-49303571D01*
X171930952Y-49339285D01*
X172050000Y-49339285D01*
X171573809Y-49125000D02*
X171335714Y-49125000D01*
X171621428Y-49339285D02*
X171454761Y-48589285D01*
X171288095Y-49339285D01*
X171192857Y-48589285D02*
X170907142Y-48589285D01*
X171050000Y-49339285D02*
X171050000Y-48589285D01*
X170764285Y-49125000D02*
X170526190Y-49125000D01*
X170811904Y-49339285D02*
X170645238Y-48589285D01*
X170478571Y-49339285D01*
X186964809Y-51774785D02*
X187131476Y-51417642D01*
X187250523Y-51774785D02*
X187250523Y-51024785D01*
X187060047Y-51024785D01*
X187012428Y-51060500D01*
X186988619Y-51096214D01*
X186964809Y-51167642D01*
X186964809Y-51274785D01*
X186988619Y-51346214D01*
X187012428Y-51381928D01*
X187060047Y-51417642D01*
X187250523Y-51417642D01*
X186774333Y-51739071D02*
X186702904Y-51774785D01*
X186583857Y-51774785D01*
X186536238Y-51739071D01*
X186512428Y-51703357D01*
X186488619Y-51631928D01*
X186488619Y-51560500D01*
X186512428Y-51489071D01*
X186536238Y-51453357D01*
X186583857Y-51417642D01*
X186679095Y-51381928D01*
X186726714Y-51346214D01*
X186750523Y-51310500D01*
X186774333Y-51239071D01*
X186774333Y-51167642D01*
X186750523Y-51096214D01*
X186726714Y-51060500D01*
X186679095Y-51024785D01*
X186560047Y-51024785D01*
X186488619Y-51060500D01*
X186345761Y-51024785D02*
X186060047Y-51024785D01*
X186202904Y-51774785D02*
X186202904Y-51024785D01*
X171831952Y-51060500D02*
X171879571Y-51024785D01*
X171951000Y-51024785D01*
X172022428Y-51060500D01*
X172070047Y-51131928D01*
X172093857Y-51203357D01*
X172117666Y-51346214D01*
X172117666Y-51453357D01*
X172093857Y-51596214D01*
X172070047Y-51667642D01*
X172022428Y-51739071D01*
X171951000Y-51774785D01*
X171903380Y-51774785D01*
X171831952Y-51739071D01*
X171808142Y-51703357D01*
X171808142Y-51453357D01*
X171903380Y-51453357D01*
X171593857Y-51774785D02*
X171593857Y-51024785D01*
X171308142Y-51774785D01*
X171308142Y-51024785D01*
X171070047Y-51774785D02*
X171070047Y-51024785D01*
X170951000Y-51024785D01*
X170879571Y-51060500D01*
X170831952Y-51131928D01*
X170808142Y-51203357D01*
X170784333Y-51346214D01*
X170784333Y-51453357D01*
X170808142Y-51596214D01*
X170831952Y-51667642D01*
X170879571Y-51739071D01*
X170951000Y-51774785D01*
X171070047Y-51774785D01*
X187294166Y-53564785D02*
X187127500Y-54314785D01*
X186960833Y-53564785D01*
X186508452Y-54243357D02*
X186532261Y-54279071D01*
X186603690Y-54314785D01*
X186651309Y-54314785D01*
X186722738Y-54279071D01*
X186770357Y-54207642D01*
X186794166Y-54136214D01*
X186817976Y-53993357D01*
X186817976Y-53886214D01*
X186794166Y-53743357D01*
X186770357Y-53671928D01*
X186722738Y-53600500D01*
X186651309Y-53564785D01*
X186603690Y-53564785D01*
X186532261Y-53600500D01*
X186508452Y-53636214D01*
X186008452Y-54243357D02*
X186032261Y-54279071D01*
X186103690Y-54314785D01*
X186151309Y-54314785D01*
X186222738Y-54279071D01*
X186270357Y-54207642D01*
X186294166Y-54136214D01*
X186317976Y-53993357D01*
X186317976Y-53886214D01*
X186294166Y-53743357D01*
X186270357Y-53671928D01*
X186222738Y-53600500D01*
X186151309Y-53564785D01*
X186103690Y-53564785D01*
X186032261Y-53600500D01*
X186008452Y-53636214D01*
X171831952Y-53600500D02*
X171879571Y-53564785D01*
X171951000Y-53564785D01*
X172022428Y-53600500D01*
X172070047Y-53671928D01*
X172093857Y-53743357D01*
X172117666Y-53886214D01*
X172117666Y-53993357D01*
X172093857Y-54136214D01*
X172070047Y-54207642D01*
X172022428Y-54279071D01*
X171951000Y-54314785D01*
X171903380Y-54314785D01*
X171831952Y-54279071D01*
X171808142Y-54243357D01*
X171808142Y-53993357D01*
X171903380Y-53993357D01*
X171593857Y-54314785D02*
X171593857Y-53564785D01*
X171308142Y-54314785D01*
X171308142Y-53564785D01*
X171070047Y-54314785D02*
X171070047Y-53564785D01*
X170951000Y-53564785D01*
X170879571Y-53600500D01*
X170831952Y-53671928D01*
X170808142Y-53743357D01*
X170784333Y-53886214D01*
X170784333Y-53993357D01*
X170808142Y-54136214D01*
X170831952Y-54207642D01*
X170879571Y-54279071D01*
X170951000Y-54314785D01*
X171070047Y-54314785D01*
X187047619Y-64367857D02*
X187071428Y-64403571D01*
X187142857Y-64439285D01*
X187190476Y-64439285D01*
X187261904Y-64403571D01*
X187309523Y-64332142D01*
X187333333Y-64260714D01*
X187357142Y-64117857D01*
X187357142Y-64010714D01*
X187333333Y-63867857D01*
X187309523Y-63796428D01*
X187261904Y-63725000D01*
X187190476Y-63689285D01*
X187142857Y-63689285D01*
X187071428Y-63725000D01*
X187047619Y-63760714D01*
X186738095Y-63689285D02*
X186642857Y-63689285D01*
X186595238Y-63725000D01*
X186547619Y-63796428D01*
X186523809Y-63939285D01*
X186523809Y-64189285D01*
X186547619Y-64332142D01*
X186595238Y-64403571D01*
X186642857Y-64439285D01*
X186738095Y-64439285D01*
X186785714Y-64403571D01*
X186833333Y-64332142D01*
X186857142Y-64189285D01*
X186857142Y-63939285D01*
X186833333Y-63796428D01*
X186785714Y-63725000D01*
X186738095Y-63689285D01*
X186071428Y-64439285D02*
X186309523Y-64439285D01*
X186309523Y-63689285D01*
X185952380Y-63689285D02*
X185642857Y-63689285D01*
X185809523Y-63975000D01*
X185738095Y-63975000D01*
X185690476Y-64010714D01*
X185666666Y-64046428D01*
X185642857Y-64117857D01*
X185642857Y-64296428D01*
X185666666Y-64367857D01*
X185690476Y-64403571D01*
X185738095Y-64439285D01*
X185880952Y-64439285D01*
X185928571Y-64403571D01*
X185952380Y-64367857D01*
X171830952Y-61871285D02*
X171997619Y-61514142D01*
X172116666Y-61871285D02*
X172116666Y-61121285D01*
X171926190Y-61121285D01*
X171878571Y-61157000D01*
X171854761Y-61192714D01*
X171830952Y-61264142D01*
X171830952Y-61371285D01*
X171854761Y-61442714D01*
X171878571Y-61478428D01*
X171926190Y-61514142D01*
X172116666Y-61514142D01*
X171521428Y-61121285D02*
X171426190Y-61121285D01*
X171378571Y-61157000D01*
X171330952Y-61228428D01*
X171307142Y-61371285D01*
X171307142Y-61621285D01*
X171330952Y-61764142D01*
X171378571Y-61835571D01*
X171426190Y-61871285D01*
X171521428Y-61871285D01*
X171569047Y-61835571D01*
X171616666Y-61764142D01*
X171640476Y-61621285D01*
X171640476Y-61371285D01*
X171616666Y-61228428D01*
X171569047Y-61157000D01*
X171521428Y-61121285D01*
X171140476Y-61121285D02*
X171021428Y-61871285D01*
X170926190Y-61335571D01*
X170830952Y-61871285D01*
X170711904Y-61121285D01*
X170426190Y-61121285D02*
X170378571Y-61121285D01*
X170330952Y-61157000D01*
X170307142Y-61192714D01*
X170283333Y-61264142D01*
X170259523Y-61407000D01*
X170259523Y-61585571D01*
X170283333Y-61728428D01*
X170307142Y-61799857D01*
X170330952Y-61835571D01*
X170378571Y-61871285D01*
X170426190Y-61871285D01*
X170473809Y-61835571D01*
X170497619Y-61799857D01*
X170521428Y-61728428D01*
X170545238Y-61585571D01*
X170545238Y-61407000D01*
X170521428Y-61264142D01*
X170497619Y-61192714D01*
X170473809Y-61157000D01*
X170426190Y-61121285D01*
X187047619Y-61867857D02*
X187071428Y-61903571D01*
X187142857Y-61939285D01*
X187190476Y-61939285D01*
X187261904Y-61903571D01*
X187309523Y-61832142D01*
X187333333Y-61760714D01*
X187357142Y-61617857D01*
X187357142Y-61510714D01*
X187333333Y-61367857D01*
X187309523Y-61296428D01*
X187261904Y-61225000D01*
X187190476Y-61189285D01*
X187142857Y-61189285D01*
X187071428Y-61225000D01*
X187047619Y-61260714D01*
X186738095Y-61189285D02*
X186642857Y-61189285D01*
X186595238Y-61225000D01*
X186547619Y-61296428D01*
X186523809Y-61439285D01*
X186523809Y-61689285D01*
X186547619Y-61832142D01*
X186595238Y-61903571D01*
X186642857Y-61939285D01*
X186738095Y-61939285D01*
X186785714Y-61903571D01*
X186833333Y-61832142D01*
X186857142Y-61689285D01*
X186857142Y-61439285D01*
X186833333Y-61296428D01*
X186785714Y-61225000D01*
X186738095Y-61189285D01*
X186071428Y-61939285D02*
X186309523Y-61939285D01*
X186309523Y-61189285D01*
X185928571Y-61260714D02*
X185904761Y-61225000D01*
X185857142Y-61189285D01*
X185738095Y-61189285D01*
X185690476Y-61225000D01*
X185666666Y-61260714D01*
X185642857Y-61332142D01*
X185642857Y-61403571D01*
X185666666Y-61510714D01*
X185952380Y-61939285D01*
X185642857Y-61939285D01*
X172046238Y-59359071D02*
X171974809Y-59394785D01*
X171855761Y-59394785D01*
X171808142Y-59359071D01*
X171784333Y-59323357D01*
X171760523Y-59251928D01*
X171760523Y-59180500D01*
X171784333Y-59109071D01*
X171808142Y-59073357D01*
X171855761Y-59037642D01*
X171951000Y-59001928D01*
X171998619Y-58966214D01*
X172022428Y-58930500D01*
X172046238Y-58859071D01*
X172046238Y-58787642D01*
X172022428Y-58716214D01*
X171998619Y-58680500D01*
X171951000Y-58644785D01*
X171831952Y-58644785D01*
X171760523Y-58680500D01*
X171260523Y-59323357D02*
X171284333Y-59359071D01*
X171355761Y-59394785D01*
X171403380Y-59394785D01*
X171474809Y-59359071D01*
X171522428Y-59287642D01*
X171546238Y-59216214D01*
X171570047Y-59073357D01*
X171570047Y-58966214D01*
X171546238Y-58823357D01*
X171522428Y-58751928D01*
X171474809Y-58680500D01*
X171403380Y-58644785D01*
X171355761Y-58644785D01*
X171284333Y-58680500D01*
X171260523Y-58716214D01*
X170808142Y-59394785D02*
X171046238Y-59394785D01*
X171046238Y-58644785D01*
X187047619Y-59323357D02*
X187071428Y-59359071D01*
X187142857Y-59394785D01*
X187190476Y-59394785D01*
X187261904Y-59359071D01*
X187309523Y-59287642D01*
X187333333Y-59216214D01*
X187357142Y-59073357D01*
X187357142Y-58966214D01*
X187333333Y-58823357D01*
X187309523Y-58751928D01*
X187261904Y-58680500D01*
X187190476Y-58644785D01*
X187142857Y-58644785D01*
X187071428Y-58680500D01*
X187047619Y-58716214D01*
X186738095Y-58644785D02*
X186642857Y-58644785D01*
X186595238Y-58680500D01*
X186547619Y-58751928D01*
X186523809Y-58894785D01*
X186523809Y-59144785D01*
X186547619Y-59287642D01*
X186595238Y-59359071D01*
X186642857Y-59394785D01*
X186738095Y-59394785D01*
X186785714Y-59359071D01*
X186833333Y-59287642D01*
X186857142Y-59144785D01*
X186857142Y-58894785D01*
X186833333Y-58751928D01*
X186785714Y-58680500D01*
X186738095Y-58644785D01*
X186071428Y-59394785D02*
X186309523Y-59394785D01*
X186309523Y-58644785D01*
X185642857Y-59394785D02*
X185928571Y-59394785D01*
X185785714Y-59394785D02*
X185785714Y-58644785D01*
X185833333Y-58751928D01*
X185880952Y-58823357D01*
X185928571Y-58859071D01*
X172058142Y-56819071D02*
X171986714Y-56854785D01*
X171867666Y-56854785D01*
X171820047Y-56819071D01*
X171796238Y-56783357D01*
X171772428Y-56711928D01*
X171772428Y-56640500D01*
X171796238Y-56569071D01*
X171820047Y-56533357D01*
X171867666Y-56497642D01*
X171962904Y-56461928D01*
X172010523Y-56426214D01*
X172034333Y-56390500D01*
X172058142Y-56319071D01*
X172058142Y-56247642D01*
X172034333Y-56176214D01*
X172010523Y-56140500D01*
X171962904Y-56104785D01*
X171843857Y-56104785D01*
X171772428Y-56140500D01*
X171558142Y-56854785D02*
X171558142Y-56104785D01*
X171439095Y-56104785D01*
X171367666Y-56140500D01*
X171320047Y-56211928D01*
X171296238Y-56283357D01*
X171272428Y-56426214D01*
X171272428Y-56533357D01*
X171296238Y-56676214D01*
X171320047Y-56747642D01*
X171367666Y-56819071D01*
X171439095Y-56854785D01*
X171558142Y-56854785D01*
X171081952Y-56640500D02*
X170843857Y-56640500D01*
X171129571Y-56854785D02*
X170962904Y-56104785D01*
X170796238Y-56854785D01*
X187047619Y-56817857D02*
X187071428Y-56853571D01*
X187142857Y-56889285D01*
X187190476Y-56889285D01*
X187261904Y-56853571D01*
X187309523Y-56782142D01*
X187333333Y-56710714D01*
X187357142Y-56567857D01*
X187357142Y-56460714D01*
X187333333Y-56317857D01*
X187309523Y-56246428D01*
X187261904Y-56175000D01*
X187190476Y-56139285D01*
X187142857Y-56139285D01*
X187071428Y-56175000D01*
X187047619Y-56210714D01*
X186738095Y-56139285D02*
X186642857Y-56139285D01*
X186595238Y-56175000D01*
X186547619Y-56246428D01*
X186523809Y-56389285D01*
X186523809Y-56639285D01*
X186547619Y-56782142D01*
X186595238Y-56853571D01*
X186642857Y-56889285D01*
X186738095Y-56889285D01*
X186785714Y-56853571D01*
X186833333Y-56782142D01*
X186857142Y-56639285D01*
X186857142Y-56389285D01*
X186833333Y-56246428D01*
X186785714Y-56175000D01*
X186738095Y-56139285D01*
X186071428Y-56889285D02*
X186309523Y-56889285D01*
X186309523Y-56139285D01*
X185809523Y-56139285D02*
X185761904Y-56139285D01*
X185714285Y-56175000D01*
X185690476Y-56210714D01*
X185666666Y-56282142D01*
X185642857Y-56425000D01*
X185642857Y-56603571D01*
X185666666Y-56746428D01*
X185690476Y-56817857D01*
X185714285Y-56853571D01*
X185761904Y-56889285D01*
X185809523Y-56889285D01*
X185857142Y-56853571D01*
X185880952Y-56817857D01*
X185904761Y-56746428D01*
X185928571Y-56603571D01*
X185928571Y-56425000D01*
X185904761Y-56282142D01*
X185880952Y-56210714D01*
X185857142Y-56175000D01*
X185809523Y-56139285D01*
X187147380Y-74178428D02*
X187075952Y-74214142D01*
X187052142Y-74249857D01*
X187028333Y-74321285D01*
X187028333Y-74428428D01*
X187052142Y-74499857D01*
X187075952Y-74535571D01*
X187123571Y-74571285D01*
X187314047Y-74571285D01*
X187314047Y-73821285D01*
X187147380Y-73821285D01*
X187099761Y-73857000D01*
X187075952Y-73892714D01*
X187052142Y-73964142D01*
X187052142Y-74035571D01*
X187075952Y-74107000D01*
X187099761Y-74142714D01*
X187147380Y-74178428D01*
X187314047Y-74178428D01*
X186599761Y-73821285D02*
X186695000Y-73821285D01*
X186742619Y-73857000D01*
X186766428Y-73892714D01*
X186814047Y-73999857D01*
X186837857Y-74142714D01*
X186837857Y-74428428D01*
X186814047Y-74499857D01*
X186790238Y-74535571D01*
X186742619Y-74571285D01*
X186647380Y-74571285D01*
X186599761Y-74535571D01*
X186575952Y-74499857D01*
X186552142Y-74428428D01*
X186552142Y-74249857D01*
X186575952Y-74178428D01*
X186599761Y-74142714D01*
X186647380Y-74107000D01*
X186742619Y-74107000D01*
X186790238Y-74142714D01*
X186814047Y-74178428D01*
X186837857Y-74249857D01*
X171653380Y-74241928D02*
X171581952Y-74277642D01*
X171558142Y-74313357D01*
X171534333Y-74384785D01*
X171534333Y-74491928D01*
X171558142Y-74563357D01*
X171581952Y-74599071D01*
X171629571Y-74634785D01*
X171820047Y-74634785D01*
X171820047Y-73884785D01*
X171653380Y-73884785D01*
X171605761Y-73920500D01*
X171581952Y-73956214D01*
X171558142Y-74027642D01*
X171558142Y-74099071D01*
X171581952Y-74170500D01*
X171605761Y-74206214D01*
X171653380Y-74241928D01*
X171820047Y-74241928D01*
X171081952Y-73884785D02*
X171320047Y-73884785D01*
X171343857Y-74241928D01*
X171320047Y-74206214D01*
X171272428Y-74170500D01*
X171153380Y-74170500D01*
X171105761Y-74206214D01*
X171081952Y-74241928D01*
X171058142Y-74313357D01*
X171058142Y-74491928D01*
X171081952Y-74563357D01*
X171105761Y-74599071D01*
X171153380Y-74634785D01*
X171272428Y-74634785D01*
X171320047Y-74599071D01*
X171343857Y-74563357D01*
X171653380Y-71701928D02*
X171581952Y-71737642D01*
X171558142Y-71773357D01*
X171534333Y-71844785D01*
X171534333Y-71951928D01*
X171558142Y-72023357D01*
X171581952Y-72059071D01*
X171629571Y-72094785D01*
X171820047Y-72094785D01*
X171820047Y-71344785D01*
X171653380Y-71344785D01*
X171605761Y-71380500D01*
X171581952Y-71416214D01*
X171558142Y-71487642D01*
X171558142Y-71559071D01*
X171581952Y-71630500D01*
X171605761Y-71666214D01*
X171653380Y-71701928D01*
X171820047Y-71701928D01*
X171105761Y-71594785D02*
X171105761Y-72094785D01*
X171224809Y-71309071D02*
X171343857Y-71844785D01*
X171034333Y-71844785D01*
X187210880Y-71574928D02*
X187139452Y-71610642D01*
X187115642Y-71646357D01*
X187091833Y-71717785D01*
X187091833Y-71824928D01*
X187115642Y-71896357D01*
X187139452Y-71932071D01*
X187187071Y-71967785D01*
X187377547Y-71967785D01*
X187377547Y-71217785D01*
X187210880Y-71217785D01*
X187163261Y-71253500D01*
X187139452Y-71289214D01*
X187115642Y-71360642D01*
X187115642Y-71432071D01*
X187139452Y-71503500D01*
X187163261Y-71539214D01*
X187210880Y-71574928D01*
X187377547Y-71574928D01*
X186901357Y-71289214D02*
X186877547Y-71253500D01*
X186829928Y-71217785D01*
X186710880Y-71217785D01*
X186663261Y-71253500D01*
X186639452Y-71289214D01*
X186615642Y-71360642D01*
X186615642Y-71432071D01*
X186639452Y-71539214D01*
X186925166Y-71967785D01*
X186615642Y-71967785D01*
X171830952Y-69589285D02*
X171997619Y-69232142D01*
X172116666Y-69589285D02*
X172116666Y-68839285D01*
X171926190Y-68839285D01*
X171878571Y-68875000D01*
X171854761Y-68910714D01*
X171830952Y-68982142D01*
X171830952Y-69089285D01*
X171854761Y-69160714D01*
X171878571Y-69196428D01*
X171926190Y-69232142D01*
X172116666Y-69232142D01*
X171521428Y-68839285D02*
X171426190Y-68839285D01*
X171378571Y-68875000D01*
X171330952Y-68946428D01*
X171307142Y-69089285D01*
X171307142Y-69339285D01*
X171330952Y-69482142D01*
X171378571Y-69553571D01*
X171426190Y-69589285D01*
X171521428Y-69589285D01*
X171569047Y-69553571D01*
X171616666Y-69482142D01*
X171640476Y-69339285D01*
X171640476Y-69089285D01*
X171616666Y-68946428D01*
X171569047Y-68875000D01*
X171521428Y-68839285D01*
X171140476Y-68839285D02*
X171021428Y-69589285D01*
X170926190Y-69053571D01*
X170830952Y-69589285D01*
X170711904Y-68839285D01*
X170569047Y-68839285D02*
X170259523Y-68839285D01*
X170426190Y-69125000D01*
X170354761Y-69125000D01*
X170307142Y-69160714D01*
X170283333Y-69196428D01*
X170259523Y-69267857D01*
X170259523Y-69446428D01*
X170283333Y-69517857D01*
X170307142Y-69553571D01*
X170354761Y-69589285D01*
X170497619Y-69589285D01*
X170545238Y-69553571D01*
X170569047Y-69517857D01*
X187047619Y-69517857D02*
X187071428Y-69553571D01*
X187142857Y-69589285D01*
X187190476Y-69589285D01*
X187261904Y-69553571D01*
X187309523Y-69482142D01*
X187333333Y-69410714D01*
X187357142Y-69267857D01*
X187357142Y-69160714D01*
X187333333Y-69017857D01*
X187309523Y-68946428D01*
X187261904Y-68875000D01*
X187190476Y-68839285D01*
X187142857Y-68839285D01*
X187071428Y-68875000D01*
X187047619Y-68910714D01*
X186738095Y-68839285D02*
X186642857Y-68839285D01*
X186595238Y-68875000D01*
X186547619Y-68946428D01*
X186523809Y-69089285D01*
X186523809Y-69339285D01*
X186547619Y-69482142D01*
X186595238Y-69553571D01*
X186642857Y-69589285D01*
X186738095Y-69589285D01*
X186785714Y-69553571D01*
X186833333Y-69482142D01*
X186857142Y-69339285D01*
X186857142Y-69089285D01*
X186833333Y-68946428D01*
X186785714Y-68875000D01*
X186738095Y-68839285D01*
X186071428Y-69589285D02*
X186309523Y-69589285D01*
X186309523Y-68839285D01*
X185666666Y-68839285D02*
X185904761Y-68839285D01*
X185928571Y-69196428D01*
X185904761Y-69160714D01*
X185857142Y-69125000D01*
X185738095Y-69125000D01*
X185690476Y-69160714D01*
X185666666Y-69196428D01*
X185642857Y-69267857D01*
X185642857Y-69446428D01*
X185666666Y-69517857D01*
X185690476Y-69553571D01*
X185738095Y-69589285D01*
X185857142Y-69589285D01*
X185904761Y-69553571D01*
X185928571Y-69517857D01*
X171830952Y-67078285D02*
X171997619Y-66721142D01*
X172116666Y-67078285D02*
X172116666Y-66328285D01*
X171926190Y-66328285D01*
X171878571Y-66364000D01*
X171854761Y-66399714D01*
X171830952Y-66471142D01*
X171830952Y-66578285D01*
X171854761Y-66649714D01*
X171878571Y-66685428D01*
X171926190Y-66721142D01*
X172116666Y-66721142D01*
X171521428Y-66328285D02*
X171426190Y-66328285D01*
X171378571Y-66364000D01*
X171330952Y-66435428D01*
X171307142Y-66578285D01*
X171307142Y-66828285D01*
X171330952Y-66971142D01*
X171378571Y-67042571D01*
X171426190Y-67078285D01*
X171521428Y-67078285D01*
X171569047Y-67042571D01*
X171616666Y-66971142D01*
X171640476Y-66828285D01*
X171640476Y-66578285D01*
X171616666Y-66435428D01*
X171569047Y-66364000D01*
X171521428Y-66328285D01*
X171140476Y-66328285D02*
X171021428Y-67078285D01*
X170926190Y-66542571D01*
X170830952Y-67078285D01*
X170711904Y-66328285D01*
X170545238Y-66399714D02*
X170521428Y-66364000D01*
X170473809Y-66328285D01*
X170354761Y-66328285D01*
X170307142Y-66364000D01*
X170283333Y-66399714D01*
X170259523Y-66471142D01*
X170259523Y-66542571D01*
X170283333Y-66649714D01*
X170569047Y-67078285D01*
X170259523Y-67078285D01*
X186997619Y-66879857D02*
X187021428Y-66915571D01*
X187092857Y-66951285D01*
X187140476Y-66951285D01*
X187211904Y-66915571D01*
X187259523Y-66844142D01*
X187283333Y-66772714D01*
X187307142Y-66629857D01*
X187307142Y-66522714D01*
X187283333Y-66379857D01*
X187259523Y-66308428D01*
X187211904Y-66237000D01*
X187140476Y-66201285D01*
X187092857Y-66201285D01*
X187021428Y-66237000D01*
X186997619Y-66272714D01*
X186688095Y-66201285D02*
X186592857Y-66201285D01*
X186545238Y-66237000D01*
X186497619Y-66308428D01*
X186473809Y-66451285D01*
X186473809Y-66701285D01*
X186497619Y-66844142D01*
X186545238Y-66915571D01*
X186592857Y-66951285D01*
X186688095Y-66951285D01*
X186735714Y-66915571D01*
X186783333Y-66844142D01*
X186807142Y-66701285D01*
X186807142Y-66451285D01*
X186783333Y-66308428D01*
X186735714Y-66237000D01*
X186688095Y-66201285D01*
X186021428Y-66951285D02*
X186259523Y-66951285D01*
X186259523Y-66201285D01*
X185640476Y-66451285D02*
X185640476Y-66951285D01*
X185759523Y-66165571D02*
X185878571Y-66701285D01*
X185569047Y-66701285D01*
X171830952Y-64474785D02*
X171997619Y-64117642D01*
X172116666Y-64474785D02*
X172116666Y-63724785D01*
X171926190Y-63724785D01*
X171878571Y-63760500D01*
X171854761Y-63796214D01*
X171830952Y-63867642D01*
X171830952Y-63974785D01*
X171854761Y-64046214D01*
X171878571Y-64081928D01*
X171926190Y-64117642D01*
X172116666Y-64117642D01*
X171521428Y-63724785D02*
X171426190Y-63724785D01*
X171378571Y-63760500D01*
X171330952Y-63831928D01*
X171307142Y-63974785D01*
X171307142Y-64224785D01*
X171330952Y-64367642D01*
X171378571Y-64439071D01*
X171426190Y-64474785D01*
X171521428Y-64474785D01*
X171569047Y-64439071D01*
X171616666Y-64367642D01*
X171640476Y-64224785D01*
X171640476Y-63974785D01*
X171616666Y-63831928D01*
X171569047Y-63760500D01*
X171521428Y-63724785D01*
X171140476Y-63724785D02*
X171021428Y-64474785D01*
X170926190Y-63939071D01*
X170830952Y-64474785D01*
X170711904Y-63724785D01*
X170259523Y-64474785D02*
X170545238Y-64474785D01*
X170402380Y-64474785D02*
X170402380Y-63724785D01*
X170450000Y-63831928D01*
X170497619Y-63903357D01*
X170545238Y-63939071D01*
D10*
%TO.C,J1*%
X184938880Y-107412595D02*
X184938880Y-107984023D01*
X185938880Y-107698309D02*
X184938880Y-107698309D01*
X185938880Y-108888785D02*
X185462690Y-108555452D01*
X185938880Y-108317357D02*
X184938880Y-108317357D01*
X184938880Y-108698309D01*
X184986500Y-108793547D01*
X185034119Y-108841166D01*
X185129357Y-108888785D01*
X185272214Y-108888785D01*
X185367452Y-108841166D01*
X185415071Y-108793547D01*
X185462690Y-108698309D01*
X185462690Y-108317357D01*
X185938880Y-109888785D02*
X185462690Y-109555452D01*
X185938880Y-109317357D02*
X184938880Y-109317357D01*
X184938880Y-109698309D01*
X184986500Y-109793547D01*
X185034119Y-109841166D01*
X185129357Y-109888785D01*
X185272214Y-109888785D01*
X185367452Y-109841166D01*
X185415071Y-109793547D01*
X185462690Y-109698309D01*
X185462690Y-109317357D01*
X185891261Y-110269738D02*
X185938880Y-110412595D01*
X185938880Y-110650690D01*
X185891261Y-110745928D01*
X185843642Y-110793547D01*
X185748404Y-110841166D01*
X185653166Y-110841166D01*
X185557928Y-110793547D01*
X185510309Y-110745928D01*
X185462690Y-110650690D01*
X185415071Y-110460214D01*
X185367452Y-110364976D01*
X185319833Y-110317357D01*
X185224595Y-110269738D01*
X185129357Y-110269738D01*
X185034119Y-110317357D01*
X184986500Y-110364976D01*
X184938880Y-110460214D01*
X184938880Y-110698309D01*
X184986500Y-110841166D01*
%TD*%
M02*
