%TF.GenerationSoftware,KiCad,Pcbnew,(5.1.6-0-10_14)*%
%TF.CreationDate,2020-07-09T23:16:05+02:00*%
%TF.ProjectId,splitkb,73706c69-746b-4622-9e6b-696361645f70,rev?*%
%TF.SameCoordinates,Original*%
%TF.FileFunction,Soldermask,Top*%
%TF.FilePolarity,Negative*%
%FSLAX46Y46*%
G04 Gerber Fmt 4.6, Leading zero omitted, Abs format (unit mm)*
G04 Created by KiCad (PCBNEW (5.1.6-0-10_14)) date 2020-07-09 23:16:05*
%MOMM*%
%LPD*%
G01*
G04 APERTURE LIST*
%ADD10C,2.300000*%
%ADD11C,0.100000*%
%ADD12C,3.100000*%
%ADD13C,4.100000*%
%ADD14C,2.000000*%
%ADD15C,1.800000*%
%ADD16C,4.200000*%
%ADD17R,2.400000X2.100000*%
%ADD18R,1.050000X1.400000*%
%ADD19C,1.497000*%
%ADD20R,1.497000X1.497000*%
%ADD21R,1.400000X1.050000*%
%ADD22C,2.100000*%
%ADD23C,1.624000*%
%ADD24C,1.300000*%
%ADD25O,2.600000X1.800000*%
G04 APERTURE END LIST*
D10*
%TO.C, *%
X40700000Y-124200000D03*
%TD*%
%TO.C, *%
X152200000Y-97600000D03*
%TD*%
%TO.C, *%
X152200000Y-58700000D03*
%TD*%
%TO.C, *%
X95000000Y-93700000D03*
%TD*%
%TO.C, *%
X95000000Y-53400000D03*
%TD*%
%TO.C, *%
X57000000Y-97600000D03*
%TD*%
%TO.C, *%
X57000000Y-59500000D03*
%TD*%
%TO.C, *%
X171000000Y-131000000D03*
%TD*%
%TO.C, *%
X107300000Y-134100000D03*
%TD*%
%TO.C, *%
X107300000Y-124200000D03*
%TD*%
%TO.C, *%
X40700000Y-134100000D03*
%TD*%
D11*
%TO.C,SW27*%
G36*
X168624585Y-136016264D02*
G01*
X167574585Y-137834918D01*
X165755931Y-136784918D01*
X166805931Y-134966264D01*
X168624585Y-136016264D01*
G37*
D12*
X174069557Y-143305295D03*
X169840295Y-137930591D03*
D11*
G36*
X178179902Y-144465968D02*
G01*
X177129902Y-146284622D01*
X175311248Y-145234622D01*
X176361248Y-143415968D01*
X178179902Y-144465968D01*
G37*
D12*
X171980127Y-149304294D03*
D11*
G36*
X165472853Y-146875223D02*
G01*
X164422853Y-148693877D01*
X162777405Y-147743877D01*
X163827405Y-145925223D01*
X165472853Y-146875223D01*
G37*
G36*
X176099133Y-150469967D02*
G01*
X175049133Y-152288621D01*
X173230479Y-151238621D01*
X174280479Y-149419967D01*
X176099133Y-150469967D01*
G37*
D12*
X163319873Y-144304294D03*
X166550000Y-148709550D03*
X174239705Y-140470591D03*
D13*
X169500000Y-143600000D03*
D14*
X164736860Y-140850000D03*
X174263140Y-146350000D03*
D15*
X173899409Y-146140000D03*
X165100591Y-141060000D03*
D12*
X167470443Y-139495295D03*
%TD*%
D11*
%TO.C,SW22*%
G36*
X148620982Y-127583493D02*
G01*
X147902740Y-129556847D01*
X145929386Y-128838605D01*
X146647628Y-126865251D01*
X148620982Y-127583493D01*
G37*
D12*
X155248960Y-133816277D03*
X150150643Y-129257630D03*
D11*
G36*
X159498408Y-134245564D02*
G01*
X158780166Y-136218918D01*
X156806812Y-135500676D01*
X157525054Y-133527322D01*
X159498408Y-134245564D01*
G37*
D12*
X154232989Y-140086963D03*
D11*
G36*
X147402771Y-138824772D02*
G01*
X146684529Y-140798126D01*
X144899113Y-140148288D01*
X145617355Y-138174934D01*
X147402771Y-138824772D01*
G37*
G36*
X158491834Y-140519670D02*
G01*
X157773592Y-142493024D01*
X155800238Y-141774782D01*
X156518480Y-139801428D01*
X158491834Y-140519670D01*
G37*
D12*
X144836062Y-136666762D03*
X148782081Y-140444186D03*
X154924282Y-130995093D03*
D13*
X150800000Y-134900000D03*
D14*
X145631691Y-133018889D03*
X155968309Y-136781111D03*
D15*
X155573639Y-136637462D03*
X146026361Y-133162538D03*
D12*
X148088502Y-131210084D03*
%TD*%
D11*
%TO.C,SW17*%
G36*
X127393588Y-122673029D02*
G01*
X127028927Y-124741126D01*
X124960830Y-124376465D01*
X125325491Y-122308368D01*
X127393588Y-122673029D01*
G37*
D12*
X135003184Y-127660188D03*
X129190721Y-124056110D03*
D11*
G36*
X139262619Y-127345043D02*
G01*
X138897958Y-129413140D01*
X136829861Y-129048479D01*
X137194522Y-126980382D01*
X139262619Y-127345043D01*
G37*
D12*
X135091541Y-134012030D03*
D11*
G36*
X128145912Y-133955069D02*
G01*
X127781251Y-136023165D01*
X125910116Y-135693233D01*
X126274777Y-133625137D01*
X128145912Y-133955069D01*
G37*
G36*
X139360824Y-133698621D02*
G01*
X138996163Y-135766718D01*
X136928066Y-135402057D01*
X137292727Y-133333960D01*
X139360824Y-133698621D01*
G37*
D12*
X125243463Y-132275548D03*
X129785476Y-135310366D03*
X134193544Y-124938243D03*
D13*
X130810000Y-129500000D03*
D14*
X125393557Y-128544935D03*
X136226443Y-130455065D03*
D15*
X135812823Y-130382133D03*
X125807177Y-128617867D03*
D12*
X127498949Y-126336989D03*
%TD*%
D14*
%TO.C,SW9*%
X81020000Y-46950000D03*
X91180000Y-46950000D03*
D16*
X86100000Y-46950000D03*
D12*
X88640000Y-41870000D03*
X89910000Y-44409999D03*
X83560000Y-41870000D03*
X82290000Y-44410000D03*
D17*
X80400000Y-41830000D03*
X93100000Y-44370000D03*
%TD*%
%TO.C,SW30*%
X169300000Y-88470000D03*
X156600000Y-85930000D03*
D12*
X158490000Y-88510000D03*
X159760000Y-85970000D03*
X166110000Y-88509999D03*
X164840000Y-85970000D03*
D16*
X162300000Y-91050000D03*
D14*
X167380000Y-91050000D03*
X157220000Y-91050000D03*
%TD*%
%TO.C,SW2*%
X42920000Y-69000000D03*
X53080000Y-69000000D03*
D16*
X48000000Y-69000000D03*
D12*
X50540000Y-63920000D03*
X51810000Y-66459999D03*
X45460000Y-63920000D03*
X44190000Y-66460000D03*
D17*
X42300000Y-63880000D03*
X55000000Y-66420000D03*
%TD*%
D18*
%TO.C,D1*%
X43000000Y-126350000D03*
D19*
X43000000Y-124315000D03*
D20*
X43000000Y-131935000D03*
D18*
X43000000Y-129900000D03*
%TD*%
%TO.C,D2*%
X45000000Y-129900000D03*
D20*
X45000000Y-131935000D03*
D19*
X45000000Y-124315000D03*
D18*
X45000000Y-126350000D03*
%TD*%
%TO.C,D3*%
X47000000Y-126350000D03*
D19*
X47000000Y-124315000D03*
D20*
X47000000Y-131935000D03*
D18*
X47000000Y-129900000D03*
%TD*%
%TO.C,D4*%
X49000000Y-126350000D03*
D19*
X49000000Y-124315000D03*
D20*
X49000000Y-131935000D03*
D18*
X49000000Y-129900000D03*
%TD*%
%TO.C,D5*%
X51000000Y-129900000D03*
D20*
X51000000Y-131935000D03*
D19*
X51000000Y-124315000D03*
D18*
X51000000Y-126350000D03*
%TD*%
%TO.C,D6*%
X53000000Y-126350000D03*
D19*
X53000000Y-124315000D03*
D20*
X53000000Y-131935000D03*
D18*
X53000000Y-129900000D03*
%TD*%
%TO.C,D7*%
X55000000Y-126350000D03*
D19*
X55000000Y-124315000D03*
D20*
X55000000Y-131935000D03*
D18*
X55000000Y-129900000D03*
%TD*%
%TO.C,D8*%
X57000000Y-129900000D03*
D20*
X57000000Y-131935000D03*
D19*
X57000000Y-124315000D03*
D18*
X57000000Y-126350000D03*
%TD*%
%TO.C,D9*%
X59000000Y-129900000D03*
D20*
X59000000Y-131935000D03*
D19*
X59000000Y-124315000D03*
D18*
X59000000Y-126350000D03*
%TD*%
%TO.C,D10*%
X61000000Y-126350000D03*
D19*
X61000000Y-124315000D03*
D20*
X61000000Y-131935000D03*
D18*
X61000000Y-129900000D03*
%TD*%
%TO.C,D11*%
X63000000Y-129900000D03*
D20*
X63000000Y-131935000D03*
D19*
X63000000Y-124315000D03*
D18*
X63000000Y-126350000D03*
%TD*%
%TO.C,D12*%
X65000000Y-126350000D03*
D19*
X65000000Y-124315000D03*
D20*
X65000000Y-131935000D03*
D18*
X65000000Y-129900000D03*
%TD*%
%TO.C,D13*%
X67000000Y-129900000D03*
D20*
X67000000Y-131935000D03*
D19*
X67000000Y-124315000D03*
D18*
X67000000Y-126350000D03*
%TD*%
%TO.C,D14*%
X69000000Y-126350000D03*
D19*
X69000000Y-124315000D03*
D20*
X69000000Y-131935000D03*
D18*
X69000000Y-129900000D03*
%TD*%
%TO.C,D15*%
X71000000Y-126350000D03*
D19*
X71000000Y-124315000D03*
D20*
X71000000Y-131935000D03*
D18*
X71000000Y-129900000D03*
%TD*%
%TO.C,D16*%
X73000000Y-129900000D03*
D20*
X73000000Y-131935000D03*
D19*
X73000000Y-124315000D03*
D18*
X73000000Y-126350000D03*
%TD*%
D21*
%TO.C,D17*%
X180725000Y-98500000D03*
D20*
X178690000Y-98500000D03*
D19*
X186310000Y-98500000D03*
D21*
X184275000Y-98500000D03*
%TD*%
D18*
%TO.C,D18*%
X75000000Y-129900000D03*
D20*
X75000000Y-131935000D03*
D19*
X75000000Y-124315000D03*
D18*
X75000000Y-126350000D03*
%TD*%
%TO.C,D19*%
X77000000Y-126350000D03*
D19*
X77000000Y-124315000D03*
D20*
X77000000Y-131935000D03*
D18*
X77000000Y-129900000D03*
%TD*%
%TO.C,D20*%
X79000000Y-129900000D03*
D20*
X79000000Y-131935000D03*
D19*
X79000000Y-124315000D03*
D18*
X79000000Y-126350000D03*
%TD*%
%TO.C,D21*%
X81000000Y-126350000D03*
D19*
X81000000Y-124315000D03*
D20*
X81000000Y-131935000D03*
D18*
X81000000Y-129900000D03*
%TD*%
D21*
%TO.C,D22*%
X180725000Y-96000000D03*
D20*
X178690000Y-96000000D03*
D19*
X186310000Y-96000000D03*
D21*
X184275000Y-96000000D03*
%TD*%
D18*
%TO.C,D23*%
X83000000Y-126350000D03*
D19*
X83000000Y-124315000D03*
D20*
X83000000Y-131935000D03*
D18*
X83000000Y-129900000D03*
%TD*%
%TO.C,D24*%
X85000000Y-129900000D03*
D20*
X85000000Y-131935000D03*
D19*
X85000000Y-124315000D03*
D18*
X85000000Y-126350000D03*
%TD*%
%TO.C,D25*%
X87000000Y-126350000D03*
D19*
X87000000Y-124315000D03*
D20*
X87000000Y-131935000D03*
D18*
X87000000Y-129900000D03*
%TD*%
%TO.C,D26*%
X89000000Y-129900000D03*
D20*
X89000000Y-131935000D03*
D19*
X89000000Y-124315000D03*
D18*
X89000000Y-126350000D03*
%TD*%
D21*
%TO.C,D27*%
X184275000Y-93500000D03*
D19*
X186310000Y-93500000D03*
D20*
X178690000Y-93500000D03*
D21*
X180725000Y-93500000D03*
%TD*%
D18*
%TO.C,D28*%
X91000000Y-126350000D03*
D19*
X91000000Y-124315000D03*
D20*
X91000000Y-131935000D03*
D18*
X91000000Y-129900000D03*
%TD*%
%TO.C,D29*%
X93000000Y-129900000D03*
D20*
X93000000Y-131935000D03*
D19*
X93000000Y-124315000D03*
D18*
X93000000Y-126350000D03*
%TD*%
%TO.C,D30*%
X95000000Y-129900000D03*
D20*
X95000000Y-131935000D03*
D19*
X95000000Y-124315000D03*
D18*
X95000000Y-126350000D03*
%TD*%
%TO.C,D31*%
X97000000Y-126350000D03*
D19*
X97000000Y-124315000D03*
D20*
X97000000Y-131935000D03*
D18*
X97000000Y-129900000D03*
%TD*%
D21*
%TO.C,D32*%
X180725000Y-91000000D03*
D20*
X178690000Y-91000000D03*
D19*
X186310000Y-91000000D03*
D21*
X184275000Y-91000000D03*
%TD*%
D22*
%TO.C,K1*%
X187500000Y-79750000D03*
X187500000Y-86250000D03*
%TD*%
D23*
%TO.C,U1*%
X174936400Y-45022000D03*
X174936400Y-47562000D03*
X174936400Y-50102000D03*
X174936400Y-52642000D03*
X174936400Y-55182000D03*
X174936400Y-57722000D03*
X174936400Y-60262000D03*
X174936400Y-62802000D03*
X174936400Y-65342000D03*
X174936400Y-67882000D03*
X174936400Y-70422000D03*
X174936400Y-72962000D03*
X190156400Y-72962000D03*
X190156400Y-70422000D03*
X190156400Y-67882000D03*
X190156400Y-65342000D03*
X190156400Y-62802000D03*
X190156400Y-60262000D03*
X190156400Y-57722000D03*
X190156400Y-55182000D03*
X190156400Y-52642000D03*
X190156400Y-50102000D03*
X190156400Y-47562000D03*
X190156400Y-45022000D03*
X173610000Y-46292000D03*
X173610000Y-48832000D03*
X173610000Y-51372000D03*
X173610000Y-53912000D03*
X173610000Y-56452000D03*
X173610000Y-58992000D03*
X173610000Y-61532000D03*
X173610000Y-64072000D03*
X173610000Y-66612000D03*
X173610000Y-69152000D03*
X173610000Y-71692000D03*
X173610000Y-74232000D03*
X188850000Y-74232000D03*
X188850000Y-71692000D03*
X188850000Y-69152000D03*
X188850000Y-66612000D03*
X188850000Y-64072000D03*
X188850000Y-61532000D03*
X188850000Y-58992000D03*
X188850000Y-56452000D03*
X188850000Y-53912000D03*
X188850000Y-51372000D03*
X188850000Y-48832000D03*
X188850000Y-46292000D03*
%TD*%
D24*
%TO.C,J1*%
X183400000Y-108250000D03*
X190400000Y-108250000D03*
D25*
X181600000Y-106150000D03*
X180100000Y-110350000D03*
X188600000Y-106150000D03*
X185600000Y-106150000D03*
D24*
X190400000Y-110000000D03*
X183400000Y-110000000D03*
D25*
X188600000Y-112100000D03*
X185600000Y-112100000D03*
X181600000Y-112100000D03*
X180100000Y-107900000D03*
%TD*%
D14*
%TO.C,SW1*%
X42920000Y-49950000D03*
X53080000Y-49950000D03*
D16*
X48000000Y-49950000D03*
D12*
X50540000Y-44870000D03*
X51810000Y-47409999D03*
X45460000Y-44870000D03*
X44190000Y-47410000D03*
D17*
X42300000Y-44830000D03*
X55000000Y-47370000D03*
%TD*%
D14*
%TO.C,SW3*%
X42920000Y-88050000D03*
X53080000Y-88050000D03*
D16*
X48000000Y-88050000D03*
D12*
X50540000Y-82970000D03*
X51810000Y-85509999D03*
X45460000Y-82970000D03*
X44190000Y-85510000D03*
D17*
X42300000Y-82930000D03*
X55000000Y-85470000D03*
%TD*%
%TO.C,SW4*%
X55000000Y-104520000D03*
X42300000Y-101980000D03*
D12*
X44190000Y-104560000D03*
X45460000Y-102020000D03*
X51810000Y-104559999D03*
X50540000Y-102020000D03*
D16*
X48000000Y-107100000D03*
D14*
X53080000Y-107100000D03*
X42920000Y-107100000D03*
%TD*%
D17*
%TO.C,SW5*%
X74050000Y-47370000D03*
X61350000Y-44830000D03*
D12*
X63240000Y-47410000D03*
X64510000Y-44870000D03*
X70860000Y-47409999D03*
X69590000Y-44870000D03*
D16*
X67050000Y-49950000D03*
D14*
X72130000Y-49950000D03*
X61970000Y-49950000D03*
%TD*%
D17*
%TO.C,SW6*%
X74050000Y-66420000D03*
X61350000Y-63880000D03*
D12*
X63240000Y-66460000D03*
X64510000Y-63920000D03*
X70860000Y-66459999D03*
X69590000Y-63920000D03*
D16*
X67050000Y-69000000D03*
D14*
X72130000Y-69000000D03*
X61970000Y-69000000D03*
%TD*%
%TO.C,SW7*%
X61970000Y-88050000D03*
X72130000Y-88050000D03*
D16*
X67050000Y-88050000D03*
D12*
X69590000Y-82970000D03*
X70860000Y-85509999D03*
X64510000Y-82970000D03*
X63240000Y-85510000D03*
D17*
X61350000Y-82930000D03*
X74050000Y-85470000D03*
%TD*%
D14*
%TO.C,SW8*%
X61970000Y-107100000D03*
X72130000Y-107100000D03*
D16*
X67050000Y-107100000D03*
D12*
X69590000Y-102020000D03*
X70860000Y-104559999D03*
X64510000Y-102020000D03*
X63240000Y-104560000D03*
D17*
X61350000Y-101980000D03*
X74050000Y-104520000D03*
%TD*%
D14*
%TO.C,SW10*%
X81020000Y-66000000D03*
X91180000Y-66000000D03*
D16*
X86100000Y-66000000D03*
D12*
X88640000Y-60920000D03*
X89910000Y-63459999D03*
X83560000Y-60920000D03*
X82290000Y-63460000D03*
D17*
X80400000Y-60880000D03*
X93100000Y-63420000D03*
%TD*%
%TO.C,SW11*%
X93100000Y-82470000D03*
X80400000Y-79930000D03*
D12*
X82290000Y-82510000D03*
X83560000Y-79970000D03*
X89910000Y-82509999D03*
X88640000Y-79970000D03*
D16*
X86100000Y-85050000D03*
D14*
X91180000Y-85050000D03*
X81020000Y-85050000D03*
%TD*%
D17*
%TO.C,SW12*%
X93100000Y-101520000D03*
X80400000Y-98980000D03*
D12*
X82290000Y-101560000D03*
X83560000Y-99020000D03*
X89910000Y-101559999D03*
X88640000Y-99020000D03*
D16*
X86100000Y-104100000D03*
D14*
X91180000Y-104100000D03*
X81020000Y-104100000D03*
%TD*%
D17*
%TO.C,SW13*%
X112150000Y-41370000D03*
X99450000Y-38830000D03*
D12*
X101340000Y-41410000D03*
X102610000Y-38870000D03*
X108960000Y-41409999D03*
X107690000Y-38870000D03*
D16*
X105150000Y-43950000D03*
D14*
X110230000Y-43950000D03*
X100070000Y-43950000D03*
%TD*%
D17*
%TO.C,SW14*%
X112150000Y-60420000D03*
X99450000Y-57880000D03*
D12*
X101340000Y-60460000D03*
X102610000Y-57920000D03*
X108960000Y-60459999D03*
X107690000Y-57920000D03*
D16*
X105150000Y-63000000D03*
D14*
X110230000Y-63000000D03*
X100070000Y-63000000D03*
%TD*%
D17*
%TO.C,SW15*%
X112150000Y-79470000D03*
X99450000Y-76930000D03*
D12*
X101340000Y-79510000D03*
X102610000Y-76970000D03*
X108960000Y-79509999D03*
X107690000Y-76970000D03*
D16*
X105150000Y-82050000D03*
D14*
X110230000Y-82050000D03*
X100070000Y-82050000D03*
%TD*%
D17*
%TO.C,SW16*%
X112150000Y-98520000D03*
X99450000Y-95980000D03*
D12*
X101340000Y-98560000D03*
X102610000Y-96020000D03*
X108960000Y-98559999D03*
X107690000Y-96020000D03*
D16*
X105150000Y-101100000D03*
D14*
X110230000Y-101100000D03*
X100070000Y-101100000D03*
%TD*%
%TO.C,SW18*%
X119120000Y-46950000D03*
X129280000Y-46950000D03*
D16*
X124200000Y-46950000D03*
D12*
X126740000Y-41870000D03*
X128010000Y-44409999D03*
X121660000Y-41870000D03*
X120390000Y-44410000D03*
D17*
X118500000Y-41830000D03*
X131200000Y-44370000D03*
%TD*%
%TO.C,SW19*%
X131200000Y-63420000D03*
X118500000Y-60880000D03*
D12*
X120390000Y-63460000D03*
X121660000Y-60920000D03*
X128010000Y-63459999D03*
X126740000Y-60920000D03*
D16*
X124200000Y-66000000D03*
D14*
X129280000Y-66000000D03*
X119120000Y-66000000D03*
%TD*%
%TO.C,SW20*%
X119120000Y-85050000D03*
X129280000Y-85050000D03*
D16*
X124200000Y-85050000D03*
D12*
X126740000Y-79970000D03*
X128010000Y-82509999D03*
X121660000Y-79970000D03*
X120390000Y-82510000D03*
D17*
X118500000Y-79930000D03*
X131200000Y-82470000D03*
%TD*%
%TO.C,SW21*%
X131200000Y-101520000D03*
X118500000Y-98980000D03*
D12*
X120390000Y-101560000D03*
X121660000Y-99020000D03*
X128010000Y-101559999D03*
X126740000Y-99020000D03*
D16*
X124200000Y-104100000D03*
D14*
X129280000Y-104100000D03*
X119120000Y-104100000D03*
%TD*%
%TO.C,SW23*%
X138170000Y-49950000D03*
X148330000Y-49950000D03*
D16*
X143250000Y-49950000D03*
D12*
X145790000Y-44870000D03*
X147060000Y-47409999D03*
X140710000Y-44870000D03*
X139440000Y-47410000D03*
D17*
X137550000Y-44830000D03*
X150250000Y-47370000D03*
%TD*%
D14*
%TO.C,SW24*%
X138170000Y-69000000D03*
X148330000Y-69000000D03*
D16*
X143250000Y-69000000D03*
D12*
X145790000Y-63920000D03*
X147060000Y-66459999D03*
X140710000Y-63920000D03*
X139440000Y-66460000D03*
D17*
X137550000Y-63880000D03*
X150250000Y-66420000D03*
%TD*%
D14*
%TO.C,SW25*%
X138170000Y-88050000D03*
X148330000Y-88050000D03*
D16*
X143250000Y-88050000D03*
D12*
X145790000Y-82970000D03*
X147060000Y-85509999D03*
X140710000Y-82970000D03*
X139440000Y-85510000D03*
D17*
X137550000Y-82930000D03*
X150250000Y-85470000D03*
%TD*%
D14*
%TO.C,SW26*%
X138170000Y-107100000D03*
X148330000Y-107100000D03*
D16*
X143250000Y-107100000D03*
D12*
X145790000Y-102020000D03*
X147060000Y-104559999D03*
X140710000Y-102020000D03*
X139440000Y-104560000D03*
D17*
X137550000Y-101980000D03*
X150250000Y-104520000D03*
%TD*%
D14*
%TO.C,SW28*%
X157220000Y-52950000D03*
X167380000Y-52950000D03*
D16*
X162300000Y-52950000D03*
D12*
X164840000Y-47870000D03*
X166110000Y-50409999D03*
X159760000Y-47870000D03*
X158490000Y-50410000D03*
D17*
X156600000Y-47830000D03*
X169300000Y-50370000D03*
%TD*%
%TO.C,SW29*%
X169300000Y-69420000D03*
X156600000Y-66880000D03*
D12*
X158490000Y-69460000D03*
X159760000Y-66920000D03*
X166110000Y-69459999D03*
X164840000Y-66920000D03*
D16*
X162300000Y-72000000D03*
D14*
X167380000Y-72000000D03*
X157220000Y-72000000D03*
%TD*%
D11*
%TO.C,SW31*%
G36*
X171897012Y-116843481D02*
G01*
X171178770Y-118816835D01*
X168923508Y-117995987D01*
X169641750Y-116022633D01*
X171897012Y-116843481D01*
G37*
G36*
X160831647Y-110113006D02*
G01*
X160113405Y-112086360D01*
X157858143Y-111265512D01*
X158576385Y-109292158D01*
X160831647Y-110113006D01*
G37*
D12*
X160238502Y-113760084D03*
X162300643Y-111807630D03*
X167398960Y-116366277D03*
X167074282Y-113545093D03*
D16*
X162950000Y-117450000D03*
D14*
X167723639Y-119187462D03*
X158176361Y-115712538D03*
%TD*%
D11*
%TO.C,SW32*%
G36*
X189847012Y-123393481D02*
G01*
X189128770Y-125366835D01*
X186873508Y-124545987D01*
X187591750Y-122572633D01*
X189847012Y-123393481D01*
G37*
G36*
X178781647Y-116663006D02*
G01*
X178063405Y-118636360D01*
X175808143Y-117815512D01*
X176526385Y-115842158D01*
X178781647Y-116663006D01*
G37*
D12*
X178188502Y-120310084D03*
X180250643Y-118357630D03*
X185348960Y-122916277D03*
X185024282Y-120095093D03*
D16*
X180900000Y-124000000D03*
D14*
X185673639Y-125737462D03*
X176126361Y-122262538D03*
%TD*%
M02*
