M48
; DRILL file {KiCad (5.1.6-0-10_14)} date Thursday, July 09, 2020 at 11:16:08 PM
; FORMAT={-:-/ absolute / inch / decimal}
; #@! TF.CreationDate,2020-07-09T23:16:08+02:00
; #@! TF.GenerationSoftware,Kicad,Pcbnew,(5.1.6-0-10_14)
; #@! TF.FileFunction,NonPlated,1,2,NPTH
FMAT,2
INCH
T1C0.0472
T2C0.0669
T3C0.0748
T4C0.0866
T5C0.1181
T6C0.1575
T7C0.1614
%
G90
G05
T1
X7.2205Y-4.2618
X7.2205Y-4.3307
X7.4961Y-4.2618
X7.4961Y-4.3307
T2
X4.953Y-5.0637
X5.347Y-5.1332
X5.7491Y-5.2426
X6.1249Y-5.3794
X6.5Y-5.5535
X6.8464Y-5.7535
T3
X6.2274Y-4.5556
X6.6033Y-4.6924
X4.6898Y-2.5984
X5.0898Y-2.5984
X6.1898Y-2.8346
X6.5898Y-2.8346
X6.4857Y-5.5453
X6.8608Y-5.7618
X4.6898Y-1.8484
X5.0898Y-1.8484
X4.6898Y-4.0984
X5.0898Y-4.0984
X6.9341Y-4.8135
X7.31Y-4.9503
X3.1898Y-2.5984
X3.5898Y-2.5984
X6.1898Y-2.0846
X6.5898Y-2.0846
X5.4398Y-4.2165
X5.8398Y-4.2165
X2.4398Y-2.7165
X2.8398Y-2.7165
X3.9398Y-3.9803
X4.3398Y-3.9803
X2.4398Y-1.9665
X2.8398Y-1.9665
X3.9398Y-3.2303
X4.3398Y-3.2303
X5.4398Y-2.7165
X5.8398Y-2.7165
X1.6898Y-4.2165
X2.0898Y-4.2165
X2.4398Y-4.2165
X2.8398Y-4.2165
X2.4398Y-3.4665
X2.8398Y-3.4665
X3.1898Y-1.8484
X3.5898Y-1.8484
X1.6898Y-2.7165
X2.0898Y-2.7165
X3.9398Y-2.4803
X4.3398Y-2.4803
X1.6898Y-3.4665
X2.0898Y-3.4665
X6.1898Y-3.5846
X6.5898Y-3.5846
X3.9398Y-1.7303
X4.3398Y-1.7303
X1.6898Y-1.9665
X2.0898Y-1.9665
X4.9368Y-5.0608
X5.3632Y-5.136
X3.1898Y-4.0984
X3.5898Y-4.0984
X3.1898Y-3.3484
X3.5898Y-3.3484
X5.7335Y-5.237
X6.1405Y-5.3851
X5.4398Y-3.4665
X5.8398Y-3.4665
X4.6898Y-3.3484
X5.0898Y-3.3484
X5.4398Y-1.9665
X5.8398Y-1.9665
T4
X3.7402Y-2.1024
X1.6024Y-5.2795
X6.7323Y-5.1575
X5.9921Y-2.311
X2.2441Y-3.8425
X1.6024Y-4.8898
X4.2244Y-5.2795
X3.7402Y-3.689
X4.2244Y-4.8898
X2.2441Y-2.3425
X5.9921Y-3.8425
T5
X6.4299Y-5.6813
X6.5571Y-5.8547
X6.5933Y-5.4919
X6.6866Y-5.4303
X6.7709Y-5.8781
X6.8531Y-5.6419
X6.8598Y-5.5303
X4.7398Y-1.7484
X4.7898Y-1.6484
X4.9898Y-1.6484
X5.0398Y-1.7484
X4.7398Y-3.9984
X4.7898Y-3.8984
X4.9898Y-3.8984
X5.0398Y-3.9984
X7.0153Y-4.7366
X7.0965Y-4.6597
X7.2844Y-4.7282
X7.2972Y-4.8392
X3.2398Y-2.4984
X3.2898Y-2.3984
X3.4898Y-2.3984
X3.5398Y-2.4984
X6.2398Y-1.9846
X6.2898Y-1.8846
X6.4898Y-1.8846
X6.5398Y-1.9846
X5.4898Y-4.1165
X5.5398Y-4.0165
X5.7398Y-4.0165
X5.7898Y-4.1165
X2.4898Y-2.6165
X2.5398Y-2.5165
X2.7398Y-2.5165
X2.7898Y-2.6165
X3.9898Y-3.8803
X4.0398Y-3.7803
X4.2398Y-3.7803
X4.2898Y-3.8803
X2.4898Y-1.8665
X2.5398Y-1.7665
X2.7398Y-1.7665
X2.7898Y-1.8665
X3.9898Y-3.1303
X4.0398Y-3.0303
X4.2398Y-3.0303
X4.2898Y-3.1303
X5.4898Y-2.6165
X5.5398Y-2.5165
X5.7398Y-2.5165
X5.7898Y-2.6165
X1.7398Y-4.1165
X1.7898Y-4.0165
X1.9898Y-4.0165
X2.0398Y-4.1165
X2.4898Y-4.1165
X2.5398Y-4.0165
X2.7398Y-4.0165
X2.7898Y-4.1165
X2.4898Y-3.3665
X2.5398Y-3.2665
X2.7398Y-3.2665
X2.7898Y-3.3665
X3.2398Y-1.7484
X3.2898Y-1.6484
X3.4898Y-1.6484
X3.5398Y-1.7484
X1.7398Y-2.6165
X1.7898Y-2.5165
X1.9898Y-2.5165
X2.0398Y-2.6165
X3.9898Y-2.3803
X4.0398Y-2.2803
X4.2398Y-2.2803
X4.2898Y-2.3803
X1.7398Y-3.3665
X1.7898Y-3.2665
X1.9898Y-3.2665
X2.0398Y-3.3665
X6.2398Y-3.4846
X6.2898Y-3.3846
X6.4898Y-3.3846
X6.5398Y-3.4846
X3.9898Y-1.6303
X4.0398Y-1.5303
X4.2398Y-1.5303
X4.2898Y-1.6303
X1.7398Y-1.8665
X1.7898Y-1.7665
X1.9898Y-1.7665
X2.0398Y-1.8665
X4.9308Y-5.2077
X5.0196Y-4.9739
X5.0862Y-4.8841
X5.1097Y-5.3272
X5.2832Y-4.9188
X5.3151Y-5.026
X5.3186Y-5.2761
X3.2398Y-3.9984
X3.2898Y-3.8984
X3.4898Y-3.8984
X3.5398Y-3.9984
X3.2398Y-3.2484
X3.2898Y-3.1484
X3.4898Y-3.1484
X3.5398Y-3.2484
X5.7022Y-5.3806
X5.8303Y-5.1658
X5.8576Y-5.5293
X5.9114Y-5.0889
X6.0722Y-5.5152
X6.0994Y-5.1573
X6.1122Y-5.2684
X5.4898Y-3.3665
X5.5398Y-3.2665
X5.7398Y-3.2665
X5.7898Y-3.3665
X4.7398Y-3.2484
X4.7898Y-3.1484
X4.9898Y-3.1484
X5.0398Y-3.2484
X5.4898Y-1.8665
X5.5398Y-1.7665
X5.7398Y-1.7665
X5.7898Y-1.8665
X6.3086Y-4.4787
X6.3898Y-4.4019
X6.5777Y-4.4703
X6.5905Y-4.5813
X4.7398Y-2.4984
X4.7898Y-2.3984
X4.9898Y-2.3984
X5.0398Y-2.4984
X6.2398Y-2.7346
X6.2898Y-2.6346
X6.4898Y-2.6346
X6.5398Y-2.7346
T6
X5.15Y-5.0984
X5.937Y-5.311
X6.6732Y-5.6535
T7
X6.4154Y-4.624
X4.8898Y-2.5984
X6.3898Y-2.8346
X4.8898Y-1.8484
X4.8898Y-4.0984
X7.122Y-4.8819
X3.3898Y-2.5984
X6.3898Y-2.0846
X5.6398Y-4.2165
X2.6398Y-2.7165
X4.1398Y-3.9803
X2.6398Y-1.9665
X4.1398Y-3.2303
X5.6398Y-2.7165
X1.8898Y-4.2165
X2.6398Y-4.2165
X2.6398Y-3.4665
X3.3898Y-1.8484
X1.8898Y-2.7165
X4.1398Y-2.4803
X1.8898Y-3.4665
X6.3898Y-3.5846
X4.1398Y-1.7303
X1.8898Y-1.9665
X3.3898Y-4.0984
X3.3898Y-3.3484
X5.6398Y-3.4665
X4.8898Y-3.3484
X5.6398Y-1.9665
T0
M30
