M48
; DRILL file {KiCad (5.1.6-0-10_14)} date Thursday, July 09, 2020 at 11:16:08 PM
; FORMAT={-:-/ absolute / inch / decimal}
; #@! TF.CreationDate,2020-07-09T23:16:08+02:00
; #@! TF.GenerationSoftware,Kicad,Pcbnew,(5.1.6-0-10_14)
; #@! TF.FileFunction,Plated,1,2,PTH
FMAT,2
INCH
T1C0.0157
T2C0.0320
T3C0.0394
T4C0.0512
%
G90
G05
T1
X1.6929Y-5.2559
X1.7717Y-5.2953
X1.8504Y-5.3346
X1.8898Y-1.6929
X1.8898Y-2.126
X1.8898Y-2.3819
X1.8898Y-2.874
X1.8898Y-3.1299
X1.8898Y-3.622
X1.8898Y-3.878
X1.8898Y-4.3701
X1.9291Y-5.374
X2.0079Y-5.2559
X2.0866Y-5.2953
X2.1654Y-2.9528
X2.1654Y-5.3346
X2.2441Y-5.374
X2.3228Y-5.2559
X2.4016Y-5.2953
X2.4803Y-5.3346
X2.5591Y-5.374
X2.6378Y-1.6929
X2.6378Y-2.126
X2.6378Y-2.3819
X2.6378Y-2.8346
X2.6378Y-3.1299
X2.6378Y-3.622
X2.6378Y-3.878
X2.6378Y-4.3504
X2.6378Y-5.2559
X2.7165Y-5.2953
X2.7953Y-5.3346
X2.874Y-5.374
X2.9134Y-2.9134
X2.9528Y-5.2559
X3.0315Y-5.2953
X3.1102Y-5.3346
X3.189Y-5.374
X3.2677Y-5.2559
X3.3465Y-5.2953
X3.3858Y-1.5748
X3.3858Y-2.0079
X3.3858Y-2.2638
X3.3858Y-2.7165
X3.3858Y-3.0118
X3.3858Y-3.5039
X3.3858Y-3.7598
X3.3858Y-4.252
X3.4252Y-5.3346
X3.5039Y-5.374
X3.5827Y-5.2559
X3.6614Y-5.2953
X3.6654Y-2.8346
X3.7402Y-5.3346
X3.8189Y-5.374
X4.1339Y-1.4547
X4.1339Y-1.8898
X4.1339Y-2.1457
X4.1339Y-2.5984
X4.1339Y-2.8937
X4.1339Y-3.3858
X4.1339Y-3.6417
X4.1339Y-4.1339
X4.1339Y-4.874
X4.4154Y-2.874
X4.7638Y-4.9803
X4.8819Y-1.5748
X4.8819Y-2.0079
X4.8819Y-2.2638
X4.8819Y-2.7165
X4.8819Y-3.0118
X4.8819Y-3.5039
X4.8819Y-3.7598
X4.8819Y-4.252
X5.1654Y-2.9921
X5.42Y-5.1585
X5.6299Y-1.6929
X5.6299Y-2.126
X5.6299Y-2.3819
X5.6299Y-2.8346
X5.6299Y-3.1299
X5.6299Y-3.622
X5.6299Y-3.878
X5.6299Y-4.3701
X5.6299Y-4.4587
X5.6483Y-5.0565
X5.9154Y-3.1102
X5.9744Y-4.5177
X6.0138Y-4.498
X6.2126Y-5.3858
X6.3378Y-4.7445
X6.378Y-1.811
X6.378Y-2.5
X6.378Y-3.248
X6.3976Y-2.2441
X6.3976Y-2.9528
X6.3976Y-3.7402
X6.4449Y-5.2756
X6.5157Y-4.3504
X6.6654Y-3.2283
X6.9291Y-5.7677
X6.9417Y-2.1725
X6.9794Y-2.2725
X6.9985Y-2.3725
X7.0198Y-2.4725
X7.041Y-2.5725
X7.0623Y-2.6725
X7.0669Y-5.0197
X7.0835Y-2.7725
X7.1272Y-2.4225
X7.1625Y-2.5225
X7.1806Y-2.6225
X7.1987Y-2.7225
X7.2155Y-2.8225
X7.2343Y-4.5965
X7.2497Y-2.0725
X7.2638Y-2.3228
X7.2991Y-1.9725
X7.3425Y-2.2244
X7.3425Y-2.3228
X7.3425Y-2.4213
X7.3425Y-2.5197
X7.3425Y-2.6181
X7.3425Y-2.7225
X7.3819Y-2.815
T2
X1.9291Y-4.8943
X1.9291Y-5.1943
X7.035Y-3.6811
X7.335Y-3.6811
X3.5827Y-4.8943
X3.5827Y-5.1943
X2.1654Y-4.8943
X2.1654Y-5.1943
X3.8189Y-4.8943
X3.8189Y-5.1943
X1.8504Y-4.8943
X1.8504Y-5.1943
X3.4252Y-4.8943
X3.4252Y-5.1943
X3.5039Y-4.8943
X3.5039Y-5.1943
X2.3228Y-4.8943
X2.3228Y-5.1943
X3.0315Y-4.8943
X3.0315Y-5.1943
X2.0866Y-4.8943
X2.0866Y-5.1943
X3.7402Y-4.8943
X3.7402Y-5.1943
X2.5591Y-4.8943
X2.5591Y-5.1943
X2.7953Y-4.8943
X2.7953Y-5.1943
X1.7717Y-4.8943
X1.7717Y-5.1943
X6.835Y-1.8225
X6.835Y-1.9225
X6.835Y-2.0225
X6.835Y-2.1225
X6.835Y-2.2225
X6.835Y-2.3225
X6.835Y-2.4225
X6.835Y-2.5225
X6.835Y-2.6225
X6.835Y-2.7225
X6.835Y-2.8225
X6.835Y-2.9225
X6.8873Y-1.7725
X6.8873Y-1.8725
X6.8873Y-1.9725
X6.8873Y-2.0725
X6.8873Y-2.1725
X6.8873Y-2.2725
X6.8873Y-2.3725
X6.8873Y-2.4725
X6.8873Y-2.5725
X6.8873Y-2.6725
X6.8873Y-2.7725
X6.8873Y-2.8725
X7.435Y-1.8225
X7.435Y-1.9225
X7.435Y-2.0225
X7.435Y-2.1225
X7.435Y-2.2225
X7.435Y-2.3225
X7.435Y-2.4225
X7.435Y-2.5225
X7.435Y-2.6225
X7.435Y-2.7225
X7.435Y-2.8225
X7.435Y-2.9225
X7.4865Y-1.7725
X7.4865Y-1.8725
X7.4865Y-1.9725
X7.4865Y-2.0725
X7.4865Y-2.1725
X7.4865Y-2.2725
X7.4865Y-2.3725
X7.4865Y-2.4725
X7.4865Y-2.5725
X7.4865Y-2.6725
X7.4865Y-2.7725
X7.4865Y-2.8725
X3.6614Y-4.8943
X3.6614Y-5.1943
X2.4803Y-4.8943
X2.4803Y-5.1943
X3.3465Y-4.8943
X3.3465Y-5.1943
X7.035Y-3.7795
X7.335Y-3.7795
X2.9528Y-4.8943
X2.9528Y-5.1943
X2.4016Y-4.8943
X2.4016Y-5.1943
X2.7165Y-4.8943
X2.7165Y-5.1943
X1.6929Y-4.8943
X1.6929Y-5.1943
X3.2677Y-4.8943
X3.2677Y-5.1943
X7.035Y-3.878
X7.335Y-3.878
X2.0079Y-4.8943
X2.0079Y-5.1943
X3.1102Y-4.8943
X3.1102Y-5.1943
X3.189Y-4.8943
X3.189Y-5.1943
X2.2441Y-4.8943
X2.2441Y-5.1943
X2.6378Y-4.8943
X2.6378Y-5.1943
X7.035Y-3.5827
X7.335Y-3.5827
X2.874Y-4.8943
X2.874Y-5.1943
T4
X7.3819Y-3.1398
X7.3819Y-3.3957
T3
G00X7.1004Y-4.248
M15
G01X7.0807Y-4.248
M16
G05
G00X7.1004Y-4.3445
M15
G01X7.0807Y-4.3445
M16
G05
G00X7.1594Y-4.1791
M15
G01X7.1398Y-4.1791
M16
G05
G00X7.1594Y-4.4134
M15
G01X7.1398Y-4.4134
M16
G05
G00X7.3169Y-4.1791
M15
G01X7.2972Y-4.1791
M16
G05
G00X7.3169Y-4.4134
M15
G01X7.2972Y-4.4134
M16
G05
G00X7.435Y-4.1791
M15
G01X7.4154Y-4.1791
M16
G05
G00X7.435Y-4.4134
M15
G01X7.4154Y-4.4134
M16
G05
T0
M30
