G04 #@! TF.GenerationSoftware,KiCad,Pcbnew,(5.1.4-0)*
G04 #@! TF.CreationDate,2020-11-23T17:49:07+01:00*
G04 #@! TF.ProjectId,stm32split,73746d33-3273-4706-9c69-742e6b696361,rev?*
G04 #@! TF.SameCoordinates,Original*
G04 #@! TF.FileFunction,Paste,Top*
G04 #@! TF.FilePolarity,Positive*
%FSLAX46Y46*%
G04 Gerber Fmt 4.6, Leading zero omitted, Abs format (unit mm)*
G04 Created by KiCad (PCBNEW (5.1.4-0)) date 2020-11-23 17:49:07*
%MOMM*%
%LPD*%
G04 APERTURE LIST*
%ADD10R,2.000000X2.400000*%
%ADD11R,0.600000X2.450000*%
%ADD12R,0.300000X2.450000*%
%ADD13C,0.100000*%
%ADD14C,0.875000*%
%ADD15C,1.425000*%
%ADD16R,1.200000X0.900000*%
%ADD17R,0.800000X0.900000*%
%ADD18C,0.300000*%
%ADD19R,0.650000X1.060000*%
G04 APERTURE END LIST*
D10*
X100640000Y-95740000D03*
X104340000Y-95740000D03*
D11*
X103221250Y-58032500D03*
X109671250Y-58032500D03*
X103996250Y-58032500D03*
X108896250Y-58032500D03*
D12*
X108196250Y-58032500D03*
X104696250Y-58032500D03*
X107696250Y-58032500D03*
X105196250Y-58032500D03*
X107196250Y-58032500D03*
X105696250Y-58032500D03*
X106196250Y-58032500D03*
X106696250Y-58032500D03*
D13*
G36*
X106702691Y-76286053D02*
G01*
X106723926Y-76289203D01*
X106744750Y-76294419D01*
X106764962Y-76301651D01*
X106784368Y-76310830D01*
X106802781Y-76321866D01*
X106820024Y-76334654D01*
X106835930Y-76349070D01*
X106850346Y-76364976D01*
X106863134Y-76382219D01*
X106874170Y-76400632D01*
X106883349Y-76420038D01*
X106890581Y-76440250D01*
X106895797Y-76461074D01*
X106898947Y-76482309D01*
X106900000Y-76503750D01*
X106900000Y-77016250D01*
X106898947Y-77037691D01*
X106895797Y-77058926D01*
X106890581Y-77079750D01*
X106883349Y-77099962D01*
X106874170Y-77119368D01*
X106863134Y-77137781D01*
X106850346Y-77155024D01*
X106835930Y-77170930D01*
X106820024Y-77185346D01*
X106802781Y-77198134D01*
X106784368Y-77209170D01*
X106764962Y-77218349D01*
X106744750Y-77225581D01*
X106723926Y-77230797D01*
X106702691Y-77233947D01*
X106681250Y-77235000D01*
X106243750Y-77235000D01*
X106222309Y-77233947D01*
X106201074Y-77230797D01*
X106180250Y-77225581D01*
X106160038Y-77218349D01*
X106140632Y-77209170D01*
X106122219Y-77198134D01*
X106104976Y-77185346D01*
X106089070Y-77170930D01*
X106074654Y-77155024D01*
X106061866Y-77137781D01*
X106050830Y-77119368D01*
X106041651Y-77099962D01*
X106034419Y-77079750D01*
X106029203Y-77058926D01*
X106026053Y-77037691D01*
X106025000Y-77016250D01*
X106025000Y-76503750D01*
X106026053Y-76482309D01*
X106029203Y-76461074D01*
X106034419Y-76440250D01*
X106041651Y-76420038D01*
X106050830Y-76400632D01*
X106061866Y-76382219D01*
X106074654Y-76364976D01*
X106089070Y-76349070D01*
X106104976Y-76334654D01*
X106122219Y-76321866D01*
X106140632Y-76310830D01*
X106160038Y-76301651D01*
X106180250Y-76294419D01*
X106201074Y-76289203D01*
X106222309Y-76286053D01*
X106243750Y-76285000D01*
X106681250Y-76285000D01*
X106702691Y-76286053D01*
X106702691Y-76286053D01*
G37*
D14*
X106462500Y-76760000D03*
D13*
G36*
X108277691Y-76286053D02*
G01*
X108298926Y-76289203D01*
X108319750Y-76294419D01*
X108339962Y-76301651D01*
X108359368Y-76310830D01*
X108377781Y-76321866D01*
X108395024Y-76334654D01*
X108410930Y-76349070D01*
X108425346Y-76364976D01*
X108438134Y-76382219D01*
X108449170Y-76400632D01*
X108458349Y-76420038D01*
X108465581Y-76440250D01*
X108470797Y-76461074D01*
X108473947Y-76482309D01*
X108475000Y-76503750D01*
X108475000Y-77016250D01*
X108473947Y-77037691D01*
X108470797Y-77058926D01*
X108465581Y-77079750D01*
X108458349Y-77099962D01*
X108449170Y-77119368D01*
X108438134Y-77137781D01*
X108425346Y-77155024D01*
X108410930Y-77170930D01*
X108395024Y-77185346D01*
X108377781Y-77198134D01*
X108359368Y-77209170D01*
X108339962Y-77218349D01*
X108319750Y-77225581D01*
X108298926Y-77230797D01*
X108277691Y-77233947D01*
X108256250Y-77235000D01*
X107818750Y-77235000D01*
X107797309Y-77233947D01*
X107776074Y-77230797D01*
X107755250Y-77225581D01*
X107735038Y-77218349D01*
X107715632Y-77209170D01*
X107697219Y-77198134D01*
X107679976Y-77185346D01*
X107664070Y-77170930D01*
X107649654Y-77155024D01*
X107636866Y-77137781D01*
X107625830Y-77119368D01*
X107616651Y-77099962D01*
X107609419Y-77079750D01*
X107604203Y-77058926D01*
X107601053Y-77037691D01*
X107600000Y-77016250D01*
X107600000Y-76503750D01*
X107601053Y-76482309D01*
X107604203Y-76461074D01*
X107609419Y-76440250D01*
X107616651Y-76420038D01*
X107625830Y-76400632D01*
X107636866Y-76382219D01*
X107649654Y-76364976D01*
X107664070Y-76349070D01*
X107679976Y-76334654D01*
X107697219Y-76321866D01*
X107715632Y-76310830D01*
X107735038Y-76301651D01*
X107755250Y-76294419D01*
X107776074Y-76289203D01*
X107797309Y-76286053D01*
X107818750Y-76285000D01*
X108256250Y-76285000D01*
X108277691Y-76286053D01*
X108277691Y-76286053D01*
G37*
D14*
X108037500Y-76760000D03*
D13*
G36*
X105685191Y-92556053D02*
G01*
X105706426Y-92559203D01*
X105727250Y-92564419D01*
X105747462Y-92571651D01*
X105766868Y-92580830D01*
X105785281Y-92591866D01*
X105802524Y-92604654D01*
X105818430Y-92619070D01*
X105832846Y-92634976D01*
X105845634Y-92652219D01*
X105856670Y-92670632D01*
X105865849Y-92690038D01*
X105873081Y-92710250D01*
X105878297Y-92731074D01*
X105881447Y-92752309D01*
X105882500Y-92773750D01*
X105882500Y-93286250D01*
X105881447Y-93307691D01*
X105878297Y-93328926D01*
X105873081Y-93349750D01*
X105865849Y-93369962D01*
X105856670Y-93389368D01*
X105845634Y-93407781D01*
X105832846Y-93425024D01*
X105818430Y-93440930D01*
X105802524Y-93455346D01*
X105785281Y-93468134D01*
X105766868Y-93479170D01*
X105747462Y-93488349D01*
X105727250Y-93495581D01*
X105706426Y-93500797D01*
X105685191Y-93503947D01*
X105663750Y-93505000D01*
X105226250Y-93505000D01*
X105204809Y-93503947D01*
X105183574Y-93500797D01*
X105162750Y-93495581D01*
X105142538Y-93488349D01*
X105123132Y-93479170D01*
X105104719Y-93468134D01*
X105087476Y-93455346D01*
X105071570Y-93440930D01*
X105057154Y-93425024D01*
X105044366Y-93407781D01*
X105033330Y-93389368D01*
X105024151Y-93369962D01*
X105016919Y-93349750D01*
X105011703Y-93328926D01*
X105008553Y-93307691D01*
X105007500Y-93286250D01*
X105007500Y-92773750D01*
X105008553Y-92752309D01*
X105011703Y-92731074D01*
X105016919Y-92710250D01*
X105024151Y-92690038D01*
X105033330Y-92670632D01*
X105044366Y-92652219D01*
X105057154Y-92634976D01*
X105071570Y-92619070D01*
X105087476Y-92604654D01*
X105104719Y-92591866D01*
X105123132Y-92580830D01*
X105142538Y-92571651D01*
X105162750Y-92564419D01*
X105183574Y-92559203D01*
X105204809Y-92556053D01*
X105226250Y-92555000D01*
X105663750Y-92555000D01*
X105685191Y-92556053D01*
X105685191Y-92556053D01*
G37*
D14*
X105445000Y-93030000D03*
D13*
G36*
X104110191Y-92556053D02*
G01*
X104131426Y-92559203D01*
X104152250Y-92564419D01*
X104172462Y-92571651D01*
X104191868Y-92580830D01*
X104210281Y-92591866D01*
X104227524Y-92604654D01*
X104243430Y-92619070D01*
X104257846Y-92634976D01*
X104270634Y-92652219D01*
X104281670Y-92670632D01*
X104290849Y-92690038D01*
X104298081Y-92710250D01*
X104303297Y-92731074D01*
X104306447Y-92752309D01*
X104307500Y-92773750D01*
X104307500Y-93286250D01*
X104306447Y-93307691D01*
X104303297Y-93328926D01*
X104298081Y-93349750D01*
X104290849Y-93369962D01*
X104281670Y-93389368D01*
X104270634Y-93407781D01*
X104257846Y-93425024D01*
X104243430Y-93440930D01*
X104227524Y-93455346D01*
X104210281Y-93468134D01*
X104191868Y-93479170D01*
X104172462Y-93488349D01*
X104152250Y-93495581D01*
X104131426Y-93500797D01*
X104110191Y-93503947D01*
X104088750Y-93505000D01*
X103651250Y-93505000D01*
X103629809Y-93503947D01*
X103608574Y-93500797D01*
X103587750Y-93495581D01*
X103567538Y-93488349D01*
X103548132Y-93479170D01*
X103529719Y-93468134D01*
X103512476Y-93455346D01*
X103496570Y-93440930D01*
X103482154Y-93425024D01*
X103469366Y-93407781D01*
X103458330Y-93389368D01*
X103449151Y-93369962D01*
X103441919Y-93349750D01*
X103436703Y-93328926D01*
X103433553Y-93307691D01*
X103432500Y-93286250D01*
X103432500Y-92773750D01*
X103433553Y-92752309D01*
X103436703Y-92731074D01*
X103441919Y-92710250D01*
X103449151Y-92690038D01*
X103458330Y-92670632D01*
X103469366Y-92652219D01*
X103482154Y-92634976D01*
X103496570Y-92619070D01*
X103512476Y-92604654D01*
X103529719Y-92591866D01*
X103548132Y-92580830D01*
X103567538Y-92571651D01*
X103587750Y-92564419D01*
X103608574Y-92559203D01*
X103629809Y-92556053D01*
X103651250Y-92555000D01*
X104088750Y-92555000D01*
X104110191Y-92556053D01*
X104110191Y-92556053D01*
G37*
D14*
X103870000Y-93030000D03*
D13*
G36*
X105677691Y-91023553D02*
G01*
X105698926Y-91026703D01*
X105719750Y-91031919D01*
X105739962Y-91039151D01*
X105759368Y-91048330D01*
X105777781Y-91059366D01*
X105795024Y-91072154D01*
X105810930Y-91086570D01*
X105825346Y-91102476D01*
X105838134Y-91119719D01*
X105849170Y-91138132D01*
X105858349Y-91157538D01*
X105865581Y-91177750D01*
X105870797Y-91198574D01*
X105873947Y-91219809D01*
X105875000Y-91241250D01*
X105875000Y-91753750D01*
X105873947Y-91775191D01*
X105870797Y-91796426D01*
X105865581Y-91817250D01*
X105858349Y-91837462D01*
X105849170Y-91856868D01*
X105838134Y-91875281D01*
X105825346Y-91892524D01*
X105810930Y-91908430D01*
X105795024Y-91922846D01*
X105777781Y-91935634D01*
X105759368Y-91946670D01*
X105739962Y-91955849D01*
X105719750Y-91963081D01*
X105698926Y-91968297D01*
X105677691Y-91971447D01*
X105656250Y-91972500D01*
X105218750Y-91972500D01*
X105197309Y-91971447D01*
X105176074Y-91968297D01*
X105155250Y-91963081D01*
X105135038Y-91955849D01*
X105115632Y-91946670D01*
X105097219Y-91935634D01*
X105079976Y-91922846D01*
X105064070Y-91908430D01*
X105049654Y-91892524D01*
X105036866Y-91875281D01*
X105025830Y-91856868D01*
X105016651Y-91837462D01*
X105009419Y-91817250D01*
X105004203Y-91796426D01*
X105001053Y-91775191D01*
X105000000Y-91753750D01*
X105000000Y-91241250D01*
X105001053Y-91219809D01*
X105004203Y-91198574D01*
X105009419Y-91177750D01*
X105016651Y-91157538D01*
X105025830Y-91138132D01*
X105036866Y-91119719D01*
X105049654Y-91102476D01*
X105064070Y-91086570D01*
X105079976Y-91072154D01*
X105097219Y-91059366D01*
X105115632Y-91048330D01*
X105135038Y-91039151D01*
X105155250Y-91031919D01*
X105176074Y-91026703D01*
X105197309Y-91023553D01*
X105218750Y-91022500D01*
X105656250Y-91022500D01*
X105677691Y-91023553D01*
X105677691Y-91023553D01*
G37*
D14*
X105437500Y-91497500D03*
D13*
G36*
X104102691Y-91023553D02*
G01*
X104123926Y-91026703D01*
X104144750Y-91031919D01*
X104164962Y-91039151D01*
X104184368Y-91048330D01*
X104202781Y-91059366D01*
X104220024Y-91072154D01*
X104235930Y-91086570D01*
X104250346Y-91102476D01*
X104263134Y-91119719D01*
X104274170Y-91138132D01*
X104283349Y-91157538D01*
X104290581Y-91177750D01*
X104295797Y-91198574D01*
X104298947Y-91219809D01*
X104300000Y-91241250D01*
X104300000Y-91753750D01*
X104298947Y-91775191D01*
X104295797Y-91796426D01*
X104290581Y-91817250D01*
X104283349Y-91837462D01*
X104274170Y-91856868D01*
X104263134Y-91875281D01*
X104250346Y-91892524D01*
X104235930Y-91908430D01*
X104220024Y-91922846D01*
X104202781Y-91935634D01*
X104184368Y-91946670D01*
X104164962Y-91955849D01*
X104144750Y-91963081D01*
X104123926Y-91968297D01*
X104102691Y-91971447D01*
X104081250Y-91972500D01*
X103643750Y-91972500D01*
X103622309Y-91971447D01*
X103601074Y-91968297D01*
X103580250Y-91963081D01*
X103560038Y-91955849D01*
X103540632Y-91946670D01*
X103522219Y-91935634D01*
X103504976Y-91922846D01*
X103489070Y-91908430D01*
X103474654Y-91892524D01*
X103461866Y-91875281D01*
X103450830Y-91856868D01*
X103441651Y-91837462D01*
X103434419Y-91817250D01*
X103429203Y-91796426D01*
X103426053Y-91775191D01*
X103425000Y-91753750D01*
X103425000Y-91241250D01*
X103426053Y-91219809D01*
X103429203Y-91198574D01*
X103434419Y-91177750D01*
X103441651Y-91157538D01*
X103450830Y-91138132D01*
X103461866Y-91119719D01*
X103474654Y-91102476D01*
X103489070Y-91086570D01*
X103504976Y-91072154D01*
X103522219Y-91059366D01*
X103540632Y-91048330D01*
X103560038Y-91039151D01*
X103580250Y-91031919D01*
X103601074Y-91026703D01*
X103622309Y-91023553D01*
X103643750Y-91022500D01*
X104081250Y-91022500D01*
X104102691Y-91023553D01*
X104102691Y-91023553D01*
G37*
D14*
X103862500Y-91497500D03*
D13*
G36*
X99277691Y-90583553D02*
G01*
X99298926Y-90586703D01*
X99319750Y-90591919D01*
X99339962Y-90599151D01*
X99359368Y-90608330D01*
X99377781Y-90619366D01*
X99395024Y-90632154D01*
X99410930Y-90646570D01*
X99425346Y-90662476D01*
X99438134Y-90679719D01*
X99449170Y-90698132D01*
X99458349Y-90717538D01*
X99465581Y-90737750D01*
X99470797Y-90758574D01*
X99473947Y-90779809D01*
X99475000Y-90801250D01*
X99475000Y-91238750D01*
X99473947Y-91260191D01*
X99470797Y-91281426D01*
X99465581Y-91302250D01*
X99458349Y-91322462D01*
X99449170Y-91341868D01*
X99438134Y-91360281D01*
X99425346Y-91377524D01*
X99410930Y-91393430D01*
X99395024Y-91407846D01*
X99377781Y-91420634D01*
X99359368Y-91431670D01*
X99339962Y-91440849D01*
X99319750Y-91448081D01*
X99298926Y-91453297D01*
X99277691Y-91456447D01*
X99256250Y-91457500D01*
X98743750Y-91457500D01*
X98722309Y-91456447D01*
X98701074Y-91453297D01*
X98680250Y-91448081D01*
X98660038Y-91440849D01*
X98640632Y-91431670D01*
X98622219Y-91420634D01*
X98604976Y-91407846D01*
X98589070Y-91393430D01*
X98574654Y-91377524D01*
X98561866Y-91360281D01*
X98550830Y-91341868D01*
X98541651Y-91322462D01*
X98534419Y-91302250D01*
X98529203Y-91281426D01*
X98526053Y-91260191D01*
X98525000Y-91238750D01*
X98525000Y-90801250D01*
X98526053Y-90779809D01*
X98529203Y-90758574D01*
X98534419Y-90737750D01*
X98541651Y-90717538D01*
X98550830Y-90698132D01*
X98561866Y-90679719D01*
X98574654Y-90662476D01*
X98589070Y-90646570D01*
X98604976Y-90632154D01*
X98622219Y-90619366D01*
X98640632Y-90608330D01*
X98660038Y-90599151D01*
X98680250Y-90591919D01*
X98701074Y-90586703D01*
X98722309Y-90583553D01*
X98743750Y-90582500D01*
X99256250Y-90582500D01*
X99277691Y-90583553D01*
X99277691Y-90583553D01*
G37*
D14*
X99000000Y-91020000D03*
D13*
G36*
X99277691Y-92158553D02*
G01*
X99298926Y-92161703D01*
X99319750Y-92166919D01*
X99339962Y-92174151D01*
X99359368Y-92183330D01*
X99377781Y-92194366D01*
X99395024Y-92207154D01*
X99410930Y-92221570D01*
X99425346Y-92237476D01*
X99438134Y-92254719D01*
X99449170Y-92273132D01*
X99458349Y-92292538D01*
X99465581Y-92312750D01*
X99470797Y-92333574D01*
X99473947Y-92354809D01*
X99475000Y-92376250D01*
X99475000Y-92813750D01*
X99473947Y-92835191D01*
X99470797Y-92856426D01*
X99465581Y-92877250D01*
X99458349Y-92897462D01*
X99449170Y-92916868D01*
X99438134Y-92935281D01*
X99425346Y-92952524D01*
X99410930Y-92968430D01*
X99395024Y-92982846D01*
X99377781Y-92995634D01*
X99359368Y-93006670D01*
X99339962Y-93015849D01*
X99319750Y-93023081D01*
X99298926Y-93028297D01*
X99277691Y-93031447D01*
X99256250Y-93032500D01*
X98743750Y-93032500D01*
X98722309Y-93031447D01*
X98701074Y-93028297D01*
X98680250Y-93023081D01*
X98660038Y-93015849D01*
X98640632Y-93006670D01*
X98622219Y-92995634D01*
X98604976Y-92982846D01*
X98589070Y-92968430D01*
X98574654Y-92952524D01*
X98561866Y-92935281D01*
X98550830Y-92916868D01*
X98541651Y-92897462D01*
X98534419Y-92877250D01*
X98529203Y-92856426D01*
X98526053Y-92835191D01*
X98525000Y-92813750D01*
X98525000Y-92376250D01*
X98526053Y-92354809D01*
X98529203Y-92333574D01*
X98534419Y-92312750D01*
X98541651Y-92292538D01*
X98550830Y-92273132D01*
X98561866Y-92254719D01*
X98574654Y-92237476D01*
X98589070Y-92221570D01*
X98604976Y-92207154D01*
X98622219Y-92194366D01*
X98640632Y-92183330D01*
X98660038Y-92174151D01*
X98680250Y-92166919D01*
X98701074Y-92161703D01*
X98722309Y-92158553D01*
X98743750Y-92157500D01*
X99256250Y-92157500D01*
X99277691Y-92158553D01*
X99277691Y-92158553D01*
G37*
D14*
X99000000Y-92595000D03*
D13*
G36*
X96830191Y-79066053D02*
G01*
X96851426Y-79069203D01*
X96872250Y-79074419D01*
X96892462Y-79081651D01*
X96911868Y-79090830D01*
X96930281Y-79101866D01*
X96947524Y-79114654D01*
X96963430Y-79129070D01*
X96977846Y-79144976D01*
X96990634Y-79162219D01*
X97001670Y-79180632D01*
X97010849Y-79200038D01*
X97018081Y-79220250D01*
X97023297Y-79241074D01*
X97026447Y-79262309D01*
X97027500Y-79283750D01*
X97027500Y-79796250D01*
X97026447Y-79817691D01*
X97023297Y-79838926D01*
X97018081Y-79859750D01*
X97010849Y-79879962D01*
X97001670Y-79899368D01*
X96990634Y-79917781D01*
X96977846Y-79935024D01*
X96963430Y-79950930D01*
X96947524Y-79965346D01*
X96930281Y-79978134D01*
X96911868Y-79989170D01*
X96892462Y-79998349D01*
X96872250Y-80005581D01*
X96851426Y-80010797D01*
X96830191Y-80013947D01*
X96808750Y-80015000D01*
X96371250Y-80015000D01*
X96349809Y-80013947D01*
X96328574Y-80010797D01*
X96307750Y-80005581D01*
X96287538Y-79998349D01*
X96268132Y-79989170D01*
X96249719Y-79978134D01*
X96232476Y-79965346D01*
X96216570Y-79950930D01*
X96202154Y-79935024D01*
X96189366Y-79917781D01*
X96178330Y-79899368D01*
X96169151Y-79879962D01*
X96161919Y-79859750D01*
X96156703Y-79838926D01*
X96153553Y-79817691D01*
X96152500Y-79796250D01*
X96152500Y-79283750D01*
X96153553Y-79262309D01*
X96156703Y-79241074D01*
X96161919Y-79220250D01*
X96169151Y-79200038D01*
X96178330Y-79180632D01*
X96189366Y-79162219D01*
X96202154Y-79144976D01*
X96216570Y-79129070D01*
X96232476Y-79114654D01*
X96249719Y-79101866D01*
X96268132Y-79090830D01*
X96287538Y-79081651D01*
X96307750Y-79074419D01*
X96328574Y-79069203D01*
X96349809Y-79066053D01*
X96371250Y-79065000D01*
X96808750Y-79065000D01*
X96830191Y-79066053D01*
X96830191Y-79066053D01*
G37*
D14*
X96590000Y-79540000D03*
D13*
G36*
X98405191Y-79066053D02*
G01*
X98426426Y-79069203D01*
X98447250Y-79074419D01*
X98467462Y-79081651D01*
X98486868Y-79090830D01*
X98505281Y-79101866D01*
X98522524Y-79114654D01*
X98538430Y-79129070D01*
X98552846Y-79144976D01*
X98565634Y-79162219D01*
X98576670Y-79180632D01*
X98585849Y-79200038D01*
X98593081Y-79220250D01*
X98598297Y-79241074D01*
X98601447Y-79262309D01*
X98602500Y-79283750D01*
X98602500Y-79796250D01*
X98601447Y-79817691D01*
X98598297Y-79838926D01*
X98593081Y-79859750D01*
X98585849Y-79879962D01*
X98576670Y-79899368D01*
X98565634Y-79917781D01*
X98552846Y-79935024D01*
X98538430Y-79950930D01*
X98522524Y-79965346D01*
X98505281Y-79978134D01*
X98486868Y-79989170D01*
X98467462Y-79998349D01*
X98447250Y-80005581D01*
X98426426Y-80010797D01*
X98405191Y-80013947D01*
X98383750Y-80015000D01*
X97946250Y-80015000D01*
X97924809Y-80013947D01*
X97903574Y-80010797D01*
X97882750Y-80005581D01*
X97862538Y-79998349D01*
X97843132Y-79989170D01*
X97824719Y-79978134D01*
X97807476Y-79965346D01*
X97791570Y-79950930D01*
X97777154Y-79935024D01*
X97764366Y-79917781D01*
X97753330Y-79899368D01*
X97744151Y-79879962D01*
X97736919Y-79859750D01*
X97731703Y-79838926D01*
X97728553Y-79817691D01*
X97727500Y-79796250D01*
X97727500Y-79283750D01*
X97728553Y-79262309D01*
X97731703Y-79241074D01*
X97736919Y-79220250D01*
X97744151Y-79200038D01*
X97753330Y-79180632D01*
X97764366Y-79162219D01*
X97777154Y-79144976D01*
X97791570Y-79129070D01*
X97807476Y-79114654D01*
X97824719Y-79101866D01*
X97843132Y-79090830D01*
X97862538Y-79081651D01*
X97882750Y-79074419D01*
X97903574Y-79069203D01*
X97924809Y-79066053D01*
X97946250Y-79065000D01*
X98383750Y-79065000D01*
X98405191Y-79066053D01*
X98405191Y-79066053D01*
G37*
D14*
X98165000Y-79540000D03*
D13*
G36*
X108410191Y-81126053D02*
G01*
X108431426Y-81129203D01*
X108452250Y-81134419D01*
X108472462Y-81141651D01*
X108491868Y-81150830D01*
X108510281Y-81161866D01*
X108527524Y-81174654D01*
X108543430Y-81189070D01*
X108557846Y-81204976D01*
X108570634Y-81222219D01*
X108581670Y-81240632D01*
X108590849Y-81260038D01*
X108598081Y-81280250D01*
X108603297Y-81301074D01*
X108606447Y-81322309D01*
X108607500Y-81343750D01*
X108607500Y-81856250D01*
X108606447Y-81877691D01*
X108603297Y-81898926D01*
X108598081Y-81919750D01*
X108590849Y-81939962D01*
X108581670Y-81959368D01*
X108570634Y-81977781D01*
X108557846Y-81995024D01*
X108543430Y-82010930D01*
X108527524Y-82025346D01*
X108510281Y-82038134D01*
X108491868Y-82049170D01*
X108472462Y-82058349D01*
X108452250Y-82065581D01*
X108431426Y-82070797D01*
X108410191Y-82073947D01*
X108388750Y-82075000D01*
X107951250Y-82075000D01*
X107929809Y-82073947D01*
X107908574Y-82070797D01*
X107887750Y-82065581D01*
X107867538Y-82058349D01*
X107848132Y-82049170D01*
X107829719Y-82038134D01*
X107812476Y-82025346D01*
X107796570Y-82010930D01*
X107782154Y-81995024D01*
X107769366Y-81977781D01*
X107758330Y-81959368D01*
X107749151Y-81939962D01*
X107741919Y-81919750D01*
X107736703Y-81898926D01*
X107733553Y-81877691D01*
X107732500Y-81856250D01*
X107732500Y-81343750D01*
X107733553Y-81322309D01*
X107736703Y-81301074D01*
X107741919Y-81280250D01*
X107749151Y-81260038D01*
X107758330Y-81240632D01*
X107769366Y-81222219D01*
X107782154Y-81204976D01*
X107796570Y-81189070D01*
X107812476Y-81174654D01*
X107829719Y-81161866D01*
X107848132Y-81150830D01*
X107867538Y-81141651D01*
X107887750Y-81134419D01*
X107908574Y-81129203D01*
X107929809Y-81126053D01*
X107951250Y-81125000D01*
X108388750Y-81125000D01*
X108410191Y-81126053D01*
X108410191Y-81126053D01*
G37*
D14*
X108170000Y-81600000D03*
D13*
G36*
X109985191Y-81126053D02*
G01*
X110006426Y-81129203D01*
X110027250Y-81134419D01*
X110047462Y-81141651D01*
X110066868Y-81150830D01*
X110085281Y-81161866D01*
X110102524Y-81174654D01*
X110118430Y-81189070D01*
X110132846Y-81204976D01*
X110145634Y-81222219D01*
X110156670Y-81240632D01*
X110165849Y-81260038D01*
X110173081Y-81280250D01*
X110178297Y-81301074D01*
X110181447Y-81322309D01*
X110182500Y-81343750D01*
X110182500Y-81856250D01*
X110181447Y-81877691D01*
X110178297Y-81898926D01*
X110173081Y-81919750D01*
X110165849Y-81939962D01*
X110156670Y-81959368D01*
X110145634Y-81977781D01*
X110132846Y-81995024D01*
X110118430Y-82010930D01*
X110102524Y-82025346D01*
X110085281Y-82038134D01*
X110066868Y-82049170D01*
X110047462Y-82058349D01*
X110027250Y-82065581D01*
X110006426Y-82070797D01*
X109985191Y-82073947D01*
X109963750Y-82075000D01*
X109526250Y-82075000D01*
X109504809Y-82073947D01*
X109483574Y-82070797D01*
X109462750Y-82065581D01*
X109442538Y-82058349D01*
X109423132Y-82049170D01*
X109404719Y-82038134D01*
X109387476Y-82025346D01*
X109371570Y-82010930D01*
X109357154Y-81995024D01*
X109344366Y-81977781D01*
X109333330Y-81959368D01*
X109324151Y-81939962D01*
X109316919Y-81919750D01*
X109311703Y-81898926D01*
X109308553Y-81877691D01*
X109307500Y-81856250D01*
X109307500Y-81343750D01*
X109308553Y-81322309D01*
X109311703Y-81301074D01*
X109316919Y-81280250D01*
X109324151Y-81260038D01*
X109333330Y-81240632D01*
X109344366Y-81222219D01*
X109357154Y-81204976D01*
X109371570Y-81189070D01*
X109387476Y-81174654D01*
X109404719Y-81161866D01*
X109423132Y-81150830D01*
X109442538Y-81141651D01*
X109462750Y-81134419D01*
X109483574Y-81129203D01*
X109504809Y-81126053D01*
X109526250Y-81125000D01*
X109963750Y-81125000D01*
X109985191Y-81126053D01*
X109985191Y-81126053D01*
G37*
D14*
X109745000Y-81600000D03*
D13*
G36*
X97710191Y-89046053D02*
G01*
X97731426Y-89049203D01*
X97752250Y-89054419D01*
X97772462Y-89061651D01*
X97791868Y-89070830D01*
X97810281Y-89081866D01*
X97827524Y-89094654D01*
X97843430Y-89109070D01*
X97857846Y-89124976D01*
X97870634Y-89142219D01*
X97881670Y-89160632D01*
X97890849Y-89180038D01*
X97898081Y-89200250D01*
X97903297Y-89221074D01*
X97906447Y-89242309D01*
X97907500Y-89263750D01*
X97907500Y-89776250D01*
X97906447Y-89797691D01*
X97903297Y-89818926D01*
X97898081Y-89839750D01*
X97890849Y-89859962D01*
X97881670Y-89879368D01*
X97870634Y-89897781D01*
X97857846Y-89915024D01*
X97843430Y-89930930D01*
X97827524Y-89945346D01*
X97810281Y-89958134D01*
X97791868Y-89969170D01*
X97772462Y-89978349D01*
X97752250Y-89985581D01*
X97731426Y-89990797D01*
X97710191Y-89993947D01*
X97688750Y-89995000D01*
X97251250Y-89995000D01*
X97229809Y-89993947D01*
X97208574Y-89990797D01*
X97187750Y-89985581D01*
X97167538Y-89978349D01*
X97148132Y-89969170D01*
X97129719Y-89958134D01*
X97112476Y-89945346D01*
X97096570Y-89930930D01*
X97082154Y-89915024D01*
X97069366Y-89897781D01*
X97058330Y-89879368D01*
X97049151Y-89859962D01*
X97041919Y-89839750D01*
X97036703Y-89818926D01*
X97033553Y-89797691D01*
X97032500Y-89776250D01*
X97032500Y-89263750D01*
X97033553Y-89242309D01*
X97036703Y-89221074D01*
X97041919Y-89200250D01*
X97049151Y-89180038D01*
X97058330Y-89160632D01*
X97069366Y-89142219D01*
X97082154Y-89124976D01*
X97096570Y-89109070D01*
X97112476Y-89094654D01*
X97129719Y-89081866D01*
X97148132Y-89070830D01*
X97167538Y-89061651D01*
X97187750Y-89054419D01*
X97208574Y-89049203D01*
X97229809Y-89046053D01*
X97251250Y-89045000D01*
X97688750Y-89045000D01*
X97710191Y-89046053D01*
X97710191Y-89046053D01*
G37*
D14*
X97470000Y-89520000D03*
D13*
G36*
X96135191Y-89046053D02*
G01*
X96156426Y-89049203D01*
X96177250Y-89054419D01*
X96197462Y-89061651D01*
X96216868Y-89070830D01*
X96235281Y-89081866D01*
X96252524Y-89094654D01*
X96268430Y-89109070D01*
X96282846Y-89124976D01*
X96295634Y-89142219D01*
X96306670Y-89160632D01*
X96315849Y-89180038D01*
X96323081Y-89200250D01*
X96328297Y-89221074D01*
X96331447Y-89242309D01*
X96332500Y-89263750D01*
X96332500Y-89776250D01*
X96331447Y-89797691D01*
X96328297Y-89818926D01*
X96323081Y-89839750D01*
X96315849Y-89859962D01*
X96306670Y-89879368D01*
X96295634Y-89897781D01*
X96282846Y-89915024D01*
X96268430Y-89930930D01*
X96252524Y-89945346D01*
X96235281Y-89958134D01*
X96216868Y-89969170D01*
X96197462Y-89978349D01*
X96177250Y-89985581D01*
X96156426Y-89990797D01*
X96135191Y-89993947D01*
X96113750Y-89995000D01*
X95676250Y-89995000D01*
X95654809Y-89993947D01*
X95633574Y-89990797D01*
X95612750Y-89985581D01*
X95592538Y-89978349D01*
X95573132Y-89969170D01*
X95554719Y-89958134D01*
X95537476Y-89945346D01*
X95521570Y-89930930D01*
X95507154Y-89915024D01*
X95494366Y-89897781D01*
X95483330Y-89879368D01*
X95474151Y-89859962D01*
X95466919Y-89839750D01*
X95461703Y-89818926D01*
X95458553Y-89797691D01*
X95457500Y-89776250D01*
X95457500Y-89263750D01*
X95458553Y-89242309D01*
X95461703Y-89221074D01*
X95466919Y-89200250D01*
X95474151Y-89180038D01*
X95483330Y-89160632D01*
X95494366Y-89142219D01*
X95507154Y-89124976D01*
X95521570Y-89109070D01*
X95537476Y-89094654D01*
X95554719Y-89081866D01*
X95573132Y-89070830D01*
X95592538Y-89061651D01*
X95612750Y-89054419D01*
X95633574Y-89049203D01*
X95654809Y-89046053D01*
X95676250Y-89045000D01*
X96113750Y-89045000D01*
X96135191Y-89046053D01*
X96135191Y-89046053D01*
G37*
D14*
X95895000Y-89520000D03*
D13*
G36*
X101000191Y-75516053D02*
G01*
X101021426Y-75519203D01*
X101042250Y-75524419D01*
X101062462Y-75531651D01*
X101081868Y-75540830D01*
X101100281Y-75551866D01*
X101117524Y-75564654D01*
X101133430Y-75579070D01*
X101147846Y-75594976D01*
X101160634Y-75612219D01*
X101171670Y-75630632D01*
X101180849Y-75650038D01*
X101188081Y-75670250D01*
X101193297Y-75691074D01*
X101196447Y-75712309D01*
X101197500Y-75733750D01*
X101197500Y-76246250D01*
X101196447Y-76267691D01*
X101193297Y-76288926D01*
X101188081Y-76309750D01*
X101180849Y-76329962D01*
X101171670Y-76349368D01*
X101160634Y-76367781D01*
X101147846Y-76385024D01*
X101133430Y-76400930D01*
X101117524Y-76415346D01*
X101100281Y-76428134D01*
X101081868Y-76439170D01*
X101062462Y-76448349D01*
X101042250Y-76455581D01*
X101021426Y-76460797D01*
X101000191Y-76463947D01*
X100978750Y-76465000D01*
X100541250Y-76465000D01*
X100519809Y-76463947D01*
X100498574Y-76460797D01*
X100477750Y-76455581D01*
X100457538Y-76448349D01*
X100438132Y-76439170D01*
X100419719Y-76428134D01*
X100402476Y-76415346D01*
X100386570Y-76400930D01*
X100372154Y-76385024D01*
X100359366Y-76367781D01*
X100348330Y-76349368D01*
X100339151Y-76329962D01*
X100331919Y-76309750D01*
X100326703Y-76288926D01*
X100323553Y-76267691D01*
X100322500Y-76246250D01*
X100322500Y-75733750D01*
X100323553Y-75712309D01*
X100326703Y-75691074D01*
X100331919Y-75670250D01*
X100339151Y-75650038D01*
X100348330Y-75630632D01*
X100359366Y-75612219D01*
X100372154Y-75594976D01*
X100386570Y-75579070D01*
X100402476Y-75564654D01*
X100419719Y-75551866D01*
X100438132Y-75540830D01*
X100457538Y-75531651D01*
X100477750Y-75524419D01*
X100498574Y-75519203D01*
X100519809Y-75516053D01*
X100541250Y-75515000D01*
X100978750Y-75515000D01*
X101000191Y-75516053D01*
X101000191Y-75516053D01*
G37*
D14*
X100760000Y-75990000D03*
D13*
G36*
X99425191Y-75516053D02*
G01*
X99446426Y-75519203D01*
X99467250Y-75524419D01*
X99487462Y-75531651D01*
X99506868Y-75540830D01*
X99525281Y-75551866D01*
X99542524Y-75564654D01*
X99558430Y-75579070D01*
X99572846Y-75594976D01*
X99585634Y-75612219D01*
X99596670Y-75630632D01*
X99605849Y-75650038D01*
X99613081Y-75670250D01*
X99618297Y-75691074D01*
X99621447Y-75712309D01*
X99622500Y-75733750D01*
X99622500Y-76246250D01*
X99621447Y-76267691D01*
X99618297Y-76288926D01*
X99613081Y-76309750D01*
X99605849Y-76329962D01*
X99596670Y-76349368D01*
X99585634Y-76367781D01*
X99572846Y-76385024D01*
X99558430Y-76400930D01*
X99542524Y-76415346D01*
X99525281Y-76428134D01*
X99506868Y-76439170D01*
X99487462Y-76448349D01*
X99467250Y-76455581D01*
X99446426Y-76460797D01*
X99425191Y-76463947D01*
X99403750Y-76465000D01*
X98966250Y-76465000D01*
X98944809Y-76463947D01*
X98923574Y-76460797D01*
X98902750Y-76455581D01*
X98882538Y-76448349D01*
X98863132Y-76439170D01*
X98844719Y-76428134D01*
X98827476Y-76415346D01*
X98811570Y-76400930D01*
X98797154Y-76385024D01*
X98784366Y-76367781D01*
X98773330Y-76349368D01*
X98764151Y-76329962D01*
X98756919Y-76309750D01*
X98751703Y-76288926D01*
X98748553Y-76267691D01*
X98747500Y-76246250D01*
X98747500Y-75733750D01*
X98748553Y-75712309D01*
X98751703Y-75691074D01*
X98756919Y-75670250D01*
X98764151Y-75650038D01*
X98773330Y-75630632D01*
X98784366Y-75612219D01*
X98797154Y-75594976D01*
X98811570Y-75579070D01*
X98827476Y-75564654D01*
X98844719Y-75551866D01*
X98863132Y-75540830D01*
X98882538Y-75531651D01*
X98902750Y-75524419D01*
X98923574Y-75519203D01*
X98944809Y-75516053D01*
X98966250Y-75515000D01*
X99403750Y-75515000D01*
X99425191Y-75516053D01*
X99425191Y-75516053D01*
G37*
D14*
X99185000Y-75990000D03*
D13*
G36*
X104130191Y-62076053D02*
G01*
X104151426Y-62079203D01*
X104172250Y-62084419D01*
X104192462Y-62091651D01*
X104211868Y-62100830D01*
X104230281Y-62111866D01*
X104247524Y-62124654D01*
X104263430Y-62139070D01*
X104277846Y-62154976D01*
X104290634Y-62172219D01*
X104301670Y-62190632D01*
X104310849Y-62210038D01*
X104318081Y-62230250D01*
X104323297Y-62251074D01*
X104326447Y-62272309D01*
X104327500Y-62293750D01*
X104327500Y-62806250D01*
X104326447Y-62827691D01*
X104323297Y-62848926D01*
X104318081Y-62869750D01*
X104310849Y-62889962D01*
X104301670Y-62909368D01*
X104290634Y-62927781D01*
X104277846Y-62945024D01*
X104263430Y-62960930D01*
X104247524Y-62975346D01*
X104230281Y-62988134D01*
X104211868Y-62999170D01*
X104192462Y-63008349D01*
X104172250Y-63015581D01*
X104151426Y-63020797D01*
X104130191Y-63023947D01*
X104108750Y-63025000D01*
X103671250Y-63025000D01*
X103649809Y-63023947D01*
X103628574Y-63020797D01*
X103607750Y-63015581D01*
X103587538Y-63008349D01*
X103568132Y-62999170D01*
X103549719Y-62988134D01*
X103532476Y-62975346D01*
X103516570Y-62960930D01*
X103502154Y-62945024D01*
X103489366Y-62927781D01*
X103478330Y-62909368D01*
X103469151Y-62889962D01*
X103461919Y-62869750D01*
X103456703Y-62848926D01*
X103453553Y-62827691D01*
X103452500Y-62806250D01*
X103452500Y-62293750D01*
X103453553Y-62272309D01*
X103456703Y-62251074D01*
X103461919Y-62230250D01*
X103469151Y-62210038D01*
X103478330Y-62190632D01*
X103489366Y-62172219D01*
X103502154Y-62154976D01*
X103516570Y-62139070D01*
X103532476Y-62124654D01*
X103549719Y-62111866D01*
X103568132Y-62100830D01*
X103587538Y-62091651D01*
X103607750Y-62084419D01*
X103628574Y-62079203D01*
X103649809Y-62076053D01*
X103671250Y-62075000D01*
X104108750Y-62075000D01*
X104130191Y-62076053D01*
X104130191Y-62076053D01*
G37*
D14*
X103890000Y-62550000D03*
D13*
G36*
X102555191Y-62076053D02*
G01*
X102576426Y-62079203D01*
X102597250Y-62084419D01*
X102617462Y-62091651D01*
X102636868Y-62100830D01*
X102655281Y-62111866D01*
X102672524Y-62124654D01*
X102688430Y-62139070D01*
X102702846Y-62154976D01*
X102715634Y-62172219D01*
X102726670Y-62190632D01*
X102735849Y-62210038D01*
X102743081Y-62230250D01*
X102748297Y-62251074D01*
X102751447Y-62272309D01*
X102752500Y-62293750D01*
X102752500Y-62806250D01*
X102751447Y-62827691D01*
X102748297Y-62848926D01*
X102743081Y-62869750D01*
X102735849Y-62889962D01*
X102726670Y-62909368D01*
X102715634Y-62927781D01*
X102702846Y-62945024D01*
X102688430Y-62960930D01*
X102672524Y-62975346D01*
X102655281Y-62988134D01*
X102636868Y-62999170D01*
X102617462Y-63008349D01*
X102597250Y-63015581D01*
X102576426Y-63020797D01*
X102555191Y-63023947D01*
X102533750Y-63025000D01*
X102096250Y-63025000D01*
X102074809Y-63023947D01*
X102053574Y-63020797D01*
X102032750Y-63015581D01*
X102012538Y-63008349D01*
X101993132Y-62999170D01*
X101974719Y-62988134D01*
X101957476Y-62975346D01*
X101941570Y-62960930D01*
X101927154Y-62945024D01*
X101914366Y-62927781D01*
X101903330Y-62909368D01*
X101894151Y-62889962D01*
X101886919Y-62869750D01*
X101881703Y-62848926D01*
X101878553Y-62827691D01*
X101877500Y-62806250D01*
X101877500Y-62293750D01*
X101878553Y-62272309D01*
X101881703Y-62251074D01*
X101886919Y-62230250D01*
X101894151Y-62210038D01*
X101903330Y-62190632D01*
X101914366Y-62172219D01*
X101927154Y-62154976D01*
X101941570Y-62139070D01*
X101957476Y-62124654D01*
X101974719Y-62111866D01*
X101993132Y-62100830D01*
X102012538Y-62091651D01*
X102032750Y-62084419D01*
X102053574Y-62079203D01*
X102074809Y-62076053D01*
X102096250Y-62075000D01*
X102533750Y-62075000D01*
X102555191Y-62076053D01*
X102555191Y-62076053D01*
G37*
D14*
X102315000Y-62550000D03*
D13*
G36*
X109242691Y-62083553D02*
G01*
X109263926Y-62086703D01*
X109284750Y-62091919D01*
X109304962Y-62099151D01*
X109324368Y-62108330D01*
X109342781Y-62119366D01*
X109360024Y-62132154D01*
X109375930Y-62146570D01*
X109390346Y-62162476D01*
X109403134Y-62179719D01*
X109414170Y-62198132D01*
X109423349Y-62217538D01*
X109430581Y-62237750D01*
X109435797Y-62258574D01*
X109438947Y-62279809D01*
X109440000Y-62301250D01*
X109440000Y-62813750D01*
X109438947Y-62835191D01*
X109435797Y-62856426D01*
X109430581Y-62877250D01*
X109423349Y-62897462D01*
X109414170Y-62916868D01*
X109403134Y-62935281D01*
X109390346Y-62952524D01*
X109375930Y-62968430D01*
X109360024Y-62982846D01*
X109342781Y-62995634D01*
X109324368Y-63006670D01*
X109304962Y-63015849D01*
X109284750Y-63023081D01*
X109263926Y-63028297D01*
X109242691Y-63031447D01*
X109221250Y-63032500D01*
X108783750Y-63032500D01*
X108762309Y-63031447D01*
X108741074Y-63028297D01*
X108720250Y-63023081D01*
X108700038Y-63015849D01*
X108680632Y-63006670D01*
X108662219Y-62995634D01*
X108644976Y-62982846D01*
X108629070Y-62968430D01*
X108614654Y-62952524D01*
X108601866Y-62935281D01*
X108590830Y-62916868D01*
X108581651Y-62897462D01*
X108574419Y-62877250D01*
X108569203Y-62856426D01*
X108566053Y-62835191D01*
X108565000Y-62813750D01*
X108565000Y-62301250D01*
X108566053Y-62279809D01*
X108569203Y-62258574D01*
X108574419Y-62237750D01*
X108581651Y-62217538D01*
X108590830Y-62198132D01*
X108601866Y-62179719D01*
X108614654Y-62162476D01*
X108629070Y-62146570D01*
X108644976Y-62132154D01*
X108662219Y-62119366D01*
X108680632Y-62108330D01*
X108700038Y-62099151D01*
X108720250Y-62091919D01*
X108741074Y-62086703D01*
X108762309Y-62083553D01*
X108783750Y-62082500D01*
X109221250Y-62082500D01*
X109242691Y-62083553D01*
X109242691Y-62083553D01*
G37*
D14*
X109002500Y-62557500D03*
D13*
G36*
X110817691Y-62083553D02*
G01*
X110838926Y-62086703D01*
X110859750Y-62091919D01*
X110879962Y-62099151D01*
X110899368Y-62108330D01*
X110917781Y-62119366D01*
X110935024Y-62132154D01*
X110950930Y-62146570D01*
X110965346Y-62162476D01*
X110978134Y-62179719D01*
X110989170Y-62198132D01*
X110998349Y-62217538D01*
X111005581Y-62237750D01*
X111010797Y-62258574D01*
X111013947Y-62279809D01*
X111015000Y-62301250D01*
X111015000Y-62813750D01*
X111013947Y-62835191D01*
X111010797Y-62856426D01*
X111005581Y-62877250D01*
X110998349Y-62897462D01*
X110989170Y-62916868D01*
X110978134Y-62935281D01*
X110965346Y-62952524D01*
X110950930Y-62968430D01*
X110935024Y-62982846D01*
X110917781Y-62995634D01*
X110899368Y-63006670D01*
X110879962Y-63015849D01*
X110859750Y-63023081D01*
X110838926Y-63028297D01*
X110817691Y-63031447D01*
X110796250Y-63032500D01*
X110358750Y-63032500D01*
X110337309Y-63031447D01*
X110316074Y-63028297D01*
X110295250Y-63023081D01*
X110275038Y-63015849D01*
X110255632Y-63006670D01*
X110237219Y-62995634D01*
X110219976Y-62982846D01*
X110204070Y-62968430D01*
X110189654Y-62952524D01*
X110176866Y-62935281D01*
X110165830Y-62916868D01*
X110156651Y-62897462D01*
X110149419Y-62877250D01*
X110144203Y-62856426D01*
X110141053Y-62835191D01*
X110140000Y-62813750D01*
X110140000Y-62301250D01*
X110141053Y-62279809D01*
X110144203Y-62258574D01*
X110149419Y-62237750D01*
X110156651Y-62217538D01*
X110165830Y-62198132D01*
X110176866Y-62179719D01*
X110189654Y-62162476D01*
X110204070Y-62146570D01*
X110219976Y-62132154D01*
X110237219Y-62119366D01*
X110255632Y-62108330D01*
X110275038Y-62099151D01*
X110295250Y-62091919D01*
X110316074Y-62086703D01*
X110337309Y-62083553D01*
X110358750Y-62082500D01*
X110796250Y-62082500D01*
X110817691Y-62083553D01*
X110817691Y-62083553D01*
G37*
D14*
X110577500Y-62557500D03*
D13*
G36*
X111109504Y-65988704D02*
G01*
X111133773Y-65992304D01*
X111157571Y-65998265D01*
X111180671Y-66006530D01*
X111202849Y-66017020D01*
X111223893Y-66029633D01*
X111243598Y-66044247D01*
X111261777Y-66060723D01*
X111278253Y-66078902D01*
X111292867Y-66098607D01*
X111305480Y-66119651D01*
X111315970Y-66141829D01*
X111324235Y-66164929D01*
X111330196Y-66188727D01*
X111333796Y-66212996D01*
X111335000Y-66237500D01*
X111335000Y-67162500D01*
X111333796Y-67187004D01*
X111330196Y-67211273D01*
X111324235Y-67235071D01*
X111315970Y-67258171D01*
X111305480Y-67280349D01*
X111292867Y-67301393D01*
X111278253Y-67321098D01*
X111261777Y-67339277D01*
X111243598Y-67355753D01*
X111223893Y-67370367D01*
X111202849Y-67382980D01*
X111180671Y-67393470D01*
X111157571Y-67401735D01*
X111133773Y-67407696D01*
X111109504Y-67411296D01*
X111085000Y-67412500D01*
X109835000Y-67412500D01*
X109810496Y-67411296D01*
X109786227Y-67407696D01*
X109762429Y-67401735D01*
X109739329Y-67393470D01*
X109717151Y-67382980D01*
X109696107Y-67370367D01*
X109676402Y-67355753D01*
X109658223Y-67339277D01*
X109641747Y-67321098D01*
X109627133Y-67301393D01*
X109614520Y-67280349D01*
X109604030Y-67258171D01*
X109595765Y-67235071D01*
X109589804Y-67211273D01*
X109586204Y-67187004D01*
X109585000Y-67162500D01*
X109585000Y-66237500D01*
X109586204Y-66212996D01*
X109589804Y-66188727D01*
X109595765Y-66164929D01*
X109604030Y-66141829D01*
X109614520Y-66119651D01*
X109627133Y-66098607D01*
X109641747Y-66078902D01*
X109658223Y-66060723D01*
X109676402Y-66044247D01*
X109696107Y-66029633D01*
X109717151Y-66017020D01*
X109739329Y-66006530D01*
X109762429Y-65998265D01*
X109786227Y-65992304D01*
X109810496Y-65988704D01*
X109835000Y-65987500D01*
X111085000Y-65987500D01*
X111109504Y-65988704D01*
X111109504Y-65988704D01*
G37*
D15*
X110460000Y-66700000D03*
D13*
G36*
X111109504Y-68963704D02*
G01*
X111133773Y-68967304D01*
X111157571Y-68973265D01*
X111180671Y-68981530D01*
X111202849Y-68992020D01*
X111223893Y-69004633D01*
X111243598Y-69019247D01*
X111261777Y-69035723D01*
X111278253Y-69053902D01*
X111292867Y-69073607D01*
X111305480Y-69094651D01*
X111315970Y-69116829D01*
X111324235Y-69139929D01*
X111330196Y-69163727D01*
X111333796Y-69187996D01*
X111335000Y-69212500D01*
X111335000Y-70137500D01*
X111333796Y-70162004D01*
X111330196Y-70186273D01*
X111324235Y-70210071D01*
X111315970Y-70233171D01*
X111305480Y-70255349D01*
X111292867Y-70276393D01*
X111278253Y-70296098D01*
X111261777Y-70314277D01*
X111243598Y-70330753D01*
X111223893Y-70345367D01*
X111202849Y-70357980D01*
X111180671Y-70368470D01*
X111157571Y-70376735D01*
X111133773Y-70382696D01*
X111109504Y-70386296D01*
X111085000Y-70387500D01*
X109835000Y-70387500D01*
X109810496Y-70386296D01*
X109786227Y-70382696D01*
X109762429Y-70376735D01*
X109739329Y-70368470D01*
X109717151Y-70357980D01*
X109696107Y-70345367D01*
X109676402Y-70330753D01*
X109658223Y-70314277D01*
X109641747Y-70296098D01*
X109627133Y-70276393D01*
X109614520Y-70255349D01*
X109604030Y-70233171D01*
X109595765Y-70210071D01*
X109589804Y-70186273D01*
X109586204Y-70162004D01*
X109585000Y-70137500D01*
X109585000Y-69212500D01*
X109586204Y-69187996D01*
X109589804Y-69163727D01*
X109595765Y-69139929D01*
X109604030Y-69116829D01*
X109614520Y-69094651D01*
X109627133Y-69073607D01*
X109641747Y-69053902D01*
X109658223Y-69035723D01*
X109676402Y-69019247D01*
X109696107Y-69004633D01*
X109717151Y-68992020D01*
X109739329Y-68981530D01*
X109762429Y-68973265D01*
X109786227Y-68967304D01*
X109810496Y-68963704D01*
X109835000Y-68962500D01*
X111085000Y-68962500D01*
X111109504Y-68963704D01*
X111109504Y-68963704D01*
G37*
D15*
X110460000Y-69675000D03*
D13*
G36*
X95735191Y-85836053D02*
G01*
X95756426Y-85839203D01*
X95777250Y-85844419D01*
X95797462Y-85851651D01*
X95816868Y-85860830D01*
X95835281Y-85871866D01*
X95852524Y-85884654D01*
X95868430Y-85899070D01*
X95882846Y-85914976D01*
X95895634Y-85932219D01*
X95906670Y-85950632D01*
X95915849Y-85970038D01*
X95923081Y-85990250D01*
X95928297Y-86011074D01*
X95931447Y-86032309D01*
X95932500Y-86053750D01*
X95932500Y-86566250D01*
X95931447Y-86587691D01*
X95928297Y-86608926D01*
X95923081Y-86629750D01*
X95915849Y-86649962D01*
X95906670Y-86669368D01*
X95895634Y-86687781D01*
X95882846Y-86705024D01*
X95868430Y-86720930D01*
X95852524Y-86735346D01*
X95835281Y-86748134D01*
X95816868Y-86759170D01*
X95797462Y-86768349D01*
X95777250Y-86775581D01*
X95756426Y-86780797D01*
X95735191Y-86783947D01*
X95713750Y-86785000D01*
X95276250Y-86785000D01*
X95254809Y-86783947D01*
X95233574Y-86780797D01*
X95212750Y-86775581D01*
X95192538Y-86768349D01*
X95173132Y-86759170D01*
X95154719Y-86748134D01*
X95137476Y-86735346D01*
X95121570Y-86720930D01*
X95107154Y-86705024D01*
X95094366Y-86687781D01*
X95083330Y-86669368D01*
X95074151Y-86649962D01*
X95066919Y-86629750D01*
X95061703Y-86608926D01*
X95058553Y-86587691D01*
X95057500Y-86566250D01*
X95057500Y-86053750D01*
X95058553Y-86032309D01*
X95061703Y-86011074D01*
X95066919Y-85990250D01*
X95074151Y-85970038D01*
X95083330Y-85950632D01*
X95094366Y-85932219D01*
X95107154Y-85914976D01*
X95121570Y-85899070D01*
X95137476Y-85884654D01*
X95154719Y-85871866D01*
X95173132Y-85860830D01*
X95192538Y-85851651D01*
X95212750Y-85844419D01*
X95233574Y-85839203D01*
X95254809Y-85836053D01*
X95276250Y-85835000D01*
X95713750Y-85835000D01*
X95735191Y-85836053D01*
X95735191Y-85836053D01*
G37*
D14*
X95495000Y-86310000D03*
D13*
G36*
X97310191Y-85836053D02*
G01*
X97331426Y-85839203D01*
X97352250Y-85844419D01*
X97372462Y-85851651D01*
X97391868Y-85860830D01*
X97410281Y-85871866D01*
X97427524Y-85884654D01*
X97443430Y-85899070D01*
X97457846Y-85914976D01*
X97470634Y-85932219D01*
X97481670Y-85950632D01*
X97490849Y-85970038D01*
X97498081Y-85990250D01*
X97503297Y-86011074D01*
X97506447Y-86032309D01*
X97507500Y-86053750D01*
X97507500Y-86566250D01*
X97506447Y-86587691D01*
X97503297Y-86608926D01*
X97498081Y-86629750D01*
X97490849Y-86649962D01*
X97481670Y-86669368D01*
X97470634Y-86687781D01*
X97457846Y-86705024D01*
X97443430Y-86720930D01*
X97427524Y-86735346D01*
X97410281Y-86748134D01*
X97391868Y-86759170D01*
X97372462Y-86768349D01*
X97352250Y-86775581D01*
X97331426Y-86780797D01*
X97310191Y-86783947D01*
X97288750Y-86785000D01*
X96851250Y-86785000D01*
X96829809Y-86783947D01*
X96808574Y-86780797D01*
X96787750Y-86775581D01*
X96767538Y-86768349D01*
X96748132Y-86759170D01*
X96729719Y-86748134D01*
X96712476Y-86735346D01*
X96696570Y-86720930D01*
X96682154Y-86705024D01*
X96669366Y-86687781D01*
X96658330Y-86669368D01*
X96649151Y-86649962D01*
X96641919Y-86629750D01*
X96636703Y-86608926D01*
X96633553Y-86587691D01*
X96632500Y-86566250D01*
X96632500Y-86053750D01*
X96633553Y-86032309D01*
X96636703Y-86011074D01*
X96641919Y-85990250D01*
X96649151Y-85970038D01*
X96658330Y-85950632D01*
X96669366Y-85932219D01*
X96682154Y-85914976D01*
X96696570Y-85899070D01*
X96712476Y-85884654D01*
X96729719Y-85871866D01*
X96748132Y-85860830D01*
X96767538Y-85851651D01*
X96787750Y-85844419D01*
X96808574Y-85839203D01*
X96829809Y-85836053D01*
X96851250Y-85835000D01*
X97288750Y-85835000D01*
X97310191Y-85836053D01*
X97310191Y-85836053D01*
G37*
D14*
X97070000Y-86310000D03*
D13*
G36*
X108275191Y-74716053D02*
G01*
X108296426Y-74719203D01*
X108317250Y-74724419D01*
X108337462Y-74731651D01*
X108356868Y-74740830D01*
X108375281Y-74751866D01*
X108392524Y-74764654D01*
X108408430Y-74779070D01*
X108422846Y-74794976D01*
X108435634Y-74812219D01*
X108446670Y-74830632D01*
X108455849Y-74850038D01*
X108463081Y-74870250D01*
X108468297Y-74891074D01*
X108471447Y-74912309D01*
X108472500Y-74933750D01*
X108472500Y-75446250D01*
X108471447Y-75467691D01*
X108468297Y-75488926D01*
X108463081Y-75509750D01*
X108455849Y-75529962D01*
X108446670Y-75549368D01*
X108435634Y-75567781D01*
X108422846Y-75585024D01*
X108408430Y-75600930D01*
X108392524Y-75615346D01*
X108375281Y-75628134D01*
X108356868Y-75639170D01*
X108337462Y-75648349D01*
X108317250Y-75655581D01*
X108296426Y-75660797D01*
X108275191Y-75663947D01*
X108253750Y-75665000D01*
X107816250Y-75665000D01*
X107794809Y-75663947D01*
X107773574Y-75660797D01*
X107752750Y-75655581D01*
X107732538Y-75648349D01*
X107713132Y-75639170D01*
X107694719Y-75628134D01*
X107677476Y-75615346D01*
X107661570Y-75600930D01*
X107647154Y-75585024D01*
X107634366Y-75567781D01*
X107623330Y-75549368D01*
X107614151Y-75529962D01*
X107606919Y-75509750D01*
X107601703Y-75488926D01*
X107598553Y-75467691D01*
X107597500Y-75446250D01*
X107597500Y-74933750D01*
X107598553Y-74912309D01*
X107601703Y-74891074D01*
X107606919Y-74870250D01*
X107614151Y-74850038D01*
X107623330Y-74830632D01*
X107634366Y-74812219D01*
X107647154Y-74794976D01*
X107661570Y-74779070D01*
X107677476Y-74764654D01*
X107694719Y-74751866D01*
X107713132Y-74740830D01*
X107732538Y-74731651D01*
X107752750Y-74724419D01*
X107773574Y-74719203D01*
X107794809Y-74716053D01*
X107816250Y-74715000D01*
X108253750Y-74715000D01*
X108275191Y-74716053D01*
X108275191Y-74716053D01*
G37*
D14*
X108035000Y-75190000D03*
D13*
G36*
X106700191Y-74716053D02*
G01*
X106721426Y-74719203D01*
X106742250Y-74724419D01*
X106762462Y-74731651D01*
X106781868Y-74740830D01*
X106800281Y-74751866D01*
X106817524Y-74764654D01*
X106833430Y-74779070D01*
X106847846Y-74794976D01*
X106860634Y-74812219D01*
X106871670Y-74830632D01*
X106880849Y-74850038D01*
X106888081Y-74870250D01*
X106893297Y-74891074D01*
X106896447Y-74912309D01*
X106897500Y-74933750D01*
X106897500Y-75446250D01*
X106896447Y-75467691D01*
X106893297Y-75488926D01*
X106888081Y-75509750D01*
X106880849Y-75529962D01*
X106871670Y-75549368D01*
X106860634Y-75567781D01*
X106847846Y-75585024D01*
X106833430Y-75600930D01*
X106817524Y-75615346D01*
X106800281Y-75628134D01*
X106781868Y-75639170D01*
X106762462Y-75648349D01*
X106742250Y-75655581D01*
X106721426Y-75660797D01*
X106700191Y-75663947D01*
X106678750Y-75665000D01*
X106241250Y-75665000D01*
X106219809Y-75663947D01*
X106198574Y-75660797D01*
X106177750Y-75655581D01*
X106157538Y-75648349D01*
X106138132Y-75639170D01*
X106119719Y-75628134D01*
X106102476Y-75615346D01*
X106086570Y-75600930D01*
X106072154Y-75585024D01*
X106059366Y-75567781D01*
X106048330Y-75549368D01*
X106039151Y-75529962D01*
X106031919Y-75509750D01*
X106026703Y-75488926D01*
X106023553Y-75467691D01*
X106022500Y-75446250D01*
X106022500Y-74933750D01*
X106023553Y-74912309D01*
X106026703Y-74891074D01*
X106031919Y-74870250D01*
X106039151Y-74850038D01*
X106048330Y-74830632D01*
X106059366Y-74812219D01*
X106072154Y-74794976D01*
X106086570Y-74779070D01*
X106102476Y-74764654D01*
X106119719Y-74751866D01*
X106138132Y-74740830D01*
X106157538Y-74731651D01*
X106177750Y-74724419D01*
X106198574Y-74719203D01*
X106219809Y-74716053D01*
X106241250Y-74715000D01*
X106678750Y-74715000D01*
X106700191Y-74716053D01*
X106700191Y-74716053D01*
G37*
D14*
X106460000Y-75190000D03*
D13*
G36*
X107477691Y-67943553D02*
G01*
X107498926Y-67946703D01*
X107519750Y-67951919D01*
X107539962Y-67959151D01*
X107559368Y-67968330D01*
X107577781Y-67979366D01*
X107595024Y-67992154D01*
X107610930Y-68006570D01*
X107625346Y-68022476D01*
X107638134Y-68039719D01*
X107649170Y-68058132D01*
X107658349Y-68077538D01*
X107665581Y-68097750D01*
X107670797Y-68118574D01*
X107673947Y-68139809D01*
X107675000Y-68161250D01*
X107675000Y-68598750D01*
X107673947Y-68620191D01*
X107670797Y-68641426D01*
X107665581Y-68662250D01*
X107658349Y-68682462D01*
X107649170Y-68701868D01*
X107638134Y-68720281D01*
X107625346Y-68737524D01*
X107610930Y-68753430D01*
X107595024Y-68767846D01*
X107577781Y-68780634D01*
X107559368Y-68791670D01*
X107539962Y-68800849D01*
X107519750Y-68808081D01*
X107498926Y-68813297D01*
X107477691Y-68816447D01*
X107456250Y-68817500D01*
X106943750Y-68817500D01*
X106922309Y-68816447D01*
X106901074Y-68813297D01*
X106880250Y-68808081D01*
X106860038Y-68800849D01*
X106840632Y-68791670D01*
X106822219Y-68780634D01*
X106804976Y-68767846D01*
X106789070Y-68753430D01*
X106774654Y-68737524D01*
X106761866Y-68720281D01*
X106750830Y-68701868D01*
X106741651Y-68682462D01*
X106734419Y-68662250D01*
X106729203Y-68641426D01*
X106726053Y-68620191D01*
X106725000Y-68598750D01*
X106725000Y-68161250D01*
X106726053Y-68139809D01*
X106729203Y-68118574D01*
X106734419Y-68097750D01*
X106741651Y-68077538D01*
X106750830Y-68058132D01*
X106761866Y-68039719D01*
X106774654Y-68022476D01*
X106789070Y-68006570D01*
X106804976Y-67992154D01*
X106822219Y-67979366D01*
X106840632Y-67968330D01*
X106860038Y-67959151D01*
X106880250Y-67951919D01*
X106901074Y-67946703D01*
X106922309Y-67943553D01*
X106943750Y-67942500D01*
X107456250Y-67942500D01*
X107477691Y-67943553D01*
X107477691Y-67943553D01*
G37*
D14*
X107200000Y-68380000D03*
D13*
G36*
X107477691Y-69518553D02*
G01*
X107498926Y-69521703D01*
X107519750Y-69526919D01*
X107539962Y-69534151D01*
X107559368Y-69543330D01*
X107577781Y-69554366D01*
X107595024Y-69567154D01*
X107610930Y-69581570D01*
X107625346Y-69597476D01*
X107638134Y-69614719D01*
X107649170Y-69633132D01*
X107658349Y-69652538D01*
X107665581Y-69672750D01*
X107670797Y-69693574D01*
X107673947Y-69714809D01*
X107675000Y-69736250D01*
X107675000Y-70173750D01*
X107673947Y-70195191D01*
X107670797Y-70216426D01*
X107665581Y-70237250D01*
X107658349Y-70257462D01*
X107649170Y-70276868D01*
X107638134Y-70295281D01*
X107625346Y-70312524D01*
X107610930Y-70328430D01*
X107595024Y-70342846D01*
X107577781Y-70355634D01*
X107559368Y-70366670D01*
X107539962Y-70375849D01*
X107519750Y-70383081D01*
X107498926Y-70388297D01*
X107477691Y-70391447D01*
X107456250Y-70392500D01*
X106943750Y-70392500D01*
X106922309Y-70391447D01*
X106901074Y-70388297D01*
X106880250Y-70383081D01*
X106860038Y-70375849D01*
X106840632Y-70366670D01*
X106822219Y-70355634D01*
X106804976Y-70342846D01*
X106789070Y-70328430D01*
X106774654Y-70312524D01*
X106761866Y-70295281D01*
X106750830Y-70276868D01*
X106741651Y-70257462D01*
X106734419Y-70237250D01*
X106729203Y-70216426D01*
X106726053Y-70195191D01*
X106725000Y-70173750D01*
X106725000Y-69736250D01*
X106726053Y-69714809D01*
X106729203Y-69693574D01*
X106734419Y-69672750D01*
X106741651Y-69652538D01*
X106750830Y-69633132D01*
X106761866Y-69614719D01*
X106774654Y-69597476D01*
X106789070Y-69581570D01*
X106804976Y-69567154D01*
X106822219Y-69554366D01*
X106840632Y-69543330D01*
X106860038Y-69534151D01*
X106880250Y-69526919D01*
X106901074Y-69521703D01*
X106922309Y-69518553D01*
X106943750Y-69517500D01*
X107456250Y-69517500D01*
X107477691Y-69518553D01*
X107477691Y-69518553D01*
G37*
D14*
X107200000Y-69955000D03*
D13*
G36*
X106677691Y-96868553D02*
G01*
X106698926Y-96871703D01*
X106719750Y-96876919D01*
X106739962Y-96884151D01*
X106759368Y-96893330D01*
X106777781Y-96904366D01*
X106795024Y-96917154D01*
X106810930Y-96931570D01*
X106825346Y-96947476D01*
X106838134Y-96964719D01*
X106849170Y-96983132D01*
X106858349Y-97002538D01*
X106865581Y-97022750D01*
X106870797Y-97043574D01*
X106873947Y-97064809D01*
X106875000Y-97086250D01*
X106875000Y-97523750D01*
X106873947Y-97545191D01*
X106870797Y-97566426D01*
X106865581Y-97587250D01*
X106858349Y-97607462D01*
X106849170Y-97626868D01*
X106838134Y-97645281D01*
X106825346Y-97662524D01*
X106810930Y-97678430D01*
X106795024Y-97692846D01*
X106777781Y-97705634D01*
X106759368Y-97716670D01*
X106739962Y-97725849D01*
X106719750Y-97733081D01*
X106698926Y-97738297D01*
X106677691Y-97741447D01*
X106656250Y-97742500D01*
X106143750Y-97742500D01*
X106122309Y-97741447D01*
X106101074Y-97738297D01*
X106080250Y-97733081D01*
X106060038Y-97725849D01*
X106040632Y-97716670D01*
X106022219Y-97705634D01*
X106004976Y-97692846D01*
X105989070Y-97678430D01*
X105974654Y-97662524D01*
X105961866Y-97645281D01*
X105950830Y-97626868D01*
X105941651Y-97607462D01*
X105934419Y-97587250D01*
X105929203Y-97566426D01*
X105926053Y-97545191D01*
X105925000Y-97523750D01*
X105925000Y-97086250D01*
X105926053Y-97064809D01*
X105929203Y-97043574D01*
X105934419Y-97022750D01*
X105941651Y-97002538D01*
X105950830Y-96983132D01*
X105961866Y-96964719D01*
X105974654Y-96947476D01*
X105989070Y-96931570D01*
X106004976Y-96917154D01*
X106022219Y-96904366D01*
X106040632Y-96893330D01*
X106060038Y-96884151D01*
X106080250Y-96876919D01*
X106101074Y-96871703D01*
X106122309Y-96868553D01*
X106143750Y-96867500D01*
X106656250Y-96867500D01*
X106677691Y-96868553D01*
X106677691Y-96868553D01*
G37*
D14*
X106400000Y-97305000D03*
D13*
G36*
X106677691Y-95293553D02*
G01*
X106698926Y-95296703D01*
X106719750Y-95301919D01*
X106739962Y-95309151D01*
X106759368Y-95318330D01*
X106777781Y-95329366D01*
X106795024Y-95342154D01*
X106810930Y-95356570D01*
X106825346Y-95372476D01*
X106838134Y-95389719D01*
X106849170Y-95408132D01*
X106858349Y-95427538D01*
X106865581Y-95447750D01*
X106870797Y-95468574D01*
X106873947Y-95489809D01*
X106875000Y-95511250D01*
X106875000Y-95948750D01*
X106873947Y-95970191D01*
X106870797Y-95991426D01*
X106865581Y-96012250D01*
X106858349Y-96032462D01*
X106849170Y-96051868D01*
X106838134Y-96070281D01*
X106825346Y-96087524D01*
X106810930Y-96103430D01*
X106795024Y-96117846D01*
X106777781Y-96130634D01*
X106759368Y-96141670D01*
X106739962Y-96150849D01*
X106719750Y-96158081D01*
X106698926Y-96163297D01*
X106677691Y-96166447D01*
X106656250Y-96167500D01*
X106143750Y-96167500D01*
X106122309Y-96166447D01*
X106101074Y-96163297D01*
X106080250Y-96158081D01*
X106060038Y-96150849D01*
X106040632Y-96141670D01*
X106022219Y-96130634D01*
X106004976Y-96117846D01*
X105989070Y-96103430D01*
X105974654Y-96087524D01*
X105961866Y-96070281D01*
X105950830Y-96051868D01*
X105941651Y-96032462D01*
X105934419Y-96012250D01*
X105929203Y-95991426D01*
X105926053Y-95970191D01*
X105925000Y-95948750D01*
X105925000Y-95511250D01*
X105926053Y-95489809D01*
X105929203Y-95468574D01*
X105934419Y-95447750D01*
X105941651Y-95427538D01*
X105950830Y-95408132D01*
X105961866Y-95389719D01*
X105974654Y-95372476D01*
X105989070Y-95356570D01*
X106004976Y-95342154D01*
X106022219Y-95329366D01*
X106040632Y-95318330D01*
X106060038Y-95309151D01*
X106080250Y-95301919D01*
X106101074Y-95296703D01*
X106122309Y-95293553D01*
X106143750Y-95292500D01*
X106656250Y-95292500D01*
X106677691Y-95293553D01*
X106677691Y-95293553D01*
G37*
D14*
X106400000Y-95730000D03*
D13*
G36*
X98847691Y-96881053D02*
G01*
X98868926Y-96884203D01*
X98889750Y-96889419D01*
X98909962Y-96896651D01*
X98929368Y-96905830D01*
X98947781Y-96916866D01*
X98965024Y-96929654D01*
X98980930Y-96944070D01*
X98995346Y-96959976D01*
X99008134Y-96977219D01*
X99019170Y-96995632D01*
X99028349Y-97015038D01*
X99035581Y-97035250D01*
X99040797Y-97056074D01*
X99043947Y-97077309D01*
X99045000Y-97098750D01*
X99045000Y-97536250D01*
X99043947Y-97557691D01*
X99040797Y-97578926D01*
X99035581Y-97599750D01*
X99028349Y-97619962D01*
X99019170Y-97639368D01*
X99008134Y-97657781D01*
X98995346Y-97675024D01*
X98980930Y-97690930D01*
X98965024Y-97705346D01*
X98947781Y-97718134D01*
X98929368Y-97729170D01*
X98909962Y-97738349D01*
X98889750Y-97745581D01*
X98868926Y-97750797D01*
X98847691Y-97753947D01*
X98826250Y-97755000D01*
X98313750Y-97755000D01*
X98292309Y-97753947D01*
X98271074Y-97750797D01*
X98250250Y-97745581D01*
X98230038Y-97738349D01*
X98210632Y-97729170D01*
X98192219Y-97718134D01*
X98174976Y-97705346D01*
X98159070Y-97690930D01*
X98144654Y-97675024D01*
X98131866Y-97657781D01*
X98120830Y-97639368D01*
X98111651Y-97619962D01*
X98104419Y-97599750D01*
X98099203Y-97578926D01*
X98096053Y-97557691D01*
X98095000Y-97536250D01*
X98095000Y-97098750D01*
X98096053Y-97077309D01*
X98099203Y-97056074D01*
X98104419Y-97035250D01*
X98111651Y-97015038D01*
X98120830Y-96995632D01*
X98131866Y-96977219D01*
X98144654Y-96959976D01*
X98159070Y-96944070D01*
X98174976Y-96929654D01*
X98192219Y-96916866D01*
X98210632Y-96905830D01*
X98230038Y-96896651D01*
X98250250Y-96889419D01*
X98271074Y-96884203D01*
X98292309Y-96881053D01*
X98313750Y-96880000D01*
X98826250Y-96880000D01*
X98847691Y-96881053D01*
X98847691Y-96881053D01*
G37*
D14*
X98570000Y-97317500D03*
D13*
G36*
X98847691Y-95306053D02*
G01*
X98868926Y-95309203D01*
X98889750Y-95314419D01*
X98909962Y-95321651D01*
X98929368Y-95330830D01*
X98947781Y-95341866D01*
X98965024Y-95354654D01*
X98980930Y-95369070D01*
X98995346Y-95384976D01*
X99008134Y-95402219D01*
X99019170Y-95420632D01*
X99028349Y-95440038D01*
X99035581Y-95460250D01*
X99040797Y-95481074D01*
X99043947Y-95502309D01*
X99045000Y-95523750D01*
X99045000Y-95961250D01*
X99043947Y-95982691D01*
X99040797Y-96003926D01*
X99035581Y-96024750D01*
X99028349Y-96044962D01*
X99019170Y-96064368D01*
X99008134Y-96082781D01*
X98995346Y-96100024D01*
X98980930Y-96115930D01*
X98965024Y-96130346D01*
X98947781Y-96143134D01*
X98929368Y-96154170D01*
X98909962Y-96163349D01*
X98889750Y-96170581D01*
X98868926Y-96175797D01*
X98847691Y-96178947D01*
X98826250Y-96180000D01*
X98313750Y-96180000D01*
X98292309Y-96178947D01*
X98271074Y-96175797D01*
X98250250Y-96170581D01*
X98230038Y-96163349D01*
X98210632Y-96154170D01*
X98192219Y-96143134D01*
X98174976Y-96130346D01*
X98159070Y-96115930D01*
X98144654Y-96100024D01*
X98131866Y-96082781D01*
X98120830Y-96064368D01*
X98111651Y-96044962D01*
X98104419Y-96024750D01*
X98099203Y-96003926D01*
X98096053Y-95982691D01*
X98095000Y-95961250D01*
X98095000Y-95523750D01*
X98096053Y-95502309D01*
X98099203Y-95481074D01*
X98104419Y-95460250D01*
X98111651Y-95440038D01*
X98120830Y-95420632D01*
X98131866Y-95402219D01*
X98144654Y-95384976D01*
X98159070Y-95369070D01*
X98174976Y-95354654D01*
X98192219Y-95341866D01*
X98210632Y-95330830D01*
X98230038Y-95321651D01*
X98250250Y-95314419D01*
X98271074Y-95309203D01*
X98292309Y-95306053D01*
X98313750Y-95305000D01*
X98826250Y-95305000D01*
X98847691Y-95306053D01*
X98847691Y-95306053D01*
G37*
D14*
X98570000Y-95742500D03*
D13*
G36*
X109667691Y-92523553D02*
G01*
X109688926Y-92526703D01*
X109709750Y-92531919D01*
X109729962Y-92539151D01*
X109749368Y-92548330D01*
X109767781Y-92559366D01*
X109785024Y-92572154D01*
X109800930Y-92586570D01*
X109815346Y-92602476D01*
X109828134Y-92619719D01*
X109839170Y-92638132D01*
X109848349Y-92657538D01*
X109855581Y-92677750D01*
X109860797Y-92698574D01*
X109863947Y-92719809D01*
X109865000Y-92741250D01*
X109865000Y-93178750D01*
X109863947Y-93200191D01*
X109860797Y-93221426D01*
X109855581Y-93242250D01*
X109848349Y-93262462D01*
X109839170Y-93281868D01*
X109828134Y-93300281D01*
X109815346Y-93317524D01*
X109800930Y-93333430D01*
X109785024Y-93347846D01*
X109767781Y-93360634D01*
X109749368Y-93371670D01*
X109729962Y-93380849D01*
X109709750Y-93388081D01*
X109688926Y-93393297D01*
X109667691Y-93396447D01*
X109646250Y-93397500D01*
X109133750Y-93397500D01*
X109112309Y-93396447D01*
X109091074Y-93393297D01*
X109070250Y-93388081D01*
X109050038Y-93380849D01*
X109030632Y-93371670D01*
X109012219Y-93360634D01*
X108994976Y-93347846D01*
X108979070Y-93333430D01*
X108964654Y-93317524D01*
X108951866Y-93300281D01*
X108940830Y-93281868D01*
X108931651Y-93262462D01*
X108924419Y-93242250D01*
X108919203Y-93221426D01*
X108916053Y-93200191D01*
X108915000Y-93178750D01*
X108915000Y-92741250D01*
X108916053Y-92719809D01*
X108919203Y-92698574D01*
X108924419Y-92677750D01*
X108931651Y-92657538D01*
X108940830Y-92638132D01*
X108951866Y-92619719D01*
X108964654Y-92602476D01*
X108979070Y-92586570D01*
X108994976Y-92572154D01*
X109012219Y-92559366D01*
X109030632Y-92548330D01*
X109050038Y-92539151D01*
X109070250Y-92531919D01*
X109091074Y-92526703D01*
X109112309Y-92523553D01*
X109133750Y-92522500D01*
X109646250Y-92522500D01*
X109667691Y-92523553D01*
X109667691Y-92523553D01*
G37*
D14*
X109390000Y-92960000D03*
D13*
G36*
X109667691Y-90948553D02*
G01*
X109688926Y-90951703D01*
X109709750Y-90956919D01*
X109729962Y-90964151D01*
X109749368Y-90973330D01*
X109767781Y-90984366D01*
X109785024Y-90997154D01*
X109800930Y-91011570D01*
X109815346Y-91027476D01*
X109828134Y-91044719D01*
X109839170Y-91063132D01*
X109848349Y-91082538D01*
X109855581Y-91102750D01*
X109860797Y-91123574D01*
X109863947Y-91144809D01*
X109865000Y-91166250D01*
X109865000Y-91603750D01*
X109863947Y-91625191D01*
X109860797Y-91646426D01*
X109855581Y-91667250D01*
X109848349Y-91687462D01*
X109839170Y-91706868D01*
X109828134Y-91725281D01*
X109815346Y-91742524D01*
X109800930Y-91758430D01*
X109785024Y-91772846D01*
X109767781Y-91785634D01*
X109749368Y-91796670D01*
X109729962Y-91805849D01*
X109709750Y-91813081D01*
X109688926Y-91818297D01*
X109667691Y-91821447D01*
X109646250Y-91822500D01*
X109133750Y-91822500D01*
X109112309Y-91821447D01*
X109091074Y-91818297D01*
X109070250Y-91813081D01*
X109050038Y-91805849D01*
X109030632Y-91796670D01*
X109012219Y-91785634D01*
X108994976Y-91772846D01*
X108979070Y-91758430D01*
X108964654Y-91742524D01*
X108951866Y-91725281D01*
X108940830Y-91706868D01*
X108931651Y-91687462D01*
X108924419Y-91667250D01*
X108919203Y-91646426D01*
X108916053Y-91625191D01*
X108915000Y-91603750D01*
X108915000Y-91166250D01*
X108916053Y-91144809D01*
X108919203Y-91123574D01*
X108924419Y-91102750D01*
X108931651Y-91082538D01*
X108940830Y-91063132D01*
X108951866Y-91044719D01*
X108964654Y-91027476D01*
X108979070Y-91011570D01*
X108994976Y-90997154D01*
X109012219Y-90984366D01*
X109030632Y-90973330D01*
X109050038Y-90964151D01*
X109070250Y-90956919D01*
X109091074Y-90951703D01*
X109112309Y-90948553D01*
X109133750Y-90947500D01*
X109646250Y-90947500D01*
X109667691Y-90948553D01*
X109667691Y-90948553D01*
G37*
D14*
X109390000Y-91385000D03*
D16*
X105652500Y-135625000D03*
X105652500Y-132325000D03*
X108033750Y-135625000D03*
X108033750Y-132325000D03*
X110415000Y-135625000D03*
X110415000Y-132325000D03*
X96127500Y-127687500D03*
X96127500Y-124387500D03*
X98508750Y-127687500D03*
X98508750Y-124387500D03*
X100890000Y-127687500D03*
X100890000Y-124387500D03*
X103271250Y-127687500D03*
X103271250Y-124387500D03*
X105652500Y-127687500D03*
X105652500Y-124387500D03*
X108033750Y-127687500D03*
X108033750Y-124387500D03*
X110415000Y-127687500D03*
X110415000Y-124387500D03*
X96127500Y-119750000D03*
X96127500Y-116450000D03*
X98508750Y-119750000D03*
X98508750Y-116450000D03*
X100890000Y-119750000D03*
X100890000Y-116450000D03*
X103271250Y-119750000D03*
X103271250Y-116450000D03*
X105652500Y-119750000D03*
X105652500Y-116450000D03*
X108033750Y-119750000D03*
X108033750Y-116450000D03*
X110415000Y-119750000D03*
X110415000Y-116450000D03*
X96127500Y-111812500D03*
X96127500Y-108512500D03*
X98508750Y-111812500D03*
X98508750Y-108512500D03*
X100890000Y-111812500D03*
X100890000Y-108512500D03*
X103271250Y-111812500D03*
X103271250Y-108512500D03*
X105652500Y-111812500D03*
X105652500Y-108512500D03*
X108033750Y-111812500D03*
X108033750Y-108512500D03*
X110415000Y-111812500D03*
X110415000Y-108512500D03*
X96127500Y-103875000D03*
X96127500Y-100575000D03*
X98508750Y-103875000D03*
X98508750Y-100575000D03*
X100890000Y-103875000D03*
X100890000Y-100575000D03*
X103271250Y-103875000D03*
X103271250Y-100575000D03*
X105652500Y-103875000D03*
X105652500Y-100575000D03*
X108033750Y-103875000D03*
X108033750Y-100575000D03*
X110415000Y-103875000D03*
X110415000Y-100575000D03*
D17*
X107200000Y-71470000D03*
X108150000Y-73470000D03*
X106250000Y-73470000D03*
D13*
G36*
X99488601Y-88156611D02*
G01*
X99495882Y-88157691D01*
X99503021Y-88159479D01*
X99509951Y-88161959D01*
X99516605Y-88165106D01*
X99522918Y-88168890D01*
X99528829Y-88173274D01*
X99534283Y-88178217D01*
X99539226Y-88183671D01*
X99543610Y-88189582D01*
X99547394Y-88195895D01*
X99550541Y-88202549D01*
X99553021Y-88209479D01*
X99554809Y-88216618D01*
X99555889Y-88223899D01*
X99556250Y-88231250D01*
X99556250Y-88381250D01*
X99555889Y-88388601D01*
X99554809Y-88395882D01*
X99553021Y-88403021D01*
X99550541Y-88409951D01*
X99547394Y-88416605D01*
X99543610Y-88422918D01*
X99539226Y-88428829D01*
X99534283Y-88434283D01*
X99528829Y-88439226D01*
X99522918Y-88443610D01*
X99516605Y-88447394D01*
X99509951Y-88450541D01*
X99503021Y-88453021D01*
X99495882Y-88454809D01*
X99488601Y-88455889D01*
X99481250Y-88456250D01*
X98156250Y-88456250D01*
X98148899Y-88455889D01*
X98141618Y-88454809D01*
X98134479Y-88453021D01*
X98127549Y-88450541D01*
X98120895Y-88447394D01*
X98114582Y-88443610D01*
X98108671Y-88439226D01*
X98103217Y-88434283D01*
X98098274Y-88428829D01*
X98093890Y-88422918D01*
X98090106Y-88416605D01*
X98086959Y-88409951D01*
X98084479Y-88403021D01*
X98082691Y-88395882D01*
X98081611Y-88388601D01*
X98081250Y-88381250D01*
X98081250Y-88231250D01*
X98081611Y-88223899D01*
X98082691Y-88216618D01*
X98084479Y-88209479D01*
X98086959Y-88202549D01*
X98090106Y-88195895D01*
X98093890Y-88189582D01*
X98098274Y-88183671D01*
X98103217Y-88178217D01*
X98108671Y-88173274D01*
X98114582Y-88168890D01*
X98120895Y-88165106D01*
X98127549Y-88161959D01*
X98134479Y-88159479D01*
X98141618Y-88157691D01*
X98148899Y-88156611D01*
X98156250Y-88156250D01*
X99481250Y-88156250D01*
X99488601Y-88156611D01*
X99488601Y-88156611D01*
G37*
D18*
X98818750Y-88306250D03*
D13*
G36*
X99488601Y-87656611D02*
G01*
X99495882Y-87657691D01*
X99503021Y-87659479D01*
X99509951Y-87661959D01*
X99516605Y-87665106D01*
X99522918Y-87668890D01*
X99528829Y-87673274D01*
X99534283Y-87678217D01*
X99539226Y-87683671D01*
X99543610Y-87689582D01*
X99547394Y-87695895D01*
X99550541Y-87702549D01*
X99553021Y-87709479D01*
X99554809Y-87716618D01*
X99555889Y-87723899D01*
X99556250Y-87731250D01*
X99556250Y-87881250D01*
X99555889Y-87888601D01*
X99554809Y-87895882D01*
X99553021Y-87903021D01*
X99550541Y-87909951D01*
X99547394Y-87916605D01*
X99543610Y-87922918D01*
X99539226Y-87928829D01*
X99534283Y-87934283D01*
X99528829Y-87939226D01*
X99522918Y-87943610D01*
X99516605Y-87947394D01*
X99509951Y-87950541D01*
X99503021Y-87953021D01*
X99495882Y-87954809D01*
X99488601Y-87955889D01*
X99481250Y-87956250D01*
X98156250Y-87956250D01*
X98148899Y-87955889D01*
X98141618Y-87954809D01*
X98134479Y-87953021D01*
X98127549Y-87950541D01*
X98120895Y-87947394D01*
X98114582Y-87943610D01*
X98108671Y-87939226D01*
X98103217Y-87934283D01*
X98098274Y-87928829D01*
X98093890Y-87922918D01*
X98090106Y-87916605D01*
X98086959Y-87909951D01*
X98084479Y-87903021D01*
X98082691Y-87895882D01*
X98081611Y-87888601D01*
X98081250Y-87881250D01*
X98081250Y-87731250D01*
X98081611Y-87723899D01*
X98082691Y-87716618D01*
X98084479Y-87709479D01*
X98086959Y-87702549D01*
X98090106Y-87695895D01*
X98093890Y-87689582D01*
X98098274Y-87683671D01*
X98103217Y-87678217D01*
X98108671Y-87673274D01*
X98114582Y-87668890D01*
X98120895Y-87665106D01*
X98127549Y-87661959D01*
X98134479Y-87659479D01*
X98141618Y-87657691D01*
X98148899Y-87656611D01*
X98156250Y-87656250D01*
X99481250Y-87656250D01*
X99488601Y-87656611D01*
X99488601Y-87656611D01*
G37*
D18*
X98818750Y-87806250D03*
D13*
G36*
X99488601Y-87156611D02*
G01*
X99495882Y-87157691D01*
X99503021Y-87159479D01*
X99509951Y-87161959D01*
X99516605Y-87165106D01*
X99522918Y-87168890D01*
X99528829Y-87173274D01*
X99534283Y-87178217D01*
X99539226Y-87183671D01*
X99543610Y-87189582D01*
X99547394Y-87195895D01*
X99550541Y-87202549D01*
X99553021Y-87209479D01*
X99554809Y-87216618D01*
X99555889Y-87223899D01*
X99556250Y-87231250D01*
X99556250Y-87381250D01*
X99555889Y-87388601D01*
X99554809Y-87395882D01*
X99553021Y-87403021D01*
X99550541Y-87409951D01*
X99547394Y-87416605D01*
X99543610Y-87422918D01*
X99539226Y-87428829D01*
X99534283Y-87434283D01*
X99528829Y-87439226D01*
X99522918Y-87443610D01*
X99516605Y-87447394D01*
X99509951Y-87450541D01*
X99503021Y-87453021D01*
X99495882Y-87454809D01*
X99488601Y-87455889D01*
X99481250Y-87456250D01*
X98156250Y-87456250D01*
X98148899Y-87455889D01*
X98141618Y-87454809D01*
X98134479Y-87453021D01*
X98127549Y-87450541D01*
X98120895Y-87447394D01*
X98114582Y-87443610D01*
X98108671Y-87439226D01*
X98103217Y-87434283D01*
X98098274Y-87428829D01*
X98093890Y-87422918D01*
X98090106Y-87416605D01*
X98086959Y-87409951D01*
X98084479Y-87403021D01*
X98082691Y-87395882D01*
X98081611Y-87388601D01*
X98081250Y-87381250D01*
X98081250Y-87231250D01*
X98081611Y-87223899D01*
X98082691Y-87216618D01*
X98084479Y-87209479D01*
X98086959Y-87202549D01*
X98090106Y-87195895D01*
X98093890Y-87189582D01*
X98098274Y-87183671D01*
X98103217Y-87178217D01*
X98108671Y-87173274D01*
X98114582Y-87168890D01*
X98120895Y-87165106D01*
X98127549Y-87161959D01*
X98134479Y-87159479D01*
X98141618Y-87157691D01*
X98148899Y-87156611D01*
X98156250Y-87156250D01*
X99481250Y-87156250D01*
X99488601Y-87156611D01*
X99488601Y-87156611D01*
G37*
D18*
X98818750Y-87306250D03*
D13*
G36*
X99488601Y-86656611D02*
G01*
X99495882Y-86657691D01*
X99503021Y-86659479D01*
X99509951Y-86661959D01*
X99516605Y-86665106D01*
X99522918Y-86668890D01*
X99528829Y-86673274D01*
X99534283Y-86678217D01*
X99539226Y-86683671D01*
X99543610Y-86689582D01*
X99547394Y-86695895D01*
X99550541Y-86702549D01*
X99553021Y-86709479D01*
X99554809Y-86716618D01*
X99555889Y-86723899D01*
X99556250Y-86731250D01*
X99556250Y-86881250D01*
X99555889Y-86888601D01*
X99554809Y-86895882D01*
X99553021Y-86903021D01*
X99550541Y-86909951D01*
X99547394Y-86916605D01*
X99543610Y-86922918D01*
X99539226Y-86928829D01*
X99534283Y-86934283D01*
X99528829Y-86939226D01*
X99522918Y-86943610D01*
X99516605Y-86947394D01*
X99509951Y-86950541D01*
X99503021Y-86953021D01*
X99495882Y-86954809D01*
X99488601Y-86955889D01*
X99481250Y-86956250D01*
X98156250Y-86956250D01*
X98148899Y-86955889D01*
X98141618Y-86954809D01*
X98134479Y-86953021D01*
X98127549Y-86950541D01*
X98120895Y-86947394D01*
X98114582Y-86943610D01*
X98108671Y-86939226D01*
X98103217Y-86934283D01*
X98098274Y-86928829D01*
X98093890Y-86922918D01*
X98090106Y-86916605D01*
X98086959Y-86909951D01*
X98084479Y-86903021D01*
X98082691Y-86895882D01*
X98081611Y-86888601D01*
X98081250Y-86881250D01*
X98081250Y-86731250D01*
X98081611Y-86723899D01*
X98082691Y-86716618D01*
X98084479Y-86709479D01*
X98086959Y-86702549D01*
X98090106Y-86695895D01*
X98093890Y-86689582D01*
X98098274Y-86683671D01*
X98103217Y-86678217D01*
X98108671Y-86673274D01*
X98114582Y-86668890D01*
X98120895Y-86665106D01*
X98127549Y-86661959D01*
X98134479Y-86659479D01*
X98141618Y-86657691D01*
X98148899Y-86656611D01*
X98156250Y-86656250D01*
X99481250Y-86656250D01*
X99488601Y-86656611D01*
X99488601Y-86656611D01*
G37*
D18*
X98818750Y-86806250D03*
D13*
G36*
X99488601Y-86156611D02*
G01*
X99495882Y-86157691D01*
X99503021Y-86159479D01*
X99509951Y-86161959D01*
X99516605Y-86165106D01*
X99522918Y-86168890D01*
X99528829Y-86173274D01*
X99534283Y-86178217D01*
X99539226Y-86183671D01*
X99543610Y-86189582D01*
X99547394Y-86195895D01*
X99550541Y-86202549D01*
X99553021Y-86209479D01*
X99554809Y-86216618D01*
X99555889Y-86223899D01*
X99556250Y-86231250D01*
X99556250Y-86381250D01*
X99555889Y-86388601D01*
X99554809Y-86395882D01*
X99553021Y-86403021D01*
X99550541Y-86409951D01*
X99547394Y-86416605D01*
X99543610Y-86422918D01*
X99539226Y-86428829D01*
X99534283Y-86434283D01*
X99528829Y-86439226D01*
X99522918Y-86443610D01*
X99516605Y-86447394D01*
X99509951Y-86450541D01*
X99503021Y-86453021D01*
X99495882Y-86454809D01*
X99488601Y-86455889D01*
X99481250Y-86456250D01*
X98156250Y-86456250D01*
X98148899Y-86455889D01*
X98141618Y-86454809D01*
X98134479Y-86453021D01*
X98127549Y-86450541D01*
X98120895Y-86447394D01*
X98114582Y-86443610D01*
X98108671Y-86439226D01*
X98103217Y-86434283D01*
X98098274Y-86428829D01*
X98093890Y-86422918D01*
X98090106Y-86416605D01*
X98086959Y-86409951D01*
X98084479Y-86403021D01*
X98082691Y-86395882D01*
X98081611Y-86388601D01*
X98081250Y-86381250D01*
X98081250Y-86231250D01*
X98081611Y-86223899D01*
X98082691Y-86216618D01*
X98084479Y-86209479D01*
X98086959Y-86202549D01*
X98090106Y-86195895D01*
X98093890Y-86189582D01*
X98098274Y-86183671D01*
X98103217Y-86178217D01*
X98108671Y-86173274D01*
X98114582Y-86168890D01*
X98120895Y-86165106D01*
X98127549Y-86161959D01*
X98134479Y-86159479D01*
X98141618Y-86157691D01*
X98148899Y-86156611D01*
X98156250Y-86156250D01*
X99481250Y-86156250D01*
X99488601Y-86156611D01*
X99488601Y-86156611D01*
G37*
D18*
X98818750Y-86306250D03*
D13*
G36*
X99488601Y-85656611D02*
G01*
X99495882Y-85657691D01*
X99503021Y-85659479D01*
X99509951Y-85661959D01*
X99516605Y-85665106D01*
X99522918Y-85668890D01*
X99528829Y-85673274D01*
X99534283Y-85678217D01*
X99539226Y-85683671D01*
X99543610Y-85689582D01*
X99547394Y-85695895D01*
X99550541Y-85702549D01*
X99553021Y-85709479D01*
X99554809Y-85716618D01*
X99555889Y-85723899D01*
X99556250Y-85731250D01*
X99556250Y-85881250D01*
X99555889Y-85888601D01*
X99554809Y-85895882D01*
X99553021Y-85903021D01*
X99550541Y-85909951D01*
X99547394Y-85916605D01*
X99543610Y-85922918D01*
X99539226Y-85928829D01*
X99534283Y-85934283D01*
X99528829Y-85939226D01*
X99522918Y-85943610D01*
X99516605Y-85947394D01*
X99509951Y-85950541D01*
X99503021Y-85953021D01*
X99495882Y-85954809D01*
X99488601Y-85955889D01*
X99481250Y-85956250D01*
X98156250Y-85956250D01*
X98148899Y-85955889D01*
X98141618Y-85954809D01*
X98134479Y-85953021D01*
X98127549Y-85950541D01*
X98120895Y-85947394D01*
X98114582Y-85943610D01*
X98108671Y-85939226D01*
X98103217Y-85934283D01*
X98098274Y-85928829D01*
X98093890Y-85922918D01*
X98090106Y-85916605D01*
X98086959Y-85909951D01*
X98084479Y-85903021D01*
X98082691Y-85895882D01*
X98081611Y-85888601D01*
X98081250Y-85881250D01*
X98081250Y-85731250D01*
X98081611Y-85723899D01*
X98082691Y-85716618D01*
X98084479Y-85709479D01*
X98086959Y-85702549D01*
X98090106Y-85695895D01*
X98093890Y-85689582D01*
X98098274Y-85683671D01*
X98103217Y-85678217D01*
X98108671Y-85673274D01*
X98114582Y-85668890D01*
X98120895Y-85665106D01*
X98127549Y-85661959D01*
X98134479Y-85659479D01*
X98141618Y-85657691D01*
X98148899Y-85656611D01*
X98156250Y-85656250D01*
X99481250Y-85656250D01*
X99488601Y-85656611D01*
X99488601Y-85656611D01*
G37*
D18*
X98818750Y-85806250D03*
D13*
G36*
X99488601Y-85156611D02*
G01*
X99495882Y-85157691D01*
X99503021Y-85159479D01*
X99509951Y-85161959D01*
X99516605Y-85165106D01*
X99522918Y-85168890D01*
X99528829Y-85173274D01*
X99534283Y-85178217D01*
X99539226Y-85183671D01*
X99543610Y-85189582D01*
X99547394Y-85195895D01*
X99550541Y-85202549D01*
X99553021Y-85209479D01*
X99554809Y-85216618D01*
X99555889Y-85223899D01*
X99556250Y-85231250D01*
X99556250Y-85381250D01*
X99555889Y-85388601D01*
X99554809Y-85395882D01*
X99553021Y-85403021D01*
X99550541Y-85409951D01*
X99547394Y-85416605D01*
X99543610Y-85422918D01*
X99539226Y-85428829D01*
X99534283Y-85434283D01*
X99528829Y-85439226D01*
X99522918Y-85443610D01*
X99516605Y-85447394D01*
X99509951Y-85450541D01*
X99503021Y-85453021D01*
X99495882Y-85454809D01*
X99488601Y-85455889D01*
X99481250Y-85456250D01*
X98156250Y-85456250D01*
X98148899Y-85455889D01*
X98141618Y-85454809D01*
X98134479Y-85453021D01*
X98127549Y-85450541D01*
X98120895Y-85447394D01*
X98114582Y-85443610D01*
X98108671Y-85439226D01*
X98103217Y-85434283D01*
X98098274Y-85428829D01*
X98093890Y-85422918D01*
X98090106Y-85416605D01*
X98086959Y-85409951D01*
X98084479Y-85403021D01*
X98082691Y-85395882D01*
X98081611Y-85388601D01*
X98081250Y-85381250D01*
X98081250Y-85231250D01*
X98081611Y-85223899D01*
X98082691Y-85216618D01*
X98084479Y-85209479D01*
X98086959Y-85202549D01*
X98090106Y-85195895D01*
X98093890Y-85189582D01*
X98098274Y-85183671D01*
X98103217Y-85178217D01*
X98108671Y-85173274D01*
X98114582Y-85168890D01*
X98120895Y-85165106D01*
X98127549Y-85161959D01*
X98134479Y-85159479D01*
X98141618Y-85157691D01*
X98148899Y-85156611D01*
X98156250Y-85156250D01*
X99481250Y-85156250D01*
X99488601Y-85156611D01*
X99488601Y-85156611D01*
G37*
D18*
X98818750Y-85306250D03*
D13*
G36*
X99488601Y-84656611D02*
G01*
X99495882Y-84657691D01*
X99503021Y-84659479D01*
X99509951Y-84661959D01*
X99516605Y-84665106D01*
X99522918Y-84668890D01*
X99528829Y-84673274D01*
X99534283Y-84678217D01*
X99539226Y-84683671D01*
X99543610Y-84689582D01*
X99547394Y-84695895D01*
X99550541Y-84702549D01*
X99553021Y-84709479D01*
X99554809Y-84716618D01*
X99555889Y-84723899D01*
X99556250Y-84731250D01*
X99556250Y-84881250D01*
X99555889Y-84888601D01*
X99554809Y-84895882D01*
X99553021Y-84903021D01*
X99550541Y-84909951D01*
X99547394Y-84916605D01*
X99543610Y-84922918D01*
X99539226Y-84928829D01*
X99534283Y-84934283D01*
X99528829Y-84939226D01*
X99522918Y-84943610D01*
X99516605Y-84947394D01*
X99509951Y-84950541D01*
X99503021Y-84953021D01*
X99495882Y-84954809D01*
X99488601Y-84955889D01*
X99481250Y-84956250D01*
X98156250Y-84956250D01*
X98148899Y-84955889D01*
X98141618Y-84954809D01*
X98134479Y-84953021D01*
X98127549Y-84950541D01*
X98120895Y-84947394D01*
X98114582Y-84943610D01*
X98108671Y-84939226D01*
X98103217Y-84934283D01*
X98098274Y-84928829D01*
X98093890Y-84922918D01*
X98090106Y-84916605D01*
X98086959Y-84909951D01*
X98084479Y-84903021D01*
X98082691Y-84895882D01*
X98081611Y-84888601D01*
X98081250Y-84881250D01*
X98081250Y-84731250D01*
X98081611Y-84723899D01*
X98082691Y-84716618D01*
X98084479Y-84709479D01*
X98086959Y-84702549D01*
X98090106Y-84695895D01*
X98093890Y-84689582D01*
X98098274Y-84683671D01*
X98103217Y-84678217D01*
X98108671Y-84673274D01*
X98114582Y-84668890D01*
X98120895Y-84665106D01*
X98127549Y-84661959D01*
X98134479Y-84659479D01*
X98141618Y-84657691D01*
X98148899Y-84656611D01*
X98156250Y-84656250D01*
X99481250Y-84656250D01*
X99488601Y-84656611D01*
X99488601Y-84656611D01*
G37*
D18*
X98818750Y-84806250D03*
D13*
G36*
X99488601Y-84156611D02*
G01*
X99495882Y-84157691D01*
X99503021Y-84159479D01*
X99509951Y-84161959D01*
X99516605Y-84165106D01*
X99522918Y-84168890D01*
X99528829Y-84173274D01*
X99534283Y-84178217D01*
X99539226Y-84183671D01*
X99543610Y-84189582D01*
X99547394Y-84195895D01*
X99550541Y-84202549D01*
X99553021Y-84209479D01*
X99554809Y-84216618D01*
X99555889Y-84223899D01*
X99556250Y-84231250D01*
X99556250Y-84381250D01*
X99555889Y-84388601D01*
X99554809Y-84395882D01*
X99553021Y-84403021D01*
X99550541Y-84409951D01*
X99547394Y-84416605D01*
X99543610Y-84422918D01*
X99539226Y-84428829D01*
X99534283Y-84434283D01*
X99528829Y-84439226D01*
X99522918Y-84443610D01*
X99516605Y-84447394D01*
X99509951Y-84450541D01*
X99503021Y-84453021D01*
X99495882Y-84454809D01*
X99488601Y-84455889D01*
X99481250Y-84456250D01*
X98156250Y-84456250D01*
X98148899Y-84455889D01*
X98141618Y-84454809D01*
X98134479Y-84453021D01*
X98127549Y-84450541D01*
X98120895Y-84447394D01*
X98114582Y-84443610D01*
X98108671Y-84439226D01*
X98103217Y-84434283D01*
X98098274Y-84428829D01*
X98093890Y-84422918D01*
X98090106Y-84416605D01*
X98086959Y-84409951D01*
X98084479Y-84403021D01*
X98082691Y-84395882D01*
X98081611Y-84388601D01*
X98081250Y-84381250D01*
X98081250Y-84231250D01*
X98081611Y-84223899D01*
X98082691Y-84216618D01*
X98084479Y-84209479D01*
X98086959Y-84202549D01*
X98090106Y-84195895D01*
X98093890Y-84189582D01*
X98098274Y-84183671D01*
X98103217Y-84178217D01*
X98108671Y-84173274D01*
X98114582Y-84168890D01*
X98120895Y-84165106D01*
X98127549Y-84161959D01*
X98134479Y-84159479D01*
X98141618Y-84157691D01*
X98148899Y-84156611D01*
X98156250Y-84156250D01*
X99481250Y-84156250D01*
X99488601Y-84156611D01*
X99488601Y-84156611D01*
G37*
D18*
X98818750Y-84306250D03*
D13*
G36*
X99488601Y-83656611D02*
G01*
X99495882Y-83657691D01*
X99503021Y-83659479D01*
X99509951Y-83661959D01*
X99516605Y-83665106D01*
X99522918Y-83668890D01*
X99528829Y-83673274D01*
X99534283Y-83678217D01*
X99539226Y-83683671D01*
X99543610Y-83689582D01*
X99547394Y-83695895D01*
X99550541Y-83702549D01*
X99553021Y-83709479D01*
X99554809Y-83716618D01*
X99555889Y-83723899D01*
X99556250Y-83731250D01*
X99556250Y-83881250D01*
X99555889Y-83888601D01*
X99554809Y-83895882D01*
X99553021Y-83903021D01*
X99550541Y-83909951D01*
X99547394Y-83916605D01*
X99543610Y-83922918D01*
X99539226Y-83928829D01*
X99534283Y-83934283D01*
X99528829Y-83939226D01*
X99522918Y-83943610D01*
X99516605Y-83947394D01*
X99509951Y-83950541D01*
X99503021Y-83953021D01*
X99495882Y-83954809D01*
X99488601Y-83955889D01*
X99481250Y-83956250D01*
X98156250Y-83956250D01*
X98148899Y-83955889D01*
X98141618Y-83954809D01*
X98134479Y-83953021D01*
X98127549Y-83950541D01*
X98120895Y-83947394D01*
X98114582Y-83943610D01*
X98108671Y-83939226D01*
X98103217Y-83934283D01*
X98098274Y-83928829D01*
X98093890Y-83922918D01*
X98090106Y-83916605D01*
X98086959Y-83909951D01*
X98084479Y-83903021D01*
X98082691Y-83895882D01*
X98081611Y-83888601D01*
X98081250Y-83881250D01*
X98081250Y-83731250D01*
X98081611Y-83723899D01*
X98082691Y-83716618D01*
X98084479Y-83709479D01*
X98086959Y-83702549D01*
X98090106Y-83695895D01*
X98093890Y-83689582D01*
X98098274Y-83683671D01*
X98103217Y-83678217D01*
X98108671Y-83673274D01*
X98114582Y-83668890D01*
X98120895Y-83665106D01*
X98127549Y-83661959D01*
X98134479Y-83659479D01*
X98141618Y-83657691D01*
X98148899Y-83656611D01*
X98156250Y-83656250D01*
X99481250Y-83656250D01*
X99488601Y-83656611D01*
X99488601Y-83656611D01*
G37*
D18*
X98818750Y-83806250D03*
D13*
G36*
X99488601Y-83156611D02*
G01*
X99495882Y-83157691D01*
X99503021Y-83159479D01*
X99509951Y-83161959D01*
X99516605Y-83165106D01*
X99522918Y-83168890D01*
X99528829Y-83173274D01*
X99534283Y-83178217D01*
X99539226Y-83183671D01*
X99543610Y-83189582D01*
X99547394Y-83195895D01*
X99550541Y-83202549D01*
X99553021Y-83209479D01*
X99554809Y-83216618D01*
X99555889Y-83223899D01*
X99556250Y-83231250D01*
X99556250Y-83381250D01*
X99555889Y-83388601D01*
X99554809Y-83395882D01*
X99553021Y-83403021D01*
X99550541Y-83409951D01*
X99547394Y-83416605D01*
X99543610Y-83422918D01*
X99539226Y-83428829D01*
X99534283Y-83434283D01*
X99528829Y-83439226D01*
X99522918Y-83443610D01*
X99516605Y-83447394D01*
X99509951Y-83450541D01*
X99503021Y-83453021D01*
X99495882Y-83454809D01*
X99488601Y-83455889D01*
X99481250Y-83456250D01*
X98156250Y-83456250D01*
X98148899Y-83455889D01*
X98141618Y-83454809D01*
X98134479Y-83453021D01*
X98127549Y-83450541D01*
X98120895Y-83447394D01*
X98114582Y-83443610D01*
X98108671Y-83439226D01*
X98103217Y-83434283D01*
X98098274Y-83428829D01*
X98093890Y-83422918D01*
X98090106Y-83416605D01*
X98086959Y-83409951D01*
X98084479Y-83403021D01*
X98082691Y-83395882D01*
X98081611Y-83388601D01*
X98081250Y-83381250D01*
X98081250Y-83231250D01*
X98081611Y-83223899D01*
X98082691Y-83216618D01*
X98084479Y-83209479D01*
X98086959Y-83202549D01*
X98090106Y-83195895D01*
X98093890Y-83189582D01*
X98098274Y-83183671D01*
X98103217Y-83178217D01*
X98108671Y-83173274D01*
X98114582Y-83168890D01*
X98120895Y-83165106D01*
X98127549Y-83161959D01*
X98134479Y-83159479D01*
X98141618Y-83157691D01*
X98148899Y-83156611D01*
X98156250Y-83156250D01*
X99481250Y-83156250D01*
X99488601Y-83156611D01*
X99488601Y-83156611D01*
G37*
D18*
X98818750Y-83306250D03*
D13*
G36*
X99488601Y-82656611D02*
G01*
X99495882Y-82657691D01*
X99503021Y-82659479D01*
X99509951Y-82661959D01*
X99516605Y-82665106D01*
X99522918Y-82668890D01*
X99528829Y-82673274D01*
X99534283Y-82678217D01*
X99539226Y-82683671D01*
X99543610Y-82689582D01*
X99547394Y-82695895D01*
X99550541Y-82702549D01*
X99553021Y-82709479D01*
X99554809Y-82716618D01*
X99555889Y-82723899D01*
X99556250Y-82731250D01*
X99556250Y-82881250D01*
X99555889Y-82888601D01*
X99554809Y-82895882D01*
X99553021Y-82903021D01*
X99550541Y-82909951D01*
X99547394Y-82916605D01*
X99543610Y-82922918D01*
X99539226Y-82928829D01*
X99534283Y-82934283D01*
X99528829Y-82939226D01*
X99522918Y-82943610D01*
X99516605Y-82947394D01*
X99509951Y-82950541D01*
X99503021Y-82953021D01*
X99495882Y-82954809D01*
X99488601Y-82955889D01*
X99481250Y-82956250D01*
X98156250Y-82956250D01*
X98148899Y-82955889D01*
X98141618Y-82954809D01*
X98134479Y-82953021D01*
X98127549Y-82950541D01*
X98120895Y-82947394D01*
X98114582Y-82943610D01*
X98108671Y-82939226D01*
X98103217Y-82934283D01*
X98098274Y-82928829D01*
X98093890Y-82922918D01*
X98090106Y-82916605D01*
X98086959Y-82909951D01*
X98084479Y-82903021D01*
X98082691Y-82895882D01*
X98081611Y-82888601D01*
X98081250Y-82881250D01*
X98081250Y-82731250D01*
X98081611Y-82723899D01*
X98082691Y-82716618D01*
X98084479Y-82709479D01*
X98086959Y-82702549D01*
X98090106Y-82695895D01*
X98093890Y-82689582D01*
X98098274Y-82683671D01*
X98103217Y-82678217D01*
X98108671Y-82673274D01*
X98114582Y-82668890D01*
X98120895Y-82665106D01*
X98127549Y-82661959D01*
X98134479Y-82659479D01*
X98141618Y-82657691D01*
X98148899Y-82656611D01*
X98156250Y-82656250D01*
X99481250Y-82656250D01*
X99488601Y-82656611D01*
X99488601Y-82656611D01*
G37*
D18*
X98818750Y-82806250D03*
D13*
G36*
X100313601Y-80656611D02*
G01*
X100320882Y-80657691D01*
X100328021Y-80659479D01*
X100334951Y-80661959D01*
X100341605Y-80665106D01*
X100347918Y-80668890D01*
X100353829Y-80673274D01*
X100359283Y-80678217D01*
X100364226Y-80683671D01*
X100368610Y-80689582D01*
X100372394Y-80695895D01*
X100375541Y-80702549D01*
X100378021Y-80709479D01*
X100379809Y-80716618D01*
X100380889Y-80723899D01*
X100381250Y-80731250D01*
X100381250Y-82056250D01*
X100380889Y-82063601D01*
X100379809Y-82070882D01*
X100378021Y-82078021D01*
X100375541Y-82084951D01*
X100372394Y-82091605D01*
X100368610Y-82097918D01*
X100364226Y-82103829D01*
X100359283Y-82109283D01*
X100353829Y-82114226D01*
X100347918Y-82118610D01*
X100341605Y-82122394D01*
X100334951Y-82125541D01*
X100328021Y-82128021D01*
X100320882Y-82129809D01*
X100313601Y-82130889D01*
X100306250Y-82131250D01*
X100156250Y-82131250D01*
X100148899Y-82130889D01*
X100141618Y-82129809D01*
X100134479Y-82128021D01*
X100127549Y-82125541D01*
X100120895Y-82122394D01*
X100114582Y-82118610D01*
X100108671Y-82114226D01*
X100103217Y-82109283D01*
X100098274Y-82103829D01*
X100093890Y-82097918D01*
X100090106Y-82091605D01*
X100086959Y-82084951D01*
X100084479Y-82078021D01*
X100082691Y-82070882D01*
X100081611Y-82063601D01*
X100081250Y-82056250D01*
X100081250Y-80731250D01*
X100081611Y-80723899D01*
X100082691Y-80716618D01*
X100084479Y-80709479D01*
X100086959Y-80702549D01*
X100090106Y-80695895D01*
X100093890Y-80689582D01*
X100098274Y-80683671D01*
X100103217Y-80678217D01*
X100108671Y-80673274D01*
X100114582Y-80668890D01*
X100120895Y-80665106D01*
X100127549Y-80661959D01*
X100134479Y-80659479D01*
X100141618Y-80657691D01*
X100148899Y-80656611D01*
X100156250Y-80656250D01*
X100306250Y-80656250D01*
X100313601Y-80656611D01*
X100313601Y-80656611D01*
G37*
D18*
X100231250Y-81393750D03*
D13*
G36*
X100813601Y-80656611D02*
G01*
X100820882Y-80657691D01*
X100828021Y-80659479D01*
X100834951Y-80661959D01*
X100841605Y-80665106D01*
X100847918Y-80668890D01*
X100853829Y-80673274D01*
X100859283Y-80678217D01*
X100864226Y-80683671D01*
X100868610Y-80689582D01*
X100872394Y-80695895D01*
X100875541Y-80702549D01*
X100878021Y-80709479D01*
X100879809Y-80716618D01*
X100880889Y-80723899D01*
X100881250Y-80731250D01*
X100881250Y-82056250D01*
X100880889Y-82063601D01*
X100879809Y-82070882D01*
X100878021Y-82078021D01*
X100875541Y-82084951D01*
X100872394Y-82091605D01*
X100868610Y-82097918D01*
X100864226Y-82103829D01*
X100859283Y-82109283D01*
X100853829Y-82114226D01*
X100847918Y-82118610D01*
X100841605Y-82122394D01*
X100834951Y-82125541D01*
X100828021Y-82128021D01*
X100820882Y-82129809D01*
X100813601Y-82130889D01*
X100806250Y-82131250D01*
X100656250Y-82131250D01*
X100648899Y-82130889D01*
X100641618Y-82129809D01*
X100634479Y-82128021D01*
X100627549Y-82125541D01*
X100620895Y-82122394D01*
X100614582Y-82118610D01*
X100608671Y-82114226D01*
X100603217Y-82109283D01*
X100598274Y-82103829D01*
X100593890Y-82097918D01*
X100590106Y-82091605D01*
X100586959Y-82084951D01*
X100584479Y-82078021D01*
X100582691Y-82070882D01*
X100581611Y-82063601D01*
X100581250Y-82056250D01*
X100581250Y-80731250D01*
X100581611Y-80723899D01*
X100582691Y-80716618D01*
X100584479Y-80709479D01*
X100586959Y-80702549D01*
X100590106Y-80695895D01*
X100593890Y-80689582D01*
X100598274Y-80683671D01*
X100603217Y-80678217D01*
X100608671Y-80673274D01*
X100614582Y-80668890D01*
X100620895Y-80665106D01*
X100627549Y-80661959D01*
X100634479Y-80659479D01*
X100641618Y-80657691D01*
X100648899Y-80656611D01*
X100656250Y-80656250D01*
X100806250Y-80656250D01*
X100813601Y-80656611D01*
X100813601Y-80656611D01*
G37*
D18*
X100731250Y-81393750D03*
D13*
G36*
X101313601Y-80656611D02*
G01*
X101320882Y-80657691D01*
X101328021Y-80659479D01*
X101334951Y-80661959D01*
X101341605Y-80665106D01*
X101347918Y-80668890D01*
X101353829Y-80673274D01*
X101359283Y-80678217D01*
X101364226Y-80683671D01*
X101368610Y-80689582D01*
X101372394Y-80695895D01*
X101375541Y-80702549D01*
X101378021Y-80709479D01*
X101379809Y-80716618D01*
X101380889Y-80723899D01*
X101381250Y-80731250D01*
X101381250Y-82056250D01*
X101380889Y-82063601D01*
X101379809Y-82070882D01*
X101378021Y-82078021D01*
X101375541Y-82084951D01*
X101372394Y-82091605D01*
X101368610Y-82097918D01*
X101364226Y-82103829D01*
X101359283Y-82109283D01*
X101353829Y-82114226D01*
X101347918Y-82118610D01*
X101341605Y-82122394D01*
X101334951Y-82125541D01*
X101328021Y-82128021D01*
X101320882Y-82129809D01*
X101313601Y-82130889D01*
X101306250Y-82131250D01*
X101156250Y-82131250D01*
X101148899Y-82130889D01*
X101141618Y-82129809D01*
X101134479Y-82128021D01*
X101127549Y-82125541D01*
X101120895Y-82122394D01*
X101114582Y-82118610D01*
X101108671Y-82114226D01*
X101103217Y-82109283D01*
X101098274Y-82103829D01*
X101093890Y-82097918D01*
X101090106Y-82091605D01*
X101086959Y-82084951D01*
X101084479Y-82078021D01*
X101082691Y-82070882D01*
X101081611Y-82063601D01*
X101081250Y-82056250D01*
X101081250Y-80731250D01*
X101081611Y-80723899D01*
X101082691Y-80716618D01*
X101084479Y-80709479D01*
X101086959Y-80702549D01*
X101090106Y-80695895D01*
X101093890Y-80689582D01*
X101098274Y-80683671D01*
X101103217Y-80678217D01*
X101108671Y-80673274D01*
X101114582Y-80668890D01*
X101120895Y-80665106D01*
X101127549Y-80661959D01*
X101134479Y-80659479D01*
X101141618Y-80657691D01*
X101148899Y-80656611D01*
X101156250Y-80656250D01*
X101306250Y-80656250D01*
X101313601Y-80656611D01*
X101313601Y-80656611D01*
G37*
D18*
X101231250Y-81393750D03*
D13*
G36*
X101813601Y-80656611D02*
G01*
X101820882Y-80657691D01*
X101828021Y-80659479D01*
X101834951Y-80661959D01*
X101841605Y-80665106D01*
X101847918Y-80668890D01*
X101853829Y-80673274D01*
X101859283Y-80678217D01*
X101864226Y-80683671D01*
X101868610Y-80689582D01*
X101872394Y-80695895D01*
X101875541Y-80702549D01*
X101878021Y-80709479D01*
X101879809Y-80716618D01*
X101880889Y-80723899D01*
X101881250Y-80731250D01*
X101881250Y-82056250D01*
X101880889Y-82063601D01*
X101879809Y-82070882D01*
X101878021Y-82078021D01*
X101875541Y-82084951D01*
X101872394Y-82091605D01*
X101868610Y-82097918D01*
X101864226Y-82103829D01*
X101859283Y-82109283D01*
X101853829Y-82114226D01*
X101847918Y-82118610D01*
X101841605Y-82122394D01*
X101834951Y-82125541D01*
X101828021Y-82128021D01*
X101820882Y-82129809D01*
X101813601Y-82130889D01*
X101806250Y-82131250D01*
X101656250Y-82131250D01*
X101648899Y-82130889D01*
X101641618Y-82129809D01*
X101634479Y-82128021D01*
X101627549Y-82125541D01*
X101620895Y-82122394D01*
X101614582Y-82118610D01*
X101608671Y-82114226D01*
X101603217Y-82109283D01*
X101598274Y-82103829D01*
X101593890Y-82097918D01*
X101590106Y-82091605D01*
X101586959Y-82084951D01*
X101584479Y-82078021D01*
X101582691Y-82070882D01*
X101581611Y-82063601D01*
X101581250Y-82056250D01*
X101581250Y-80731250D01*
X101581611Y-80723899D01*
X101582691Y-80716618D01*
X101584479Y-80709479D01*
X101586959Y-80702549D01*
X101590106Y-80695895D01*
X101593890Y-80689582D01*
X101598274Y-80683671D01*
X101603217Y-80678217D01*
X101608671Y-80673274D01*
X101614582Y-80668890D01*
X101620895Y-80665106D01*
X101627549Y-80661959D01*
X101634479Y-80659479D01*
X101641618Y-80657691D01*
X101648899Y-80656611D01*
X101656250Y-80656250D01*
X101806250Y-80656250D01*
X101813601Y-80656611D01*
X101813601Y-80656611D01*
G37*
D18*
X101731250Y-81393750D03*
D13*
G36*
X102313601Y-80656611D02*
G01*
X102320882Y-80657691D01*
X102328021Y-80659479D01*
X102334951Y-80661959D01*
X102341605Y-80665106D01*
X102347918Y-80668890D01*
X102353829Y-80673274D01*
X102359283Y-80678217D01*
X102364226Y-80683671D01*
X102368610Y-80689582D01*
X102372394Y-80695895D01*
X102375541Y-80702549D01*
X102378021Y-80709479D01*
X102379809Y-80716618D01*
X102380889Y-80723899D01*
X102381250Y-80731250D01*
X102381250Y-82056250D01*
X102380889Y-82063601D01*
X102379809Y-82070882D01*
X102378021Y-82078021D01*
X102375541Y-82084951D01*
X102372394Y-82091605D01*
X102368610Y-82097918D01*
X102364226Y-82103829D01*
X102359283Y-82109283D01*
X102353829Y-82114226D01*
X102347918Y-82118610D01*
X102341605Y-82122394D01*
X102334951Y-82125541D01*
X102328021Y-82128021D01*
X102320882Y-82129809D01*
X102313601Y-82130889D01*
X102306250Y-82131250D01*
X102156250Y-82131250D01*
X102148899Y-82130889D01*
X102141618Y-82129809D01*
X102134479Y-82128021D01*
X102127549Y-82125541D01*
X102120895Y-82122394D01*
X102114582Y-82118610D01*
X102108671Y-82114226D01*
X102103217Y-82109283D01*
X102098274Y-82103829D01*
X102093890Y-82097918D01*
X102090106Y-82091605D01*
X102086959Y-82084951D01*
X102084479Y-82078021D01*
X102082691Y-82070882D01*
X102081611Y-82063601D01*
X102081250Y-82056250D01*
X102081250Y-80731250D01*
X102081611Y-80723899D01*
X102082691Y-80716618D01*
X102084479Y-80709479D01*
X102086959Y-80702549D01*
X102090106Y-80695895D01*
X102093890Y-80689582D01*
X102098274Y-80683671D01*
X102103217Y-80678217D01*
X102108671Y-80673274D01*
X102114582Y-80668890D01*
X102120895Y-80665106D01*
X102127549Y-80661959D01*
X102134479Y-80659479D01*
X102141618Y-80657691D01*
X102148899Y-80656611D01*
X102156250Y-80656250D01*
X102306250Y-80656250D01*
X102313601Y-80656611D01*
X102313601Y-80656611D01*
G37*
D18*
X102231250Y-81393750D03*
D13*
G36*
X102813601Y-80656611D02*
G01*
X102820882Y-80657691D01*
X102828021Y-80659479D01*
X102834951Y-80661959D01*
X102841605Y-80665106D01*
X102847918Y-80668890D01*
X102853829Y-80673274D01*
X102859283Y-80678217D01*
X102864226Y-80683671D01*
X102868610Y-80689582D01*
X102872394Y-80695895D01*
X102875541Y-80702549D01*
X102878021Y-80709479D01*
X102879809Y-80716618D01*
X102880889Y-80723899D01*
X102881250Y-80731250D01*
X102881250Y-82056250D01*
X102880889Y-82063601D01*
X102879809Y-82070882D01*
X102878021Y-82078021D01*
X102875541Y-82084951D01*
X102872394Y-82091605D01*
X102868610Y-82097918D01*
X102864226Y-82103829D01*
X102859283Y-82109283D01*
X102853829Y-82114226D01*
X102847918Y-82118610D01*
X102841605Y-82122394D01*
X102834951Y-82125541D01*
X102828021Y-82128021D01*
X102820882Y-82129809D01*
X102813601Y-82130889D01*
X102806250Y-82131250D01*
X102656250Y-82131250D01*
X102648899Y-82130889D01*
X102641618Y-82129809D01*
X102634479Y-82128021D01*
X102627549Y-82125541D01*
X102620895Y-82122394D01*
X102614582Y-82118610D01*
X102608671Y-82114226D01*
X102603217Y-82109283D01*
X102598274Y-82103829D01*
X102593890Y-82097918D01*
X102590106Y-82091605D01*
X102586959Y-82084951D01*
X102584479Y-82078021D01*
X102582691Y-82070882D01*
X102581611Y-82063601D01*
X102581250Y-82056250D01*
X102581250Y-80731250D01*
X102581611Y-80723899D01*
X102582691Y-80716618D01*
X102584479Y-80709479D01*
X102586959Y-80702549D01*
X102590106Y-80695895D01*
X102593890Y-80689582D01*
X102598274Y-80683671D01*
X102603217Y-80678217D01*
X102608671Y-80673274D01*
X102614582Y-80668890D01*
X102620895Y-80665106D01*
X102627549Y-80661959D01*
X102634479Y-80659479D01*
X102641618Y-80657691D01*
X102648899Y-80656611D01*
X102656250Y-80656250D01*
X102806250Y-80656250D01*
X102813601Y-80656611D01*
X102813601Y-80656611D01*
G37*
D18*
X102731250Y-81393750D03*
D13*
G36*
X103313601Y-80656611D02*
G01*
X103320882Y-80657691D01*
X103328021Y-80659479D01*
X103334951Y-80661959D01*
X103341605Y-80665106D01*
X103347918Y-80668890D01*
X103353829Y-80673274D01*
X103359283Y-80678217D01*
X103364226Y-80683671D01*
X103368610Y-80689582D01*
X103372394Y-80695895D01*
X103375541Y-80702549D01*
X103378021Y-80709479D01*
X103379809Y-80716618D01*
X103380889Y-80723899D01*
X103381250Y-80731250D01*
X103381250Y-82056250D01*
X103380889Y-82063601D01*
X103379809Y-82070882D01*
X103378021Y-82078021D01*
X103375541Y-82084951D01*
X103372394Y-82091605D01*
X103368610Y-82097918D01*
X103364226Y-82103829D01*
X103359283Y-82109283D01*
X103353829Y-82114226D01*
X103347918Y-82118610D01*
X103341605Y-82122394D01*
X103334951Y-82125541D01*
X103328021Y-82128021D01*
X103320882Y-82129809D01*
X103313601Y-82130889D01*
X103306250Y-82131250D01*
X103156250Y-82131250D01*
X103148899Y-82130889D01*
X103141618Y-82129809D01*
X103134479Y-82128021D01*
X103127549Y-82125541D01*
X103120895Y-82122394D01*
X103114582Y-82118610D01*
X103108671Y-82114226D01*
X103103217Y-82109283D01*
X103098274Y-82103829D01*
X103093890Y-82097918D01*
X103090106Y-82091605D01*
X103086959Y-82084951D01*
X103084479Y-82078021D01*
X103082691Y-82070882D01*
X103081611Y-82063601D01*
X103081250Y-82056250D01*
X103081250Y-80731250D01*
X103081611Y-80723899D01*
X103082691Y-80716618D01*
X103084479Y-80709479D01*
X103086959Y-80702549D01*
X103090106Y-80695895D01*
X103093890Y-80689582D01*
X103098274Y-80683671D01*
X103103217Y-80678217D01*
X103108671Y-80673274D01*
X103114582Y-80668890D01*
X103120895Y-80665106D01*
X103127549Y-80661959D01*
X103134479Y-80659479D01*
X103141618Y-80657691D01*
X103148899Y-80656611D01*
X103156250Y-80656250D01*
X103306250Y-80656250D01*
X103313601Y-80656611D01*
X103313601Y-80656611D01*
G37*
D18*
X103231250Y-81393750D03*
D13*
G36*
X103813601Y-80656611D02*
G01*
X103820882Y-80657691D01*
X103828021Y-80659479D01*
X103834951Y-80661959D01*
X103841605Y-80665106D01*
X103847918Y-80668890D01*
X103853829Y-80673274D01*
X103859283Y-80678217D01*
X103864226Y-80683671D01*
X103868610Y-80689582D01*
X103872394Y-80695895D01*
X103875541Y-80702549D01*
X103878021Y-80709479D01*
X103879809Y-80716618D01*
X103880889Y-80723899D01*
X103881250Y-80731250D01*
X103881250Y-82056250D01*
X103880889Y-82063601D01*
X103879809Y-82070882D01*
X103878021Y-82078021D01*
X103875541Y-82084951D01*
X103872394Y-82091605D01*
X103868610Y-82097918D01*
X103864226Y-82103829D01*
X103859283Y-82109283D01*
X103853829Y-82114226D01*
X103847918Y-82118610D01*
X103841605Y-82122394D01*
X103834951Y-82125541D01*
X103828021Y-82128021D01*
X103820882Y-82129809D01*
X103813601Y-82130889D01*
X103806250Y-82131250D01*
X103656250Y-82131250D01*
X103648899Y-82130889D01*
X103641618Y-82129809D01*
X103634479Y-82128021D01*
X103627549Y-82125541D01*
X103620895Y-82122394D01*
X103614582Y-82118610D01*
X103608671Y-82114226D01*
X103603217Y-82109283D01*
X103598274Y-82103829D01*
X103593890Y-82097918D01*
X103590106Y-82091605D01*
X103586959Y-82084951D01*
X103584479Y-82078021D01*
X103582691Y-82070882D01*
X103581611Y-82063601D01*
X103581250Y-82056250D01*
X103581250Y-80731250D01*
X103581611Y-80723899D01*
X103582691Y-80716618D01*
X103584479Y-80709479D01*
X103586959Y-80702549D01*
X103590106Y-80695895D01*
X103593890Y-80689582D01*
X103598274Y-80683671D01*
X103603217Y-80678217D01*
X103608671Y-80673274D01*
X103614582Y-80668890D01*
X103620895Y-80665106D01*
X103627549Y-80661959D01*
X103634479Y-80659479D01*
X103641618Y-80657691D01*
X103648899Y-80656611D01*
X103656250Y-80656250D01*
X103806250Y-80656250D01*
X103813601Y-80656611D01*
X103813601Y-80656611D01*
G37*
D18*
X103731250Y-81393750D03*
D13*
G36*
X104313601Y-80656611D02*
G01*
X104320882Y-80657691D01*
X104328021Y-80659479D01*
X104334951Y-80661959D01*
X104341605Y-80665106D01*
X104347918Y-80668890D01*
X104353829Y-80673274D01*
X104359283Y-80678217D01*
X104364226Y-80683671D01*
X104368610Y-80689582D01*
X104372394Y-80695895D01*
X104375541Y-80702549D01*
X104378021Y-80709479D01*
X104379809Y-80716618D01*
X104380889Y-80723899D01*
X104381250Y-80731250D01*
X104381250Y-82056250D01*
X104380889Y-82063601D01*
X104379809Y-82070882D01*
X104378021Y-82078021D01*
X104375541Y-82084951D01*
X104372394Y-82091605D01*
X104368610Y-82097918D01*
X104364226Y-82103829D01*
X104359283Y-82109283D01*
X104353829Y-82114226D01*
X104347918Y-82118610D01*
X104341605Y-82122394D01*
X104334951Y-82125541D01*
X104328021Y-82128021D01*
X104320882Y-82129809D01*
X104313601Y-82130889D01*
X104306250Y-82131250D01*
X104156250Y-82131250D01*
X104148899Y-82130889D01*
X104141618Y-82129809D01*
X104134479Y-82128021D01*
X104127549Y-82125541D01*
X104120895Y-82122394D01*
X104114582Y-82118610D01*
X104108671Y-82114226D01*
X104103217Y-82109283D01*
X104098274Y-82103829D01*
X104093890Y-82097918D01*
X104090106Y-82091605D01*
X104086959Y-82084951D01*
X104084479Y-82078021D01*
X104082691Y-82070882D01*
X104081611Y-82063601D01*
X104081250Y-82056250D01*
X104081250Y-80731250D01*
X104081611Y-80723899D01*
X104082691Y-80716618D01*
X104084479Y-80709479D01*
X104086959Y-80702549D01*
X104090106Y-80695895D01*
X104093890Y-80689582D01*
X104098274Y-80683671D01*
X104103217Y-80678217D01*
X104108671Y-80673274D01*
X104114582Y-80668890D01*
X104120895Y-80665106D01*
X104127549Y-80661959D01*
X104134479Y-80659479D01*
X104141618Y-80657691D01*
X104148899Y-80656611D01*
X104156250Y-80656250D01*
X104306250Y-80656250D01*
X104313601Y-80656611D01*
X104313601Y-80656611D01*
G37*
D18*
X104231250Y-81393750D03*
D13*
G36*
X104813601Y-80656611D02*
G01*
X104820882Y-80657691D01*
X104828021Y-80659479D01*
X104834951Y-80661959D01*
X104841605Y-80665106D01*
X104847918Y-80668890D01*
X104853829Y-80673274D01*
X104859283Y-80678217D01*
X104864226Y-80683671D01*
X104868610Y-80689582D01*
X104872394Y-80695895D01*
X104875541Y-80702549D01*
X104878021Y-80709479D01*
X104879809Y-80716618D01*
X104880889Y-80723899D01*
X104881250Y-80731250D01*
X104881250Y-82056250D01*
X104880889Y-82063601D01*
X104879809Y-82070882D01*
X104878021Y-82078021D01*
X104875541Y-82084951D01*
X104872394Y-82091605D01*
X104868610Y-82097918D01*
X104864226Y-82103829D01*
X104859283Y-82109283D01*
X104853829Y-82114226D01*
X104847918Y-82118610D01*
X104841605Y-82122394D01*
X104834951Y-82125541D01*
X104828021Y-82128021D01*
X104820882Y-82129809D01*
X104813601Y-82130889D01*
X104806250Y-82131250D01*
X104656250Y-82131250D01*
X104648899Y-82130889D01*
X104641618Y-82129809D01*
X104634479Y-82128021D01*
X104627549Y-82125541D01*
X104620895Y-82122394D01*
X104614582Y-82118610D01*
X104608671Y-82114226D01*
X104603217Y-82109283D01*
X104598274Y-82103829D01*
X104593890Y-82097918D01*
X104590106Y-82091605D01*
X104586959Y-82084951D01*
X104584479Y-82078021D01*
X104582691Y-82070882D01*
X104581611Y-82063601D01*
X104581250Y-82056250D01*
X104581250Y-80731250D01*
X104581611Y-80723899D01*
X104582691Y-80716618D01*
X104584479Y-80709479D01*
X104586959Y-80702549D01*
X104590106Y-80695895D01*
X104593890Y-80689582D01*
X104598274Y-80683671D01*
X104603217Y-80678217D01*
X104608671Y-80673274D01*
X104614582Y-80668890D01*
X104620895Y-80665106D01*
X104627549Y-80661959D01*
X104634479Y-80659479D01*
X104641618Y-80657691D01*
X104648899Y-80656611D01*
X104656250Y-80656250D01*
X104806250Y-80656250D01*
X104813601Y-80656611D01*
X104813601Y-80656611D01*
G37*
D18*
X104731250Y-81393750D03*
D13*
G36*
X105313601Y-80656611D02*
G01*
X105320882Y-80657691D01*
X105328021Y-80659479D01*
X105334951Y-80661959D01*
X105341605Y-80665106D01*
X105347918Y-80668890D01*
X105353829Y-80673274D01*
X105359283Y-80678217D01*
X105364226Y-80683671D01*
X105368610Y-80689582D01*
X105372394Y-80695895D01*
X105375541Y-80702549D01*
X105378021Y-80709479D01*
X105379809Y-80716618D01*
X105380889Y-80723899D01*
X105381250Y-80731250D01*
X105381250Y-82056250D01*
X105380889Y-82063601D01*
X105379809Y-82070882D01*
X105378021Y-82078021D01*
X105375541Y-82084951D01*
X105372394Y-82091605D01*
X105368610Y-82097918D01*
X105364226Y-82103829D01*
X105359283Y-82109283D01*
X105353829Y-82114226D01*
X105347918Y-82118610D01*
X105341605Y-82122394D01*
X105334951Y-82125541D01*
X105328021Y-82128021D01*
X105320882Y-82129809D01*
X105313601Y-82130889D01*
X105306250Y-82131250D01*
X105156250Y-82131250D01*
X105148899Y-82130889D01*
X105141618Y-82129809D01*
X105134479Y-82128021D01*
X105127549Y-82125541D01*
X105120895Y-82122394D01*
X105114582Y-82118610D01*
X105108671Y-82114226D01*
X105103217Y-82109283D01*
X105098274Y-82103829D01*
X105093890Y-82097918D01*
X105090106Y-82091605D01*
X105086959Y-82084951D01*
X105084479Y-82078021D01*
X105082691Y-82070882D01*
X105081611Y-82063601D01*
X105081250Y-82056250D01*
X105081250Y-80731250D01*
X105081611Y-80723899D01*
X105082691Y-80716618D01*
X105084479Y-80709479D01*
X105086959Y-80702549D01*
X105090106Y-80695895D01*
X105093890Y-80689582D01*
X105098274Y-80683671D01*
X105103217Y-80678217D01*
X105108671Y-80673274D01*
X105114582Y-80668890D01*
X105120895Y-80665106D01*
X105127549Y-80661959D01*
X105134479Y-80659479D01*
X105141618Y-80657691D01*
X105148899Y-80656611D01*
X105156250Y-80656250D01*
X105306250Y-80656250D01*
X105313601Y-80656611D01*
X105313601Y-80656611D01*
G37*
D18*
X105231250Y-81393750D03*
D13*
G36*
X105813601Y-80656611D02*
G01*
X105820882Y-80657691D01*
X105828021Y-80659479D01*
X105834951Y-80661959D01*
X105841605Y-80665106D01*
X105847918Y-80668890D01*
X105853829Y-80673274D01*
X105859283Y-80678217D01*
X105864226Y-80683671D01*
X105868610Y-80689582D01*
X105872394Y-80695895D01*
X105875541Y-80702549D01*
X105878021Y-80709479D01*
X105879809Y-80716618D01*
X105880889Y-80723899D01*
X105881250Y-80731250D01*
X105881250Y-82056250D01*
X105880889Y-82063601D01*
X105879809Y-82070882D01*
X105878021Y-82078021D01*
X105875541Y-82084951D01*
X105872394Y-82091605D01*
X105868610Y-82097918D01*
X105864226Y-82103829D01*
X105859283Y-82109283D01*
X105853829Y-82114226D01*
X105847918Y-82118610D01*
X105841605Y-82122394D01*
X105834951Y-82125541D01*
X105828021Y-82128021D01*
X105820882Y-82129809D01*
X105813601Y-82130889D01*
X105806250Y-82131250D01*
X105656250Y-82131250D01*
X105648899Y-82130889D01*
X105641618Y-82129809D01*
X105634479Y-82128021D01*
X105627549Y-82125541D01*
X105620895Y-82122394D01*
X105614582Y-82118610D01*
X105608671Y-82114226D01*
X105603217Y-82109283D01*
X105598274Y-82103829D01*
X105593890Y-82097918D01*
X105590106Y-82091605D01*
X105586959Y-82084951D01*
X105584479Y-82078021D01*
X105582691Y-82070882D01*
X105581611Y-82063601D01*
X105581250Y-82056250D01*
X105581250Y-80731250D01*
X105581611Y-80723899D01*
X105582691Y-80716618D01*
X105584479Y-80709479D01*
X105586959Y-80702549D01*
X105590106Y-80695895D01*
X105593890Y-80689582D01*
X105598274Y-80683671D01*
X105603217Y-80678217D01*
X105608671Y-80673274D01*
X105614582Y-80668890D01*
X105620895Y-80665106D01*
X105627549Y-80661959D01*
X105634479Y-80659479D01*
X105641618Y-80657691D01*
X105648899Y-80656611D01*
X105656250Y-80656250D01*
X105806250Y-80656250D01*
X105813601Y-80656611D01*
X105813601Y-80656611D01*
G37*
D18*
X105731250Y-81393750D03*
D13*
G36*
X107813601Y-82656611D02*
G01*
X107820882Y-82657691D01*
X107828021Y-82659479D01*
X107834951Y-82661959D01*
X107841605Y-82665106D01*
X107847918Y-82668890D01*
X107853829Y-82673274D01*
X107859283Y-82678217D01*
X107864226Y-82683671D01*
X107868610Y-82689582D01*
X107872394Y-82695895D01*
X107875541Y-82702549D01*
X107878021Y-82709479D01*
X107879809Y-82716618D01*
X107880889Y-82723899D01*
X107881250Y-82731250D01*
X107881250Y-82881250D01*
X107880889Y-82888601D01*
X107879809Y-82895882D01*
X107878021Y-82903021D01*
X107875541Y-82909951D01*
X107872394Y-82916605D01*
X107868610Y-82922918D01*
X107864226Y-82928829D01*
X107859283Y-82934283D01*
X107853829Y-82939226D01*
X107847918Y-82943610D01*
X107841605Y-82947394D01*
X107834951Y-82950541D01*
X107828021Y-82953021D01*
X107820882Y-82954809D01*
X107813601Y-82955889D01*
X107806250Y-82956250D01*
X106481250Y-82956250D01*
X106473899Y-82955889D01*
X106466618Y-82954809D01*
X106459479Y-82953021D01*
X106452549Y-82950541D01*
X106445895Y-82947394D01*
X106439582Y-82943610D01*
X106433671Y-82939226D01*
X106428217Y-82934283D01*
X106423274Y-82928829D01*
X106418890Y-82922918D01*
X106415106Y-82916605D01*
X106411959Y-82909951D01*
X106409479Y-82903021D01*
X106407691Y-82895882D01*
X106406611Y-82888601D01*
X106406250Y-82881250D01*
X106406250Y-82731250D01*
X106406611Y-82723899D01*
X106407691Y-82716618D01*
X106409479Y-82709479D01*
X106411959Y-82702549D01*
X106415106Y-82695895D01*
X106418890Y-82689582D01*
X106423274Y-82683671D01*
X106428217Y-82678217D01*
X106433671Y-82673274D01*
X106439582Y-82668890D01*
X106445895Y-82665106D01*
X106452549Y-82661959D01*
X106459479Y-82659479D01*
X106466618Y-82657691D01*
X106473899Y-82656611D01*
X106481250Y-82656250D01*
X107806250Y-82656250D01*
X107813601Y-82656611D01*
X107813601Y-82656611D01*
G37*
D18*
X107143750Y-82806250D03*
D13*
G36*
X107813601Y-83156611D02*
G01*
X107820882Y-83157691D01*
X107828021Y-83159479D01*
X107834951Y-83161959D01*
X107841605Y-83165106D01*
X107847918Y-83168890D01*
X107853829Y-83173274D01*
X107859283Y-83178217D01*
X107864226Y-83183671D01*
X107868610Y-83189582D01*
X107872394Y-83195895D01*
X107875541Y-83202549D01*
X107878021Y-83209479D01*
X107879809Y-83216618D01*
X107880889Y-83223899D01*
X107881250Y-83231250D01*
X107881250Y-83381250D01*
X107880889Y-83388601D01*
X107879809Y-83395882D01*
X107878021Y-83403021D01*
X107875541Y-83409951D01*
X107872394Y-83416605D01*
X107868610Y-83422918D01*
X107864226Y-83428829D01*
X107859283Y-83434283D01*
X107853829Y-83439226D01*
X107847918Y-83443610D01*
X107841605Y-83447394D01*
X107834951Y-83450541D01*
X107828021Y-83453021D01*
X107820882Y-83454809D01*
X107813601Y-83455889D01*
X107806250Y-83456250D01*
X106481250Y-83456250D01*
X106473899Y-83455889D01*
X106466618Y-83454809D01*
X106459479Y-83453021D01*
X106452549Y-83450541D01*
X106445895Y-83447394D01*
X106439582Y-83443610D01*
X106433671Y-83439226D01*
X106428217Y-83434283D01*
X106423274Y-83428829D01*
X106418890Y-83422918D01*
X106415106Y-83416605D01*
X106411959Y-83409951D01*
X106409479Y-83403021D01*
X106407691Y-83395882D01*
X106406611Y-83388601D01*
X106406250Y-83381250D01*
X106406250Y-83231250D01*
X106406611Y-83223899D01*
X106407691Y-83216618D01*
X106409479Y-83209479D01*
X106411959Y-83202549D01*
X106415106Y-83195895D01*
X106418890Y-83189582D01*
X106423274Y-83183671D01*
X106428217Y-83178217D01*
X106433671Y-83173274D01*
X106439582Y-83168890D01*
X106445895Y-83165106D01*
X106452549Y-83161959D01*
X106459479Y-83159479D01*
X106466618Y-83157691D01*
X106473899Y-83156611D01*
X106481250Y-83156250D01*
X107806250Y-83156250D01*
X107813601Y-83156611D01*
X107813601Y-83156611D01*
G37*
D18*
X107143750Y-83306250D03*
D13*
G36*
X107813601Y-83656611D02*
G01*
X107820882Y-83657691D01*
X107828021Y-83659479D01*
X107834951Y-83661959D01*
X107841605Y-83665106D01*
X107847918Y-83668890D01*
X107853829Y-83673274D01*
X107859283Y-83678217D01*
X107864226Y-83683671D01*
X107868610Y-83689582D01*
X107872394Y-83695895D01*
X107875541Y-83702549D01*
X107878021Y-83709479D01*
X107879809Y-83716618D01*
X107880889Y-83723899D01*
X107881250Y-83731250D01*
X107881250Y-83881250D01*
X107880889Y-83888601D01*
X107879809Y-83895882D01*
X107878021Y-83903021D01*
X107875541Y-83909951D01*
X107872394Y-83916605D01*
X107868610Y-83922918D01*
X107864226Y-83928829D01*
X107859283Y-83934283D01*
X107853829Y-83939226D01*
X107847918Y-83943610D01*
X107841605Y-83947394D01*
X107834951Y-83950541D01*
X107828021Y-83953021D01*
X107820882Y-83954809D01*
X107813601Y-83955889D01*
X107806250Y-83956250D01*
X106481250Y-83956250D01*
X106473899Y-83955889D01*
X106466618Y-83954809D01*
X106459479Y-83953021D01*
X106452549Y-83950541D01*
X106445895Y-83947394D01*
X106439582Y-83943610D01*
X106433671Y-83939226D01*
X106428217Y-83934283D01*
X106423274Y-83928829D01*
X106418890Y-83922918D01*
X106415106Y-83916605D01*
X106411959Y-83909951D01*
X106409479Y-83903021D01*
X106407691Y-83895882D01*
X106406611Y-83888601D01*
X106406250Y-83881250D01*
X106406250Y-83731250D01*
X106406611Y-83723899D01*
X106407691Y-83716618D01*
X106409479Y-83709479D01*
X106411959Y-83702549D01*
X106415106Y-83695895D01*
X106418890Y-83689582D01*
X106423274Y-83683671D01*
X106428217Y-83678217D01*
X106433671Y-83673274D01*
X106439582Y-83668890D01*
X106445895Y-83665106D01*
X106452549Y-83661959D01*
X106459479Y-83659479D01*
X106466618Y-83657691D01*
X106473899Y-83656611D01*
X106481250Y-83656250D01*
X107806250Y-83656250D01*
X107813601Y-83656611D01*
X107813601Y-83656611D01*
G37*
D18*
X107143750Y-83806250D03*
D13*
G36*
X107813601Y-84156611D02*
G01*
X107820882Y-84157691D01*
X107828021Y-84159479D01*
X107834951Y-84161959D01*
X107841605Y-84165106D01*
X107847918Y-84168890D01*
X107853829Y-84173274D01*
X107859283Y-84178217D01*
X107864226Y-84183671D01*
X107868610Y-84189582D01*
X107872394Y-84195895D01*
X107875541Y-84202549D01*
X107878021Y-84209479D01*
X107879809Y-84216618D01*
X107880889Y-84223899D01*
X107881250Y-84231250D01*
X107881250Y-84381250D01*
X107880889Y-84388601D01*
X107879809Y-84395882D01*
X107878021Y-84403021D01*
X107875541Y-84409951D01*
X107872394Y-84416605D01*
X107868610Y-84422918D01*
X107864226Y-84428829D01*
X107859283Y-84434283D01*
X107853829Y-84439226D01*
X107847918Y-84443610D01*
X107841605Y-84447394D01*
X107834951Y-84450541D01*
X107828021Y-84453021D01*
X107820882Y-84454809D01*
X107813601Y-84455889D01*
X107806250Y-84456250D01*
X106481250Y-84456250D01*
X106473899Y-84455889D01*
X106466618Y-84454809D01*
X106459479Y-84453021D01*
X106452549Y-84450541D01*
X106445895Y-84447394D01*
X106439582Y-84443610D01*
X106433671Y-84439226D01*
X106428217Y-84434283D01*
X106423274Y-84428829D01*
X106418890Y-84422918D01*
X106415106Y-84416605D01*
X106411959Y-84409951D01*
X106409479Y-84403021D01*
X106407691Y-84395882D01*
X106406611Y-84388601D01*
X106406250Y-84381250D01*
X106406250Y-84231250D01*
X106406611Y-84223899D01*
X106407691Y-84216618D01*
X106409479Y-84209479D01*
X106411959Y-84202549D01*
X106415106Y-84195895D01*
X106418890Y-84189582D01*
X106423274Y-84183671D01*
X106428217Y-84178217D01*
X106433671Y-84173274D01*
X106439582Y-84168890D01*
X106445895Y-84165106D01*
X106452549Y-84161959D01*
X106459479Y-84159479D01*
X106466618Y-84157691D01*
X106473899Y-84156611D01*
X106481250Y-84156250D01*
X107806250Y-84156250D01*
X107813601Y-84156611D01*
X107813601Y-84156611D01*
G37*
D18*
X107143750Y-84306250D03*
D13*
G36*
X107813601Y-84656611D02*
G01*
X107820882Y-84657691D01*
X107828021Y-84659479D01*
X107834951Y-84661959D01*
X107841605Y-84665106D01*
X107847918Y-84668890D01*
X107853829Y-84673274D01*
X107859283Y-84678217D01*
X107864226Y-84683671D01*
X107868610Y-84689582D01*
X107872394Y-84695895D01*
X107875541Y-84702549D01*
X107878021Y-84709479D01*
X107879809Y-84716618D01*
X107880889Y-84723899D01*
X107881250Y-84731250D01*
X107881250Y-84881250D01*
X107880889Y-84888601D01*
X107879809Y-84895882D01*
X107878021Y-84903021D01*
X107875541Y-84909951D01*
X107872394Y-84916605D01*
X107868610Y-84922918D01*
X107864226Y-84928829D01*
X107859283Y-84934283D01*
X107853829Y-84939226D01*
X107847918Y-84943610D01*
X107841605Y-84947394D01*
X107834951Y-84950541D01*
X107828021Y-84953021D01*
X107820882Y-84954809D01*
X107813601Y-84955889D01*
X107806250Y-84956250D01*
X106481250Y-84956250D01*
X106473899Y-84955889D01*
X106466618Y-84954809D01*
X106459479Y-84953021D01*
X106452549Y-84950541D01*
X106445895Y-84947394D01*
X106439582Y-84943610D01*
X106433671Y-84939226D01*
X106428217Y-84934283D01*
X106423274Y-84928829D01*
X106418890Y-84922918D01*
X106415106Y-84916605D01*
X106411959Y-84909951D01*
X106409479Y-84903021D01*
X106407691Y-84895882D01*
X106406611Y-84888601D01*
X106406250Y-84881250D01*
X106406250Y-84731250D01*
X106406611Y-84723899D01*
X106407691Y-84716618D01*
X106409479Y-84709479D01*
X106411959Y-84702549D01*
X106415106Y-84695895D01*
X106418890Y-84689582D01*
X106423274Y-84683671D01*
X106428217Y-84678217D01*
X106433671Y-84673274D01*
X106439582Y-84668890D01*
X106445895Y-84665106D01*
X106452549Y-84661959D01*
X106459479Y-84659479D01*
X106466618Y-84657691D01*
X106473899Y-84656611D01*
X106481250Y-84656250D01*
X107806250Y-84656250D01*
X107813601Y-84656611D01*
X107813601Y-84656611D01*
G37*
D18*
X107143750Y-84806250D03*
D13*
G36*
X107813601Y-85156611D02*
G01*
X107820882Y-85157691D01*
X107828021Y-85159479D01*
X107834951Y-85161959D01*
X107841605Y-85165106D01*
X107847918Y-85168890D01*
X107853829Y-85173274D01*
X107859283Y-85178217D01*
X107864226Y-85183671D01*
X107868610Y-85189582D01*
X107872394Y-85195895D01*
X107875541Y-85202549D01*
X107878021Y-85209479D01*
X107879809Y-85216618D01*
X107880889Y-85223899D01*
X107881250Y-85231250D01*
X107881250Y-85381250D01*
X107880889Y-85388601D01*
X107879809Y-85395882D01*
X107878021Y-85403021D01*
X107875541Y-85409951D01*
X107872394Y-85416605D01*
X107868610Y-85422918D01*
X107864226Y-85428829D01*
X107859283Y-85434283D01*
X107853829Y-85439226D01*
X107847918Y-85443610D01*
X107841605Y-85447394D01*
X107834951Y-85450541D01*
X107828021Y-85453021D01*
X107820882Y-85454809D01*
X107813601Y-85455889D01*
X107806250Y-85456250D01*
X106481250Y-85456250D01*
X106473899Y-85455889D01*
X106466618Y-85454809D01*
X106459479Y-85453021D01*
X106452549Y-85450541D01*
X106445895Y-85447394D01*
X106439582Y-85443610D01*
X106433671Y-85439226D01*
X106428217Y-85434283D01*
X106423274Y-85428829D01*
X106418890Y-85422918D01*
X106415106Y-85416605D01*
X106411959Y-85409951D01*
X106409479Y-85403021D01*
X106407691Y-85395882D01*
X106406611Y-85388601D01*
X106406250Y-85381250D01*
X106406250Y-85231250D01*
X106406611Y-85223899D01*
X106407691Y-85216618D01*
X106409479Y-85209479D01*
X106411959Y-85202549D01*
X106415106Y-85195895D01*
X106418890Y-85189582D01*
X106423274Y-85183671D01*
X106428217Y-85178217D01*
X106433671Y-85173274D01*
X106439582Y-85168890D01*
X106445895Y-85165106D01*
X106452549Y-85161959D01*
X106459479Y-85159479D01*
X106466618Y-85157691D01*
X106473899Y-85156611D01*
X106481250Y-85156250D01*
X107806250Y-85156250D01*
X107813601Y-85156611D01*
X107813601Y-85156611D01*
G37*
D18*
X107143750Y-85306250D03*
D13*
G36*
X107813601Y-85656611D02*
G01*
X107820882Y-85657691D01*
X107828021Y-85659479D01*
X107834951Y-85661959D01*
X107841605Y-85665106D01*
X107847918Y-85668890D01*
X107853829Y-85673274D01*
X107859283Y-85678217D01*
X107864226Y-85683671D01*
X107868610Y-85689582D01*
X107872394Y-85695895D01*
X107875541Y-85702549D01*
X107878021Y-85709479D01*
X107879809Y-85716618D01*
X107880889Y-85723899D01*
X107881250Y-85731250D01*
X107881250Y-85881250D01*
X107880889Y-85888601D01*
X107879809Y-85895882D01*
X107878021Y-85903021D01*
X107875541Y-85909951D01*
X107872394Y-85916605D01*
X107868610Y-85922918D01*
X107864226Y-85928829D01*
X107859283Y-85934283D01*
X107853829Y-85939226D01*
X107847918Y-85943610D01*
X107841605Y-85947394D01*
X107834951Y-85950541D01*
X107828021Y-85953021D01*
X107820882Y-85954809D01*
X107813601Y-85955889D01*
X107806250Y-85956250D01*
X106481250Y-85956250D01*
X106473899Y-85955889D01*
X106466618Y-85954809D01*
X106459479Y-85953021D01*
X106452549Y-85950541D01*
X106445895Y-85947394D01*
X106439582Y-85943610D01*
X106433671Y-85939226D01*
X106428217Y-85934283D01*
X106423274Y-85928829D01*
X106418890Y-85922918D01*
X106415106Y-85916605D01*
X106411959Y-85909951D01*
X106409479Y-85903021D01*
X106407691Y-85895882D01*
X106406611Y-85888601D01*
X106406250Y-85881250D01*
X106406250Y-85731250D01*
X106406611Y-85723899D01*
X106407691Y-85716618D01*
X106409479Y-85709479D01*
X106411959Y-85702549D01*
X106415106Y-85695895D01*
X106418890Y-85689582D01*
X106423274Y-85683671D01*
X106428217Y-85678217D01*
X106433671Y-85673274D01*
X106439582Y-85668890D01*
X106445895Y-85665106D01*
X106452549Y-85661959D01*
X106459479Y-85659479D01*
X106466618Y-85657691D01*
X106473899Y-85656611D01*
X106481250Y-85656250D01*
X107806250Y-85656250D01*
X107813601Y-85656611D01*
X107813601Y-85656611D01*
G37*
D18*
X107143750Y-85806250D03*
D13*
G36*
X107813601Y-86156611D02*
G01*
X107820882Y-86157691D01*
X107828021Y-86159479D01*
X107834951Y-86161959D01*
X107841605Y-86165106D01*
X107847918Y-86168890D01*
X107853829Y-86173274D01*
X107859283Y-86178217D01*
X107864226Y-86183671D01*
X107868610Y-86189582D01*
X107872394Y-86195895D01*
X107875541Y-86202549D01*
X107878021Y-86209479D01*
X107879809Y-86216618D01*
X107880889Y-86223899D01*
X107881250Y-86231250D01*
X107881250Y-86381250D01*
X107880889Y-86388601D01*
X107879809Y-86395882D01*
X107878021Y-86403021D01*
X107875541Y-86409951D01*
X107872394Y-86416605D01*
X107868610Y-86422918D01*
X107864226Y-86428829D01*
X107859283Y-86434283D01*
X107853829Y-86439226D01*
X107847918Y-86443610D01*
X107841605Y-86447394D01*
X107834951Y-86450541D01*
X107828021Y-86453021D01*
X107820882Y-86454809D01*
X107813601Y-86455889D01*
X107806250Y-86456250D01*
X106481250Y-86456250D01*
X106473899Y-86455889D01*
X106466618Y-86454809D01*
X106459479Y-86453021D01*
X106452549Y-86450541D01*
X106445895Y-86447394D01*
X106439582Y-86443610D01*
X106433671Y-86439226D01*
X106428217Y-86434283D01*
X106423274Y-86428829D01*
X106418890Y-86422918D01*
X106415106Y-86416605D01*
X106411959Y-86409951D01*
X106409479Y-86403021D01*
X106407691Y-86395882D01*
X106406611Y-86388601D01*
X106406250Y-86381250D01*
X106406250Y-86231250D01*
X106406611Y-86223899D01*
X106407691Y-86216618D01*
X106409479Y-86209479D01*
X106411959Y-86202549D01*
X106415106Y-86195895D01*
X106418890Y-86189582D01*
X106423274Y-86183671D01*
X106428217Y-86178217D01*
X106433671Y-86173274D01*
X106439582Y-86168890D01*
X106445895Y-86165106D01*
X106452549Y-86161959D01*
X106459479Y-86159479D01*
X106466618Y-86157691D01*
X106473899Y-86156611D01*
X106481250Y-86156250D01*
X107806250Y-86156250D01*
X107813601Y-86156611D01*
X107813601Y-86156611D01*
G37*
D18*
X107143750Y-86306250D03*
D13*
G36*
X107813601Y-86656611D02*
G01*
X107820882Y-86657691D01*
X107828021Y-86659479D01*
X107834951Y-86661959D01*
X107841605Y-86665106D01*
X107847918Y-86668890D01*
X107853829Y-86673274D01*
X107859283Y-86678217D01*
X107864226Y-86683671D01*
X107868610Y-86689582D01*
X107872394Y-86695895D01*
X107875541Y-86702549D01*
X107878021Y-86709479D01*
X107879809Y-86716618D01*
X107880889Y-86723899D01*
X107881250Y-86731250D01*
X107881250Y-86881250D01*
X107880889Y-86888601D01*
X107879809Y-86895882D01*
X107878021Y-86903021D01*
X107875541Y-86909951D01*
X107872394Y-86916605D01*
X107868610Y-86922918D01*
X107864226Y-86928829D01*
X107859283Y-86934283D01*
X107853829Y-86939226D01*
X107847918Y-86943610D01*
X107841605Y-86947394D01*
X107834951Y-86950541D01*
X107828021Y-86953021D01*
X107820882Y-86954809D01*
X107813601Y-86955889D01*
X107806250Y-86956250D01*
X106481250Y-86956250D01*
X106473899Y-86955889D01*
X106466618Y-86954809D01*
X106459479Y-86953021D01*
X106452549Y-86950541D01*
X106445895Y-86947394D01*
X106439582Y-86943610D01*
X106433671Y-86939226D01*
X106428217Y-86934283D01*
X106423274Y-86928829D01*
X106418890Y-86922918D01*
X106415106Y-86916605D01*
X106411959Y-86909951D01*
X106409479Y-86903021D01*
X106407691Y-86895882D01*
X106406611Y-86888601D01*
X106406250Y-86881250D01*
X106406250Y-86731250D01*
X106406611Y-86723899D01*
X106407691Y-86716618D01*
X106409479Y-86709479D01*
X106411959Y-86702549D01*
X106415106Y-86695895D01*
X106418890Y-86689582D01*
X106423274Y-86683671D01*
X106428217Y-86678217D01*
X106433671Y-86673274D01*
X106439582Y-86668890D01*
X106445895Y-86665106D01*
X106452549Y-86661959D01*
X106459479Y-86659479D01*
X106466618Y-86657691D01*
X106473899Y-86656611D01*
X106481250Y-86656250D01*
X107806250Y-86656250D01*
X107813601Y-86656611D01*
X107813601Y-86656611D01*
G37*
D18*
X107143750Y-86806250D03*
D13*
G36*
X107813601Y-87156611D02*
G01*
X107820882Y-87157691D01*
X107828021Y-87159479D01*
X107834951Y-87161959D01*
X107841605Y-87165106D01*
X107847918Y-87168890D01*
X107853829Y-87173274D01*
X107859283Y-87178217D01*
X107864226Y-87183671D01*
X107868610Y-87189582D01*
X107872394Y-87195895D01*
X107875541Y-87202549D01*
X107878021Y-87209479D01*
X107879809Y-87216618D01*
X107880889Y-87223899D01*
X107881250Y-87231250D01*
X107881250Y-87381250D01*
X107880889Y-87388601D01*
X107879809Y-87395882D01*
X107878021Y-87403021D01*
X107875541Y-87409951D01*
X107872394Y-87416605D01*
X107868610Y-87422918D01*
X107864226Y-87428829D01*
X107859283Y-87434283D01*
X107853829Y-87439226D01*
X107847918Y-87443610D01*
X107841605Y-87447394D01*
X107834951Y-87450541D01*
X107828021Y-87453021D01*
X107820882Y-87454809D01*
X107813601Y-87455889D01*
X107806250Y-87456250D01*
X106481250Y-87456250D01*
X106473899Y-87455889D01*
X106466618Y-87454809D01*
X106459479Y-87453021D01*
X106452549Y-87450541D01*
X106445895Y-87447394D01*
X106439582Y-87443610D01*
X106433671Y-87439226D01*
X106428217Y-87434283D01*
X106423274Y-87428829D01*
X106418890Y-87422918D01*
X106415106Y-87416605D01*
X106411959Y-87409951D01*
X106409479Y-87403021D01*
X106407691Y-87395882D01*
X106406611Y-87388601D01*
X106406250Y-87381250D01*
X106406250Y-87231250D01*
X106406611Y-87223899D01*
X106407691Y-87216618D01*
X106409479Y-87209479D01*
X106411959Y-87202549D01*
X106415106Y-87195895D01*
X106418890Y-87189582D01*
X106423274Y-87183671D01*
X106428217Y-87178217D01*
X106433671Y-87173274D01*
X106439582Y-87168890D01*
X106445895Y-87165106D01*
X106452549Y-87161959D01*
X106459479Y-87159479D01*
X106466618Y-87157691D01*
X106473899Y-87156611D01*
X106481250Y-87156250D01*
X107806250Y-87156250D01*
X107813601Y-87156611D01*
X107813601Y-87156611D01*
G37*
D18*
X107143750Y-87306250D03*
D13*
G36*
X107813601Y-87656611D02*
G01*
X107820882Y-87657691D01*
X107828021Y-87659479D01*
X107834951Y-87661959D01*
X107841605Y-87665106D01*
X107847918Y-87668890D01*
X107853829Y-87673274D01*
X107859283Y-87678217D01*
X107864226Y-87683671D01*
X107868610Y-87689582D01*
X107872394Y-87695895D01*
X107875541Y-87702549D01*
X107878021Y-87709479D01*
X107879809Y-87716618D01*
X107880889Y-87723899D01*
X107881250Y-87731250D01*
X107881250Y-87881250D01*
X107880889Y-87888601D01*
X107879809Y-87895882D01*
X107878021Y-87903021D01*
X107875541Y-87909951D01*
X107872394Y-87916605D01*
X107868610Y-87922918D01*
X107864226Y-87928829D01*
X107859283Y-87934283D01*
X107853829Y-87939226D01*
X107847918Y-87943610D01*
X107841605Y-87947394D01*
X107834951Y-87950541D01*
X107828021Y-87953021D01*
X107820882Y-87954809D01*
X107813601Y-87955889D01*
X107806250Y-87956250D01*
X106481250Y-87956250D01*
X106473899Y-87955889D01*
X106466618Y-87954809D01*
X106459479Y-87953021D01*
X106452549Y-87950541D01*
X106445895Y-87947394D01*
X106439582Y-87943610D01*
X106433671Y-87939226D01*
X106428217Y-87934283D01*
X106423274Y-87928829D01*
X106418890Y-87922918D01*
X106415106Y-87916605D01*
X106411959Y-87909951D01*
X106409479Y-87903021D01*
X106407691Y-87895882D01*
X106406611Y-87888601D01*
X106406250Y-87881250D01*
X106406250Y-87731250D01*
X106406611Y-87723899D01*
X106407691Y-87716618D01*
X106409479Y-87709479D01*
X106411959Y-87702549D01*
X106415106Y-87695895D01*
X106418890Y-87689582D01*
X106423274Y-87683671D01*
X106428217Y-87678217D01*
X106433671Y-87673274D01*
X106439582Y-87668890D01*
X106445895Y-87665106D01*
X106452549Y-87661959D01*
X106459479Y-87659479D01*
X106466618Y-87657691D01*
X106473899Y-87656611D01*
X106481250Y-87656250D01*
X107806250Y-87656250D01*
X107813601Y-87656611D01*
X107813601Y-87656611D01*
G37*
D18*
X107143750Y-87806250D03*
D13*
G36*
X107813601Y-88156611D02*
G01*
X107820882Y-88157691D01*
X107828021Y-88159479D01*
X107834951Y-88161959D01*
X107841605Y-88165106D01*
X107847918Y-88168890D01*
X107853829Y-88173274D01*
X107859283Y-88178217D01*
X107864226Y-88183671D01*
X107868610Y-88189582D01*
X107872394Y-88195895D01*
X107875541Y-88202549D01*
X107878021Y-88209479D01*
X107879809Y-88216618D01*
X107880889Y-88223899D01*
X107881250Y-88231250D01*
X107881250Y-88381250D01*
X107880889Y-88388601D01*
X107879809Y-88395882D01*
X107878021Y-88403021D01*
X107875541Y-88409951D01*
X107872394Y-88416605D01*
X107868610Y-88422918D01*
X107864226Y-88428829D01*
X107859283Y-88434283D01*
X107853829Y-88439226D01*
X107847918Y-88443610D01*
X107841605Y-88447394D01*
X107834951Y-88450541D01*
X107828021Y-88453021D01*
X107820882Y-88454809D01*
X107813601Y-88455889D01*
X107806250Y-88456250D01*
X106481250Y-88456250D01*
X106473899Y-88455889D01*
X106466618Y-88454809D01*
X106459479Y-88453021D01*
X106452549Y-88450541D01*
X106445895Y-88447394D01*
X106439582Y-88443610D01*
X106433671Y-88439226D01*
X106428217Y-88434283D01*
X106423274Y-88428829D01*
X106418890Y-88422918D01*
X106415106Y-88416605D01*
X106411959Y-88409951D01*
X106409479Y-88403021D01*
X106407691Y-88395882D01*
X106406611Y-88388601D01*
X106406250Y-88381250D01*
X106406250Y-88231250D01*
X106406611Y-88223899D01*
X106407691Y-88216618D01*
X106409479Y-88209479D01*
X106411959Y-88202549D01*
X106415106Y-88195895D01*
X106418890Y-88189582D01*
X106423274Y-88183671D01*
X106428217Y-88178217D01*
X106433671Y-88173274D01*
X106439582Y-88168890D01*
X106445895Y-88165106D01*
X106452549Y-88161959D01*
X106459479Y-88159479D01*
X106466618Y-88157691D01*
X106473899Y-88156611D01*
X106481250Y-88156250D01*
X107806250Y-88156250D01*
X107813601Y-88156611D01*
X107813601Y-88156611D01*
G37*
D18*
X107143750Y-88306250D03*
D13*
G36*
X105813601Y-88981611D02*
G01*
X105820882Y-88982691D01*
X105828021Y-88984479D01*
X105834951Y-88986959D01*
X105841605Y-88990106D01*
X105847918Y-88993890D01*
X105853829Y-88998274D01*
X105859283Y-89003217D01*
X105864226Y-89008671D01*
X105868610Y-89014582D01*
X105872394Y-89020895D01*
X105875541Y-89027549D01*
X105878021Y-89034479D01*
X105879809Y-89041618D01*
X105880889Y-89048899D01*
X105881250Y-89056250D01*
X105881250Y-90381250D01*
X105880889Y-90388601D01*
X105879809Y-90395882D01*
X105878021Y-90403021D01*
X105875541Y-90409951D01*
X105872394Y-90416605D01*
X105868610Y-90422918D01*
X105864226Y-90428829D01*
X105859283Y-90434283D01*
X105853829Y-90439226D01*
X105847918Y-90443610D01*
X105841605Y-90447394D01*
X105834951Y-90450541D01*
X105828021Y-90453021D01*
X105820882Y-90454809D01*
X105813601Y-90455889D01*
X105806250Y-90456250D01*
X105656250Y-90456250D01*
X105648899Y-90455889D01*
X105641618Y-90454809D01*
X105634479Y-90453021D01*
X105627549Y-90450541D01*
X105620895Y-90447394D01*
X105614582Y-90443610D01*
X105608671Y-90439226D01*
X105603217Y-90434283D01*
X105598274Y-90428829D01*
X105593890Y-90422918D01*
X105590106Y-90416605D01*
X105586959Y-90409951D01*
X105584479Y-90403021D01*
X105582691Y-90395882D01*
X105581611Y-90388601D01*
X105581250Y-90381250D01*
X105581250Y-89056250D01*
X105581611Y-89048899D01*
X105582691Y-89041618D01*
X105584479Y-89034479D01*
X105586959Y-89027549D01*
X105590106Y-89020895D01*
X105593890Y-89014582D01*
X105598274Y-89008671D01*
X105603217Y-89003217D01*
X105608671Y-88998274D01*
X105614582Y-88993890D01*
X105620895Y-88990106D01*
X105627549Y-88986959D01*
X105634479Y-88984479D01*
X105641618Y-88982691D01*
X105648899Y-88981611D01*
X105656250Y-88981250D01*
X105806250Y-88981250D01*
X105813601Y-88981611D01*
X105813601Y-88981611D01*
G37*
D18*
X105731250Y-89718750D03*
D13*
G36*
X105313601Y-88981611D02*
G01*
X105320882Y-88982691D01*
X105328021Y-88984479D01*
X105334951Y-88986959D01*
X105341605Y-88990106D01*
X105347918Y-88993890D01*
X105353829Y-88998274D01*
X105359283Y-89003217D01*
X105364226Y-89008671D01*
X105368610Y-89014582D01*
X105372394Y-89020895D01*
X105375541Y-89027549D01*
X105378021Y-89034479D01*
X105379809Y-89041618D01*
X105380889Y-89048899D01*
X105381250Y-89056250D01*
X105381250Y-90381250D01*
X105380889Y-90388601D01*
X105379809Y-90395882D01*
X105378021Y-90403021D01*
X105375541Y-90409951D01*
X105372394Y-90416605D01*
X105368610Y-90422918D01*
X105364226Y-90428829D01*
X105359283Y-90434283D01*
X105353829Y-90439226D01*
X105347918Y-90443610D01*
X105341605Y-90447394D01*
X105334951Y-90450541D01*
X105328021Y-90453021D01*
X105320882Y-90454809D01*
X105313601Y-90455889D01*
X105306250Y-90456250D01*
X105156250Y-90456250D01*
X105148899Y-90455889D01*
X105141618Y-90454809D01*
X105134479Y-90453021D01*
X105127549Y-90450541D01*
X105120895Y-90447394D01*
X105114582Y-90443610D01*
X105108671Y-90439226D01*
X105103217Y-90434283D01*
X105098274Y-90428829D01*
X105093890Y-90422918D01*
X105090106Y-90416605D01*
X105086959Y-90409951D01*
X105084479Y-90403021D01*
X105082691Y-90395882D01*
X105081611Y-90388601D01*
X105081250Y-90381250D01*
X105081250Y-89056250D01*
X105081611Y-89048899D01*
X105082691Y-89041618D01*
X105084479Y-89034479D01*
X105086959Y-89027549D01*
X105090106Y-89020895D01*
X105093890Y-89014582D01*
X105098274Y-89008671D01*
X105103217Y-89003217D01*
X105108671Y-88998274D01*
X105114582Y-88993890D01*
X105120895Y-88990106D01*
X105127549Y-88986959D01*
X105134479Y-88984479D01*
X105141618Y-88982691D01*
X105148899Y-88981611D01*
X105156250Y-88981250D01*
X105306250Y-88981250D01*
X105313601Y-88981611D01*
X105313601Y-88981611D01*
G37*
D18*
X105231250Y-89718750D03*
D13*
G36*
X104813601Y-88981611D02*
G01*
X104820882Y-88982691D01*
X104828021Y-88984479D01*
X104834951Y-88986959D01*
X104841605Y-88990106D01*
X104847918Y-88993890D01*
X104853829Y-88998274D01*
X104859283Y-89003217D01*
X104864226Y-89008671D01*
X104868610Y-89014582D01*
X104872394Y-89020895D01*
X104875541Y-89027549D01*
X104878021Y-89034479D01*
X104879809Y-89041618D01*
X104880889Y-89048899D01*
X104881250Y-89056250D01*
X104881250Y-90381250D01*
X104880889Y-90388601D01*
X104879809Y-90395882D01*
X104878021Y-90403021D01*
X104875541Y-90409951D01*
X104872394Y-90416605D01*
X104868610Y-90422918D01*
X104864226Y-90428829D01*
X104859283Y-90434283D01*
X104853829Y-90439226D01*
X104847918Y-90443610D01*
X104841605Y-90447394D01*
X104834951Y-90450541D01*
X104828021Y-90453021D01*
X104820882Y-90454809D01*
X104813601Y-90455889D01*
X104806250Y-90456250D01*
X104656250Y-90456250D01*
X104648899Y-90455889D01*
X104641618Y-90454809D01*
X104634479Y-90453021D01*
X104627549Y-90450541D01*
X104620895Y-90447394D01*
X104614582Y-90443610D01*
X104608671Y-90439226D01*
X104603217Y-90434283D01*
X104598274Y-90428829D01*
X104593890Y-90422918D01*
X104590106Y-90416605D01*
X104586959Y-90409951D01*
X104584479Y-90403021D01*
X104582691Y-90395882D01*
X104581611Y-90388601D01*
X104581250Y-90381250D01*
X104581250Y-89056250D01*
X104581611Y-89048899D01*
X104582691Y-89041618D01*
X104584479Y-89034479D01*
X104586959Y-89027549D01*
X104590106Y-89020895D01*
X104593890Y-89014582D01*
X104598274Y-89008671D01*
X104603217Y-89003217D01*
X104608671Y-88998274D01*
X104614582Y-88993890D01*
X104620895Y-88990106D01*
X104627549Y-88986959D01*
X104634479Y-88984479D01*
X104641618Y-88982691D01*
X104648899Y-88981611D01*
X104656250Y-88981250D01*
X104806250Y-88981250D01*
X104813601Y-88981611D01*
X104813601Y-88981611D01*
G37*
D18*
X104731250Y-89718750D03*
D13*
G36*
X104313601Y-88981611D02*
G01*
X104320882Y-88982691D01*
X104328021Y-88984479D01*
X104334951Y-88986959D01*
X104341605Y-88990106D01*
X104347918Y-88993890D01*
X104353829Y-88998274D01*
X104359283Y-89003217D01*
X104364226Y-89008671D01*
X104368610Y-89014582D01*
X104372394Y-89020895D01*
X104375541Y-89027549D01*
X104378021Y-89034479D01*
X104379809Y-89041618D01*
X104380889Y-89048899D01*
X104381250Y-89056250D01*
X104381250Y-90381250D01*
X104380889Y-90388601D01*
X104379809Y-90395882D01*
X104378021Y-90403021D01*
X104375541Y-90409951D01*
X104372394Y-90416605D01*
X104368610Y-90422918D01*
X104364226Y-90428829D01*
X104359283Y-90434283D01*
X104353829Y-90439226D01*
X104347918Y-90443610D01*
X104341605Y-90447394D01*
X104334951Y-90450541D01*
X104328021Y-90453021D01*
X104320882Y-90454809D01*
X104313601Y-90455889D01*
X104306250Y-90456250D01*
X104156250Y-90456250D01*
X104148899Y-90455889D01*
X104141618Y-90454809D01*
X104134479Y-90453021D01*
X104127549Y-90450541D01*
X104120895Y-90447394D01*
X104114582Y-90443610D01*
X104108671Y-90439226D01*
X104103217Y-90434283D01*
X104098274Y-90428829D01*
X104093890Y-90422918D01*
X104090106Y-90416605D01*
X104086959Y-90409951D01*
X104084479Y-90403021D01*
X104082691Y-90395882D01*
X104081611Y-90388601D01*
X104081250Y-90381250D01*
X104081250Y-89056250D01*
X104081611Y-89048899D01*
X104082691Y-89041618D01*
X104084479Y-89034479D01*
X104086959Y-89027549D01*
X104090106Y-89020895D01*
X104093890Y-89014582D01*
X104098274Y-89008671D01*
X104103217Y-89003217D01*
X104108671Y-88998274D01*
X104114582Y-88993890D01*
X104120895Y-88990106D01*
X104127549Y-88986959D01*
X104134479Y-88984479D01*
X104141618Y-88982691D01*
X104148899Y-88981611D01*
X104156250Y-88981250D01*
X104306250Y-88981250D01*
X104313601Y-88981611D01*
X104313601Y-88981611D01*
G37*
D18*
X104231250Y-89718750D03*
D13*
G36*
X103813601Y-88981611D02*
G01*
X103820882Y-88982691D01*
X103828021Y-88984479D01*
X103834951Y-88986959D01*
X103841605Y-88990106D01*
X103847918Y-88993890D01*
X103853829Y-88998274D01*
X103859283Y-89003217D01*
X103864226Y-89008671D01*
X103868610Y-89014582D01*
X103872394Y-89020895D01*
X103875541Y-89027549D01*
X103878021Y-89034479D01*
X103879809Y-89041618D01*
X103880889Y-89048899D01*
X103881250Y-89056250D01*
X103881250Y-90381250D01*
X103880889Y-90388601D01*
X103879809Y-90395882D01*
X103878021Y-90403021D01*
X103875541Y-90409951D01*
X103872394Y-90416605D01*
X103868610Y-90422918D01*
X103864226Y-90428829D01*
X103859283Y-90434283D01*
X103853829Y-90439226D01*
X103847918Y-90443610D01*
X103841605Y-90447394D01*
X103834951Y-90450541D01*
X103828021Y-90453021D01*
X103820882Y-90454809D01*
X103813601Y-90455889D01*
X103806250Y-90456250D01*
X103656250Y-90456250D01*
X103648899Y-90455889D01*
X103641618Y-90454809D01*
X103634479Y-90453021D01*
X103627549Y-90450541D01*
X103620895Y-90447394D01*
X103614582Y-90443610D01*
X103608671Y-90439226D01*
X103603217Y-90434283D01*
X103598274Y-90428829D01*
X103593890Y-90422918D01*
X103590106Y-90416605D01*
X103586959Y-90409951D01*
X103584479Y-90403021D01*
X103582691Y-90395882D01*
X103581611Y-90388601D01*
X103581250Y-90381250D01*
X103581250Y-89056250D01*
X103581611Y-89048899D01*
X103582691Y-89041618D01*
X103584479Y-89034479D01*
X103586959Y-89027549D01*
X103590106Y-89020895D01*
X103593890Y-89014582D01*
X103598274Y-89008671D01*
X103603217Y-89003217D01*
X103608671Y-88998274D01*
X103614582Y-88993890D01*
X103620895Y-88990106D01*
X103627549Y-88986959D01*
X103634479Y-88984479D01*
X103641618Y-88982691D01*
X103648899Y-88981611D01*
X103656250Y-88981250D01*
X103806250Y-88981250D01*
X103813601Y-88981611D01*
X103813601Y-88981611D01*
G37*
D18*
X103731250Y-89718750D03*
D13*
G36*
X103313601Y-88981611D02*
G01*
X103320882Y-88982691D01*
X103328021Y-88984479D01*
X103334951Y-88986959D01*
X103341605Y-88990106D01*
X103347918Y-88993890D01*
X103353829Y-88998274D01*
X103359283Y-89003217D01*
X103364226Y-89008671D01*
X103368610Y-89014582D01*
X103372394Y-89020895D01*
X103375541Y-89027549D01*
X103378021Y-89034479D01*
X103379809Y-89041618D01*
X103380889Y-89048899D01*
X103381250Y-89056250D01*
X103381250Y-90381250D01*
X103380889Y-90388601D01*
X103379809Y-90395882D01*
X103378021Y-90403021D01*
X103375541Y-90409951D01*
X103372394Y-90416605D01*
X103368610Y-90422918D01*
X103364226Y-90428829D01*
X103359283Y-90434283D01*
X103353829Y-90439226D01*
X103347918Y-90443610D01*
X103341605Y-90447394D01*
X103334951Y-90450541D01*
X103328021Y-90453021D01*
X103320882Y-90454809D01*
X103313601Y-90455889D01*
X103306250Y-90456250D01*
X103156250Y-90456250D01*
X103148899Y-90455889D01*
X103141618Y-90454809D01*
X103134479Y-90453021D01*
X103127549Y-90450541D01*
X103120895Y-90447394D01*
X103114582Y-90443610D01*
X103108671Y-90439226D01*
X103103217Y-90434283D01*
X103098274Y-90428829D01*
X103093890Y-90422918D01*
X103090106Y-90416605D01*
X103086959Y-90409951D01*
X103084479Y-90403021D01*
X103082691Y-90395882D01*
X103081611Y-90388601D01*
X103081250Y-90381250D01*
X103081250Y-89056250D01*
X103081611Y-89048899D01*
X103082691Y-89041618D01*
X103084479Y-89034479D01*
X103086959Y-89027549D01*
X103090106Y-89020895D01*
X103093890Y-89014582D01*
X103098274Y-89008671D01*
X103103217Y-89003217D01*
X103108671Y-88998274D01*
X103114582Y-88993890D01*
X103120895Y-88990106D01*
X103127549Y-88986959D01*
X103134479Y-88984479D01*
X103141618Y-88982691D01*
X103148899Y-88981611D01*
X103156250Y-88981250D01*
X103306250Y-88981250D01*
X103313601Y-88981611D01*
X103313601Y-88981611D01*
G37*
D18*
X103231250Y-89718750D03*
D13*
G36*
X102813601Y-88981611D02*
G01*
X102820882Y-88982691D01*
X102828021Y-88984479D01*
X102834951Y-88986959D01*
X102841605Y-88990106D01*
X102847918Y-88993890D01*
X102853829Y-88998274D01*
X102859283Y-89003217D01*
X102864226Y-89008671D01*
X102868610Y-89014582D01*
X102872394Y-89020895D01*
X102875541Y-89027549D01*
X102878021Y-89034479D01*
X102879809Y-89041618D01*
X102880889Y-89048899D01*
X102881250Y-89056250D01*
X102881250Y-90381250D01*
X102880889Y-90388601D01*
X102879809Y-90395882D01*
X102878021Y-90403021D01*
X102875541Y-90409951D01*
X102872394Y-90416605D01*
X102868610Y-90422918D01*
X102864226Y-90428829D01*
X102859283Y-90434283D01*
X102853829Y-90439226D01*
X102847918Y-90443610D01*
X102841605Y-90447394D01*
X102834951Y-90450541D01*
X102828021Y-90453021D01*
X102820882Y-90454809D01*
X102813601Y-90455889D01*
X102806250Y-90456250D01*
X102656250Y-90456250D01*
X102648899Y-90455889D01*
X102641618Y-90454809D01*
X102634479Y-90453021D01*
X102627549Y-90450541D01*
X102620895Y-90447394D01*
X102614582Y-90443610D01*
X102608671Y-90439226D01*
X102603217Y-90434283D01*
X102598274Y-90428829D01*
X102593890Y-90422918D01*
X102590106Y-90416605D01*
X102586959Y-90409951D01*
X102584479Y-90403021D01*
X102582691Y-90395882D01*
X102581611Y-90388601D01*
X102581250Y-90381250D01*
X102581250Y-89056250D01*
X102581611Y-89048899D01*
X102582691Y-89041618D01*
X102584479Y-89034479D01*
X102586959Y-89027549D01*
X102590106Y-89020895D01*
X102593890Y-89014582D01*
X102598274Y-89008671D01*
X102603217Y-89003217D01*
X102608671Y-88998274D01*
X102614582Y-88993890D01*
X102620895Y-88990106D01*
X102627549Y-88986959D01*
X102634479Y-88984479D01*
X102641618Y-88982691D01*
X102648899Y-88981611D01*
X102656250Y-88981250D01*
X102806250Y-88981250D01*
X102813601Y-88981611D01*
X102813601Y-88981611D01*
G37*
D18*
X102731250Y-89718750D03*
D13*
G36*
X102313601Y-88981611D02*
G01*
X102320882Y-88982691D01*
X102328021Y-88984479D01*
X102334951Y-88986959D01*
X102341605Y-88990106D01*
X102347918Y-88993890D01*
X102353829Y-88998274D01*
X102359283Y-89003217D01*
X102364226Y-89008671D01*
X102368610Y-89014582D01*
X102372394Y-89020895D01*
X102375541Y-89027549D01*
X102378021Y-89034479D01*
X102379809Y-89041618D01*
X102380889Y-89048899D01*
X102381250Y-89056250D01*
X102381250Y-90381250D01*
X102380889Y-90388601D01*
X102379809Y-90395882D01*
X102378021Y-90403021D01*
X102375541Y-90409951D01*
X102372394Y-90416605D01*
X102368610Y-90422918D01*
X102364226Y-90428829D01*
X102359283Y-90434283D01*
X102353829Y-90439226D01*
X102347918Y-90443610D01*
X102341605Y-90447394D01*
X102334951Y-90450541D01*
X102328021Y-90453021D01*
X102320882Y-90454809D01*
X102313601Y-90455889D01*
X102306250Y-90456250D01*
X102156250Y-90456250D01*
X102148899Y-90455889D01*
X102141618Y-90454809D01*
X102134479Y-90453021D01*
X102127549Y-90450541D01*
X102120895Y-90447394D01*
X102114582Y-90443610D01*
X102108671Y-90439226D01*
X102103217Y-90434283D01*
X102098274Y-90428829D01*
X102093890Y-90422918D01*
X102090106Y-90416605D01*
X102086959Y-90409951D01*
X102084479Y-90403021D01*
X102082691Y-90395882D01*
X102081611Y-90388601D01*
X102081250Y-90381250D01*
X102081250Y-89056250D01*
X102081611Y-89048899D01*
X102082691Y-89041618D01*
X102084479Y-89034479D01*
X102086959Y-89027549D01*
X102090106Y-89020895D01*
X102093890Y-89014582D01*
X102098274Y-89008671D01*
X102103217Y-89003217D01*
X102108671Y-88998274D01*
X102114582Y-88993890D01*
X102120895Y-88990106D01*
X102127549Y-88986959D01*
X102134479Y-88984479D01*
X102141618Y-88982691D01*
X102148899Y-88981611D01*
X102156250Y-88981250D01*
X102306250Y-88981250D01*
X102313601Y-88981611D01*
X102313601Y-88981611D01*
G37*
D18*
X102231250Y-89718750D03*
D13*
G36*
X101813601Y-88981611D02*
G01*
X101820882Y-88982691D01*
X101828021Y-88984479D01*
X101834951Y-88986959D01*
X101841605Y-88990106D01*
X101847918Y-88993890D01*
X101853829Y-88998274D01*
X101859283Y-89003217D01*
X101864226Y-89008671D01*
X101868610Y-89014582D01*
X101872394Y-89020895D01*
X101875541Y-89027549D01*
X101878021Y-89034479D01*
X101879809Y-89041618D01*
X101880889Y-89048899D01*
X101881250Y-89056250D01*
X101881250Y-90381250D01*
X101880889Y-90388601D01*
X101879809Y-90395882D01*
X101878021Y-90403021D01*
X101875541Y-90409951D01*
X101872394Y-90416605D01*
X101868610Y-90422918D01*
X101864226Y-90428829D01*
X101859283Y-90434283D01*
X101853829Y-90439226D01*
X101847918Y-90443610D01*
X101841605Y-90447394D01*
X101834951Y-90450541D01*
X101828021Y-90453021D01*
X101820882Y-90454809D01*
X101813601Y-90455889D01*
X101806250Y-90456250D01*
X101656250Y-90456250D01*
X101648899Y-90455889D01*
X101641618Y-90454809D01*
X101634479Y-90453021D01*
X101627549Y-90450541D01*
X101620895Y-90447394D01*
X101614582Y-90443610D01*
X101608671Y-90439226D01*
X101603217Y-90434283D01*
X101598274Y-90428829D01*
X101593890Y-90422918D01*
X101590106Y-90416605D01*
X101586959Y-90409951D01*
X101584479Y-90403021D01*
X101582691Y-90395882D01*
X101581611Y-90388601D01*
X101581250Y-90381250D01*
X101581250Y-89056250D01*
X101581611Y-89048899D01*
X101582691Y-89041618D01*
X101584479Y-89034479D01*
X101586959Y-89027549D01*
X101590106Y-89020895D01*
X101593890Y-89014582D01*
X101598274Y-89008671D01*
X101603217Y-89003217D01*
X101608671Y-88998274D01*
X101614582Y-88993890D01*
X101620895Y-88990106D01*
X101627549Y-88986959D01*
X101634479Y-88984479D01*
X101641618Y-88982691D01*
X101648899Y-88981611D01*
X101656250Y-88981250D01*
X101806250Y-88981250D01*
X101813601Y-88981611D01*
X101813601Y-88981611D01*
G37*
D18*
X101731250Y-89718750D03*
D13*
G36*
X101313601Y-88981611D02*
G01*
X101320882Y-88982691D01*
X101328021Y-88984479D01*
X101334951Y-88986959D01*
X101341605Y-88990106D01*
X101347918Y-88993890D01*
X101353829Y-88998274D01*
X101359283Y-89003217D01*
X101364226Y-89008671D01*
X101368610Y-89014582D01*
X101372394Y-89020895D01*
X101375541Y-89027549D01*
X101378021Y-89034479D01*
X101379809Y-89041618D01*
X101380889Y-89048899D01*
X101381250Y-89056250D01*
X101381250Y-90381250D01*
X101380889Y-90388601D01*
X101379809Y-90395882D01*
X101378021Y-90403021D01*
X101375541Y-90409951D01*
X101372394Y-90416605D01*
X101368610Y-90422918D01*
X101364226Y-90428829D01*
X101359283Y-90434283D01*
X101353829Y-90439226D01*
X101347918Y-90443610D01*
X101341605Y-90447394D01*
X101334951Y-90450541D01*
X101328021Y-90453021D01*
X101320882Y-90454809D01*
X101313601Y-90455889D01*
X101306250Y-90456250D01*
X101156250Y-90456250D01*
X101148899Y-90455889D01*
X101141618Y-90454809D01*
X101134479Y-90453021D01*
X101127549Y-90450541D01*
X101120895Y-90447394D01*
X101114582Y-90443610D01*
X101108671Y-90439226D01*
X101103217Y-90434283D01*
X101098274Y-90428829D01*
X101093890Y-90422918D01*
X101090106Y-90416605D01*
X101086959Y-90409951D01*
X101084479Y-90403021D01*
X101082691Y-90395882D01*
X101081611Y-90388601D01*
X101081250Y-90381250D01*
X101081250Y-89056250D01*
X101081611Y-89048899D01*
X101082691Y-89041618D01*
X101084479Y-89034479D01*
X101086959Y-89027549D01*
X101090106Y-89020895D01*
X101093890Y-89014582D01*
X101098274Y-89008671D01*
X101103217Y-89003217D01*
X101108671Y-88998274D01*
X101114582Y-88993890D01*
X101120895Y-88990106D01*
X101127549Y-88986959D01*
X101134479Y-88984479D01*
X101141618Y-88982691D01*
X101148899Y-88981611D01*
X101156250Y-88981250D01*
X101306250Y-88981250D01*
X101313601Y-88981611D01*
X101313601Y-88981611D01*
G37*
D18*
X101231250Y-89718750D03*
D13*
G36*
X100813601Y-88981611D02*
G01*
X100820882Y-88982691D01*
X100828021Y-88984479D01*
X100834951Y-88986959D01*
X100841605Y-88990106D01*
X100847918Y-88993890D01*
X100853829Y-88998274D01*
X100859283Y-89003217D01*
X100864226Y-89008671D01*
X100868610Y-89014582D01*
X100872394Y-89020895D01*
X100875541Y-89027549D01*
X100878021Y-89034479D01*
X100879809Y-89041618D01*
X100880889Y-89048899D01*
X100881250Y-89056250D01*
X100881250Y-90381250D01*
X100880889Y-90388601D01*
X100879809Y-90395882D01*
X100878021Y-90403021D01*
X100875541Y-90409951D01*
X100872394Y-90416605D01*
X100868610Y-90422918D01*
X100864226Y-90428829D01*
X100859283Y-90434283D01*
X100853829Y-90439226D01*
X100847918Y-90443610D01*
X100841605Y-90447394D01*
X100834951Y-90450541D01*
X100828021Y-90453021D01*
X100820882Y-90454809D01*
X100813601Y-90455889D01*
X100806250Y-90456250D01*
X100656250Y-90456250D01*
X100648899Y-90455889D01*
X100641618Y-90454809D01*
X100634479Y-90453021D01*
X100627549Y-90450541D01*
X100620895Y-90447394D01*
X100614582Y-90443610D01*
X100608671Y-90439226D01*
X100603217Y-90434283D01*
X100598274Y-90428829D01*
X100593890Y-90422918D01*
X100590106Y-90416605D01*
X100586959Y-90409951D01*
X100584479Y-90403021D01*
X100582691Y-90395882D01*
X100581611Y-90388601D01*
X100581250Y-90381250D01*
X100581250Y-89056250D01*
X100581611Y-89048899D01*
X100582691Y-89041618D01*
X100584479Y-89034479D01*
X100586959Y-89027549D01*
X100590106Y-89020895D01*
X100593890Y-89014582D01*
X100598274Y-89008671D01*
X100603217Y-89003217D01*
X100608671Y-88998274D01*
X100614582Y-88993890D01*
X100620895Y-88990106D01*
X100627549Y-88986959D01*
X100634479Y-88984479D01*
X100641618Y-88982691D01*
X100648899Y-88981611D01*
X100656250Y-88981250D01*
X100806250Y-88981250D01*
X100813601Y-88981611D01*
X100813601Y-88981611D01*
G37*
D18*
X100731250Y-89718750D03*
D13*
G36*
X100313601Y-88981611D02*
G01*
X100320882Y-88982691D01*
X100328021Y-88984479D01*
X100334951Y-88986959D01*
X100341605Y-88990106D01*
X100347918Y-88993890D01*
X100353829Y-88998274D01*
X100359283Y-89003217D01*
X100364226Y-89008671D01*
X100368610Y-89014582D01*
X100372394Y-89020895D01*
X100375541Y-89027549D01*
X100378021Y-89034479D01*
X100379809Y-89041618D01*
X100380889Y-89048899D01*
X100381250Y-89056250D01*
X100381250Y-90381250D01*
X100380889Y-90388601D01*
X100379809Y-90395882D01*
X100378021Y-90403021D01*
X100375541Y-90409951D01*
X100372394Y-90416605D01*
X100368610Y-90422918D01*
X100364226Y-90428829D01*
X100359283Y-90434283D01*
X100353829Y-90439226D01*
X100347918Y-90443610D01*
X100341605Y-90447394D01*
X100334951Y-90450541D01*
X100328021Y-90453021D01*
X100320882Y-90454809D01*
X100313601Y-90455889D01*
X100306250Y-90456250D01*
X100156250Y-90456250D01*
X100148899Y-90455889D01*
X100141618Y-90454809D01*
X100134479Y-90453021D01*
X100127549Y-90450541D01*
X100120895Y-90447394D01*
X100114582Y-90443610D01*
X100108671Y-90439226D01*
X100103217Y-90434283D01*
X100098274Y-90428829D01*
X100093890Y-90422918D01*
X100090106Y-90416605D01*
X100086959Y-90409951D01*
X100084479Y-90403021D01*
X100082691Y-90395882D01*
X100081611Y-90388601D01*
X100081250Y-90381250D01*
X100081250Y-89056250D01*
X100081611Y-89048899D01*
X100082691Y-89041618D01*
X100084479Y-89034479D01*
X100086959Y-89027549D01*
X100090106Y-89020895D01*
X100093890Y-89014582D01*
X100098274Y-89008671D01*
X100103217Y-89003217D01*
X100108671Y-88998274D01*
X100114582Y-88993890D01*
X100120895Y-88990106D01*
X100127549Y-88986959D01*
X100134479Y-88984479D01*
X100141618Y-88982691D01*
X100148899Y-88981611D01*
X100156250Y-88981250D01*
X100306250Y-88981250D01*
X100313601Y-88981611D01*
X100313601Y-88981611D01*
G37*
D18*
X100231250Y-89718750D03*
D19*
X106450000Y-62630000D03*
X105500000Y-62630000D03*
X107400000Y-62630000D03*
X107400000Y-64830000D03*
X106450000Y-64830000D03*
X105500000Y-64830000D03*
M02*
