M48
; DRILL file {KiCad (5.1.4-0)} date 2020 November 23, Monday 17:49:09
; FORMAT={-:-/ absolute / metric / decimal}
; #@! TF.CreationDate,2020-11-23T17:49:09+01:00
; #@! TF.GenerationSoftware,Kicad,Pcbnew,(5.1.4-0)
; #@! TF.FileFunction,Plated,1,2,PTH
FMAT,2
METRIC
T1C0.400
T2C0.600
T3C1.000
T4C1.470
%
G90
G05
T1
X96.837Y-80.962
X96.837Y-88.106
X98.32Y-81.24
X99.24Y-78.14
X100.294Y-92.362
X100.731Y-86.731
X103.35Y-72.87
X103.456Y-73.897
X103.956Y-74.768
X104.0Y-60.31
X104.456Y-75.635
X104.73Y-87.86
X104.956Y-76.553
X105.46Y-77.417
X105.69Y-69.34
X105.72Y-66.45
X105.956Y-78.286
X106.446Y-60.56
X106.47Y-63.7
X106.51Y-94.16
X106.825Y-132.325
X106.828Y-124.387
X106.83Y-116.45
X106.837Y-108.512
X106.845Y-100.575
X107.156Y-92.075
X108.555Y-86.298
X108.91Y-60.31
X109.19Y-64.85
X109.197Y-85.531
X110.065Y-85.031
X110.72Y-79.75
X110.962Y-84.531
X111.822Y-84.01
X131.43Y-93.97
T3
X99.302Y-66.506
X99.302Y-72.856
X99.302Y-69.681
T4
X155.817Y-52.06
X162.167Y-49.52
X155.817Y-109.21
X162.167Y-106.67
X174.867Y-106.035
X181.218Y-103.495
X174.867Y-67.935
X181.218Y-65.395
X174.867Y-48.885
X181.218Y-46.345
X193.917Y-90.16
X200.267Y-87.62
X212.968Y-115.56
X219.317Y-113.02
X193.917Y-71.11
X200.267Y-68.57
X193.917Y-52.06
X200.267Y-49.52
X161.639Y-128.426
X219.317Y-55.87
X155.827Y-132.03
X193.917Y-109.21
X200.267Y-106.67
X232.017Y-118.735
X238.367Y-116.195
X212.968Y-58.41
X212.968Y-77.46
X219.317Y-74.92
X212.968Y-96.51
X219.317Y-93.97
X232.017Y-99.685
X238.367Y-97.145
X117.718Y-96.51
X124.067Y-93.97
X124.067Y-74.92
X117.718Y-77.46
X136.767Y-74.285
X143.118Y-71.745
X136.767Y-93.335
X143.118Y-90.795
X232.017Y-80.635
X238.367Y-78.095
X155.817Y-71.11
X162.167Y-68.57
X155.817Y-90.16
X162.167Y-87.62
X117.718Y-58.41
X124.067Y-55.87
X232.017Y-61.585
X238.367Y-59.045
X116.392Y-121.333
X121.869Y-117.236
X174.867Y-86.985
X181.218Y-84.445
X136.767Y-55.235
X143.118Y-52.695
X136.767Y-112.385
X117.692Y-140.663
X123.169Y-136.566
X136.765Y-135.868
X142.448Y-132.063
X143.118Y-109.845
T2
G00X95.6Y-54.63
M15
G01X95.6Y-55.23
M16
G05
G00X95.6Y-57.63
M15
G01X95.6Y-58.23
M16
G05
G00X95.6Y-61.63
M15
G01X95.6Y-62.23
M16
G05
G00X100.2Y-62.73
M15
G01X100.2Y-63.33
M16
G05
G00X102.126Y-52.737
M15
G01X102.126Y-52.137
M16
G05
G00X102.126Y-57.167
M15
G01X102.126Y-56.067
M16
G05
G00X110.766Y-52.737
M15
G01X110.766Y-52.137
M16
G05
G00X110.766Y-57.167
M15
G01X110.766Y-56.067
M16
G05
T0
M30
