M48
; DRILL file {KiCad (5.1.4-0)} date 2020 November 23, Monday 17:49:09
; FORMAT={-:-/ absolute / metric / decimal}
; #@! TF.CreationDate,2020-11-23T17:49:09+01:00
; #@! TF.GenerationSoftware,Kicad,Pcbnew,(5.1.4-0)
; #@! TF.FileFunction,NonPlated,1,2,NPTH
FMAT,2
METRIC
T1C0.650
T2C1.500
T3C1.750
T4C3.988
%
G90
G05
T1
X103.556Y-56.087
X109.336Y-56.087
T2
X97.9Y-53.33
X97.9Y-60.33
T3
X173.597Y-70.475
X211.697Y-60.95
X221.857Y-60.95
X155.017Y-134.752
X165.023Y-132.988
X230.748Y-64.125
X183.757Y-70.475
X154.547Y-54.6
X164.707Y-54.6
X183.757Y-51.425
X192.647Y-73.65
X202.808Y-73.65
X173.597Y-51.425
X154.547Y-111.75
X164.707Y-111.75
X192.647Y-54.6
X211.697Y-80.0
X221.857Y-80.0
X202.808Y-54.6
X173.597Y-108.575
X183.757Y-108.575
X192.647Y-92.7
X211.697Y-118.1
X221.857Y-118.1
X240.907Y-102.225
X192.647Y-111.75
X202.808Y-111.75
X211.697Y-99.05
X221.857Y-99.05
X230.748Y-121.275
X240.907Y-121.275
X230.748Y-102.225
X116.447Y-99.05
X126.607Y-99.05
X135.498Y-95.875
X145.657Y-95.875
X230.748Y-83.175
X240.907Y-83.175
X116.447Y-60.95
X126.607Y-60.95
X240.907Y-64.125
X115.823Y-124.115
X125.637Y-121.485
X116.447Y-80.0
X126.607Y-80.0
X135.498Y-57.775
X145.657Y-57.775
X135.498Y-114.925
X145.657Y-114.925
X154.547Y-92.7
X164.707Y-92.7
X135.498Y-76.825
X145.657Y-76.825
X183.757Y-89.525
X117.123Y-143.445
X126.937Y-140.815
X173.597Y-89.525
X154.547Y-73.65
X164.707Y-73.65
X202.808Y-92.7
X136.051Y-138.616
X145.989Y-136.504
T4
X160.02Y-133.87
X235.827Y-64.125
X140.577Y-95.875
X121.527Y-60.95
X122.03Y-142.13
X178.677Y-70.475
X159.627Y-111.75
X141.02Y-137.56
X140.577Y-114.925
X140.577Y-76.825
X120.73Y-122.8
X159.627Y-73.65
X178.677Y-89.525
X140.577Y-57.775
X159.627Y-92.7
X159.627Y-54.6
X197.727Y-92.7
X216.778Y-118.1
X235.827Y-83.175
X178.677Y-51.425
X197.727Y-73.65
X235.827Y-121.275
X216.778Y-80.0
X197.727Y-54.6
X178.677Y-108.575
X216.778Y-99.05
X235.827Y-102.225
X197.727Y-111.75
X216.778Y-60.95
X121.527Y-99.05
X121.527Y-80.0
T0
M30
