G04 #@! TF.GenerationSoftware,KiCad,Pcbnew,(5.1.4-0)*
G04 #@! TF.CreationDate,2020-11-23T17:49:07+01:00*
G04 #@! TF.ProjectId,stm32split,73746d33-3273-4706-9c69-742e6b696361,rev?*
G04 #@! TF.SameCoordinates,Original*
G04 #@! TF.FileFunction,Copper,L2,Bot*
G04 #@! TF.FilePolarity,Positive*
%FSLAX46Y46*%
G04 Gerber Fmt 4.6, Leading zero omitted, Abs format (unit mm)*
G04 Created by KiCad (PCBNEW (5.1.4-0)) date 2020-11-23 17:49:07*
%MOMM*%
%LPD*%
G04 APERTURE LIST*
%ADD10C,2.000000*%
%ADD11O,1.200000X1.800000*%
%ADD12O,1.000000X2.100000*%
%ADD13O,1.000000X1.600000*%
%ADD14C,2.250000*%
%ADD15C,0.800000*%
%ADD16C,0.250000*%
%ADD17C,0.500000*%
%ADD18C,0.254000*%
G04 APERTURE END LIST*
D10*
X99302500Y-72856250D03*
X99302500Y-69681250D03*
X99302500Y-66506250D03*
D11*
X100200000Y-63030000D03*
X95600000Y-61930000D03*
X95600000Y-57930000D03*
X95600000Y-54930000D03*
D12*
X110766250Y-56617500D03*
X102126250Y-56617500D03*
D13*
X110766250Y-52437500D03*
X102126250Y-52437500D03*
D14*
X123168651Y-136565696D03*
X117692422Y-140662649D03*
X142448304Y-132062914D03*
X136765162Y-135867649D03*
X161639279Y-128426110D03*
X155826816Y-132030188D03*
X121868651Y-117235696D03*
X116392422Y-121332649D03*
X143117500Y-109845000D03*
X136767500Y-112385000D03*
X162167500Y-106670000D03*
X155817500Y-109210000D03*
X181217500Y-103495000D03*
X174867500Y-106035000D03*
X200267500Y-106670000D03*
X193917500Y-109210000D03*
X219317500Y-113020000D03*
X212967500Y-115560000D03*
X238367500Y-116195000D03*
X232017500Y-118735000D03*
X124067500Y-93970000D03*
X117717500Y-96510000D03*
X143117500Y-90795000D03*
X136767500Y-93335000D03*
X162167500Y-87620000D03*
X155817500Y-90160000D03*
X181217500Y-84445000D03*
X174867500Y-86985000D03*
X200267500Y-87620000D03*
X193917500Y-90160000D03*
X219317500Y-93970000D03*
X212967500Y-96510000D03*
X238367500Y-97145000D03*
X232017500Y-99685000D03*
X124067500Y-74920000D03*
X117717500Y-77460000D03*
X143117500Y-71745000D03*
X136767500Y-74285000D03*
X162167500Y-68570000D03*
X155817500Y-71110000D03*
X181217500Y-65395000D03*
X174867500Y-67935000D03*
X200267500Y-68570000D03*
X193917500Y-71110000D03*
X219317500Y-74920000D03*
X212967500Y-77460000D03*
X238367500Y-78095000D03*
X232017500Y-80635000D03*
X124067500Y-55870000D03*
X117717500Y-58410000D03*
X143117500Y-52695000D03*
X136767500Y-55235000D03*
X162167500Y-49520000D03*
X155817500Y-52060000D03*
X181217500Y-46345000D03*
X174867500Y-48885000D03*
X200267500Y-49520000D03*
X193917500Y-52060000D03*
X219317500Y-55870000D03*
X212967500Y-58410000D03*
X238367500Y-59045000D03*
X232017500Y-61585000D03*
D15*
X108555204Y-86298125D03*
X106845000Y-100575000D03*
X131429929Y-93970000D03*
X103350000Y-72870000D03*
X103456250Y-73897137D03*
X103956250Y-74768353D03*
X104456250Y-75635428D03*
X104956250Y-76553168D03*
X109197003Y-85531250D03*
X106837500Y-108512500D03*
X110065158Y-85031250D03*
X106830000Y-116450000D03*
X110962174Y-84531250D03*
X106827500Y-124387500D03*
X111822439Y-84010000D03*
X106825000Y-132325000D03*
X105459810Y-77417130D03*
X105956250Y-78286338D03*
X108910000Y-60310000D03*
X106446250Y-60559996D03*
X104000000Y-60310000D03*
X106470000Y-63699998D03*
X109190000Y-64850000D03*
X105720000Y-66450000D03*
X106510000Y-94160000D03*
X99240000Y-78140000D03*
X100731250Y-86731250D03*
X104730000Y-87860000D03*
X105690000Y-69340000D03*
X98320000Y-81240000D03*
X96837500Y-80962500D03*
X96837500Y-88106250D03*
X100293864Y-92361980D03*
X107156250Y-92075000D03*
X110720000Y-79750000D03*
D16*
X108555204Y-98864796D02*
X106845000Y-100575000D01*
X108555204Y-86298125D02*
X108555204Y-98864796D01*
X131429929Y-93970000D02*
X126490000Y-93970000D01*
X126490000Y-93970000D02*
X124067500Y-93970000D01*
X204940010Y-51687490D02*
X204940010Y-49078980D01*
X204949641Y-51883524D02*
X204940010Y-51687490D01*
X204978440Y-52077670D02*
X204949641Y-51883524D01*
X205026130Y-52268059D02*
X204978440Y-52077670D01*
X205092251Y-52452856D02*
X205026130Y-52268059D01*
X205176168Y-52630283D02*
X205092251Y-52452856D01*
X205277071Y-52798630D02*
X205176168Y-52630283D01*
X205393990Y-52956276D02*
X205277071Y-52798630D01*
X205525797Y-53101703D02*
X205393990Y-52956276D01*
X205671224Y-53233510D02*
X205525797Y-53101703D01*
X205828870Y-53350429D02*
X205671224Y-53233510D01*
X205997217Y-53451332D02*
X205828870Y-53350429D01*
X206174644Y-53535249D02*
X205997217Y-53451332D01*
X206359441Y-53601370D02*
X206174644Y-53535249D01*
X206549830Y-53649060D02*
X206359441Y-53601370D01*
X206743976Y-53677859D02*
X206549830Y-53649060D01*
X206940010Y-53687490D02*
X206743976Y-53677859D01*
X206940010Y-53687490D02*
X224657500Y-53687490D01*
X202640010Y-46778980D02*
X187638800Y-46778980D01*
X202865450Y-46790055D02*
X202640010Y-46778980D01*
X203088718Y-46823173D02*
X202865450Y-46790055D01*
X203307665Y-46878017D02*
X203088718Y-46823173D01*
X203520182Y-46954057D02*
X203307665Y-46878017D01*
X203724223Y-47050561D02*
X203520182Y-46954057D01*
X203917822Y-47166599D02*
X203724223Y-47050561D01*
X204099115Y-47301055D02*
X203917822Y-47166599D01*
X204266356Y-47452634D02*
X204099115Y-47301055D01*
X204417935Y-47619875D02*
X204266356Y-47452634D01*
X204552391Y-47801168D02*
X204417935Y-47619875D01*
X204668429Y-47994767D02*
X204552391Y-47801168D01*
X204764933Y-48198808D02*
X204668429Y-47994767D01*
X204840973Y-48411325D02*
X204764933Y-48198808D01*
X204895817Y-48630272D02*
X204840973Y-48411325D01*
X204928935Y-48853540D02*
X204895817Y-48630272D01*
X204940010Y-49078980D02*
X204928935Y-48853540D01*
X226057500Y-55087490D02*
X226057500Y-55157500D01*
X226050759Y-54950266D02*
X226057500Y-55087490D01*
X226030600Y-54814363D02*
X226050759Y-54950266D01*
X225997217Y-54681091D02*
X226030600Y-54814363D01*
X225950932Y-54551733D02*
X225997217Y-54681091D01*
X225892190Y-54427534D02*
X225950932Y-54551733D01*
X225821558Y-54309691D02*
X225892190Y-54427534D01*
X225739715Y-54199339D02*
X225821558Y-54309691D01*
X225647450Y-54097540D02*
X225739715Y-54199339D01*
X225545651Y-54005275D02*
X225647450Y-54097540D01*
X225435299Y-53923432D02*
X225545651Y-54005275D01*
X225317456Y-53852800D02*
X225435299Y-53923432D01*
X225193257Y-53794058D02*
X225317456Y-53852800D01*
X225063899Y-53747773D02*
X225193257Y-53794058D01*
X224930627Y-53714390D02*
X225063899Y-53747773D01*
X224794724Y-53694231D02*
X224930627Y-53714390D01*
X224657500Y-53687490D02*
X224794724Y-53694231D01*
X227320277Y-56550758D02*
X227457500Y-56557500D01*
X227184374Y-56530599D02*
X227320277Y-56550758D01*
X227051102Y-56497216D02*
X227184374Y-56530599D01*
X226921744Y-56450931D02*
X227051102Y-56497216D01*
X226797545Y-56392189D02*
X226921744Y-56450931D01*
X226679702Y-56321557D02*
X226797545Y-56392189D01*
X226569350Y-56239714D02*
X226679702Y-56321557D01*
X226467551Y-56147449D02*
X226569350Y-56239714D01*
X226375286Y-56045650D02*
X226467551Y-56147449D01*
X226293443Y-55935298D02*
X226375286Y-56045650D01*
X226222811Y-55817455D02*
X226293443Y-55935298D01*
X226164069Y-55693256D02*
X226222811Y-55817455D01*
X226117784Y-55563898D02*
X226164069Y-55693256D01*
X226084401Y-55430626D02*
X226117784Y-55563898D01*
X226064242Y-55294723D02*
X226084401Y-55430626D01*
X226057500Y-55157500D02*
X226064242Y-55294723D01*
X186138800Y-45278980D02*
X186138800Y-44568760D01*
X186146023Y-45426005D02*
X186138800Y-45278980D01*
X186167623Y-45571615D02*
X186146023Y-45426005D01*
X186203390Y-45714407D02*
X186167623Y-45571615D01*
X186252981Y-45853005D02*
X186203390Y-45714407D01*
X186315919Y-45986075D02*
X186252981Y-45853005D01*
X186391596Y-46112335D02*
X186315919Y-45986075D01*
X186479285Y-46230569D02*
X186391596Y-46112335D01*
X186578140Y-46339640D02*
X186479285Y-46230569D01*
X186687211Y-46438495D02*
X186578140Y-46339640D01*
X186805445Y-46526184D02*
X186687211Y-46438495D01*
X186931705Y-46601861D02*
X186805445Y-46526184D01*
X187064775Y-46664799D02*
X186931705Y-46601861D01*
X187203373Y-46714390D02*
X187064775Y-46664799D01*
X187346165Y-46750157D02*
X187203373Y-46714390D01*
X187491775Y-46771757D02*
X187346165Y-46750157D01*
X187638800Y-46778980D02*
X187491775Y-46771757D01*
X184638800Y-43068760D02*
X173406102Y-43068760D01*
X184785826Y-43075982D02*
X184638800Y-43068760D01*
X184931436Y-43097582D02*
X184785826Y-43075982D01*
X185074228Y-43133349D02*
X184931436Y-43097582D01*
X185212826Y-43182940D02*
X185074228Y-43133349D01*
X185345896Y-43245878D02*
X185212826Y-43182940D01*
X185472156Y-43321555D02*
X185345896Y-43245878D01*
X185590390Y-43409244D02*
X185472156Y-43321555D01*
X185699461Y-43508099D02*
X185590390Y-43409244D01*
X185798316Y-43617170D02*
X185699461Y-43508099D01*
X185886005Y-43735404D02*
X185798316Y-43617170D01*
X185961682Y-43861664D02*
X185886005Y-43735404D01*
X186024620Y-43994734D02*
X185961682Y-43861664D01*
X186074211Y-44133332D02*
X186024620Y-43994734D01*
X186109978Y-44276124D02*
X186074211Y-44133332D01*
X186131578Y-44421734D02*
X186109978Y-44276124D01*
X186138800Y-44568760D02*
X186131578Y-44421734D01*
X172106102Y-44449103D02*
X172106102Y-44368760D01*
X172099843Y-44576525D02*
X172106102Y-44449103D01*
X172081123Y-44702720D02*
X172099843Y-44576525D01*
X172050125Y-44826473D02*
X172081123Y-44702720D01*
X172007146Y-44946591D02*
X172050125Y-44826473D01*
X171952600Y-45061918D02*
X172007146Y-44946591D01*
X171887013Y-45171344D02*
X171952600Y-45061918D01*
X171811016Y-45273814D02*
X171887013Y-45171344D01*
X171725341Y-45368341D02*
X171811016Y-45273814D01*
X171630814Y-45454016D02*
X171725341Y-45368341D01*
X171528344Y-45530013D02*
X171630814Y-45454016D01*
X171418918Y-45595600D02*
X171528344Y-45530013D01*
X171303591Y-45650146D02*
X171418918Y-45595600D01*
X171183473Y-45693125D02*
X171303591Y-45650146D01*
X171059720Y-45724123D02*
X171183473Y-45693125D01*
X170933525Y-45742843D02*
X171059720Y-45724123D01*
X170806102Y-45749103D02*
X170933525Y-45742843D01*
X170806102Y-45749103D02*
X153989960Y-45749103D01*
X173278680Y-43075019D02*
X173406102Y-43068760D01*
X173152485Y-43093739D02*
X173278680Y-43075019D01*
X173028732Y-43124737D02*
X173152485Y-43093739D01*
X172908614Y-43167716D02*
X173028732Y-43124737D01*
X172793287Y-43222262D02*
X172908614Y-43167716D01*
X172683861Y-43287849D02*
X172793287Y-43222262D01*
X172581391Y-43363846D02*
X172683861Y-43287849D01*
X172486864Y-43449521D02*
X172581391Y-43363846D01*
X172401189Y-43544048D02*
X172486864Y-43449521D01*
X172325192Y-43646518D02*
X172401189Y-43544048D01*
X172259605Y-43755944D02*
X172325192Y-43646518D01*
X172205059Y-43871271D02*
X172259605Y-43755944D01*
X172162080Y-43991389D02*
X172205059Y-43871271D01*
X172131082Y-44115142D02*
X172162080Y-43991389D01*
X172112362Y-44241337D02*
X172131082Y-44115142D01*
X172106102Y-44368760D02*
X172112362Y-44241337D01*
X152689960Y-47156984D02*
X152689960Y-47049103D01*
X152683701Y-47284406D02*
X152689960Y-47156984D01*
X152664981Y-47410601D02*
X152683701Y-47284406D01*
X152633983Y-47534354D02*
X152664981Y-47410601D01*
X152591004Y-47654472D02*
X152633983Y-47534354D01*
X152536458Y-47769799D02*
X152591004Y-47654472D01*
X152470871Y-47879225D02*
X152536458Y-47769799D01*
X152394874Y-47981695D02*
X152470871Y-47879225D01*
X152309199Y-48076222D02*
X152394874Y-47981695D01*
X152214672Y-48161897D02*
X152309199Y-48076222D01*
X152112202Y-48237894D02*
X152214672Y-48161897D01*
X152002776Y-48303481D02*
X152112202Y-48237894D01*
X151887449Y-48358027D02*
X152002776Y-48303481D01*
X151767331Y-48401006D02*
X151887449Y-48358027D01*
X151643578Y-48432004D02*
X151767331Y-48401006D01*
X151517383Y-48450724D02*
X151643578Y-48432004D01*
X151389960Y-48456984D02*
X151517383Y-48450724D01*
X151389960Y-48456984D02*
X134368518Y-48456984D01*
X152696220Y-46921680D02*
X152689960Y-47049103D01*
X152714940Y-46795485D02*
X152696220Y-46921680D01*
X152745938Y-46671732D02*
X152714940Y-46795485D01*
X152788917Y-46551614D02*
X152745938Y-46671732D01*
X152843463Y-46436287D02*
X152788917Y-46551614D01*
X152909050Y-46326861D02*
X152843463Y-46436287D01*
X152985047Y-46224391D02*
X152909050Y-46326861D01*
X153070722Y-46129864D02*
X152985047Y-46224391D01*
X153165249Y-46044189D02*
X153070722Y-46129864D01*
X153267719Y-45968192D02*
X153165249Y-46044189D01*
X153377145Y-45902605D02*
X153267719Y-45968192D01*
X153492472Y-45848059D02*
X153377145Y-45902605D01*
X153612590Y-45805080D02*
X153492472Y-45848059D01*
X153736343Y-45774082D02*
X153612590Y-45805080D01*
X153862538Y-45755362D02*
X153736343Y-45774082D01*
X153989960Y-45749103D02*
X153862538Y-45755362D01*
X111616260Y-70856250D02*
X111616260Y-55026830D01*
X111606630Y-71052284D02*
X111616260Y-70856250D01*
X111577831Y-71246430D02*
X111606630Y-71052284D01*
X111530141Y-71436819D02*
X111577831Y-71246430D01*
X111464020Y-71621616D02*
X111530141Y-71436819D01*
X111380103Y-71799043D02*
X111464020Y-71621616D01*
X111279200Y-71967390D02*
X111380103Y-71799043D01*
X111162281Y-72125036D02*
X111279200Y-71967390D01*
X111030474Y-72270463D02*
X111162281Y-72125036D01*
X110885047Y-72402270D02*
X111030474Y-72270463D01*
X110727401Y-72519189D02*
X110885047Y-72402270D01*
X110559054Y-72620092D02*
X110727401Y-72519189D01*
X110381627Y-72704009D02*
X110559054Y-72620092D01*
X110196830Y-72770130D02*
X110381627Y-72704009D01*
X110006441Y-72817820D02*
X110196830Y-72770130D01*
X109812295Y-72846619D02*
X110006441Y-72817820D01*
X109616260Y-72856250D02*
X109812295Y-72846619D01*
X132868518Y-50026830D02*
X132868518Y-49956984D01*
X132861296Y-50173855D02*
X132868518Y-50026830D01*
X132839696Y-50319465D02*
X132861296Y-50173855D01*
X132803929Y-50462257D02*
X132839696Y-50319465D01*
X132754338Y-50600855D02*
X132803929Y-50462257D01*
X132691400Y-50733925D02*
X132754338Y-50600855D01*
X132615723Y-50860185D02*
X132691400Y-50733925D01*
X132528034Y-50978419D02*
X132615723Y-50860185D01*
X132429179Y-51087490D02*
X132528034Y-50978419D01*
X132320108Y-51186345D02*
X132429179Y-51087490D01*
X132201874Y-51274034D02*
X132320108Y-51186345D01*
X132075614Y-51349711D02*
X132201874Y-51274034D01*
X131942544Y-51412649D02*
X132075614Y-51349711D01*
X131803946Y-51462240D02*
X131942544Y-51412649D01*
X131661154Y-51498007D02*
X131803946Y-51462240D01*
X131515544Y-51519607D02*
X131661154Y-51498007D01*
X131368518Y-51526830D02*
X131515544Y-51519607D01*
X131368518Y-51526830D02*
X115116260Y-51526830D01*
X132875741Y-49809958D02*
X132868518Y-49956984D01*
X132897341Y-49664348D02*
X132875741Y-49809958D01*
X132933108Y-49521556D02*
X132897341Y-49664348D01*
X132982699Y-49382958D02*
X132933108Y-49521556D01*
X133045637Y-49249888D02*
X132982699Y-49382958D01*
X133121314Y-49123628D02*
X133045637Y-49249888D01*
X133209003Y-49005394D02*
X133121314Y-49123628D01*
X133307858Y-48896323D02*
X133209003Y-49005394D01*
X133416929Y-48797468D02*
X133307858Y-48896323D01*
X133535163Y-48709779D02*
X133416929Y-48797468D01*
X133661423Y-48634102D02*
X133535163Y-48709779D01*
X133794493Y-48571164D02*
X133661423Y-48634102D01*
X133933091Y-48521573D02*
X133794493Y-48571164D01*
X134075883Y-48485806D02*
X133933091Y-48521573D01*
X134221493Y-48464206D02*
X134075883Y-48485806D01*
X134368518Y-48456984D02*
X134221493Y-48464206D01*
X111633114Y-54683770D02*
X111616260Y-55026830D01*
X111683512Y-54344013D02*
X111633114Y-54683770D01*
X111766969Y-54010833D02*
X111683512Y-54344013D01*
X111882682Y-53687437D02*
X111766969Y-54010833D01*
X112029536Y-53376941D02*
X111882682Y-53687437D01*
X112206117Y-53082334D02*
X112029536Y-53376941D01*
X112410724Y-52806453D02*
X112206117Y-53082334D01*
X112641387Y-52551956D02*
X112410724Y-52806453D01*
X112895884Y-52321293D02*
X112641387Y-52551956D01*
X113171765Y-52116686D02*
X112895884Y-52321293D01*
X113466372Y-51940105D02*
X113171765Y-52116686D01*
X113776868Y-51793251D02*
X113466372Y-51940105D01*
X114100264Y-51677538D02*
X113776868Y-51793251D01*
X114433444Y-51594081D02*
X114100264Y-51677538D01*
X114773201Y-51543683D02*
X114433444Y-51594081D01*
X115116260Y-51526830D02*
X114773201Y-51543683D01*
X232017500Y-118735000D02*
X232017500Y-99685000D01*
X232017500Y-82668998D02*
X232017500Y-80635000D01*
X232017500Y-99685000D02*
X232017500Y-82668998D01*
X232017500Y-80635000D02*
X232017500Y-61585000D01*
X232017500Y-58550758D02*
X232017500Y-61585000D01*
X232017500Y-58550758D02*
X232007869Y-58354723D01*
X232007869Y-58354723D02*
X231979070Y-58160577D01*
X231979070Y-58160577D02*
X231931380Y-57970188D01*
X231931380Y-57970188D02*
X231865259Y-57785391D01*
X231865259Y-57785391D02*
X231781342Y-57607964D01*
X231781342Y-57607964D02*
X231680439Y-57439617D01*
X231680439Y-57439617D02*
X231563520Y-57281971D01*
X231563520Y-57281971D02*
X231431713Y-57136544D01*
X231431713Y-57136544D02*
X231286286Y-57004737D01*
X231286286Y-57004737D02*
X231128640Y-56887818D01*
X231128640Y-56887818D02*
X230960293Y-56786915D01*
X230960293Y-56786915D02*
X230782866Y-56702998D01*
X230782866Y-56702998D02*
X230598069Y-56636877D01*
X230598069Y-56636877D02*
X230407680Y-56589187D01*
X230407680Y-56589187D02*
X230213534Y-56560388D01*
X230213534Y-56560388D02*
X230017500Y-56550758D01*
X230017500Y-56550758D02*
X227320277Y-56550758D01*
X109602510Y-72870000D02*
X103350000Y-72870000D01*
X109616260Y-72856250D02*
X109602510Y-72870000D01*
X115316270Y-51976840D02*
X115002616Y-51992248D01*
X115002616Y-51992248D02*
X114691981Y-52038327D01*
X114691981Y-52038327D02*
X114387360Y-52114630D01*
X114387360Y-52114630D02*
X114091684Y-52220425D01*
X114091684Y-52220425D02*
X113807801Y-52354691D01*
X113807801Y-52354691D02*
X113538446Y-52516137D01*
X113538446Y-52516137D02*
X113286212Y-52703206D01*
X113286212Y-52703206D02*
X113053529Y-52914098D01*
X113053529Y-52914098D02*
X112842637Y-53146781D01*
X112842637Y-53146781D02*
X112655568Y-53399015D01*
X112655568Y-53399015D02*
X112494122Y-53668370D01*
X112494122Y-53668370D02*
X112359856Y-53952253D01*
X112359856Y-53952253D02*
X112254061Y-54247929D01*
X112254061Y-54247929D02*
X112177758Y-54552550D01*
X112177758Y-54552550D02*
X112131679Y-54863185D01*
X112131679Y-54863185D02*
X112116270Y-55176840D01*
X134868528Y-48906992D02*
X134721503Y-48914214D01*
X134721503Y-48914214D02*
X134575893Y-48935814D01*
X134575893Y-48935814D02*
X134433101Y-48971581D01*
X134433101Y-48971581D02*
X134294503Y-49021172D01*
X134294503Y-49021172D02*
X134161433Y-49084110D01*
X134161433Y-49084110D02*
X134035173Y-49159787D01*
X134035173Y-49159787D02*
X133916939Y-49247476D01*
X133916939Y-49247476D02*
X133807868Y-49346331D01*
X133807868Y-49346331D02*
X133709013Y-49455402D01*
X133709013Y-49455402D02*
X133621324Y-49573636D01*
X133621324Y-49573636D02*
X133545647Y-49699896D01*
X133545647Y-49699896D02*
X133482709Y-49832966D01*
X133482709Y-49832966D02*
X133433118Y-49971564D01*
X133433118Y-49971564D02*
X133397351Y-50114356D01*
X133397351Y-50114356D02*
X133375751Y-50259966D01*
X133375751Y-50259966D02*
X133368528Y-50406992D01*
X131868528Y-51976840D02*
X115316270Y-51976840D01*
X131868528Y-51976840D02*
X132015554Y-51969617D01*
X132015554Y-51969617D02*
X132161164Y-51948017D01*
X132161164Y-51948017D02*
X132303956Y-51912250D01*
X132303956Y-51912250D02*
X132442554Y-51862659D01*
X132442554Y-51862659D02*
X132575624Y-51799721D01*
X132575624Y-51799721D02*
X132701884Y-51724044D01*
X132701884Y-51724044D02*
X132820118Y-51636355D01*
X132820118Y-51636355D02*
X132929189Y-51537500D01*
X132929189Y-51537500D02*
X133028044Y-51428429D01*
X133028044Y-51428429D02*
X133115733Y-51310195D01*
X133115733Y-51310195D02*
X133191410Y-51183935D01*
X133191410Y-51183935D02*
X133254348Y-51050865D01*
X133254348Y-51050865D02*
X133303939Y-50912267D01*
X133303939Y-50912267D02*
X133339706Y-50769475D01*
X133339706Y-50769475D02*
X133361306Y-50623865D01*
X133361306Y-50623865D02*
X133368528Y-50476840D01*
X133368528Y-50476840D02*
X133368528Y-50406992D01*
X109816270Y-73650569D02*
X110041710Y-73639493D01*
X110041710Y-73639493D02*
X110264978Y-73606375D01*
X110264978Y-73606375D02*
X110483925Y-73551531D01*
X110483925Y-73551531D02*
X110696442Y-73475491D01*
X110696442Y-73475491D02*
X110900483Y-73378987D01*
X110900483Y-73378987D02*
X111094082Y-73262949D01*
X111094082Y-73262949D02*
X111275375Y-73128493D01*
X111275375Y-73128493D02*
X111442616Y-72976914D01*
X111442616Y-72976914D02*
X111594195Y-72809673D01*
X111594195Y-72809673D02*
X111728651Y-72628380D01*
X111728651Y-72628380D02*
X111844689Y-72434781D01*
X111844689Y-72434781D02*
X111941193Y-72230740D01*
X111941193Y-72230740D02*
X112017233Y-72018223D01*
X112017233Y-72018223D02*
X112072077Y-71799276D01*
X112072077Y-71799276D02*
X112105195Y-71576008D01*
X112105195Y-71576008D02*
X112116270Y-71350569D01*
X112116270Y-71350569D02*
X112116270Y-55176840D01*
X154489970Y-46199113D02*
X154362548Y-46205372D01*
X154362548Y-46205372D02*
X154236353Y-46224092D01*
X154236353Y-46224092D02*
X154112600Y-46255090D01*
X154112600Y-46255090D02*
X153992482Y-46298069D01*
X153992482Y-46298069D02*
X153877155Y-46352615D01*
X153877155Y-46352615D02*
X153767729Y-46418202D01*
X153767729Y-46418202D02*
X153665259Y-46494199D01*
X153665259Y-46494199D02*
X153570732Y-46579874D01*
X153570732Y-46579874D02*
X153485057Y-46674401D01*
X153485057Y-46674401D02*
X153409060Y-46776871D01*
X153409060Y-46776871D02*
X153343473Y-46886297D01*
X153343473Y-46886297D02*
X153288927Y-47001624D01*
X153288927Y-47001624D02*
X153245948Y-47121742D01*
X153245948Y-47121742D02*
X153214950Y-47245495D01*
X153214950Y-47245495D02*
X153196230Y-47371690D01*
X153196230Y-47371690D02*
X153189970Y-47499113D01*
X151889970Y-48906992D02*
X134868528Y-48906992D01*
X151889970Y-48906992D02*
X152017393Y-48900732D01*
X152017393Y-48900732D02*
X152143588Y-48882012D01*
X152143588Y-48882012D02*
X152267341Y-48851014D01*
X152267341Y-48851014D02*
X152387459Y-48808035D01*
X152387459Y-48808035D02*
X152502786Y-48753489D01*
X152502786Y-48753489D02*
X152612212Y-48687902D01*
X152612212Y-48687902D02*
X152714682Y-48611905D01*
X152714682Y-48611905D02*
X152809209Y-48526230D01*
X152809209Y-48526230D02*
X152894884Y-48431703D01*
X152894884Y-48431703D02*
X152970881Y-48329233D01*
X152970881Y-48329233D02*
X153036468Y-48219807D01*
X153036468Y-48219807D02*
X153091014Y-48104480D01*
X153091014Y-48104480D02*
X153133993Y-47984362D01*
X153133993Y-47984362D02*
X153164991Y-47860609D01*
X153164991Y-47860609D02*
X153183711Y-47734414D01*
X153183711Y-47734414D02*
X153189970Y-47606992D01*
X153189970Y-47606992D02*
X153189970Y-47499113D01*
X172606112Y-44818770D02*
X172612372Y-44691347D01*
X172612372Y-44691347D02*
X172631092Y-44565152D01*
X172631092Y-44565152D02*
X172662090Y-44441399D01*
X172662090Y-44441399D02*
X172705069Y-44321281D01*
X172705069Y-44321281D02*
X172759615Y-44205954D01*
X172759615Y-44205954D02*
X172825202Y-44096528D01*
X172825202Y-44096528D02*
X172901199Y-43994058D01*
X172901199Y-43994058D02*
X172986874Y-43899531D01*
X172986874Y-43899531D02*
X173081401Y-43813856D01*
X173081401Y-43813856D02*
X173183871Y-43737859D01*
X173183871Y-43737859D02*
X173293297Y-43672272D01*
X173293297Y-43672272D02*
X173408624Y-43617726D01*
X173408624Y-43617726D02*
X173528742Y-43574747D01*
X173528742Y-43574747D02*
X173652495Y-43543749D01*
X173652495Y-43543749D02*
X173778690Y-43525029D01*
X173778690Y-43525029D02*
X173906112Y-43518770D01*
X171306112Y-46199113D02*
X154489970Y-46199113D01*
X171306112Y-46199113D02*
X171433535Y-46192853D01*
X171433535Y-46192853D02*
X171559730Y-46174133D01*
X171559730Y-46174133D02*
X171683483Y-46143135D01*
X171683483Y-46143135D02*
X171803601Y-46100156D01*
X171803601Y-46100156D02*
X171918928Y-46045610D01*
X171918928Y-46045610D02*
X172028354Y-45980023D01*
X172028354Y-45980023D02*
X172130824Y-45904026D01*
X172130824Y-45904026D02*
X172225351Y-45818351D01*
X172225351Y-45818351D02*
X172311026Y-45723824D01*
X172311026Y-45723824D02*
X172387023Y-45621354D01*
X172387023Y-45621354D02*
X172452610Y-45511928D01*
X172452610Y-45511928D02*
X172507156Y-45396601D01*
X172507156Y-45396601D02*
X172550135Y-45276483D01*
X172550135Y-45276483D02*
X172581133Y-45152730D01*
X172581133Y-45152730D02*
X172599853Y-45026535D01*
X172599853Y-45026535D02*
X172606112Y-44899113D01*
X172606112Y-44899113D02*
X172606112Y-44818770D01*
X185638790Y-45018770D02*
X185631568Y-44871744D01*
X185631568Y-44871744D02*
X185609968Y-44726134D01*
X185609968Y-44726134D02*
X185574201Y-44583342D01*
X185574201Y-44583342D02*
X185524610Y-44444744D01*
X185524610Y-44444744D02*
X185461672Y-44311674D01*
X185461672Y-44311674D02*
X185385995Y-44185414D01*
X185385995Y-44185414D02*
X185298306Y-44067180D01*
X185298306Y-44067180D02*
X185199451Y-43958109D01*
X185199451Y-43958109D02*
X185090380Y-43859254D01*
X185090380Y-43859254D02*
X184972146Y-43771565D01*
X184972146Y-43771565D02*
X184845886Y-43695888D01*
X184845886Y-43695888D02*
X184712816Y-43632950D01*
X184712816Y-43632950D02*
X184574218Y-43583359D01*
X184574218Y-43583359D02*
X184431426Y-43547592D01*
X184431426Y-43547592D02*
X184285816Y-43525992D01*
X184285816Y-43525992D02*
X184138790Y-43518770D01*
X184138790Y-43518770D02*
X173906112Y-43518770D01*
X187138790Y-47228990D02*
X186991765Y-47221767D01*
X186991765Y-47221767D02*
X186846155Y-47200167D01*
X186846155Y-47200167D02*
X186703363Y-47164400D01*
X186703363Y-47164400D02*
X186564765Y-47114809D01*
X186564765Y-47114809D02*
X186431695Y-47051871D01*
X186431695Y-47051871D02*
X186305435Y-46976194D01*
X186305435Y-46976194D02*
X186187201Y-46888505D01*
X186187201Y-46888505D02*
X186078130Y-46789650D01*
X186078130Y-46789650D02*
X185979275Y-46680579D01*
X185979275Y-46680579D02*
X185891586Y-46562345D01*
X185891586Y-46562345D02*
X185815909Y-46436085D01*
X185815909Y-46436085D02*
X185752971Y-46303015D01*
X185752971Y-46303015D02*
X185703380Y-46164417D01*
X185703380Y-46164417D02*
X185667613Y-46021625D01*
X185667613Y-46021625D02*
X185646013Y-45876015D01*
X185646013Y-45876015D02*
X185638790Y-45728990D01*
X185638790Y-45728990D02*
X185638790Y-45018770D01*
X204440000Y-49228990D02*
X204430370Y-49032955D01*
X204430370Y-49032955D02*
X204401571Y-48838809D01*
X204401571Y-48838809D02*
X204353881Y-48648420D01*
X204353881Y-48648420D02*
X204287760Y-48463623D01*
X204287760Y-48463623D02*
X204203843Y-48286196D01*
X204203843Y-48286196D02*
X204102940Y-48117849D01*
X204102940Y-48117849D02*
X203986021Y-47960203D01*
X203986021Y-47960203D02*
X203854214Y-47814776D01*
X203854214Y-47814776D02*
X203708787Y-47682969D01*
X203708787Y-47682969D02*
X203551141Y-47566050D01*
X203551141Y-47566050D02*
X203382794Y-47465147D01*
X203382794Y-47465147D02*
X203205367Y-47381230D01*
X203205367Y-47381230D02*
X203020570Y-47315109D01*
X203020570Y-47315109D02*
X202830181Y-47267419D01*
X202830181Y-47267419D02*
X202636035Y-47238620D01*
X202636035Y-47238620D02*
X202440000Y-47228990D01*
X202440000Y-47228990D02*
X187138790Y-47228990D01*
X206740000Y-54137500D02*
X206514561Y-54126424D01*
X206514561Y-54126424D02*
X206291293Y-54093306D01*
X206291293Y-54093306D02*
X206072346Y-54038462D01*
X206072346Y-54038462D02*
X205859829Y-53962422D01*
X205859829Y-53962422D02*
X205655788Y-53865918D01*
X205655788Y-53865918D02*
X205462189Y-53749880D01*
X205462189Y-53749880D02*
X205280896Y-53615424D01*
X205280896Y-53615424D02*
X205113655Y-53463845D01*
X205113655Y-53463845D02*
X204962076Y-53296604D01*
X204962076Y-53296604D02*
X204827620Y-53115311D01*
X204827620Y-53115311D02*
X204711582Y-52921712D01*
X204711582Y-52921712D02*
X204615078Y-52717671D01*
X204615078Y-52717671D02*
X204539038Y-52505154D01*
X204539038Y-52505154D02*
X204484194Y-52286207D01*
X204484194Y-52286207D02*
X204451076Y-52062939D01*
X204451076Y-52062939D02*
X204440000Y-51837500D01*
X204440000Y-51837500D02*
X204440000Y-49228990D01*
X212967500Y-58410000D02*
X212967500Y-77460000D01*
X212967500Y-77460000D02*
X212967500Y-96510000D01*
X212967500Y-96510000D02*
X212967500Y-115560000D01*
X212967500Y-56137500D02*
X212967500Y-58410000D01*
X212967500Y-56137500D02*
X212957869Y-55941465D01*
X212957869Y-55941465D02*
X212929070Y-55747319D01*
X212929070Y-55747319D02*
X212881380Y-55556930D01*
X212881380Y-55556930D02*
X212815259Y-55372133D01*
X212815259Y-55372133D02*
X212731342Y-55194706D01*
X212731342Y-55194706D02*
X212630439Y-55026359D01*
X212630439Y-55026359D02*
X212513520Y-54868713D01*
X212513520Y-54868713D02*
X212381713Y-54723286D01*
X212381713Y-54723286D02*
X212236286Y-54591479D01*
X212236286Y-54591479D02*
X212078640Y-54474560D01*
X212078640Y-54474560D02*
X211910293Y-54373657D01*
X211910293Y-54373657D02*
X211732866Y-54289740D01*
X211732866Y-54289740D02*
X211548069Y-54223619D01*
X211548069Y-54223619D02*
X211357680Y-54175929D01*
X211357680Y-54175929D02*
X211163534Y-54147130D01*
X211163534Y-54147130D02*
X210967500Y-54137500D01*
X210967500Y-54137500D02*
X206740000Y-54137500D01*
X104268503Y-73650569D02*
X109816270Y-73650569D01*
X104021935Y-73897137D02*
X104268503Y-73650569D01*
X103456250Y-73897137D02*
X104021935Y-73897137D01*
X193917500Y-109210000D02*
X193917500Y-90160000D01*
X193917500Y-90160000D02*
X193917500Y-71110000D01*
X193917500Y-69519010D02*
X193917500Y-52060000D01*
X193917500Y-71110000D02*
X193917500Y-69519010D01*
X185138780Y-46179000D02*
X185138780Y-45468780D01*
X185146003Y-46326025D02*
X185138780Y-46179000D01*
X185167603Y-46471635D02*
X185146003Y-46326025D01*
X185203370Y-46614427D02*
X185167603Y-46471635D01*
X185252961Y-46753025D02*
X185203370Y-46614427D01*
X185315899Y-46886095D02*
X185252961Y-46753025D01*
X185391576Y-47012355D02*
X185315899Y-46886095D01*
X185479265Y-47130589D02*
X185391576Y-47012355D01*
X185578120Y-47239660D02*
X185479265Y-47130589D01*
X185687191Y-47338515D02*
X185578120Y-47239660D01*
X185805425Y-47426204D02*
X185687191Y-47338515D01*
X185931685Y-47501881D02*
X185805425Y-47426204D01*
X186064755Y-47564819D02*
X185931685Y-47501881D01*
X186203353Y-47614410D02*
X186064755Y-47564819D01*
X186346145Y-47650177D02*
X186203353Y-47614410D01*
X186491755Y-47671777D02*
X186346145Y-47650177D01*
X186638780Y-47679000D02*
X186491755Y-47671777D01*
X183638780Y-43968780D02*
X174406122Y-43968780D01*
X183785806Y-43976002D02*
X183638780Y-43968780D01*
X183931416Y-43997602D02*
X183785806Y-43976002D01*
X184074208Y-44033369D02*
X183931416Y-43997602D01*
X184212806Y-44082960D02*
X184074208Y-44033369D01*
X184345876Y-44145898D02*
X184212806Y-44082960D01*
X184472136Y-44221575D02*
X184345876Y-44145898D01*
X184590370Y-44309264D02*
X184472136Y-44221575D01*
X184699441Y-44408119D02*
X184590370Y-44309264D01*
X184798296Y-44517190D02*
X184699441Y-44408119D01*
X184885985Y-44635424D02*
X184798296Y-44517190D01*
X184961662Y-44761684D02*
X184885985Y-44635424D01*
X185024600Y-44894754D02*
X184961662Y-44761684D01*
X185074191Y-45033352D02*
X185024600Y-44894754D01*
X185109958Y-45176144D02*
X185074191Y-45033352D01*
X185131558Y-45321754D02*
X185109958Y-45176144D01*
X185138780Y-45468780D02*
X185131558Y-45321754D01*
X173106122Y-45349123D02*
X173106122Y-45268780D01*
X173099863Y-45476545D02*
X173106122Y-45349123D01*
X173081143Y-45602740D02*
X173099863Y-45476545D01*
X173050145Y-45726493D02*
X173081143Y-45602740D01*
X173007166Y-45846611D02*
X173050145Y-45726493D01*
X172952620Y-45961938D02*
X173007166Y-45846611D01*
X172887033Y-46071364D02*
X172952620Y-45961938D01*
X172811036Y-46173834D02*
X172887033Y-46071364D01*
X172725361Y-46268361D02*
X172811036Y-46173834D01*
X172630834Y-46354036D02*
X172725361Y-46268361D01*
X172528364Y-46430033D02*
X172630834Y-46354036D01*
X172418938Y-46495620D02*
X172528364Y-46430033D01*
X172303611Y-46550166D02*
X172418938Y-46495620D01*
X172183493Y-46593145D02*
X172303611Y-46550166D01*
X172059740Y-46624143D02*
X172183493Y-46593145D01*
X171933545Y-46642863D02*
X172059740Y-46624143D01*
X171806122Y-46649123D02*
X171933545Y-46642863D01*
X171806122Y-46649123D02*
X154989980Y-46649123D01*
X174278700Y-43975039D02*
X174406122Y-43968780D01*
X174152505Y-43993759D02*
X174278700Y-43975039D01*
X174028752Y-44024757D02*
X174152505Y-43993759D01*
X173908634Y-44067736D02*
X174028752Y-44024757D01*
X173793307Y-44122282D02*
X173908634Y-44067736D01*
X173683881Y-44187869D02*
X173793307Y-44122282D01*
X173581411Y-44263866D02*
X173683881Y-44187869D01*
X173486884Y-44349541D02*
X173581411Y-44263866D01*
X173401209Y-44444068D02*
X173486884Y-44349541D01*
X173325212Y-44546538D02*
X173401209Y-44444068D01*
X173259625Y-44655964D02*
X173325212Y-44546538D01*
X173205079Y-44771291D02*
X173259625Y-44655964D01*
X173162100Y-44891409D02*
X173205079Y-44771291D01*
X173131102Y-45015162D02*
X173162100Y-44891409D01*
X173112382Y-45141357D02*
X173131102Y-45015162D01*
X173106122Y-45268780D02*
X173112382Y-45141357D01*
X153689980Y-48057002D02*
X153689980Y-47949123D01*
X153683721Y-48184424D02*
X153689980Y-48057002D01*
X153665001Y-48310619D02*
X153683721Y-48184424D01*
X153634003Y-48434372D02*
X153665001Y-48310619D01*
X153591024Y-48554490D02*
X153634003Y-48434372D01*
X153536478Y-48669817D02*
X153591024Y-48554490D01*
X153470891Y-48779243D02*
X153536478Y-48669817D01*
X153394894Y-48881713D02*
X153470891Y-48779243D01*
X153309219Y-48976240D02*
X153394894Y-48881713D01*
X153214692Y-49061915D02*
X153309219Y-48976240D01*
X153112222Y-49137912D02*
X153214692Y-49061915D01*
X153002796Y-49203499D02*
X153112222Y-49137912D01*
X152887469Y-49258045D02*
X153002796Y-49203499D01*
X152767351Y-49301024D02*
X152887469Y-49258045D01*
X152643598Y-49332022D02*
X152767351Y-49301024D01*
X152517403Y-49350742D02*
X152643598Y-49332022D01*
X152389980Y-49357002D02*
X152517403Y-49350742D01*
X152389980Y-49357002D02*
X135368538Y-49357002D01*
X153696240Y-47821700D02*
X153689980Y-47949123D01*
X153714960Y-47695505D02*
X153696240Y-47821700D01*
X153745958Y-47571752D02*
X153714960Y-47695505D01*
X153788937Y-47451634D02*
X153745958Y-47571752D01*
X153843483Y-47336307D02*
X153788937Y-47451634D01*
X153909070Y-47226881D02*
X153843483Y-47336307D01*
X153985067Y-47124411D02*
X153909070Y-47226881D01*
X154070742Y-47029884D02*
X153985067Y-47124411D01*
X154165269Y-46944209D02*
X154070742Y-47029884D01*
X154267739Y-46868212D02*
X154165269Y-46944209D01*
X154377165Y-46802625D02*
X154267739Y-46868212D01*
X154492492Y-46748079D02*
X154377165Y-46802625D01*
X154612610Y-46705100D02*
X154492492Y-46748079D01*
X154736363Y-46674102D02*
X154612610Y-46705100D01*
X154862558Y-46655382D02*
X154736363Y-46674102D01*
X154989980Y-46649123D02*
X154862558Y-46655382D01*
X112616280Y-71999640D02*
X112616280Y-55326850D01*
X112603761Y-72254484D02*
X112616280Y-71999640D01*
X112566322Y-72506874D02*
X112603761Y-72254484D01*
X112504325Y-72754380D02*
X112566322Y-72506874D01*
X112418367Y-72994616D02*
X112504325Y-72754380D01*
X112309276Y-73225271D02*
X112418367Y-72994616D01*
X112178101Y-73444122D02*
X112309276Y-73225271D01*
X112026108Y-73649062D02*
X112178101Y-73444122D01*
X111854758Y-73838117D02*
X112026108Y-73649062D01*
X111665703Y-74009467D02*
X111854758Y-73838117D01*
X111460763Y-74161460D02*
X111665703Y-74009467D01*
X111241912Y-74292635D02*
X111460763Y-74161460D01*
X111011257Y-74401726D02*
X111241912Y-74292635D01*
X110771021Y-74487684D02*
X111011257Y-74401726D01*
X110523515Y-74549681D02*
X110771021Y-74487684D01*
X110271125Y-74587120D02*
X110523515Y-74549681D01*
X110016280Y-74599640D02*
X110271125Y-74587120D01*
X133868538Y-50926850D02*
X133868538Y-50857002D01*
X133861316Y-51073875D02*
X133868538Y-50926850D01*
X133839716Y-51219485D02*
X133861316Y-51073875D01*
X133803949Y-51362277D02*
X133839716Y-51219485D01*
X133754358Y-51500875D02*
X133803949Y-51362277D01*
X133691420Y-51633945D02*
X133754358Y-51500875D01*
X133615743Y-51760205D02*
X133691420Y-51633945D01*
X133528054Y-51878439D02*
X133615743Y-51760205D01*
X133429199Y-51987510D02*
X133528054Y-51878439D01*
X133320128Y-52086365D02*
X133429199Y-51987510D01*
X133201894Y-52174054D02*
X133320128Y-52086365D01*
X133075634Y-52249731D02*
X133201894Y-52174054D01*
X132942564Y-52312669D02*
X133075634Y-52249731D01*
X132803966Y-52362260D02*
X132942564Y-52312669D01*
X132661174Y-52398027D02*
X132803966Y-52362260D01*
X132515564Y-52419627D02*
X132661174Y-52398027D01*
X132368538Y-52426850D02*
X132515564Y-52419627D01*
X132368538Y-52426850D02*
X115516280Y-52426850D01*
X133875761Y-50709976D02*
X133868538Y-50857002D01*
X133897361Y-50564366D02*
X133875761Y-50709976D01*
X133933128Y-50421574D02*
X133897361Y-50564366D01*
X133982719Y-50282976D02*
X133933128Y-50421574D01*
X134045657Y-50149906D02*
X133982719Y-50282976D01*
X134121334Y-50023646D02*
X134045657Y-50149906D01*
X134209023Y-49905412D02*
X134121334Y-50023646D01*
X134307878Y-49796341D02*
X134209023Y-49905412D01*
X134416949Y-49697486D02*
X134307878Y-49796341D01*
X134535183Y-49609797D02*
X134416949Y-49697486D01*
X134661443Y-49534120D02*
X134535183Y-49609797D01*
X134794513Y-49471182D02*
X134661443Y-49534120D01*
X134933111Y-49421591D02*
X134794513Y-49471182D01*
X135075903Y-49385824D02*
X134933111Y-49421591D01*
X135221513Y-49364224D02*
X135075903Y-49385824D01*
X135368538Y-49357002D02*
X135221513Y-49364224D01*
X115232031Y-52440814D02*
X115516280Y-52426850D01*
X114950519Y-52482572D02*
X115232031Y-52440814D01*
X114674455Y-52551723D02*
X114950519Y-52482572D01*
X114406499Y-52647599D02*
X114674455Y-52551723D01*
X114149230Y-52769278D02*
X114406499Y-52647599D01*
X113905127Y-52915588D02*
X114149230Y-52769278D01*
X113676540Y-53085119D02*
X113905127Y-52915588D01*
X113465671Y-53276240D02*
X113676540Y-53085119D01*
X113274550Y-53487109D02*
X113465671Y-53276240D01*
X113105019Y-53715696D02*
X113274550Y-53487109D01*
X112958709Y-53959799D02*
X113105019Y-53715696D01*
X112837030Y-54217068D02*
X112958709Y-53959799D01*
X112741154Y-54485024D02*
X112837030Y-54217068D01*
X112672003Y-54761088D02*
X112741154Y-54485024D01*
X112630245Y-55042600D02*
X112672003Y-54761088D01*
X112616280Y-55326850D02*
X112630245Y-55042600D01*
X193917500Y-49679000D02*
X193917500Y-52060000D01*
X193917500Y-49679000D02*
X193907869Y-49482965D01*
X193907869Y-49482965D02*
X193879070Y-49288819D01*
X193879070Y-49288819D02*
X193831380Y-49098430D01*
X193831380Y-49098430D02*
X193765259Y-48913633D01*
X193765259Y-48913633D02*
X193681342Y-48736206D01*
X193681342Y-48736206D02*
X193580439Y-48567859D01*
X193580439Y-48567859D02*
X193463520Y-48410213D01*
X193463520Y-48410213D02*
X193331713Y-48264786D01*
X193331713Y-48264786D02*
X193186286Y-48132979D01*
X193186286Y-48132979D02*
X193028640Y-48016060D01*
X193028640Y-48016060D02*
X192860293Y-47915157D01*
X192860293Y-47915157D02*
X192682866Y-47831240D01*
X192682866Y-47831240D02*
X192498069Y-47765119D01*
X192498069Y-47765119D02*
X192307680Y-47717429D01*
X192307680Y-47717429D02*
X192113534Y-47688630D01*
X192113534Y-47688630D02*
X191917500Y-47679000D01*
X191917500Y-47679000D02*
X186638780Y-47679000D01*
X104690648Y-74599640D02*
X110016280Y-74599640D01*
X104521935Y-74768353D02*
X104690648Y-74599640D01*
X103956250Y-74768353D02*
X104521935Y-74768353D01*
X115716290Y-52876860D02*
X115461446Y-52889379D01*
X115461446Y-52889379D02*
X115209056Y-52926818D01*
X115209056Y-52926818D02*
X114961550Y-52988815D01*
X114961550Y-52988815D02*
X114721314Y-53074773D01*
X114721314Y-53074773D02*
X114490659Y-53183864D01*
X114490659Y-53183864D02*
X114271808Y-53315039D01*
X114271808Y-53315039D02*
X114066868Y-53467032D01*
X114066868Y-53467032D02*
X113877813Y-53638382D01*
X113877813Y-53638382D02*
X113706463Y-53827437D01*
X113706463Y-53827437D02*
X113554470Y-54032377D01*
X113554470Y-54032377D02*
X113423295Y-54251228D01*
X113423295Y-54251228D02*
X113314204Y-54481883D01*
X113314204Y-54481883D02*
X113228246Y-54722119D01*
X113228246Y-54722119D02*
X113166249Y-54969625D01*
X113166249Y-54969625D02*
X113128810Y-55222015D01*
X113128810Y-55222015D02*
X113116290Y-55476860D01*
X134368548Y-51307012D02*
X134375771Y-51159986D01*
X134375771Y-51159986D02*
X134397371Y-51014376D01*
X134397371Y-51014376D02*
X134433138Y-50871584D01*
X134433138Y-50871584D02*
X134482729Y-50732986D01*
X134482729Y-50732986D02*
X134545667Y-50599916D01*
X134545667Y-50599916D02*
X134621344Y-50473656D01*
X134621344Y-50473656D02*
X134709033Y-50355422D01*
X134709033Y-50355422D02*
X134807888Y-50246351D01*
X134807888Y-50246351D02*
X134916959Y-50147496D01*
X134916959Y-50147496D02*
X135035193Y-50059807D01*
X135035193Y-50059807D02*
X135161453Y-49984130D01*
X135161453Y-49984130D02*
X135294523Y-49921192D01*
X135294523Y-49921192D02*
X135433121Y-49871601D01*
X135433121Y-49871601D02*
X135575913Y-49835834D01*
X135575913Y-49835834D02*
X135721523Y-49814234D01*
X135721523Y-49814234D02*
X135868548Y-49807012D01*
X132868548Y-52876860D02*
X115716290Y-52876860D01*
X132868548Y-52876860D02*
X133015574Y-52869637D01*
X133015574Y-52869637D02*
X133161184Y-52848037D01*
X133161184Y-52848037D02*
X133303976Y-52812270D01*
X133303976Y-52812270D02*
X133442574Y-52762679D01*
X133442574Y-52762679D02*
X133575644Y-52699741D01*
X133575644Y-52699741D02*
X133701904Y-52624064D01*
X133701904Y-52624064D02*
X133820138Y-52536375D01*
X133820138Y-52536375D02*
X133929209Y-52437520D01*
X133929209Y-52437520D02*
X134028064Y-52328449D01*
X134028064Y-52328449D02*
X134115753Y-52210215D01*
X134115753Y-52210215D02*
X134191430Y-52083955D01*
X134191430Y-52083955D02*
X134254368Y-51950885D01*
X134254368Y-51950885D02*
X134303959Y-51812287D01*
X134303959Y-51812287D02*
X134339726Y-51669495D01*
X134339726Y-51669495D02*
X134361326Y-51523885D01*
X134361326Y-51523885D02*
X134368548Y-51376860D01*
X134368548Y-51376860D02*
X134368548Y-51307012D01*
X110216290Y-75424703D02*
X110500540Y-75410738D01*
X110500540Y-75410738D02*
X110782052Y-75368980D01*
X110782052Y-75368980D02*
X111058116Y-75299829D01*
X111058116Y-75299829D02*
X111326072Y-75203953D01*
X111326072Y-75203953D02*
X111583341Y-75082274D01*
X111583341Y-75082274D02*
X111827444Y-74935964D01*
X111827444Y-74935964D02*
X112056031Y-74766433D01*
X112056031Y-74766433D02*
X112266900Y-74575312D01*
X112266900Y-74575312D02*
X112458021Y-74364443D01*
X112458021Y-74364443D02*
X112627552Y-74135856D01*
X112627552Y-74135856D02*
X112773862Y-73891753D01*
X112773862Y-73891753D02*
X112895541Y-73634484D01*
X112895541Y-73634484D02*
X112991417Y-73366528D01*
X112991417Y-73366528D02*
X113060568Y-73090464D01*
X113060568Y-73090464D02*
X113102326Y-72808952D01*
X113102326Y-72808952D02*
X113116290Y-72524703D01*
X113116290Y-72524703D02*
X113116290Y-55476860D01*
X155489990Y-47099133D02*
X155362568Y-47105392D01*
X155362568Y-47105392D02*
X155236373Y-47124112D01*
X155236373Y-47124112D02*
X155112620Y-47155110D01*
X155112620Y-47155110D02*
X154992502Y-47198089D01*
X154992502Y-47198089D02*
X154877175Y-47252635D01*
X154877175Y-47252635D02*
X154767749Y-47318222D01*
X154767749Y-47318222D02*
X154665279Y-47394219D01*
X154665279Y-47394219D02*
X154570752Y-47479894D01*
X154570752Y-47479894D02*
X154485077Y-47574421D01*
X154485077Y-47574421D02*
X154409080Y-47676891D01*
X154409080Y-47676891D02*
X154343493Y-47786317D01*
X154343493Y-47786317D02*
X154288947Y-47901644D01*
X154288947Y-47901644D02*
X154245968Y-48021762D01*
X154245968Y-48021762D02*
X154214970Y-48145515D01*
X154214970Y-48145515D02*
X154196250Y-48271710D01*
X154196250Y-48271710D02*
X154189990Y-48399133D01*
X152889990Y-49807012D02*
X135868548Y-49807012D01*
X152889990Y-49807012D02*
X153017413Y-49800752D01*
X153017413Y-49800752D02*
X153143608Y-49782032D01*
X153143608Y-49782032D02*
X153267361Y-49751034D01*
X153267361Y-49751034D02*
X153387479Y-49708055D01*
X153387479Y-49708055D02*
X153502806Y-49653509D01*
X153502806Y-49653509D02*
X153612232Y-49587922D01*
X153612232Y-49587922D02*
X153714702Y-49511925D01*
X153714702Y-49511925D02*
X153809229Y-49426250D01*
X153809229Y-49426250D02*
X153894904Y-49331723D01*
X153894904Y-49331723D02*
X153970901Y-49229253D01*
X153970901Y-49229253D02*
X154036488Y-49119827D01*
X154036488Y-49119827D02*
X154091034Y-49004500D01*
X154091034Y-49004500D02*
X154134013Y-48884382D01*
X154134013Y-48884382D02*
X154165011Y-48760629D01*
X154165011Y-48760629D02*
X154183731Y-48634434D01*
X154183731Y-48634434D02*
X154189990Y-48507012D01*
X154189990Y-48507012D02*
X154189990Y-48399133D01*
X174867500Y-48885000D02*
X174867500Y-67935000D01*
X174867500Y-67935000D02*
X174867500Y-86985000D01*
X174867500Y-86985000D02*
X174867500Y-106035000D01*
X173867500Y-47099133D02*
X155489990Y-47099133D01*
X173867500Y-47099133D02*
X173965517Y-47103948D01*
X173965517Y-47103948D02*
X174062590Y-47118347D01*
X174062590Y-47118347D02*
X174157784Y-47142192D01*
X174157784Y-47142192D02*
X174250183Y-47175253D01*
X174250183Y-47175253D02*
X174338896Y-47217211D01*
X174338896Y-47217211D02*
X174423070Y-47267663D01*
X174423070Y-47267663D02*
X174501893Y-47326122D01*
X174501893Y-47326122D02*
X174574606Y-47392026D01*
X174574606Y-47392026D02*
X174640510Y-47464739D01*
X174640510Y-47464739D02*
X174698969Y-47543562D01*
X174698969Y-47543562D02*
X174749421Y-47627736D01*
X174749421Y-47627736D02*
X174791379Y-47716449D01*
X174791379Y-47716449D02*
X174824440Y-47808848D01*
X174824440Y-47808848D02*
X174848285Y-47904042D01*
X174848285Y-47904042D02*
X174862684Y-48001115D01*
X174862684Y-48001115D02*
X174867500Y-48099133D01*
X174867500Y-48099133D02*
X174867500Y-48885000D01*
X110027016Y-75235429D02*
X110216290Y-75424703D01*
X104856249Y-75235429D02*
X110027016Y-75235429D01*
X104456250Y-75635428D02*
X104856249Y-75235429D01*
X153390000Y-50257022D02*
X136368558Y-50257022D01*
X113616300Y-73040729D02*
X113616300Y-55626870D01*
X113600892Y-73354383D02*
X113616300Y-73040729D01*
X113554813Y-73665018D02*
X113600892Y-73354383D01*
X113478510Y-73969639D02*
X113554813Y-73665018D01*
X113372715Y-74265315D02*
X113478510Y-73969639D01*
X113238449Y-74549198D02*
X113372715Y-74265315D01*
X113077003Y-74818553D02*
X113238449Y-74549198D01*
X112889934Y-75070787D02*
X113077003Y-74818553D01*
X112679042Y-75303470D02*
X112889934Y-75070787D01*
X112446359Y-75514362D02*
X112679042Y-75303470D01*
X112194125Y-75701431D02*
X112446359Y-75514362D01*
X111924770Y-75862877D02*
X112194125Y-75701431D01*
X111640887Y-75997143D02*
X111924770Y-75862877D01*
X111345211Y-76102938D02*
X111640887Y-75997143D01*
X111040590Y-76179241D02*
X111345211Y-76102938D01*
X110729955Y-76225320D02*
X111040590Y-76179241D01*
X110416300Y-76240729D02*
X110729955Y-76225320D01*
X134868558Y-51826870D02*
X134868558Y-51757022D01*
X134861336Y-51973895D02*
X134868558Y-51826870D01*
X134839736Y-52119505D02*
X134861336Y-51973895D01*
X134803969Y-52262297D02*
X134839736Y-52119505D01*
X134754378Y-52400895D02*
X134803969Y-52262297D01*
X134691440Y-52533965D02*
X134754378Y-52400895D01*
X134615763Y-52660225D02*
X134691440Y-52533965D01*
X134528074Y-52778459D02*
X134615763Y-52660225D01*
X134429219Y-52887530D02*
X134528074Y-52778459D01*
X134320148Y-52986385D02*
X134429219Y-52887530D01*
X134201914Y-53074074D02*
X134320148Y-52986385D01*
X134075654Y-53149751D02*
X134201914Y-53074074D01*
X133942584Y-53212689D02*
X134075654Y-53149751D01*
X133803986Y-53262280D02*
X133942584Y-53212689D01*
X133661194Y-53298047D02*
X133803986Y-53262280D01*
X133515584Y-53319647D02*
X133661194Y-53298047D01*
X133368558Y-53326870D02*
X133515584Y-53319647D01*
X133368558Y-53326870D02*
X115916300Y-53326870D01*
X134875781Y-51609996D02*
X134868558Y-51757022D01*
X134897381Y-51464386D02*
X134875781Y-51609996D01*
X134933148Y-51321594D02*
X134897381Y-51464386D01*
X134982739Y-51182996D02*
X134933148Y-51321594D01*
X135045677Y-51049926D02*
X134982739Y-51182996D01*
X135121354Y-50923666D02*
X135045677Y-51049926D01*
X135209043Y-50805432D02*
X135121354Y-50923666D01*
X135307898Y-50696361D02*
X135209043Y-50805432D01*
X135416969Y-50597506D02*
X135307898Y-50696361D01*
X135535203Y-50509817D02*
X135416969Y-50597506D01*
X135661463Y-50434140D02*
X135535203Y-50509817D01*
X135794533Y-50371202D02*
X135661463Y-50434140D01*
X135933131Y-50321611D02*
X135794533Y-50371202D01*
X136075923Y-50285844D02*
X135933131Y-50321611D01*
X136221533Y-50264244D02*
X136075923Y-50285844D01*
X136368558Y-50257022D02*
X136221533Y-50264244D01*
X113627376Y-55401430D02*
X113616300Y-55626870D01*
X113660494Y-55178162D02*
X113627376Y-55401430D01*
X113715338Y-54959215D02*
X113660494Y-55178162D01*
X113791378Y-54746698D02*
X113715338Y-54959215D01*
X113887882Y-54542657D02*
X113791378Y-54746698D01*
X114003920Y-54349058D02*
X113887882Y-54542657D01*
X114138376Y-54167765D02*
X114003920Y-54349058D01*
X114289955Y-54000524D02*
X114138376Y-54167765D01*
X114457196Y-53848945D02*
X114289955Y-54000524D01*
X114638489Y-53714489D02*
X114457196Y-53848945D01*
X114832088Y-53598451D02*
X114638489Y-53714489D01*
X115036129Y-53501947D02*
X114832088Y-53598451D01*
X115248646Y-53425907D02*
X115036129Y-53501947D01*
X115467593Y-53371063D02*
X115248646Y-53425907D01*
X115690861Y-53337945D02*
X115467593Y-53371063D01*
X115916300Y-53326870D02*
X115690861Y-53337945D01*
X155817500Y-52060000D02*
X155817500Y-71110000D01*
X155817500Y-71110000D02*
X155817500Y-90160000D01*
X155817500Y-90160000D02*
X155817500Y-109210000D01*
X155817500Y-132020872D02*
X155826816Y-132030188D01*
X155817500Y-109210000D02*
X155817500Y-132020872D01*
X110328740Y-76153169D02*
X110416300Y-76240729D01*
X105356249Y-76153169D02*
X110328740Y-76153169D01*
X104956250Y-76553168D02*
X105356249Y-76153169D01*
X154014522Y-50257022D02*
X155817500Y-52060000D01*
X153390000Y-50257022D02*
X154014522Y-50257022D01*
X109597002Y-105752998D02*
X106837500Y-108512500D01*
X109597002Y-85931249D02*
X109597002Y-105752998D01*
X109197003Y-85531250D02*
X109597002Y-85931249D01*
X110065158Y-113214842D02*
X106830000Y-116450000D01*
X110065158Y-85031250D02*
X110065158Y-113214842D01*
X110962174Y-120252826D02*
X106827500Y-124387500D01*
X110962174Y-84531250D02*
X110962174Y-120252826D01*
X111822439Y-127327561D02*
X106825000Y-132325000D01*
X111822439Y-84010000D02*
X111822439Y-127327561D01*
X110959370Y-76923876D02*
X110616310Y-76940730D01*
X112560806Y-76350873D02*
X112266199Y-76527454D01*
X111955703Y-76674308D02*
X111632307Y-76790021D01*
X113091184Y-75915603D02*
X112836687Y-76146266D01*
X113526454Y-75385225D02*
X113321847Y-75661106D01*
X113703035Y-75090618D02*
X113526454Y-75385225D01*
X113849889Y-74780122D02*
X113703035Y-75090618D01*
X114116310Y-55776880D02*
X114116310Y-73440730D01*
X114125941Y-55580845D02*
X114116310Y-55776880D01*
X113321847Y-75661106D02*
X113091184Y-75915603D01*
X114352468Y-54834086D02*
X114268551Y-55011513D01*
X114847524Y-54230859D02*
X114702097Y-54362666D01*
X115005170Y-54113940D02*
X114847524Y-54230859D01*
X115350944Y-53929120D02*
X115173517Y-54013037D01*
X115535741Y-53862999D02*
X115350944Y-53929120D01*
X114116310Y-73440730D02*
X114099457Y-73783789D01*
X115920276Y-53786510D02*
X115726130Y-53815309D01*
X114702097Y-54362666D02*
X114570290Y-54508093D01*
X114268551Y-55011513D02*
X114202430Y-55196310D01*
X112836687Y-76146266D02*
X112560806Y-76350873D01*
X114049059Y-74123546D02*
X113965602Y-74456726D01*
X114099457Y-73783789D02*
X114049059Y-74123546D01*
X111632307Y-76790021D02*
X111299127Y-76873478D01*
X111299127Y-76873478D02*
X110959370Y-76923876D01*
X114154740Y-55386699D02*
X114125941Y-55580845D01*
X114570290Y-54508093D02*
X114453371Y-54665739D01*
X113965602Y-74456726D02*
X113849889Y-74780122D01*
X114453371Y-54665739D02*
X114352468Y-54834086D01*
X115173517Y-54013037D02*
X115005170Y-54113940D01*
X116116310Y-53776880D02*
X115920276Y-53786510D01*
X114202430Y-55196310D02*
X114154740Y-55386699D01*
X115726130Y-53815309D02*
X115535741Y-53862999D01*
X112266199Y-76527454D02*
X111955703Y-76674308D01*
X136765162Y-112387338D02*
X136767500Y-112385000D01*
X136765162Y-135867649D02*
X136765162Y-112387338D01*
X136767500Y-110794010D02*
X136767500Y-93335000D01*
X136767500Y-112385000D02*
X136767500Y-110794010D01*
X136767500Y-76318998D02*
X136767500Y-74285000D01*
X136767500Y-93335000D02*
X136767500Y-76318998D01*
X136767500Y-74285000D02*
X136767500Y-55235000D01*
X110539909Y-77017131D02*
X110616310Y-76940730D01*
X105859809Y-77017131D02*
X110539909Y-77017131D01*
X105459810Y-77417130D02*
X105859809Y-77017131D01*
X133636880Y-53776880D02*
X135309380Y-53776880D01*
X135309380Y-53776880D02*
X136767500Y-55235000D01*
X133636880Y-53776880D02*
X116116310Y-53776880D01*
X117717500Y-60000990D02*
X117717500Y-77460000D01*
X117717500Y-58410000D02*
X117717500Y-60000990D01*
X117717500Y-77460000D02*
X117717500Y-96510000D01*
X117717500Y-120007571D02*
X116392422Y-121332649D01*
X117717500Y-96510000D02*
X117717500Y-120007571D01*
X117692422Y-122632649D02*
X116392422Y-121332649D01*
X117692422Y-140662649D02*
X117692422Y-122632649D01*
X116891162Y-78286338D02*
X117717500Y-77460000D01*
X105956250Y-78286338D02*
X116891162Y-78286338D01*
D17*
X106470000Y-60310000D02*
X104000000Y-60310000D01*
X108910000Y-60310000D02*
X106470000Y-60310000D01*
X108896250Y-60296250D02*
X108910000Y-60310000D01*
X103996250Y-60306250D02*
X104000000Y-60310000D01*
X104000000Y-60310000D02*
X103600001Y-59910001D01*
X103600001Y-59910001D02*
X101680001Y-59910001D01*
X108039998Y-63699998D02*
X109190000Y-64850000D01*
X106470000Y-63699998D02*
X108039998Y-63699998D01*
X99700000Y-57930000D02*
X95600000Y-57930000D01*
X101680001Y-59910001D02*
X99700000Y-57930000D01*
D16*
X103601250Y-86731250D02*
X100731250Y-86731250D01*
X104730000Y-87860000D02*
X103601250Y-86731250D01*
X97977499Y-71006251D02*
X98302501Y-70681249D01*
X97977499Y-80331814D02*
X97977499Y-71006251D01*
X98302501Y-70681249D02*
X99302500Y-69681250D01*
X98320000Y-80674315D02*
X97977499Y-80331814D01*
X98320000Y-81240000D02*
X98320000Y-80674315D01*
D17*
X96837500Y-80962500D02*
X96837500Y-88106250D01*
X106869270Y-92361980D02*
X107156250Y-92075000D01*
X100293864Y-92361980D02*
X106869270Y-92361980D01*
X107156250Y-85462500D02*
X109537500Y-83081250D01*
X107156250Y-92075000D02*
X107156250Y-85462500D01*
X109537500Y-80932500D02*
X110720000Y-79750000D01*
X109537500Y-83081250D02*
X109537500Y-80932500D01*
D18*
G36*
X97243957Y-52102629D02*
G01*
X97017114Y-52254201D01*
X96824201Y-52447114D01*
X96672629Y-52673957D01*
X96568225Y-52926011D01*
X96515000Y-53193589D01*
X96515000Y-53466411D01*
X96568225Y-53733989D01*
X96672629Y-53986043D01*
X96824201Y-54212886D01*
X97017114Y-54405799D01*
X97243957Y-54557371D01*
X97496011Y-54661775D01*
X97763589Y-54715000D01*
X98036411Y-54715000D01*
X98303989Y-54661775D01*
X98556043Y-54557371D01*
X98782886Y-54405799D01*
X98975799Y-54212886D01*
X99127371Y-53986043D01*
X99231775Y-53733989D01*
X99285000Y-53466411D01*
X99285000Y-53193589D01*
X99231775Y-52926011D01*
X99127371Y-52673957D01*
X99054235Y-52564500D01*
X100991250Y-52564500D01*
X100991250Y-52864500D01*
X101037835Y-53083487D01*
X101126247Y-53289178D01*
X101253089Y-53473669D01*
X101413486Y-53629869D01*
X101601274Y-53751776D01*
X101824376Y-53831619D01*
X101999250Y-53705454D01*
X101999250Y-52564500D01*
X102253250Y-52564500D01*
X102253250Y-53705454D01*
X102428124Y-53831619D01*
X102651226Y-53751776D01*
X102839014Y-53629869D01*
X102999411Y-53473669D01*
X103126253Y-53289178D01*
X103214665Y-53083487D01*
X103261250Y-52864500D01*
X103261250Y-52564500D01*
X109631250Y-52564500D01*
X109631250Y-52864500D01*
X109677835Y-53083487D01*
X109766247Y-53289178D01*
X109893089Y-53473669D01*
X110053486Y-53629869D01*
X110241274Y-53751776D01*
X110464376Y-53831619D01*
X110639250Y-53705454D01*
X110639250Y-52564500D01*
X109631250Y-52564500D01*
X103261250Y-52564500D01*
X102253250Y-52564500D01*
X101999250Y-52564500D01*
X100991250Y-52564500D01*
X99054235Y-52564500D01*
X98975799Y-52447114D01*
X98782886Y-52254201D01*
X98556043Y-52102629D01*
X98513483Y-52085000D01*
X100991250Y-52085000D01*
X100991250Y-52310500D01*
X101999250Y-52310500D01*
X101999250Y-52290500D01*
X102253250Y-52290500D01*
X102253250Y-52310500D01*
X103261250Y-52310500D01*
X103261250Y-52085000D01*
X109631250Y-52085000D01*
X109631250Y-52310500D01*
X110639250Y-52310500D01*
X110639250Y-52290500D01*
X110893250Y-52290500D01*
X110893250Y-52310500D01*
X110913250Y-52310500D01*
X110913250Y-52564500D01*
X110893250Y-52564500D01*
X110893250Y-53705454D01*
X111034464Y-53807334D01*
X110937217Y-54195563D01*
X110937216Y-54195568D01*
X110937216Y-54195569D01*
X110875862Y-54609185D01*
X110875692Y-54612646D01*
X110858091Y-54970922D01*
X110856261Y-54989497D01*
X110856261Y-55008161D01*
X110855344Y-55026826D01*
X110856261Y-55045492D01*
X110856260Y-70837611D01*
X110849378Y-70977701D01*
X110831536Y-71097981D01*
X110801990Y-71215936D01*
X110761024Y-71330428D01*
X110709036Y-71440348D01*
X110646519Y-71544652D01*
X110574086Y-71642316D01*
X110492426Y-71732413D01*
X110402323Y-71814077D01*
X110304662Y-71886509D01*
X110200362Y-71949023D01*
X110090439Y-72001013D01*
X109975949Y-72041979D01*
X109857993Y-72071525D01*
X109737711Y-72089367D01*
X109634955Y-72094415D01*
X109616259Y-72092574D01*
X109560349Y-72098081D01*
X109541679Y-72098998D01*
X109523188Y-72101741D01*
X109467274Y-72107248D01*
X109458202Y-72110000D01*
X104053711Y-72110000D01*
X104009774Y-72066063D01*
X103840256Y-71952795D01*
X103651898Y-71874774D01*
X103451939Y-71835000D01*
X103248061Y-71835000D01*
X103048102Y-71874774D01*
X102859744Y-71952795D01*
X102690226Y-72066063D01*
X102546063Y-72210226D01*
X102432795Y-72379744D01*
X102354774Y-72568102D01*
X102315000Y-72768061D01*
X102315000Y-72971939D01*
X102354774Y-73171898D01*
X102432795Y-73360256D01*
X102510307Y-73476261D01*
X102461024Y-73595239D01*
X102421250Y-73795198D01*
X102421250Y-73999076D01*
X102461024Y-74199035D01*
X102539045Y-74387393D01*
X102652313Y-74556911D01*
X102796476Y-74701074D01*
X102921250Y-74784445D01*
X102921250Y-74870292D01*
X102961024Y-75070251D01*
X103039045Y-75258609D01*
X103152313Y-75428127D01*
X103296476Y-75572290D01*
X103421250Y-75655661D01*
X103421250Y-75737367D01*
X103461024Y-75937326D01*
X103539045Y-76125684D01*
X103652313Y-76295202D01*
X103796476Y-76439365D01*
X103921250Y-76522736D01*
X103921250Y-76655107D01*
X103961024Y-76855066D01*
X104039045Y-77043424D01*
X104152313Y-77212942D01*
X104296476Y-77357105D01*
X104424810Y-77442855D01*
X104424810Y-77519069D01*
X104464584Y-77719028D01*
X104542605Y-77907386D01*
X104655873Y-78076904D01*
X104800036Y-78221067D01*
X104921250Y-78302059D01*
X104921250Y-78388277D01*
X104961024Y-78588236D01*
X105039045Y-78776594D01*
X105152313Y-78946112D01*
X105296476Y-79090275D01*
X105465994Y-79203543D01*
X105654352Y-79281564D01*
X105854311Y-79321338D01*
X106058189Y-79321338D01*
X106258148Y-79281564D01*
X106446506Y-79203543D01*
X106616024Y-79090275D01*
X106659961Y-79046338D01*
X109959951Y-79046338D01*
X109916063Y-79090226D01*
X109802795Y-79259744D01*
X109724774Y-79448102D01*
X109713465Y-79504956D01*
X108942451Y-80275971D01*
X108908684Y-80303683D01*
X108880971Y-80337451D01*
X108880968Y-80337454D01*
X108798090Y-80438441D01*
X108715912Y-80592187D01*
X108665305Y-80759010D01*
X108648219Y-80932500D01*
X108652501Y-80975979D01*
X108652500Y-82714671D01*
X106561201Y-84805971D01*
X106527434Y-84833683D01*
X106499721Y-84867451D01*
X106499718Y-84867454D01*
X106416840Y-84968441D01*
X106334662Y-85122187D01*
X106284055Y-85289010D01*
X106266969Y-85462500D01*
X106271251Y-85505979D01*
X106271250Y-91476980D01*
X100832318Y-91476980D01*
X100784120Y-91444775D01*
X100595762Y-91366754D01*
X100395803Y-91326980D01*
X100191925Y-91326980D01*
X99991966Y-91366754D01*
X99803608Y-91444775D01*
X99634090Y-91558043D01*
X99489927Y-91702206D01*
X99376659Y-91871724D01*
X99298638Y-92060082D01*
X99258864Y-92260041D01*
X99258864Y-92463919D01*
X99298638Y-92663878D01*
X99376659Y-92852236D01*
X99489927Y-93021754D01*
X99634090Y-93165917D01*
X99803608Y-93279185D01*
X99991966Y-93357206D01*
X100191925Y-93396980D01*
X100395803Y-93396980D01*
X100595762Y-93357206D01*
X100784120Y-93279185D01*
X100832318Y-93246980D01*
X106825801Y-93246980D01*
X106869270Y-93251261D01*
X106912739Y-93246980D01*
X106912747Y-93246980D01*
X107042760Y-93234175D01*
X107209583Y-93183569D01*
X107363329Y-93101391D01*
X107383118Y-93085150D01*
X107458148Y-93070226D01*
X107646506Y-92992205D01*
X107795205Y-92892848D01*
X107795205Y-98549993D01*
X107422198Y-98923000D01*
X94900000Y-98923000D01*
X94900000Y-80860561D01*
X95802500Y-80860561D01*
X95802500Y-81064439D01*
X95842274Y-81264398D01*
X95920295Y-81452756D01*
X95952500Y-81500954D01*
X95952501Y-87567794D01*
X95920295Y-87615994D01*
X95842274Y-87804352D01*
X95802500Y-88004311D01*
X95802500Y-88208189D01*
X95842274Y-88408148D01*
X95920295Y-88596506D01*
X96033563Y-88766024D01*
X96177726Y-88910187D01*
X96347244Y-89023455D01*
X96535602Y-89101476D01*
X96735561Y-89141250D01*
X96939439Y-89141250D01*
X97139398Y-89101476D01*
X97327756Y-89023455D01*
X97497274Y-88910187D01*
X97641437Y-88766024D01*
X97754705Y-88596506D01*
X97832726Y-88408148D01*
X97872500Y-88208189D01*
X97872500Y-88004311D01*
X97832726Y-87804352D01*
X97754705Y-87615994D01*
X97722500Y-87567796D01*
X97722500Y-82085547D01*
X97829744Y-82157205D01*
X98018102Y-82235226D01*
X98218061Y-82275000D01*
X98421939Y-82275000D01*
X98621898Y-82235226D01*
X98810256Y-82157205D01*
X98979774Y-82043937D01*
X99123937Y-81899774D01*
X99237205Y-81730256D01*
X99315226Y-81541898D01*
X99355000Y-81341939D01*
X99355000Y-81138061D01*
X99315226Y-80938102D01*
X99237205Y-80749744D01*
X99123937Y-80580226D01*
X99068987Y-80525276D01*
X99025546Y-80382068D01*
X99018639Y-80369146D01*
X98954974Y-80250039D01*
X98860001Y-80134314D01*
X98830997Y-80110511D01*
X98737499Y-80017013D01*
X98737499Y-74398377D01*
X99043608Y-74478634D01*
X99365095Y-74497968D01*
X99684175Y-74454211D01*
X99988588Y-74349045D01*
X100162544Y-74256064D01*
X100258308Y-73991663D01*
X99302500Y-73035855D01*
X99288358Y-73049998D01*
X99108753Y-72870393D01*
X99122895Y-72856250D01*
X99482105Y-72856250D01*
X100437913Y-73812058D01*
X100702314Y-73716294D01*
X100843204Y-73426679D01*
X100924884Y-73115142D01*
X100944218Y-72793655D01*
X100900461Y-72474575D01*
X100795295Y-72170162D01*
X100702314Y-71996206D01*
X100437913Y-71900442D01*
X99482105Y-72856250D01*
X99122895Y-72856250D01*
X99108753Y-72842108D01*
X99288358Y-72662503D01*
X99302500Y-72676645D01*
X100258308Y-71720837D01*
X100162544Y-71456436D01*
X99872929Y-71315546D01*
X99697847Y-71269642D01*
X99779412Y-71253418D01*
X100076963Y-71130168D01*
X100344752Y-70951237D01*
X100572487Y-70723502D01*
X100751418Y-70455713D01*
X100874668Y-70158162D01*
X100937500Y-69842283D01*
X100937500Y-69520217D01*
X100874668Y-69204338D01*
X100751418Y-68906787D01*
X100572487Y-68638998D01*
X100344752Y-68411263D01*
X100076963Y-68232332D01*
X99779412Y-68109082D01*
X99702333Y-68093750D01*
X99779412Y-68078418D01*
X100076963Y-67955168D01*
X100344752Y-67776237D01*
X100572487Y-67548502D01*
X100751418Y-67280713D01*
X100874668Y-66983162D01*
X100937500Y-66667283D01*
X100937500Y-66345217D01*
X100874668Y-66029338D01*
X100751418Y-65731787D01*
X100572487Y-65463998D01*
X100344752Y-65236263D01*
X100076963Y-65057332D01*
X99779412Y-64934082D01*
X99463533Y-64871250D01*
X99141467Y-64871250D01*
X98825588Y-64934082D01*
X98528037Y-65057332D01*
X98260248Y-65236263D01*
X98032513Y-65463998D01*
X97853582Y-65731787D01*
X97730332Y-66029338D01*
X97667500Y-66345217D01*
X97667500Y-66667283D01*
X97730332Y-66983162D01*
X97853582Y-67280713D01*
X98032513Y-67548502D01*
X98260248Y-67776237D01*
X98528037Y-67955168D01*
X98825588Y-68078418D01*
X98902667Y-68093750D01*
X98825588Y-68109082D01*
X98528037Y-68232332D01*
X98260248Y-68411263D01*
X98032513Y-68638998D01*
X97853582Y-68906787D01*
X97730332Y-69204338D01*
X97667500Y-69520217D01*
X97667500Y-69842283D01*
X97730332Y-70158162D01*
X97736323Y-70172626D01*
X97466497Y-70442452D01*
X97437499Y-70466250D01*
X97413701Y-70495248D01*
X97413700Y-70495249D01*
X97342525Y-70581975D01*
X97271953Y-70714005D01*
X97264924Y-70737178D01*
X97228497Y-70857265D01*
X97218579Y-70957961D01*
X97213823Y-71006251D01*
X97217500Y-71043583D01*
X97217499Y-79999625D01*
X97139398Y-79967274D01*
X96939439Y-79927500D01*
X96735561Y-79927500D01*
X96535602Y-79967274D01*
X96347244Y-80045295D01*
X96177726Y-80158563D01*
X96033563Y-80302726D01*
X95920295Y-80472244D01*
X95842274Y-80660602D01*
X95802500Y-80860561D01*
X94900000Y-80860561D01*
X94900000Y-63253174D01*
X94910551Y-63261833D01*
X95125099Y-63376511D01*
X95357898Y-63447130D01*
X95600000Y-63470975D01*
X95842101Y-63447130D01*
X96074900Y-63376511D01*
X96289448Y-63261833D01*
X96417188Y-63157000D01*
X98965000Y-63157000D01*
X98965000Y-63457000D01*
X99013507Y-63695496D01*
X99107610Y-63919946D01*
X99243693Y-64121725D01*
X99416526Y-64293078D01*
X99619467Y-64427421D01*
X99844718Y-64519591D01*
X99882391Y-64523462D01*
X100073000Y-64398731D01*
X100073000Y-63157000D01*
X100327000Y-63157000D01*
X100327000Y-64398731D01*
X100517609Y-64523462D01*
X100555282Y-64519591D01*
X100780533Y-64427421D01*
X100983474Y-64293078D01*
X101156307Y-64121725D01*
X101292390Y-63919946D01*
X101386493Y-63695496D01*
X101406310Y-63598059D01*
X105435000Y-63598059D01*
X105435000Y-63801937D01*
X105474774Y-64001896D01*
X105552795Y-64190254D01*
X105666063Y-64359772D01*
X105810226Y-64503935D01*
X105979744Y-64617203D01*
X106168102Y-64695224D01*
X106368061Y-64734998D01*
X106571939Y-64734998D01*
X106771898Y-64695224D01*
X106960256Y-64617203D01*
X107008454Y-64584998D01*
X107673420Y-64584998D01*
X108183465Y-65095044D01*
X108194774Y-65151898D01*
X108272795Y-65340256D01*
X108386063Y-65509774D01*
X108530226Y-65653937D01*
X108699744Y-65767205D01*
X108888102Y-65845226D01*
X109088061Y-65885000D01*
X109291939Y-65885000D01*
X109491898Y-65845226D01*
X109680256Y-65767205D01*
X109849774Y-65653937D01*
X109993937Y-65509774D01*
X110107205Y-65340256D01*
X110185226Y-65151898D01*
X110225000Y-64951939D01*
X110225000Y-64748061D01*
X110185226Y-64548102D01*
X110107205Y-64359744D01*
X109993937Y-64190226D01*
X109849774Y-64046063D01*
X109680256Y-63932795D01*
X109491898Y-63854774D01*
X109435044Y-63843465D01*
X108696532Y-63104954D01*
X108668815Y-63071181D01*
X108534057Y-62960587D01*
X108380311Y-62878409D01*
X108213488Y-62827803D01*
X108083475Y-62814998D01*
X108083467Y-62814998D01*
X108039998Y-62810717D01*
X107996529Y-62814998D01*
X107008454Y-62814998D01*
X106960256Y-62782793D01*
X106771898Y-62704772D01*
X106571939Y-62664998D01*
X106368061Y-62664998D01*
X106168102Y-62704772D01*
X105979744Y-62782793D01*
X105810226Y-62896061D01*
X105666063Y-63040224D01*
X105552795Y-63209742D01*
X105474774Y-63398100D01*
X105435000Y-63598059D01*
X101406310Y-63598059D01*
X101435000Y-63457000D01*
X101435000Y-63157000D01*
X100327000Y-63157000D01*
X100073000Y-63157000D01*
X98965000Y-63157000D01*
X96417188Y-63157000D01*
X96477502Y-63107502D01*
X96631833Y-62919449D01*
X96746511Y-62704901D01*
X96777422Y-62603000D01*
X98965000Y-62603000D01*
X98965000Y-62903000D01*
X100073000Y-62903000D01*
X100073000Y-61661269D01*
X100327000Y-61661269D01*
X100327000Y-62903000D01*
X101435000Y-62903000D01*
X101435000Y-62603000D01*
X101386493Y-62364504D01*
X101292390Y-62140054D01*
X101156307Y-61938275D01*
X100983474Y-61766922D01*
X100780533Y-61632579D01*
X100555282Y-61540409D01*
X100517609Y-61536538D01*
X100327000Y-61661269D01*
X100073000Y-61661269D01*
X99882391Y-61536538D01*
X99844718Y-61540409D01*
X99619467Y-61632579D01*
X99416526Y-61766922D01*
X99243693Y-61938275D01*
X99107610Y-62140054D01*
X99013507Y-62364504D01*
X98965000Y-62603000D01*
X96777422Y-62603000D01*
X96817130Y-62472102D01*
X96835000Y-62290665D01*
X96835000Y-61569336D01*
X96817130Y-61387899D01*
X96746511Y-61155099D01*
X96631833Y-60940551D01*
X96477502Y-60752498D01*
X96289449Y-60598167D01*
X96074901Y-60483489D01*
X95842102Y-60412870D01*
X95600000Y-60389025D01*
X95357899Y-60412870D01*
X95125100Y-60483489D01*
X94910552Y-60598167D01*
X94900000Y-60606827D01*
X94900000Y-60193589D01*
X96515000Y-60193589D01*
X96515000Y-60466411D01*
X96568225Y-60733989D01*
X96672629Y-60986043D01*
X96824201Y-61212886D01*
X97017114Y-61405799D01*
X97243957Y-61557371D01*
X97496011Y-61661775D01*
X97763589Y-61715000D01*
X98036411Y-61715000D01*
X98303989Y-61661775D01*
X98556043Y-61557371D01*
X98782886Y-61405799D01*
X98975799Y-61212886D01*
X99127371Y-60986043D01*
X99231775Y-60733989D01*
X99285000Y-60466411D01*
X99285000Y-60193589D01*
X99231775Y-59926011D01*
X99127371Y-59673957D01*
X98975799Y-59447114D01*
X98782886Y-59254201D01*
X98556043Y-59102629D01*
X98303989Y-58998225D01*
X98036411Y-58945000D01*
X97763589Y-58945000D01*
X97496011Y-58998225D01*
X97243957Y-59102629D01*
X97017114Y-59254201D01*
X96824201Y-59447114D01*
X96672629Y-59673957D01*
X96568225Y-59926011D01*
X96515000Y-60193589D01*
X94900000Y-60193589D01*
X94900000Y-59253174D01*
X94910551Y-59261833D01*
X95125099Y-59376511D01*
X95357898Y-59447130D01*
X95600000Y-59470975D01*
X95842101Y-59447130D01*
X96074900Y-59376511D01*
X96289448Y-59261833D01*
X96477502Y-59107502D01*
X96631833Y-58919449D01*
X96687662Y-58815000D01*
X99333422Y-58815000D01*
X101023471Y-60505050D01*
X101051184Y-60538818D01*
X101084952Y-60566531D01*
X101084954Y-60566533D01*
X101123500Y-60598167D01*
X101185942Y-60649412D01*
X101339688Y-60731590D01*
X101506511Y-60782196D01*
X101636524Y-60795001D01*
X101636534Y-60795001D01*
X101680000Y-60799282D01*
X101723466Y-60795001D01*
X103080618Y-60795001D01*
X103082795Y-60800256D01*
X103196063Y-60969774D01*
X103340226Y-61113937D01*
X103509744Y-61227205D01*
X103698102Y-61305226D01*
X103898061Y-61345000D01*
X104101939Y-61345000D01*
X104301898Y-61305226D01*
X104490256Y-61227205D01*
X104538454Y-61195000D01*
X105625762Y-61195000D01*
X105642313Y-61219770D01*
X105786476Y-61363933D01*
X105955994Y-61477201D01*
X106144352Y-61555222D01*
X106344311Y-61594996D01*
X106548189Y-61594996D01*
X106748148Y-61555222D01*
X106936506Y-61477201D01*
X107106024Y-61363933D01*
X107250187Y-61219770D01*
X107266738Y-61195000D01*
X108371546Y-61195000D01*
X108419744Y-61227205D01*
X108608102Y-61305226D01*
X108808061Y-61345000D01*
X109011939Y-61345000D01*
X109211898Y-61305226D01*
X109400256Y-61227205D01*
X109569774Y-61113937D01*
X109713937Y-60969774D01*
X109827205Y-60800256D01*
X109905226Y-60611898D01*
X109945000Y-60411939D01*
X109945000Y-60208061D01*
X109905226Y-60008102D01*
X109827205Y-59819744D01*
X109713937Y-59650226D01*
X109569774Y-59506063D01*
X109400256Y-59392795D01*
X109211898Y-59314774D01*
X109011939Y-59275000D01*
X108808061Y-59275000D01*
X108608102Y-59314774D01*
X108419744Y-59392795D01*
X108371546Y-59425000D01*
X104538454Y-59425000D01*
X104490256Y-59392795D01*
X104301898Y-59314774D01*
X104247506Y-59303955D01*
X104228818Y-59281184D01*
X104094060Y-59170590D01*
X103940314Y-59088412D01*
X103773491Y-59037806D01*
X103643478Y-59025001D01*
X103643470Y-59025001D01*
X103600001Y-59020720D01*
X103556532Y-59025001D01*
X102046580Y-59025001D01*
X100356534Y-57334956D01*
X100328817Y-57301183D01*
X100194059Y-57190589D01*
X100040313Y-57108411D01*
X99873490Y-57057805D01*
X99743477Y-57045000D01*
X99743469Y-57045000D01*
X99700000Y-57040719D01*
X99656531Y-57045000D01*
X96687662Y-57045000D01*
X96631833Y-56940551D01*
X96477502Y-56752498D01*
X96467757Y-56744500D01*
X100991250Y-56744500D01*
X100991250Y-57294500D01*
X101037835Y-57513487D01*
X101126247Y-57719178D01*
X101253089Y-57903669D01*
X101413486Y-58059869D01*
X101601274Y-58181776D01*
X101824376Y-58261619D01*
X101999250Y-58135454D01*
X101999250Y-56744500D01*
X100991250Y-56744500D01*
X96467757Y-56744500D01*
X96289449Y-56598167D01*
X96074901Y-56483489D01*
X95898571Y-56430000D01*
X96074900Y-56376511D01*
X96289448Y-56261833D01*
X96477502Y-56107502D01*
X96614556Y-55940500D01*
X100991250Y-55940500D01*
X100991250Y-56490500D01*
X101999250Y-56490500D01*
X101999250Y-55099546D01*
X102253250Y-55099546D01*
X102253250Y-56490500D01*
X102273250Y-56490500D01*
X102273250Y-56744500D01*
X102253250Y-56744500D01*
X102253250Y-58135454D01*
X102428124Y-58261619D01*
X102651226Y-58181776D01*
X102839014Y-58059869D01*
X102999411Y-57903669D01*
X103126253Y-57719178D01*
X103214665Y-57513487D01*
X103261250Y-57294500D01*
X103261250Y-57004404D01*
X103276228Y-57010608D01*
X103461698Y-57047500D01*
X103650802Y-57047500D01*
X103836272Y-57010608D01*
X104010981Y-56938241D01*
X104168214Y-56833181D01*
X104301931Y-56699464D01*
X104406991Y-56542231D01*
X104479358Y-56367522D01*
X104516250Y-56182052D01*
X104516250Y-55992948D01*
X108376250Y-55992948D01*
X108376250Y-56182052D01*
X108413142Y-56367522D01*
X108485509Y-56542231D01*
X108590569Y-56699464D01*
X108724286Y-56833181D01*
X108881519Y-56938241D01*
X109056228Y-57010608D01*
X109241698Y-57047500D01*
X109430802Y-57047500D01*
X109616272Y-57010608D01*
X109631250Y-57004404D01*
X109631250Y-57294500D01*
X109677835Y-57513487D01*
X109766247Y-57719178D01*
X109893089Y-57903669D01*
X110053486Y-58059869D01*
X110241274Y-58181776D01*
X110464376Y-58261619D01*
X110639250Y-58135454D01*
X110639250Y-56744500D01*
X110619250Y-56744500D01*
X110619250Y-56490500D01*
X110639250Y-56490500D01*
X110639250Y-55099546D01*
X110464376Y-54973381D01*
X110241274Y-55053224D01*
X110053486Y-55175131D01*
X109909134Y-55315706D01*
X109790981Y-55236759D01*
X109616272Y-55164392D01*
X109430802Y-55127500D01*
X109241698Y-55127500D01*
X109056228Y-55164392D01*
X108881519Y-55236759D01*
X108724286Y-55341819D01*
X108590569Y-55475536D01*
X108485509Y-55632769D01*
X108413142Y-55807478D01*
X108376250Y-55992948D01*
X104516250Y-55992948D01*
X104479358Y-55807478D01*
X104406991Y-55632769D01*
X104301931Y-55475536D01*
X104168214Y-55341819D01*
X104010981Y-55236759D01*
X103836272Y-55164392D01*
X103650802Y-55127500D01*
X103461698Y-55127500D01*
X103276228Y-55164392D01*
X103101519Y-55236759D01*
X102983366Y-55315706D01*
X102839014Y-55175131D01*
X102651226Y-55053224D01*
X102428124Y-54973381D01*
X102253250Y-55099546D01*
X101999250Y-55099546D01*
X101824376Y-54973381D01*
X101601274Y-55053224D01*
X101413486Y-55175131D01*
X101253089Y-55331331D01*
X101126247Y-55515822D01*
X101037835Y-55721513D01*
X100991250Y-55940500D01*
X96614556Y-55940500D01*
X96631833Y-55919449D01*
X96746511Y-55704901D01*
X96817130Y-55472102D01*
X96835000Y-55290665D01*
X96835000Y-54569336D01*
X96817130Y-54387899D01*
X96746511Y-54155099D01*
X96631833Y-53940551D01*
X96477502Y-53752498D01*
X96289449Y-53598167D01*
X96074901Y-53483489D01*
X95842102Y-53412870D01*
X95600000Y-53389025D01*
X95357899Y-53412870D01*
X95125100Y-53483489D01*
X94910552Y-53598167D01*
X94900000Y-53606827D01*
X94900000Y-53344779D01*
X94926482Y-53074693D01*
X94995546Y-52845943D01*
X95107724Y-52634965D01*
X95258747Y-52449793D01*
X95442861Y-52297481D01*
X95653050Y-52183831D01*
X95881314Y-52113171D01*
X96149346Y-52085000D01*
X97286517Y-52085000D01*
X97243957Y-52102629D01*
X97243957Y-52102629D01*
G37*
X97243957Y-52102629D02*
X97017114Y-52254201D01*
X96824201Y-52447114D01*
X96672629Y-52673957D01*
X96568225Y-52926011D01*
X96515000Y-53193589D01*
X96515000Y-53466411D01*
X96568225Y-53733989D01*
X96672629Y-53986043D01*
X96824201Y-54212886D01*
X97017114Y-54405799D01*
X97243957Y-54557371D01*
X97496011Y-54661775D01*
X97763589Y-54715000D01*
X98036411Y-54715000D01*
X98303989Y-54661775D01*
X98556043Y-54557371D01*
X98782886Y-54405799D01*
X98975799Y-54212886D01*
X99127371Y-53986043D01*
X99231775Y-53733989D01*
X99285000Y-53466411D01*
X99285000Y-53193589D01*
X99231775Y-52926011D01*
X99127371Y-52673957D01*
X99054235Y-52564500D01*
X100991250Y-52564500D01*
X100991250Y-52864500D01*
X101037835Y-53083487D01*
X101126247Y-53289178D01*
X101253089Y-53473669D01*
X101413486Y-53629869D01*
X101601274Y-53751776D01*
X101824376Y-53831619D01*
X101999250Y-53705454D01*
X101999250Y-52564500D01*
X102253250Y-52564500D01*
X102253250Y-53705454D01*
X102428124Y-53831619D01*
X102651226Y-53751776D01*
X102839014Y-53629869D01*
X102999411Y-53473669D01*
X103126253Y-53289178D01*
X103214665Y-53083487D01*
X103261250Y-52864500D01*
X103261250Y-52564500D01*
X109631250Y-52564500D01*
X109631250Y-52864500D01*
X109677835Y-53083487D01*
X109766247Y-53289178D01*
X109893089Y-53473669D01*
X110053486Y-53629869D01*
X110241274Y-53751776D01*
X110464376Y-53831619D01*
X110639250Y-53705454D01*
X110639250Y-52564500D01*
X109631250Y-52564500D01*
X103261250Y-52564500D01*
X102253250Y-52564500D01*
X101999250Y-52564500D01*
X100991250Y-52564500D01*
X99054235Y-52564500D01*
X98975799Y-52447114D01*
X98782886Y-52254201D01*
X98556043Y-52102629D01*
X98513483Y-52085000D01*
X100991250Y-52085000D01*
X100991250Y-52310500D01*
X101999250Y-52310500D01*
X101999250Y-52290500D01*
X102253250Y-52290500D01*
X102253250Y-52310500D01*
X103261250Y-52310500D01*
X103261250Y-52085000D01*
X109631250Y-52085000D01*
X109631250Y-52310500D01*
X110639250Y-52310500D01*
X110639250Y-52290500D01*
X110893250Y-52290500D01*
X110893250Y-52310500D01*
X110913250Y-52310500D01*
X110913250Y-52564500D01*
X110893250Y-52564500D01*
X110893250Y-53705454D01*
X111034464Y-53807334D01*
X110937217Y-54195563D01*
X110937216Y-54195568D01*
X110937216Y-54195569D01*
X110875862Y-54609185D01*
X110875692Y-54612646D01*
X110858091Y-54970922D01*
X110856261Y-54989497D01*
X110856261Y-55008161D01*
X110855344Y-55026826D01*
X110856261Y-55045492D01*
X110856260Y-70837611D01*
X110849378Y-70977701D01*
X110831536Y-71097981D01*
X110801990Y-71215936D01*
X110761024Y-71330428D01*
X110709036Y-71440348D01*
X110646519Y-71544652D01*
X110574086Y-71642316D01*
X110492426Y-71732413D01*
X110402323Y-71814077D01*
X110304662Y-71886509D01*
X110200362Y-71949023D01*
X110090439Y-72001013D01*
X109975949Y-72041979D01*
X109857993Y-72071525D01*
X109737711Y-72089367D01*
X109634955Y-72094415D01*
X109616259Y-72092574D01*
X109560349Y-72098081D01*
X109541679Y-72098998D01*
X109523188Y-72101741D01*
X109467274Y-72107248D01*
X109458202Y-72110000D01*
X104053711Y-72110000D01*
X104009774Y-72066063D01*
X103840256Y-71952795D01*
X103651898Y-71874774D01*
X103451939Y-71835000D01*
X103248061Y-71835000D01*
X103048102Y-71874774D01*
X102859744Y-71952795D01*
X102690226Y-72066063D01*
X102546063Y-72210226D01*
X102432795Y-72379744D01*
X102354774Y-72568102D01*
X102315000Y-72768061D01*
X102315000Y-72971939D01*
X102354774Y-73171898D01*
X102432795Y-73360256D01*
X102510307Y-73476261D01*
X102461024Y-73595239D01*
X102421250Y-73795198D01*
X102421250Y-73999076D01*
X102461024Y-74199035D01*
X102539045Y-74387393D01*
X102652313Y-74556911D01*
X102796476Y-74701074D01*
X102921250Y-74784445D01*
X102921250Y-74870292D01*
X102961024Y-75070251D01*
X103039045Y-75258609D01*
X103152313Y-75428127D01*
X103296476Y-75572290D01*
X103421250Y-75655661D01*
X103421250Y-75737367D01*
X103461024Y-75937326D01*
X103539045Y-76125684D01*
X103652313Y-76295202D01*
X103796476Y-76439365D01*
X103921250Y-76522736D01*
X103921250Y-76655107D01*
X103961024Y-76855066D01*
X104039045Y-77043424D01*
X104152313Y-77212942D01*
X104296476Y-77357105D01*
X104424810Y-77442855D01*
X104424810Y-77519069D01*
X104464584Y-77719028D01*
X104542605Y-77907386D01*
X104655873Y-78076904D01*
X104800036Y-78221067D01*
X104921250Y-78302059D01*
X104921250Y-78388277D01*
X104961024Y-78588236D01*
X105039045Y-78776594D01*
X105152313Y-78946112D01*
X105296476Y-79090275D01*
X105465994Y-79203543D01*
X105654352Y-79281564D01*
X105854311Y-79321338D01*
X106058189Y-79321338D01*
X106258148Y-79281564D01*
X106446506Y-79203543D01*
X106616024Y-79090275D01*
X106659961Y-79046338D01*
X109959951Y-79046338D01*
X109916063Y-79090226D01*
X109802795Y-79259744D01*
X109724774Y-79448102D01*
X109713465Y-79504956D01*
X108942451Y-80275971D01*
X108908684Y-80303683D01*
X108880971Y-80337451D01*
X108880968Y-80337454D01*
X108798090Y-80438441D01*
X108715912Y-80592187D01*
X108665305Y-80759010D01*
X108648219Y-80932500D01*
X108652501Y-80975979D01*
X108652500Y-82714671D01*
X106561201Y-84805971D01*
X106527434Y-84833683D01*
X106499721Y-84867451D01*
X106499718Y-84867454D01*
X106416840Y-84968441D01*
X106334662Y-85122187D01*
X106284055Y-85289010D01*
X106266969Y-85462500D01*
X106271251Y-85505979D01*
X106271250Y-91476980D01*
X100832318Y-91476980D01*
X100784120Y-91444775D01*
X100595762Y-91366754D01*
X100395803Y-91326980D01*
X100191925Y-91326980D01*
X99991966Y-91366754D01*
X99803608Y-91444775D01*
X99634090Y-91558043D01*
X99489927Y-91702206D01*
X99376659Y-91871724D01*
X99298638Y-92060082D01*
X99258864Y-92260041D01*
X99258864Y-92463919D01*
X99298638Y-92663878D01*
X99376659Y-92852236D01*
X99489927Y-93021754D01*
X99634090Y-93165917D01*
X99803608Y-93279185D01*
X99991966Y-93357206D01*
X100191925Y-93396980D01*
X100395803Y-93396980D01*
X100595762Y-93357206D01*
X100784120Y-93279185D01*
X100832318Y-93246980D01*
X106825801Y-93246980D01*
X106869270Y-93251261D01*
X106912739Y-93246980D01*
X106912747Y-93246980D01*
X107042760Y-93234175D01*
X107209583Y-93183569D01*
X107363329Y-93101391D01*
X107383118Y-93085150D01*
X107458148Y-93070226D01*
X107646506Y-92992205D01*
X107795205Y-92892848D01*
X107795205Y-98549993D01*
X107422198Y-98923000D01*
X94900000Y-98923000D01*
X94900000Y-80860561D01*
X95802500Y-80860561D01*
X95802500Y-81064439D01*
X95842274Y-81264398D01*
X95920295Y-81452756D01*
X95952500Y-81500954D01*
X95952501Y-87567794D01*
X95920295Y-87615994D01*
X95842274Y-87804352D01*
X95802500Y-88004311D01*
X95802500Y-88208189D01*
X95842274Y-88408148D01*
X95920295Y-88596506D01*
X96033563Y-88766024D01*
X96177726Y-88910187D01*
X96347244Y-89023455D01*
X96535602Y-89101476D01*
X96735561Y-89141250D01*
X96939439Y-89141250D01*
X97139398Y-89101476D01*
X97327756Y-89023455D01*
X97497274Y-88910187D01*
X97641437Y-88766024D01*
X97754705Y-88596506D01*
X97832726Y-88408148D01*
X97872500Y-88208189D01*
X97872500Y-88004311D01*
X97832726Y-87804352D01*
X97754705Y-87615994D01*
X97722500Y-87567796D01*
X97722500Y-82085547D01*
X97829744Y-82157205D01*
X98018102Y-82235226D01*
X98218061Y-82275000D01*
X98421939Y-82275000D01*
X98621898Y-82235226D01*
X98810256Y-82157205D01*
X98979774Y-82043937D01*
X99123937Y-81899774D01*
X99237205Y-81730256D01*
X99315226Y-81541898D01*
X99355000Y-81341939D01*
X99355000Y-81138061D01*
X99315226Y-80938102D01*
X99237205Y-80749744D01*
X99123937Y-80580226D01*
X99068987Y-80525276D01*
X99025546Y-80382068D01*
X99018639Y-80369146D01*
X98954974Y-80250039D01*
X98860001Y-80134314D01*
X98830997Y-80110511D01*
X98737499Y-80017013D01*
X98737499Y-74398377D01*
X99043608Y-74478634D01*
X99365095Y-74497968D01*
X99684175Y-74454211D01*
X99988588Y-74349045D01*
X100162544Y-74256064D01*
X100258308Y-73991663D01*
X99302500Y-73035855D01*
X99288358Y-73049998D01*
X99108753Y-72870393D01*
X99122895Y-72856250D01*
X99482105Y-72856250D01*
X100437913Y-73812058D01*
X100702314Y-73716294D01*
X100843204Y-73426679D01*
X100924884Y-73115142D01*
X100944218Y-72793655D01*
X100900461Y-72474575D01*
X100795295Y-72170162D01*
X100702314Y-71996206D01*
X100437913Y-71900442D01*
X99482105Y-72856250D01*
X99122895Y-72856250D01*
X99108753Y-72842108D01*
X99288358Y-72662503D01*
X99302500Y-72676645D01*
X100258308Y-71720837D01*
X100162544Y-71456436D01*
X99872929Y-71315546D01*
X99697847Y-71269642D01*
X99779412Y-71253418D01*
X100076963Y-71130168D01*
X100344752Y-70951237D01*
X100572487Y-70723502D01*
X100751418Y-70455713D01*
X100874668Y-70158162D01*
X100937500Y-69842283D01*
X100937500Y-69520217D01*
X100874668Y-69204338D01*
X100751418Y-68906787D01*
X100572487Y-68638998D01*
X100344752Y-68411263D01*
X100076963Y-68232332D01*
X99779412Y-68109082D01*
X99702333Y-68093750D01*
X99779412Y-68078418D01*
X100076963Y-67955168D01*
X100344752Y-67776237D01*
X100572487Y-67548502D01*
X100751418Y-67280713D01*
X100874668Y-66983162D01*
X100937500Y-66667283D01*
X100937500Y-66345217D01*
X100874668Y-66029338D01*
X100751418Y-65731787D01*
X100572487Y-65463998D01*
X100344752Y-65236263D01*
X100076963Y-65057332D01*
X99779412Y-64934082D01*
X99463533Y-64871250D01*
X99141467Y-64871250D01*
X98825588Y-64934082D01*
X98528037Y-65057332D01*
X98260248Y-65236263D01*
X98032513Y-65463998D01*
X97853582Y-65731787D01*
X97730332Y-66029338D01*
X97667500Y-66345217D01*
X97667500Y-66667283D01*
X97730332Y-66983162D01*
X97853582Y-67280713D01*
X98032513Y-67548502D01*
X98260248Y-67776237D01*
X98528037Y-67955168D01*
X98825588Y-68078418D01*
X98902667Y-68093750D01*
X98825588Y-68109082D01*
X98528037Y-68232332D01*
X98260248Y-68411263D01*
X98032513Y-68638998D01*
X97853582Y-68906787D01*
X97730332Y-69204338D01*
X97667500Y-69520217D01*
X97667500Y-69842283D01*
X97730332Y-70158162D01*
X97736323Y-70172626D01*
X97466497Y-70442452D01*
X97437499Y-70466250D01*
X97413701Y-70495248D01*
X97413700Y-70495249D01*
X97342525Y-70581975D01*
X97271953Y-70714005D01*
X97264924Y-70737178D01*
X97228497Y-70857265D01*
X97218579Y-70957961D01*
X97213823Y-71006251D01*
X97217500Y-71043583D01*
X97217499Y-79999625D01*
X97139398Y-79967274D01*
X96939439Y-79927500D01*
X96735561Y-79927500D01*
X96535602Y-79967274D01*
X96347244Y-80045295D01*
X96177726Y-80158563D01*
X96033563Y-80302726D01*
X95920295Y-80472244D01*
X95842274Y-80660602D01*
X95802500Y-80860561D01*
X94900000Y-80860561D01*
X94900000Y-63253174D01*
X94910551Y-63261833D01*
X95125099Y-63376511D01*
X95357898Y-63447130D01*
X95600000Y-63470975D01*
X95842101Y-63447130D01*
X96074900Y-63376511D01*
X96289448Y-63261833D01*
X96417188Y-63157000D01*
X98965000Y-63157000D01*
X98965000Y-63457000D01*
X99013507Y-63695496D01*
X99107610Y-63919946D01*
X99243693Y-64121725D01*
X99416526Y-64293078D01*
X99619467Y-64427421D01*
X99844718Y-64519591D01*
X99882391Y-64523462D01*
X100073000Y-64398731D01*
X100073000Y-63157000D01*
X100327000Y-63157000D01*
X100327000Y-64398731D01*
X100517609Y-64523462D01*
X100555282Y-64519591D01*
X100780533Y-64427421D01*
X100983474Y-64293078D01*
X101156307Y-64121725D01*
X101292390Y-63919946D01*
X101386493Y-63695496D01*
X101406310Y-63598059D01*
X105435000Y-63598059D01*
X105435000Y-63801937D01*
X105474774Y-64001896D01*
X105552795Y-64190254D01*
X105666063Y-64359772D01*
X105810226Y-64503935D01*
X105979744Y-64617203D01*
X106168102Y-64695224D01*
X106368061Y-64734998D01*
X106571939Y-64734998D01*
X106771898Y-64695224D01*
X106960256Y-64617203D01*
X107008454Y-64584998D01*
X107673420Y-64584998D01*
X108183465Y-65095044D01*
X108194774Y-65151898D01*
X108272795Y-65340256D01*
X108386063Y-65509774D01*
X108530226Y-65653937D01*
X108699744Y-65767205D01*
X108888102Y-65845226D01*
X109088061Y-65885000D01*
X109291939Y-65885000D01*
X109491898Y-65845226D01*
X109680256Y-65767205D01*
X109849774Y-65653937D01*
X109993937Y-65509774D01*
X110107205Y-65340256D01*
X110185226Y-65151898D01*
X110225000Y-64951939D01*
X110225000Y-64748061D01*
X110185226Y-64548102D01*
X110107205Y-64359744D01*
X109993937Y-64190226D01*
X109849774Y-64046063D01*
X109680256Y-63932795D01*
X109491898Y-63854774D01*
X109435044Y-63843465D01*
X108696532Y-63104954D01*
X108668815Y-63071181D01*
X108534057Y-62960587D01*
X108380311Y-62878409D01*
X108213488Y-62827803D01*
X108083475Y-62814998D01*
X108083467Y-62814998D01*
X108039998Y-62810717D01*
X107996529Y-62814998D01*
X107008454Y-62814998D01*
X106960256Y-62782793D01*
X106771898Y-62704772D01*
X106571939Y-62664998D01*
X106368061Y-62664998D01*
X106168102Y-62704772D01*
X105979744Y-62782793D01*
X105810226Y-62896061D01*
X105666063Y-63040224D01*
X105552795Y-63209742D01*
X105474774Y-63398100D01*
X105435000Y-63598059D01*
X101406310Y-63598059D01*
X101435000Y-63457000D01*
X101435000Y-63157000D01*
X100327000Y-63157000D01*
X100073000Y-63157000D01*
X98965000Y-63157000D01*
X96417188Y-63157000D01*
X96477502Y-63107502D01*
X96631833Y-62919449D01*
X96746511Y-62704901D01*
X96777422Y-62603000D01*
X98965000Y-62603000D01*
X98965000Y-62903000D01*
X100073000Y-62903000D01*
X100073000Y-61661269D01*
X100327000Y-61661269D01*
X100327000Y-62903000D01*
X101435000Y-62903000D01*
X101435000Y-62603000D01*
X101386493Y-62364504D01*
X101292390Y-62140054D01*
X101156307Y-61938275D01*
X100983474Y-61766922D01*
X100780533Y-61632579D01*
X100555282Y-61540409D01*
X100517609Y-61536538D01*
X100327000Y-61661269D01*
X100073000Y-61661269D01*
X99882391Y-61536538D01*
X99844718Y-61540409D01*
X99619467Y-61632579D01*
X99416526Y-61766922D01*
X99243693Y-61938275D01*
X99107610Y-62140054D01*
X99013507Y-62364504D01*
X98965000Y-62603000D01*
X96777422Y-62603000D01*
X96817130Y-62472102D01*
X96835000Y-62290665D01*
X96835000Y-61569336D01*
X96817130Y-61387899D01*
X96746511Y-61155099D01*
X96631833Y-60940551D01*
X96477502Y-60752498D01*
X96289449Y-60598167D01*
X96074901Y-60483489D01*
X95842102Y-60412870D01*
X95600000Y-60389025D01*
X95357899Y-60412870D01*
X95125100Y-60483489D01*
X94910552Y-60598167D01*
X94900000Y-60606827D01*
X94900000Y-60193589D01*
X96515000Y-60193589D01*
X96515000Y-60466411D01*
X96568225Y-60733989D01*
X96672629Y-60986043D01*
X96824201Y-61212886D01*
X97017114Y-61405799D01*
X97243957Y-61557371D01*
X97496011Y-61661775D01*
X97763589Y-61715000D01*
X98036411Y-61715000D01*
X98303989Y-61661775D01*
X98556043Y-61557371D01*
X98782886Y-61405799D01*
X98975799Y-61212886D01*
X99127371Y-60986043D01*
X99231775Y-60733989D01*
X99285000Y-60466411D01*
X99285000Y-60193589D01*
X99231775Y-59926011D01*
X99127371Y-59673957D01*
X98975799Y-59447114D01*
X98782886Y-59254201D01*
X98556043Y-59102629D01*
X98303989Y-58998225D01*
X98036411Y-58945000D01*
X97763589Y-58945000D01*
X97496011Y-58998225D01*
X97243957Y-59102629D01*
X97017114Y-59254201D01*
X96824201Y-59447114D01*
X96672629Y-59673957D01*
X96568225Y-59926011D01*
X96515000Y-60193589D01*
X94900000Y-60193589D01*
X94900000Y-59253174D01*
X94910551Y-59261833D01*
X95125099Y-59376511D01*
X95357898Y-59447130D01*
X95600000Y-59470975D01*
X95842101Y-59447130D01*
X96074900Y-59376511D01*
X96289448Y-59261833D01*
X96477502Y-59107502D01*
X96631833Y-58919449D01*
X96687662Y-58815000D01*
X99333422Y-58815000D01*
X101023471Y-60505050D01*
X101051184Y-60538818D01*
X101084952Y-60566531D01*
X101084954Y-60566533D01*
X101123500Y-60598167D01*
X101185942Y-60649412D01*
X101339688Y-60731590D01*
X101506511Y-60782196D01*
X101636524Y-60795001D01*
X101636534Y-60795001D01*
X101680000Y-60799282D01*
X101723466Y-60795001D01*
X103080618Y-60795001D01*
X103082795Y-60800256D01*
X103196063Y-60969774D01*
X103340226Y-61113937D01*
X103509744Y-61227205D01*
X103698102Y-61305226D01*
X103898061Y-61345000D01*
X104101939Y-61345000D01*
X104301898Y-61305226D01*
X104490256Y-61227205D01*
X104538454Y-61195000D01*
X105625762Y-61195000D01*
X105642313Y-61219770D01*
X105786476Y-61363933D01*
X105955994Y-61477201D01*
X106144352Y-61555222D01*
X106344311Y-61594996D01*
X106548189Y-61594996D01*
X106748148Y-61555222D01*
X106936506Y-61477201D01*
X107106024Y-61363933D01*
X107250187Y-61219770D01*
X107266738Y-61195000D01*
X108371546Y-61195000D01*
X108419744Y-61227205D01*
X108608102Y-61305226D01*
X108808061Y-61345000D01*
X109011939Y-61345000D01*
X109211898Y-61305226D01*
X109400256Y-61227205D01*
X109569774Y-61113937D01*
X109713937Y-60969774D01*
X109827205Y-60800256D01*
X109905226Y-60611898D01*
X109945000Y-60411939D01*
X109945000Y-60208061D01*
X109905226Y-60008102D01*
X109827205Y-59819744D01*
X109713937Y-59650226D01*
X109569774Y-59506063D01*
X109400256Y-59392795D01*
X109211898Y-59314774D01*
X109011939Y-59275000D01*
X108808061Y-59275000D01*
X108608102Y-59314774D01*
X108419744Y-59392795D01*
X108371546Y-59425000D01*
X104538454Y-59425000D01*
X104490256Y-59392795D01*
X104301898Y-59314774D01*
X104247506Y-59303955D01*
X104228818Y-59281184D01*
X104094060Y-59170590D01*
X103940314Y-59088412D01*
X103773491Y-59037806D01*
X103643478Y-59025001D01*
X103643470Y-59025001D01*
X103600001Y-59020720D01*
X103556532Y-59025001D01*
X102046580Y-59025001D01*
X100356534Y-57334956D01*
X100328817Y-57301183D01*
X100194059Y-57190589D01*
X100040313Y-57108411D01*
X99873490Y-57057805D01*
X99743477Y-57045000D01*
X99743469Y-57045000D01*
X99700000Y-57040719D01*
X99656531Y-57045000D01*
X96687662Y-57045000D01*
X96631833Y-56940551D01*
X96477502Y-56752498D01*
X96467757Y-56744500D01*
X100991250Y-56744500D01*
X100991250Y-57294500D01*
X101037835Y-57513487D01*
X101126247Y-57719178D01*
X101253089Y-57903669D01*
X101413486Y-58059869D01*
X101601274Y-58181776D01*
X101824376Y-58261619D01*
X101999250Y-58135454D01*
X101999250Y-56744500D01*
X100991250Y-56744500D01*
X96467757Y-56744500D01*
X96289449Y-56598167D01*
X96074901Y-56483489D01*
X95898571Y-56430000D01*
X96074900Y-56376511D01*
X96289448Y-56261833D01*
X96477502Y-56107502D01*
X96614556Y-55940500D01*
X100991250Y-55940500D01*
X100991250Y-56490500D01*
X101999250Y-56490500D01*
X101999250Y-55099546D01*
X102253250Y-55099546D01*
X102253250Y-56490500D01*
X102273250Y-56490500D01*
X102273250Y-56744500D01*
X102253250Y-56744500D01*
X102253250Y-58135454D01*
X102428124Y-58261619D01*
X102651226Y-58181776D01*
X102839014Y-58059869D01*
X102999411Y-57903669D01*
X103126253Y-57719178D01*
X103214665Y-57513487D01*
X103261250Y-57294500D01*
X103261250Y-57004404D01*
X103276228Y-57010608D01*
X103461698Y-57047500D01*
X103650802Y-57047500D01*
X103836272Y-57010608D01*
X104010981Y-56938241D01*
X104168214Y-56833181D01*
X104301931Y-56699464D01*
X104406991Y-56542231D01*
X104479358Y-56367522D01*
X104516250Y-56182052D01*
X104516250Y-55992948D01*
X108376250Y-55992948D01*
X108376250Y-56182052D01*
X108413142Y-56367522D01*
X108485509Y-56542231D01*
X108590569Y-56699464D01*
X108724286Y-56833181D01*
X108881519Y-56938241D01*
X109056228Y-57010608D01*
X109241698Y-57047500D01*
X109430802Y-57047500D01*
X109616272Y-57010608D01*
X109631250Y-57004404D01*
X109631250Y-57294500D01*
X109677835Y-57513487D01*
X109766247Y-57719178D01*
X109893089Y-57903669D01*
X110053486Y-58059869D01*
X110241274Y-58181776D01*
X110464376Y-58261619D01*
X110639250Y-58135454D01*
X110639250Y-56744500D01*
X110619250Y-56744500D01*
X110619250Y-56490500D01*
X110639250Y-56490500D01*
X110639250Y-55099546D01*
X110464376Y-54973381D01*
X110241274Y-55053224D01*
X110053486Y-55175131D01*
X109909134Y-55315706D01*
X109790981Y-55236759D01*
X109616272Y-55164392D01*
X109430802Y-55127500D01*
X109241698Y-55127500D01*
X109056228Y-55164392D01*
X108881519Y-55236759D01*
X108724286Y-55341819D01*
X108590569Y-55475536D01*
X108485509Y-55632769D01*
X108413142Y-55807478D01*
X108376250Y-55992948D01*
X104516250Y-55992948D01*
X104479358Y-55807478D01*
X104406991Y-55632769D01*
X104301931Y-55475536D01*
X104168214Y-55341819D01*
X104010981Y-55236759D01*
X103836272Y-55164392D01*
X103650802Y-55127500D01*
X103461698Y-55127500D01*
X103276228Y-55164392D01*
X103101519Y-55236759D01*
X102983366Y-55315706D01*
X102839014Y-55175131D01*
X102651226Y-55053224D01*
X102428124Y-54973381D01*
X102253250Y-55099546D01*
X101999250Y-55099546D01*
X101824376Y-54973381D01*
X101601274Y-55053224D01*
X101413486Y-55175131D01*
X101253089Y-55331331D01*
X101126247Y-55515822D01*
X101037835Y-55721513D01*
X100991250Y-55940500D01*
X96614556Y-55940500D01*
X96631833Y-55919449D01*
X96746511Y-55704901D01*
X96817130Y-55472102D01*
X96835000Y-55290665D01*
X96835000Y-54569336D01*
X96817130Y-54387899D01*
X96746511Y-54155099D01*
X96631833Y-53940551D01*
X96477502Y-53752498D01*
X96289449Y-53598167D01*
X96074901Y-53483489D01*
X95842102Y-53412870D01*
X95600000Y-53389025D01*
X95357899Y-53412870D01*
X95125100Y-53483489D01*
X94910552Y-53598167D01*
X94900000Y-53606827D01*
X94900000Y-53344779D01*
X94926482Y-53074693D01*
X94995546Y-52845943D01*
X95107724Y-52634965D01*
X95258747Y-52449793D01*
X95442861Y-52297481D01*
X95653050Y-52183831D01*
X95881314Y-52113171D01*
X96149346Y-52085000D01*
X97286517Y-52085000D01*
X97243957Y-52102629D01*
M02*
