G04 #@! TF.GenerationSoftware,KiCad,Pcbnew,(5.1.4-0)*
G04 #@! TF.CreationDate,2020-11-23T17:49:07+01:00*
G04 #@! TF.ProjectId,stm32split,73746d33-3273-4706-9c69-742e6b696361,rev?*
G04 #@! TF.SameCoordinates,Original*
G04 #@! TF.FileFunction,Legend,Top*
G04 #@! TF.FilePolarity,Positive*
%FSLAX46Y46*%
G04 Gerber Fmt 4.6, Leading zero omitted, Abs format (unit mm)*
G04 Created by KiCad (PCBNEW (5.1.4-0)) date 2020-11-23 17:49:07*
%MOMM*%
%LPD*%
G04 APERTURE LIST*
%ADD10C,0.120000*%
%ADD11C,0.150000*%
G04 APERTURE END LIST*
D10*
X105540000Y-93940000D02*
X99790000Y-93940000D01*
X105540000Y-97540000D02*
X105540000Y-93940000D01*
X99790000Y-97540000D02*
X105540000Y-97540000D01*
X107412779Y-76250000D02*
X107087221Y-76250000D01*
X107412779Y-77270000D02*
X107087221Y-77270000D01*
X104494721Y-93540000D02*
X104820279Y-93540000D01*
X104494721Y-92520000D02*
X104820279Y-92520000D01*
X104487221Y-92007500D02*
X104812779Y-92007500D01*
X104487221Y-90987500D02*
X104812779Y-90987500D01*
X99510000Y-91970279D02*
X99510000Y-91644721D01*
X98490000Y-91970279D02*
X98490000Y-91644721D01*
X97540279Y-79030000D02*
X97214721Y-79030000D01*
X97540279Y-80050000D02*
X97214721Y-80050000D01*
X109120279Y-81090000D02*
X108794721Y-81090000D01*
X109120279Y-82110000D02*
X108794721Y-82110000D01*
X96519721Y-90030000D02*
X96845279Y-90030000D01*
X96519721Y-89010000D02*
X96845279Y-89010000D01*
X99809721Y-76500000D02*
X100135279Y-76500000D01*
X99809721Y-75480000D02*
X100135279Y-75480000D01*
X102939721Y-63060000D02*
X103265279Y-63060000D01*
X102939721Y-62040000D02*
X103265279Y-62040000D01*
X109952779Y-62047500D02*
X109627221Y-62047500D01*
X109952779Y-63067500D02*
X109627221Y-63067500D01*
X111370000Y-68789564D02*
X111370000Y-67585436D01*
X109550000Y-68789564D02*
X109550000Y-67585436D01*
X96445279Y-85800000D02*
X96119721Y-85800000D01*
X96445279Y-86820000D02*
X96119721Y-86820000D01*
X107084721Y-75700000D02*
X107410279Y-75700000D01*
X107084721Y-74680000D02*
X107410279Y-74680000D01*
X107710000Y-69330279D02*
X107710000Y-69004721D01*
X106690000Y-69330279D02*
X106690000Y-69004721D01*
X105890000Y-96354721D02*
X105890000Y-96680279D01*
X106910000Y-96354721D02*
X106910000Y-96680279D01*
X98060000Y-96367221D02*
X98060000Y-96692779D01*
X99080000Y-96367221D02*
X99080000Y-96692779D01*
X108880000Y-92009721D02*
X108880000Y-92335279D01*
X109900000Y-92009721D02*
X109900000Y-92335279D01*
X106652500Y-131725000D02*
X106652500Y-135625000D01*
X104652500Y-131725000D02*
X104652500Y-135625000D01*
X106652500Y-131725000D02*
X104652500Y-131725000D01*
X109033750Y-131725000D02*
X109033750Y-135625000D01*
X107033750Y-131725000D02*
X107033750Y-135625000D01*
X109033750Y-131725000D02*
X107033750Y-131725000D01*
X111415000Y-131725000D02*
X111415000Y-135625000D01*
X109415000Y-131725000D02*
X109415000Y-135625000D01*
X111415000Y-131725000D02*
X109415000Y-131725000D01*
X97127500Y-123787500D02*
X97127500Y-127687500D01*
X95127500Y-123787500D02*
X95127500Y-127687500D01*
X97127500Y-123787500D02*
X95127500Y-123787500D01*
X99508750Y-123787500D02*
X99508750Y-127687500D01*
X97508750Y-123787500D02*
X97508750Y-127687500D01*
X99508750Y-123787500D02*
X97508750Y-123787500D01*
X101890000Y-123787500D02*
X101890000Y-127687500D01*
X99890000Y-123787500D02*
X99890000Y-127687500D01*
X101890000Y-123787500D02*
X99890000Y-123787500D01*
X104271250Y-123787500D02*
X104271250Y-127687500D01*
X102271250Y-123787500D02*
X102271250Y-127687500D01*
X104271250Y-123787500D02*
X102271250Y-123787500D01*
X106652500Y-123787500D02*
X106652500Y-127687500D01*
X104652500Y-123787500D02*
X104652500Y-127687500D01*
X106652500Y-123787500D02*
X104652500Y-123787500D01*
X109033750Y-123787500D02*
X109033750Y-127687500D01*
X107033750Y-123787500D02*
X107033750Y-127687500D01*
X109033750Y-123787500D02*
X107033750Y-123787500D01*
X111415000Y-123787500D02*
X111415000Y-127687500D01*
X109415000Y-123787500D02*
X109415000Y-127687500D01*
X111415000Y-123787500D02*
X109415000Y-123787500D01*
X97127500Y-115850000D02*
X97127500Y-119750000D01*
X95127500Y-115850000D02*
X95127500Y-119750000D01*
X97127500Y-115850000D02*
X95127500Y-115850000D01*
X99508750Y-115850000D02*
X99508750Y-119750000D01*
X97508750Y-115850000D02*
X97508750Y-119750000D01*
X99508750Y-115850000D02*
X97508750Y-115850000D01*
X101890000Y-115850000D02*
X101890000Y-119750000D01*
X99890000Y-115850000D02*
X99890000Y-119750000D01*
X101890000Y-115850000D02*
X99890000Y-115850000D01*
X104271250Y-115850000D02*
X104271250Y-119750000D01*
X102271250Y-115850000D02*
X102271250Y-119750000D01*
X104271250Y-115850000D02*
X102271250Y-115850000D01*
X106652500Y-115850000D02*
X106652500Y-119750000D01*
X104652500Y-115850000D02*
X104652500Y-119750000D01*
X106652500Y-115850000D02*
X104652500Y-115850000D01*
X109033750Y-115850000D02*
X109033750Y-119750000D01*
X107033750Y-115850000D02*
X107033750Y-119750000D01*
X109033750Y-115850000D02*
X107033750Y-115850000D01*
X111415000Y-115850000D02*
X111415000Y-119750000D01*
X109415000Y-115850000D02*
X109415000Y-119750000D01*
X111415000Y-115850000D02*
X109415000Y-115850000D01*
X97127500Y-107912500D02*
X97127500Y-111812500D01*
X95127500Y-107912500D02*
X95127500Y-111812500D01*
X97127500Y-107912500D02*
X95127500Y-107912500D01*
X99508750Y-107912500D02*
X99508750Y-111812500D01*
X97508750Y-107912500D02*
X97508750Y-111812500D01*
X99508750Y-107912500D02*
X97508750Y-107912500D01*
X101890000Y-107912500D02*
X101890000Y-111812500D01*
X99890000Y-107912500D02*
X99890000Y-111812500D01*
X101890000Y-107912500D02*
X99890000Y-107912500D01*
X104271250Y-107912500D02*
X104271250Y-111812500D01*
X102271250Y-107912500D02*
X102271250Y-111812500D01*
X104271250Y-107912500D02*
X102271250Y-107912500D01*
X106652500Y-107912500D02*
X106652500Y-111812500D01*
X104652500Y-107912500D02*
X104652500Y-111812500D01*
X106652500Y-107912500D02*
X104652500Y-107912500D01*
X109033750Y-107912500D02*
X109033750Y-111812500D01*
X107033750Y-107912500D02*
X107033750Y-111812500D01*
X109033750Y-107912500D02*
X107033750Y-107912500D01*
X111415000Y-107912500D02*
X111415000Y-111812500D01*
X109415000Y-107912500D02*
X109415000Y-111812500D01*
X111415000Y-107912500D02*
X109415000Y-107912500D01*
X97127500Y-99975000D02*
X97127500Y-103875000D01*
X95127500Y-99975000D02*
X95127500Y-103875000D01*
X97127500Y-99975000D02*
X95127500Y-99975000D01*
X99508750Y-99975000D02*
X99508750Y-103875000D01*
X97508750Y-99975000D02*
X97508750Y-103875000D01*
X99508750Y-99975000D02*
X97508750Y-99975000D01*
X101890000Y-99975000D02*
X101890000Y-103875000D01*
X99890000Y-99975000D02*
X99890000Y-103875000D01*
X101890000Y-99975000D02*
X99890000Y-99975000D01*
X104271250Y-99975000D02*
X104271250Y-103875000D01*
X102271250Y-99975000D02*
X102271250Y-103875000D01*
X104271250Y-99975000D02*
X102271250Y-99975000D01*
X106652500Y-99975000D02*
X106652500Y-103875000D01*
X104652500Y-99975000D02*
X104652500Y-103875000D01*
X106652500Y-99975000D02*
X104652500Y-99975000D01*
X109033750Y-99975000D02*
X109033750Y-103875000D01*
X107033750Y-99975000D02*
X107033750Y-103875000D01*
X109033750Y-99975000D02*
X107033750Y-99975000D01*
X111415000Y-99975000D02*
X111415000Y-103875000D01*
X109415000Y-99975000D02*
X109415000Y-103875000D01*
X111415000Y-99975000D02*
X109415000Y-99975000D01*
X108780000Y-71710000D02*
X108780000Y-73170000D01*
X105620000Y-71710000D02*
X105620000Y-73870000D01*
X105620000Y-71710000D02*
X106550000Y-71710000D01*
X108780000Y-71710000D02*
X107850000Y-71710000D01*
X99821250Y-89166250D02*
X99821250Y-90456250D01*
X99371250Y-89166250D02*
X99821250Y-89166250D01*
X99371250Y-88716250D02*
X99371250Y-89166250D01*
X99371250Y-81946250D02*
X99821250Y-81946250D01*
X99371250Y-82396250D02*
X99371250Y-81946250D01*
X106591250Y-89166250D02*
X106141250Y-89166250D01*
X106591250Y-88716250D02*
X106591250Y-89166250D01*
X106591250Y-81946250D02*
X106141250Y-81946250D01*
X106591250Y-82396250D02*
X106591250Y-81946250D01*
X104840000Y-62830000D02*
X104840000Y-65280000D01*
X108060000Y-64630000D02*
X108060000Y-62830000D01*
D11*
X102013809Y-98516190D02*
X102013809Y-98992380D01*
X101680476Y-97992380D02*
X102013809Y-98516190D01*
X102347142Y-97992380D01*
X103204285Y-98992380D02*
X102632857Y-98992380D01*
X102918571Y-98992380D02*
X102918571Y-97992380D01*
X102823333Y-98135238D01*
X102728095Y-98230476D01*
X102632857Y-98278095D01*
X104708154Y-59489880D02*
X104708154Y-60299404D01*
X104755773Y-60394642D01*
X104803392Y-60442261D01*
X104898630Y-60489880D01*
X105089107Y-60489880D01*
X105184345Y-60442261D01*
X105231964Y-60394642D01*
X105279583Y-60299404D01*
X105279583Y-59489880D01*
X105708154Y-60442261D02*
X105851011Y-60489880D01*
X106089107Y-60489880D01*
X106184345Y-60442261D01*
X106231964Y-60394642D01*
X106279583Y-60299404D01*
X106279583Y-60204166D01*
X106231964Y-60108928D01*
X106184345Y-60061309D01*
X106089107Y-60013690D01*
X105898630Y-59966071D01*
X105803392Y-59918452D01*
X105755773Y-59870833D01*
X105708154Y-59775595D01*
X105708154Y-59680357D01*
X105755773Y-59585119D01*
X105803392Y-59537500D01*
X105898630Y-59489880D01*
X106136726Y-59489880D01*
X106279583Y-59537500D01*
X107041488Y-59966071D02*
X107184345Y-60013690D01*
X107231964Y-60061309D01*
X107279583Y-60156547D01*
X107279583Y-60299404D01*
X107231964Y-60394642D01*
X107184345Y-60442261D01*
X107089107Y-60489880D01*
X106708154Y-60489880D01*
X106708154Y-59489880D01*
X107041488Y-59489880D01*
X107136726Y-59537500D01*
X107184345Y-59585119D01*
X107231964Y-59680357D01*
X107231964Y-59775595D01*
X107184345Y-59870833D01*
X107136726Y-59918452D01*
X107041488Y-59966071D01*
X106708154Y-59966071D01*
X108231964Y-60489880D02*
X107660535Y-60489880D01*
X107946250Y-60489880D02*
X107946250Y-59489880D01*
X107851011Y-59632738D01*
X107755773Y-59727976D01*
X107660535Y-59775595D01*
X106607142Y-78547142D02*
X106559523Y-78594761D01*
X106416666Y-78642380D01*
X106321428Y-78642380D01*
X106178571Y-78594761D01*
X106083333Y-78499523D01*
X106035714Y-78404285D01*
X105988095Y-78213809D01*
X105988095Y-78070952D01*
X106035714Y-77880476D01*
X106083333Y-77785238D01*
X106178571Y-77690000D01*
X106321428Y-77642380D01*
X106416666Y-77642380D01*
X106559523Y-77690000D01*
X106607142Y-77737619D01*
X107559523Y-78642380D02*
X106988095Y-78642380D01*
X107273809Y-78642380D02*
X107273809Y-77642380D01*
X107178571Y-77785238D01*
X107083333Y-77880476D01*
X106988095Y-77928095D01*
X107940476Y-77737619D02*
X107988095Y-77690000D01*
X108083333Y-77642380D01*
X108321428Y-77642380D01*
X108416666Y-77690000D01*
X108464285Y-77737619D01*
X108511904Y-77832857D01*
X108511904Y-77928095D01*
X108464285Y-78070952D01*
X107892857Y-78642380D01*
X108511904Y-78642380D01*
X104014642Y-91957142D02*
X103967023Y-92004761D01*
X103824166Y-92052380D01*
X103728928Y-92052380D01*
X103586071Y-92004761D01*
X103490833Y-91909523D01*
X103443214Y-91814285D01*
X103395595Y-91623809D01*
X103395595Y-91480952D01*
X103443214Y-91290476D01*
X103490833Y-91195238D01*
X103586071Y-91100000D01*
X103728928Y-91052380D01*
X103824166Y-91052380D01*
X103967023Y-91100000D01*
X104014642Y-91147619D01*
X104967023Y-92052380D02*
X104395595Y-92052380D01*
X104681309Y-92052380D02*
X104681309Y-91052380D01*
X104586071Y-91195238D01*
X104490833Y-91290476D01*
X104395595Y-91338095D01*
X105919404Y-92052380D02*
X105347976Y-92052380D01*
X105633690Y-92052380D02*
X105633690Y-91052380D01*
X105538452Y-91195238D01*
X105443214Y-91290476D01*
X105347976Y-91338095D01*
X104007142Y-90424642D02*
X103959523Y-90472261D01*
X103816666Y-90519880D01*
X103721428Y-90519880D01*
X103578571Y-90472261D01*
X103483333Y-90377023D01*
X103435714Y-90281785D01*
X103388095Y-90091309D01*
X103388095Y-89948452D01*
X103435714Y-89757976D01*
X103483333Y-89662738D01*
X103578571Y-89567500D01*
X103721428Y-89519880D01*
X103816666Y-89519880D01*
X103959523Y-89567500D01*
X104007142Y-89615119D01*
X104959523Y-90519880D02*
X104388095Y-90519880D01*
X104673809Y-90519880D02*
X104673809Y-89519880D01*
X104578571Y-89662738D01*
X104483333Y-89757976D01*
X104388095Y-89805595D01*
X105578571Y-89519880D02*
X105673809Y-89519880D01*
X105769047Y-89567500D01*
X105816666Y-89615119D01*
X105864285Y-89710357D01*
X105911904Y-89900833D01*
X105911904Y-90138928D01*
X105864285Y-90329404D01*
X105816666Y-90424642D01*
X105769047Y-90472261D01*
X105673809Y-90519880D01*
X105578571Y-90519880D01*
X105483333Y-90472261D01*
X105435714Y-90424642D01*
X105388095Y-90329404D01*
X105340476Y-90138928D01*
X105340476Y-89900833D01*
X105388095Y-89710357D01*
X105435714Y-89615119D01*
X105483333Y-89567500D01*
X105578571Y-89519880D01*
X97927142Y-91974166D02*
X97974761Y-92021785D01*
X98022380Y-92164642D01*
X98022380Y-92259880D01*
X97974761Y-92402738D01*
X97879523Y-92497976D01*
X97784285Y-92545595D01*
X97593809Y-92593214D01*
X97450952Y-92593214D01*
X97260476Y-92545595D01*
X97165238Y-92497976D01*
X97070000Y-92402738D01*
X97022380Y-92259880D01*
X97022380Y-92164642D01*
X97070000Y-92021785D01*
X97117619Y-91974166D01*
X98022380Y-91497976D02*
X98022380Y-91307500D01*
X97974761Y-91212261D01*
X97927142Y-91164642D01*
X97784285Y-91069404D01*
X97593809Y-91021785D01*
X97212857Y-91021785D01*
X97117619Y-91069404D01*
X97070000Y-91117023D01*
X97022380Y-91212261D01*
X97022380Y-91402738D01*
X97070000Y-91497976D01*
X97117619Y-91545595D01*
X97212857Y-91593214D01*
X97450952Y-91593214D01*
X97546190Y-91545595D01*
X97593809Y-91497976D01*
X97641428Y-91402738D01*
X97641428Y-91212261D01*
X97593809Y-91117023D01*
X97546190Y-91069404D01*
X97450952Y-91021785D01*
X97210833Y-81327142D02*
X97163214Y-81374761D01*
X97020357Y-81422380D01*
X96925119Y-81422380D01*
X96782261Y-81374761D01*
X96687023Y-81279523D01*
X96639404Y-81184285D01*
X96591785Y-80993809D01*
X96591785Y-80850952D01*
X96639404Y-80660476D01*
X96687023Y-80565238D01*
X96782261Y-80470000D01*
X96925119Y-80422380D01*
X97020357Y-80422380D01*
X97163214Y-80470000D01*
X97210833Y-80517619D01*
X97782261Y-80850952D02*
X97687023Y-80803333D01*
X97639404Y-80755714D01*
X97591785Y-80660476D01*
X97591785Y-80612857D01*
X97639404Y-80517619D01*
X97687023Y-80470000D01*
X97782261Y-80422380D01*
X97972738Y-80422380D01*
X98067976Y-80470000D01*
X98115595Y-80517619D01*
X98163214Y-80612857D01*
X98163214Y-80660476D01*
X98115595Y-80755714D01*
X98067976Y-80803333D01*
X97972738Y-80850952D01*
X97782261Y-80850952D01*
X97687023Y-80898571D01*
X97639404Y-80946190D01*
X97591785Y-81041428D01*
X97591785Y-81231904D01*
X97639404Y-81327142D01*
X97687023Y-81374761D01*
X97782261Y-81422380D01*
X97972738Y-81422380D01*
X98067976Y-81374761D01*
X98115595Y-81327142D01*
X98163214Y-81231904D01*
X98163214Y-81041428D01*
X98115595Y-80946190D01*
X98067976Y-80898571D01*
X97972738Y-80850952D01*
X108790833Y-83387142D02*
X108743214Y-83434761D01*
X108600357Y-83482380D01*
X108505119Y-83482380D01*
X108362261Y-83434761D01*
X108267023Y-83339523D01*
X108219404Y-83244285D01*
X108171785Y-83053809D01*
X108171785Y-82910952D01*
X108219404Y-82720476D01*
X108267023Y-82625238D01*
X108362261Y-82530000D01*
X108505119Y-82482380D01*
X108600357Y-82482380D01*
X108743214Y-82530000D01*
X108790833Y-82577619D01*
X109124166Y-82482380D02*
X109790833Y-82482380D01*
X109362261Y-83482380D01*
X96515833Y-88447142D02*
X96468214Y-88494761D01*
X96325357Y-88542380D01*
X96230119Y-88542380D01*
X96087261Y-88494761D01*
X95992023Y-88399523D01*
X95944404Y-88304285D01*
X95896785Y-88113809D01*
X95896785Y-87970952D01*
X95944404Y-87780476D01*
X95992023Y-87685238D01*
X96087261Y-87590000D01*
X96230119Y-87542380D01*
X96325357Y-87542380D01*
X96468214Y-87590000D01*
X96515833Y-87637619D01*
X97372976Y-87542380D02*
X97182500Y-87542380D01*
X97087261Y-87590000D01*
X97039642Y-87637619D01*
X96944404Y-87780476D01*
X96896785Y-87970952D01*
X96896785Y-88351904D01*
X96944404Y-88447142D01*
X96992023Y-88494761D01*
X97087261Y-88542380D01*
X97277738Y-88542380D01*
X97372976Y-88494761D01*
X97420595Y-88447142D01*
X97468214Y-88351904D01*
X97468214Y-88113809D01*
X97420595Y-88018571D01*
X97372976Y-87970952D01*
X97277738Y-87923333D01*
X97087261Y-87923333D01*
X96992023Y-87970952D01*
X96944404Y-88018571D01*
X96896785Y-88113809D01*
X99805833Y-75012380D02*
X99472500Y-74536190D01*
X99234404Y-75012380D02*
X99234404Y-74012380D01*
X99615357Y-74012380D01*
X99710595Y-74060000D01*
X99758214Y-74107619D01*
X99805833Y-74202857D01*
X99805833Y-74345714D01*
X99758214Y-74440952D01*
X99710595Y-74488571D01*
X99615357Y-74536190D01*
X99234404Y-74536190D01*
X100139166Y-74012380D02*
X100758214Y-74012380D01*
X100424880Y-74393333D01*
X100567738Y-74393333D01*
X100662976Y-74440952D01*
X100710595Y-74488571D01*
X100758214Y-74583809D01*
X100758214Y-74821904D01*
X100710595Y-74917142D01*
X100662976Y-74964761D01*
X100567738Y-75012380D01*
X100282023Y-75012380D01*
X100186785Y-74964761D01*
X100139166Y-74917142D01*
X102935833Y-61572380D02*
X102602500Y-61096190D01*
X102364404Y-61572380D02*
X102364404Y-60572380D01*
X102745357Y-60572380D01*
X102840595Y-60620000D01*
X102888214Y-60667619D01*
X102935833Y-60762857D01*
X102935833Y-60905714D01*
X102888214Y-61000952D01*
X102840595Y-61048571D01*
X102745357Y-61096190D01*
X102364404Y-61096190D01*
X103316785Y-60667619D02*
X103364404Y-60620000D01*
X103459642Y-60572380D01*
X103697738Y-60572380D01*
X103792976Y-60620000D01*
X103840595Y-60667619D01*
X103888214Y-60762857D01*
X103888214Y-60858095D01*
X103840595Y-61000952D01*
X103269166Y-61572380D01*
X103888214Y-61572380D01*
X109623333Y-64439880D02*
X109290000Y-63963690D01*
X109051904Y-64439880D02*
X109051904Y-63439880D01*
X109432857Y-63439880D01*
X109528095Y-63487500D01*
X109575714Y-63535119D01*
X109623333Y-63630357D01*
X109623333Y-63773214D01*
X109575714Y-63868452D01*
X109528095Y-63916071D01*
X109432857Y-63963690D01*
X109051904Y-63963690D01*
X110575714Y-64439880D02*
X110004285Y-64439880D01*
X110290000Y-64439880D02*
X110290000Y-63439880D01*
X110194761Y-63582738D01*
X110099523Y-63677976D01*
X110004285Y-63725595D01*
X108568571Y-68520833D02*
X108568571Y-68854166D01*
X109092380Y-68854166D02*
X108092380Y-68854166D01*
X108092380Y-68377976D01*
X109092380Y-67473214D02*
X109092380Y-68044642D01*
X109092380Y-67758928D02*
X108092380Y-67758928D01*
X108235238Y-67854166D01*
X108330476Y-67949404D01*
X108378095Y-68044642D01*
X96115833Y-88192380D02*
X95782500Y-87716190D01*
X95544404Y-88192380D02*
X95544404Y-87192380D01*
X95925357Y-87192380D01*
X96020595Y-87240000D01*
X96068214Y-87287619D01*
X96115833Y-87382857D01*
X96115833Y-87525714D01*
X96068214Y-87620952D01*
X96020595Y-87668571D01*
X95925357Y-87716190D01*
X95544404Y-87716190D01*
X96972976Y-87525714D02*
X96972976Y-88192380D01*
X96734880Y-87144761D02*
X96496785Y-87859047D01*
X97115833Y-87859047D01*
X106152261Y-74117142D02*
X106104642Y-74164761D01*
X105961785Y-74212380D01*
X105866547Y-74212380D01*
X105723690Y-74164761D01*
X105628452Y-74069523D01*
X105580833Y-73974285D01*
X105533214Y-73783809D01*
X105533214Y-73640952D01*
X105580833Y-73450476D01*
X105628452Y-73355238D01*
X105723690Y-73260000D01*
X105866547Y-73212380D01*
X105961785Y-73212380D01*
X106104642Y-73260000D01*
X106152261Y-73307619D01*
X106437976Y-73212380D02*
X106771309Y-74212380D01*
X107104642Y-73212380D01*
X108009404Y-74212380D02*
X107676071Y-73736190D01*
X107437976Y-74212380D02*
X107437976Y-73212380D01*
X107818928Y-73212380D01*
X107914166Y-73260000D01*
X107961785Y-73307619D01*
X108009404Y-73402857D01*
X108009404Y-73545714D01*
X107961785Y-73640952D01*
X107914166Y-73688571D01*
X107818928Y-73736190D01*
X107437976Y-73736190D01*
X108390357Y-73307619D02*
X108437976Y-73260000D01*
X108533214Y-73212380D01*
X108771309Y-73212380D01*
X108866547Y-73260000D01*
X108914166Y-73307619D01*
X108961785Y-73402857D01*
X108961785Y-73498095D01*
X108914166Y-73640952D01*
X108342738Y-74212380D01*
X108961785Y-74212380D01*
X106127142Y-70262738D02*
X106174761Y-70310357D01*
X106222380Y-70453214D01*
X106222380Y-70548452D01*
X106174761Y-70691309D01*
X106079523Y-70786547D01*
X105984285Y-70834166D01*
X105793809Y-70881785D01*
X105650952Y-70881785D01*
X105460476Y-70834166D01*
X105365238Y-70786547D01*
X105270000Y-70691309D01*
X105222380Y-70548452D01*
X105222380Y-70453214D01*
X105270000Y-70310357D01*
X105317619Y-70262738D01*
X105222380Y-69977023D02*
X106222380Y-69643690D01*
X105222380Y-69310357D01*
X106222380Y-68405595D02*
X105746190Y-68738928D01*
X106222380Y-68977023D02*
X105222380Y-68977023D01*
X105222380Y-68596071D01*
X105270000Y-68500833D01*
X105317619Y-68453214D01*
X105412857Y-68405595D01*
X105555714Y-68405595D01*
X105650952Y-68453214D01*
X105698571Y-68500833D01*
X105746190Y-68596071D01*
X105746190Y-68977023D01*
X106222380Y-67453214D02*
X106222380Y-68024642D01*
X106222380Y-67738928D02*
X105222380Y-67738928D01*
X105365238Y-67834166D01*
X105460476Y-67929404D01*
X105508095Y-68024642D01*
X108187142Y-96684166D02*
X108234761Y-96731785D01*
X108282380Y-96874642D01*
X108282380Y-96969880D01*
X108234761Y-97112738D01*
X108139523Y-97207976D01*
X108044285Y-97255595D01*
X107853809Y-97303214D01*
X107710952Y-97303214D01*
X107520476Y-97255595D01*
X107425238Y-97207976D01*
X107330000Y-97112738D01*
X107282380Y-96969880D01*
X107282380Y-96874642D01*
X107330000Y-96731785D01*
X107377619Y-96684166D01*
X107282380Y-95779404D02*
X107282380Y-96255595D01*
X107758571Y-96303214D01*
X107710952Y-96255595D01*
X107663333Y-96160357D01*
X107663333Y-95922261D01*
X107710952Y-95827023D01*
X107758571Y-95779404D01*
X107853809Y-95731785D01*
X108091904Y-95731785D01*
X108187142Y-95779404D01*
X108234761Y-95827023D01*
X108282380Y-95922261D01*
X108282380Y-96160357D01*
X108234761Y-96255595D01*
X108187142Y-96303214D01*
X100357142Y-96696666D02*
X100404761Y-96744285D01*
X100452380Y-96887142D01*
X100452380Y-96982380D01*
X100404761Y-97125238D01*
X100309523Y-97220476D01*
X100214285Y-97268095D01*
X100023809Y-97315714D01*
X99880952Y-97315714D01*
X99690476Y-97268095D01*
X99595238Y-97220476D01*
X99500000Y-97125238D01*
X99452380Y-96982380D01*
X99452380Y-96887142D01*
X99500000Y-96744285D01*
X99547619Y-96696666D01*
X99785714Y-95839523D02*
X100452380Y-95839523D01*
X99404761Y-96077619D02*
X100119047Y-96315714D01*
X100119047Y-95696666D01*
X111177142Y-92339166D02*
X111224761Y-92386785D01*
X111272380Y-92529642D01*
X111272380Y-92624880D01*
X111224761Y-92767738D01*
X111129523Y-92862976D01*
X111034285Y-92910595D01*
X110843809Y-92958214D01*
X110700952Y-92958214D01*
X110510476Y-92910595D01*
X110415238Y-92862976D01*
X110320000Y-92767738D01*
X110272380Y-92624880D01*
X110272380Y-92529642D01*
X110320000Y-92386785D01*
X110367619Y-92339166D01*
X110272380Y-92005833D02*
X110272380Y-91386785D01*
X110653333Y-91720119D01*
X110653333Y-91577261D01*
X110700952Y-91482023D01*
X110748571Y-91434404D01*
X110843809Y-91386785D01*
X111081904Y-91386785D01*
X111177142Y-91434404D01*
X111224761Y-91482023D01*
X111272380Y-91577261D01*
X111272380Y-91862976D01*
X111224761Y-91958214D01*
X111177142Y-92005833D01*
X108104880Y-135189285D02*
X107104880Y-135189285D01*
X107104880Y-134951190D01*
X107152500Y-134808333D01*
X107247738Y-134713095D01*
X107342976Y-134665476D01*
X107533452Y-134617857D01*
X107676309Y-134617857D01*
X107866785Y-134665476D01*
X107962023Y-134713095D01*
X108057261Y-134808333D01*
X108104880Y-134951190D01*
X108104880Y-135189285D01*
X107104880Y-134284523D02*
X107104880Y-133665476D01*
X107485833Y-133998809D01*
X107485833Y-133855952D01*
X107533452Y-133760714D01*
X107581071Y-133713095D01*
X107676309Y-133665476D01*
X107914404Y-133665476D01*
X108009642Y-133713095D01*
X108057261Y-133760714D01*
X108104880Y-133855952D01*
X108104880Y-134141666D01*
X108057261Y-134236904D01*
X108009642Y-134284523D01*
X108104880Y-132713095D02*
X108104880Y-133284523D01*
X108104880Y-132998809D02*
X107104880Y-132998809D01*
X107247738Y-133094047D01*
X107342976Y-133189285D01*
X107390595Y-133284523D01*
X110486130Y-135189285D02*
X109486130Y-135189285D01*
X109486130Y-134951190D01*
X109533750Y-134808333D01*
X109628988Y-134713095D01*
X109724226Y-134665476D01*
X109914702Y-134617857D01*
X110057559Y-134617857D01*
X110248035Y-134665476D01*
X110343273Y-134713095D01*
X110438511Y-134808333D01*
X110486130Y-134951190D01*
X110486130Y-135189285D01*
X109486130Y-134284523D02*
X109486130Y-133665476D01*
X109867083Y-133998809D01*
X109867083Y-133855952D01*
X109914702Y-133760714D01*
X109962321Y-133713095D01*
X110057559Y-133665476D01*
X110295654Y-133665476D01*
X110390892Y-133713095D01*
X110438511Y-133760714D01*
X110486130Y-133855952D01*
X110486130Y-134141666D01*
X110438511Y-134236904D01*
X110390892Y-134284523D01*
X109486130Y-133046428D02*
X109486130Y-132951190D01*
X109533750Y-132855952D01*
X109581369Y-132808333D01*
X109676607Y-132760714D01*
X109867083Y-132713095D01*
X110105178Y-132713095D01*
X110295654Y-132760714D01*
X110390892Y-132808333D01*
X110438511Y-132855952D01*
X110486130Y-132951190D01*
X110486130Y-133046428D01*
X110438511Y-133141666D01*
X110390892Y-133189285D01*
X110295654Y-133236904D01*
X110105178Y-133284523D01*
X109867083Y-133284523D01*
X109676607Y-133236904D01*
X109581369Y-133189285D01*
X109533750Y-133141666D01*
X109486130Y-133046428D01*
X112867380Y-135189285D02*
X111867380Y-135189285D01*
X111867380Y-134951190D01*
X111915000Y-134808333D01*
X112010238Y-134713095D01*
X112105476Y-134665476D01*
X112295952Y-134617857D01*
X112438809Y-134617857D01*
X112629285Y-134665476D01*
X112724523Y-134713095D01*
X112819761Y-134808333D01*
X112867380Y-134951190D01*
X112867380Y-135189285D01*
X111962619Y-134236904D02*
X111915000Y-134189285D01*
X111867380Y-134094047D01*
X111867380Y-133855952D01*
X111915000Y-133760714D01*
X111962619Y-133713095D01*
X112057857Y-133665476D01*
X112153095Y-133665476D01*
X112295952Y-133713095D01*
X112867380Y-134284523D01*
X112867380Y-133665476D01*
X112867380Y-133189285D02*
X112867380Y-132998809D01*
X112819761Y-132903571D01*
X112772142Y-132855952D01*
X112629285Y-132760714D01*
X112438809Y-132713095D01*
X112057857Y-132713095D01*
X111962619Y-132760714D01*
X111915000Y-132808333D01*
X111867380Y-132903571D01*
X111867380Y-133094047D01*
X111915000Y-133189285D01*
X111962619Y-133236904D01*
X112057857Y-133284523D01*
X112295952Y-133284523D01*
X112391190Y-133236904D01*
X112438809Y-133189285D01*
X112486428Y-133094047D01*
X112486428Y-132903571D01*
X112438809Y-132808333D01*
X112391190Y-132760714D01*
X112295952Y-132713095D01*
X98579880Y-127251785D02*
X97579880Y-127251785D01*
X97579880Y-127013690D01*
X97627500Y-126870833D01*
X97722738Y-126775595D01*
X97817976Y-126727976D01*
X98008452Y-126680357D01*
X98151309Y-126680357D01*
X98341785Y-126727976D01*
X98437023Y-126775595D01*
X98532261Y-126870833D01*
X98579880Y-127013690D01*
X98579880Y-127251785D01*
X97675119Y-126299404D02*
X97627500Y-126251785D01*
X97579880Y-126156547D01*
X97579880Y-125918452D01*
X97627500Y-125823214D01*
X97675119Y-125775595D01*
X97770357Y-125727976D01*
X97865595Y-125727976D01*
X98008452Y-125775595D01*
X98579880Y-126347023D01*
X98579880Y-125727976D01*
X98008452Y-125156547D02*
X97960833Y-125251785D01*
X97913214Y-125299404D01*
X97817976Y-125347023D01*
X97770357Y-125347023D01*
X97675119Y-125299404D01*
X97627500Y-125251785D01*
X97579880Y-125156547D01*
X97579880Y-124966071D01*
X97627500Y-124870833D01*
X97675119Y-124823214D01*
X97770357Y-124775595D01*
X97817976Y-124775595D01*
X97913214Y-124823214D01*
X97960833Y-124870833D01*
X98008452Y-124966071D01*
X98008452Y-125156547D01*
X98056071Y-125251785D01*
X98103690Y-125299404D01*
X98198928Y-125347023D01*
X98389404Y-125347023D01*
X98484642Y-125299404D01*
X98532261Y-125251785D01*
X98579880Y-125156547D01*
X98579880Y-124966071D01*
X98532261Y-124870833D01*
X98484642Y-124823214D01*
X98389404Y-124775595D01*
X98198928Y-124775595D01*
X98103690Y-124823214D01*
X98056071Y-124870833D01*
X98008452Y-124966071D01*
X100961130Y-127251785D02*
X99961130Y-127251785D01*
X99961130Y-127013690D01*
X100008750Y-126870833D01*
X100103988Y-126775595D01*
X100199226Y-126727976D01*
X100389702Y-126680357D01*
X100532559Y-126680357D01*
X100723035Y-126727976D01*
X100818273Y-126775595D01*
X100913511Y-126870833D01*
X100961130Y-127013690D01*
X100961130Y-127251785D01*
X100056369Y-126299404D02*
X100008750Y-126251785D01*
X99961130Y-126156547D01*
X99961130Y-125918452D01*
X100008750Y-125823214D01*
X100056369Y-125775595D01*
X100151607Y-125727976D01*
X100246845Y-125727976D01*
X100389702Y-125775595D01*
X100961130Y-126347023D01*
X100961130Y-125727976D01*
X99961130Y-125394642D02*
X99961130Y-124727976D01*
X100961130Y-125156547D01*
X103342380Y-127251785D02*
X102342380Y-127251785D01*
X102342380Y-127013690D01*
X102390000Y-126870833D01*
X102485238Y-126775595D01*
X102580476Y-126727976D01*
X102770952Y-126680357D01*
X102913809Y-126680357D01*
X103104285Y-126727976D01*
X103199523Y-126775595D01*
X103294761Y-126870833D01*
X103342380Y-127013690D01*
X103342380Y-127251785D01*
X102437619Y-126299404D02*
X102390000Y-126251785D01*
X102342380Y-126156547D01*
X102342380Y-125918452D01*
X102390000Y-125823214D01*
X102437619Y-125775595D01*
X102532857Y-125727976D01*
X102628095Y-125727976D01*
X102770952Y-125775595D01*
X103342380Y-126347023D01*
X103342380Y-125727976D01*
X102342380Y-124870833D02*
X102342380Y-125061309D01*
X102390000Y-125156547D01*
X102437619Y-125204166D01*
X102580476Y-125299404D01*
X102770952Y-125347023D01*
X103151904Y-125347023D01*
X103247142Y-125299404D01*
X103294761Y-125251785D01*
X103342380Y-125156547D01*
X103342380Y-124966071D01*
X103294761Y-124870833D01*
X103247142Y-124823214D01*
X103151904Y-124775595D01*
X102913809Y-124775595D01*
X102818571Y-124823214D01*
X102770952Y-124870833D01*
X102723333Y-124966071D01*
X102723333Y-125156547D01*
X102770952Y-125251785D01*
X102818571Y-125299404D01*
X102913809Y-125347023D01*
X105723630Y-127251785D02*
X104723630Y-127251785D01*
X104723630Y-127013690D01*
X104771250Y-126870833D01*
X104866488Y-126775595D01*
X104961726Y-126727976D01*
X105152202Y-126680357D01*
X105295059Y-126680357D01*
X105485535Y-126727976D01*
X105580773Y-126775595D01*
X105676011Y-126870833D01*
X105723630Y-127013690D01*
X105723630Y-127251785D01*
X104818869Y-126299404D02*
X104771250Y-126251785D01*
X104723630Y-126156547D01*
X104723630Y-125918452D01*
X104771250Y-125823214D01*
X104818869Y-125775595D01*
X104914107Y-125727976D01*
X105009345Y-125727976D01*
X105152202Y-125775595D01*
X105723630Y-126347023D01*
X105723630Y-125727976D01*
X104723630Y-124823214D02*
X104723630Y-125299404D01*
X105199821Y-125347023D01*
X105152202Y-125299404D01*
X105104583Y-125204166D01*
X105104583Y-124966071D01*
X105152202Y-124870833D01*
X105199821Y-124823214D01*
X105295059Y-124775595D01*
X105533154Y-124775595D01*
X105628392Y-124823214D01*
X105676011Y-124870833D01*
X105723630Y-124966071D01*
X105723630Y-125204166D01*
X105676011Y-125299404D01*
X105628392Y-125347023D01*
X108104880Y-127251785D02*
X107104880Y-127251785D01*
X107104880Y-127013690D01*
X107152500Y-126870833D01*
X107247738Y-126775595D01*
X107342976Y-126727976D01*
X107533452Y-126680357D01*
X107676309Y-126680357D01*
X107866785Y-126727976D01*
X107962023Y-126775595D01*
X108057261Y-126870833D01*
X108104880Y-127013690D01*
X108104880Y-127251785D01*
X107200119Y-126299404D02*
X107152500Y-126251785D01*
X107104880Y-126156547D01*
X107104880Y-125918452D01*
X107152500Y-125823214D01*
X107200119Y-125775595D01*
X107295357Y-125727976D01*
X107390595Y-125727976D01*
X107533452Y-125775595D01*
X108104880Y-126347023D01*
X108104880Y-125727976D01*
X107438214Y-124870833D02*
X108104880Y-124870833D01*
X107057261Y-125108928D02*
X107771547Y-125347023D01*
X107771547Y-124727976D01*
X110486130Y-127251785D02*
X109486130Y-127251785D01*
X109486130Y-127013690D01*
X109533750Y-126870833D01*
X109628988Y-126775595D01*
X109724226Y-126727976D01*
X109914702Y-126680357D01*
X110057559Y-126680357D01*
X110248035Y-126727976D01*
X110343273Y-126775595D01*
X110438511Y-126870833D01*
X110486130Y-127013690D01*
X110486130Y-127251785D01*
X109581369Y-126299404D02*
X109533750Y-126251785D01*
X109486130Y-126156547D01*
X109486130Y-125918452D01*
X109533750Y-125823214D01*
X109581369Y-125775595D01*
X109676607Y-125727976D01*
X109771845Y-125727976D01*
X109914702Y-125775595D01*
X110486130Y-126347023D01*
X110486130Y-125727976D01*
X109486130Y-125394642D02*
X109486130Y-124775595D01*
X109867083Y-125108928D01*
X109867083Y-124966071D01*
X109914702Y-124870833D01*
X109962321Y-124823214D01*
X110057559Y-124775595D01*
X110295654Y-124775595D01*
X110390892Y-124823214D01*
X110438511Y-124870833D01*
X110486130Y-124966071D01*
X110486130Y-125251785D01*
X110438511Y-125347023D01*
X110390892Y-125394642D01*
X112867380Y-127251785D02*
X111867380Y-127251785D01*
X111867380Y-127013690D01*
X111915000Y-126870833D01*
X112010238Y-126775595D01*
X112105476Y-126727976D01*
X112295952Y-126680357D01*
X112438809Y-126680357D01*
X112629285Y-126727976D01*
X112724523Y-126775595D01*
X112819761Y-126870833D01*
X112867380Y-127013690D01*
X112867380Y-127251785D01*
X111962619Y-126299404D02*
X111915000Y-126251785D01*
X111867380Y-126156547D01*
X111867380Y-125918452D01*
X111915000Y-125823214D01*
X111962619Y-125775595D01*
X112057857Y-125727976D01*
X112153095Y-125727976D01*
X112295952Y-125775595D01*
X112867380Y-126347023D01*
X112867380Y-125727976D01*
X111962619Y-125347023D02*
X111915000Y-125299404D01*
X111867380Y-125204166D01*
X111867380Y-124966071D01*
X111915000Y-124870833D01*
X111962619Y-124823214D01*
X112057857Y-124775595D01*
X112153095Y-124775595D01*
X112295952Y-124823214D01*
X112867380Y-125394642D01*
X112867380Y-124775595D01*
X98579880Y-119314285D02*
X97579880Y-119314285D01*
X97579880Y-119076190D01*
X97627500Y-118933333D01*
X97722738Y-118838095D01*
X97817976Y-118790476D01*
X98008452Y-118742857D01*
X98151309Y-118742857D01*
X98341785Y-118790476D01*
X98437023Y-118838095D01*
X98532261Y-118933333D01*
X98579880Y-119076190D01*
X98579880Y-119314285D01*
X97675119Y-118361904D02*
X97627500Y-118314285D01*
X97579880Y-118219047D01*
X97579880Y-117980952D01*
X97627500Y-117885714D01*
X97675119Y-117838095D01*
X97770357Y-117790476D01*
X97865595Y-117790476D01*
X98008452Y-117838095D01*
X98579880Y-118409523D01*
X98579880Y-117790476D01*
X98579880Y-116838095D02*
X98579880Y-117409523D01*
X98579880Y-117123809D02*
X97579880Y-117123809D01*
X97722738Y-117219047D01*
X97817976Y-117314285D01*
X97865595Y-117409523D01*
X100961130Y-119314285D02*
X99961130Y-119314285D01*
X99961130Y-119076190D01*
X100008750Y-118933333D01*
X100103988Y-118838095D01*
X100199226Y-118790476D01*
X100389702Y-118742857D01*
X100532559Y-118742857D01*
X100723035Y-118790476D01*
X100818273Y-118838095D01*
X100913511Y-118933333D01*
X100961130Y-119076190D01*
X100961130Y-119314285D01*
X100056369Y-118361904D02*
X100008750Y-118314285D01*
X99961130Y-118219047D01*
X99961130Y-117980952D01*
X100008750Y-117885714D01*
X100056369Y-117838095D01*
X100151607Y-117790476D01*
X100246845Y-117790476D01*
X100389702Y-117838095D01*
X100961130Y-118409523D01*
X100961130Y-117790476D01*
X99961130Y-117171428D02*
X99961130Y-117076190D01*
X100008750Y-116980952D01*
X100056369Y-116933333D01*
X100151607Y-116885714D01*
X100342083Y-116838095D01*
X100580178Y-116838095D01*
X100770654Y-116885714D01*
X100865892Y-116933333D01*
X100913511Y-116980952D01*
X100961130Y-117076190D01*
X100961130Y-117171428D01*
X100913511Y-117266666D01*
X100865892Y-117314285D01*
X100770654Y-117361904D01*
X100580178Y-117409523D01*
X100342083Y-117409523D01*
X100151607Y-117361904D01*
X100056369Y-117314285D01*
X100008750Y-117266666D01*
X99961130Y-117171428D01*
X103342380Y-119314285D02*
X102342380Y-119314285D01*
X102342380Y-119076190D01*
X102390000Y-118933333D01*
X102485238Y-118838095D01*
X102580476Y-118790476D01*
X102770952Y-118742857D01*
X102913809Y-118742857D01*
X103104285Y-118790476D01*
X103199523Y-118838095D01*
X103294761Y-118933333D01*
X103342380Y-119076190D01*
X103342380Y-119314285D01*
X103342380Y-117790476D02*
X103342380Y-118361904D01*
X103342380Y-118076190D02*
X102342380Y-118076190D01*
X102485238Y-118171428D01*
X102580476Y-118266666D01*
X102628095Y-118361904D01*
X103342380Y-117314285D02*
X103342380Y-117123809D01*
X103294761Y-117028571D01*
X103247142Y-116980952D01*
X103104285Y-116885714D01*
X102913809Y-116838095D01*
X102532857Y-116838095D01*
X102437619Y-116885714D01*
X102390000Y-116933333D01*
X102342380Y-117028571D01*
X102342380Y-117219047D01*
X102390000Y-117314285D01*
X102437619Y-117361904D01*
X102532857Y-117409523D01*
X102770952Y-117409523D01*
X102866190Y-117361904D01*
X102913809Y-117314285D01*
X102961428Y-117219047D01*
X102961428Y-117028571D01*
X102913809Y-116933333D01*
X102866190Y-116885714D01*
X102770952Y-116838095D01*
X105723630Y-119314285D02*
X104723630Y-119314285D01*
X104723630Y-119076190D01*
X104771250Y-118933333D01*
X104866488Y-118838095D01*
X104961726Y-118790476D01*
X105152202Y-118742857D01*
X105295059Y-118742857D01*
X105485535Y-118790476D01*
X105580773Y-118838095D01*
X105676011Y-118933333D01*
X105723630Y-119076190D01*
X105723630Y-119314285D01*
X105723630Y-117790476D02*
X105723630Y-118361904D01*
X105723630Y-118076190D02*
X104723630Y-118076190D01*
X104866488Y-118171428D01*
X104961726Y-118266666D01*
X105009345Y-118361904D01*
X105152202Y-117219047D02*
X105104583Y-117314285D01*
X105056964Y-117361904D01*
X104961726Y-117409523D01*
X104914107Y-117409523D01*
X104818869Y-117361904D01*
X104771250Y-117314285D01*
X104723630Y-117219047D01*
X104723630Y-117028571D01*
X104771250Y-116933333D01*
X104818869Y-116885714D01*
X104914107Y-116838095D01*
X104961726Y-116838095D01*
X105056964Y-116885714D01*
X105104583Y-116933333D01*
X105152202Y-117028571D01*
X105152202Y-117219047D01*
X105199821Y-117314285D01*
X105247440Y-117361904D01*
X105342678Y-117409523D01*
X105533154Y-117409523D01*
X105628392Y-117361904D01*
X105676011Y-117314285D01*
X105723630Y-117219047D01*
X105723630Y-117028571D01*
X105676011Y-116933333D01*
X105628392Y-116885714D01*
X105533154Y-116838095D01*
X105342678Y-116838095D01*
X105247440Y-116885714D01*
X105199821Y-116933333D01*
X105152202Y-117028571D01*
X108104880Y-119314285D02*
X107104880Y-119314285D01*
X107104880Y-119076190D01*
X107152500Y-118933333D01*
X107247738Y-118838095D01*
X107342976Y-118790476D01*
X107533452Y-118742857D01*
X107676309Y-118742857D01*
X107866785Y-118790476D01*
X107962023Y-118838095D01*
X108057261Y-118933333D01*
X108104880Y-119076190D01*
X108104880Y-119314285D01*
X108104880Y-117790476D02*
X108104880Y-118361904D01*
X108104880Y-118076190D02*
X107104880Y-118076190D01*
X107247738Y-118171428D01*
X107342976Y-118266666D01*
X107390595Y-118361904D01*
X107104880Y-117457142D02*
X107104880Y-116790476D01*
X108104880Y-117219047D01*
X110486130Y-119314285D02*
X109486130Y-119314285D01*
X109486130Y-119076190D01*
X109533750Y-118933333D01*
X109628988Y-118838095D01*
X109724226Y-118790476D01*
X109914702Y-118742857D01*
X110057559Y-118742857D01*
X110248035Y-118790476D01*
X110343273Y-118838095D01*
X110438511Y-118933333D01*
X110486130Y-119076190D01*
X110486130Y-119314285D01*
X110486130Y-117790476D02*
X110486130Y-118361904D01*
X110486130Y-118076190D02*
X109486130Y-118076190D01*
X109628988Y-118171428D01*
X109724226Y-118266666D01*
X109771845Y-118361904D01*
X109486130Y-116933333D02*
X109486130Y-117123809D01*
X109533750Y-117219047D01*
X109581369Y-117266666D01*
X109724226Y-117361904D01*
X109914702Y-117409523D01*
X110295654Y-117409523D01*
X110390892Y-117361904D01*
X110438511Y-117314285D01*
X110486130Y-117219047D01*
X110486130Y-117028571D01*
X110438511Y-116933333D01*
X110390892Y-116885714D01*
X110295654Y-116838095D01*
X110057559Y-116838095D01*
X109962321Y-116885714D01*
X109914702Y-116933333D01*
X109867083Y-117028571D01*
X109867083Y-117219047D01*
X109914702Y-117314285D01*
X109962321Y-117361904D01*
X110057559Y-117409523D01*
X112867380Y-119314285D02*
X111867380Y-119314285D01*
X111867380Y-119076190D01*
X111915000Y-118933333D01*
X112010238Y-118838095D01*
X112105476Y-118790476D01*
X112295952Y-118742857D01*
X112438809Y-118742857D01*
X112629285Y-118790476D01*
X112724523Y-118838095D01*
X112819761Y-118933333D01*
X112867380Y-119076190D01*
X112867380Y-119314285D01*
X112867380Y-117790476D02*
X112867380Y-118361904D01*
X112867380Y-118076190D02*
X111867380Y-118076190D01*
X112010238Y-118171428D01*
X112105476Y-118266666D01*
X112153095Y-118361904D01*
X111867380Y-116885714D02*
X111867380Y-117361904D01*
X112343571Y-117409523D01*
X112295952Y-117361904D01*
X112248333Y-117266666D01*
X112248333Y-117028571D01*
X112295952Y-116933333D01*
X112343571Y-116885714D01*
X112438809Y-116838095D01*
X112676904Y-116838095D01*
X112772142Y-116885714D01*
X112819761Y-116933333D01*
X112867380Y-117028571D01*
X112867380Y-117266666D01*
X112819761Y-117361904D01*
X112772142Y-117409523D01*
X98579880Y-111376785D02*
X97579880Y-111376785D01*
X97579880Y-111138690D01*
X97627500Y-110995833D01*
X97722738Y-110900595D01*
X97817976Y-110852976D01*
X98008452Y-110805357D01*
X98151309Y-110805357D01*
X98341785Y-110852976D01*
X98437023Y-110900595D01*
X98532261Y-110995833D01*
X98579880Y-111138690D01*
X98579880Y-111376785D01*
X98579880Y-109852976D02*
X98579880Y-110424404D01*
X98579880Y-110138690D02*
X97579880Y-110138690D01*
X97722738Y-110233928D01*
X97817976Y-110329166D01*
X97865595Y-110424404D01*
X97913214Y-108995833D02*
X98579880Y-108995833D01*
X97532261Y-109233928D02*
X98246547Y-109472023D01*
X98246547Y-108852976D01*
X100961130Y-111376785D02*
X99961130Y-111376785D01*
X99961130Y-111138690D01*
X100008750Y-110995833D01*
X100103988Y-110900595D01*
X100199226Y-110852976D01*
X100389702Y-110805357D01*
X100532559Y-110805357D01*
X100723035Y-110852976D01*
X100818273Y-110900595D01*
X100913511Y-110995833D01*
X100961130Y-111138690D01*
X100961130Y-111376785D01*
X100961130Y-109852976D02*
X100961130Y-110424404D01*
X100961130Y-110138690D02*
X99961130Y-110138690D01*
X100103988Y-110233928D01*
X100199226Y-110329166D01*
X100246845Y-110424404D01*
X99961130Y-109519642D02*
X99961130Y-108900595D01*
X100342083Y-109233928D01*
X100342083Y-109091071D01*
X100389702Y-108995833D01*
X100437321Y-108948214D01*
X100532559Y-108900595D01*
X100770654Y-108900595D01*
X100865892Y-108948214D01*
X100913511Y-108995833D01*
X100961130Y-109091071D01*
X100961130Y-109376785D01*
X100913511Y-109472023D01*
X100865892Y-109519642D01*
X103342380Y-111376785D02*
X102342380Y-111376785D01*
X102342380Y-111138690D01*
X102390000Y-110995833D01*
X102485238Y-110900595D01*
X102580476Y-110852976D01*
X102770952Y-110805357D01*
X102913809Y-110805357D01*
X103104285Y-110852976D01*
X103199523Y-110900595D01*
X103294761Y-110995833D01*
X103342380Y-111138690D01*
X103342380Y-111376785D01*
X103342380Y-109852976D02*
X103342380Y-110424404D01*
X103342380Y-110138690D02*
X102342380Y-110138690D01*
X102485238Y-110233928D01*
X102580476Y-110329166D01*
X102628095Y-110424404D01*
X102437619Y-109472023D02*
X102390000Y-109424404D01*
X102342380Y-109329166D01*
X102342380Y-109091071D01*
X102390000Y-108995833D01*
X102437619Y-108948214D01*
X102532857Y-108900595D01*
X102628095Y-108900595D01*
X102770952Y-108948214D01*
X103342380Y-109519642D01*
X103342380Y-108900595D01*
X105723630Y-111376785D02*
X104723630Y-111376785D01*
X104723630Y-111138690D01*
X104771250Y-110995833D01*
X104866488Y-110900595D01*
X104961726Y-110852976D01*
X105152202Y-110805357D01*
X105295059Y-110805357D01*
X105485535Y-110852976D01*
X105580773Y-110900595D01*
X105676011Y-110995833D01*
X105723630Y-111138690D01*
X105723630Y-111376785D01*
X105723630Y-109852976D02*
X105723630Y-110424404D01*
X105723630Y-110138690D02*
X104723630Y-110138690D01*
X104866488Y-110233928D01*
X104961726Y-110329166D01*
X105009345Y-110424404D01*
X105723630Y-108900595D02*
X105723630Y-109472023D01*
X105723630Y-109186309D02*
X104723630Y-109186309D01*
X104866488Y-109281547D01*
X104961726Y-109376785D01*
X105009345Y-109472023D01*
X108104880Y-111376785D02*
X107104880Y-111376785D01*
X107104880Y-111138690D01*
X107152500Y-110995833D01*
X107247738Y-110900595D01*
X107342976Y-110852976D01*
X107533452Y-110805357D01*
X107676309Y-110805357D01*
X107866785Y-110852976D01*
X107962023Y-110900595D01*
X108057261Y-110995833D01*
X108104880Y-111138690D01*
X108104880Y-111376785D01*
X108104880Y-109852976D02*
X108104880Y-110424404D01*
X108104880Y-110138690D02*
X107104880Y-110138690D01*
X107247738Y-110233928D01*
X107342976Y-110329166D01*
X107390595Y-110424404D01*
X107104880Y-109233928D02*
X107104880Y-109138690D01*
X107152500Y-109043452D01*
X107200119Y-108995833D01*
X107295357Y-108948214D01*
X107485833Y-108900595D01*
X107723928Y-108900595D01*
X107914404Y-108948214D01*
X108009642Y-108995833D01*
X108057261Y-109043452D01*
X108104880Y-109138690D01*
X108104880Y-109233928D01*
X108057261Y-109329166D01*
X108009642Y-109376785D01*
X107914404Y-109424404D01*
X107723928Y-109472023D01*
X107485833Y-109472023D01*
X107295357Y-109424404D01*
X107200119Y-109376785D01*
X107152500Y-109329166D01*
X107104880Y-109233928D01*
X110486130Y-110900595D02*
X109486130Y-110900595D01*
X109486130Y-110662500D01*
X109533750Y-110519642D01*
X109628988Y-110424404D01*
X109724226Y-110376785D01*
X109914702Y-110329166D01*
X110057559Y-110329166D01*
X110248035Y-110376785D01*
X110343273Y-110424404D01*
X110438511Y-110519642D01*
X110486130Y-110662500D01*
X110486130Y-110900595D01*
X110486130Y-109852976D02*
X110486130Y-109662500D01*
X110438511Y-109567261D01*
X110390892Y-109519642D01*
X110248035Y-109424404D01*
X110057559Y-109376785D01*
X109676607Y-109376785D01*
X109581369Y-109424404D01*
X109533750Y-109472023D01*
X109486130Y-109567261D01*
X109486130Y-109757738D01*
X109533750Y-109852976D01*
X109581369Y-109900595D01*
X109676607Y-109948214D01*
X109914702Y-109948214D01*
X110009940Y-109900595D01*
X110057559Y-109852976D01*
X110105178Y-109757738D01*
X110105178Y-109567261D01*
X110057559Y-109472023D01*
X110009940Y-109424404D01*
X109914702Y-109376785D01*
X112867380Y-110900595D02*
X111867380Y-110900595D01*
X111867380Y-110662500D01*
X111915000Y-110519642D01*
X112010238Y-110424404D01*
X112105476Y-110376785D01*
X112295952Y-110329166D01*
X112438809Y-110329166D01*
X112629285Y-110376785D01*
X112724523Y-110424404D01*
X112819761Y-110519642D01*
X112867380Y-110662500D01*
X112867380Y-110900595D01*
X112295952Y-109757738D02*
X112248333Y-109852976D01*
X112200714Y-109900595D01*
X112105476Y-109948214D01*
X112057857Y-109948214D01*
X111962619Y-109900595D01*
X111915000Y-109852976D01*
X111867380Y-109757738D01*
X111867380Y-109567261D01*
X111915000Y-109472023D01*
X111962619Y-109424404D01*
X112057857Y-109376785D01*
X112105476Y-109376785D01*
X112200714Y-109424404D01*
X112248333Y-109472023D01*
X112295952Y-109567261D01*
X112295952Y-109757738D01*
X112343571Y-109852976D01*
X112391190Y-109900595D01*
X112486428Y-109948214D01*
X112676904Y-109948214D01*
X112772142Y-109900595D01*
X112819761Y-109852976D01*
X112867380Y-109757738D01*
X112867380Y-109567261D01*
X112819761Y-109472023D01*
X112772142Y-109424404D01*
X112676904Y-109376785D01*
X112486428Y-109376785D01*
X112391190Y-109424404D01*
X112343571Y-109472023D01*
X112295952Y-109567261D01*
X98579880Y-102963095D02*
X97579880Y-102963095D01*
X97579880Y-102725000D01*
X97627500Y-102582142D01*
X97722738Y-102486904D01*
X97817976Y-102439285D01*
X98008452Y-102391666D01*
X98151309Y-102391666D01*
X98341785Y-102439285D01*
X98437023Y-102486904D01*
X98532261Y-102582142D01*
X98579880Y-102725000D01*
X98579880Y-102963095D01*
X97579880Y-102058333D02*
X97579880Y-101391666D01*
X98579880Y-101820238D01*
X100961130Y-102963095D02*
X99961130Y-102963095D01*
X99961130Y-102725000D01*
X100008750Y-102582142D01*
X100103988Y-102486904D01*
X100199226Y-102439285D01*
X100389702Y-102391666D01*
X100532559Y-102391666D01*
X100723035Y-102439285D01*
X100818273Y-102486904D01*
X100913511Y-102582142D01*
X100961130Y-102725000D01*
X100961130Y-102963095D01*
X99961130Y-101534523D02*
X99961130Y-101725000D01*
X100008750Y-101820238D01*
X100056369Y-101867857D01*
X100199226Y-101963095D01*
X100389702Y-102010714D01*
X100770654Y-102010714D01*
X100865892Y-101963095D01*
X100913511Y-101915476D01*
X100961130Y-101820238D01*
X100961130Y-101629761D01*
X100913511Y-101534523D01*
X100865892Y-101486904D01*
X100770654Y-101439285D01*
X100532559Y-101439285D01*
X100437321Y-101486904D01*
X100389702Y-101534523D01*
X100342083Y-101629761D01*
X100342083Y-101820238D01*
X100389702Y-101915476D01*
X100437321Y-101963095D01*
X100532559Y-102010714D01*
X103342380Y-102963095D02*
X102342380Y-102963095D01*
X102342380Y-102725000D01*
X102390000Y-102582142D01*
X102485238Y-102486904D01*
X102580476Y-102439285D01*
X102770952Y-102391666D01*
X102913809Y-102391666D01*
X103104285Y-102439285D01*
X103199523Y-102486904D01*
X103294761Y-102582142D01*
X103342380Y-102725000D01*
X103342380Y-102963095D01*
X102342380Y-101486904D02*
X102342380Y-101963095D01*
X102818571Y-102010714D01*
X102770952Y-101963095D01*
X102723333Y-101867857D01*
X102723333Y-101629761D01*
X102770952Y-101534523D01*
X102818571Y-101486904D01*
X102913809Y-101439285D01*
X103151904Y-101439285D01*
X103247142Y-101486904D01*
X103294761Y-101534523D01*
X103342380Y-101629761D01*
X103342380Y-101867857D01*
X103294761Y-101963095D01*
X103247142Y-102010714D01*
X105723630Y-102963095D02*
X104723630Y-102963095D01*
X104723630Y-102725000D01*
X104771250Y-102582142D01*
X104866488Y-102486904D01*
X104961726Y-102439285D01*
X105152202Y-102391666D01*
X105295059Y-102391666D01*
X105485535Y-102439285D01*
X105580773Y-102486904D01*
X105676011Y-102582142D01*
X105723630Y-102725000D01*
X105723630Y-102963095D01*
X105056964Y-101534523D02*
X105723630Y-101534523D01*
X104676011Y-101772619D02*
X105390297Y-102010714D01*
X105390297Y-101391666D01*
X108104880Y-102963095D02*
X107104880Y-102963095D01*
X107104880Y-102725000D01*
X107152500Y-102582142D01*
X107247738Y-102486904D01*
X107342976Y-102439285D01*
X107533452Y-102391666D01*
X107676309Y-102391666D01*
X107866785Y-102439285D01*
X107962023Y-102486904D01*
X108057261Y-102582142D01*
X108104880Y-102725000D01*
X108104880Y-102963095D01*
X107104880Y-102058333D02*
X107104880Y-101439285D01*
X107485833Y-101772619D01*
X107485833Y-101629761D01*
X107533452Y-101534523D01*
X107581071Y-101486904D01*
X107676309Y-101439285D01*
X107914404Y-101439285D01*
X108009642Y-101486904D01*
X108057261Y-101534523D01*
X108104880Y-101629761D01*
X108104880Y-101915476D01*
X108057261Y-102010714D01*
X108009642Y-102058333D01*
X110486130Y-102963095D02*
X109486130Y-102963095D01*
X109486130Y-102725000D01*
X109533750Y-102582142D01*
X109628988Y-102486904D01*
X109724226Y-102439285D01*
X109914702Y-102391666D01*
X110057559Y-102391666D01*
X110248035Y-102439285D01*
X110343273Y-102486904D01*
X110438511Y-102582142D01*
X110486130Y-102725000D01*
X110486130Y-102963095D01*
X109581369Y-102010714D02*
X109533750Y-101963095D01*
X109486130Y-101867857D01*
X109486130Y-101629761D01*
X109533750Y-101534523D01*
X109581369Y-101486904D01*
X109676607Y-101439285D01*
X109771845Y-101439285D01*
X109914702Y-101486904D01*
X110486130Y-102058333D01*
X110486130Y-101439285D01*
X112867380Y-102963095D02*
X111867380Y-102963095D01*
X111867380Y-102725000D01*
X111915000Y-102582142D01*
X112010238Y-102486904D01*
X112105476Y-102439285D01*
X112295952Y-102391666D01*
X112438809Y-102391666D01*
X112629285Y-102439285D01*
X112724523Y-102486904D01*
X112819761Y-102582142D01*
X112867380Y-102725000D01*
X112867380Y-102963095D01*
X112867380Y-101439285D02*
X112867380Y-102010714D01*
X112867380Y-101725000D02*
X111867380Y-101725000D01*
X112010238Y-101820238D01*
X112105476Y-101915476D01*
X112153095Y-102010714D01*
X104152380Y-73231904D02*
X104961904Y-73231904D01*
X105057142Y-73184285D01*
X105104761Y-73136666D01*
X105152380Y-73041428D01*
X105152380Y-72850952D01*
X105104761Y-72755714D01*
X105057142Y-72708095D01*
X104961904Y-72660476D01*
X104152380Y-72660476D01*
X104152380Y-72279523D02*
X104152380Y-71660476D01*
X104533333Y-71993809D01*
X104533333Y-71850952D01*
X104580952Y-71755714D01*
X104628571Y-71708095D01*
X104723809Y-71660476D01*
X104961904Y-71660476D01*
X105057142Y-71708095D01*
X105104761Y-71755714D01*
X105152380Y-71850952D01*
X105152380Y-72136666D01*
X105104761Y-72231904D01*
X105057142Y-72279523D01*
X96583630Y-86318154D02*
X97393154Y-86318154D01*
X97488392Y-86270535D01*
X97536011Y-86222916D01*
X97583630Y-86127678D01*
X97583630Y-85937202D01*
X97536011Y-85841964D01*
X97488392Y-85794345D01*
X97393154Y-85746726D01*
X96583630Y-85746726D01*
X96678869Y-85318154D02*
X96631250Y-85270535D01*
X96583630Y-85175297D01*
X96583630Y-84937202D01*
X96631250Y-84841964D01*
X96678869Y-84794345D01*
X96774107Y-84746726D01*
X96869345Y-84746726D01*
X97012202Y-84794345D01*
X97583630Y-85365773D01*
X97583630Y-84746726D01*
X103002380Y-64491904D02*
X103811904Y-64491904D01*
X103907142Y-64444285D01*
X103954761Y-64396666D01*
X104002380Y-64301428D01*
X104002380Y-64110952D01*
X103954761Y-64015714D01*
X103907142Y-63968095D01*
X103811904Y-63920476D01*
X103002380Y-63920476D01*
X104002380Y-62920476D02*
X104002380Y-63491904D01*
X104002380Y-63206190D02*
X103002380Y-63206190D01*
X103145238Y-63301428D01*
X103240476Y-63396666D01*
X103288095Y-63491904D01*
M02*
