0
SECTION
2
HEADER
9
$INSUNITS
70
4
9
$ACADVER
1
AC1014
9
$HANDSEED
5
FFFF
0
ENDSEC
0
SECTION
2
TABLES
0
TABLE
2
VPORT
5
8
100
AcDbSymbolTable
0
ENDTAB
0
TABLE
2
LTYPE
5
5
100
AcDbSymbolTable
0
LTYPE
5
14
100
AcDbSymbolTableRecord
100
AcDbLinetypeTableRecord
2
BYBLOCK
70
0
0
LTYPE
5
15
100
AcDbSymbolTableRecord
100
AcDbLinetypeTableRecord
2
BYLAYER
70
0
0
ENDTAB
0
TABLE
2
LAYER
5
2
100
AcDbSymbolTable
70
2
0
LAYER
5
50
100
AcDbSymbolTableRecord
100
AcDbLayerTableRecord
2
0
70
0
6
CONTINUOUS
0
ENDTAB
0
TABLE
2
STYLE
5
3
100
AcDbSymbolTable
70
1
0
STYLE
5
11
100
AcDbSymbolTableRecord
100
AcDbTextStyleTableRecord
2
STANDARD
70
0
0
ENDTAB
0
TABLE
2
VIEW
5
6
100
AcDbSymbolTable
70
0
0
ENDTAB
0
TABLE
2
UCS
5
7
100
AcDbSymbolTable
70
0
0
ENDTAB
0
TABLE
2
APPID
5
9
100
AcDbSymbolTable
70
2
0
APPID
5
12
100
AcDbSymbolTableRecord
100
AcDbRegAppTableRecord
2
ACAD
70
0
0
ENDTAB
0
TABLE
2
DIMSTYLE
5
A
100
AcDbSymbolTable
70
1
0
ENDTAB
0
TABLE
2
BLOCK_RECORD
5
1
100
AcDbSymbolTable
70
1
0
BLOCK_RECORD
5
1F
100
AcDbSymbolTableRecord
100
AcDbBlockTableRecord
2
*MODEL_SPACE
0
BLOCK_RECORD
5
1B
100
AcDbSymbolTableRecord
100
AcDbBlockTableRecord
2
*PAPER_SPACE
0
ENDTAB
0
ENDSEC
0
SECTION
2
BLOCKS
0
BLOCK
5
20
100
AcDbEntity
100
AcDbBlockBegin
2
*MODEL_SPACE
0
ENDBLK
5
21
100
AcDbEntity
100
AcDbBlockEnd
0
BLOCK
5
1C
100
AcDbEntity
100
AcDbBlockBegin
2
*PAPER_SPACE
0
ENDBLK
5
1D
100
AcDbEntity
100
AcDbBlockEnd
0
ENDSEC
0
SECTION
2
ENTITIES
0
LINE
5
100
100
AcDbEntity
8
0
100
AcDbLine
10
66.54848775804129
20
-142.10290923509152
30
-3.8711661449870541e-15
11
66.54848775804129
21
-80.981863978266503
31
3.614003098444073e-15
0
LWPOLYLINE
5
101
100
AcDbEntity
8
0
100
AcDbPolyline
90
8
70
1
43
0.0
10
80.591854696751497
20
-144.12996079372701
10
80.073611777884466
20
-142.19925188030086
10
78.142902864458321
20
-142.71495439270285
10
66.54848775804129
20
-145.82187149943994
10
67.066730676908321
20
-147.75512081933113
10
70.173647783645407
20
-159.3469955192831
10
72.104356697071552
20
-158.82875260041607
10
83.698771803488583
20
-155.72437590014403
0
LINE
5
102
100
AcDbEntity
8
0
100
AcDbLine
10
65.54848775804129
20
-145.82187149943994
30
-4.3266076683054628e-15
11
65.54848775804129
21
-175.39777795803988
31
-7.9486115859460557e-15
0
LWPOLYLINE
5
103
100
AcDbEntity
8
0
100
AcDbPolyline
90
8
70
1
43
0.0
10
101.97445591294608
20
-111.79058649383902
10
101.97445591294608
20
-99.789706353016484
10
101.97445591294607
20
-97.790406465034408
10
99.975156024963994
20
-97.790406465034408
10
87.974275884141491
20
-97.790406465034408
10
87.974275884141491
20
-99.789706353016484
10
87.974275884141491
20
-111.79058649383903
10
89.973575772123553
20
-111.79058649383903
0
LWPOLYLINE
5
104
100
AcDbEntity
8
0
100
AcDbPolyline
90
8
70
1
43
0.0
10
101.97445591294607
20
-135.8965034405505
10
99.975156024963994
20
-135.8965034405505
10
87.974275884141491
20
-135.8965034405505
10
87.974275884141491
20
-137.89580332853257
10
87.974275884141491
20
-149.89668346935511
10
89.973575772123553
20
-149.89668346935511
10
101.9744559129461
20
-149.89668346935508
10
101.97445591294608
20
-137.89580332853257
0
LINE
5
105
100
AcDbEntity
8
0
100
AcDbLine
10
66.689767630354382
20
-177.80302725636335
30
-8.2431696713803838e-15
11
66.355436264064764
21
-177.44485517807044
31
-8.1993062424578407e-15
0
ARC
5
106
100
AcDbEntity
8
0
100
AcDbCircle
10
-68.54848775804129
20
-175.39777795803988
30
-1.3531421149441117e-14
40
3.000000000000091
210
-2.4651903288156619e-32
220
1.2246467991473532e-16
230
-1
100
AcDbArc
50
-46.749142964373355
51
0
0
LINE
5
107
100
AcDbEntity
8
0
100
AcDbLine
10
65.859811375553505
20
-143.76916846544088
30
-4.075224048286763e-15
11
66.237164140529075
21
-143.17453047192291
31
-4.0024018967454393e-15
0
ARC
5
108
100
AcDbEntity
8
0
100
AcDbCircle
10
-67.548487758041176
20
-144.84078970227222
30
-1.3531421149441117e-14
40
1.9999999999998863
210
7.0064923216240854e-46
220
1.2246467991473532e-16
230
-1
100
AcDbArc
50
0
51
32.398902271094407
0
LWPOLYLINE
5
109
100
AcDbEntity
8
0
100
AcDbPolyline
90
8
70
1
43
0.0
10
164.18646983517363
20
-102.96521443430949
10
164.18646983517365
20
-114.96609457513202
10
166.18576972315572
20
-114.96609457513202
10
178.18664986397829
20
-114.96609457513202
10
178.18664986397829
20
-102.96521443430949
10
178.18664986397829
20
-100.96591454632743
10
176.18734997599617
20
-100.96591454632743
10
164.18646983517363
20
-100.96591454632743
0
LWPOLYLINE
5
110
100
AcDbEntity
8
0
100
AcDbPolyline
90
8
70
1
43
0.0
10
197.23969835173631
20
-118.14160265642501
10
197.23969835173631
20
-106.14072251560248
10
197.23969835173631
20
-104.1414226276204
10
195.24039846375422
20
-104.1414226276204
10
183.2395183229317
20
-104.1414226276204
10
183.2395183229317
20
-106.14072251560246
10
183.2395183229317
20
-118.14160265642501
10
185.23881821091379
20
-118.14160265642501
0
ARC
5
111
100
AcDbEntity
8
0
100
AcDbCircle
10
-64.548487758041375
20
-142.10290923509154
30
-1.3531421149441119e-14
40
1.9999999999999218
210
-3.5032461608120427e-46
220
1.2246467991473532e-16
230
-1
100
AcDbArc
50
180
51
212.39890227109467
0
LWPOLYLINE
5
112
100
AcDbEntity
8
0
100
AcDbPolyline
90
8
70
1
43
0.0
10
67.849175868138929
20
-165.15436469835177
10
79.44105056809093
20
-162.04998799807967
10
81.374299887982104
20
-161.53174507921264
10
81.892542806849093
20
-163.46245399263887
10
84.999459913586179
20
-175.05686909905586
10
73.405044807169162
20
-178.16378620579292
10
71.474335893743017
20
-178.67948871819493
10
68.36741878700596
20
-167.08761401824293
0
ARC
5
113
100
AcDbEntity
8
0
100
AcDbCircle
10
-72.554002387870725
20
-172.36145113278133
30
-1.3531421149441112e-14
40
8
210
-2.1570415377137036e-32
220
1.2246467991473532e-16
230
-1
100
AcDbArc
50
258.02386755579693
51
317.14095955573453
0
ARC
5
114
100
AcDbEntity
8
0
100
AcDbCircle
10
-68.548487758041261
20
-80.98186397826646
30
-1.3531421149441117e-14
40
1.9999999999999574
210
-3.5032461608120427e-46
220
1.2246467991473532e-16
230
-1
100
AcDbArc
50
0
51
80.68879065359846
0
LINE
5
115
100
AcDbEntity
8
0
100
AcDbLine
10
65.54848775804129
20
-145.82187149943994
30
-4.3266076683054628e-15
11
65.54848775804129
21
-144.8407897022723
31
-4.2064598000451522e-15
0
LWPOLYLINE
5
116
100
AcDbEntity
8
0
100
AcDbPolyline
90
8
70
1
43
0.0
10
185.23881821091379
20
-137.19465114418307
10
197.23969835173631
20
-137.19465114418307
10
197.23969835173631
20
-125.19377100336052
10
197.23969835173631
20
-123.19447111537843
10
195.24039846375422
20
-123.19447111537843
10
183.2395183229317
20
-123.19447111537843
10
183.2395183229317
20
-125.19377100336051
10
183.2395183229317
20
-137.19465114418307
0
LWPOLYLINE
5
117
100
AcDbEntity
8
0
100
AcDbPolyline
90
8
70
1
43
0.0
10
197.23969835173631
20
-144.24681949111857
10
197.23969835173631
20
-142.24751960313651
10
195.24039846375422
20
-142.24751960313651
10
183.2395183229317
20
-142.24751960313651
10
183.2395183229317
20
-144.24681949111857
10
183.2395183229317
20
-156.24769963194112
10
185.23881821091379
20
-156.24769963194112
10
197.23969835173631
20
-156.24769963194112
0
LWPOLYLINE
5
118
100
AcDbEntity
8
0
100
AcDbPolyline
90
8
70
1
43
0.0
10
178.18664986397829
20
-141.07131140982557
10
178.18664986397829
20
-139.07201152184351
10
176.18734997599617
20
-139.07201152184351
10
164.18646983517363
20
-139.07201152184351
10
164.18646983517363
20
-141.07131140982557
10
164.18646983517368
20
-153.07219155064811
10
166.18576972315572
20
-153.07219155064811
10
178.18664986397829
20
-153.07219155064811
0
LWPOLYLINE
5
119
100
AcDbEntity
8
0
100
AcDbPolyline
90
8
70
1
43
0.0
10
178.18664986397829
20
-81.912866058569364
10
176.18734997599617
20
-81.912866058569364
10
164.18646983517363
20
-81.912866058569364
10
164.18646983517363
20
-83.912165946551426
10
164.18646983517365
20
-95.913046087373971
10
166.18576972315572
20
-95.913046087373971
10
178.18664986397829
20
-95.913046087373971
10
178.18664986397829
20
-83.912165946551454
0
LWPOLYLINE
5
120
100
AcDbEntity
8
0
100
AcDbPolyline
90
8
70
1
43
0.0
10
183.2395183229317
20
-85.088374139862353
10
195.24039846375422
20
-85.088374139862353
10
197.23969835173631
20
-85.088374139862353
10
197.23969835173631
20
-87.087674027844443
10
197.23969835173631
20
-99.088554168666974
10
185.23881821091379
20
-99.088554168666974
10
183.2395183229317
20
-99.088554168666974
10
183.2395183229317
20
-87.087674027844429
0
LWPOLYLINE
5
121
100
AcDbEntity
8
0
100
AcDbPolyline
90
8
70
1
43
0.0
10
126.08037285965757
20
-129.54548727796447
10
138.0812530004801
20
-129.54548727796447
10
140.08055288846217
20
-129.54548727796447
10
140.08055288846217
20
-131.54478716594656
10
140.08055288846217
20
-143.5456673067691
10
128.07967274763965
20
-143.5456673067691
10
126.08037285965757
20
-143.5456673067691
10
126.08037285965756
20
-131.54478716594656
0
LWPOLYLINE
5
122
100
AcDbEntity
8
0
100
AcDbPolyline
90
8
70
1
43
0.0
10
147.1327212353977
20
-89.562029924787964
10
159.13360137622021
20
-89.562029924787964
10
159.13360137622021
20
-77.561149783965448
10
159.13360137622021
20
-75.561849895983357
10
157.13430148823815
20
-75.561849895983357
10
145.13342134741561
20
-75.561849895983357
10
145.13342134741561
20
-77.561149783965448
10
145.13342134741561
20
-89.562029924787964
0
LWPOLYLINE
5
123
100
AcDbEntity
8
0
100
AcDbPolyline
90
8
70
1
43
0.0
10
145.13342134741561
20
-115.66724675948151
10
145.13342134741561
20
-127.66812690030406
10
147.1327212353977
20
-127.66812690030406
10
159.13360137622021
20
-127.66812690030405
10
159.13360137622021
20
-115.66724675948151
10
159.13360137622021
20
-113.66794687149945
10
157.13430148823815
20
-113.66794687149945
10
145.13342134741561
20
-113.66794687149945
0
LWPOLYLINE
5
124
100
AcDbEntity
8
0
100
AcDbPolyline
90
8
70
1
43
0.0
10
178.18664986397829
20
-120.01896303408546
10
176.18734997599617
20
-120.01896303408546
10
164.18646983517363
20
-120.01896303408546
10
164.18646983517363
20
-122.01826292206754
10
164.18646983517365
20
-134.01914306289007
10
166.18576972315572
20
-134.01914306289007
10
178.18664986397829
20
-134.01914306289007
10
178.18664986397829
20
-122.01826292206754
0
LWPOLYLINE
5
125
100
AcDbEntity
8
0
100
AcDbPolyline
90
8
70
1
43
0.0
10
145.13342134741561
20
-132.7209953592575
10
157.13430148823815
20
-132.7209953592575
10
159.13360137622021
20
-132.7209953592575
10
159.13360137622021
20
-134.72029524723956
10
159.13360137622021
20
-146.72117538806208
10
147.1327212353977
20
-146.72117538806208
10
145.13342134741561
20
-146.72117538806208
10
145.13342134741561
20
-134.72029524723956
0
LWPOLYLINE
5
126
100
AcDbEntity
8
0
100
AcDbPolyline
90
8
70
1
43
0.0
10
159.13360137622021
20
-108.615078412546
10
159.13360137622021
20
-96.614198271723467
10
159.13360137622021
20
-94.614898383741405
10
157.13430148823815
20
-94.614898383741405
10
145.13342134741561
20
-94.614898383741405
10
145.13342134741561
20
-96.614198271723467
10
145.13342134741561
20
-108.61507841254601
10
147.1327212353977
20
-108.61507841254601
0
LWPOLYLINE
5
127
100
AcDbEntity
8
0
100
AcDbPolyline
90
8
70
1
43
0.0
10
128.07967274763965
20
-105.43957033125301
10
140.08055288846217
20
-105.43957033125301
10
140.08055288846217
20
-93.438690190430478
10
140.08055288846217
20
-91.439390302448388
10
138.0812530004801
20
-91.439390302448388
10
126.08037285965757
20
-91.439390302448388
10
126.08037285965756
20
-93.438690190430464
10
126.08037285965757
20
-105.43957033125301
0
LWPOLYLINE
5
128
100
AcDbEntity
8
0
100
AcDbPolyline
90
8
70
1
43
0.0
10
126.08037285965757
20
-124.49261881901106
10
128.07967274763965
20
-124.49261881901106
10
140.08055288846217
20
-124.49261881901106
10
140.08055288846217
20
-112.49173867818853
10
140.08055288846217
20
-110.49243879020644
10
138.0812530004801
20
-110.49243879020644
10
126.08037285965757
20
-110.49243879020644
10
126.08037285965756
20
-112.49173867818851
0
LWPOLYLINE
5
129
100
AcDbEntity
8
0
100
AcDbPolyline
90
8
70
1
43
0.0
10
121.02750440070412
20
-89.562029924787964
10
121.02750440070412
20
-77.561149783965448
10
121.0275044007041
20
-75.561849895983357
10
119.02820451272204
20
-75.561849895983357
10
107.02732437189951
20
-75.561849895983357
10
107.02732437189951
20
-77.561149783965448
10
107.02732437189952
20
-89.562029924787964
10
109.0266242598816
20
-89.562029924787964
0
LWPOLYLINE
5
130
100
AcDbEntity
8
0
100
AcDbPolyline
90
8
70
1
43
0.0
10
107.02732437189951
20
-115.66724675948151
10
107.02732437189952
20
-127.66812690030406
10
109.0266242598816
20
-127.66812690030406
10
121.02750440070412
20
-127.66812690030405
10
121.02750440070412
20
-115.66724675948151
10
121.0275044007041
20
-113.66794687149945
10
119.02820451272204
20
-113.66794687149945
10
107.02732437189951
20
-113.66794687149945
0
ARC
5
131
100
AcDbEntity
8
0
100
AcDbCircle
10
-196.97225556088978
20
-84.969599982681643
30
-1.3531421149441117e-14
40
1.9999999999866374
210
-2.1570415377137042e-32
220
1.224646799147353e-16
230
-1
100
AcDbArc
50
103.08956301628442
51
180
0
LWPOLYLINE
5
132
100
AcDbEntity
8
0
100
AcDbPolyline
90
8
70
1
43
0.0
10
101.22503600576096
20
-159.18694991198595
10
100.80840934549531
20
-157.23083693390944
10
98.852296367418816
20
-157.64746359417506
10
87.113078092494831
20
-160.14214274283887
10
87.529704752760466
20
-162.09825572091532
10
90.024383901424272
20
-173.8400144023044
10
91.980496879500748
20
-173.42338774203876
10
103.71971515442475
20
-170.92870859337495
0
LWPOLYLINE
5
133
100
AcDbEntity
8
0
100
AcDbPolyline
90
8
70
1
43
0.0
10
101.97445591294608
20
-130.84363498159706
10
101.97445591294608
20
-118.84275484077452
10
101.97445591294607
20
-116.84345495279246
10
99.975156024963994
20
-116.84345495279246
10
87.974275884141491
20
-116.84345495279246
10
87.974275884141491
20
-118.84275484077452
10
87.974275884141491
20
-130.84363498159706
10
89.973575772123553
20
-130.84363498159706
0
LWPOLYLINE
5
134
100
AcDbEntity
8
0
100
AcDbPolyline
90
8
70
1
43
0.0
10
108.74209873579774
20
-169.9557329172668
10
110.71091374619941
20
-169.60769723155707
10
122.53142502800451
20
-167.52456393022882
10
120.44575132021126
20
-155.70405264842375
10
120.10025604096657
20
-153.73523763802208
10
118.12890062409988
20
-154.08073291726677
10
106.30838934229479
20
-156.16640662506003
10
106.65642502800452
20
-158.1352216354617
0
LWPOLYLINE
5
135
100
AcDbEntity
8
0
100
AcDbPolyline
90
8
70
1
43
0.0
10
107.02732437189951
20
-96.614198271723467
10
107.02732437189951
20
-94.614898383741405
10
119.02820451272204
20
-94.614898383741405
10
121.0275044007041
20
-94.614898383741405
10
121.02750440070412
20
-96.614198271723467
10
121.02750440070412
20
-108.615078412546
10
109.0266242598816
20
-108.61507841254601
10
107.02732437189952
20
-108.61507841254601
0
LWPOLYLINE
5
136
100
AcDbEntity
8
0
100
AcDbPolyline
90
8
70
1
43
0.0
10
121.02750440070412
20
-146.72117538806208
10
121.02750440070412
20
-134.72029524723956
10
121.0275044007041
20
-132.7209953592575
10
119.02820451272204
20
-132.7209953592575
10
107.02732437189951
20
-132.7209953592575
10
107.02732437189951
20
-134.72029524723956
10
107.02732437189952
20
-146.72117538806211
10
109.0266242598816
20
-146.72117538806211
0
LWPOLYLINE
5
137
100
AcDbEntity
8
0
100
AcDbPolyline
90
8
70
1
43
0.0
10
87.974275884141491
20
-80.736657865258437
10
87.974275884141491
20
-78.737357977276346
10
99.975156024963994
20
-78.737357977276346
10
101.97445591294607
20
-78.737357977276346
10
101.97445591294608
20
-80.736657865258437
10
101.97445591294608
20
-92.737538006080968
10
89.973575772123553
20
-92.737538006080982
10
87.974275884141491
20
-92.737538006080982
0
ARC
5
138
100
AcDbEntity
8
0
100
AcDbCircle
10
-95.44393831393883
20
-73.458994603256897
30
-1.3531421149441125e-14
40
100.00000000000468
210
-5.5466782398352382e-32
220
1.224646799147353e-16
230
-1
100
AcDbArc
50
250.34424018029597
51
258.0238675557963
0
LWPOLYLINE
5
139
100
AcDbEntity
8
0
100
AcDbPolyline
90
8
70
1
43
0.0
10
140.08055288846217
20
-74.38564170267243
10
140.08055288845918
20
-72.411724063368027
10
138.08081690768745
20
-72.412181260986856
10
126.08056218604528
20
-72.309523258457403
10
126.08056716825713
20
-74.385641702672288
10
126.08059234871412
20
-86.386521843494904
10
128.07967274763965
20
-86.386521843494961
10
140.08055288846217
20
-86.386521843494961
0
LINE
5
140
100
AcDbEntity
8
0
100
AcDbLine
10
150.62823469290115
20
-72.140555544248329
30
4.6967511058435608e-15
11
197.42520332984355
21
-83.021565506973786
31
3.3642117036093408e-15
0
ARC
5
141
100
AcDbEntity
8
0
100
AcDbCircle
10
-133.79901921221131
20
-169.5920517750489
30
-1.3531421149441125e-14
40
100.00000000000409
210
-2.7733391199176191e-32
220
1.2246467991473535e-16
230
-1
100
AcDbArc
50
80.688790653656326
51
88.823053521240837
0
ARC
5
142
100
AcDbEntity
8
0
100
AcDbCircle
10
-163.03214242558289
20
-197.98025684109206
30
-1.3531421149441117e-14
40
39.999999999997499
210
-3.6977854932234917e-32
220
1.224646799147353e-16
230
-1
100
AcDbArc
50
70.344240180295586
51
90.000000000000938
0
ARC
5
143
100
AcDbEntity
8
0
100
AcDbCircle
10
-196.97225556088978
20
-155.98025684109459
30
-1.3531421149441122e-14
40
2.0000000000000018
210
0
220
1.2246467991473532e-16
230
-1
100
AcDbArc
50
180
51
270
0
LINE
5
144
100
AcDbEntity
8
0
100
AcDbLine
10
163.03214242558354
20
-157.98025684109459
30
-5.8155804374512058e-15
11
196.97225556088978
21
-157.98025684109459
31
-5.8155804374512058e-15
0
LWPOLYLINE
5
145
100
AcDbEntity
8
0
100
AcDbPolyline
90
8
70
1
43
0.0
10
68.921227396383415
20
-100.96591454632743
10
80.92210753720596
20
-100.96591454632743
10
82.921407425188036
20
-100.96591454632743
10
82.921407425188036
20
-102.96521443430949
10
82.921407425188036
20
-114.96609457513202
10
70.920527284365534
20
-114.96609457513202
10
68.921227396383458
20
-114.96609457513202
10
68.921227396383458
20
-102.96521443430949
0
LWPOLYLINE
5
146
100
AcDbEntity
8
0
100
AcDbPolyline
90
8
70
1
43
0.0
10
68.921227396383458
20
-122.01826292206754
10
68.921227396383415
20
-120.01896303408546
10
80.92210753720596
20
-120.01896303408546
10
82.921407425188036
20
-120.01896303408546
10
82.921407425188036
20
-122.01826292206754
10
82.921407425188036
20
-134.01914306289007
10
70.920527284365534
20
-134.01914306289007
10
68.921227396383458
20
-134.01914306289007
0
LINE
5
147
100
AcDbEntity
8
0
100
AcDbLine
10
74.214036054711201
20
-180.1873241336009
30
-8.5351618252729775e-15
11
116.19435914944667
21
-171.28240711350543
31
-7.4446240127397075e-15
0
LWPOLYLINE
5
148
100
AcDbEntity
8
0
100
AcDbPolyline
90
8
70
1
43
0.0
10
68.921227396383415
20
-81.912866058569364
10
80.92210753720596
20
-81.912866058569364
10
82.921407425188036
20
-81.912866058569364
10
82.921407425188036
20
-83.912165946551454
10
82.921407425188036
20
-95.913046087373971
10
70.920527284365534
20
-95.913046087373971
10
68.921227396383458
20
-95.913046087373971
10
68.921227396383458
20
-83.912165946551426
0
LINE
5
149
100
AcDbEntity
8
0
100
AcDbLine
10
68.224893985123813
20
-79.008215815625974
30
3.8557052889461534e-15
11
117.61933056596284
21
-70.909643640106864
31
4.8474943381874818e-15
0
ARC
5
150
100
AcDbEntity
8
0
100
AcDbCircle
10
-127.98084624505286
20
-169.54227933029586
30
-1.3531421149441122e-14
40
100.00000000000612
210
0
220
1.2246467991473532e-16
230
-1
100
AcDbArc
50
92.15721347115867
51
103.08956301628844
0
LINE
5
151
100
AcDbEntity
8
0
100
AcDbLine
10
129.08075970862816
20
-167.63204938254455
30
-6.9975841216433026e-15
11
149.57741386770837
21
-160.31103492938121
31
-6.1010184299855088e-15
0
LINE
5
152
100
AcDbEntity
8
0
100
AcDbLine
10
198.97225556088978
20
-155.98025684109459
30
-5.5706510776217308e-15
11
198.97225556088978
21
-84.969599982681643
31
3.1256462850789095e-15
0
CIRCLE
5
153
100
AcDbEntity
8
0
100
AcDbCircle
10
85.296880480152666
20
-149.89668346935511
30
-4.8256282119138584e-15
40
1.0500000000000018
210
0
220
0
230
1
0
CIRCLE
5
154
100
AcDbEntity
8
0
100
AcDbCircle
10
180.84204656946869
20
-142.24751960313651
30
-3.8888758074220327e-15
40
1.0499999999999972
210
0
220
0
230
1
0
CIRCLE
5
155
100
AcDbEntity
8
0
100
AcDbCircle
10
180.62698064242272
20
-89.912606016962712
30
2.5203026332740763e-15
40
1.0500000000000123
210
0
220
0
230
1
0
CIRCLE
5
156
100
AcDbEntity
8
0
100
AcDbCircle
10
89.399998001754284
20
-95.299997869879007
30
0
40
1.0500000000000009
210
0
220
0
230
1
0
ENDSEC
0
SECTION
2
OBJECTS
0
DICTIONARY
5
C
100
AcDbDictionary
3
ACAD_GROUP
350
D
3
ACAD_MLINESTYLE
350
17
0
DICTIONARY
5
D
100
AcDbDictionary
0
DICTIONARY
5
1A
330
C
100
AcDbDictionary
0
DICTIONARY
5
17
100
AcDbDictionary
0
ENDSEC
0
EOF
