0
SECTION
2
HEADER
9
$INSUNITS
70
4
9
$ACADVER
1
AC1014
9
$HANDSEED
5
FFFF
0
ENDSEC
0
SECTION
2
TABLES
0
TABLE
2
VPORT
5
8
100
AcDbSymbolTable
0
ENDTAB
0
TABLE
2
LTYPE
5
5
100
AcDbSymbolTable
0
LTYPE
5
14
100
AcDbSymbolTableRecord
100
AcDbLinetypeTableRecord
2
BYBLOCK
70
0
0
LTYPE
5
15
100
AcDbSymbolTableRecord
100
AcDbLinetypeTableRecord
2
BYLAYER
70
0
0
ENDTAB
0
TABLE
2
LAYER
5
2
100
AcDbSymbolTable
70
2
0
LAYER
5
50
100
AcDbSymbolTableRecord
100
AcDbLayerTableRecord
2
0
70
0
6
CONTINUOUS
0
ENDTAB
0
TABLE
2
STYLE
5
3
100
AcDbSymbolTable
70
1
0
STYLE
5
11
100
AcDbSymbolTableRecord
100
AcDbTextStyleTableRecord
2
STANDARD
70
0
0
ENDTAB
0
TABLE
2
VIEW
5
6
100
AcDbSymbolTable
70
0
0
ENDTAB
0
TABLE
2
UCS
5
7
100
AcDbSymbolTable
70
0
0
ENDTAB
0
TABLE
2
APPID
5
9
100
AcDbSymbolTable
70
2
0
APPID
5
12
100
AcDbSymbolTableRecord
100
AcDbRegAppTableRecord
2
ACAD
70
0
0
ENDTAB
0
TABLE
2
DIMSTYLE
5
A
100
AcDbSymbolTable
70
1
0
ENDTAB
0
TABLE
2
BLOCK_RECORD
5
1
100
AcDbSymbolTable
70
1
0
BLOCK_RECORD
5
1F
100
AcDbSymbolTableRecord
100
AcDbBlockTableRecord
2
*MODEL_SPACE
0
BLOCK_RECORD
5
1B
100
AcDbSymbolTableRecord
100
AcDbBlockTableRecord
2
*PAPER_SPACE
0
ENDTAB
0
ENDSEC
0
SECTION
2
BLOCKS
0
BLOCK
5
20
100
AcDbEntity
100
AcDbBlockBegin
2
*MODEL_SPACE
0
ENDBLK
5
21
100
AcDbEntity
100
AcDbBlockEnd
0
BLOCK
5
1C
100
AcDbEntity
100
AcDbBlockBegin
2
*PAPER_SPACE
0
ENDBLK
5
1D
100
AcDbEntity
100
AcDbBlockEnd
0
ENDSEC
0
SECTION
2
ENTITIES
0
LWPOLYLINE
5
100
100
AcDbEntity
8
0
100
AcDbPolyline
90
8
70
1
43
0.0
10
184.31156985117622
20
-165.15436469835177
10
172.71969515122422
20
-162.0499879980797
10
170.78644583133303
20
-161.53174507921267
10
170.26820291246605
20
-163.46245399263887
10
167.16128580572897
20
-175.05686909905589
10
178.75570091214598
20
-178.16378620579297
10
180.68640982557213
20
-178.67948871819496
10
183.79332693230918
20
-167.08761401824293
0
LWPOLYLINE
5
101
100
AcDbEntity
8
0
100
AcDbPolyline
90
8
70
1
43
0.0
10
165.04766762682033
20
-160.14214274283887
10
153.30844935189634
20
-157.64746359417509
10
151.35233637381984
20
-157.23083693390944
10
150.93570971355419
20
-159.18694991198595
10
148.44103056489041
20
-170.92870859337498
10
160.1802488398144
20
-173.42338774203878
10
162.13636181789087
20
-173.8400144023044
10
164.63104096655468
20
-162.09825572091535
0
LWPOLYLINE
5
102
100
AcDbEntity
8
0
100
AcDbPolyline
90
8
70
1
43
0.0
10
145.85235637702036
20
-156.16640662506003
10
134.03184509521526
20
-154.0807329172668
10
132.06048967834857
20
-153.73523763802211
10
131.71499439910389
20
-155.70405264842378
10
129.62932069131062
20
-167.52456393022885
10
141.44983197311572
20
-169.60769723155707
10
143.41864698351739
20
-169.9557329172668
10
145.50432069131062
20
-158.1352216354617
0
LWPOLYLINE
5
103
100
AcDbEntity
8
0
100
AcDbPolyline
90
8
70
1
43
0.0
10
185.61225796127385
20
-145.82187149943994
10
174.01784285485684
20
-142.71495439270285
10
172.08713394143069
20
-142.19925188030086
10
171.56889102256366
20
-144.12996079372701
10
168.46197391582655
20
-155.72437590014405
10
180.05638902224359
20
-158.8287526004161
10
181.98709793566974
20
-159.3469955192831
10
185.09401504240682
20
-147.75512081933113
0
LWPOLYLINE
5
104
100
AcDbEntity
8
0
100
AcDbPolyline
90
8
70
1
43
0.0
10
164.18646983517365
20
-135.89650344055053
10
152.18558969435114
20
-135.89650344055053
10
150.18628980636907
20
-135.89650344055053
10
150.18628980636905
20
-137.89580332853259
10
150.18628980636905
20
-149.89668346935511
10
162.18716994719159
20
-149.89668346935514
10
164.18646983517365
20
-149.89668346935514
10
164.18646983517365
20
-137.89580332853259
0
LWPOLYLINE
5
105
100
AcDbEntity
8
0
100
AcDbPolyline
90
8
70
1
43
0.0
10
145.13342134741561
20
-132.7209953592575
10
133.13254120659309
20
-132.7209953592575
10
131.13324131861103
20
-132.7209953592575
10
131.133241318611
20
-134.72029524723956
10
131.133241318611
20
-146.72117538806211
10
143.13412145943352
20
-146.72117538806214
10
145.13342134741561
20
-146.72117538806214
10
145.13342134741561
20
-134.72029524723956
0
LWPOLYLINE
5
106
100
AcDbEntity
8
0
100
AcDbPolyline
90
8
70
1
43
0.0
10
126.08037285965756
20
-129.5454872779645
10
114.07949271883503
20
-129.5454872779645
10
112.08019283085295
20
-129.5454872779645
10
112.08019283085295
20
-131.54478716594659
10
112.08019283085295
20
-143.5456673067691
10
124.08107297167548
20
-143.5456673067691
10
126.08037285965756
20
-143.5456673067691
10
126.08037285965757
20
-131.54478716594656
0
LWPOLYLINE
5
107
100
AcDbEntity
8
0
100
AcDbPolyline
90
8
70
1
43
0.0
10
107.02732437189951
20
-132.7209953592575
10
95.026444231076979
20
-132.7209953592575
10
93.027144343094918
20
-132.7209953592575
10
93.027144343094918
20
-134.72029524723956
10
93.027144343094918
20
-146.72117538806211
10
105.02802448391745
20
-146.72117538806214
10
107.02732437189951
20
-146.72117538806214
10
107.02732437189952
20
-134.72029524723956
0
LWPOLYLINE
5
108
100
AcDbEntity
8
0
100
AcDbPolyline
90
8
70
1
43
0.0
10
87.974275884141491
20
-139.07201152184354
10
75.973395743318946
20
-139.07201152184354
10
73.97409585533687
20
-139.07201152184354
10
73.97409585533687
20
-141.0713114098256
10
73.97409585533687
20
-153.07219155064811
10
85.974975996159401
20
-153.07219155064811
10
87.974275884141463
20
-153.07219155064811
10
87.974275884141491
20
-141.0713114098256
0
LWPOLYLINE
5
109
100
AcDbEntity
8
0
100
AcDbPolyline
90
8
70
1
43
0.0
10
68.921227396383443
20
-142.24751960313651
10
56.920347255560905
20
-142.24751960313651
10
54.921047367578822
20
-142.24751960313651
10
54.921047367578822
20
-144.2468194911186
10
54.921047367578822
20
-156.24769963194115
10
66.921927508401353
20
-156.24769963194115
10
68.921227396383429
20
-156.24769963194115
10
68.921227396383429
20
-144.2468194911186
0
LWPOLYLINE
5
110
100
AcDbEntity
8
0
100
AcDbPolyline
90
8
70
1
43
0.0
10
183.23951832293173
20
-120.01896303408549
10
171.23863818210918
20
-120.01896303408549
10
169.23933829412709
20
-120.01896303408549
10
169.23933829412709
20
-122.01826292206755
10
169.23933829412709
20
-134.01914306289007
10
181.24021843494961
20
-134.01914306289007
10
183.2395183229317
20
-134.01914306289007
10
183.2395183229317
20
-122.01826292206755
0
LWPOLYLINE
5
111
100
AcDbEntity
8
0
100
AcDbPolyline
90
8
70
1
43
0.0
10
164.18646983517365
20
-116.84345495279247
10
152.18558969435114
20
-116.84345495279247
10
150.18628980636907
20
-116.84345495279247
10
150.18628980636905
20
-118.84275484077455
10
150.18628980636905
20
-130.84363498159706
10
162.18716994719159
20
-130.84363498159709
10
164.18646983517365
20
-130.84363498159709
10
164.18646983517365
20
-118.84275484077455
0
LWPOLYLINE
5
112
100
AcDbEntity
8
0
100
AcDbPolyline
90
8
70
1
43
0.0
10
145.13342134741561
20
-113.66794687149947
10
133.13254120659309
20
-113.66794687149947
10
131.13324131861103
20
-113.66794687149947
10
131.133241318611
20
-115.66724675948153
10
131.133241318611
20
-127.66812690030406
10
143.13412145943352
20
-127.66812690030407
10
145.13342134741561
20
-127.66812690030407
10
145.13342134741561
20
-115.66724675948153
0
LWPOLYLINE
5
113
100
AcDbEntity
8
0
100
AcDbPolyline
90
8
70
1
43
0.0
10
126.08037285965756
20
-110.49243879020645
10
114.07949271883503
20
-110.49243879020645
10
112.08019283085295
20
-110.49243879020645
10
112.08019283085295
20
-112.49173867818854
10
112.08019283085295
20
-124.49261881901107
10
124.08107297167548
20
-124.49261881901107
10
126.08037285965756
20
-124.49261881901107
10
126.08037285965757
20
-112.49173867818853
0
LWPOLYLINE
5
114
100
AcDbEntity
8
0
100
AcDbPolyline
90
8
70
1
43
0.0
10
107.02732437189951
20
-113.66794687149947
10
95.026444231076979
20
-113.66794687149947
10
93.027144343094918
20
-113.66794687149947
10
93.027144343094918
20
-115.66724675948153
10
93.027144343094918
20
-127.66812690030406
10
105.02802448391745
20
-127.66812690030407
10
107.02732437189951
20
-127.66812690030407
10
107.02732437189952
20
-115.66724675948153
0
LWPOLYLINE
5
115
100
AcDbEntity
8
0
100
AcDbPolyline
90
8
70
1
43
0.0
10
87.974275884141491
20
-120.01896303408549
10
75.973395743318946
20
-120.01896303408549
10
73.97409585533687
20
-120.01896303408549
10
73.97409585533687
20
-122.01826292206755
10
73.97409585533687
20
-134.01914306289007
10
85.974975996159401
20
-134.01914306289007
10
87.974275884141463
20
-134.01914306289007
10
87.974275884141491
20
-122.01826292206755
0
LWPOLYLINE
5
116
100
AcDbEntity
8
0
100
AcDbPolyline
90
8
70
1
43
0.0
10
68.921227396383443
20
-123.19447111537848
10
56.920347255560905
20
-123.19447111537848
10
54.921047367578822
20
-123.19447111537848
10
54.921047367578822
20
-125.19377100336057
10
54.921047367578822
20
-137.1946511441831
10
66.921927508401353
20
-137.1946511441831
10
68.921227396383429
20
-137.1946511441831
10
68.921227396383429
20
-125.19377100336055
0
LWPOLYLINE
5
117
100
AcDbEntity
8
0
100
AcDbPolyline
90
8
70
1
43
0.0
10
183.23951832293173
20
-100.96591454632744
10
171.23863818210918
20
-100.96591454632744
10
169.23933829412709
20
-100.96591454632744
10
169.23933829412709
20
-102.9652144343095
10
169.23933829412709
20
-114.96609457513203
10
181.24021843494961
20
-114.96609457513203
10
183.2395183229317
20
-114.96609457513203
10
183.2395183229317
20
-102.9652144343095
0
LWPOLYLINE
5
118
100
AcDbEntity
8
0
100
AcDbPolyline
90
8
70
1
43
0.0
10
164.18646983517365
20
-97.790406465034437
10
152.18558969435114
20
-97.790406465034437
10
150.18628980636907
20
-97.790406465034437
10
150.18628980636905
20
-99.789706353016498
10
150.18628980636905
20
-111.79058649383903
10
162.18716994719159
20
-111.79058649383904
10
164.18646983517365
20
-111.79058649383904
10
164.18646983517365
20
-99.789706353016498
0
LWPOLYLINE
5
119
100
AcDbEntity
8
0
100
AcDbPolyline
90
8
70
1
43
0.0
10
145.13342134741561
20
-94.614898383741419
10
133.13254120659309
20
-94.614898383741419
10
131.13324131861103
20
-94.614898383741419
10
131.133241318611
20
-96.614198271723495
10
131.133241318611
20
-108.61507841254601
10
143.13412145943352
20
-108.61507841254604
10
145.13342134741561
20
-108.61507841254604
10
145.13342134741561
20
-96.614198271723495
0
LWPOLYLINE
5
120
100
AcDbEntity
8
0
100
AcDbPolyline
90
8
70
1
43
0.0
10
126.08037285965756
20
-91.439390302448402
10
114.07949271883503
20
-91.439390302448402
10
112.08019283085295
20
-91.439390302448402
10
112.08019283085295
20
-93.438690190430492
10
112.08019283085295
20
-105.43957033125302
10
124.08107297167548
20
-105.43957033125302
10
126.08037285965756
20
-105.43957033125302
10
126.08037285965757
20
-93.438690190430478
0
LWPOLYLINE
5
121
100
AcDbEntity
8
0
100
AcDbPolyline
90
8
70
1
43
0.0
10
107.02732437189951
20
-94.614898383741419
10
95.026444231076979
20
-94.614898383741419
10
93.027144343094918
20
-94.614898383741419
10
93.027144343094918
20
-96.614198271723495
10
93.027144343094918
20
-108.61507841254601
10
105.02802448391745
20
-108.61507841254604
10
107.02732437189951
20
-108.61507841254604
10
107.02732437189952
20
-96.614198271723495
0
LWPOLYLINE
5
122
100
AcDbEntity
8
0
100
AcDbPolyline
90
8
70
1
43
0.0
10
87.974275884141491
20
-100.96591454632744
10
75.973395743318946
20
-100.96591454632744
10
73.97409585533687
20
-100.96591454632744
10
73.97409585533687
20
-102.9652144343095
10
73.97409585533687
20
-114.96609457513203
10
85.974975996159401
20
-114.96609457513203
10
87.974275884141463
20
-114.96609457513203
10
87.974275884141491
20
-102.9652144343095
0
LWPOLYLINE
5
123
100
AcDbEntity
8
0
100
AcDbPolyline
90
8
70
1
43
0.0
10
68.921227396383443
20
-104.14142262762043
10
56.920347255560905
20
-104.14142262762043
10
54.921047367578822
20
-104.14142262762043
10
54.921047367578822
20
-106.14072251560252
10
54.921047367578822
20
-118.14160265642505
10
66.921927508401353
20
-118.14160265642505
10
68.921227396383429
20
-118.14160265642505
10
68.921227396383429
20
-106.1407225156025
0
LWPOLYLINE
5
124
100
AcDbEntity
8
0
100
AcDbPolyline
90
8
70
1
43
0.0
10
183.23951832293173
20
-81.912866058569378
10
171.23863818210918
20
-81.912866058569378
10
169.23933829412709
20
-81.912866058569378
10
169.23933829412709
20
-83.912165946551468
10
169.23933829412709
20
-95.913046087373999
10
181.24021843494961
20
-95.913046087373999
10
183.2395183229317
20
-95.913046087373999
10
183.2395183229317
20
-83.912165946551454
0
LWPOLYLINE
5
125
100
AcDbEntity
8
0
100
AcDbPolyline
90
8
70
1
43
0.0
10
164.18646983517365
20
-78.737357977276375
10
152.18558969435114
20
-78.737357977276375
10
150.18628980636907
20
-78.737357977276375
10
150.18628980636905
20
-80.736657865258451
10
150.18628980636905
20
-92.737538006080982
10
162.18716994719159
20
-92.737538006080996
10
164.18646983517365
20
-92.737538006080996
10
164.18646983517365
20
-80.736657865258451
0
LWPOLYLINE
5
126
100
AcDbEntity
8
0
100
AcDbPolyline
90
8
70
1
43
0.0
10
145.13342134741561
20
-75.561849895983372
10
133.13254120659309
20
-75.561849895983372
10
131.13324131861103
20
-75.561849895983372
10
131.133241318611
20
-77.561149783965448
10
131.133241318611
20
-89.562029924787993
10
143.13412145943352
20
-89.562029924787993
10
145.13342134741561
20
-89.562029924787993
10
145.13342134741561
20
-77.561149783965448
0
LWPOLYLINE
5
127
100
AcDbEntity
8
0
100
AcDbPolyline
90
8
70
1
43
0.0
10
126.08037285965756
20
-72.386341814690368
10
114.07949271883503
20
-72.386341814690368
10
112.08019283085295
20
-72.386341814690368
10
112.08019283085295
20
-74.385641702672444
10
112.08019283085295
20
-86.386521843494975
10
124.08107297167548
20
-86.386521843494975
10
126.08037285965756
20
-86.386521843494975
10
126.08037285965757
20
-74.385641702672444
0
LWPOLYLINE
5
128
100
AcDbEntity
8
0
100
AcDbPolyline
90
8
70
1
43
0.0
10
107.02732437189951
20
-75.561849895983372
10
95.026444231076979
20
-75.561849895983372
10
93.027144343094918
20
-75.561849895983372
10
93.027144343094918
20
-77.561149783965448
10
93.027144343094918
20
-89.562029924787993
10
105.02802448391745
20
-89.562029924787993
10
107.02732437189951
20
-89.562029924787993
10
107.02732437189952
20
-77.561149783965448
0
LWPOLYLINE
5
129
100
AcDbEntity
8
0
100
AcDbPolyline
90
8
70
1
43
0.0
10
87.974275884141491
20
-81.912866058569378
10
75.973395743318946
20
-81.912866058569378
10
73.97409585533687
20
-81.912866058569378
10
73.97409585533687
20
-83.912165946551468
10
73.97409585533687
20
-95.913046087373999
10
85.974975996159401
20
-95.913046087373999
10
87.974275884141463
20
-95.913046087373999
10
87.974275884141491
20
-83.912165946551454
0
LWPOLYLINE
5
130
100
AcDbEntity
8
0
100
AcDbPolyline
90
8
70
1
43
0.0
10
68.921227396383443
20
-85.088374139862395
10
56.920347255560905
20
-85.088374139862395
10
54.921047367578822
20
-85.088374139862395
10
54.921047367578822
20
-87.087674027844471
10
54.921047367578822
20
-99.088554168667002
10
66.921927508401353
20
-99.088554168667002
10
68.921227396383429
20
-99.088554168667002
10
68.921227396383429
20
-87.087674027844457
0
LWPOLYLINE
5
131
100
AcDbEntity
8
0
100
AcDbPolyline
90
19
70
1
43
0.0
10
133.35126965459017
20
-71.685342916595914
10
186.26053364042181
20
-79.344376583260711
42
0.035955305575998235
10
186.86224509752145
20
-79.387702032325194
10
203.61287806048975
20
-79.387702032325194
42
-0.41421356237309503
10
205.61287806048972
20
-81.38770203232518
10
205.61287806048972
20
-155.04224965293565
42
-0.18998371229025429
10
204.80592955446616
20
-157.08932687296613
10
185.47097808896075
20
-177.80302725636335
42
-0.26382442611954227
10
177.94670966460393
20
-180.1873241336009
10
135.96638656986846
20
-171.28240711350546
42
-0.033521242945594061
10
123.07998601068698
20
-167.63204938254455
10
102.58333185160677
20
-160.31103492938126
42
0.085975333168435322
10
89.128603293731601
20
-157.98025684109459
10
55.188490158425353
20
-157.98025684109462
42
-0.41421356237309503
10
53.188490158425353
20
-155.98025684109462
10
53.188490158425367
20
-84.969599982681672
42
-0.35313447868743919
10
54.765824573370281
20
-83.014771651801937
10
101.48944117828442
20
-72.912368061550197
42
-0.048775577069353926
10
120.82376341067659
20
-70.669967146715649
42
-0.031452553736772131
0
LINE
5
132
100
AcDbEntity
8
0
100
AcDbLine
10
186.61225796127385
20
-145.82187149943994
30
0
11
186.61225796127385
21
-175.39777795803988
31
0
0
ARC
5
133
100
AcDbEntity
8
0
100
AcDbCircle
10
183.61225796127385
20
-175.39777795803988
30
0
40
3.000000000000091
210
-0
220
0
230
1
100
AcDbArc
50
-46.749142964373355
51
0
0
LINE
5
134
100
AcDbEntity
8
0
100
AcDbLine
10
185.61225796127385
20
-142.10290923509152
30
0
11
185.61225796127385
21
-80.981863978266517
31
0
0
LINE
5
135
100
AcDbEntity
8
0
100
AcDbLine
10
186.30093434376164
20
-143.76916846544088
30
0
11
185.92358157878607
21
-143.17453047192291
31
0
0
LINE
5
136
100
AcDbEntity
8
0
100
AcDbLine
10
186.61225796127385
20
-145.82187149943994
30
0
11
186.61225796127385
21
-144.8407897022723
31
0
0
ARC
5
137
100
AcDbEntity
8
0
100
AcDbCircle
10
187.61225796127377
20
-142.10290923509154
30
0
40
1.9999999999999218
210
0
220
0
230
1
100
AcDbArc
50
180
51
212.39890227109467
0
ARC
5
138
100
AcDbEntity
8
0
100
AcDbCircle
10
184.61225796127397
20
-144.84078970227222
30
0
40
1.9999999999998863
210
-0
220
0
230
1
100
AcDbArc
50
0
51
32.398902271094407
0
ARC
5
139
100
AcDbEntity
8
0
100
AcDbCircle
10
183.61225796127388
20
-80.981863978266489
30
0
40
1.9999999999999574
210
0
220
0
230
1
100
AcDbArc
50
0
51
81.763199202839957
0
ENDSEC
0
SECTION
2
OBJECTS
0
DICTIONARY
5
C
100
AcDbDictionary
3
ACAD_GROUP
350
D
3
ACAD_MLINESTYLE
350
17
0
DICTIONARY
5
D
100
AcDbDictionary
0
DICTIONARY
5
1A
330
C
100
AcDbDictionary
0
DICTIONARY
5
17
100
AcDbDictionary
0
ENDSEC
0
EOF
