M48
; DRILL file {KiCad (5.1.4-0)} date 2020 November 23, Monday 17:37:17
; FORMAT={-:-/ absolute / metric / decimal}
; #@! TF.CreationDate,2020-11-23T17:37:17+01:00
; #@! TF.GenerationSoftware,Kicad,Pcbnew,(5.1.4-0)
; #@! TF.FileFunction,Plated,1,2,PTH
FMAT,2
METRIC
T1C0.400
T2C0.600
T3C1.000
T4C1.470
%
G90
G05
T1
X166.31Y-121.92
X171.25Y-121.92
X186.531Y-116.681
X187.28Y-92.7
X187.9Y-111.92
X188.83Y-88.26
X189.055Y-109.68
X189.61Y-119.96
X190.77Y-109.73
X191.29Y-91.65
X191.294Y-88.51
X192.06Y-94.51
X192.49Y-115.24
X192.52Y-110.97
X192.75Y-119.73
X193.74Y-88.26
X194.23Y-116.01
X194.469Y-111.006
X194.759Y-100.806
X195.295Y-101.651
X195.42Y-115.25
X195.759Y-102.65
X195.91Y-110.95
X196.259Y-103.525
X196.759Y-104.391
X197.24Y-112.35
X197.259Y-105.364
X197.759Y-106.362
X198.025Y-128.525
X198.028Y-136.463
X198.03Y-144.4
X198.25Y-122.12
X198.29Y-160.27
X198.885Y-120.585
X198.9Y-117.72
X200.035Y-119.075
X200.412Y-152.338
X200.621Y-119.886
X200.66Y-110.92
X201.406Y-120.505
X201.91Y-111.13
X202.258Y-121.03
T3
X198.438Y-100.806
X198.438Y-94.456
X198.438Y-97.631
T4
X115.252Y-114.935
X121.602Y-112.395
X77.153Y-143.51
X83.502Y-140.97
X134.302Y-80.01
X140.653Y-77.47
X115.252Y-76.835
X121.602Y-74.295
X115.252Y-95.885
X121.602Y-93.345
X96.203Y-118.11
X102.552Y-115.57
X115.252Y-133.985
X121.602Y-131.445
X96.203Y-80.01
X102.552Y-77.47
X77.153Y-105.41
X96.203Y-137.16
X102.552Y-134.62
X58.102Y-146.685
X64.453Y-144.145
X153.521Y-162.233
X160.261Y-161.069
X96.203Y-99.06
X102.552Y-96.52
X172.687Y-166.64
X179.478Y-165.83
X77.153Y-124.46
X83.502Y-121.92
X83.502Y-102.87
X58.102Y-127.635
X64.453Y-125.095
X134.409Y-158.657
X141.104Y-157.258
X172.403Y-124.46
X178.752Y-121.92
X172.403Y-105.41
X178.752Y-102.87
X153.352Y-121.285
X159.702Y-118.745
X77.153Y-86.36
X83.502Y-83.82
X58.102Y-108.585
X64.453Y-106.045
X153.352Y-102.235
X159.702Y-99.695
X140.653Y-115.57
X172.403Y-86.36
X178.752Y-83.82
X173.987Y-147.31
X180.778Y-146.5
X58.102Y-89.535
X64.453Y-86.995
X134.302Y-99.06
X140.653Y-96.52
X153.352Y-83.185
X159.702Y-80.645
X153.352Y-140.335
X159.702Y-137.795
X134.302Y-118.11
X134.302Y-137.16
X140.653Y-134.62
T2
G00X186.974Y-80.688
M15
G01X186.974Y-80.087
M16
G05
G00X197.54Y-90.68
M15
G01X197.54Y-91.28
M16
G05
G00X202.14Y-82.58
M15
G01X202.14Y-83.18
M16
G05
G00X202.14Y-85.58
M15
G01X202.14Y-86.18
M16
G05
G00X202.14Y-89.58
M15
G01X202.14Y-90.18
M16
G05
G00X186.974Y-85.117
M15
G01X186.974Y-84.017
M16
G05
G00X195.614Y-80.688
M15
G01X195.614Y-80.087
M16
G05
G00X195.614Y-85.117
M15
G01X195.614Y-84.017
M16
G05
T0
M30
