G04 #@! TF.GenerationSoftware,KiCad,Pcbnew,(5.1.4-0)*
G04 #@! TF.CreationDate,2020-11-23T17:37:14+01:00*
G04 #@! TF.ProjectId,stm32split,73746d33-3273-4706-9c69-742e6b696361,rev?*
G04 #@! TF.SameCoordinates,Original*
G04 #@! TF.FileFunction,Paste,Top*
G04 #@! TF.FilePolarity,Positive*
%FSLAX46Y46*%
G04 Gerber Fmt 4.6, Leading zero omitted, Abs format (unit mm)*
G04 Created by KiCad (PCBNEW (5.1.4-0)) date 2020-11-23 17:37:14*
%MOMM*%
%LPD*%
G04 APERTURE LIST*
%ADD10R,2.000000X2.400000*%
%ADD11R,0.600000X2.450000*%
%ADD12R,0.300000X2.450000*%
%ADD13C,0.100000*%
%ADD14C,0.875000*%
%ADD15C,1.425000*%
%ADD16R,1.200000X0.900000*%
%ADD17R,0.800000X0.900000*%
%ADD18C,0.300000*%
%ADD19R,0.650000X1.060000*%
G04 APERTURE END LIST*
D10*
X192430000Y-123920000D03*
X196130000Y-123920000D03*
D11*
X188068750Y-85982500D03*
X194518750Y-85982500D03*
X188843750Y-85982500D03*
X193743750Y-85982500D03*
D12*
X193043750Y-85982500D03*
X189543750Y-85982500D03*
X192543750Y-85982500D03*
X190043750Y-85982500D03*
X192043750Y-85982500D03*
X190543750Y-85982500D03*
X191043750Y-85982500D03*
X191543750Y-85982500D03*
D13*
G36*
X187917691Y-103988553D02*
G01*
X187938926Y-103991703D01*
X187959750Y-103996919D01*
X187979962Y-104004151D01*
X187999368Y-104013330D01*
X188017781Y-104024366D01*
X188035024Y-104037154D01*
X188050930Y-104051570D01*
X188065346Y-104067476D01*
X188078134Y-104084719D01*
X188089170Y-104103132D01*
X188098349Y-104122538D01*
X188105581Y-104142750D01*
X188110797Y-104163574D01*
X188113947Y-104184809D01*
X188115000Y-104206250D01*
X188115000Y-104643750D01*
X188113947Y-104665191D01*
X188110797Y-104686426D01*
X188105581Y-104707250D01*
X188098349Y-104727462D01*
X188089170Y-104746868D01*
X188078134Y-104765281D01*
X188065346Y-104782524D01*
X188050930Y-104798430D01*
X188035024Y-104812846D01*
X188017781Y-104825634D01*
X187999368Y-104836670D01*
X187979962Y-104845849D01*
X187959750Y-104853081D01*
X187938926Y-104858297D01*
X187917691Y-104861447D01*
X187896250Y-104862500D01*
X187383750Y-104862500D01*
X187362309Y-104861447D01*
X187341074Y-104858297D01*
X187320250Y-104853081D01*
X187300038Y-104845849D01*
X187280632Y-104836670D01*
X187262219Y-104825634D01*
X187244976Y-104812846D01*
X187229070Y-104798430D01*
X187214654Y-104782524D01*
X187201866Y-104765281D01*
X187190830Y-104746868D01*
X187181651Y-104727462D01*
X187174419Y-104707250D01*
X187169203Y-104686426D01*
X187166053Y-104665191D01*
X187165000Y-104643750D01*
X187165000Y-104206250D01*
X187166053Y-104184809D01*
X187169203Y-104163574D01*
X187174419Y-104142750D01*
X187181651Y-104122538D01*
X187190830Y-104103132D01*
X187201866Y-104084719D01*
X187214654Y-104067476D01*
X187229070Y-104051570D01*
X187244976Y-104037154D01*
X187262219Y-104024366D01*
X187280632Y-104013330D01*
X187300038Y-104004151D01*
X187320250Y-103996919D01*
X187341074Y-103991703D01*
X187362309Y-103988553D01*
X187383750Y-103987500D01*
X187896250Y-103987500D01*
X187917691Y-103988553D01*
X187917691Y-103988553D01*
G37*
D14*
X187640000Y-104425000D03*
D13*
G36*
X187917691Y-102413553D02*
G01*
X187938926Y-102416703D01*
X187959750Y-102421919D01*
X187979962Y-102429151D01*
X187999368Y-102438330D01*
X188017781Y-102449366D01*
X188035024Y-102462154D01*
X188050930Y-102476570D01*
X188065346Y-102492476D01*
X188078134Y-102509719D01*
X188089170Y-102528132D01*
X188098349Y-102547538D01*
X188105581Y-102567750D01*
X188110797Y-102588574D01*
X188113947Y-102609809D01*
X188115000Y-102631250D01*
X188115000Y-103068750D01*
X188113947Y-103090191D01*
X188110797Y-103111426D01*
X188105581Y-103132250D01*
X188098349Y-103152462D01*
X188089170Y-103171868D01*
X188078134Y-103190281D01*
X188065346Y-103207524D01*
X188050930Y-103223430D01*
X188035024Y-103237846D01*
X188017781Y-103250634D01*
X187999368Y-103261670D01*
X187979962Y-103270849D01*
X187959750Y-103278081D01*
X187938926Y-103283297D01*
X187917691Y-103286447D01*
X187896250Y-103287500D01*
X187383750Y-103287500D01*
X187362309Y-103286447D01*
X187341074Y-103283297D01*
X187320250Y-103278081D01*
X187300038Y-103270849D01*
X187280632Y-103261670D01*
X187262219Y-103250634D01*
X187244976Y-103237846D01*
X187229070Y-103223430D01*
X187214654Y-103207524D01*
X187201866Y-103190281D01*
X187190830Y-103171868D01*
X187181651Y-103152462D01*
X187174419Y-103132250D01*
X187169203Y-103111426D01*
X187166053Y-103090191D01*
X187165000Y-103068750D01*
X187165000Y-102631250D01*
X187166053Y-102609809D01*
X187169203Y-102588574D01*
X187174419Y-102567750D01*
X187181651Y-102547538D01*
X187190830Y-102528132D01*
X187201866Y-102509719D01*
X187214654Y-102492476D01*
X187229070Y-102476570D01*
X187244976Y-102462154D01*
X187262219Y-102449366D01*
X187280632Y-102438330D01*
X187300038Y-102429151D01*
X187320250Y-102421919D01*
X187341074Y-102416703D01*
X187362309Y-102413553D01*
X187383750Y-102412500D01*
X187896250Y-102412500D01*
X187917691Y-102413553D01*
X187917691Y-102413553D01*
G37*
D14*
X187640000Y-102850000D03*
D13*
G36*
X197235191Y-120706053D02*
G01*
X197256426Y-120709203D01*
X197277250Y-120714419D01*
X197297462Y-120721651D01*
X197316868Y-120730830D01*
X197335281Y-120741866D01*
X197352524Y-120754654D01*
X197368430Y-120769070D01*
X197382846Y-120784976D01*
X197395634Y-120802219D01*
X197406670Y-120820632D01*
X197415849Y-120840038D01*
X197423081Y-120860250D01*
X197428297Y-120881074D01*
X197431447Y-120902309D01*
X197432500Y-120923750D01*
X197432500Y-121436250D01*
X197431447Y-121457691D01*
X197428297Y-121478926D01*
X197423081Y-121499750D01*
X197415849Y-121519962D01*
X197406670Y-121539368D01*
X197395634Y-121557781D01*
X197382846Y-121575024D01*
X197368430Y-121590930D01*
X197352524Y-121605346D01*
X197335281Y-121618134D01*
X197316868Y-121629170D01*
X197297462Y-121638349D01*
X197277250Y-121645581D01*
X197256426Y-121650797D01*
X197235191Y-121653947D01*
X197213750Y-121655000D01*
X196776250Y-121655000D01*
X196754809Y-121653947D01*
X196733574Y-121650797D01*
X196712750Y-121645581D01*
X196692538Y-121638349D01*
X196673132Y-121629170D01*
X196654719Y-121618134D01*
X196637476Y-121605346D01*
X196621570Y-121590930D01*
X196607154Y-121575024D01*
X196594366Y-121557781D01*
X196583330Y-121539368D01*
X196574151Y-121519962D01*
X196566919Y-121499750D01*
X196561703Y-121478926D01*
X196558553Y-121457691D01*
X196557500Y-121436250D01*
X196557500Y-120923750D01*
X196558553Y-120902309D01*
X196561703Y-120881074D01*
X196566919Y-120860250D01*
X196574151Y-120840038D01*
X196583330Y-120820632D01*
X196594366Y-120802219D01*
X196607154Y-120784976D01*
X196621570Y-120769070D01*
X196637476Y-120754654D01*
X196654719Y-120741866D01*
X196673132Y-120730830D01*
X196692538Y-120721651D01*
X196712750Y-120714419D01*
X196733574Y-120709203D01*
X196754809Y-120706053D01*
X196776250Y-120705000D01*
X197213750Y-120705000D01*
X197235191Y-120706053D01*
X197235191Y-120706053D01*
G37*
D14*
X196995000Y-121180000D03*
D13*
G36*
X195660191Y-120706053D02*
G01*
X195681426Y-120709203D01*
X195702250Y-120714419D01*
X195722462Y-120721651D01*
X195741868Y-120730830D01*
X195760281Y-120741866D01*
X195777524Y-120754654D01*
X195793430Y-120769070D01*
X195807846Y-120784976D01*
X195820634Y-120802219D01*
X195831670Y-120820632D01*
X195840849Y-120840038D01*
X195848081Y-120860250D01*
X195853297Y-120881074D01*
X195856447Y-120902309D01*
X195857500Y-120923750D01*
X195857500Y-121436250D01*
X195856447Y-121457691D01*
X195853297Y-121478926D01*
X195848081Y-121499750D01*
X195840849Y-121519962D01*
X195831670Y-121539368D01*
X195820634Y-121557781D01*
X195807846Y-121575024D01*
X195793430Y-121590930D01*
X195777524Y-121605346D01*
X195760281Y-121618134D01*
X195741868Y-121629170D01*
X195722462Y-121638349D01*
X195702250Y-121645581D01*
X195681426Y-121650797D01*
X195660191Y-121653947D01*
X195638750Y-121655000D01*
X195201250Y-121655000D01*
X195179809Y-121653947D01*
X195158574Y-121650797D01*
X195137750Y-121645581D01*
X195117538Y-121638349D01*
X195098132Y-121629170D01*
X195079719Y-121618134D01*
X195062476Y-121605346D01*
X195046570Y-121590930D01*
X195032154Y-121575024D01*
X195019366Y-121557781D01*
X195008330Y-121539368D01*
X194999151Y-121519962D01*
X194991919Y-121499750D01*
X194986703Y-121478926D01*
X194983553Y-121457691D01*
X194982500Y-121436250D01*
X194982500Y-120923750D01*
X194983553Y-120902309D01*
X194986703Y-120881074D01*
X194991919Y-120860250D01*
X194999151Y-120840038D01*
X195008330Y-120820632D01*
X195019366Y-120802219D01*
X195032154Y-120784976D01*
X195046570Y-120769070D01*
X195062476Y-120754654D01*
X195079719Y-120741866D01*
X195098132Y-120730830D01*
X195117538Y-120721651D01*
X195137750Y-120714419D01*
X195158574Y-120709203D01*
X195179809Y-120706053D01*
X195201250Y-120705000D01*
X195638750Y-120705000D01*
X195660191Y-120706053D01*
X195660191Y-120706053D01*
G37*
D14*
X195420000Y-121180000D03*
D13*
G36*
X197235191Y-119196053D02*
G01*
X197256426Y-119199203D01*
X197277250Y-119204419D01*
X197297462Y-119211651D01*
X197316868Y-119220830D01*
X197335281Y-119231866D01*
X197352524Y-119244654D01*
X197368430Y-119259070D01*
X197382846Y-119274976D01*
X197395634Y-119292219D01*
X197406670Y-119310632D01*
X197415849Y-119330038D01*
X197423081Y-119350250D01*
X197428297Y-119371074D01*
X197431447Y-119392309D01*
X197432500Y-119413750D01*
X197432500Y-119926250D01*
X197431447Y-119947691D01*
X197428297Y-119968926D01*
X197423081Y-119989750D01*
X197415849Y-120009962D01*
X197406670Y-120029368D01*
X197395634Y-120047781D01*
X197382846Y-120065024D01*
X197368430Y-120080930D01*
X197352524Y-120095346D01*
X197335281Y-120108134D01*
X197316868Y-120119170D01*
X197297462Y-120128349D01*
X197277250Y-120135581D01*
X197256426Y-120140797D01*
X197235191Y-120143947D01*
X197213750Y-120145000D01*
X196776250Y-120145000D01*
X196754809Y-120143947D01*
X196733574Y-120140797D01*
X196712750Y-120135581D01*
X196692538Y-120128349D01*
X196673132Y-120119170D01*
X196654719Y-120108134D01*
X196637476Y-120095346D01*
X196621570Y-120080930D01*
X196607154Y-120065024D01*
X196594366Y-120047781D01*
X196583330Y-120029368D01*
X196574151Y-120009962D01*
X196566919Y-119989750D01*
X196561703Y-119968926D01*
X196558553Y-119947691D01*
X196557500Y-119926250D01*
X196557500Y-119413750D01*
X196558553Y-119392309D01*
X196561703Y-119371074D01*
X196566919Y-119350250D01*
X196574151Y-119330038D01*
X196583330Y-119310632D01*
X196594366Y-119292219D01*
X196607154Y-119274976D01*
X196621570Y-119259070D01*
X196637476Y-119244654D01*
X196654719Y-119231866D01*
X196673132Y-119220830D01*
X196692538Y-119211651D01*
X196712750Y-119204419D01*
X196733574Y-119199203D01*
X196754809Y-119196053D01*
X196776250Y-119195000D01*
X197213750Y-119195000D01*
X197235191Y-119196053D01*
X197235191Y-119196053D01*
G37*
D14*
X196995000Y-119670000D03*
D13*
G36*
X195660191Y-119196053D02*
G01*
X195681426Y-119199203D01*
X195702250Y-119204419D01*
X195722462Y-119211651D01*
X195741868Y-119220830D01*
X195760281Y-119231866D01*
X195777524Y-119244654D01*
X195793430Y-119259070D01*
X195807846Y-119274976D01*
X195820634Y-119292219D01*
X195831670Y-119310632D01*
X195840849Y-119330038D01*
X195848081Y-119350250D01*
X195853297Y-119371074D01*
X195856447Y-119392309D01*
X195857500Y-119413750D01*
X195857500Y-119926250D01*
X195856447Y-119947691D01*
X195853297Y-119968926D01*
X195848081Y-119989750D01*
X195840849Y-120009962D01*
X195831670Y-120029368D01*
X195820634Y-120047781D01*
X195807846Y-120065024D01*
X195793430Y-120080930D01*
X195777524Y-120095346D01*
X195760281Y-120108134D01*
X195741868Y-120119170D01*
X195722462Y-120128349D01*
X195702250Y-120135581D01*
X195681426Y-120140797D01*
X195660191Y-120143947D01*
X195638750Y-120145000D01*
X195201250Y-120145000D01*
X195179809Y-120143947D01*
X195158574Y-120140797D01*
X195137750Y-120135581D01*
X195117538Y-120128349D01*
X195098132Y-120119170D01*
X195079719Y-120108134D01*
X195062476Y-120095346D01*
X195046570Y-120080930D01*
X195032154Y-120065024D01*
X195019366Y-120047781D01*
X195008330Y-120029368D01*
X194999151Y-120009962D01*
X194991919Y-119989750D01*
X194986703Y-119968926D01*
X194983553Y-119947691D01*
X194982500Y-119926250D01*
X194982500Y-119413750D01*
X194983553Y-119392309D01*
X194986703Y-119371074D01*
X194991919Y-119350250D01*
X194999151Y-119330038D01*
X195008330Y-119310632D01*
X195019366Y-119292219D01*
X195032154Y-119274976D01*
X195046570Y-119259070D01*
X195062476Y-119244654D01*
X195079719Y-119231866D01*
X195098132Y-119220830D01*
X195117538Y-119211651D01*
X195137750Y-119204419D01*
X195158574Y-119199203D01*
X195179809Y-119196053D01*
X195201250Y-119195000D01*
X195638750Y-119195000D01*
X195660191Y-119196053D01*
X195660191Y-119196053D01*
G37*
D14*
X195420000Y-119670000D03*
D13*
G36*
X189490191Y-116996053D02*
G01*
X189511426Y-116999203D01*
X189532250Y-117004419D01*
X189552462Y-117011651D01*
X189571868Y-117020830D01*
X189590281Y-117031866D01*
X189607524Y-117044654D01*
X189623430Y-117059070D01*
X189637846Y-117074976D01*
X189650634Y-117092219D01*
X189661670Y-117110632D01*
X189670849Y-117130038D01*
X189678081Y-117150250D01*
X189683297Y-117171074D01*
X189686447Y-117192309D01*
X189687500Y-117213750D01*
X189687500Y-117726250D01*
X189686447Y-117747691D01*
X189683297Y-117768926D01*
X189678081Y-117789750D01*
X189670849Y-117809962D01*
X189661670Y-117829368D01*
X189650634Y-117847781D01*
X189637846Y-117865024D01*
X189623430Y-117880930D01*
X189607524Y-117895346D01*
X189590281Y-117908134D01*
X189571868Y-117919170D01*
X189552462Y-117928349D01*
X189532250Y-117935581D01*
X189511426Y-117940797D01*
X189490191Y-117943947D01*
X189468750Y-117945000D01*
X189031250Y-117945000D01*
X189009809Y-117943947D01*
X188988574Y-117940797D01*
X188967750Y-117935581D01*
X188947538Y-117928349D01*
X188928132Y-117919170D01*
X188909719Y-117908134D01*
X188892476Y-117895346D01*
X188876570Y-117880930D01*
X188862154Y-117865024D01*
X188849366Y-117847781D01*
X188838330Y-117829368D01*
X188829151Y-117809962D01*
X188821919Y-117789750D01*
X188816703Y-117768926D01*
X188813553Y-117747691D01*
X188812500Y-117726250D01*
X188812500Y-117213750D01*
X188813553Y-117192309D01*
X188816703Y-117171074D01*
X188821919Y-117150250D01*
X188829151Y-117130038D01*
X188838330Y-117110632D01*
X188849366Y-117092219D01*
X188862154Y-117074976D01*
X188876570Y-117059070D01*
X188892476Y-117044654D01*
X188909719Y-117031866D01*
X188928132Y-117020830D01*
X188947538Y-117011651D01*
X188967750Y-117004419D01*
X188988574Y-116999203D01*
X189009809Y-116996053D01*
X189031250Y-116995000D01*
X189468750Y-116995000D01*
X189490191Y-116996053D01*
X189490191Y-116996053D01*
G37*
D14*
X189250000Y-117470000D03*
D13*
G36*
X187915191Y-116996053D02*
G01*
X187936426Y-116999203D01*
X187957250Y-117004419D01*
X187977462Y-117011651D01*
X187996868Y-117020830D01*
X188015281Y-117031866D01*
X188032524Y-117044654D01*
X188048430Y-117059070D01*
X188062846Y-117074976D01*
X188075634Y-117092219D01*
X188086670Y-117110632D01*
X188095849Y-117130038D01*
X188103081Y-117150250D01*
X188108297Y-117171074D01*
X188111447Y-117192309D01*
X188112500Y-117213750D01*
X188112500Y-117726250D01*
X188111447Y-117747691D01*
X188108297Y-117768926D01*
X188103081Y-117789750D01*
X188095849Y-117809962D01*
X188086670Y-117829368D01*
X188075634Y-117847781D01*
X188062846Y-117865024D01*
X188048430Y-117880930D01*
X188032524Y-117895346D01*
X188015281Y-117908134D01*
X187996868Y-117919170D01*
X187977462Y-117928349D01*
X187957250Y-117935581D01*
X187936426Y-117940797D01*
X187915191Y-117943947D01*
X187893750Y-117945000D01*
X187456250Y-117945000D01*
X187434809Y-117943947D01*
X187413574Y-117940797D01*
X187392750Y-117935581D01*
X187372538Y-117928349D01*
X187353132Y-117919170D01*
X187334719Y-117908134D01*
X187317476Y-117895346D01*
X187301570Y-117880930D01*
X187287154Y-117865024D01*
X187274366Y-117847781D01*
X187263330Y-117829368D01*
X187254151Y-117809962D01*
X187246919Y-117789750D01*
X187241703Y-117768926D01*
X187238553Y-117747691D01*
X187237500Y-117726250D01*
X187237500Y-117213750D01*
X187238553Y-117192309D01*
X187241703Y-117171074D01*
X187246919Y-117150250D01*
X187254151Y-117130038D01*
X187263330Y-117110632D01*
X187274366Y-117092219D01*
X187287154Y-117074976D01*
X187301570Y-117059070D01*
X187317476Y-117044654D01*
X187334719Y-117031866D01*
X187353132Y-117020830D01*
X187372538Y-117011651D01*
X187392750Y-117004419D01*
X187413574Y-116999203D01*
X187434809Y-116996053D01*
X187456250Y-116995000D01*
X187893750Y-116995000D01*
X187915191Y-116996053D01*
X187915191Y-116996053D01*
G37*
D14*
X187675000Y-117470000D03*
D13*
G36*
X190312691Y-106986053D02*
G01*
X190333926Y-106989203D01*
X190354750Y-106994419D01*
X190374962Y-107001651D01*
X190394368Y-107010830D01*
X190412781Y-107021866D01*
X190430024Y-107034654D01*
X190445930Y-107049070D01*
X190460346Y-107064976D01*
X190473134Y-107082219D01*
X190484170Y-107100632D01*
X190493349Y-107120038D01*
X190500581Y-107140250D01*
X190505797Y-107161074D01*
X190508947Y-107182309D01*
X190510000Y-107203750D01*
X190510000Y-107716250D01*
X190508947Y-107737691D01*
X190505797Y-107758926D01*
X190500581Y-107779750D01*
X190493349Y-107799962D01*
X190484170Y-107819368D01*
X190473134Y-107837781D01*
X190460346Y-107855024D01*
X190445930Y-107870930D01*
X190430024Y-107885346D01*
X190412781Y-107898134D01*
X190394368Y-107909170D01*
X190374962Y-107918349D01*
X190354750Y-107925581D01*
X190333926Y-107930797D01*
X190312691Y-107933947D01*
X190291250Y-107935000D01*
X189853750Y-107935000D01*
X189832309Y-107933947D01*
X189811074Y-107930797D01*
X189790250Y-107925581D01*
X189770038Y-107918349D01*
X189750632Y-107909170D01*
X189732219Y-107898134D01*
X189714976Y-107885346D01*
X189699070Y-107870930D01*
X189684654Y-107855024D01*
X189671866Y-107837781D01*
X189660830Y-107819368D01*
X189651651Y-107799962D01*
X189644419Y-107779750D01*
X189639203Y-107758926D01*
X189636053Y-107737691D01*
X189635000Y-107716250D01*
X189635000Y-107203750D01*
X189636053Y-107182309D01*
X189639203Y-107161074D01*
X189644419Y-107140250D01*
X189651651Y-107120038D01*
X189660830Y-107100632D01*
X189671866Y-107082219D01*
X189684654Y-107064976D01*
X189699070Y-107049070D01*
X189714976Y-107034654D01*
X189732219Y-107021866D01*
X189750632Y-107010830D01*
X189770038Y-107001651D01*
X189790250Y-106994419D01*
X189811074Y-106989203D01*
X189832309Y-106986053D01*
X189853750Y-106985000D01*
X190291250Y-106985000D01*
X190312691Y-106986053D01*
X190312691Y-106986053D01*
G37*
D14*
X190072500Y-107460000D03*
D13*
G36*
X191887691Y-106986053D02*
G01*
X191908926Y-106989203D01*
X191929750Y-106994419D01*
X191949962Y-107001651D01*
X191969368Y-107010830D01*
X191987781Y-107021866D01*
X192005024Y-107034654D01*
X192020930Y-107049070D01*
X192035346Y-107064976D01*
X192048134Y-107082219D01*
X192059170Y-107100632D01*
X192068349Y-107120038D01*
X192075581Y-107140250D01*
X192080797Y-107161074D01*
X192083947Y-107182309D01*
X192085000Y-107203750D01*
X192085000Y-107716250D01*
X192083947Y-107737691D01*
X192080797Y-107758926D01*
X192075581Y-107779750D01*
X192068349Y-107799962D01*
X192059170Y-107819368D01*
X192048134Y-107837781D01*
X192035346Y-107855024D01*
X192020930Y-107870930D01*
X192005024Y-107885346D01*
X191987781Y-107898134D01*
X191969368Y-107909170D01*
X191949962Y-107918349D01*
X191929750Y-107925581D01*
X191908926Y-107930797D01*
X191887691Y-107933947D01*
X191866250Y-107935000D01*
X191428750Y-107935000D01*
X191407309Y-107933947D01*
X191386074Y-107930797D01*
X191365250Y-107925581D01*
X191345038Y-107918349D01*
X191325632Y-107909170D01*
X191307219Y-107898134D01*
X191289976Y-107885346D01*
X191274070Y-107870930D01*
X191259654Y-107855024D01*
X191246866Y-107837781D01*
X191235830Y-107819368D01*
X191226651Y-107799962D01*
X191219419Y-107779750D01*
X191214203Y-107758926D01*
X191211053Y-107737691D01*
X191210000Y-107716250D01*
X191210000Y-107203750D01*
X191211053Y-107182309D01*
X191214203Y-107161074D01*
X191219419Y-107140250D01*
X191226651Y-107120038D01*
X191235830Y-107100632D01*
X191246866Y-107082219D01*
X191259654Y-107064976D01*
X191274070Y-107049070D01*
X191289976Y-107034654D01*
X191307219Y-107021866D01*
X191325632Y-107010830D01*
X191345038Y-107001651D01*
X191365250Y-106994419D01*
X191386074Y-106989203D01*
X191407309Y-106986053D01*
X191428750Y-106985000D01*
X191866250Y-106985000D01*
X191887691Y-106986053D01*
X191887691Y-106986053D01*
G37*
D14*
X191647500Y-107460000D03*
D13*
G36*
X200520191Y-108996053D02*
G01*
X200541426Y-108999203D01*
X200562250Y-109004419D01*
X200582462Y-109011651D01*
X200601868Y-109020830D01*
X200620281Y-109031866D01*
X200637524Y-109044654D01*
X200653430Y-109059070D01*
X200667846Y-109074976D01*
X200680634Y-109092219D01*
X200691670Y-109110632D01*
X200700849Y-109130038D01*
X200708081Y-109150250D01*
X200713297Y-109171074D01*
X200716447Y-109192309D01*
X200717500Y-109213750D01*
X200717500Y-109726250D01*
X200716447Y-109747691D01*
X200713297Y-109768926D01*
X200708081Y-109789750D01*
X200700849Y-109809962D01*
X200691670Y-109829368D01*
X200680634Y-109847781D01*
X200667846Y-109865024D01*
X200653430Y-109880930D01*
X200637524Y-109895346D01*
X200620281Y-109908134D01*
X200601868Y-109919170D01*
X200582462Y-109928349D01*
X200562250Y-109935581D01*
X200541426Y-109940797D01*
X200520191Y-109943947D01*
X200498750Y-109945000D01*
X200061250Y-109945000D01*
X200039809Y-109943947D01*
X200018574Y-109940797D01*
X199997750Y-109935581D01*
X199977538Y-109928349D01*
X199958132Y-109919170D01*
X199939719Y-109908134D01*
X199922476Y-109895346D01*
X199906570Y-109880930D01*
X199892154Y-109865024D01*
X199879366Y-109847781D01*
X199868330Y-109829368D01*
X199859151Y-109809962D01*
X199851919Y-109789750D01*
X199846703Y-109768926D01*
X199843553Y-109747691D01*
X199842500Y-109726250D01*
X199842500Y-109213750D01*
X199843553Y-109192309D01*
X199846703Y-109171074D01*
X199851919Y-109150250D01*
X199859151Y-109130038D01*
X199868330Y-109110632D01*
X199879366Y-109092219D01*
X199892154Y-109074976D01*
X199906570Y-109059070D01*
X199922476Y-109044654D01*
X199939719Y-109031866D01*
X199958132Y-109020830D01*
X199977538Y-109011651D01*
X199997750Y-109004419D01*
X200018574Y-108999203D01*
X200039809Y-108996053D01*
X200061250Y-108995000D01*
X200498750Y-108995000D01*
X200520191Y-108996053D01*
X200520191Y-108996053D01*
G37*
D14*
X200280000Y-109470000D03*
D13*
G36*
X202095191Y-108996053D02*
G01*
X202116426Y-108999203D01*
X202137250Y-109004419D01*
X202157462Y-109011651D01*
X202176868Y-109020830D01*
X202195281Y-109031866D01*
X202212524Y-109044654D01*
X202228430Y-109059070D01*
X202242846Y-109074976D01*
X202255634Y-109092219D01*
X202266670Y-109110632D01*
X202275849Y-109130038D01*
X202283081Y-109150250D01*
X202288297Y-109171074D01*
X202291447Y-109192309D01*
X202292500Y-109213750D01*
X202292500Y-109726250D01*
X202291447Y-109747691D01*
X202288297Y-109768926D01*
X202283081Y-109789750D01*
X202275849Y-109809962D01*
X202266670Y-109829368D01*
X202255634Y-109847781D01*
X202242846Y-109865024D01*
X202228430Y-109880930D01*
X202212524Y-109895346D01*
X202195281Y-109908134D01*
X202176868Y-109919170D01*
X202157462Y-109928349D01*
X202137250Y-109935581D01*
X202116426Y-109940797D01*
X202095191Y-109943947D01*
X202073750Y-109945000D01*
X201636250Y-109945000D01*
X201614809Y-109943947D01*
X201593574Y-109940797D01*
X201572750Y-109935581D01*
X201552538Y-109928349D01*
X201533132Y-109919170D01*
X201514719Y-109908134D01*
X201497476Y-109895346D01*
X201481570Y-109880930D01*
X201467154Y-109865024D01*
X201454366Y-109847781D01*
X201443330Y-109829368D01*
X201434151Y-109809962D01*
X201426919Y-109789750D01*
X201421703Y-109768926D01*
X201418553Y-109747691D01*
X201417500Y-109726250D01*
X201417500Y-109213750D01*
X201418553Y-109192309D01*
X201421703Y-109171074D01*
X201426919Y-109150250D01*
X201434151Y-109130038D01*
X201443330Y-109110632D01*
X201454366Y-109092219D01*
X201467154Y-109074976D01*
X201481570Y-109059070D01*
X201497476Y-109044654D01*
X201514719Y-109031866D01*
X201533132Y-109020830D01*
X201552538Y-109011651D01*
X201572750Y-109004419D01*
X201593574Y-108999203D01*
X201614809Y-108996053D01*
X201636250Y-108995000D01*
X202073750Y-108995000D01*
X202095191Y-108996053D01*
X202095191Y-108996053D01*
G37*
D14*
X201855000Y-109470000D03*
D13*
G36*
X191027691Y-118493553D02*
G01*
X191048926Y-118496703D01*
X191069750Y-118501919D01*
X191089962Y-118509151D01*
X191109368Y-118518330D01*
X191127781Y-118529366D01*
X191145024Y-118542154D01*
X191160930Y-118556570D01*
X191175346Y-118572476D01*
X191188134Y-118589719D01*
X191199170Y-118608132D01*
X191208349Y-118627538D01*
X191215581Y-118647750D01*
X191220797Y-118668574D01*
X191223947Y-118689809D01*
X191225000Y-118711250D01*
X191225000Y-119148750D01*
X191223947Y-119170191D01*
X191220797Y-119191426D01*
X191215581Y-119212250D01*
X191208349Y-119232462D01*
X191199170Y-119251868D01*
X191188134Y-119270281D01*
X191175346Y-119287524D01*
X191160930Y-119303430D01*
X191145024Y-119317846D01*
X191127781Y-119330634D01*
X191109368Y-119341670D01*
X191089962Y-119350849D01*
X191069750Y-119358081D01*
X191048926Y-119363297D01*
X191027691Y-119366447D01*
X191006250Y-119367500D01*
X190493750Y-119367500D01*
X190472309Y-119366447D01*
X190451074Y-119363297D01*
X190430250Y-119358081D01*
X190410038Y-119350849D01*
X190390632Y-119341670D01*
X190372219Y-119330634D01*
X190354976Y-119317846D01*
X190339070Y-119303430D01*
X190324654Y-119287524D01*
X190311866Y-119270281D01*
X190300830Y-119251868D01*
X190291651Y-119232462D01*
X190284419Y-119212250D01*
X190279203Y-119191426D01*
X190276053Y-119170191D01*
X190275000Y-119148750D01*
X190275000Y-118711250D01*
X190276053Y-118689809D01*
X190279203Y-118668574D01*
X190284419Y-118647750D01*
X190291651Y-118627538D01*
X190300830Y-118608132D01*
X190311866Y-118589719D01*
X190324654Y-118572476D01*
X190339070Y-118556570D01*
X190354976Y-118542154D01*
X190372219Y-118529366D01*
X190390632Y-118518330D01*
X190410038Y-118509151D01*
X190430250Y-118501919D01*
X190451074Y-118496703D01*
X190472309Y-118493553D01*
X190493750Y-118492500D01*
X191006250Y-118492500D01*
X191027691Y-118493553D01*
X191027691Y-118493553D01*
G37*
D14*
X190750000Y-118930000D03*
D13*
G36*
X191027691Y-120068553D02*
G01*
X191048926Y-120071703D01*
X191069750Y-120076919D01*
X191089962Y-120084151D01*
X191109368Y-120093330D01*
X191127781Y-120104366D01*
X191145024Y-120117154D01*
X191160930Y-120131570D01*
X191175346Y-120147476D01*
X191188134Y-120164719D01*
X191199170Y-120183132D01*
X191208349Y-120202538D01*
X191215581Y-120222750D01*
X191220797Y-120243574D01*
X191223947Y-120264809D01*
X191225000Y-120286250D01*
X191225000Y-120723750D01*
X191223947Y-120745191D01*
X191220797Y-120766426D01*
X191215581Y-120787250D01*
X191208349Y-120807462D01*
X191199170Y-120826868D01*
X191188134Y-120845281D01*
X191175346Y-120862524D01*
X191160930Y-120878430D01*
X191145024Y-120892846D01*
X191127781Y-120905634D01*
X191109368Y-120916670D01*
X191089962Y-120925849D01*
X191069750Y-120933081D01*
X191048926Y-120938297D01*
X191027691Y-120941447D01*
X191006250Y-120942500D01*
X190493750Y-120942500D01*
X190472309Y-120941447D01*
X190451074Y-120938297D01*
X190430250Y-120933081D01*
X190410038Y-120925849D01*
X190390632Y-120916670D01*
X190372219Y-120905634D01*
X190354976Y-120892846D01*
X190339070Y-120878430D01*
X190324654Y-120862524D01*
X190311866Y-120845281D01*
X190300830Y-120826868D01*
X190291651Y-120807462D01*
X190284419Y-120787250D01*
X190279203Y-120766426D01*
X190276053Y-120745191D01*
X190275000Y-120723750D01*
X190275000Y-120286250D01*
X190276053Y-120264809D01*
X190279203Y-120243574D01*
X190284419Y-120222750D01*
X190291651Y-120202538D01*
X190300830Y-120183132D01*
X190311866Y-120164719D01*
X190324654Y-120147476D01*
X190339070Y-120131570D01*
X190354976Y-120117154D01*
X190372219Y-120104366D01*
X190390632Y-120093330D01*
X190410038Y-120084151D01*
X190430250Y-120076919D01*
X190451074Y-120071703D01*
X190472309Y-120068553D01*
X190493750Y-120067500D01*
X191006250Y-120067500D01*
X191027691Y-120068553D01*
X191027691Y-120068553D01*
G37*
D14*
X190750000Y-120505000D03*
D13*
G36*
X191890191Y-105466053D02*
G01*
X191911426Y-105469203D01*
X191932250Y-105474419D01*
X191952462Y-105481651D01*
X191971868Y-105490830D01*
X191990281Y-105501866D01*
X192007524Y-105514654D01*
X192023430Y-105529070D01*
X192037846Y-105544976D01*
X192050634Y-105562219D01*
X192061670Y-105580632D01*
X192070849Y-105600038D01*
X192078081Y-105620250D01*
X192083297Y-105641074D01*
X192086447Y-105662309D01*
X192087500Y-105683750D01*
X192087500Y-106196250D01*
X192086447Y-106217691D01*
X192083297Y-106238926D01*
X192078081Y-106259750D01*
X192070849Y-106279962D01*
X192061670Y-106299368D01*
X192050634Y-106317781D01*
X192037846Y-106335024D01*
X192023430Y-106350930D01*
X192007524Y-106365346D01*
X191990281Y-106378134D01*
X191971868Y-106389170D01*
X191952462Y-106398349D01*
X191932250Y-106405581D01*
X191911426Y-106410797D01*
X191890191Y-106413947D01*
X191868750Y-106415000D01*
X191431250Y-106415000D01*
X191409809Y-106413947D01*
X191388574Y-106410797D01*
X191367750Y-106405581D01*
X191347538Y-106398349D01*
X191328132Y-106389170D01*
X191309719Y-106378134D01*
X191292476Y-106365346D01*
X191276570Y-106350930D01*
X191262154Y-106335024D01*
X191249366Y-106317781D01*
X191238330Y-106299368D01*
X191229151Y-106279962D01*
X191221919Y-106259750D01*
X191216703Y-106238926D01*
X191213553Y-106217691D01*
X191212500Y-106196250D01*
X191212500Y-105683750D01*
X191213553Y-105662309D01*
X191216703Y-105641074D01*
X191221919Y-105620250D01*
X191229151Y-105600038D01*
X191238330Y-105580632D01*
X191249366Y-105562219D01*
X191262154Y-105544976D01*
X191276570Y-105529070D01*
X191292476Y-105514654D01*
X191309719Y-105501866D01*
X191328132Y-105490830D01*
X191347538Y-105481651D01*
X191367750Y-105474419D01*
X191388574Y-105469203D01*
X191409809Y-105466053D01*
X191431250Y-105465000D01*
X191868750Y-105465000D01*
X191890191Y-105466053D01*
X191890191Y-105466053D01*
G37*
D14*
X191650000Y-105940000D03*
D13*
G36*
X190315191Y-105466053D02*
G01*
X190336426Y-105469203D01*
X190357250Y-105474419D01*
X190377462Y-105481651D01*
X190396868Y-105490830D01*
X190415281Y-105501866D01*
X190432524Y-105514654D01*
X190448430Y-105529070D01*
X190462846Y-105544976D01*
X190475634Y-105562219D01*
X190486670Y-105580632D01*
X190495849Y-105600038D01*
X190503081Y-105620250D01*
X190508297Y-105641074D01*
X190511447Y-105662309D01*
X190512500Y-105683750D01*
X190512500Y-106196250D01*
X190511447Y-106217691D01*
X190508297Y-106238926D01*
X190503081Y-106259750D01*
X190495849Y-106279962D01*
X190486670Y-106299368D01*
X190475634Y-106317781D01*
X190462846Y-106335024D01*
X190448430Y-106350930D01*
X190432524Y-106365346D01*
X190415281Y-106378134D01*
X190396868Y-106389170D01*
X190377462Y-106398349D01*
X190357250Y-106405581D01*
X190336426Y-106410797D01*
X190315191Y-106413947D01*
X190293750Y-106415000D01*
X189856250Y-106415000D01*
X189834809Y-106413947D01*
X189813574Y-106410797D01*
X189792750Y-106405581D01*
X189772538Y-106398349D01*
X189753132Y-106389170D01*
X189734719Y-106378134D01*
X189717476Y-106365346D01*
X189701570Y-106350930D01*
X189687154Y-106335024D01*
X189674366Y-106317781D01*
X189663330Y-106299368D01*
X189654151Y-106279962D01*
X189646919Y-106259750D01*
X189641703Y-106238926D01*
X189638553Y-106217691D01*
X189637500Y-106196250D01*
X189637500Y-105683750D01*
X189638553Y-105662309D01*
X189641703Y-105641074D01*
X189646919Y-105620250D01*
X189654151Y-105600038D01*
X189663330Y-105580632D01*
X189674366Y-105562219D01*
X189687154Y-105544976D01*
X189701570Y-105529070D01*
X189717476Y-105514654D01*
X189734719Y-105501866D01*
X189753132Y-105490830D01*
X189772538Y-105481651D01*
X189792750Y-105474419D01*
X189813574Y-105469203D01*
X189834809Y-105466053D01*
X189856250Y-105465000D01*
X190293750Y-105465000D01*
X190315191Y-105466053D01*
X190315191Y-105466053D01*
G37*
D14*
X190075000Y-105940000D03*
D13*
G36*
X188950191Y-90036053D02*
G01*
X188971426Y-90039203D01*
X188992250Y-90044419D01*
X189012462Y-90051651D01*
X189031868Y-90060830D01*
X189050281Y-90071866D01*
X189067524Y-90084654D01*
X189083430Y-90099070D01*
X189097846Y-90114976D01*
X189110634Y-90132219D01*
X189121670Y-90150632D01*
X189130849Y-90170038D01*
X189138081Y-90190250D01*
X189143297Y-90211074D01*
X189146447Y-90232309D01*
X189147500Y-90253750D01*
X189147500Y-90766250D01*
X189146447Y-90787691D01*
X189143297Y-90808926D01*
X189138081Y-90829750D01*
X189130849Y-90849962D01*
X189121670Y-90869368D01*
X189110634Y-90887781D01*
X189097846Y-90905024D01*
X189083430Y-90920930D01*
X189067524Y-90935346D01*
X189050281Y-90948134D01*
X189031868Y-90959170D01*
X189012462Y-90968349D01*
X188992250Y-90975581D01*
X188971426Y-90980797D01*
X188950191Y-90983947D01*
X188928750Y-90985000D01*
X188491250Y-90985000D01*
X188469809Y-90983947D01*
X188448574Y-90980797D01*
X188427750Y-90975581D01*
X188407538Y-90968349D01*
X188388132Y-90959170D01*
X188369719Y-90948134D01*
X188352476Y-90935346D01*
X188336570Y-90920930D01*
X188322154Y-90905024D01*
X188309366Y-90887781D01*
X188298330Y-90869368D01*
X188289151Y-90849962D01*
X188281919Y-90829750D01*
X188276703Y-90808926D01*
X188273553Y-90787691D01*
X188272500Y-90766250D01*
X188272500Y-90253750D01*
X188273553Y-90232309D01*
X188276703Y-90211074D01*
X188281919Y-90190250D01*
X188289151Y-90170038D01*
X188298330Y-90150632D01*
X188309366Y-90132219D01*
X188322154Y-90114976D01*
X188336570Y-90099070D01*
X188352476Y-90084654D01*
X188369719Y-90071866D01*
X188388132Y-90060830D01*
X188407538Y-90051651D01*
X188427750Y-90044419D01*
X188448574Y-90039203D01*
X188469809Y-90036053D01*
X188491250Y-90035000D01*
X188928750Y-90035000D01*
X188950191Y-90036053D01*
X188950191Y-90036053D01*
G37*
D14*
X188710000Y-90510000D03*
D13*
G36*
X187375191Y-90036053D02*
G01*
X187396426Y-90039203D01*
X187417250Y-90044419D01*
X187437462Y-90051651D01*
X187456868Y-90060830D01*
X187475281Y-90071866D01*
X187492524Y-90084654D01*
X187508430Y-90099070D01*
X187522846Y-90114976D01*
X187535634Y-90132219D01*
X187546670Y-90150632D01*
X187555849Y-90170038D01*
X187563081Y-90190250D01*
X187568297Y-90211074D01*
X187571447Y-90232309D01*
X187572500Y-90253750D01*
X187572500Y-90766250D01*
X187571447Y-90787691D01*
X187568297Y-90808926D01*
X187563081Y-90829750D01*
X187555849Y-90849962D01*
X187546670Y-90869368D01*
X187535634Y-90887781D01*
X187522846Y-90905024D01*
X187508430Y-90920930D01*
X187492524Y-90935346D01*
X187475281Y-90948134D01*
X187456868Y-90959170D01*
X187437462Y-90968349D01*
X187417250Y-90975581D01*
X187396426Y-90980797D01*
X187375191Y-90983947D01*
X187353750Y-90985000D01*
X186916250Y-90985000D01*
X186894809Y-90983947D01*
X186873574Y-90980797D01*
X186852750Y-90975581D01*
X186832538Y-90968349D01*
X186813132Y-90959170D01*
X186794719Y-90948134D01*
X186777476Y-90935346D01*
X186761570Y-90920930D01*
X186747154Y-90905024D01*
X186734366Y-90887781D01*
X186723330Y-90869368D01*
X186714151Y-90849962D01*
X186706919Y-90829750D01*
X186701703Y-90808926D01*
X186698553Y-90787691D01*
X186697500Y-90766250D01*
X186697500Y-90253750D01*
X186698553Y-90232309D01*
X186701703Y-90211074D01*
X186706919Y-90190250D01*
X186714151Y-90170038D01*
X186723330Y-90150632D01*
X186734366Y-90132219D01*
X186747154Y-90114976D01*
X186761570Y-90099070D01*
X186777476Y-90084654D01*
X186794719Y-90071866D01*
X186813132Y-90060830D01*
X186832538Y-90051651D01*
X186852750Y-90044419D01*
X186873574Y-90039203D01*
X186894809Y-90036053D01*
X186916250Y-90035000D01*
X187353750Y-90035000D01*
X187375191Y-90036053D01*
X187375191Y-90036053D01*
G37*
D14*
X187135000Y-90510000D03*
D13*
G36*
X194132691Y-90036053D02*
G01*
X194153926Y-90039203D01*
X194174750Y-90044419D01*
X194194962Y-90051651D01*
X194214368Y-90060830D01*
X194232781Y-90071866D01*
X194250024Y-90084654D01*
X194265930Y-90099070D01*
X194280346Y-90114976D01*
X194293134Y-90132219D01*
X194304170Y-90150632D01*
X194313349Y-90170038D01*
X194320581Y-90190250D01*
X194325797Y-90211074D01*
X194328947Y-90232309D01*
X194330000Y-90253750D01*
X194330000Y-90766250D01*
X194328947Y-90787691D01*
X194325797Y-90808926D01*
X194320581Y-90829750D01*
X194313349Y-90849962D01*
X194304170Y-90869368D01*
X194293134Y-90887781D01*
X194280346Y-90905024D01*
X194265930Y-90920930D01*
X194250024Y-90935346D01*
X194232781Y-90948134D01*
X194214368Y-90959170D01*
X194194962Y-90968349D01*
X194174750Y-90975581D01*
X194153926Y-90980797D01*
X194132691Y-90983947D01*
X194111250Y-90985000D01*
X193673750Y-90985000D01*
X193652309Y-90983947D01*
X193631074Y-90980797D01*
X193610250Y-90975581D01*
X193590038Y-90968349D01*
X193570632Y-90959170D01*
X193552219Y-90948134D01*
X193534976Y-90935346D01*
X193519070Y-90920930D01*
X193504654Y-90905024D01*
X193491866Y-90887781D01*
X193480830Y-90869368D01*
X193471651Y-90849962D01*
X193464419Y-90829750D01*
X193459203Y-90808926D01*
X193456053Y-90787691D01*
X193455000Y-90766250D01*
X193455000Y-90253750D01*
X193456053Y-90232309D01*
X193459203Y-90211074D01*
X193464419Y-90190250D01*
X193471651Y-90170038D01*
X193480830Y-90150632D01*
X193491866Y-90132219D01*
X193504654Y-90114976D01*
X193519070Y-90099070D01*
X193534976Y-90084654D01*
X193552219Y-90071866D01*
X193570632Y-90060830D01*
X193590038Y-90051651D01*
X193610250Y-90044419D01*
X193631074Y-90039203D01*
X193652309Y-90036053D01*
X193673750Y-90035000D01*
X194111250Y-90035000D01*
X194132691Y-90036053D01*
X194132691Y-90036053D01*
G37*
D14*
X193892500Y-90510000D03*
D13*
G36*
X195707691Y-90036053D02*
G01*
X195728926Y-90039203D01*
X195749750Y-90044419D01*
X195769962Y-90051651D01*
X195789368Y-90060830D01*
X195807781Y-90071866D01*
X195825024Y-90084654D01*
X195840930Y-90099070D01*
X195855346Y-90114976D01*
X195868134Y-90132219D01*
X195879170Y-90150632D01*
X195888349Y-90170038D01*
X195895581Y-90190250D01*
X195900797Y-90211074D01*
X195903947Y-90232309D01*
X195905000Y-90253750D01*
X195905000Y-90766250D01*
X195903947Y-90787691D01*
X195900797Y-90808926D01*
X195895581Y-90829750D01*
X195888349Y-90849962D01*
X195879170Y-90869368D01*
X195868134Y-90887781D01*
X195855346Y-90905024D01*
X195840930Y-90920930D01*
X195825024Y-90935346D01*
X195807781Y-90948134D01*
X195789368Y-90959170D01*
X195769962Y-90968349D01*
X195749750Y-90975581D01*
X195728926Y-90980797D01*
X195707691Y-90983947D01*
X195686250Y-90985000D01*
X195248750Y-90985000D01*
X195227309Y-90983947D01*
X195206074Y-90980797D01*
X195185250Y-90975581D01*
X195165038Y-90968349D01*
X195145632Y-90959170D01*
X195127219Y-90948134D01*
X195109976Y-90935346D01*
X195094070Y-90920930D01*
X195079654Y-90905024D01*
X195066866Y-90887781D01*
X195055830Y-90869368D01*
X195046651Y-90849962D01*
X195039419Y-90829750D01*
X195034203Y-90808926D01*
X195031053Y-90787691D01*
X195030000Y-90766250D01*
X195030000Y-90253750D01*
X195031053Y-90232309D01*
X195034203Y-90211074D01*
X195039419Y-90190250D01*
X195046651Y-90170038D01*
X195055830Y-90150632D01*
X195066866Y-90132219D01*
X195079654Y-90114976D01*
X195094070Y-90099070D01*
X195109976Y-90084654D01*
X195127219Y-90071866D01*
X195145632Y-90060830D01*
X195165038Y-90051651D01*
X195185250Y-90044419D01*
X195206074Y-90039203D01*
X195227309Y-90036053D01*
X195248750Y-90035000D01*
X195686250Y-90035000D01*
X195707691Y-90036053D01*
X195707691Y-90036053D01*
G37*
D14*
X195467500Y-90510000D03*
D13*
G36*
X187929504Y-93938704D02*
G01*
X187953773Y-93942304D01*
X187977571Y-93948265D01*
X188000671Y-93956530D01*
X188022849Y-93967020D01*
X188043893Y-93979633D01*
X188063598Y-93994247D01*
X188081777Y-94010723D01*
X188098253Y-94028902D01*
X188112867Y-94048607D01*
X188125480Y-94069651D01*
X188135970Y-94091829D01*
X188144235Y-94114929D01*
X188150196Y-94138727D01*
X188153796Y-94162996D01*
X188155000Y-94187500D01*
X188155000Y-95112500D01*
X188153796Y-95137004D01*
X188150196Y-95161273D01*
X188144235Y-95185071D01*
X188135970Y-95208171D01*
X188125480Y-95230349D01*
X188112867Y-95251393D01*
X188098253Y-95271098D01*
X188081777Y-95289277D01*
X188063598Y-95305753D01*
X188043893Y-95320367D01*
X188022849Y-95332980D01*
X188000671Y-95343470D01*
X187977571Y-95351735D01*
X187953773Y-95357696D01*
X187929504Y-95361296D01*
X187905000Y-95362500D01*
X186655000Y-95362500D01*
X186630496Y-95361296D01*
X186606227Y-95357696D01*
X186582429Y-95351735D01*
X186559329Y-95343470D01*
X186537151Y-95332980D01*
X186516107Y-95320367D01*
X186496402Y-95305753D01*
X186478223Y-95289277D01*
X186461747Y-95271098D01*
X186447133Y-95251393D01*
X186434520Y-95230349D01*
X186424030Y-95208171D01*
X186415765Y-95185071D01*
X186409804Y-95161273D01*
X186406204Y-95137004D01*
X186405000Y-95112500D01*
X186405000Y-94187500D01*
X186406204Y-94162996D01*
X186409804Y-94138727D01*
X186415765Y-94114929D01*
X186424030Y-94091829D01*
X186434520Y-94069651D01*
X186447133Y-94048607D01*
X186461747Y-94028902D01*
X186478223Y-94010723D01*
X186496402Y-93994247D01*
X186516107Y-93979633D01*
X186537151Y-93967020D01*
X186559329Y-93956530D01*
X186582429Y-93948265D01*
X186606227Y-93942304D01*
X186630496Y-93938704D01*
X186655000Y-93937500D01*
X187905000Y-93937500D01*
X187929504Y-93938704D01*
X187929504Y-93938704D01*
G37*
D15*
X187280000Y-94650000D03*
D13*
G36*
X187929504Y-96913704D02*
G01*
X187953773Y-96917304D01*
X187977571Y-96923265D01*
X188000671Y-96931530D01*
X188022849Y-96942020D01*
X188043893Y-96954633D01*
X188063598Y-96969247D01*
X188081777Y-96985723D01*
X188098253Y-97003902D01*
X188112867Y-97023607D01*
X188125480Y-97044651D01*
X188135970Y-97066829D01*
X188144235Y-97089929D01*
X188150196Y-97113727D01*
X188153796Y-97137996D01*
X188155000Y-97162500D01*
X188155000Y-98087500D01*
X188153796Y-98112004D01*
X188150196Y-98136273D01*
X188144235Y-98160071D01*
X188135970Y-98183171D01*
X188125480Y-98205349D01*
X188112867Y-98226393D01*
X188098253Y-98246098D01*
X188081777Y-98264277D01*
X188063598Y-98280753D01*
X188043893Y-98295367D01*
X188022849Y-98307980D01*
X188000671Y-98318470D01*
X187977571Y-98326735D01*
X187953773Y-98332696D01*
X187929504Y-98336296D01*
X187905000Y-98337500D01*
X186655000Y-98337500D01*
X186630496Y-98336296D01*
X186606227Y-98332696D01*
X186582429Y-98326735D01*
X186559329Y-98318470D01*
X186537151Y-98307980D01*
X186516107Y-98295367D01*
X186496402Y-98280753D01*
X186478223Y-98264277D01*
X186461747Y-98246098D01*
X186447133Y-98226393D01*
X186434520Y-98205349D01*
X186424030Y-98183171D01*
X186415765Y-98160071D01*
X186409804Y-98136273D01*
X186406204Y-98112004D01*
X186405000Y-98087500D01*
X186405000Y-97162500D01*
X186406204Y-97137996D01*
X186409804Y-97113727D01*
X186415765Y-97089929D01*
X186424030Y-97066829D01*
X186434520Y-97044651D01*
X186447133Y-97023607D01*
X186461747Y-97003902D01*
X186478223Y-96985723D01*
X186496402Y-96969247D01*
X186516107Y-96954633D01*
X186537151Y-96942020D01*
X186559329Y-96931530D01*
X186582429Y-96923265D01*
X186606227Y-96917304D01*
X186630496Y-96913704D01*
X186655000Y-96912500D01*
X187905000Y-96912500D01*
X187929504Y-96913704D01*
X187929504Y-96913704D01*
G37*
D15*
X187280000Y-97625000D03*
D13*
G36*
X187505191Y-113786053D02*
G01*
X187526426Y-113789203D01*
X187547250Y-113794419D01*
X187567462Y-113801651D01*
X187586868Y-113810830D01*
X187605281Y-113821866D01*
X187622524Y-113834654D01*
X187638430Y-113849070D01*
X187652846Y-113864976D01*
X187665634Y-113882219D01*
X187676670Y-113900632D01*
X187685849Y-113920038D01*
X187693081Y-113940250D01*
X187698297Y-113961074D01*
X187701447Y-113982309D01*
X187702500Y-114003750D01*
X187702500Y-114516250D01*
X187701447Y-114537691D01*
X187698297Y-114558926D01*
X187693081Y-114579750D01*
X187685849Y-114599962D01*
X187676670Y-114619368D01*
X187665634Y-114637781D01*
X187652846Y-114655024D01*
X187638430Y-114670930D01*
X187622524Y-114685346D01*
X187605281Y-114698134D01*
X187586868Y-114709170D01*
X187567462Y-114718349D01*
X187547250Y-114725581D01*
X187526426Y-114730797D01*
X187505191Y-114733947D01*
X187483750Y-114735000D01*
X187046250Y-114735000D01*
X187024809Y-114733947D01*
X187003574Y-114730797D01*
X186982750Y-114725581D01*
X186962538Y-114718349D01*
X186943132Y-114709170D01*
X186924719Y-114698134D01*
X186907476Y-114685346D01*
X186891570Y-114670930D01*
X186877154Y-114655024D01*
X186864366Y-114637781D01*
X186853330Y-114619368D01*
X186844151Y-114599962D01*
X186836919Y-114579750D01*
X186831703Y-114558926D01*
X186828553Y-114537691D01*
X186827500Y-114516250D01*
X186827500Y-114003750D01*
X186828553Y-113982309D01*
X186831703Y-113961074D01*
X186836919Y-113940250D01*
X186844151Y-113920038D01*
X186853330Y-113900632D01*
X186864366Y-113882219D01*
X186877154Y-113864976D01*
X186891570Y-113849070D01*
X186907476Y-113834654D01*
X186924719Y-113821866D01*
X186943132Y-113810830D01*
X186962538Y-113801651D01*
X186982750Y-113794419D01*
X187003574Y-113789203D01*
X187024809Y-113786053D01*
X187046250Y-113785000D01*
X187483750Y-113785000D01*
X187505191Y-113786053D01*
X187505191Y-113786053D01*
G37*
D14*
X187265000Y-114260000D03*
D13*
G36*
X189080191Y-113786053D02*
G01*
X189101426Y-113789203D01*
X189122250Y-113794419D01*
X189142462Y-113801651D01*
X189161868Y-113810830D01*
X189180281Y-113821866D01*
X189197524Y-113834654D01*
X189213430Y-113849070D01*
X189227846Y-113864976D01*
X189240634Y-113882219D01*
X189251670Y-113900632D01*
X189260849Y-113920038D01*
X189268081Y-113940250D01*
X189273297Y-113961074D01*
X189276447Y-113982309D01*
X189277500Y-114003750D01*
X189277500Y-114516250D01*
X189276447Y-114537691D01*
X189273297Y-114558926D01*
X189268081Y-114579750D01*
X189260849Y-114599962D01*
X189251670Y-114619368D01*
X189240634Y-114637781D01*
X189227846Y-114655024D01*
X189213430Y-114670930D01*
X189197524Y-114685346D01*
X189180281Y-114698134D01*
X189161868Y-114709170D01*
X189142462Y-114718349D01*
X189122250Y-114725581D01*
X189101426Y-114730797D01*
X189080191Y-114733947D01*
X189058750Y-114735000D01*
X188621250Y-114735000D01*
X188599809Y-114733947D01*
X188578574Y-114730797D01*
X188557750Y-114725581D01*
X188537538Y-114718349D01*
X188518132Y-114709170D01*
X188499719Y-114698134D01*
X188482476Y-114685346D01*
X188466570Y-114670930D01*
X188452154Y-114655024D01*
X188439366Y-114637781D01*
X188428330Y-114619368D01*
X188419151Y-114599962D01*
X188411919Y-114579750D01*
X188406703Y-114558926D01*
X188403553Y-114537691D01*
X188402500Y-114516250D01*
X188402500Y-114003750D01*
X188403553Y-113982309D01*
X188406703Y-113961074D01*
X188411919Y-113940250D01*
X188419151Y-113920038D01*
X188428330Y-113900632D01*
X188439366Y-113882219D01*
X188452154Y-113864976D01*
X188466570Y-113849070D01*
X188482476Y-113834654D01*
X188499719Y-113821866D01*
X188518132Y-113810830D01*
X188537538Y-113801651D01*
X188557750Y-113794419D01*
X188578574Y-113789203D01*
X188599809Y-113786053D01*
X188621250Y-113785000D01*
X189058750Y-113785000D01*
X189080191Y-113786053D01*
X189080191Y-113786053D01*
G37*
D14*
X188840000Y-114260000D03*
D13*
G36*
X189945191Y-102666053D02*
G01*
X189966426Y-102669203D01*
X189987250Y-102674419D01*
X190007462Y-102681651D01*
X190026868Y-102690830D01*
X190045281Y-102701866D01*
X190062524Y-102714654D01*
X190078430Y-102729070D01*
X190092846Y-102744976D01*
X190105634Y-102762219D01*
X190116670Y-102780632D01*
X190125849Y-102800038D01*
X190133081Y-102820250D01*
X190138297Y-102841074D01*
X190141447Y-102862309D01*
X190142500Y-102883750D01*
X190142500Y-103396250D01*
X190141447Y-103417691D01*
X190138297Y-103438926D01*
X190133081Y-103459750D01*
X190125849Y-103479962D01*
X190116670Y-103499368D01*
X190105634Y-103517781D01*
X190092846Y-103535024D01*
X190078430Y-103550930D01*
X190062524Y-103565346D01*
X190045281Y-103578134D01*
X190026868Y-103589170D01*
X190007462Y-103598349D01*
X189987250Y-103605581D01*
X189966426Y-103610797D01*
X189945191Y-103613947D01*
X189923750Y-103615000D01*
X189486250Y-103615000D01*
X189464809Y-103613947D01*
X189443574Y-103610797D01*
X189422750Y-103605581D01*
X189402538Y-103598349D01*
X189383132Y-103589170D01*
X189364719Y-103578134D01*
X189347476Y-103565346D01*
X189331570Y-103550930D01*
X189317154Y-103535024D01*
X189304366Y-103517781D01*
X189293330Y-103499368D01*
X189284151Y-103479962D01*
X189276919Y-103459750D01*
X189271703Y-103438926D01*
X189268553Y-103417691D01*
X189267500Y-103396250D01*
X189267500Y-102883750D01*
X189268553Y-102862309D01*
X189271703Y-102841074D01*
X189276919Y-102820250D01*
X189284151Y-102800038D01*
X189293330Y-102780632D01*
X189304366Y-102762219D01*
X189317154Y-102744976D01*
X189331570Y-102729070D01*
X189347476Y-102714654D01*
X189364719Y-102701866D01*
X189383132Y-102690830D01*
X189402538Y-102681651D01*
X189422750Y-102674419D01*
X189443574Y-102669203D01*
X189464809Y-102666053D01*
X189486250Y-102665000D01*
X189923750Y-102665000D01*
X189945191Y-102666053D01*
X189945191Y-102666053D01*
G37*
D14*
X189705000Y-103140000D03*
D13*
G36*
X191520191Y-102666053D02*
G01*
X191541426Y-102669203D01*
X191562250Y-102674419D01*
X191582462Y-102681651D01*
X191601868Y-102690830D01*
X191620281Y-102701866D01*
X191637524Y-102714654D01*
X191653430Y-102729070D01*
X191667846Y-102744976D01*
X191680634Y-102762219D01*
X191691670Y-102780632D01*
X191700849Y-102800038D01*
X191708081Y-102820250D01*
X191713297Y-102841074D01*
X191716447Y-102862309D01*
X191717500Y-102883750D01*
X191717500Y-103396250D01*
X191716447Y-103417691D01*
X191713297Y-103438926D01*
X191708081Y-103459750D01*
X191700849Y-103479962D01*
X191691670Y-103499368D01*
X191680634Y-103517781D01*
X191667846Y-103535024D01*
X191653430Y-103550930D01*
X191637524Y-103565346D01*
X191620281Y-103578134D01*
X191601868Y-103589170D01*
X191582462Y-103598349D01*
X191562250Y-103605581D01*
X191541426Y-103610797D01*
X191520191Y-103613947D01*
X191498750Y-103615000D01*
X191061250Y-103615000D01*
X191039809Y-103613947D01*
X191018574Y-103610797D01*
X190997750Y-103605581D01*
X190977538Y-103598349D01*
X190958132Y-103589170D01*
X190939719Y-103578134D01*
X190922476Y-103565346D01*
X190906570Y-103550930D01*
X190892154Y-103535024D01*
X190879366Y-103517781D01*
X190868330Y-103499368D01*
X190859151Y-103479962D01*
X190851919Y-103459750D01*
X190846703Y-103438926D01*
X190843553Y-103417691D01*
X190842500Y-103396250D01*
X190842500Y-102883750D01*
X190843553Y-102862309D01*
X190846703Y-102841074D01*
X190851919Y-102820250D01*
X190859151Y-102800038D01*
X190868330Y-102780632D01*
X190879366Y-102762219D01*
X190892154Y-102744976D01*
X190906570Y-102729070D01*
X190922476Y-102714654D01*
X190939719Y-102701866D01*
X190958132Y-102690830D01*
X190977538Y-102681651D01*
X190997750Y-102674419D01*
X191018574Y-102669203D01*
X191039809Y-102666053D01*
X191061250Y-102665000D01*
X191498750Y-102665000D01*
X191520191Y-102666053D01*
X191520191Y-102666053D01*
G37*
D14*
X191280000Y-103140000D03*
D13*
G36*
X190817691Y-95893553D02*
G01*
X190838926Y-95896703D01*
X190859750Y-95901919D01*
X190879962Y-95909151D01*
X190899368Y-95918330D01*
X190917781Y-95929366D01*
X190935024Y-95942154D01*
X190950930Y-95956570D01*
X190965346Y-95972476D01*
X190978134Y-95989719D01*
X190989170Y-96008132D01*
X190998349Y-96027538D01*
X191005581Y-96047750D01*
X191010797Y-96068574D01*
X191013947Y-96089809D01*
X191015000Y-96111250D01*
X191015000Y-96548750D01*
X191013947Y-96570191D01*
X191010797Y-96591426D01*
X191005581Y-96612250D01*
X190998349Y-96632462D01*
X190989170Y-96651868D01*
X190978134Y-96670281D01*
X190965346Y-96687524D01*
X190950930Y-96703430D01*
X190935024Y-96717846D01*
X190917781Y-96730634D01*
X190899368Y-96741670D01*
X190879962Y-96750849D01*
X190859750Y-96758081D01*
X190838926Y-96763297D01*
X190817691Y-96766447D01*
X190796250Y-96767500D01*
X190283750Y-96767500D01*
X190262309Y-96766447D01*
X190241074Y-96763297D01*
X190220250Y-96758081D01*
X190200038Y-96750849D01*
X190180632Y-96741670D01*
X190162219Y-96730634D01*
X190144976Y-96717846D01*
X190129070Y-96703430D01*
X190114654Y-96687524D01*
X190101866Y-96670281D01*
X190090830Y-96651868D01*
X190081651Y-96632462D01*
X190074419Y-96612250D01*
X190069203Y-96591426D01*
X190066053Y-96570191D01*
X190065000Y-96548750D01*
X190065000Y-96111250D01*
X190066053Y-96089809D01*
X190069203Y-96068574D01*
X190074419Y-96047750D01*
X190081651Y-96027538D01*
X190090830Y-96008132D01*
X190101866Y-95989719D01*
X190114654Y-95972476D01*
X190129070Y-95956570D01*
X190144976Y-95942154D01*
X190162219Y-95929366D01*
X190180632Y-95918330D01*
X190200038Y-95909151D01*
X190220250Y-95901919D01*
X190241074Y-95896703D01*
X190262309Y-95893553D01*
X190283750Y-95892500D01*
X190796250Y-95892500D01*
X190817691Y-95893553D01*
X190817691Y-95893553D01*
G37*
D14*
X190540000Y-96330000D03*
D13*
G36*
X190817691Y-97468553D02*
G01*
X190838926Y-97471703D01*
X190859750Y-97476919D01*
X190879962Y-97484151D01*
X190899368Y-97493330D01*
X190917781Y-97504366D01*
X190935024Y-97517154D01*
X190950930Y-97531570D01*
X190965346Y-97547476D01*
X190978134Y-97564719D01*
X190989170Y-97583132D01*
X190998349Y-97602538D01*
X191005581Y-97622750D01*
X191010797Y-97643574D01*
X191013947Y-97664809D01*
X191015000Y-97686250D01*
X191015000Y-98123750D01*
X191013947Y-98145191D01*
X191010797Y-98166426D01*
X191005581Y-98187250D01*
X190998349Y-98207462D01*
X190989170Y-98226868D01*
X190978134Y-98245281D01*
X190965346Y-98262524D01*
X190950930Y-98278430D01*
X190935024Y-98292846D01*
X190917781Y-98305634D01*
X190899368Y-98316670D01*
X190879962Y-98325849D01*
X190859750Y-98333081D01*
X190838926Y-98338297D01*
X190817691Y-98341447D01*
X190796250Y-98342500D01*
X190283750Y-98342500D01*
X190262309Y-98341447D01*
X190241074Y-98338297D01*
X190220250Y-98333081D01*
X190200038Y-98325849D01*
X190180632Y-98316670D01*
X190162219Y-98305634D01*
X190144976Y-98292846D01*
X190129070Y-98278430D01*
X190114654Y-98262524D01*
X190101866Y-98245281D01*
X190090830Y-98226868D01*
X190081651Y-98207462D01*
X190074419Y-98187250D01*
X190069203Y-98166426D01*
X190066053Y-98145191D01*
X190065000Y-98123750D01*
X190065000Y-97686250D01*
X190066053Y-97664809D01*
X190069203Y-97643574D01*
X190074419Y-97622750D01*
X190081651Y-97602538D01*
X190090830Y-97583132D01*
X190101866Y-97564719D01*
X190114654Y-97547476D01*
X190129070Y-97531570D01*
X190144976Y-97517154D01*
X190162219Y-97504366D01*
X190180632Y-97493330D01*
X190200038Y-97484151D01*
X190220250Y-97476919D01*
X190241074Y-97471703D01*
X190262309Y-97468553D01*
X190283750Y-97467500D01*
X190796250Y-97467500D01*
X190817691Y-97468553D01*
X190817691Y-97468553D01*
G37*
D14*
X190540000Y-97905000D03*
D13*
G36*
X198467691Y-125058553D02*
G01*
X198488926Y-125061703D01*
X198509750Y-125066919D01*
X198529962Y-125074151D01*
X198549368Y-125083330D01*
X198567781Y-125094366D01*
X198585024Y-125107154D01*
X198600930Y-125121570D01*
X198615346Y-125137476D01*
X198628134Y-125154719D01*
X198639170Y-125173132D01*
X198648349Y-125192538D01*
X198655581Y-125212750D01*
X198660797Y-125233574D01*
X198663947Y-125254809D01*
X198665000Y-125276250D01*
X198665000Y-125713750D01*
X198663947Y-125735191D01*
X198660797Y-125756426D01*
X198655581Y-125777250D01*
X198648349Y-125797462D01*
X198639170Y-125816868D01*
X198628134Y-125835281D01*
X198615346Y-125852524D01*
X198600930Y-125868430D01*
X198585024Y-125882846D01*
X198567781Y-125895634D01*
X198549368Y-125906670D01*
X198529962Y-125915849D01*
X198509750Y-125923081D01*
X198488926Y-125928297D01*
X198467691Y-125931447D01*
X198446250Y-125932500D01*
X197933750Y-125932500D01*
X197912309Y-125931447D01*
X197891074Y-125928297D01*
X197870250Y-125923081D01*
X197850038Y-125915849D01*
X197830632Y-125906670D01*
X197812219Y-125895634D01*
X197794976Y-125882846D01*
X197779070Y-125868430D01*
X197764654Y-125852524D01*
X197751866Y-125835281D01*
X197740830Y-125816868D01*
X197731651Y-125797462D01*
X197724419Y-125777250D01*
X197719203Y-125756426D01*
X197716053Y-125735191D01*
X197715000Y-125713750D01*
X197715000Y-125276250D01*
X197716053Y-125254809D01*
X197719203Y-125233574D01*
X197724419Y-125212750D01*
X197731651Y-125192538D01*
X197740830Y-125173132D01*
X197751866Y-125154719D01*
X197764654Y-125137476D01*
X197779070Y-125121570D01*
X197794976Y-125107154D01*
X197812219Y-125094366D01*
X197830632Y-125083330D01*
X197850038Y-125074151D01*
X197870250Y-125066919D01*
X197891074Y-125061703D01*
X197912309Y-125058553D01*
X197933750Y-125057500D01*
X198446250Y-125057500D01*
X198467691Y-125058553D01*
X198467691Y-125058553D01*
G37*
D14*
X198190000Y-125495000D03*
D13*
G36*
X198467691Y-123483553D02*
G01*
X198488926Y-123486703D01*
X198509750Y-123491919D01*
X198529962Y-123499151D01*
X198549368Y-123508330D01*
X198567781Y-123519366D01*
X198585024Y-123532154D01*
X198600930Y-123546570D01*
X198615346Y-123562476D01*
X198628134Y-123579719D01*
X198639170Y-123598132D01*
X198648349Y-123617538D01*
X198655581Y-123637750D01*
X198660797Y-123658574D01*
X198663947Y-123679809D01*
X198665000Y-123701250D01*
X198665000Y-124138750D01*
X198663947Y-124160191D01*
X198660797Y-124181426D01*
X198655581Y-124202250D01*
X198648349Y-124222462D01*
X198639170Y-124241868D01*
X198628134Y-124260281D01*
X198615346Y-124277524D01*
X198600930Y-124293430D01*
X198585024Y-124307846D01*
X198567781Y-124320634D01*
X198549368Y-124331670D01*
X198529962Y-124340849D01*
X198509750Y-124348081D01*
X198488926Y-124353297D01*
X198467691Y-124356447D01*
X198446250Y-124357500D01*
X197933750Y-124357500D01*
X197912309Y-124356447D01*
X197891074Y-124353297D01*
X197870250Y-124348081D01*
X197850038Y-124340849D01*
X197830632Y-124331670D01*
X197812219Y-124320634D01*
X197794976Y-124307846D01*
X197779070Y-124293430D01*
X197764654Y-124277524D01*
X197751866Y-124260281D01*
X197740830Y-124241868D01*
X197731651Y-124222462D01*
X197724419Y-124202250D01*
X197719203Y-124181426D01*
X197716053Y-124160191D01*
X197715000Y-124138750D01*
X197715000Y-123701250D01*
X197716053Y-123679809D01*
X197719203Y-123658574D01*
X197724419Y-123637750D01*
X197731651Y-123617538D01*
X197740830Y-123598132D01*
X197751866Y-123579719D01*
X197764654Y-123562476D01*
X197779070Y-123546570D01*
X197794976Y-123532154D01*
X197812219Y-123519366D01*
X197830632Y-123508330D01*
X197850038Y-123499151D01*
X197870250Y-123491919D01*
X197891074Y-123486703D01*
X197912309Y-123483553D01*
X197933750Y-123482500D01*
X198446250Y-123482500D01*
X198467691Y-123483553D01*
X198467691Y-123483553D01*
G37*
D14*
X198190000Y-123920000D03*
D13*
G36*
X190637691Y-125058553D02*
G01*
X190658926Y-125061703D01*
X190679750Y-125066919D01*
X190699962Y-125074151D01*
X190719368Y-125083330D01*
X190737781Y-125094366D01*
X190755024Y-125107154D01*
X190770930Y-125121570D01*
X190785346Y-125137476D01*
X190798134Y-125154719D01*
X190809170Y-125173132D01*
X190818349Y-125192538D01*
X190825581Y-125212750D01*
X190830797Y-125233574D01*
X190833947Y-125254809D01*
X190835000Y-125276250D01*
X190835000Y-125713750D01*
X190833947Y-125735191D01*
X190830797Y-125756426D01*
X190825581Y-125777250D01*
X190818349Y-125797462D01*
X190809170Y-125816868D01*
X190798134Y-125835281D01*
X190785346Y-125852524D01*
X190770930Y-125868430D01*
X190755024Y-125882846D01*
X190737781Y-125895634D01*
X190719368Y-125906670D01*
X190699962Y-125915849D01*
X190679750Y-125923081D01*
X190658926Y-125928297D01*
X190637691Y-125931447D01*
X190616250Y-125932500D01*
X190103750Y-125932500D01*
X190082309Y-125931447D01*
X190061074Y-125928297D01*
X190040250Y-125923081D01*
X190020038Y-125915849D01*
X190000632Y-125906670D01*
X189982219Y-125895634D01*
X189964976Y-125882846D01*
X189949070Y-125868430D01*
X189934654Y-125852524D01*
X189921866Y-125835281D01*
X189910830Y-125816868D01*
X189901651Y-125797462D01*
X189894419Y-125777250D01*
X189889203Y-125756426D01*
X189886053Y-125735191D01*
X189885000Y-125713750D01*
X189885000Y-125276250D01*
X189886053Y-125254809D01*
X189889203Y-125233574D01*
X189894419Y-125212750D01*
X189901651Y-125192538D01*
X189910830Y-125173132D01*
X189921866Y-125154719D01*
X189934654Y-125137476D01*
X189949070Y-125121570D01*
X189964976Y-125107154D01*
X189982219Y-125094366D01*
X190000632Y-125083330D01*
X190020038Y-125074151D01*
X190040250Y-125066919D01*
X190061074Y-125061703D01*
X190082309Y-125058553D01*
X190103750Y-125057500D01*
X190616250Y-125057500D01*
X190637691Y-125058553D01*
X190637691Y-125058553D01*
G37*
D14*
X190360000Y-125495000D03*
D13*
G36*
X190637691Y-123483553D02*
G01*
X190658926Y-123486703D01*
X190679750Y-123491919D01*
X190699962Y-123499151D01*
X190719368Y-123508330D01*
X190737781Y-123519366D01*
X190755024Y-123532154D01*
X190770930Y-123546570D01*
X190785346Y-123562476D01*
X190798134Y-123579719D01*
X190809170Y-123598132D01*
X190818349Y-123617538D01*
X190825581Y-123637750D01*
X190830797Y-123658574D01*
X190833947Y-123679809D01*
X190835000Y-123701250D01*
X190835000Y-124138750D01*
X190833947Y-124160191D01*
X190830797Y-124181426D01*
X190825581Y-124202250D01*
X190818349Y-124222462D01*
X190809170Y-124241868D01*
X190798134Y-124260281D01*
X190785346Y-124277524D01*
X190770930Y-124293430D01*
X190755024Y-124307846D01*
X190737781Y-124320634D01*
X190719368Y-124331670D01*
X190699962Y-124340849D01*
X190679750Y-124348081D01*
X190658926Y-124353297D01*
X190637691Y-124356447D01*
X190616250Y-124357500D01*
X190103750Y-124357500D01*
X190082309Y-124356447D01*
X190061074Y-124353297D01*
X190040250Y-124348081D01*
X190020038Y-124340849D01*
X190000632Y-124331670D01*
X189982219Y-124320634D01*
X189964976Y-124307846D01*
X189949070Y-124293430D01*
X189934654Y-124277524D01*
X189921866Y-124260281D01*
X189910830Y-124241868D01*
X189901651Y-124222462D01*
X189894419Y-124202250D01*
X189889203Y-124181426D01*
X189886053Y-124160191D01*
X189885000Y-124138750D01*
X189885000Y-123701250D01*
X189886053Y-123679809D01*
X189889203Y-123658574D01*
X189894419Y-123637750D01*
X189901651Y-123617538D01*
X189910830Y-123598132D01*
X189921866Y-123579719D01*
X189934654Y-123562476D01*
X189949070Y-123546570D01*
X189964976Y-123532154D01*
X189982219Y-123519366D01*
X190000632Y-123508330D01*
X190020038Y-123499151D01*
X190040250Y-123491919D01*
X190061074Y-123486703D01*
X190082309Y-123483553D01*
X190103750Y-123482500D01*
X190616250Y-123482500D01*
X190637691Y-123483553D01*
X190637691Y-123483553D01*
G37*
D14*
X190360000Y-123920000D03*
D13*
G36*
X188627691Y-118898553D02*
G01*
X188648926Y-118901703D01*
X188669750Y-118906919D01*
X188689962Y-118914151D01*
X188709368Y-118923330D01*
X188727781Y-118934366D01*
X188745024Y-118947154D01*
X188760930Y-118961570D01*
X188775346Y-118977476D01*
X188788134Y-118994719D01*
X188799170Y-119013132D01*
X188808349Y-119032538D01*
X188815581Y-119052750D01*
X188820797Y-119073574D01*
X188823947Y-119094809D01*
X188825000Y-119116250D01*
X188825000Y-119553750D01*
X188823947Y-119575191D01*
X188820797Y-119596426D01*
X188815581Y-119617250D01*
X188808349Y-119637462D01*
X188799170Y-119656868D01*
X188788134Y-119675281D01*
X188775346Y-119692524D01*
X188760930Y-119708430D01*
X188745024Y-119722846D01*
X188727781Y-119735634D01*
X188709368Y-119746670D01*
X188689962Y-119755849D01*
X188669750Y-119763081D01*
X188648926Y-119768297D01*
X188627691Y-119771447D01*
X188606250Y-119772500D01*
X188093750Y-119772500D01*
X188072309Y-119771447D01*
X188051074Y-119768297D01*
X188030250Y-119763081D01*
X188010038Y-119755849D01*
X187990632Y-119746670D01*
X187972219Y-119735634D01*
X187954976Y-119722846D01*
X187939070Y-119708430D01*
X187924654Y-119692524D01*
X187911866Y-119675281D01*
X187900830Y-119656868D01*
X187891651Y-119637462D01*
X187884419Y-119617250D01*
X187879203Y-119596426D01*
X187876053Y-119575191D01*
X187875000Y-119553750D01*
X187875000Y-119116250D01*
X187876053Y-119094809D01*
X187879203Y-119073574D01*
X187884419Y-119052750D01*
X187891651Y-119032538D01*
X187900830Y-119013132D01*
X187911866Y-118994719D01*
X187924654Y-118977476D01*
X187939070Y-118961570D01*
X187954976Y-118947154D01*
X187972219Y-118934366D01*
X187990632Y-118923330D01*
X188010038Y-118914151D01*
X188030250Y-118906919D01*
X188051074Y-118901703D01*
X188072309Y-118898553D01*
X188093750Y-118897500D01*
X188606250Y-118897500D01*
X188627691Y-118898553D01*
X188627691Y-118898553D01*
G37*
D14*
X188350000Y-119335000D03*
D13*
G36*
X188627691Y-120473553D02*
G01*
X188648926Y-120476703D01*
X188669750Y-120481919D01*
X188689962Y-120489151D01*
X188709368Y-120498330D01*
X188727781Y-120509366D01*
X188745024Y-120522154D01*
X188760930Y-120536570D01*
X188775346Y-120552476D01*
X188788134Y-120569719D01*
X188799170Y-120588132D01*
X188808349Y-120607538D01*
X188815581Y-120627750D01*
X188820797Y-120648574D01*
X188823947Y-120669809D01*
X188825000Y-120691250D01*
X188825000Y-121128750D01*
X188823947Y-121150191D01*
X188820797Y-121171426D01*
X188815581Y-121192250D01*
X188808349Y-121212462D01*
X188799170Y-121231868D01*
X188788134Y-121250281D01*
X188775346Y-121267524D01*
X188760930Y-121283430D01*
X188745024Y-121297846D01*
X188727781Y-121310634D01*
X188709368Y-121321670D01*
X188689962Y-121330849D01*
X188669750Y-121338081D01*
X188648926Y-121343297D01*
X188627691Y-121346447D01*
X188606250Y-121347500D01*
X188093750Y-121347500D01*
X188072309Y-121346447D01*
X188051074Y-121343297D01*
X188030250Y-121338081D01*
X188010038Y-121330849D01*
X187990632Y-121321670D01*
X187972219Y-121310634D01*
X187954976Y-121297846D01*
X187939070Y-121283430D01*
X187924654Y-121267524D01*
X187911866Y-121250281D01*
X187900830Y-121231868D01*
X187891651Y-121212462D01*
X187884419Y-121192250D01*
X187879203Y-121171426D01*
X187876053Y-121150191D01*
X187875000Y-121128750D01*
X187875000Y-120691250D01*
X187876053Y-120669809D01*
X187879203Y-120648574D01*
X187884419Y-120627750D01*
X187891651Y-120607538D01*
X187900830Y-120588132D01*
X187911866Y-120569719D01*
X187924654Y-120552476D01*
X187939070Y-120536570D01*
X187954976Y-120522154D01*
X187972219Y-120509366D01*
X187990632Y-120498330D01*
X188010038Y-120489151D01*
X188030250Y-120481919D01*
X188051074Y-120476703D01*
X188072309Y-120473553D01*
X188093750Y-120472500D01*
X188606250Y-120472500D01*
X188627691Y-120473553D01*
X188627691Y-120473553D01*
G37*
D14*
X188350000Y-120910000D03*
D16*
X192087500Y-163575000D03*
X192087500Y-160275000D03*
X189706250Y-163575000D03*
X189706250Y-160275000D03*
X187325000Y-163575000D03*
X187325000Y-160275000D03*
X201612500Y-155637500D03*
X201612500Y-152337500D03*
X199231250Y-155637500D03*
X199231250Y-152337500D03*
X196850000Y-155637500D03*
X196850000Y-152337500D03*
X194468750Y-155637500D03*
X194468750Y-152337500D03*
X192087500Y-155637500D03*
X192087500Y-152337500D03*
X189706250Y-155637500D03*
X189706250Y-152337500D03*
X187325000Y-155637500D03*
X187325000Y-152337500D03*
X201612500Y-147700000D03*
X201612500Y-144400000D03*
X199231250Y-147700000D03*
X199231250Y-144400000D03*
X196850000Y-147700000D03*
X196850000Y-144400000D03*
X194468750Y-147700000D03*
X194468750Y-144400000D03*
X192087500Y-147700000D03*
X192087500Y-144400000D03*
X189706250Y-147700000D03*
X189706250Y-144400000D03*
X187325000Y-147700000D03*
X187325000Y-144400000D03*
X201612500Y-139762500D03*
X201612500Y-136462500D03*
X199231250Y-139762500D03*
X199231250Y-136462500D03*
X196850000Y-139762500D03*
X196850000Y-136462500D03*
X194468750Y-139762500D03*
X194468750Y-136462500D03*
X192087500Y-139762500D03*
X192087500Y-136462500D03*
X189706250Y-139762500D03*
X189706250Y-136462500D03*
X187325000Y-139762500D03*
X187325000Y-136462500D03*
X201612500Y-131825000D03*
X201612500Y-128525000D03*
X199231250Y-131825000D03*
X199231250Y-128525000D03*
X196850000Y-131825000D03*
X196850000Y-128525000D03*
X194468750Y-131825000D03*
X194468750Y-128525000D03*
X192087500Y-131825000D03*
X192087500Y-128525000D03*
X189706250Y-131825000D03*
X189706250Y-128525000D03*
X187325000Y-131825000D03*
X187325000Y-128525000D03*
D17*
X190540000Y-99420000D03*
X191490000Y-101420000D03*
X189590000Y-101420000D03*
D13*
G36*
X191266101Y-116106611D02*
G01*
X191273382Y-116107691D01*
X191280521Y-116109479D01*
X191287451Y-116111959D01*
X191294105Y-116115106D01*
X191300418Y-116118890D01*
X191306329Y-116123274D01*
X191311783Y-116128217D01*
X191316726Y-116133671D01*
X191321110Y-116139582D01*
X191324894Y-116145895D01*
X191328041Y-116152549D01*
X191330521Y-116159479D01*
X191332309Y-116166618D01*
X191333389Y-116173899D01*
X191333750Y-116181250D01*
X191333750Y-116331250D01*
X191333389Y-116338601D01*
X191332309Y-116345882D01*
X191330521Y-116353021D01*
X191328041Y-116359951D01*
X191324894Y-116366605D01*
X191321110Y-116372918D01*
X191316726Y-116378829D01*
X191311783Y-116384283D01*
X191306329Y-116389226D01*
X191300418Y-116393610D01*
X191294105Y-116397394D01*
X191287451Y-116400541D01*
X191280521Y-116403021D01*
X191273382Y-116404809D01*
X191266101Y-116405889D01*
X191258750Y-116406250D01*
X189933750Y-116406250D01*
X189926399Y-116405889D01*
X189919118Y-116404809D01*
X189911979Y-116403021D01*
X189905049Y-116400541D01*
X189898395Y-116397394D01*
X189892082Y-116393610D01*
X189886171Y-116389226D01*
X189880717Y-116384283D01*
X189875774Y-116378829D01*
X189871390Y-116372918D01*
X189867606Y-116366605D01*
X189864459Y-116359951D01*
X189861979Y-116353021D01*
X189860191Y-116345882D01*
X189859111Y-116338601D01*
X189858750Y-116331250D01*
X189858750Y-116181250D01*
X189859111Y-116173899D01*
X189860191Y-116166618D01*
X189861979Y-116159479D01*
X189864459Y-116152549D01*
X189867606Y-116145895D01*
X189871390Y-116139582D01*
X189875774Y-116133671D01*
X189880717Y-116128217D01*
X189886171Y-116123274D01*
X189892082Y-116118890D01*
X189898395Y-116115106D01*
X189905049Y-116111959D01*
X189911979Y-116109479D01*
X189919118Y-116107691D01*
X189926399Y-116106611D01*
X189933750Y-116106250D01*
X191258750Y-116106250D01*
X191266101Y-116106611D01*
X191266101Y-116106611D01*
G37*
D18*
X190596250Y-116256250D03*
D13*
G36*
X191266101Y-115606611D02*
G01*
X191273382Y-115607691D01*
X191280521Y-115609479D01*
X191287451Y-115611959D01*
X191294105Y-115615106D01*
X191300418Y-115618890D01*
X191306329Y-115623274D01*
X191311783Y-115628217D01*
X191316726Y-115633671D01*
X191321110Y-115639582D01*
X191324894Y-115645895D01*
X191328041Y-115652549D01*
X191330521Y-115659479D01*
X191332309Y-115666618D01*
X191333389Y-115673899D01*
X191333750Y-115681250D01*
X191333750Y-115831250D01*
X191333389Y-115838601D01*
X191332309Y-115845882D01*
X191330521Y-115853021D01*
X191328041Y-115859951D01*
X191324894Y-115866605D01*
X191321110Y-115872918D01*
X191316726Y-115878829D01*
X191311783Y-115884283D01*
X191306329Y-115889226D01*
X191300418Y-115893610D01*
X191294105Y-115897394D01*
X191287451Y-115900541D01*
X191280521Y-115903021D01*
X191273382Y-115904809D01*
X191266101Y-115905889D01*
X191258750Y-115906250D01*
X189933750Y-115906250D01*
X189926399Y-115905889D01*
X189919118Y-115904809D01*
X189911979Y-115903021D01*
X189905049Y-115900541D01*
X189898395Y-115897394D01*
X189892082Y-115893610D01*
X189886171Y-115889226D01*
X189880717Y-115884283D01*
X189875774Y-115878829D01*
X189871390Y-115872918D01*
X189867606Y-115866605D01*
X189864459Y-115859951D01*
X189861979Y-115853021D01*
X189860191Y-115845882D01*
X189859111Y-115838601D01*
X189858750Y-115831250D01*
X189858750Y-115681250D01*
X189859111Y-115673899D01*
X189860191Y-115666618D01*
X189861979Y-115659479D01*
X189864459Y-115652549D01*
X189867606Y-115645895D01*
X189871390Y-115639582D01*
X189875774Y-115633671D01*
X189880717Y-115628217D01*
X189886171Y-115623274D01*
X189892082Y-115618890D01*
X189898395Y-115615106D01*
X189905049Y-115611959D01*
X189911979Y-115609479D01*
X189919118Y-115607691D01*
X189926399Y-115606611D01*
X189933750Y-115606250D01*
X191258750Y-115606250D01*
X191266101Y-115606611D01*
X191266101Y-115606611D01*
G37*
D18*
X190596250Y-115756250D03*
D13*
G36*
X191266101Y-115106611D02*
G01*
X191273382Y-115107691D01*
X191280521Y-115109479D01*
X191287451Y-115111959D01*
X191294105Y-115115106D01*
X191300418Y-115118890D01*
X191306329Y-115123274D01*
X191311783Y-115128217D01*
X191316726Y-115133671D01*
X191321110Y-115139582D01*
X191324894Y-115145895D01*
X191328041Y-115152549D01*
X191330521Y-115159479D01*
X191332309Y-115166618D01*
X191333389Y-115173899D01*
X191333750Y-115181250D01*
X191333750Y-115331250D01*
X191333389Y-115338601D01*
X191332309Y-115345882D01*
X191330521Y-115353021D01*
X191328041Y-115359951D01*
X191324894Y-115366605D01*
X191321110Y-115372918D01*
X191316726Y-115378829D01*
X191311783Y-115384283D01*
X191306329Y-115389226D01*
X191300418Y-115393610D01*
X191294105Y-115397394D01*
X191287451Y-115400541D01*
X191280521Y-115403021D01*
X191273382Y-115404809D01*
X191266101Y-115405889D01*
X191258750Y-115406250D01*
X189933750Y-115406250D01*
X189926399Y-115405889D01*
X189919118Y-115404809D01*
X189911979Y-115403021D01*
X189905049Y-115400541D01*
X189898395Y-115397394D01*
X189892082Y-115393610D01*
X189886171Y-115389226D01*
X189880717Y-115384283D01*
X189875774Y-115378829D01*
X189871390Y-115372918D01*
X189867606Y-115366605D01*
X189864459Y-115359951D01*
X189861979Y-115353021D01*
X189860191Y-115345882D01*
X189859111Y-115338601D01*
X189858750Y-115331250D01*
X189858750Y-115181250D01*
X189859111Y-115173899D01*
X189860191Y-115166618D01*
X189861979Y-115159479D01*
X189864459Y-115152549D01*
X189867606Y-115145895D01*
X189871390Y-115139582D01*
X189875774Y-115133671D01*
X189880717Y-115128217D01*
X189886171Y-115123274D01*
X189892082Y-115118890D01*
X189898395Y-115115106D01*
X189905049Y-115111959D01*
X189911979Y-115109479D01*
X189919118Y-115107691D01*
X189926399Y-115106611D01*
X189933750Y-115106250D01*
X191258750Y-115106250D01*
X191266101Y-115106611D01*
X191266101Y-115106611D01*
G37*
D18*
X190596250Y-115256250D03*
D13*
G36*
X191266101Y-114606611D02*
G01*
X191273382Y-114607691D01*
X191280521Y-114609479D01*
X191287451Y-114611959D01*
X191294105Y-114615106D01*
X191300418Y-114618890D01*
X191306329Y-114623274D01*
X191311783Y-114628217D01*
X191316726Y-114633671D01*
X191321110Y-114639582D01*
X191324894Y-114645895D01*
X191328041Y-114652549D01*
X191330521Y-114659479D01*
X191332309Y-114666618D01*
X191333389Y-114673899D01*
X191333750Y-114681250D01*
X191333750Y-114831250D01*
X191333389Y-114838601D01*
X191332309Y-114845882D01*
X191330521Y-114853021D01*
X191328041Y-114859951D01*
X191324894Y-114866605D01*
X191321110Y-114872918D01*
X191316726Y-114878829D01*
X191311783Y-114884283D01*
X191306329Y-114889226D01*
X191300418Y-114893610D01*
X191294105Y-114897394D01*
X191287451Y-114900541D01*
X191280521Y-114903021D01*
X191273382Y-114904809D01*
X191266101Y-114905889D01*
X191258750Y-114906250D01*
X189933750Y-114906250D01*
X189926399Y-114905889D01*
X189919118Y-114904809D01*
X189911979Y-114903021D01*
X189905049Y-114900541D01*
X189898395Y-114897394D01*
X189892082Y-114893610D01*
X189886171Y-114889226D01*
X189880717Y-114884283D01*
X189875774Y-114878829D01*
X189871390Y-114872918D01*
X189867606Y-114866605D01*
X189864459Y-114859951D01*
X189861979Y-114853021D01*
X189860191Y-114845882D01*
X189859111Y-114838601D01*
X189858750Y-114831250D01*
X189858750Y-114681250D01*
X189859111Y-114673899D01*
X189860191Y-114666618D01*
X189861979Y-114659479D01*
X189864459Y-114652549D01*
X189867606Y-114645895D01*
X189871390Y-114639582D01*
X189875774Y-114633671D01*
X189880717Y-114628217D01*
X189886171Y-114623274D01*
X189892082Y-114618890D01*
X189898395Y-114615106D01*
X189905049Y-114611959D01*
X189911979Y-114609479D01*
X189919118Y-114607691D01*
X189926399Y-114606611D01*
X189933750Y-114606250D01*
X191258750Y-114606250D01*
X191266101Y-114606611D01*
X191266101Y-114606611D01*
G37*
D18*
X190596250Y-114756250D03*
D13*
G36*
X191266101Y-114106611D02*
G01*
X191273382Y-114107691D01*
X191280521Y-114109479D01*
X191287451Y-114111959D01*
X191294105Y-114115106D01*
X191300418Y-114118890D01*
X191306329Y-114123274D01*
X191311783Y-114128217D01*
X191316726Y-114133671D01*
X191321110Y-114139582D01*
X191324894Y-114145895D01*
X191328041Y-114152549D01*
X191330521Y-114159479D01*
X191332309Y-114166618D01*
X191333389Y-114173899D01*
X191333750Y-114181250D01*
X191333750Y-114331250D01*
X191333389Y-114338601D01*
X191332309Y-114345882D01*
X191330521Y-114353021D01*
X191328041Y-114359951D01*
X191324894Y-114366605D01*
X191321110Y-114372918D01*
X191316726Y-114378829D01*
X191311783Y-114384283D01*
X191306329Y-114389226D01*
X191300418Y-114393610D01*
X191294105Y-114397394D01*
X191287451Y-114400541D01*
X191280521Y-114403021D01*
X191273382Y-114404809D01*
X191266101Y-114405889D01*
X191258750Y-114406250D01*
X189933750Y-114406250D01*
X189926399Y-114405889D01*
X189919118Y-114404809D01*
X189911979Y-114403021D01*
X189905049Y-114400541D01*
X189898395Y-114397394D01*
X189892082Y-114393610D01*
X189886171Y-114389226D01*
X189880717Y-114384283D01*
X189875774Y-114378829D01*
X189871390Y-114372918D01*
X189867606Y-114366605D01*
X189864459Y-114359951D01*
X189861979Y-114353021D01*
X189860191Y-114345882D01*
X189859111Y-114338601D01*
X189858750Y-114331250D01*
X189858750Y-114181250D01*
X189859111Y-114173899D01*
X189860191Y-114166618D01*
X189861979Y-114159479D01*
X189864459Y-114152549D01*
X189867606Y-114145895D01*
X189871390Y-114139582D01*
X189875774Y-114133671D01*
X189880717Y-114128217D01*
X189886171Y-114123274D01*
X189892082Y-114118890D01*
X189898395Y-114115106D01*
X189905049Y-114111959D01*
X189911979Y-114109479D01*
X189919118Y-114107691D01*
X189926399Y-114106611D01*
X189933750Y-114106250D01*
X191258750Y-114106250D01*
X191266101Y-114106611D01*
X191266101Y-114106611D01*
G37*
D18*
X190596250Y-114256250D03*
D13*
G36*
X191266101Y-113606611D02*
G01*
X191273382Y-113607691D01*
X191280521Y-113609479D01*
X191287451Y-113611959D01*
X191294105Y-113615106D01*
X191300418Y-113618890D01*
X191306329Y-113623274D01*
X191311783Y-113628217D01*
X191316726Y-113633671D01*
X191321110Y-113639582D01*
X191324894Y-113645895D01*
X191328041Y-113652549D01*
X191330521Y-113659479D01*
X191332309Y-113666618D01*
X191333389Y-113673899D01*
X191333750Y-113681250D01*
X191333750Y-113831250D01*
X191333389Y-113838601D01*
X191332309Y-113845882D01*
X191330521Y-113853021D01*
X191328041Y-113859951D01*
X191324894Y-113866605D01*
X191321110Y-113872918D01*
X191316726Y-113878829D01*
X191311783Y-113884283D01*
X191306329Y-113889226D01*
X191300418Y-113893610D01*
X191294105Y-113897394D01*
X191287451Y-113900541D01*
X191280521Y-113903021D01*
X191273382Y-113904809D01*
X191266101Y-113905889D01*
X191258750Y-113906250D01*
X189933750Y-113906250D01*
X189926399Y-113905889D01*
X189919118Y-113904809D01*
X189911979Y-113903021D01*
X189905049Y-113900541D01*
X189898395Y-113897394D01*
X189892082Y-113893610D01*
X189886171Y-113889226D01*
X189880717Y-113884283D01*
X189875774Y-113878829D01*
X189871390Y-113872918D01*
X189867606Y-113866605D01*
X189864459Y-113859951D01*
X189861979Y-113853021D01*
X189860191Y-113845882D01*
X189859111Y-113838601D01*
X189858750Y-113831250D01*
X189858750Y-113681250D01*
X189859111Y-113673899D01*
X189860191Y-113666618D01*
X189861979Y-113659479D01*
X189864459Y-113652549D01*
X189867606Y-113645895D01*
X189871390Y-113639582D01*
X189875774Y-113633671D01*
X189880717Y-113628217D01*
X189886171Y-113623274D01*
X189892082Y-113618890D01*
X189898395Y-113615106D01*
X189905049Y-113611959D01*
X189911979Y-113609479D01*
X189919118Y-113607691D01*
X189926399Y-113606611D01*
X189933750Y-113606250D01*
X191258750Y-113606250D01*
X191266101Y-113606611D01*
X191266101Y-113606611D01*
G37*
D18*
X190596250Y-113756250D03*
D13*
G36*
X191266101Y-113106611D02*
G01*
X191273382Y-113107691D01*
X191280521Y-113109479D01*
X191287451Y-113111959D01*
X191294105Y-113115106D01*
X191300418Y-113118890D01*
X191306329Y-113123274D01*
X191311783Y-113128217D01*
X191316726Y-113133671D01*
X191321110Y-113139582D01*
X191324894Y-113145895D01*
X191328041Y-113152549D01*
X191330521Y-113159479D01*
X191332309Y-113166618D01*
X191333389Y-113173899D01*
X191333750Y-113181250D01*
X191333750Y-113331250D01*
X191333389Y-113338601D01*
X191332309Y-113345882D01*
X191330521Y-113353021D01*
X191328041Y-113359951D01*
X191324894Y-113366605D01*
X191321110Y-113372918D01*
X191316726Y-113378829D01*
X191311783Y-113384283D01*
X191306329Y-113389226D01*
X191300418Y-113393610D01*
X191294105Y-113397394D01*
X191287451Y-113400541D01*
X191280521Y-113403021D01*
X191273382Y-113404809D01*
X191266101Y-113405889D01*
X191258750Y-113406250D01*
X189933750Y-113406250D01*
X189926399Y-113405889D01*
X189919118Y-113404809D01*
X189911979Y-113403021D01*
X189905049Y-113400541D01*
X189898395Y-113397394D01*
X189892082Y-113393610D01*
X189886171Y-113389226D01*
X189880717Y-113384283D01*
X189875774Y-113378829D01*
X189871390Y-113372918D01*
X189867606Y-113366605D01*
X189864459Y-113359951D01*
X189861979Y-113353021D01*
X189860191Y-113345882D01*
X189859111Y-113338601D01*
X189858750Y-113331250D01*
X189858750Y-113181250D01*
X189859111Y-113173899D01*
X189860191Y-113166618D01*
X189861979Y-113159479D01*
X189864459Y-113152549D01*
X189867606Y-113145895D01*
X189871390Y-113139582D01*
X189875774Y-113133671D01*
X189880717Y-113128217D01*
X189886171Y-113123274D01*
X189892082Y-113118890D01*
X189898395Y-113115106D01*
X189905049Y-113111959D01*
X189911979Y-113109479D01*
X189919118Y-113107691D01*
X189926399Y-113106611D01*
X189933750Y-113106250D01*
X191258750Y-113106250D01*
X191266101Y-113106611D01*
X191266101Y-113106611D01*
G37*
D18*
X190596250Y-113256250D03*
D13*
G36*
X191266101Y-112606611D02*
G01*
X191273382Y-112607691D01*
X191280521Y-112609479D01*
X191287451Y-112611959D01*
X191294105Y-112615106D01*
X191300418Y-112618890D01*
X191306329Y-112623274D01*
X191311783Y-112628217D01*
X191316726Y-112633671D01*
X191321110Y-112639582D01*
X191324894Y-112645895D01*
X191328041Y-112652549D01*
X191330521Y-112659479D01*
X191332309Y-112666618D01*
X191333389Y-112673899D01*
X191333750Y-112681250D01*
X191333750Y-112831250D01*
X191333389Y-112838601D01*
X191332309Y-112845882D01*
X191330521Y-112853021D01*
X191328041Y-112859951D01*
X191324894Y-112866605D01*
X191321110Y-112872918D01*
X191316726Y-112878829D01*
X191311783Y-112884283D01*
X191306329Y-112889226D01*
X191300418Y-112893610D01*
X191294105Y-112897394D01*
X191287451Y-112900541D01*
X191280521Y-112903021D01*
X191273382Y-112904809D01*
X191266101Y-112905889D01*
X191258750Y-112906250D01*
X189933750Y-112906250D01*
X189926399Y-112905889D01*
X189919118Y-112904809D01*
X189911979Y-112903021D01*
X189905049Y-112900541D01*
X189898395Y-112897394D01*
X189892082Y-112893610D01*
X189886171Y-112889226D01*
X189880717Y-112884283D01*
X189875774Y-112878829D01*
X189871390Y-112872918D01*
X189867606Y-112866605D01*
X189864459Y-112859951D01*
X189861979Y-112853021D01*
X189860191Y-112845882D01*
X189859111Y-112838601D01*
X189858750Y-112831250D01*
X189858750Y-112681250D01*
X189859111Y-112673899D01*
X189860191Y-112666618D01*
X189861979Y-112659479D01*
X189864459Y-112652549D01*
X189867606Y-112645895D01*
X189871390Y-112639582D01*
X189875774Y-112633671D01*
X189880717Y-112628217D01*
X189886171Y-112623274D01*
X189892082Y-112618890D01*
X189898395Y-112615106D01*
X189905049Y-112611959D01*
X189911979Y-112609479D01*
X189919118Y-112607691D01*
X189926399Y-112606611D01*
X189933750Y-112606250D01*
X191258750Y-112606250D01*
X191266101Y-112606611D01*
X191266101Y-112606611D01*
G37*
D18*
X190596250Y-112756250D03*
D13*
G36*
X191266101Y-112106611D02*
G01*
X191273382Y-112107691D01*
X191280521Y-112109479D01*
X191287451Y-112111959D01*
X191294105Y-112115106D01*
X191300418Y-112118890D01*
X191306329Y-112123274D01*
X191311783Y-112128217D01*
X191316726Y-112133671D01*
X191321110Y-112139582D01*
X191324894Y-112145895D01*
X191328041Y-112152549D01*
X191330521Y-112159479D01*
X191332309Y-112166618D01*
X191333389Y-112173899D01*
X191333750Y-112181250D01*
X191333750Y-112331250D01*
X191333389Y-112338601D01*
X191332309Y-112345882D01*
X191330521Y-112353021D01*
X191328041Y-112359951D01*
X191324894Y-112366605D01*
X191321110Y-112372918D01*
X191316726Y-112378829D01*
X191311783Y-112384283D01*
X191306329Y-112389226D01*
X191300418Y-112393610D01*
X191294105Y-112397394D01*
X191287451Y-112400541D01*
X191280521Y-112403021D01*
X191273382Y-112404809D01*
X191266101Y-112405889D01*
X191258750Y-112406250D01*
X189933750Y-112406250D01*
X189926399Y-112405889D01*
X189919118Y-112404809D01*
X189911979Y-112403021D01*
X189905049Y-112400541D01*
X189898395Y-112397394D01*
X189892082Y-112393610D01*
X189886171Y-112389226D01*
X189880717Y-112384283D01*
X189875774Y-112378829D01*
X189871390Y-112372918D01*
X189867606Y-112366605D01*
X189864459Y-112359951D01*
X189861979Y-112353021D01*
X189860191Y-112345882D01*
X189859111Y-112338601D01*
X189858750Y-112331250D01*
X189858750Y-112181250D01*
X189859111Y-112173899D01*
X189860191Y-112166618D01*
X189861979Y-112159479D01*
X189864459Y-112152549D01*
X189867606Y-112145895D01*
X189871390Y-112139582D01*
X189875774Y-112133671D01*
X189880717Y-112128217D01*
X189886171Y-112123274D01*
X189892082Y-112118890D01*
X189898395Y-112115106D01*
X189905049Y-112111959D01*
X189911979Y-112109479D01*
X189919118Y-112107691D01*
X189926399Y-112106611D01*
X189933750Y-112106250D01*
X191258750Y-112106250D01*
X191266101Y-112106611D01*
X191266101Y-112106611D01*
G37*
D18*
X190596250Y-112256250D03*
D13*
G36*
X191266101Y-111606611D02*
G01*
X191273382Y-111607691D01*
X191280521Y-111609479D01*
X191287451Y-111611959D01*
X191294105Y-111615106D01*
X191300418Y-111618890D01*
X191306329Y-111623274D01*
X191311783Y-111628217D01*
X191316726Y-111633671D01*
X191321110Y-111639582D01*
X191324894Y-111645895D01*
X191328041Y-111652549D01*
X191330521Y-111659479D01*
X191332309Y-111666618D01*
X191333389Y-111673899D01*
X191333750Y-111681250D01*
X191333750Y-111831250D01*
X191333389Y-111838601D01*
X191332309Y-111845882D01*
X191330521Y-111853021D01*
X191328041Y-111859951D01*
X191324894Y-111866605D01*
X191321110Y-111872918D01*
X191316726Y-111878829D01*
X191311783Y-111884283D01*
X191306329Y-111889226D01*
X191300418Y-111893610D01*
X191294105Y-111897394D01*
X191287451Y-111900541D01*
X191280521Y-111903021D01*
X191273382Y-111904809D01*
X191266101Y-111905889D01*
X191258750Y-111906250D01*
X189933750Y-111906250D01*
X189926399Y-111905889D01*
X189919118Y-111904809D01*
X189911979Y-111903021D01*
X189905049Y-111900541D01*
X189898395Y-111897394D01*
X189892082Y-111893610D01*
X189886171Y-111889226D01*
X189880717Y-111884283D01*
X189875774Y-111878829D01*
X189871390Y-111872918D01*
X189867606Y-111866605D01*
X189864459Y-111859951D01*
X189861979Y-111853021D01*
X189860191Y-111845882D01*
X189859111Y-111838601D01*
X189858750Y-111831250D01*
X189858750Y-111681250D01*
X189859111Y-111673899D01*
X189860191Y-111666618D01*
X189861979Y-111659479D01*
X189864459Y-111652549D01*
X189867606Y-111645895D01*
X189871390Y-111639582D01*
X189875774Y-111633671D01*
X189880717Y-111628217D01*
X189886171Y-111623274D01*
X189892082Y-111618890D01*
X189898395Y-111615106D01*
X189905049Y-111611959D01*
X189911979Y-111609479D01*
X189919118Y-111607691D01*
X189926399Y-111606611D01*
X189933750Y-111606250D01*
X191258750Y-111606250D01*
X191266101Y-111606611D01*
X191266101Y-111606611D01*
G37*
D18*
X190596250Y-111756250D03*
D13*
G36*
X191266101Y-111106611D02*
G01*
X191273382Y-111107691D01*
X191280521Y-111109479D01*
X191287451Y-111111959D01*
X191294105Y-111115106D01*
X191300418Y-111118890D01*
X191306329Y-111123274D01*
X191311783Y-111128217D01*
X191316726Y-111133671D01*
X191321110Y-111139582D01*
X191324894Y-111145895D01*
X191328041Y-111152549D01*
X191330521Y-111159479D01*
X191332309Y-111166618D01*
X191333389Y-111173899D01*
X191333750Y-111181250D01*
X191333750Y-111331250D01*
X191333389Y-111338601D01*
X191332309Y-111345882D01*
X191330521Y-111353021D01*
X191328041Y-111359951D01*
X191324894Y-111366605D01*
X191321110Y-111372918D01*
X191316726Y-111378829D01*
X191311783Y-111384283D01*
X191306329Y-111389226D01*
X191300418Y-111393610D01*
X191294105Y-111397394D01*
X191287451Y-111400541D01*
X191280521Y-111403021D01*
X191273382Y-111404809D01*
X191266101Y-111405889D01*
X191258750Y-111406250D01*
X189933750Y-111406250D01*
X189926399Y-111405889D01*
X189919118Y-111404809D01*
X189911979Y-111403021D01*
X189905049Y-111400541D01*
X189898395Y-111397394D01*
X189892082Y-111393610D01*
X189886171Y-111389226D01*
X189880717Y-111384283D01*
X189875774Y-111378829D01*
X189871390Y-111372918D01*
X189867606Y-111366605D01*
X189864459Y-111359951D01*
X189861979Y-111353021D01*
X189860191Y-111345882D01*
X189859111Y-111338601D01*
X189858750Y-111331250D01*
X189858750Y-111181250D01*
X189859111Y-111173899D01*
X189860191Y-111166618D01*
X189861979Y-111159479D01*
X189864459Y-111152549D01*
X189867606Y-111145895D01*
X189871390Y-111139582D01*
X189875774Y-111133671D01*
X189880717Y-111128217D01*
X189886171Y-111123274D01*
X189892082Y-111118890D01*
X189898395Y-111115106D01*
X189905049Y-111111959D01*
X189911979Y-111109479D01*
X189919118Y-111107691D01*
X189926399Y-111106611D01*
X189933750Y-111106250D01*
X191258750Y-111106250D01*
X191266101Y-111106611D01*
X191266101Y-111106611D01*
G37*
D18*
X190596250Y-111256250D03*
D13*
G36*
X191266101Y-110606611D02*
G01*
X191273382Y-110607691D01*
X191280521Y-110609479D01*
X191287451Y-110611959D01*
X191294105Y-110615106D01*
X191300418Y-110618890D01*
X191306329Y-110623274D01*
X191311783Y-110628217D01*
X191316726Y-110633671D01*
X191321110Y-110639582D01*
X191324894Y-110645895D01*
X191328041Y-110652549D01*
X191330521Y-110659479D01*
X191332309Y-110666618D01*
X191333389Y-110673899D01*
X191333750Y-110681250D01*
X191333750Y-110831250D01*
X191333389Y-110838601D01*
X191332309Y-110845882D01*
X191330521Y-110853021D01*
X191328041Y-110859951D01*
X191324894Y-110866605D01*
X191321110Y-110872918D01*
X191316726Y-110878829D01*
X191311783Y-110884283D01*
X191306329Y-110889226D01*
X191300418Y-110893610D01*
X191294105Y-110897394D01*
X191287451Y-110900541D01*
X191280521Y-110903021D01*
X191273382Y-110904809D01*
X191266101Y-110905889D01*
X191258750Y-110906250D01*
X189933750Y-110906250D01*
X189926399Y-110905889D01*
X189919118Y-110904809D01*
X189911979Y-110903021D01*
X189905049Y-110900541D01*
X189898395Y-110897394D01*
X189892082Y-110893610D01*
X189886171Y-110889226D01*
X189880717Y-110884283D01*
X189875774Y-110878829D01*
X189871390Y-110872918D01*
X189867606Y-110866605D01*
X189864459Y-110859951D01*
X189861979Y-110853021D01*
X189860191Y-110845882D01*
X189859111Y-110838601D01*
X189858750Y-110831250D01*
X189858750Y-110681250D01*
X189859111Y-110673899D01*
X189860191Y-110666618D01*
X189861979Y-110659479D01*
X189864459Y-110652549D01*
X189867606Y-110645895D01*
X189871390Y-110639582D01*
X189875774Y-110633671D01*
X189880717Y-110628217D01*
X189886171Y-110623274D01*
X189892082Y-110618890D01*
X189898395Y-110615106D01*
X189905049Y-110611959D01*
X189911979Y-110609479D01*
X189919118Y-110607691D01*
X189926399Y-110606611D01*
X189933750Y-110606250D01*
X191258750Y-110606250D01*
X191266101Y-110606611D01*
X191266101Y-110606611D01*
G37*
D18*
X190596250Y-110756250D03*
D13*
G36*
X192091101Y-108606611D02*
G01*
X192098382Y-108607691D01*
X192105521Y-108609479D01*
X192112451Y-108611959D01*
X192119105Y-108615106D01*
X192125418Y-108618890D01*
X192131329Y-108623274D01*
X192136783Y-108628217D01*
X192141726Y-108633671D01*
X192146110Y-108639582D01*
X192149894Y-108645895D01*
X192153041Y-108652549D01*
X192155521Y-108659479D01*
X192157309Y-108666618D01*
X192158389Y-108673899D01*
X192158750Y-108681250D01*
X192158750Y-110006250D01*
X192158389Y-110013601D01*
X192157309Y-110020882D01*
X192155521Y-110028021D01*
X192153041Y-110034951D01*
X192149894Y-110041605D01*
X192146110Y-110047918D01*
X192141726Y-110053829D01*
X192136783Y-110059283D01*
X192131329Y-110064226D01*
X192125418Y-110068610D01*
X192119105Y-110072394D01*
X192112451Y-110075541D01*
X192105521Y-110078021D01*
X192098382Y-110079809D01*
X192091101Y-110080889D01*
X192083750Y-110081250D01*
X191933750Y-110081250D01*
X191926399Y-110080889D01*
X191919118Y-110079809D01*
X191911979Y-110078021D01*
X191905049Y-110075541D01*
X191898395Y-110072394D01*
X191892082Y-110068610D01*
X191886171Y-110064226D01*
X191880717Y-110059283D01*
X191875774Y-110053829D01*
X191871390Y-110047918D01*
X191867606Y-110041605D01*
X191864459Y-110034951D01*
X191861979Y-110028021D01*
X191860191Y-110020882D01*
X191859111Y-110013601D01*
X191858750Y-110006250D01*
X191858750Y-108681250D01*
X191859111Y-108673899D01*
X191860191Y-108666618D01*
X191861979Y-108659479D01*
X191864459Y-108652549D01*
X191867606Y-108645895D01*
X191871390Y-108639582D01*
X191875774Y-108633671D01*
X191880717Y-108628217D01*
X191886171Y-108623274D01*
X191892082Y-108618890D01*
X191898395Y-108615106D01*
X191905049Y-108611959D01*
X191911979Y-108609479D01*
X191919118Y-108607691D01*
X191926399Y-108606611D01*
X191933750Y-108606250D01*
X192083750Y-108606250D01*
X192091101Y-108606611D01*
X192091101Y-108606611D01*
G37*
D18*
X192008750Y-109343750D03*
D13*
G36*
X192591101Y-108606611D02*
G01*
X192598382Y-108607691D01*
X192605521Y-108609479D01*
X192612451Y-108611959D01*
X192619105Y-108615106D01*
X192625418Y-108618890D01*
X192631329Y-108623274D01*
X192636783Y-108628217D01*
X192641726Y-108633671D01*
X192646110Y-108639582D01*
X192649894Y-108645895D01*
X192653041Y-108652549D01*
X192655521Y-108659479D01*
X192657309Y-108666618D01*
X192658389Y-108673899D01*
X192658750Y-108681250D01*
X192658750Y-110006250D01*
X192658389Y-110013601D01*
X192657309Y-110020882D01*
X192655521Y-110028021D01*
X192653041Y-110034951D01*
X192649894Y-110041605D01*
X192646110Y-110047918D01*
X192641726Y-110053829D01*
X192636783Y-110059283D01*
X192631329Y-110064226D01*
X192625418Y-110068610D01*
X192619105Y-110072394D01*
X192612451Y-110075541D01*
X192605521Y-110078021D01*
X192598382Y-110079809D01*
X192591101Y-110080889D01*
X192583750Y-110081250D01*
X192433750Y-110081250D01*
X192426399Y-110080889D01*
X192419118Y-110079809D01*
X192411979Y-110078021D01*
X192405049Y-110075541D01*
X192398395Y-110072394D01*
X192392082Y-110068610D01*
X192386171Y-110064226D01*
X192380717Y-110059283D01*
X192375774Y-110053829D01*
X192371390Y-110047918D01*
X192367606Y-110041605D01*
X192364459Y-110034951D01*
X192361979Y-110028021D01*
X192360191Y-110020882D01*
X192359111Y-110013601D01*
X192358750Y-110006250D01*
X192358750Y-108681250D01*
X192359111Y-108673899D01*
X192360191Y-108666618D01*
X192361979Y-108659479D01*
X192364459Y-108652549D01*
X192367606Y-108645895D01*
X192371390Y-108639582D01*
X192375774Y-108633671D01*
X192380717Y-108628217D01*
X192386171Y-108623274D01*
X192392082Y-108618890D01*
X192398395Y-108615106D01*
X192405049Y-108611959D01*
X192411979Y-108609479D01*
X192419118Y-108607691D01*
X192426399Y-108606611D01*
X192433750Y-108606250D01*
X192583750Y-108606250D01*
X192591101Y-108606611D01*
X192591101Y-108606611D01*
G37*
D18*
X192508750Y-109343750D03*
D13*
G36*
X193091101Y-108606611D02*
G01*
X193098382Y-108607691D01*
X193105521Y-108609479D01*
X193112451Y-108611959D01*
X193119105Y-108615106D01*
X193125418Y-108618890D01*
X193131329Y-108623274D01*
X193136783Y-108628217D01*
X193141726Y-108633671D01*
X193146110Y-108639582D01*
X193149894Y-108645895D01*
X193153041Y-108652549D01*
X193155521Y-108659479D01*
X193157309Y-108666618D01*
X193158389Y-108673899D01*
X193158750Y-108681250D01*
X193158750Y-110006250D01*
X193158389Y-110013601D01*
X193157309Y-110020882D01*
X193155521Y-110028021D01*
X193153041Y-110034951D01*
X193149894Y-110041605D01*
X193146110Y-110047918D01*
X193141726Y-110053829D01*
X193136783Y-110059283D01*
X193131329Y-110064226D01*
X193125418Y-110068610D01*
X193119105Y-110072394D01*
X193112451Y-110075541D01*
X193105521Y-110078021D01*
X193098382Y-110079809D01*
X193091101Y-110080889D01*
X193083750Y-110081250D01*
X192933750Y-110081250D01*
X192926399Y-110080889D01*
X192919118Y-110079809D01*
X192911979Y-110078021D01*
X192905049Y-110075541D01*
X192898395Y-110072394D01*
X192892082Y-110068610D01*
X192886171Y-110064226D01*
X192880717Y-110059283D01*
X192875774Y-110053829D01*
X192871390Y-110047918D01*
X192867606Y-110041605D01*
X192864459Y-110034951D01*
X192861979Y-110028021D01*
X192860191Y-110020882D01*
X192859111Y-110013601D01*
X192858750Y-110006250D01*
X192858750Y-108681250D01*
X192859111Y-108673899D01*
X192860191Y-108666618D01*
X192861979Y-108659479D01*
X192864459Y-108652549D01*
X192867606Y-108645895D01*
X192871390Y-108639582D01*
X192875774Y-108633671D01*
X192880717Y-108628217D01*
X192886171Y-108623274D01*
X192892082Y-108618890D01*
X192898395Y-108615106D01*
X192905049Y-108611959D01*
X192911979Y-108609479D01*
X192919118Y-108607691D01*
X192926399Y-108606611D01*
X192933750Y-108606250D01*
X193083750Y-108606250D01*
X193091101Y-108606611D01*
X193091101Y-108606611D01*
G37*
D18*
X193008750Y-109343750D03*
D13*
G36*
X193591101Y-108606611D02*
G01*
X193598382Y-108607691D01*
X193605521Y-108609479D01*
X193612451Y-108611959D01*
X193619105Y-108615106D01*
X193625418Y-108618890D01*
X193631329Y-108623274D01*
X193636783Y-108628217D01*
X193641726Y-108633671D01*
X193646110Y-108639582D01*
X193649894Y-108645895D01*
X193653041Y-108652549D01*
X193655521Y-108659479D01*
X193657309Y-108666618D01*
X193658389Y-108673899D01*
X193658750Y-108681250D01*
X193658750Y-110006250D01*
X193658389Y-110013601D01*
X193657309Y-110020882D01*
X193655521Y-110028021D01*
X193653041Y-110034951D01*
X193649894Y-110041605D01*
X193646110Y-110047918D01*
X193641726Y-110053829D01*
X193636783Y-110059283D01*
X193631329Y-110064226D01*
X193625418Y-110068610D01*
X193619105Y-110072394D01*
X193612451Y-110075541D01*
X193605521Y-110078021D01*
X193598382Y-110079809D01*
X193591101Y-110080889D01*
X193583750Y-110081250D01*
X193433750Y-110081250D01*
X193426399Y-110080889D01*
X193419118Y-110079809D01*
X193411979Y-110078021D01*
X193405049Y-110075541D01*
X193398395Y-110072394D01*
X193392082Y-110068610D01*
X193386171Y-110064226D01*
X193380717Y-110059283D01*
X193375774Y-110053829D01*
X193371390Y-110047918D01*
X193367606Y-110041605D01*
X193364459Y-110034951D01*
X193361979Y-110028021D01*
X193360191Y-110020882D01*
X193359111Y-110013601D01*
X193358750Y-110006250D01*
X193358750Y-108681250D01*
X193359111Y-108673899D01*
X193360191Y-108666618D01*
X193361979Y-108659479D01*
X193364459Y-108652549D01*
X193367606Y-108645895D01*
X193371390Y-108639582D01*
X193375774Y-108633671D01*
X193380717Y-108628217D01*
X193386171Y-108623274D01*
X193392082Y-108618890D01*
X193398395Y-108615106D01*
X193405049Y-108611959D01*
X193411979Y-108609479D01*
X193419118Y-108607691D01*
X193426399Y-108606611D01*
X193433750Y-108606250D01*
X193583750Y-108606250D01*
X193591101Y-108606611D01*
X193591101Y-108606611D01*
G37*
D18*
X193508750Y-109343750D03*
D13*
G36*
X194091101Y-108606611D02*
G01*
X194098382Y-108607691D01*
X194105521Y-108609479D01*
X194112451Y-108611959D01*
X194119105Y-108615106D01*
X194125418Y-108618890D01*
X194131329Y-108623274D01*
X194136783Y-108628217D01*
X194141726Y-108633671D01*
X194146110Y-108639582D01*
X194149894Y-108645895D01*
X194153041Y-108652549D01*
X194155521Y-108659479D01*
X194157309Y-108666618D01*
X194158389Y-108673899D01*
X194158750Y-108681250D01*
X194158750Y-110006250D01*
X194158389Y-110013601D01*
X194157309Y-110020882D01*
X194155521Y-110028021D01*
X194153041Y-110034951D01*
X194149894Y-110041605D01*
X194146110Y-110047918D01*
X194141726Y-110053829D01*
X194136783Y-110059283D01*
X194131329Y-110064226D01*
X194125418Y-110068610D01*
X194119105Y-110072394D01*
X194112451Y-110075541D01*
X194105521Y-110078021D01*
X194098382Y-110079809D01*
X194091101Y-110080889D01*
X194083750Y-110081250D01*
X193933750Y-110081250D01*
X193926399Y-110080889D01*
X193919118Y-110079809D01*
X193911979Y-110078021D01*
X193905049Y-110075541D01*
X193898395Y-110072394D01*
X193892082Y-110068610D01*
X193886171Y-110064226D01*
X193880717Y-110059283D01*
X193875774Y-110053829D01*
X193871390Y-110047918D01*
X193867606Y-110041605D01*
X193864459Y-110034951D01*
X193861979Y-110028021D01*
X193860191Y-110020882D01*
X193859111Y-110013601D01*
X193858750Y-110006250D01*
X193858750Y-108681250D01*
X193859111Y-108673899D01*
X193860191Y-108666618D01*
X193861979Y-108659479D01*
X193864459Y-108652549D01*
X193867606Y-108645895D01*
X193871390Y-108639582D01*
X193875774Y-108633671D01*
X193880717Y-108628217D01*
X193886171Y-108623274D01*
X193892082Y-108618890D01*
X193898395Y-108615106D01*
X193905049Y-108611959D01*
X193911979Y-108609479D01*
X193919118Y-108607691D01*
X193926399Y-108606611D01*
X193933750Y-108606250D01*
X194083750Y-108606250D01*
X194091101Y-108606611D01*
X194091101Y-108606611D01*
G37*
D18*
X194008750Y-109343750D03*
D13*
G36*
X194591101Y-108606611D02*
G01*
X194598382Y-108607691D01*
X194605521Y-108609479D01*
X194612451Y-108611959D01*
X194619105Y-108615106D01*
X194625418Y-108618890D01*
X194631329Y-108623274D01*
X194636783Y-108628217D01*
X194641726Y-108633671D01*
X194646110Y-108639582D01*
X194649894Y-108645895D01*
X194653041Y-108652549D01*
X194655521Y-108659479D01*
X194657309Y-108666618D01*
X194658389Y-108673899D01*
X194658750Y-108681250D01*
X194658750Y-110006250D01*
X194658389Y-110013601D01*
X194657309Y-110020882D01*
X194655521Y-110028021D01*
X194653041Y-110034951D01*
X194649894Y-110041605D01*
X194646110Y-110047918D01*
X194641726Y-110053829D01*
X194636783Y-110059283D01*
X194631329Y-110064226D01*
X194625418Y-110068610D01*
X194619105Y-110072394D01*
X194612451Y-110075541D01*
X194605521Y-110078021D01*
X194598382Y-110079809D01*
X194591101Y-110080889D01*
X194583750Y-110081250D01*
X194433750Y-110081250D01*
X194426399Y-110080889D01*
X194419118Y-110079809D01*
X194411979Y-110078021D01*
X194405049Y-110075541D01*
X194398395Y-110072394D01*
X194392082Y-110068610D01*
X194386171Y-110064226D01*
X194380717Y-110059283D01*
X194375774Y-110053829D01*
X194371390Y-110047918D01*
X194367606Y-110041605D01*
X194364459Y-110034951D01*
X194361979Y-110028021D01*
X194360191Y-110020882D01*
X194359111Y-110013601D01*
X194358750Y-110006250D01*
X194358750Y-108681250D01*
X194359111Y-108673899D01*
X194360191Y-108666618D01*
X194361979Y-108659479D01*
X194364459Y-108652549D01*
X194367606Y-108645895D01*
X194371390Y-108639582D01*
X194375774Y-108633671D01*
X194380717Y-108628217D01*
X194386171Y-108623274D01*
X194392082Y-108618890D01*
X194398395Y-108615106D01*
X194405049Y-108611959D01*
X194411979Y-108609479D01*
X194419118Y-108607691D01*
X194426399Y-108606611D01*
X194433750Y-108606250D01*
X194583750Y-108606250D01*
X194591101Y-108606611D01*
X194591101Y-108606611D01*
G37*
D18*
X194508750Y-109343750D03*
D13*
G36*
X195091101Y-108606611D02*
G01*
X195098382Y-108607691D01*
X195105521Y-108609479D01*
X195112451Y-108611959D01*
X195119105Y-108615106D01*
X195125418Y-108618890D01*
X195131329Y-108623274D01*
X195136783Y-108628217D01*
X195141726Y-108633671D01*
X195146110Y-108639582D01*
X195149894Y-108645895D01*
X195153041Y-108652549D01*
X195155521Y-108659479D01*
X195157309Y-108666618D01*
X195158389Y-108673899D01*
X195158750Y-108681250D01*
X195158750Y-110006250D01*
X195158389Y-110013601D01*
X195157309Y-110020882D01*
X195155521Y-110028021D01*
X195153041Y-110034951D01*
X195149894Y-110041605D01*
X195146110Y-110047918D01*
X195141726Y-110053829D01*
X195136783Y-110059283D01*
X195131329Y-110064226D01*
X195125418Y-110068610D01*
X195119105Y-110072394D01*
X195112451Y-110075541D01*
X195105521Y-110078021D01*
X195098382Y-110079809D01*
X195091101Y-110080889D01*
X195083750Y-110081250D01*
X194933750Y-110081250D01*
X194926399Y-110080889D01*
X194919118Y-110079809D01*
X194911979Y-110078021D01*
X194905049Y-110075541D01*
X194898395Y-110072394D01*
X194892082Y-110068610D01*
X194886171Y-110064226D01*
X194880717Y-110059283D01*
X194875774Y-110053829D01*
X194871390Y-110047918D01*
X194867606Y-110041605D01*
X194864459Y-110034951D01*
X194861979Y-110028021D01*
X194860191Y-110020882D01*
X194859111Y-110013601D01*
X194858750Y-110006250D01*
X194858750Y-108681250D01*
X194859111Y-108673899D01*
X194860191Y-108666618D01*
X194861979Y-108659479D01*
X194864459Y-108652549D01*
X194867606Y-108645895D01*
X194871390Y-108639582D01*
X194875774Y-108633671D01*
X194880717Y-108628217D01*
X194886171Y-108623274D01*
X194892082Y-108618890D01*
X194898395Y-108615106D01*
X194905049Y-108611959D01*
X194911979Y-108609479D01*
X194919118Y-108607691D01*
X194926399Y-108606611D01*
X194933750Y-108606250D01*
X195083750Y-108606250D01*
X195091101Y-108606611D01*
X195091101Y-108606611D01*
G37*
D18*
X195008750Y-109343750D03*
D13*
G36*
X195591101Y-108606611D02*
G01*
X195598382Y-108607691D01*
X195605521Y-108609479D01*
X195612451Y-108611959D01*
X195619105Y-108615106D01*
X195625418Y-108618890D01*
X195631329Y-108623274D01*
X195636783Y-108628217D01*
X195641726Y-108633671D01*
X195646110Y-108639582D01*
X195649894Y-108645895D01*
X195653041Y-108652549D01*
X195655521Y-108659479D01*
X195657309Y-108666618D01*
X195658389Y-108673899D01*
X195658750Y-108681250D01*
X195658750Y-110006250D01*
X195658389Y-110013601D01*
X195657309Y-110020882D01*
X195655521Y-110028021D01*
X195653041Y-110034951D01*
X195649894Y-110041605D01*
X195646110Y-110047918D01*
X195641726Y-110053829D01*
X195636783Y-110059283D01*
X195631329Y-110064226D01*
X195625418Y-110068610D01*
X195619105Y-110072394D01*
X195612451Y-110075541D01*
X195605521Y-110078021D01*
X195598382Y-110079809D01*
X195591101Y-110080889D01*
X195583750Y-110081250D01*
X195433750Y-110081250D01*
X195426399Y-110080889D01*
X195419118Y-110079809D01*
X195411979Y-110078021D01*
X195405049Y-110075541D01*
X195398395Y-110072394D01*
X195392082Y-110068610D01*
X195386171Y-110064226D01*
X195380717Y-110059283D01*
X195375774Y-110053829D01*
X195371390Y-110047918D01*
X195367606Y-110041605D01*
X195364459Y-110034951D01*
X195361979Y-110028021D01*
X195360191Y-110020882D01*
X195359111Y-110013601D01*
X195358750Y-110006250D01*
X195358750Y-108681250D01*
X195359111Y-108673899D01*
X195360191Y-108666618D01*
X195361979Y-108659479D01*
X195364459Y-108652549D01*
X195367606Y-108645895D01*
X195371390Y-108639582D01*
X195375774Y-108633671D01*
X195380717Y-108628217D01*
X195386171Y-108623274D01*
X195392082Y-108618890D01*
X195398395Y-108615106D01*
X195405049Y-108611959D01*
X195411979Y-108609479D01*
X195419118Y-108607691D01*
X195426399Y-108606611D01*
X195433750Y-108606250D01*
X195583750Y-108606250D01*
X195591101Y-108606611D01*
X195591101Y-108606611D01*
G37*
D18*
X195508750Y-109343750D03*
D13*
G36*
X196091101Y-108606611D02*
G01*
X196098382Y-108607691D01*
X196105521Y-108609479D01*
X196112451Y-108611959D01*
X196119105Y-108615106D01*
X196125418Y-108618890D01*
X196131329Y-108623274D01*
X196136783Y-108628217D01*
X196141726Y-108633671D01*
X196146110Y-108639582D01*
X196149894Y-108645895D01*
X196153041Y-108652549D01*
X196155521Y-108659479D01*
X196157309Y-108666618D01*
X196158389Y-108673899D01*
X196158750Y-108681250D01*
X196158750Y-110006250D01*
X196158389Y-110013601D01*
X196157309Y-110020882D01*
X196155521Y-110028021D01*
X196153041Y-110034951D01*
X196149894Y-110041605D01*
X196146110Y-110047918D01*
X196141726Y-110053829D01*
X196136783Y-110059283D01*
X196131329Y-110064226D01*
X196125418Y-110068610D01*
X196119105Y-110072394D01*
X196112451Y-110075541D01*
X196105521Y-110078021D01*
X196098382Y-110079809D01*
X196091101Y-110080889D01*
X196083750Y-110081250D01*
X195933750Y-110081250D01*
X195926399Y-110080889D01*
X195919118Y-110079809D01*
X195911979Y-110078021D01*
X195905049Y-110075541D01*
X195898395Y-110072394D01*
X195892082Y-110068610D01*
X195886171Y-110064226D01*
X195880717Y-110059283D01*
X195875774Y-110053829D01*
X195871390Y-110047918D01*
X195867606Y-110041605D01*
X195864459Y-110034951D01*
X195861979Y-110028021D01*
X195860191Y-110020882D01*
X195859111Y-110013601D01*
X195858750Y-110006250D01*
X195858750Y-108681250D01*
X195859111Y-108673899D01*
X195860191Y-108666618D01*
X195861979Y-108659479D01*
X195864459Y-108652549D01*
X195867606Y-108645895D01*
X195871390Y-108639582D01*
X195875774Y-108633671D01*
X195880717Y-108628217D01*
X195886171Y-108623274D01*
X195892082Y-108618890D01*
X195898395Y-108615106D01*
X195905049Y-108611959D01*
X195911979Y-108609479D01*
X195919118Y-108607691D01*
X195926399Y-108606611D01*
X195933750Y-108606250D01*
X196083750Y-108606250D01*
X196091101Y-108606611D01*
X196091101Y-108606611D01*
G37*
D18*
X196008750Y-109343750D03*
D13*
G36*
X196591101Y-108606611D02*
G01*
X196598382Y-108607691D01*
X196605521Y-108609479D01*
X196612451Y-108611959D01*
X196619105Y-108615106D01*
X196625418Y-108618890D01*
X196631329Y-108623274D01*
X196636783Y-108628217D01*
X196641726Y-108633671D01*
X196646110Y-108639582D01*
X196649894Y-108645895D01*
X196653041Y-108652549D01*
X196655521Y-108659479D01*
X196657309Y-108666618D01*
X196658389Y-108673899D01*
X196658750Y-108681250D01*
X196658750Y-110006250D01*
X196658389Y-110013601D01*
X196657309Y-110020882D01*
X196655521Y-110028021D01*
X196653041Y-110034951D01*
X196649894Y-110041605D01*
X196646110Y-110047918D01*
X196641726Y-110053829D01*
X196636783Y-110059283D01*
X196631329Y-110064226D01*
X196625418Y-110068610D01*
X196619105Y-110072394D01*
X196612451Y-110075541D01*
X196605521Y-110078021D01*
X196598382Y-110079809D01*
X196591101Y-110080889D01*
X196583750Y-110081250D01*
X196433750Y-110081250D01*
X196426399Y-110080889D01*
X196419118Y-110079809D01*
X196411979Y-110078021D01*
X196405049Y-110075541D01*
X196398395Y-110072394D01*
X196392082Y-110068610D01*
X196386171Y-110064226D01*
X196380717Y-110059283D01*
X196375774Y-110053829D01*
X196371390Y-110047918D01*
X196367606Y-110041605D01*
X196364459Y-110034951D01*
X196361979Y-110028021D01*
X196360191Y-110020882D01*
X196359111Y-110013601D01*
X196358750Y-110006250D01*
X196358750Y-108681250D01*
X196359111Y-108673899D01*
X196360191Y-108666618D01*
X196361979Y-108659479D01*
X196364459Y-108652549D01*
X196367606Y-108645895D01*
X196371390Y-108639582D01*
X196375774Y-108633671D01*
X196380717Y-108628217D01*
X196386171Y-108623274D01*
X196392082Y-108618890D01*
X196398395Y-108615106D01*
X196405049Y-108611959D01*
X196411979Y-108609479D01*
X196419118Y-108607691D01*
X196426399Y-108606611D01*
X196433750Y-108606250D01*
X196583750Y-108606250D01*
X196591101Y-108606611D01*
X196591101Y-108606611D01*
G37*
D18*
X196508750Y-109343750D03*
D13*
G36*
X197091101Y-108606611D02*
G01*
X197098382Y-108607691D01*
X197105521Y-108609479D01*
X197112451Y-108611959D01*
X197119105Y-108615106D01*
X197125418Y-108618890D01*
X197131329Y-108623274D01*
X197136783Y-108628217D01*
X197141726Y-108633671D01*
X197146110Y-108639582D01*
X197149894Y-108645895D01*
X197153041Y-108652549D01*
X197155521Y-108659479D01*
X197157309Y-108666618D01*
X197158389Y-108673899D01*
X197158750Y-108681250D01*
X197158750Y-110006250D01*
X197158389Y-110013601D01*
X197157309Y-110020882D01*
X197155521Y-110028021D01*
X197153041Y-110034951D01*
X197149894Y-110041605D01*
X197146110Y-110047918D01*
X197141726Y-110053829D01*
X197136783Y-110059283D01*
X197131329Y-110064226D01*
X197125418Y-110068610D01*
X197119105Y-110072394D01*
X197112451Y-110075541D01*
X197105521Y-110078021D01*
X197098382Y-110079809D01*
X197091101Y-110080889D01*
X197083750Y-110081250D01*
X196933750Y-110081250D01*
X196926399Y-110080889D01*
X196919118Y-110079809D01*
X196911979Y-110078021D01*
X196905049Y-110075541D01*
X196898395Y-110072394D01*
X196892082Y-110068610D01*
X196886171Y-110064226D01*
X196880717Y-110059283D01*
X196875774Y-110053829D01*
X196871390Y-110047918D01*
X196867606Y-110041605D01*
X196864459Y-110034951D01*
X196861979Y-110028021D01*
X196860191Y-110020882D01*
X196859111Y-110013601D01*
X196858750Y-110006250D01*
X196858750Y-108681250D01*
X196859111Y-108673899D01*
X196860191Y-108666618D01*
X196861979Y-108659479D01*
X196864459Y-108652549D01*
X196867606Y-108645895D01*
X196871390Y-108639582D01*
X196875774Y-108633671D01*
X196880717Y-108628217D01*
X196886171Y-108623274D01*
X196892082Y-108618890D01*
X196898395Y-108615106D01*
X196905049Y-108611959D01*
X196911979Y-108609479D01*
X196919118Y-108607691D01*
X196926399Y-108606611D01*
X196933750Y-108606250D01*
X197083750Y-108606250D01*
X197091101Y-108606611D01*
X197091101Y-108606611D01*
G37*
D18*
X197008750Y-109343750D03*
D13*
G36*
X197591101Y-108606611D02*
G01*
X197598382Y-108607691D01*
X197605521Y-108609479D01*
X197612451Y-108611959D01*
X197619105Y-108615106D01*
X197625418Y-108618890D01*
X197631329Y-108623274D01*
X197636783Y-108628217D01*
X197641726Y-108633671D01*
X197646110Y-108639582D01*
X197649894Y-108645895D01*
X197653041Y-108652549D01*
X197655521Y-108659479D01*
X197657309Y-108666618D01*
X197658389Y-108673899D01*
X197658750Y-108681250D01*
X197658750Y-110006250D01*
X197658389Y-110013601D01*
X197657309Y-110020882D01*
X197655521Y-110028021D01*
X197653041Y-110034951D01*
X197649894Y-110041605D01*
X197646110Y-110047918D01*
X197641726Y-110053829D01*
X197636783Y-110059283D01*
X197631329Y-110064226D01*
X197625418Y-110068610D01*
X197619105Y-110072394D01*
X197612451Y-110075541D01*
X197605521Y-110078021D01*
X197598382Y-110079809D01*
X197591101Y-110080889D01*
X197583750Y-110081250D01*
X197433750Y-110081250D01*
X197426399Y-110080889D01*
X197419118Y-110079809D01*
X197411979Y-110078021D01*
X197405049Y-110075541D01*
X197398395Y-110072394D01*
X197392082Y-110068610D01*
X197386171Y-110064226D01*
X197380717Y-110059283D01*
X197375774Y-110053829D01*
X197371390Y-110047918D01*
X197367606Y-110041605D01*
X197364459Y-110034951D01*
X197361979Y-110028021D01*
X197360191Y-110020882D01*
X197359111Y-110013601D01*
X197358750Y-110006250D01*
X197358750Y-108681250D01*
X197359111Y-108673899D01*
X197360191Y-108666618D01*
X197361979Y-108659479D01*
X197364459Y-108652549D01*
X197367606Y-108645895D01*
X197371390Y-108639582D01*
X197375774Y-108633671D01*
X197380717Y-108628217D01*
X197386171Y-108623274D01*
X197392082Y-108618890D01*
X197398395Y-108615106D01*
X197405049Y-108611959D01*
X197411979Y-108609479D01*
X197419118Y-108607691D01*
X197426399Y-108606611D01*
X197433750Y-108606250D01*
X197583750Y-108606250D01*
X197591101Y-108606611D01*
X197591101Y-108606611D01*
G37*
D18*
X197508750Y-109343750D03*
D13*
G36*
X199591101Y-110606611D02*
G01*
X199598382Y-110607691D01*
X199605521Y-110609479D01*
X199612451Y-110611959D01*
X199619105Y-110615106D01*
X199625418Y-110618890D01*
X199631329Y-110623274D01*
X199636783Y-110628217D01*
X199641726Y-110633671D01*
X199646110Y-110639582D01*
X199649894Y-110645895D01*
X199653041Y-110652549D01*
X199655521Y-110659479D01*
X199657309Y-110666618D01*
X199658389Y-110673899D01*
X199658750Y-110681250D01*
X199658750Y-110831250D01*
X199658389Y-110838601D01*
X199657309Y-110845882D01*
X199655521Y-110853021D01*
X199653041Y-110859951D01*
X199649894Y-110866605D01*
X199646110Y-110872918D01*
X199641726Y-110878829D01*
X199636783Y-110884283D01*
X199631329Y-110889226D01*
X199625418Y-110893610D01*
X199619105Y-110897394D01*
X199612451Y-110900541D01*
X199605521Y-110903021D01*
X199598382Y-110904809D01*
X199591101Y-110905889D01*
X199583750Y-110906250D01*
X198258750Y-110906250D01*
X198251399Y-110905889D01*
X198244118Y-110904809D01*
X198236979Y-110903021D01*
X198230049Y-110900541D01*
X198223395Y-110897394D01*
X198217082Y-110893610D01*
X198211171Y-110889226D01*
X198205717Y-110884283D01*
X198200774Y-110878829D01*
X198196390Y-110872918D01*
X198192606Y-110866605D01*
X198189459Y-110859951D01*
X198186979Y-110853021D01*
X198185191Y-110845882D01*
X198184111Y-110838601D01*
X198183750Y-110831250D01*
X198183750Y-110681250D01*
X198184111Y-110673899D01*
X198185191Y-110666618D01*
X198186979Y-110659479D01*
X198189459Y-110652549D01*
X198192606Y-110645895D01*
X198196390Y-110639582D01*
X198200774Y-110633671D01*
X198205717Y-110628217D01*
X198211171Y-110623274D01*
X198217082Y-110618890D01*
X198223395Y-110615106D01*
X198230049Y-110611959D01*
X198236979Y-110609479D01*
X198244118Y-110607691D01*
X198251399Y-110606611D01*
X198258750Y-110606250D01*
X199583750Y-110606250D01*
X199591101Y-110606611D01*
X199591101Y-110606611D01*
G37*
D18*
X198921250Y-110756250D03*
D13*
G36*
X199591101Y-111106611D02*
G01*
X199598382Y-111107691D01*
X199605521Y-111109479D01*
X199612451Y-111111959D01*
X199619105Y-111115106D01*
X199625418Y-111118890D01*
X199631329Y-111123274D01*
X199636783Y-111128217D01*
X199641726Y-111133671D01*
X199646110Y-111139582D01*
X199649894Y-111145895D01*
X199653041Y-111152549D01*
X199655521Y-111159479D01*
X199657309Y-111166618D01*
X199658389Y-111173899D01*
X199658750Y-111181250D01*
X199658750Y-111331250D01*
X199658389Y-111338601D01*
X199657309Y-111345882D01*
X199655521Y-111353021D01*
X199653041Y-111359951D01*
X199649894Y-111366605D01*
X199646110Y-111372918D01*
X199641726Y-111378829D01*
X199636783Y-111384283D01*
X199631329Y-111389226D01*
X199625418Y-111393610D01*
X199619105Y-111397394D01*
X199612451Y-111400541D01*
X199605521Y-111403021D01*
X199598382Y-111404809D01*
X199591101Y-111405889D01*
X199583750Y-111406250D01*
X198258750Y-111406250D01*
X198251399Y-111405889D01*
X198244118Y-111404809D01*
X198236979Y-111403021D01*
X198230049Y-111400541D01*
X198223395Y-111397394D01*
X198217082Y-111393610D01*
X198211171Y-111389226D01*
X198205717Y-111384283D01*
X198200774Y-111378829D01*
X198196390Y-111372918D01*
X198192606Y-111366605D01*
X198189459Y-111359951D01*
X198186979Y-111353021D01*
X198185191Y-111345882D01*
X198184111Y-111338601D01*
X198183750Y-111331250D01*
X198183750Y-111181250D01*
X198184111Y-111173899D01*
X198185191Y-111166618D01*
X198186979Y-111159479D01*
X198189459Y-111152549D01*
X198192606Y-111145895D01*
X198196390Y-111139582D01*
X198200774Y-111133671D01*
X198205717Y-111128217D01*
X198211171Y-111123274D01*
X198217082Y-111118890D01*
X198223395Y-111115106D01*
X198230049Y-111111959D01*
X198236979Y-111109479D01*
X198244118Y-111107691D01*
X198251399Y-111106611D01*
X198258750Y-111106250D01*
X199583750Y-111106250D01*
X199591101Y-111106611D01*
X199591101Y-111106611D01*
G37*
D18*
X198921250Y-111256250D03*
D13*
G36*
X199591101Y-111606611D02*
G01*
X199598382Y-111607691D01*
X199605521Y-111609479D01*
X199612451Y-111611959D01*
X199619105Y-111615106D01*
X199625418Y-111618890D01*
X199631329Y-111623274D01*
X199636783Y-111628217D01*
X199641726Y-111633671D01*
X199646110Y-111639582D01*
X199649894Y-111645895D01*
X199653041Y-111652549D01*
X199655521Y-111659479D01*
X199657309Y-111666618D01*
X199658389Y-111673899D01*
X199658750Y-111681250D01*
X199658750Y-111831250D01*
X199658389Y-111838601D01*
X199657309Y-111845882D01*
X199655521Y-111853021D01*
X199653041Y-111859951D01*
X199649894Y-111866605D01*
X199646110Y-111872918D01*
X199641726Y-111878829D01*
X199636783Y-111884283D01*
X199631329Y-111889226D01*
X199625418Y-111893610D01*
X199619105Y-111897394D01*
X199612451Y-111900541D01*
X199605521Y-111903021D01*
X199598382Y-111904809D01*
X199591101Y-111905889D01*
X199583750Y-111906250D01*
X198258750Y-111906250D01*
X198251399Y-111905889D01*
X198244118Y-111904809D01*
X198236979Y-111903021D01*
X198230049Y-111900541D01*
X198223395Y-111897394D01*
X198217082Y-111893610D01*
X198211171Y-111889226D01*
X198205717Y-111884283D01*
X198200774Y-111878829D01*
X198196390Y-111872918D01*
X198192606Y-111866605D01*
X198189459Y-111859951D01*
X198186979Y-111853021D01*
X198185191Y-111845882D01*
X198184111Y-111838601D01*
X198183750Y-111831250D01*
X198183750Y-111681250D01*
X198184111Y-111673899D01*
X198185191Y-111666618D01*
X198186979Y-111659479D01*
X198189459Y-111652549D01*
X198192606Y-111645895D01*
X198196390Y-111639582D01*
X198200774Y-111633671D01*
X198205717Y-111628217D01*
X198211171Y-111623274D01*
X198217082Y-111618890D01*
X198223395Y-111615106D01*
X198230049Y-111611959D01*
X198236979Y-111609479D01*
X198244118Y-111607691D01*
X198251399Y-111606611D01*
X198258750Y-111606250D01*
X199583750Y-111606250D01*
X199591101Y-111606611D01*
X199591101Y-111606611D01*
G37*
D18*
X198921250Y-111756250D03*
D13*
G36*
X199591101Y-112106611D02*
G01*
X199598382Y-112107691D01*
X199605521Y-112109479D01*
X199612451Y-112111959D01*
X199619105Y-112115106D01*
X199625418Y-112118890D01*
X199631329Y-112123274D01*
X199636783Y-112128217D01*
X199641726Y-112133671D01*
X199646110Y-112139582D01*
X199649894Y-112145895D01*
X199653041Y-112152549D01*
X199655521Y-112159479D01*
X199657309Y-112166618D01*
X199658389Y-112173899D01*
X199658750Y-112181250D01*
X199658750Y-112331250D01*
X199658389Y-112338601D01*
X199657309Y-112345882D01*
X199655521Y-112353021D01*
X199653041Y-112359951D01*
X199649894Y-112366605D01*
X199646110Y-112372918D01*
X199641726Y-112378829D01*
X199636783Y-112384283D01*
X199631329Y-112389226D01*
X199625418Y-112393610D01*
X199619105Y-112397394D01*
X199612451Y-112400541D01*
X199605521Y-112403021D01*
X199598382Y-112404809D01*
X199591101Y-112405889D01*
X199583750Y-112406250D01*
X198258750Y-112406250D01*
X198251399Y-112405889D01*
X198244118Y-112404809D01*
X198236979Y-112403021D01*
X198230049Y-112400541D01*
X198223395Y-112397394D01*
X198217082Y-112393610D01*
X198211171Y-112389226D01*
X198205717Y-112384283D01*
X198200774Y-112378829D01*
X198196390Y-112372918D01*
X198192606Y-112366605D01*
X198189459Y-112359951D01*
X198186979Y-112353021D01*
X198185191Y-112345882D01*
X198184111Y-112338601D01*
X198183750Y-112331250D01*
X198183750Y-112181250D01*
X198184111Y-112173899D01*
X198185191Y-112166618D01*
X198186979Y-112159479D01*
X198189459Y-112152549D01*
X198192606Y-112145895D01*
X198196390Y-112139582D01*
X198200774Y-112133671D01*
X198205717Y-112128217D01*
X198211171Y-112123274D01*
X198217082Y-112118890D01*
X198223395Y-112115106D01*
X198230049Y-112111959D01*
X198236979Y-112109479D01*
X198244118Y-112107691D01*
X198251399Y-112106611D01*
X198258750Y-112106250D01*
X199583750Y-112106250D01*
X199591101Y-112106611D01*
X199591101Y-112106611D01*
G37*
D18*
X198921250Y-112256250D03*
D13*
G36*
X199591101Y-112606611D02*
G01*
X199598382Y-112607691D01*
X199605521Y-112609479D01*
X199612451Y-112611959D01*
X199619105Y-112615106D01*
X199625418Y-112618890D01*
X199631329Y-112623274D01*
X199636783Y-112628217D01*
X199641726Y-112633671D01*
X199646110Y-112639582D01*
X199649894Y-112645895D01*
X199653041Y-112652549D01*
X199655521Y-112659479D01*
X199657309Y-112666618D01*
X199658389Y-112673899D01*
X199658750Y-112681250D01*
X199658750Y-112831250D01*
X199658389Y-112838601D01*
X199657309Y-112845882D01*
X199655521Y-112853021D01*
X199653041Y-112859951D01*
X199649894Y-112866605D01*
X199646110Y-112872918D01*
X199641726Y-112878829D01*
X199636783Y-112884283D01*
X199631329Y-112889226D01*
X199625418Y-112893610D01*
X199619105Y-112897394D01*
X199612451Y-112900541D01*
X199605521Y-112903021D01*
X199598382Y-112904809D01*
X199591101Y-112905889D01*
X199583750Y-112906250D01*
X198258750Y-112906250D01*
X198251399Y-112905889D01*
X198244118Y-112904809D01*
X198236979Y-112903021D01*
X198230049Y-112900541D01*
X198223395Y-112897394D01*
X198217082Y-112893610D01*
X198211171Y-112889226D01*
X198205717Y-112884283D01*
X198200774Y-112878829D01*
X198196390Y-112872918D01*
X198192606Y-112866605D01*
X198189459Y-112859951D01*
X198186979Y-112853021D01*
X198185191Y-112845882D01*
X198184111Y-112838601D01*
X198183750Y-112831250D01*
X198183750Y-112681250D01*
X198184111Y-112673899D01*
X198185191Y-112666618D01*
X198186979Y-112659479D01*
X198189459Y-112652549D01*
X198192606Y-112645895D01*
X198196390Y-112639582D01*
X198200774Y-112633671D01*
X198205717Y-112628217D01*
X198211171Y-112623274D01*
X198217082Y-112618890D01*
X198223395Y-112615106D01*
X198230049Y-112611959D01*
X198236979Y-112609479D01*
X198244118Y-112607691D01*
X198251399Y-112606611D01*
X198258750Y-112606250D01*
X199583750Y-112606250D01*
X199591101Y-112606611D01*
X199591101Y-112606611D01*
G37*
D18*
X198921250Y-112756250D03*
D13*
G36*
X199591101Y-113106611D02*
G01*
X199598382Y-113107691D01*
X199605521Y-113109479D01*
X199612451Y-113111959D01*
X199619105Y-113115106D01*
X199625418Y-113118890D01*
X199631329Y-113123274D01*
X199636783Y-113128217D01*
X199641726Y-113133671D01*
X199646110Y-113139582D01*
X199649894Y-113145895D01*
X199653041Y-113152549D01*
X199655521Y-113159479D01*
X199657309Y-113166618D01*
X199658389Y-113173899D01*
X199658750Y-113181250D01*
X199658750Y-113331250D01*
X199658389Y-113338601D01*
X199657309Y-113345882D01*
X199655521Y-113353021D01*
X199653041Y-113359951D01*
X199649894Y-113366605D01*
X199646110Y-113372918D01*
X199641726Y-113378829D01*
X199636783Y-113384283D01*
X199631329Y-113389226D01*
X199625418Y-113393610D01*
X199619105Y-113397394D01*
X199612451Y-113400541D01*
X199605521Y-113403021D01*
X199598382Y-113404809D01*
X199591101Y-113405889D01*
X199583750Y-113406250D01*
X198258750Y-113406250D01*
X198251399Y-113405889D01*
X198244118Y-113404809D01*
X198236979Y-113403021D01*
X198230049Y-113400541D01*
X198223395Y-113397394D01*
X198217082Y-113393610D01*
X198211171Y-113389226D01*
X198205717Y-113384283D01*
X198200774Y-113378829D01*
X198196390Y-113372918D01*
X198192606Y-113366605D01*
X198189459Y-113359951D01*
X198186979Y-113353021D01*
X198185191Y-113345882D01*
X198184111Y-113338601D01*
X198183750Y-113331250D01*
X198183750Y-113181250D01*
X198184111Y-113173899D01*
X198185191Y-113166618D01*
X198186979Y-113159479D01*
X198189459Y-113152549D01*
X198192606Y-113145895D01*
X198196390Y-113139582D01*
X198200774Y-113133671D01*
X198205717Y-113128217D01*
X198211171Y-113123274D01*
X198217082Y-113118890D01*
X198223395Y-113115106D01*
X198230049Y-113111959D01*
X198236979Y-113109479D01*
X198244118Y-113107691D01*
X198251399Y-113106611D01*
X198258750Y-113106250D01*
X199583750Y-113106250D01*
X199591101Y-113106611D01*
X199591101Y-113106611D01*
G37*
D18*
X198921250Y-113256250D03*
D13*
G36*
X199591101Y-113606611D02*
G01*
X199598382Y-113607691D01*
X199605521Y-113609479D01*
X199612451Y-113611959D01*
X199619105Y-113615106D01*
X199625418Y-113618890D01*
X199631329Y-113623274D01*
X199636783Y-113628217D01*
X199641726Y-113633671D01*
X199646110Y-113639582D01*
X199649894Y-113645895D01*
X199653041Y-113652549D01*
X199655521Y-113659479D01*
X199657309Y-113666618D01*
X199658389Y-113673899D01*
X199658750Y-113681250D01*
X199658750Y-113831250D01*
X199658389Y-113838601D01*
X199657309Y-113845882D01*
X199655521Y-113853021D01*
X199653041Y-113859951D01*
X199649894Y-113866605D01*
X199646110Y-113872918D01*
X199641726Y-113878829D01*
X199636783Y-113884283D01*
X199631329Y-113889226D01*
X199625418Y-113893610D01*
X199619105Y-113897394D01*
X199612451Y-113900541D01*
X199605521Y-113903021D01*
X199598382Y-113904809D01*
X199591101Y-113905889D01*
X199583750Y-113906250D01*
X198258750Y-113906250D01*
X198251399Y-113905889D01*
X198244118Y-113904809D01*
X198236979Y-113903021D01*
X198230049Y-113900541D01*
X198223395Y-113897394D01*
X198217082Y-113893610D01*
X198211171Y-113889226D01*
X198205717Y-113884283D01*
X198200774Y-113878829D01*
X198196390Y-113872918D01*
X198192606Y-113866605D01*
X198189459Y-113859951D01*
X198186979Y-113853021D01*
X198185191Y-113845882D01*
X198184111Y-113838601D01*
X198183750Y-113831250D01*
X198183750Y-113681250D01*
X198184111Y-113673899D01*
X198185191Y-113666618D01*
X198186979Y-113659479D01*
X198189459Y-113652549D01*
X198192606Y-113645895D01*
X198196390Y-113639582D01*
X198200774Y-113633671D01*
X198205717Y-113628217D01*
X198211171Y-113623274D01*
X198217082Y-113618890D01*
X198223395Y-113615106D01*
X198230049Y-113611959D01*
X198236979Y-113609479D01*
X198244118Y-113607691D01*
X198251399Y-113606611D01*
X198258750Y-113606250D01*
X199583750Y-113606250D01*
X199591101Y-113606611D01*
X199591101Y-113606611D01*
G37*
D18*
X198921250Y-113756250D03*
D13*
G36*
X199591101Y-114106611D02*
G01*
X199598382Y-114107691D01*
X199605521Y-114109479D01*
X199612451Y-114111959D01*
X199619105Y-114115106D01*
X199625418Y-114118890D01*
X199631329Y-114123274D01*
X199636783Y-114128217D01*
X199641726Y-114133671D01*
X199646110Y-114139582D01*
X199649894Y-114145895D01*
X199653041Y-114152549D01*
X199655521Y-114159479D01*
X199657309Y-114166618D01*
X199658389Y-114173899D01*
X199658750Y-114181250D01*
X199658750Y-114331250D01*
X199658389Y-114338601D01*
X199657309Y-114345882D01*
X199655521Y-114353021D01*
X199653041Y-114359951D01*
X199649894Y-114366605D01*
X199646110Y-114372918D01*
X199641726Y-114378829D01*
X199636783Y-114384283D01*
X199631329Y-114389226D01*
X199625418Y-114393610D01*
X199619105Y-114397394D01*
X199612451Y-114400541D01*
X199605521Y-114403021D01*
X199598382Y-114404809D01*
X199591101Y-114405889D01*
X199583750Y-114406250D01*
X198258750Y-114406250D01*
X198251399Y-114405889D01*
X198244118Y-114404809D01*
X198236979Y-114403021D01*
X198230049Y-114400541D01*
X198223395Y-114397394D01*
X198217082Y-114393610D01*
X198211171Y-114389226D01*
X198205717Y-114384283D01*
X198200774Y-114378829D01*
X198196390Y-114372918D01*
X198192606Y-114366605D01*
X198189459Y-114359951D01*
X198186979Y-114353021D01*
X198185191Y-114345882D01*
X198184111Y-114338601D01*
X198183750Y-114331250D01*
X198183750Y-114181250D01*
X198184111Y-114173899D01*
X198185191Y-114166618D01*
X198186979Y-114159479D01*
X198189459Y-114152549D01*
X198192606Y-114145895D01*
X198196390Y-114139582D01*
X198200774Y-114133671D01*
X198205717Y-114128217D01*
X198211171Y-114123274D01*
X198217082Y-114118890D01*
X198223395Y-114115106D01*
X198230049Y-114111959D01*
X198236979Y-114109479D01*
X198244118Y-114107691D01*
X198251399Y-114106611D01*
X198258750Y-114106250D01*
X199583750Y-114106250D01*
X199591101Y-114106611D01*
X199591101Y-114106611D01*
G37*
D18*
X198921250Y-114256250D03*
D13*
G36*
X199591101Y-114606611D02*
G01*
X199598382Y-114607691D01*
X199605521Y-114609479D01*
X199612451Y-114611959D01*
X199619105Y-114615106D01*
X199625418Y-114618890D01*
X199631329Y-114623274D01*
X199636783Y-114628217D01*
X199641726Y-114633671D01*
X199646110Y-114639582D01*
X199649894Y-114645895D01*
X199653041Y-114652549D01*
X199655521Y-114659479D01*
X199657309Y-114666618D01*
X199658389Y-114673899D01*
X199658750Y-114681250D01*
X199658750Y-114831250D01*
X199658389Y-114838601D01*
X199657309Y-114845882D01*
X199655521Y-114853021D01*
X199653041Y-114859951D01*
X199649894Y-114866605D01*
X199646110Y-114872918D01*
X199641726Y-114878829D01*
X199636783Y-114884283D01*
X199631329Y-114889226D01*
X199625418Y-114893610D01*
X199619105Y-114897394D01*
X199612451Y-114900541D01*
X199605521Y-114903021D01*
X199598382Y-114904809D01*
X199591101Y-114905889D01*
X199583750Y-114906250D01*
X198258750Y-114906250D01*
X198251399Y-114905889D01*
X198244118Y-114904809D01*
X198236979Y-114903021D01*
X198230049Y-114900541D01*
X198223395Y-114897394D01*
X198217082Y-114893610D01*
X198211171Y-114889226D01*
X198205717Y-114884283D01*
X198200774Y-114878829D01*
X198196390Y-114872918D01*
X198192606Y-114866605D01*
X198189459Y-114859951D01*
X198186979Y-114853021D01*
X198185191Y-114845882D01*
X198184111Y-114838601D01*
X198183750Y-114831250D01*
X198183750Y-114681250D01*
X198184111Y-114673899D01*
X198185191Y-114666618D01*
X198186979Y-114659479D01*
X198189459Y-114652549D01*
X198192606Y-114645895D01*
X198196390Y-114639582D01*
X198200774Y-114633671D01*
X198205717Y-114628217D01*
X198211171Y-114623274D01*
X198217082Y-114618890D01*
X198223395Y-114615106D01*
X198230049Y-114611959D01*
X198236979Y-114609479D01*
X198244118Y-114607691D01*
X198251399Y-114606611D01*
X198258750Y-114606250D01*
X199583750Y-114606250D01*
X199591101Y-114606611D01*
X199591101Y-114606611D01*
G37*
D18*
X198921250Y-114756250D03*
D13*
G36*
X199591101Y-115106611D02*
G01*
X199598382Y-115107691D01*
X199605521Y-115109479D01*
X199612451Y-115111959D01*
X199619105Y-115115106D01*
X199625418Y-115118890D01*
X199631329Y-115123274D01*
X199636783Y-115128217D01*
X199641726Y-115133671D01*
X199646110Y-115139582D01*
X199649894Y-115145895D01*
X199653041Y-115152549D01*
X199655521Y-115159479D01*
X199657309Y-115166618D01*
X199658389Y-115173899D01*
X199658750Y-115181250D01*
X199658750Y-115331250D01*
X199658389Y-115338601D01*
X199657309Y-115345882D01*
X199655521Y-115353021D01*
X199653041Y-115359951D01*
X199649894Y-115366605D01*
X199646110Y-115372918D01*
X199641726Y-115378829D01*
X199636783Y-115384283D01*
X199631329Y-115389226D01*
X199625418Y-115393610D01*
X199619105Y-115397394D01*
X199612451Y-115400541D01*
X199605521Y-115403021D01*
X199598382Y-115404809D01*
X199591101Y-115405889D01*
X199583750Y-115406250D01*
X198258750Y-115406250D01*
X198251399Y-115405889D01*
X198244118Y-115404809D01*
X198236979Y-115403021D01*
X198230049Y-115400541D01*
X198223395Y-115397394D01*
X198217082Y-115393610D01*
X198211171Y-115389226D01*
X198205717Y-115384283D01*
X198200774Y-115378829D01*
X198196390Y-115372918D01*
X198192606Y-115366605D01*
X198189459Y-115359951D01*
X198186979Y-115353021D01*
X198185191Y-115345882D01*
X198184111Y-115338601D01*
X198183750Y-115331250D01*
X198183750Y-115181250D01*
X198184111Y-115173899D01*
X198185191Y-115166618D01*
X198186979Y-115159479D01*
X198189459Y-115152549D01*
X198192606Y-115145895D01*
X198196390Y-115139582D01*
X198200774Y-115133671D01*
X198205717Y-115128217D01*
X198211171Y-115123274D01*
X198217082Y-115118890D01*
X198223395Y-115115106D01*
X198230049Y-115111959D01*
X198236979Y-115109479D01*
X198244118Y-115107691D01*
X198251399Y-115106611D01*
X198258750Y-115106250D01*
X199583750Y-115106250D01*
X199591101Y-115106611D01*
X199591101Y-115106611D01*
G37*
D18*
X198921250Y-115256250D03*
D13*
G36*
X199591101Y-115606611D02*
G01*
X199598382Y-115607691D01*
X199605521Y-115609479D01*
X199612451Y-115611959D01*
X199619105Y-115615106D01*
X199625418Y-115618890D01*
X199631329Y-115623274D01*
X199636783Y-115628217D01*
X199641726Y-115633671D01*
X199646110Y-115639582D01*
X199649894Y-115645895D01*
X199653041Y-115652549D01*
X199655521Y-115659479D01*
X199657309Y-115666618D01*
X199658389Y-115673899D01*
X199658750Y-115681250D01*
X199658750Y-115831250D01*
X199658389Y-115838601D01*
X199657309Y-115845882D01*
X199655521Y-115853021D01*
X199653041Y-115859951D01*
X199649894Y-115866605D01*
X199646110Y-115872918D01*
X199641726Y-115878829D01*
X199636783Y-115884283D01*
X199631329Y-115889226D01*
X199625418Y-115893610D01*
X199619105Y-115897394D01*
X199612451Y-115900541D01*
X199605521Y-115903021D01*
X199598382Y-115904809D01*
X199591101Y-115905889D01*
X199583750Y-115906250D01*
X198258750Y-115906250D01*
X198251399Y-115905889D01*
X198244118Y-115904809D01*
X198236979Y-115903021D01*
X198230049Y-115900541D01*
X198223395Y-115897394D01*
X198217082Y-115893610D01*
X198211171Y-115889226D01*
X198205717Y-115884283D01*
X198200774Y-115878829D01*
X198196390Y-115872918D01*
X198192606Y-115866605D01*
X198189459Y-115859951D01*
X198186979Y-115853021D01*
X198185191Y-115845882D01*
X198184111Y-115838601D01*
X198183750Y-115831250D01*
X198183750Y-115681250D01*
X198184111Y-115673899D01*
X198185191Y-115666618D01*
X198186979Y-115659479D01*
X198189459Y-115652549D01*
X198192606Y-115645895D01*
X198196390Y-115639582D01*
X198200774Y-115633671D01*
X198205717Y-115628217D01*
X198211171Y-115623274D01*
X198217082Y-115618890D01*
X198223395Y-115615106D01*
X198230049Y-115611959D01*
X198236979Y-115609479D01*
X198244118Y-115607691D01*
X198251399Y-115606611D01*
X198258750Y-115606250D01*
X199583750Y-115606250D01*
X199591101Y-115606611D01*
X199591101Y-115606611D01*
G37*
D18*
X198921250Y-115756250D03*
D13*
G36*
X199591101Y-116106611D02*
G01*
X199598382Y-116107691D01*
X199605521Y-116109479D01*
X199612451Y-116111959D01*
X199619105Y-116115106D01*
X199625418Y-116118890D01*
X199631329Y-116123274D01*
X199636783Y-116128217D01*
X199641726Y-116133671D01*
X199646110Y-116139582D01*
X199649894Y-116145895D01*
X199653041Y-116152549D01*
X199655521Y-116159479D01*
X199657309Y-116166618D01*
X199658389Y-116173899D01*
X199658750Y-116181250D01*
X199658750Y-116331250D01*
X199658389Y-116338601D01*
X199657309Y-116345882D01*
X199655521Y-116353021D01*
X199653041Y-116359951D01*
X199649894Y-116366605D01*
X199646110Y-116372918D01*
X199641726Y-116378829D01*
X199636783Y-116384283D01*
X199631329Y-116389226D01*
X199625418Y-116393610D01*
X199619105Y-116397394D01*
X199612451Y-116400541D01*
X199605521Y-116403021D01*
X199598382Y-116404809D01*
X199591101Y-116405889D01*
X199583750Y-116406250D01*
X198258750Y-116406250D01*
X198251399Y-116405889D01*
X198244118Y-116404809D01*
X198236979Y-116403021D01*
X198230049Y-116400541D01*
X198223395Y-116397394D01*
X198217082Y-116393610D01*
X198211171Y-116389226D01*
X198205717Y-116384283D01*
X198200774Y-116378829D01*
X198196390Y-116372918D01*
X198192606Y-116366605D01*
X198189459Y-116359951D01*
X198186979Y-116353021D01*
X198185191Y-116345882D01*
X198184111Y-116338601D01*
X198183750Y-116331250D01*
X198183750Y-116181250D01*
X198184111Y-116173899D01*
X198185191Y-116166618D01*
X198186979Y-116159479D01*
X198189459Y-116152549D01*
X198192606Y-116145895D01*
X198196390Y-116139582D01*
X198200774Y-116133671D01*
X198205717Y-116128217D01*
X198211171Y-116123274D01*
X198217082Y-116118890D01*
X198223395Y-116115106D01*
X198230049Y-116111959D01*
X198236979Y-116109479D01*
X198244118Y-116107691D01*
X198251399Y-116106611D01*
X198258750Y-116106250D01*
X199583750Y-116106250D01*
X199591101Y-116106611D01*
X199591101Y-116106611D01*
G37*
D18*
X198921250Y-116256250D03*
D13*
G36*
X197591101Y-116931611D02*
G01*
X197598382Y-116932691D01*
X197605521Y-116934479D01*
X197612451Y-116936959D01*
X197619105Y-116940106D01*
X197625418Y-116943890D01*
X197631329Y-116948274D01*
X197636783Y-116953217D01*
X197641726Y-116958671D01*
X197646110Y-116964582D01*
X197649894Y-116970895D01*
X197653041Y-116977549D01*
X197655521Y-116984479D01*
X197657309Y-116991618D01*
X197658389Y-116998899D01*
X197658750Y-117006250D01*
X197658750Y-118331250D01*
X197658389Y-118338601D01*
X197657309Y-118345882D01*
X197655521Y-118353021D01*
X197653041Y-118359951D01*
X197649894Y-118366605D01*
X197646110Y-118372918D01*
X197641726Y-118378829D01*
X197636783Y-118384283D01*
X197631329Y-118389226D01*
X197625418Y-118393610D01*
X197619105Y-118397394D01*
X197612451Y-118400541D01*
X197605521Y-118403021D01*
X197598382Y-118404809D01*
X197591101Y-118405889D01*
X197583750Y-118406250D01*
X197433750Y-118406250D01*
X197426399Y-118405889D01*
X197419118Y-118404809D01*
X197411979Y-118403021D01*
X197405049Y-118400541D01*
X197398395Y-118397394D01*
X197392082Y-118393610D01*
X197386171Y-118389226D01*
X197380717Y-118384283D01*
X197375774Y-118378829D01*
X197371390Y-118372918D01*
X197367606Y-118366605D01*
X197364459Y-118359951D01*
X197361979Y-118353021D01*
X197360191Y-118345882D01*
X197359111Y-118338601D01*
X197358750Y-118331250D01*
X197358750Y-117006250D01*
X197359111Y-116998899D01*
X197360191Y-116991618D01*
X197361979Y-116984479D01*
X197364459Y-116977549D01*
X197367606Y-116970895D01*
X197371390Y-116964582D01*
X197375774Y-116958671D01*
X197380717Y-116953217D01*
X197386171Y-116948274D01*
X197392082Y-116943890D01*
X197398395Y-116940106D01*
X197405049Y-116936959D01*
X197411979Y-116934479D01*
X197419118Y-116932691D01*
X197426399Y-116931611D01*
X197433750Y-116931250D01*
X197583750Y-116931250D01*
X197591101Y-116931611D01*
X197591101Y-116931611D01*
G37*
D18*
X197508750Y-117668750D03*
D13*
G36*
X197091101Y-116931611D02*
G01*
X197098382Y-116932691D01*
X197105521Y-116934479D01*
X197112451Y-116936959D01*
X197119105Y-116940106D01*
X197125418Y-116943890D01*
X197131329Y-116948274D01*
X197136783Y-116953217D01*
X197141726Y-116958671D01*
X197146110Y-116964582D01*
X197149894Y-116970895D01*
X197153041Y-116977549D01*
X197155521Y-116984479D01*
X197157309Y-116991618D01*
X197158389Y-116998899D01*
X197158750Y-117006250D01*
X197158750Y-118331250D01*
X197158389Y-118338601D01*
X197157309Y-118345882D01*
X197155521Y-118353021D01*
X197153041Y-118359951D01*
X197149894Y-118366605D01*
X197146110Y-118372918D01*
X197141726Y-118378829D01*
X197136783Y-118384283D01*
X197131329Y-118389226D01*
X197125418Y-118393610D01*
X197119105Y-118397394D01*
X197112451Y-118400541D01*
X197105521Y-118403021D01*
X197098382Y-118404809D01*
X197091101Y-118405889D01*
X197083750Y-118406250D01*
X196933750Y-118406250D01*
X196926399Y-118405889D01*
X196919118Y-118404809D01*
X196911979Y-118403021D01*
X196905049Y-118400541D01*
X196898395Y-118397394D01*
X196892082Y-118393610D01*
X196886171Y-118389226D01*
X196880717Y-118384283D01*
X196875774Y-118378829D01*
X196871390Y-118372918D01*
X196867606Y-118366605D01*
X196864459Y-118359951D01*
X196861979Y-118353021D01*
X196860191Y-118345882D01*
X196859111Y-118338601D01*
X196858750Y-118331250D01*
X196858750Y-117006250D01*
X196859111Y-116998899D01*
X196860191Y-116991618D01*
X196861979Y-116984479D01*
X196864459Y-116977549D01*
X196867606Y-116970895D01*
X196871390Y-116964582D01*
X196875774Y-116958671D01*
X196880717Y-116953217D01*
X196886171Y-116948274D01*
X196892082Y-116943890D01*
X196898395Y-116940106D01*
X196905049Y-116936959D01*
X196911979Y-116934479D01*
X196919118Y-116932691D01*
X196926399Y-116931611D01*
X196933750Y-116931250D01*
X197083750Y-116931250D01*
X197091101Y-116931611D01*
X197091101Y-116931611D01*
G37*
D18*
X197008750Y-117668750D03*
D13*
G36*
X196591101Y-116931611D02*
G01*
X196598382Y-116932691D01*
X196605521Y-116934479D01*
X196612451Y-116936959D01*
X196619105Y-116940106D01*
X196625418Y-116943890D01*
X196631329Y-116948274D01*
X196636783Y-116953217D01*
X196641726Y-116958671D01*
X196646110Y-116964582D01*
X196649894Y-116970895D01*
X196653041Y-116977549D01*
X196655521Y-116984479D01*
X196657309Y-116991618D01*
X196658389Y-116998899D01*
X196658750Y-117006250D01*
X196658750Y-118331250D01*
X196658389Y-118338601D01*
X196657309Y-118345882D01*
X196655521Y-118353021D01*
X196653041Y-118359951D01*
X196649894Y-118366605D01*
X196646110Y-118372918D01*
X196641726Y-118378829D01*
X196636783Y-118384283D01*
X196631329Y-118389226D01*
X196625418Y-118393610D01*
X196619105Y-118397394D01*
X196612451Y-118400541D01*
X196605521Y-118403021D01*
X196598382Y-118404809D01*
X196591101Y-118405889D01*
X196583750Y-118406250D01*
X196433750Y-118406250D01*
X196426399Y-118405889D01*
X196419118Y-118404809D01*
X196411979Y-118403021D01*
X196405049Y-118400541D01*
X196398395Y-118397394D01*
X196392082Y-118393610D01*
X196386171Y-118389226D01*
X196380717Y-118384283D01*
X196375774Y-118378829D01*
X196371390Y-118372918D01*
X196367606Y-118366605D01*
X196364459Y-118359951D01*
X196361979Y-118353021D01*
X196360191Y-118345882D01*
X196359111Y-118338601D01*
X196358750Y-118331250D01*
X196358750Y-117006250D01*
X196359111Y-116998899D01*
X196360191Y-116991618D01*
X196361979Y-116984479D01*
X196364459Y-116977549D01*
X196367606Y-116970895D01*
X196371390Y-116964582D01*
X196375774Y-116958671D01*
X196380717Y-116953217D01*
X196386171Y-116948274D01*
X196392082Y-116943890D01*
X196398395Y-116940106D01*
X196405049Y-116936959D01*
X196411979Y-116934479D01*
X196419118Y-116932691D01*
X196426399Y-116931611D01*
X196433750Y-116931250D01*
X196583750Y-116931250D01*
X196591101Y-116931611D01*
X196591101Y-116931611D01*
G37*
D18*
X196508750Y-117668750D03*
D13*
G36*
X196091101Y-116931611D02*
G01*
X196098382Y-116932691D01*
X196105521Y-116934479D01*
X196112451Y-116936959D01*
X196119105Y-116940106D01*
X196125418Y-116943890D01*
X196131329Y-116948274D01*
X196136783Y-116953217D01*
X196141726Y-116958671D01*
X196146110Y-116964582D01*
X196149894Y-116970895D01*
X196153041Y-116977549D01*
X196155521Y-116984479D01*
X196157309Y-116991618D01*
X196158389Y-116998899D01*
X196158750Y-117006250D01*
X196158750Y-118331250D01*
X196158389Y-118338601D01*
X196157309Y-118345882D01*
X196155521Y-118353021D01*
X196153041Y-118359951D01*
X196149894Y-118366605D01*
X196146110Y-118372918D01*
X196141726Y-118378829D01*
X196136783Y-118384283D01*
X196131329Y-118389226D01*
X196125418Y-118393610D01*
X196119105Y-118397394D01*
X196112451Y-118400541D01*
X196105521Y-118403021D01*
X196098382Y-118404809D01*
X196091101Y-118405889D01*
X196083750Y-118406250D01*
X195933750Y-118406250D01*
X195926399Y-118405889D01*
X195919118Y-118404809D01*
X195911979Y-118403021D01*
X195905049Y-118400541D01*
X195898395Y-118397394D01*
X195892082Y-118393610D01*
X195886171Y-118389226D01*
X195880717Y-118384283D01*
X195875774Y-118378829D01*
X195871390Y-118372918D01*
X195867606Y-118366605D01*
X195864459Y-118359951D01*
X195861979Y-118353021D01*
X195860191Y-118345882D01*
X195859111Y-118338601D01*
X195858750Y-118331250D01*
X195858750Y-117006250D01*
X195859111Y-116998899D01*
X195860191Y-116991618D01*
X195861979Y-116984479D01*
X195864459Y-116977549D01*
X195867606Y-116970895D01*
X195871390Y-116964582D01*
X195875774Y-116958671D01*
X195880717Y-116953217D01*
X195886171Y-116948274D01*
X195892082Y-116943890D01*
X195898395Y-116940106D01*
X195905049Y-116936959D01*
X195911979Y-116934479D01*
X195919118Y-116932691D01*
X195926399Y-116931611D01*
X195933750Y-116931250D01*
X196083750Y-116931250D01*
X196091101Y-116931611D01*
X196091101Y-116931611D01*
G37*
D18*
X196008750Y-117668750D03*
D13*
G36*
X195591101Y-116931611D02*
G01*
X195598382Y-116932691D01*
X195605521Y-116934479D01*
X195612451Y-116936959D01*
X195619105Y-116940106D01*
X195625418Y-116943890D01*
X195631329Y-116948274D01*
X195636783Y-116953217D01*
X195641726Y-116958671D01*
X195646110Y-116964582D01*
X195649894Y-116970895D01*
X195653041Y-116977549D01*
X195655521Y-116984479D01*
X195657309Y-116991618D01*
X195658389Y-116998899D01*
X195658750Y-117006250D01*
X195658750Y-118331250D01*
X195658389Y-118338601D01*
X195657309Y-118345882D01*
X195655521Y-118353021D01*
X195653041Y-118359951D01*
X195649894Y-118366605D01*
X195646110Y-118372918D01*
X195641726Y-118378829D01*
X195636783Y-118384283D01*
X195631329Y-118389226D01*
X195625418Y-118393610D01*
X195619105Y-118397394D01*
X195612451Y-118400541D01*
X195605521Y-118403021D01*
X195598382Y-118404809D01*
X195591101Y-118405889D01*
X195583750Y-118406250D01*
X195433750Y-118406250D01*
X195426399Y-118405889D01*
X195419118Y-118404809D01*
X195411979Y-118403021D01*
X195405049Y-118400541D01*
X195398395Y-118397394D01*
X195392082Y-118393610D01*
X195386171Y-118389226D01*
X195380717Y-118384283D01*
X195375774Y-118378829D01*
X195371390Y-118372918D01*
X195367606Y-118366605D01*
X195364459Y-118359951D01*
X195361979Y-118353021D01*
X195360191Y-118345882D01*
X195359111Y-118338601D01*
X195358750Y-118331250D01*
X195358750Y-117006250D01*
X195359111Y-116998899D01*
X195360191Y-116991618D01*
X195361979Y-116984479D01*
X195364459Y-116977549D01*
X195367606Y-116970895D01*
X195371390Y-116964582D01*
X195375774Y-116958671D01*
X195380717Y-116953217D01*
X195386171Y-116948274D01*
X195392082Y-116943890D01*
X195398395Y-116940106D01*
X195405049Y-116936959D01*
X195411979Y-116934479D01*
X195419118Y-116932691D01*
X195426399Y-116931611D01*
X195433750Y-116931250D01*
X195583750Y-116931250D01*
X195591101Y-116931611D01*
X195591101Y-116931611D01*
G37*
D18*
X195508750Y-117668750D03*
D13*
G36*
X195091101Y-116931611D02*
G01*
X195098382Y-116932691D01*
X195105521Y-116934479D01*
X195112451Y-116936959D01*
X195119105Y-116940106D01*
X195125418Y-116943890D01*
X195131329Y-116948274D01*
X195136783Y-116953217D01*
X195141726Y-116958671D01*
X195146110Y-116964582D01*
X195149894Y-116970895D01*
X195153041Y-116977549D01*
X195155521Y-116984479D01*
X195157309Y-116991618D01*
X195158389Y-116998899D01*
X195158750Y-117006250D01*
X195158750Y-118331250D01*
X195158389Y-118338601D01*
X195157309Y-118345882D01*
X195155521Y-118353021D01*
X195153041Y-118359951D01*
X195149894Y-118366605D01*
X195146110Y-118372918D01*
X195141726Y-118378829D01*
X195136783Y-118384283D01*
X195131329Y-118389226D01*
X195125418Y-118393610D01*
X195119105Y-118397394D01*
X195112451Y-118400541D01*
X195105521Y-118403021D01*
X195098382Y-118404809D01*
X195091101Y-118405889D01*
X195083750Y-118406250D01*
X194933750Y-118406250D01*
X194926399Y-118405889D01*
X194919118Y-118404809D01*
X194911979Y-118403021D01*
X194905049Y-118400541D01*
X194898395Y-118397394D01*
X194892082Y-118393610D01*
X194886171Y-118389226D01*
X194880717Y-118384283D01*
X194875774Y-118378829D01*
X194871390Y-118372918D01*
X194867606Y-118366605D01*
X194864459Y-118359951D01*
X194861979Y-118353021D01*
X194860191Y-118345882D01*
X194859111Y-118338601D01*
X194858750Y-118331250D01*
X194858750Y-117006250D01*
X194859111Y-116998899D01*
X194860191Y-116991618D01*
X194861979Y-116984479D01*
X194864459Y-116977549D01*
X194867606Y-116970895D01*
X194871390Y-116964582D01*
X194875774Y-116958671D01*
X194880717Y-116953217D01*
X194886171Y-116948274D01*
X194892082Y-116943890D01*
X194898395Y-116940106D01*
X194905049Y-116936959D01*
X194911979Y-116934479D01*
X194919118Y-116932691D01*
X194926399Y-116931611D01*
X194933750Y-116931250D01*
X195083750Y-116931250D01*
X195091101Y-116931611D01*
X195091101Y-116931611D01*
G37*
D18*
X195008750Y-117668750D03*
D13*
G36*
X194591101Y-116931611D02*
G01*
X194598382Y-116932691D01*
X194605521Y-116934479D01*
X194612451Y-116936959D01*
X194619105Y-116940106D01*
X194625418Y-116943890D01*
X194631329Y-116948274D01*
X194636783Y-116953217D01*
X194641726Y-116958671D01*
X194646110Y-116964582D01*
X194649894Y-116970895D01*
X194653041Y-116977549D01*
X194655521Y-116984479D01*
X194657309Y-116991618D01*
X194658389Y-116998899D01*
X194658750Y-117006250D01*
X194658750Y-118331250D01*
X194658389Y-118338601D01*
X194657309Y-118345882D01*
X194655521Y-118353021D01*
X194653041Y-118359951D01*
X194649894Y-118366605D01*
X194646110Y-118372918D01*
X194641726Y-118378829D01*
X194636783Y-118384283D01*
X194631329Y-118389226D01*
X194625418Y-118393610D01*
X194619105Y-118397394D01*
X194612451Y-118400541D01*
X194605521Y-118403021D01*
X194598382Y-118404809D01*
X194591101Y-118405889D01*
X194583750Y-118406250D01*
X194433750Y-118406250D01*
X194426399Y-118405889D01*
X194419118Y-118404809D01*
X194411979Y-118403021D01*
X194405049Y-118400541D01*
X194398395Y-118397394D01*
X194392082Y-118393610D01*
X194386171Y-118389226D01*
X194380717Y-118384283D01*
X194375774Y-118378829D01*
X194371390Y-118372918D01*
X194367606Y-118366605D01*
X194364459Y-118359951D01*
X194361979Y-118353021D01*
X194360191Y-118345882D01*
X194359111Y-118338601D01*
X194358750Y-118331250D01*
X194358750Y-117006250D01*
X194359111Y-116998899D01*
X194360191Y-116991618D01*
X194361979Y-116984479D01*
X194364459Y-116977549D01*
X194367606Y-116970895D01*
X194371390Y-116964582D01*
X194375774Y-116958671D01*
X194380717Y-116953217D01*
X194386171Y-116948274D01*
X194392082Y-116943890D01*
X194398395Y-116940106D01*
X194405049Y-116936959D01*
X194411979Y-116934479D01*
X194419118Y-116932691D01*
X194426399Y-116931611D01*
X194433750Y-116931250D01*
X194583750Y-116931250D01*
X194591101Y-116931611D01*
X194591101Y-116931611D01*
G37*
D18*
X194508750Y-117668750D03*
D13*
G36*
X194091101Y-116931611D02*
G01*
X194098382Y-116932691D01*
X194105521Y-116934479D01*
X194112451Y-116936959D01*
X194119105Y-116940106D01*
X194125418Y-116943890D01*
X194131329Y-116948274D01*
X194136783Y-116953217D01*
X194141726Y-116958671D01*
X194146110Y-116964582D01*
X194149894Y-116970895D01*
X194153041Y-116977549D01*
X194155521Y-116984479D01*
X194157309Y-116991618D01*
X194158389Y-116998899D01*
X194158750Y-117006250D01*
X194158750Y-118331250D01*
X194158389Y-118338601D01*
X194157309Y-118345882D01*
X194155521Y-118353021D01*
X194153041Y-118359951D01*
X194149894Y-118366605D01*
X194146110Y-118372918D01*
X194141726Y-118378829D01*
X194136783Y-118384283D01*
X194131329Y-118389226D01*
X194125418Y-118393610D01*
X194119105Y-118397394D01*
X194112451Y-118400541D01*
X194105521Y-118403021D01*
X194098382Y-118404809D01*
X194091101Y-118405889D01*
X194083750Y-118406250D01*
X193933750Y-118406250D01*
X193926399Y-118405889D01*
X193919118Y-118404809D01*
X193911979Y-118403021D01*
X193905049Y-118400541D01*
X193898395Y-118397394D01*
X193892082Y-118393610D01*
X193886171Y-118389226D01*
X193880717Y-118384283D01*
X193875774Y-118378829D01*
X193871390Y-118372918D01*
X193867606Y-118366605D01*
X193864459Y-118359951D01*
X193861979Y-118353021D01*
X193860191Y-118345882D01*
X193859111Y-118338601D01*
X193858750Y-118331250D01*
X193858750Y-117006250D01*
X193859111Y-116998899D01*
X193860191Y-116991618D01*
X193861979Y-116984479D01*
X193864459Y-116977549D01*
X193867606Y-116970895D01*
X193871390Y-116964582D01*
X193875774Y-116958671D01*
X193880717Y-116953217D01*
X193886171Y-116948274D01*
X193892082Y-116943890D01*
X193898395Y-116940106D01*
X193905049Y-116936959D01*
X193911979Y-116934479D01*
X193919118Y-116932691D01*
X193926399Y-116931611D01*
X193933750Y-116931250D01*
X194083750Y-116931250D01*
X194091101Y-116931611D01*
X194091101Y-116931611D01*
G37*
D18*
X194008750Y-117668750D03*
D13*
G36*
X193591101Y-116931611D02*
G01*
X193598382Y-116932691D01*
X193605521Y-116934479D01*
X193612451Y-116936959D01*
X193619105Y-116940106D01*
X193625418Y-116943890D01*
X193631329Y-116948274D01*
X193636783Y-116953217D01*
X193641726Y-116958671D01*
X193646110Y-116964582D01*
X193649894Y-116970895D01*
X193653041Y-116977549D01*
X193655521Y-116984479D01*
X193657309Y-116991618D01*
X193658389Y-116998899D01*
X193658750Y-117006250D01*
X193658750Y-118331250D01*
X193658389Y-118338601D01*
X193657309Y-118345882D01*
X193655521Y-118353021D01*
X193653041Y-118359951D01*
X193649894Y-118366605D01*
X193646110Y-118372918D01*
X193641726Y-118378829D01*
X193636783Y-118384283D01*
X193631329Y-118389226D01*
X193625418Y-118393610D01*
X193619105Y-118397394D01*
X193612451Y-118400541D01*
X193605521Y-118403021D01*
X193598382Y-118404809D01*
X193591101Y-118405889D01*
X193583750Y-118406250D01*
X193433750Y-118406250D01*
X193426399Y-118405889D01*
X193419118Y-118404809D01*
X193411979Y-118403021D01*
X193405049Y-118400541D01*
X193398395Y-118397394D01*
X193392082Y-118393610D01*
X193386171Y-118389226D01*
X193380717Y-118384283D01*
X193375774Y-118378829D01*
X193371390Y-118372918D01*
X193367606Y-118366605D01*
X193364459Y-118359951D01*
X193361979Y-118353021D01*
X193360191Y-118345882D01*
X193359111Y-118338601D01*
X193358750Y-118331250D01*
X193358750Y-117006250D01*
X193359111Y-116998899D01*
X193360191Y-116991618D01*
X193361979Y-116984479D01*
X193364459Y-116977549D01*
X193367606Y-116970895D01*
X193371390Y-116964582D01*
X193375774Y-116958671D01*
X193380717Y-116953217D01*
X193386171Y-116948274D01*
X193392082Y-116943890D01*
X193398395Y-116940106D01*
X193405049Y-116936959D01*
X193411979Y-116934479D01*
X193419118Y-116932691D01*
X193426399Y-116931611D01*
X193433750Y-116931250D01*
X193583750Y-116931250D01*
X193591101Y-116931611D01*
X193591101Y-116931611D01*
G37*
D18*
X193508750Y-117668750D03*
D13*
G36*
X193091101Y-116931611D02*
G01*
X193098382Y-116932691D01*
X193105521Y-116934479D01*
X193112451Y-116936959D01*
X193119105Y-116940106D01*
X193125418Y-116943890D01*
X193131329Y-116948274D01*
X193136783Y-116953217D01*
X193141726Y-116958671D01*
X193146110Y-116964582D01*
X193149894Y-116970895D01*
X193153041Y-116977549D01*
X193155521Y-116984479D01*
X193157309Y-116991618D01*
X193158389Y-116998899D01*
X193158750Y-117006250D01*
X193158750Y-118331250D01*
X193158389Y-118338601D01*
X193157309Y-118345882D01*
X193155521Y-118353021D01*
X193153041Y-118359951D01*
X193149894Y-118366605D01*
X193146110Y-118372918D01*
X193141726Y-118378829D01*
X193136783Y-118384283D01*
X193131329Y-118389226D01*
X193125418Y-118393610D01*
X193119105Y-118397394D01*
X193112451Y-118400541D01*
X193105521Y-118403021D01*
X193098382Y-118404809D01*
X193091101Y-118405889D01*
X193083750Y-118406250D01*
X192933750Y-118406250D01*
X192926399Y-118405889D01*
X192919118Y-118404809D01*
X192911979Y-118403021D01*
X192905049Y-118400541D01*
X192898395Y-118397394D01*
X192892082Y-118393610D01*
X192886171Y-118389226D01*
X192880717Y-118384283D01*
X192875774Y-118378829D01*
X192871390Y-118372918D01*
X192867606Y-118366605D01*
X192864459Y-118359951D01*
X192861979Y-118353021D01*
X192860191Y-118345882D01*
X192859111Y-118338601D01*
X192858750Y-118331250D01*
X192858750Y-117006250D01*
X192859111Y-116998899D01*
X192860191Y-116991618D01*
X192861979Y-116984479D01*
X192864459Y-116977549D01*
X192867606Y-116970895D01*
X192871390Y-116964582D01*
X192875774Y-116958671D01*
X192880717Y-116953217D01*
X192886171Y-116948274D01*
X192892082Y-116943890D01*
X192898395Y-116940106D01*
X192905049Y-116936959D01*
X192911979Y-116934479D01*
X192919118Y-116932691D01*
X192926399Y-116931611D01*
X192933750Y-116931250D01*
X193083750Y-116931250D01*
X193091101Y-116931611D01*
X193091101Y-116931611D01*
G37*
D18*
X193008750Y-117668750D03*
D13*
G36*
X192591101Y-116931611D02*
G01*
X192598382Y-116932691D01*
X192605521Y-116934479D01*
X192612451Y-116936959D01*
X192619105Y-116940106D01*
X192625418Y-116943890D01*
X192631329Y-116948274D01*
X192636783Y-116953217D01*
X192641726Y-116958671D01*
X192646110Y-116964582D01*
X192649894Y-116970895D01*
X192653041Y-116977549D01*
X192655521Y-116984479D01*
X192657309Y-116991618D01*
X192658389Y-116998899D01*
X192658750Y-117006250D01*
X192658750Y-118331250D01*
X192658389Y-118338601D01*
X192657309Y-118345882D01*
X192655521Y-118353021D01*
X192653041Y-118359951D01*
X192649894Y-118366605D01*
X192646110Y-118372918D01*
X192641726Y-118378829D01*
X192636783Y-118384283D01*
X192631329Y-118389226D01*
X192625418Y-118393610D01*
X192619105Y-118397394D01*
X192612451Y-118400541D01*
X192605521Y-118403021D01*
X192598382Y-118404809D01*
X192591101Y-118405889D01*
X192583750Y-118406250D01*
X192433750Y-118406250D01*
X192426399Y-118405889D01*
X192419118Y-118404809D01*
X192411979Y-118403021D01*
X192405049Y-118400541D01*
X192398395Y-118397394D01*
X192392082Y-118393610D01*
X192386171Y-118389226D01*
X192380717Y-118384283D01*
X192375774Y-118378829D01*
X192371390Y-118372918D01*
X192367606Y-118366605D01*
X192364459Y-118359951D01*
X192361979Y-118353021D01*
X192360191Y-118345882D01*
X192359111Y-118338601D01*
X192358750Y-118331250D01*
X192358750Y-117006250D01*
X192359111Y-116998899D01*
X192360191Y-116991618D01*
X192361979Y-116984479D01*
X192364459Y-116977549D01*
X192367606Y-116970895D01*
X192371390Y-116964582D01*
X192375774Y-116958671D01*
X192380717Y-116953217D01*
X192386171Y-116948274D01*
X192392082Y-116943890D01*
X192398395Y-116940106D01*
X192405049Y-116936959D01*
X192411979Y-116934479D01*
X192419118Y-116932691D01*
X192426399Y-116931611D01*
X192433750Y-116931250D01*
X192583750Y-116931250D01*
X192591101Y-116931611D01*
X192591101Y-116931611D01*
G37*
D18*
X192508750Y-117668750D03*
D13*
G36*
X192091101Y-116931611D02*
G01*
X192098382Y-116932691D01*
X192105521Y-116934479D01*
X192112451Y-116936959D01*
X192119105Y-116940106D01*
X192125418Y-116943890D01*
X192131329Y-116948274D01*
X192136783Y-116953217D01*
X192141726Y-116958671D01*
X192146110Y-116964582D01*
X192149894Y-116970895D01*
X192153041Y-116977549D01*
X192155521Y-116984479D01*
X192157309Y-116991618D01*
X192158389Y-116998899D01*
X192158750Y-117006250D01*
X192158750Y-118331250D01*
X192158389Y-118338601D01*
X192157309Y-118345882D01*
X192155521Y-118353021D01*
X192153041Y-118359951D01*
X192149894Y-118366605D01*
X192146110Y-118372918D01*
X192141726Y-118378829D01*
X192136783Y-118384283D01*
X192131329Y-118389226D01*
X192125418Y-118393610D01*
X192119105Y-118397394D01*
X192112451Y-118400541D01*
X192105521Y-118403021D01*
X192098382Y-118404809D01*
X192091101Y-118405889D01*
X192083750Y-118406250D01*
X191933750Y-118406250D01*
X191926399Y-118405889D01*
X191919118Y-118404809D01*
X191911979Y-118403021D01*
X191905049Y-118400541D01*
X191898395Y-118397394D01*
X191892082Y-118393610D01*
X191886171Y-118389226D01*
X191880717Y-118384283D01*
X191875774Y-118378829D01*
X191871390Y-118372918D01*
X191867606Y-118366605D01*
X191864459Y-118359951D01*
X191861979Y-118353021D01*
X191860191Y-118345882D01*
X191859111Y-118338601D01*
X191858750Y-118331250D01*
X191858750Y-117006250D01*
X191859111Y-116998899D01*
X191860191Y-116991618D01*
X191861979Y-116984479D01*
X191864459Y-116977549D01*
X191867606Y-116970895D01*
X191871390Y-116964582D01*
X191875774Y-116958671D01*
X191880717Y-116953217D01*
X191886171Y-116948274D01*
X191892082Y-116943890D01*
X191898395Y-116940106D01*
X191905049Y-116936959D01*
X191911979Y-116934479D01*
X191919118Y-116932691D01*
X191926399Y-116931611D01*
X191933750Y-116931250D01*
X192083750Y-116931250D01*
X192091101Y-116931611D01*
X192091101Y-116931611D01*
G37*
D18*
X192008750Y-117668750D03*
D19*
X191290000Y-90580000D03*
X190340000Y-90580000D03*
X192240000Y-90580000D03*
X192240000Y-92780000D03*
X191290000Y-92780000D03*
X190340000Y-92780000D03*
M02*
