M48
; DRILL file {KiCad (5.1.4-0)} date 2020 November 23, Monday 17:37:17
; FORMAT={-:-/ absolute / metric / decimal}
; #@! TF.CreationDate,2020-11-23T17:37:17+01:00
; #@! TF.GenerationSoftware,Kicad,Pcbnew,(5.1.4-0)
; #@! TF.FileFunction,NonPlated,1,2,NPTH
FMAT,2
METRIC
T1C0.650
T2C1.500
T3C1.750
T4C3.988
%
G90
G05
T1
X188.404Y-84.037
X194.184Y-84.037
T2
X199.84Y-81.28
X199.84Y-88.28
T3
X171.132Y-127.0
X181.292Y-127.0
X152.082Y-123.825
X162.243Y-123.825
X56.832Y-92.075
X94.932Y-120.65
X133.032Y-82.55
X143.192Y-82.55
X105.093Y-101.6
X170.803Y-168.765
X75.882Y-127.0
X113.983Y-79.375
X124.142Y-79.375
X113.983Y-98.425
X124.142Y-98.425
X94.932Y-82.55
X105.093Y-82.55
X75.882Y-107.95
X86.042Y-107.95
X161.689Y-166.566
X94.932Y-101.6
X113.983Y-136.525
X124.142Y-136.525
X180.617Y-171.395
X86.042Y-127.0
X75.882Y-146.05
X86.042Y-146.05
X56.832Y-149.225
X66.992Y-149.225
X151.751Y-164.454
X56.832Y-130.175
X66.992Y-130.175
X86.042Y-88.9
X105.093Y-139.7
X75.882Y-88.9
X94.932Y-139.7
X132.717Y-160.938
X142.723Y-162.702
X66.992Y-92.075
X56.832Y-111.125
X66.992Y-111.125
X171.132Y-88.9
X181.292Y-88.9
X171.132Y-107.95
X181.292Y-107.95
X172.103Y-149.435
X181.917Y-152.065
X133.032Y-120.65
X143.192Y-120.65
X152.082Y-85.725
X152.082Y-104.775
X162.243Y-104.775
X143.192Y-101.6
X152.082Y-142.875
X162.243Y-142.875
X133.032Y-139.7
X143.192Y-139.7
X113.983Y-117.475
X124.142Y-117.475
X133.032Y-101.6
X162.243Y-85.725
X105.093Y-120.65
T4
X157.162Y-104.775
X157.162Y-142.875
X138.112Y-101.6
X119.062Y-98.425
X138.112Y-139.7
X175.71Y-170.08
X61.912Y-149.225
X80.962Y-127.0
X80.962Y-146.05
X119.062Y-79.375
X100.012Y-120.65
X138.112Y-82.55
X100.012Y-101.6
X119.062Y-136.525
X100.012Y-82.55
X80.962Y-107.95
X100.012Y-139.7
X176.213Y-127.0
X61.912Y-130.175
X156.72Y-165.51
X61.912Y-111.125
X176.213Y-88.9
X176.213Y-107.95
X157.162Y-123.825
X80.962Y-88.9
X137.72Y-161.82
X177.01Y-150.75
X61.912Y-92.075
X138.112Y-120.65
X157.162Y-85.725
X119.062Y-117.475
T0
M30
