G04 #@! TF.GenerationSoftware,KiCad,Pcbnew,(5.1.4-0)*
G04 #@! TF.CreationDate,2020-11-23T17:37:14+01:00*
G04 #@! TF.ProjectId,stm32split,73746d33-3273-4706-9c69-742e6b696361,rev?*
G04 #@! TF.SameCoordinates,Original*
G04 #@! TF.FileFunction,Soldermask,Bot*
G04 #@! TF.FilePolarity,Negative*
%FSLAX46Y46*%
G04 Gerber Fmt 4.6, Leading zero omitted, Abs format (unit mm)*
G04 Created by KiCad (PCBNEW (5.1.4-0)) date 2020-11-23 17:37:14*
%MOMM*%
%LPD*%
G04 APERTURE LIST*
%ADD10C,0.100000*%
G04 APERTURE END LIST*
D10*
G36*
X180887007Y-170504386D02*
G01*
X181055529Y-170574190D01*
X181207194Y-170675529D01*
X181336175Y-170804510D01*
X181437514Y-170956175D01*
X181507318Y-171124697D01*
X181542903Y-171303598D01*
X181542903Y-171486004D01*
X181507318Y-171664905D01*
X181437514Y-171833427D01*
X181336175Y-171985092D01*
X181207194Y-172114073D01*
X181055529Y-172215412D01*
X180887007Y-172285216D01*
X180708106Y-172320801D01*
X180525700Y-172320801D01*
X180346799Y-172285216D01*
X180178277Y-172215412D01*
X180026612Y-172114073D01*
X179897631Y-171985092D01*
X179796292Y-171833427D01*
X179726488Y-171664905D01*
X179690903Y-171486004D01*
X179690903Y-171303598D01*
X179726488Y-171124697D01*
X179796292Y-170956175D01*
X179897631Y-170804510D01*
X180026612Y-170675529D01*
X180178277Y-170574190D01*
X180346799Y-170504386D01*
X180525700Y-170468801D01*
X180708106Y-170468801D01*
X180887007Y-170504386D01*
X180887007Y-170504386D01*
G37*
G36*
X176306474Y-168113684D02*
G01*
X176454284Y-168174909D01*
X176678623Y-168267833D01*
X177013548Y-168491623D01*
X177298377Y-168776452D01*
X177522167Y-169111377D01*
X177560460Y-169203825D01*
X177676316Y-169483526D01*
X177754900Y-169878594D01*
X177754900Y-170281406D01*
X177676316Y-170676474D01*
X177623281Y-170804511D01*
X177522167Y-171048623D01*
X177298377Y-171383548D01*
X177013548Y-171668377D01*
X176678623Y-171892167D01*
X176524474Y-171956017D01*
X176306474Y-172046316D01*
X175911406Y-172124900D01*
X175508594Y-172124900D01*
X175113526Y-172046316D01*
X174895526Y-171956017D01*
X174741377Y-171892167D01*
X174406452Y-171668377D01*
X174121623Y-171383548D01*
X173897833Y-171048623D01*
X173796719Y-170804511D01*
X173743684Y-170676474D01*
X173665100Y-170281406D01*
X173665100Y-169878594D01*
X173743684Y-169483526D01*
X173859540Y-169203825D01*
X173897833Y-169111377D01*
X174121623Y-168776452D01*
X174406452Y-168491623D01*
X174741377Y-168267833D01*
X174965716Y-168174909D01*
X175113526Y-168113684D01*
X175508594Y-168035100D01*
X175911406Y-168035100D01*
X176306474Y-168113684D01*
X176306474Y-168113684D01*
G37*
G36*
X171073201Y-167874784D02*
G01*
X171241723Y-167944588D01*
X171393388Y-168045927D01*
X171522369Y-168174908D01*
X171623708Y-168326573D01*
X171693512Y-168495095D01*
X171729097Y-168673996D01*
X171729097Y-168856402D01*
X171693512Y-169035303D01*
X171623708Y-169203825D01*
X171522369Y-169355490D01*
X171393388Y-169484471D01*
X171241723Y-169585810D01*
X171073201Y-169655614D01*
X170894300Y-169691199D01*
X170711894Y-169691199D01*
X170532993Y-169655614D01*
X170364471Y-169585810D01*
X170212806Y-169484471D01*
X170083825Y-169355490D01*
X169982486Y-169203825D01*
X169912682Y-169035303D01*
X169877097Y-168856402D01*
X169877097Y-168673996D01*
X169912682Y-168495095D01*
X169982486Y-168326573D01*
X170083825Y-168174908D01*
X170212806Y-168045927D01*
X170364471Y-167944588D01*
X170532993Y-167874784D01*
X170711894Y-167839199D01*
X170894300Y-167839199D01*
X171073201Y-167874784D01*
X171073201Y-167874784D01*
G37*
G36*
X172878783Y-165479512D02*
G01*
X173030250Y-165509641D01*
X173244268Y-165598290D01*
X173244269Y-165598291D01*
X173436877Y-165726987D01*
X173600684Y-165890794D01*
X173657550Y-165975900D01*
X173729381Y-166083403D01*
X173818030Y-166297421D01*
X173863223Y-166524622D01*
X173863223Y-166756274D01*
X173818030Y-166983475D01*
X173729381Y-167197493D01*
X173729380Y-167197494D01*
X173600684Y-167390102D01*
X173436877Y-167553909D01*
X173308472Y-167639706D01*
X173244268Y-167682606D01*
X173030250Y-167771255D01*
X172878783Y-167801384D01*
X172803050Y-167816448D01*
X172571396Y-167816448D01*
X172495663Y-167801384D01*
X172344196Y-167771255D01*
X172130178Y-167682606D01*
X172065974Y-167639706D01*
X171937569Y-167553909D01*
X171773762Y-167390102D01*
X171645066Y-167197494D01*
X171645065Y-167197493D01*
X171556416Y-166983475D01*
X171511223Y-166756274D01*
X171511223Y-166524622D01*
X171556416Y-166297421D01*
X171645065Y-166083403D01*
X171716896Y-165975900D01*
X171773762Y-165890794D01*
X171937569Y-165726987D01*
X172130177Y-165598291D01*
X172130178Y-165598290D01*
X172344196Y-165509641D01*
X172495663Y-165479512D01*
X172571396Y-165464448D01*
X172803050Y-165464448D01*
X172878783Y-165479512D01*
X172878783Y-165479512D01*
G37*
G36*
X157316474Y-163543684D02*
G01*
X157532580Y-163633198D01*
X157688623Y-163697833D01*
X158023548Y-163921623D01*
X158308377Y-164206452D01*
X158532167Y-164541377D01*
X158579023Y-164654497D01*
X158686316Y-164913526D01*
X158764900Y-165308594D01*
X158764900Y-165711406D01*
X158686316Y-166106474D01*
X158658543Y-166173524D01*
X158532167Y-166478623D01*
X158308377Y-166813548D01*
X158023548Y-167098377D01*
X157688623Y-167322167D01*
X157534474Y-167386017D01*
X157316474Y-167476316D01*
X156921406Y-167554900D01*
X156518594Y-167554900D01*
X156123526Y-167476316D01*
X155905526Y-167386017D01*
X155751377Y-167322167D01*
X155416452Y-167098377D01*
X155131623Y-166813548D01*
X154907833Y-166478623D01*
X154781457Y-166173524D01*
X154753684Y-166106474D01*
X154675100Y-165711406D01*
X154675100Y-165308594D01*
X154753684Y-164913526D01*
X154860977Y-164654497D01*
X154907833Y-164541377D01*
X155131623Y-164206452D01*
X155416452Y-163921623D01*
X155751377Y-163697833D01*
X155907420Y-163633198D01*
X156123526Y-163543684D01*
X156518594Y-163465100D01*
X156921406Y-163465100D01*
X157316474Y-163543684D01*
X157316474Y-163543684D01*
G37*
G36*
X161959094Y-165675776D02*
G01*
X162127616Y-165745580D01*
X162279281Y-165846919D01*
X162408262Y-165975900D01*
X162509601Y-166127565D01*
X162579405Y-166296087D01*
X162614990Y-166474988D01*
X162614990Y-166657394D01*
X162579405Y-166836295D01*
X162509601Y-167004817D01*
X162408262Y-167156482D01*
X162279281Y-167285463D01*
X162127616Y-167386802D01*
X161959094Y-167456606D01*
X161780193Y-167492191D01*
X161597787Y-167492191D01*
X161418886Y-167456606D01*
X161250364Y-167386802D01*
X161098699Y-167285463D01*
X160969718Y-167156482D01*
X160868379Y-167004817D01*
X160798575Y-166836295D01*
X160762990Y-166657394D01*
X160762990Y-166474988D01*
X160798575Y-166296087D01*
X160868379Y-166127565D01*
X160969718Y-165975900D01*
X161098699Y-165846919D01*
X161250364Y-165745580D01*
X161418886Y-165675776D01*
X161597787Y-165640191D01*
X161780193Y-165640191D01*
X161959094Y-165675776D01*
X161959094Y-165675776D01*
G37*
G36*
X179669812Y-164669561D02*
G01*
X179821279Y-164699690D01*
X180035297Y-164788339D01*
X180035298Y-164788340D01*
X180227906Y-164917036D01*
X180391713Y-165080843D01*
X180453344Y-165173081D01*
X180520410Y-165273452D01*
X180609059Y-165487470D01*
X180609059Y-165487472D01*
X180653603Y-165711405D01*
X180654252Y-165714671D01*
X180654252Y-165946323D01*
X180609059Y-166173524D01*
X180520410Y-166387542D01*
X180520409Y-166387543D01*
X180391713Y-166580151D01*
X180227906Y-166743958D01*
X180123758Y-166813547D01*
X180035297Y-166872655D01*
X179821279Y-166961304D01*
X179669812Y-166991433D01*
X179594079Y-167006497D01*
X179362425Y-167006497D01*
X179286692Y-166991433D01*
X179135225Y-166961304D01*
X178921207Y-166872655D01*
X178832746Y-166813547D01*
X178728598Y-166743958D01*
X178564791Y-166580151D01*
X178436095Y-166387543D01*
X178436094Y-166387542D01*
X178347445Y-166173524D01*
X178302252Y-165946323D01*
X178302252Y-165714671D01*
X178302902Y-165711405D01*
X178347445Y-165487472D01*
X178347445Y-165487470D01*
X178436094Y-165273452D01*
X178503160Y-165173081D01*
X178564791Y-165080843D01*
X178728598Y-164917036D01*
X178921206Y-164788340D01*
X178921207Y-164788339D01*
X179135225Y-164699690D01*
X179286692Y-164669561D01*
X179362425Y-164654497D01*
X179594079Y-164654497D01*
X179669812Y-164669561D01*
X179669812Y-164669561D01*
G37*
G36*
X152021114Y-163563394D02*
G01*
X152189636Y-163633198D01*
X152341301Y-163734537D01*
X152470282Y-163863518D01*
X152571621Y-164015183D01*
X152641425Y-164183705D01*
X152677010Y-164362606D01*
X152677010Y-164545012D01*
X152641425Y-164723913D01*
X152571621Y-164892435D01*
X152470282Y-165044100D01*
X152341301Y-165173081D01*
X152189636Y-165274420D01*
X152021114Y-165344224D01*
X151842213Y-165379809D01*
X151659807Y-165379809D01*
X151480906Y-165344224D01*
X151312384Y-165274420D01*
X151160719Y-165173081D01*
X151031738Y-165044100D01*
X150930399Y-164892435D01*
X150860595Y-164723913D01*
X150825010Y-164545012D01*
X150825010Y-164362606D01*
X150860595Y-164183705D01*
X150930399Y-164015183D01*
X151031738Y-163863518D01*
X151160719Y-163734537D01*
X151312384Y-163633198D01*
X151480906Y-163563394D01*
X151659807Y-163527809D01*
X151842213Y-163527809D01*
X152021114Y-163563394D01*
X152021114Y-163563394D01*
G37*
G36*
X138316474Y-159853684D02*
G01*
X138520752Y-159938299D01*
X138688623Y-160007833D01*
X139023548Y-160231623D01*
X139308377Y-160516452D01*
X139532167Y-160851377D01*
X139532167Y-160851378D01*
X139686316Y-161223526D01*
X139764900Y-161618594D01*
X139764900Y-162021406D01*
X139686316Y-162416474D01*
X139596017Y-162634474D01*
X139532167Y-162788623D01*
X139308377Y-163123548D01*
X139023548Y-163408377D01*
X138688623Y-163632167D01*
X138534474Y-163696017D01*
X138316474Y-163786316D01*
X137921406Y-163864900D01*
X137518594Y-163864900D01*
X137123526Y-163786316D01*
X136905526Y-163696017D01*
X136751377Y-163632167D01*
X136416452Y-163408377D01*
X136131623Y-163123548D01*
X135907833Y-162788623D01*
X135843983Y-162634474D01*
X135753684Y-162416474D01*
X135675100Y-162021406D01*
X135675100Y-161618594D01*
X135753684Y-161223526D01*
X135907833Y-160851378D01*
X135907833Y-160851377D01*
X136131623Y-160516452D01*
X136416452Y-160231623D01*
X136751377Y-160007833D01*
X136919248Y-159938299D01*
X137123526Y-159853684D01*
X137518594Y-159775100D01*
X137921406Y-159775100D01*
X138316474Y-159853684D01*
X138316474Y-159853684D01*
G37*
G36*
X142992927Y-161811718D02*
G01*
X143161449Y-161881522D01*
X143313114Y-161982861D01*
X143442095Y-162111842D01*
X143543434Y-162263507D01*
X143613238Y-162432029D01*
X143648823Y-162610930D01*
X143648823Y-162793336D01*
X143613238Y-162972237D01*
X143543434Y-163140759D01*
X143442095Y-163292424D01*
X143313114Y-163421405D01*
X143161449Y-163522744D01*
X142992927Y-163592548D01*
X142814026Y-163628133D01*
X142631620Y-163628133D01*
X142452719Y-163592548D01*
X142284197Y-163522744D01*
X142132532Y-163421405D01*
X142003551Y-163292424D01*
X141902212Y-163140759D01*
X141832408Y-162972237D01*
X141796823Y-162793336D01*
X141796823Y-162610930D01*
X141832408Y-162432029D01*
X141902212Y-162263507D01*
X142003551Y-162111842D01*
X142132532Y-161982861D01*
X142284197Y-161881522D01*
X142452719Y-161811718D01*
X142631620Y-161776133D01*
X142814026Y-161776133D01*
X142992927Y-161811718D01*
X142992927Y-161811718D01*
G37*
G36*
X153712913Y-161072426D02*
G01*
X153864380Y-161102555D01*
X154078398Y-161191204D01*
X154126770Y-161223525D01*
X154271007Y-161319901D01*
X154434814Y-161483708D01*
X154464514Y-161528158D01*
X154563511Y-161676317D01*
X154652160Y-161890335D01*
X154670565Y-161982862D01*
X154696221Y-162111842D01*
X154697353Y-162117536D01*
X154697353Y-162349188D01*
X154652160Y-162576389D01*
X154563511Y-162790407D01*
X154563510Y-162790408D01*
X154434814Y-162983016D01*
X154271007Y-163146823D01*
X154142602Y-163232620D01*
X154078398Y-163275520D01*
X153864380Y-163364169D01*
X153712913Y-163394298D01*
X153637180Y-163409362D01*
X153405526Y-163409362D01*
X153329793Y-163394298D01*
X153178326Y-163364169D01*
X152964308Y-163275520D01*
X152900104Y-163232620D01*
X152771699Y-163146823D01*
X152607892Y-162983016D01*
X152479196Y-162790408D01*
X152479195Y-162790407D01*
X152390546Y-162576389D01*
X152345353Y-162349188D01*
X152345353Y-162117536D01*
X152346486Y-162111842D01*
X152372141Y-161982862D01*
X152390546Y-161890335D01*
X152479195Y-161676317D01*
X152578192Y-161528158D01*
X152607892Y-161483708D01*
X152771699Y-161319901D01*
X152915936Y-161223525D01*
X152964308Y-161191204D01*
X153178326Y-161102555D01*
X153329793Y-161072426D01*
X153405526Y-161057362D01*
X153637180Y-161057362D01*
X153712913Y-161072426D01*
X153712913Y-161072426D01*
G37*
G36*
X160452246Y-159908170D02*
G01*
X160603713Y-159938299D01*
X160817731Y-160026948D01*
X160817732Y-160026949D01*
X161010340Y-160155645D01*
X161174147Y-160319452D01*
X161192939Y-160347577D01*
X161302844Y-160512061D01*
X161391493Y-160726079D01*
X161391493Y-160726081D01*
X161436686Y-160953279D01*
X161436686Y-161184933D01*
X161432103Y-161207971D01*
X161391493Y-161412133D01*
X161302844Y-161626151D01*
X161302843Y-161626152D01*
X161174147Y-161818760D01*
X161010340Y-161982567D01*
X160952213Y-162021406D01*
X160817731Y-162111264D01*
X160603713Y-162199913D01*
X160452246Y-162230042D01*
X160376513Y-162245106D01*
X160144859Y-162245106D01*
X160069126Y-162230042D01*
X159917659Y-162199913D01*
X159703641Y-162111264D01*
X159569159Y-162021406D01*
X159511032Y-161982567D01*
X159347225Y-161818760D01*
X159218529Y-161626152D01*
X159218528Y-161626151D01*
X159129879Y-161412133D01*
X159089269Y-161207971D01*
X159084686Y-161184933D01*
X159084686Y-160953279D01*
X159129879Y-160726081D01*
X159129879Y-160726079D01*
X159218528Y-160512061D01*
X159328433Y-160347577D01*
X159347225Y-160319452D01*
X159511032Y-160155645D01*
X159703640Y-160026949D01*
X159703641Y-160026948D01*
X159917659Y-159938299D01*
X160069126Y-159908170D01*
X160144859Y-159893106D01*
X160376513Y-159893106D01*
X160452246Y-159908170D01*
X160452246Y-159908170D01*
G37*
G36*
X132987281Y-160047452D02*
G01*
X133155803Y-160117256D01*
X133307468Y-160218595D01*
X133436449Y-160347576D01*
X133537788Y-160499241D01*
X133607592Y-160667763D01*
X133643177Y-160846664D01*
X133643177Y-161029070D01*
X133607592Y-161207971D01*
X133537788Y-161376493D01*
X133436449Y-161528158D01*
X133307468Y-161657139D01*
X133155803Y-161758478D01*
X132987281Y-161828282D01*
X132808380Y-161863867D01*
X132625974Y-161863867D01*
X132447073Y-161828282D01*
X132278551Y-161758478D01*
X132126886Y-161657139D01*
X131997905Y-161528158D01*
X131896566Y-161376493D01*
X131826762Y-161207971D01*
X131791177Y-161029070D01*
X131791177Y-160846664D01*
X131826762Y-160667763D01*
X131896566Y-160499241D01*
X131997905Y-160347576D01*
X132126886Y-160218595D01*
X132278551Y-160117256D01*
X132447073Y-160047452D01*
X132625974Y-160011867D01*
X132808380Y-160011867D01*
X132987281Y-160047452D01*
X132987281Y-160047452D01*
G37*
G36*
X134600509Y-157496053D02*
G01*
X134751976Y-157526182D01*
X134965994Y-157614831D01*
X134965995Y-157614832D01*
X135158603Y-157743528D01*
X135322410Y-157907335D01*
X135389603Y-158007897D01*
X135451107Y-158099944D01*
X135539756Y-158313962D01*
X135584949Y-158541163D01*
X135584949Y-158772815D01*
X135539756Y-159000016D01*
X135451107Y-159214034D01*
X135451106Y-159214035D01*
X135322410Y-159406643D01*
X135158603Y-159570450D01*
X135030198Y-159656247D01*
X134965994Y-159699147D01*
X134751976Y-159787796D01*
X134600509Y-159817925D01*
X134524776Y-159832989D01*
X134293122Y-159832989D01*
X134217389Y-159817925D01*
X134065922Y-159787796D01*
X133851904Y-159699147D01*
X133787700Y-159656247D01*
X133659295Y-159570450D01*
X133495488Y-159406643D01*
X133366792Y-159214035D01*
X133366791Y-159214034D01*
X133278142Y-159000016D01*
X133232949Y-158772815D01*
X133232949Y-158541163D01*
X133278142Y-158313962D01*
X133366791Y-158099944D01*
X133428295Y-158007897D01*
X133495488Y-157907335D01*
X133659295Y-157743528D01*
X133851903Y-157614832D01*
X133851904Y-157614831D01*
X134065922Y-157526182D01*
X134217389Y-157496053D01*
X134293122Y-157480989D01*
X134524776Y-157480989D01*
X134600509Y-157496053D01*
X134600509Y-157496053D01*
G37*
G36*
X141295104Y-156097307D02*
G01*
X141446571Y-156127436D01*
X141660589Y-156216085D01*
X141660590Y-156216086D01*
X141853198Y-156344782D01*
X142017005Y-156508589D01*
X142102802Y-156636994D01*
X142145702Y-156701198D01*
X142234351Y-156915216D01*
X142279544Y-157142417D01*
X142279544Y-157374069D01*
X142234351Y-157601270D01*
X142145702Y-157815288D01*
X142145701Y-157815289D01*
X142017005Y-158007897D01*
X141853198Y-158171704D01*
X141724793Y-158257501D01*
X141660589Y-158300401D01*
X141446571Y-158389050D01*
X141295104Y-158419179D01*
X141219371Y-158434243D01*
X140987717Y-158434243D01*
X140911984Y-158419179D01*
X140760517Y-158389050D01*
X140546499Y-158300401D01*
X140482295Y-158257501D01*
X140353890Y-158171704D01*
X140190083Y-158007897D01*
X140061387Y-157815289D01*
X140061386Y-157815288D01*
X139972737Y-157601270D01*
X139927544Y-157374069D01*
X139927544Y-157142417D01*
X139972737Y-156915216D01*
X140061386Y-156701198D01*
X140104286Y-156636994D01*
X140190083Y-156508589D01*
X140353890Y-156344782D01*
X140546498Y-156216086D01*
X140546499Y-156216085D01*
X140760517Y-156127436D01*
X140911984Y-156097307D01*
X140987717Y-156082243D01*
X141219371Y-156082243D01*
X141295104Y-156097307D01*
X141295104Y-156097307D01*
G37*
G36*
X182187007Y-151174386D02*
G01*
X182355529Y-151244190D01*
X182507194Y-151345529D01*
X182636175Y-151474510D01*
X182737514Y-151626175D01*
X182807318Y-151794697D01*
X182842903Y-151973598D01*
X182842903Y-152156004D01*
X182807318Y-152334905D01*
X182737514Y-152503427D01*
X182636175Y-152655092D01*
X182507194Y-152784073D01*
X182355529Y-152885412D01*
X182187007Y-152955216D01*
X182008106Y-152990801D01*
X181825700Y-152990801D01*
X181646799Y-152955216D01*
X181478277Y-152885412D01*
X181326612Y-152784073D01*
X181197631Y-152655092D01*
X181096292Y-152503427D01*
X181026488Y-152334905D01*
X180990903Y-152156004D01*
X180990903Y-151973598D01*
X181026488Y-151794697D01*
X181096292Y-151626175D01*
X181197631Y-151474510D01*
X181326612Y-151345529D01*
X181478277Y-151244190D01*
X181646799Y-151174386D01*
X181825700Y-151138801D01*
X182008106Y-151138801D01*
X182187007Y-151174386D01*
X182187007Y-151174386D01*
G37*
G36*
X177606474Y-148783684D02*
G01*
X177754284Y-148844909D01*
X177978623Y-148937833D01*
X178313548Y-149161623D01*
X178598377Y-149446452D01*
X178822167Y-149781377D01*
X178860460Y-149873825D01*
X178976316Y-150153526D01*
X179054900Y-150548594D01*
X179054900Y-150951406D01*
X178976316Y-151346474D01*
X178923281Y-151474511D01*
X178822167Y-151718623D01*
X178598377Y-152053548D01*
X178313548Y-152338377D01*
X177978623Y-152562167D01*
X177824474Y-152626017D01*
X177606474Y-152716316D01*
X177211406Y-152794900D01*
X176808594Y-152794900D01*
X176413526Y-152716316D01*
X176195526Y-152626017D01*
X176041377Y-152562167D01*
X175706452Y-152338377D01*
X175421623Y-152053548D01*
X175197833Y-151718623D01*
X175096719Y-151474511D01*
X175043684Y-151346474D01*
X174965100Y-150951406D01*
X174965100Y-150548594D01*
X175043684Y-150153526D01*
X175159540Y-149873825D01*
X175197833Y-149781377D01*
X175421623Y-149446452D01*
X175706452Y-149161623D01*
X176041377Y-148937833D01*
X176265716Y-148844909D01*
X176413526Y-148783684D01*
X176808594Y-148705100D01*
X177211406Y-148705100D01*
X177606474Y-148783684D01*
X177606474Y-148783684D01*
G37*
G36*
X62508974Y-147258684D02*
G01*
X62726974Y-147348983D01*
X62881123Y-147412833D01*
X63216048Y-147636623D01*
X63500877Y-147921452D01*
X63724667Y-148256377D01*
X63757062Y-148334586D01*
X63878816Y-148628526D01*
X63957400Y-149023594D01*
X63957400Y-149426406D01*
X63878816Y-149821474D01*
X63827951Y-149944272D01*
X63724667Y-150193623D01*
X63500877Y-150528548D01*
X63216048Y-150813377D01*
X62881123Y-151037167D01*
X62726974Y-151101017D01*
X62508974Y-151191316D01*
X62113906Y-151269900D01*
X61711094Y-151269900D01*
X61316026Y-151191316D01*
X61098026Y-151101017D01*
X60943877Y-151037167D01*
X60608952Y-150813377D01*
X60324123Y-150528548D01*
X60100333Y-150193623D01*
X59997049Y-149944272D01*
X59946184Y-149821474D01*
X59867600Y-149426406D01*
X59867600Y-149023594D01*
X59946184Y-148628526D01*
X60067938Y-148334586D01*
X60100333Y-148256377D01*
X60324123Y-147921452D01*
X60608952Y-147636623D01*
X60943877Y-147412833D01*
X61098026Y-147348983D01*
X61316026Y-147258684D01*
X61711094Y-147180100D01*
X62113906Y-147180100D01*
X62508974Y-147258684D01*
X62508974Y-147258684D01*
G37*
G36*
X172373201Y-148544784D02*
G01*
X172541723Y-148614588D01*
X172693388Y-148715927D01*
X172822369Y-148844908D01*
X172923708Y-148996573D01*
X172993512Y-149165095D01*
X173029097Y-149343996D01*
X173029097Y-149526402D01*
X172993512Y-149705303D01*
X172923708Y-149873825D01*
X172822369Y-150025490D01*
X172693388Y-150154471D01*
X172541723Y-150255810D01*
X172373201Y-150325614D01*
X172194300Y-150361199D01*
X172011894Y-150361199D01*
X171832993Y-150325614D01*
X171664471Y-150255810D01*
X171512806Y-150154471D01*
X171383825Y-150025490D01*
X171282486Y-149873825D01*
X171212682Y-149705303D01*
X171177097Y-149526402D01*
X171177097Y-149343996D01*
X171212682Y-149165095D01*
X171282486Y-148996573D01*
X171383825Y-148844908D01*
X171512806Y-148715927D01*
X171664471Y-148614588D01*
X171832993Y-148544784D01*
X172011894Y-148509199D01*
X172194300Y-148509199D01*
X172373201Y-148544784D01*
X172373201Y-148544784D01*
G37*
G36*
X67262604Y-148334585D02*
G01*
X67431126Y-148404389D01*
X67582791Y-148505728D01*
X67711772Y-148634709D01*
X67813111Y-148786374D01*
X67882915Y-148954896D01*
X67918500Y-149133797D01*
X67918500Y-149316203D01*
X67882915Y-149495104D01*
X67813111Y-149663626D01*
X67711772Y-149815291D01*
X67582791Y-149944272D01*
X67431126Y-150045611D01*
X67262604Y-150115415D01*
X67083703Y-150151000D01*
X66901297Y-150151000D01*
X66722396Y-150115415D01*
X66553874Y-150045611D01*
X66402209Y-149944272D01*
X66273228Y-149815291D01*
X66171889Y-149663626D01*
X66102085Y-149495104D01*
X66066500Y-149316203D01*
X66066500Y-149133797D01*
X66102085Y-148954896D01*
X66171889Y-148786374D01*
X66273228Y-148634709D01*
X66402209Y-148505728D01*
X66553874Y-148404389D01*
X66722396Y-148334585D01*
X66901297Y-148299000D01*
X67083703Y-148299000D01*
X67262604Y-148334585D01*
X67262604Y-148334585D01*
G37*
G36*
X57102604Y-148334585D02*
G01*
X57271126Y-148404389D01*
X57422791Y-148505728D01*
X57551772Y-148634709D01*
X57653111Y-148786374D01*
X57722915Y-148954896D01*
X57758500Y-149133797D01*
X57758500Y-149316203D01*
X57722915Y-149495104D01*
X57653111Y-149663626D01*
X57551772Y-149815291D01*
X57422791Y-149944272D01*
X57271126Y-150045611D01*
X57102604Y-150115415D01*
X56923703Y-150151000D01*
X56741297Y-150151000D01*
X56562396Y-150115415D01*
X56393874Y-150045611D01*
X56242209Y-149944272D01*
X56113228Y-149815291D01*
X56011889Y-149663626D01*
X55942085Y-149495104D01*
X55906500Y-149316203D01*
X55906500Y-149133797D01*
X55942085Y-148954896D01*
X56011889Y-148786374D01*
X56113228Y-148634709D01*
X56242209Y-148505728D01*
X56393874Y-148404389D01*
X56562396Y-148334585D01*
X56741297Y-148299000D01*
X56923703Y-148299000D01*
X57102604Y-148334585D01*
X57102604Y-148334585D01*
G37*
G36*
X174137009Y-146141203D02*
G01*
X174330250Y-146179641D01*
X174544268Y-146268290D01*
X174544269Y-146268291D01*
X174736877Y-146396987D01*
X174900684Y-146560794D01*
X174953801Y-146640290D01*
X175029381Y-146753403D01*
X175118030Y-146967421D01*
X175130085Y-147028025D01*
X175160335Y-147180100D01*
X175163223Y-147194622D01*
X175163223Y-147426274D01*
X175118030Y-147653475D01*
X175029381Y-147867493D01*
X175029380Y-147867494D01*
X174900684Y-148060102D01*
X174736877Y-148223909D01*
X174688283Y-148256378D01*
X174544268Y-148352606D01*
X174330250Y-148441255D01*
X174178783Y-148471384D01*
X174103050Y-148486448D01*
X173871396Y-148486448D01*
X173795663Y-148471384D01*
X173644196Y-148441255D01*
X173430178Y-148352606D01*
X173286163Y-148256378D01*
X173237569Y-148223909D01*
X173073762Y-148060102D01*
X172945066Y-147867494D01*
X172945065Y-147867493D01*
X172856416Y-147653475D01*
X172811223Y-147426274D01*
X172811223Y-147194622D01*
X172814112Y-147180100D01*
X172844361Y-147028025D01*
X172856416Y-146967421D01*
X172945065Y-146753403D01*
X173020645Y-146640290D01*
X173073762Y-146560794D01*
X173237569Y-146396987D01*
X173430177Y-146268291D01*
X173430178Y-146268290D01*
X173644196Y-146179641D01*
X173837437Y-146141203D01*
X173871396Y-146134448D01*
X174103050Y-146134448D01*
X174137009Y-146141203D01*
X174137009Y-146141203D01*
G37*
G36*
X81558974Y-144083684D02*
G01*
X81776974Y-144173983D01*
X81931123Y-144237833D01*
X82266048Y-144461623D01*
X82550877Y-144746452D01*
X82774667Y-145081377D01*
X82807062Y-145159586D01*
X82928816Y-145453526D01*
X83007400Y-145848594D01*
X83007400Y-146251406D01*
X82928816Y-146646474D01*
X82877951Y-146769272D01*
X82774667Y-147018623D01*
X82550877Y-147353548D01*
X82266048Y-147638377D01*
X81931123Y-147862167D01*
X81918262Y-147867494D01*
X81558974Y-148016316D01*
X81163906Y-148094900D01*
X80761094Y-148094900D01*
X80366026Y-148016316D01*
X80006738Y-147867494D01*
X79993877Y-147862167D01*
X79658952Y-147638377D01*
X79374123Y-147353548D01*
X79150333Y-147018623D01*
X79047049Y-146769272D01*
X78996184Y-146646474D01*
X78917600Y-146251406D01*
X78917600Y-145848594D01*
X78996184Y-145453526D01*
X79117938Y-145159586D01*
X79150333Y-145081377D01*
X79374123Y-144746452D01*
X79658952Y-144461623D01*
X79993877Y-144237833D01*
X80148026Y-144173983D01*
X80366026Y-144083684D01*
X80761094Y-144005100D01*
X81163906Y-144005100D01*
X81558974Y-144083684D01*
X81558974Y-144083684D01*
G37*
G36*
X58294060Y-145524064D02*
G01*
X58445527Y-145554193D01*
X58659545Y-145642842D01*
X58659546Y-145642843D01*
X58852154Y-145771539D01*
X59015961Y-145935346D01*
X59021377Y-145943452D01*
X59144658Y-146127955D01*
X59233307Y-146341973D01*
X59278500Y-146569174D01*
X59278500Y-146800826D01*
X59233307Y-147028027D01*
X59144658Y-147242045D01*
X59139240Y-147250153D01*
X59015961Y-147434654D01*
X58852154Y-147598461D01*
X58795040Y-147636623D01*
X58659545Y-147727158D01*
X58445527Y-147815807D01*
X58294060Y-147845936D01*
X58218327Y-147861000D01*
X57986673Y-147861000D01*
X57910940Y-147845936D01*
X57759473Y-147815807D01*
X57545455Y-147727158D01*
X57409960Y-147636623D01*
X57352846Y-147598461D01*
X57189039Y-147434654D01*
X57065760Y-147250153D01*
X57060342Y-147242045D01*
X56971693Y-147028027D01*
X56926500Y-146800826D01*
X56926500Y-146569174D01*
X56971693Y-146341973D01*
X57060342Y-146127955D01*
X57183623Y-145943452D01*
X57189039Y-145935346D01*
X57352846Y-145771539D01*
X57545454Y-145642843D01*
X57545455Y-145642842D01*
X57759473Y-145554193D01*
X57910940Y-145524064D01*
X57986673Y-145509000D01*
X58218327Y-145509000D01*
X58294060Y-145524064D01*
X58294060Y-145524064D01*
G37*
G36*
X180969812Y-145339561D02*
G01*
X181121279Y-145369690D01*
X181335297Y-145458339D01*
X181399501Y-145501239D01*
X181527906Y-145587036D01*
X181691713Y-145750843D01*
X181777510Y-145879248D01*
X181820410Y-145943452D01*
X181909059Y-146157470D01*
X181909059Y-146157472D01*
X181954252Y-146384670D01*
X181954252Y-146616324D01*
X181939188Y-146692057D01*
X181909059Y-146843524D01*
X181820410Y-147057542D01*
X181820409Y-147057543D01*
X181691713Y-147250151D01*
X181527906Y-147413958D01*
X181399501Y-147499755D01*
X181335297Y-147542655D01*
X181121279Y-147631304D01*
X180969812Y-147661433D01*
X180894079Y-147676497D01*
X180662425Y-147676497D01*
X180586692Y-147661433D01*
X180435225Y-147631304D01*
X180221207Y-147542655D01*
X180157003Y-147499755D01*
X180028598Y-147413958D01*
X179864791Y-147250151D01*
X179736095Y-147057543D01*
X179736094Y-147057542D01*
X179647445Y-146843524D01*
X179617316Y-146692057D01*
X179602252Y-146616324D01*
X179602252Y-146384670D01*
X179647445Y-146157472D01*
X179647445Y-146157470D01*
X179736094Y-145943452D01*
X179778994Y-145879248D01*
X179864791Y-145750843D01*
X180028598Y-145587036D01*
X180157003Y-145501239D01*
X180221207Y-145458339D01*
X180435225Y-145369690D01*
X180586692Y-145339561D01*
X180662425Y-145324497D01*
X180894079Y-145324497D01*
X180969812Y-145339561D01*
X180969812Y-145339561D01*
G37*
G36*
X76152604Y-145159585D02*
G01*
X76321126Y-145229389D01*
X76472791Y-145330728D01*
X76601772Y-145459709D01*
X76703111Y-145611374D01*
X76772915Y-145779896D01*
X76808500Y-145958797D01*
X76808500Y-146141203D01*
X76772915Y-146320104D01*
X76703111Y-146488626D01*
X76601772Y-146640291D01*
X76472791Y-146769272D01*
X76321126Y-146870611D01*
X76152604Y-146940415D01*
X75973703Y-146976000D01*
X75791297Y-146976000D01*
X75612396Y-146940415D01*
X75443874Y-146870611D01*
X75292209Y-146769272D01*
X75163228Y-146640291D01*
X75061889Y-146488626D01*
X74992085Y-146320104D01*
X74956500Y-146141203D01*
X74956500Y-145958797D01*
X74992085Y-145779896D01*
X75061889Y-145611374D01*
X75163228Y-145459709D01*
X75292209Y-145330728D01*
X75443874Y-145229389D01*
X75612396Y-145159585D01*
X75791297Y-145124000D01*
X75973703Y-145124000D01*
X76152604Y-145159585D01*
X76152604Y-145159585D01*
G37*
G36*
X86312604Y-145159585D02*
G01*
X86481126Y-145229389D01*
X86632791Y-145330728D01*
X86761772Y-145459709D01*
X86863111Y-145611374D01*
X86932915Y-145779896D01*
X86968500Y-145958797D01*
X86968500Y-146141203D01*
X86932915Y-146320104D01*
X86863111Y-146488626D01*
X86761772Y-146640291D01*
X86632791Y-146769272D01*
X86481126Y-146870611D01*
X86312604Y-146940415D01*
X86133703Y-146976000D01*
X85951297Y-146976000D01*
X85772396Y-146940415D01*
X85603874Y-146870611D01*
X85452209Y-146769272D01*
X85323228Y-146640291D01*
X85221889Y-146488626D01*
X85152085Y-146320104D01*
X85116500Y-146141203D01*
X85116500Y-145958797D01*
X85152085Y-145779896D01*
X85221889Y-145611374D01*
X85323228Y-145459709D01*
X85452209Y-145330728D01*
X85603874Y-145229389D01*
X85772396Y-145159585D01*
X85951297Y-145124000D01*
X86133703Y-145124000D01*
X86312604Y-145159585D01*
X86312604Y-145159585D01*
G37*
G36*
X64644060Y-142984064D02*
G01*
X64795527Y-143014193D01*
X65009545Y-143102842D01*
X65009546Y-143102843D01*
X65202154Y-143231539D01*
X65365961Y-143395346D01*
X65451758Y-143523751D01*
X65494658Y-143587955D01*
X65583307Y-143801973D01*
X65593462Y-143853025D01*
X65623712Y-144005100D01*
X65628500Y-144029174D01*
X65628500Y-144260826D01*
X65583307Y-144488027D01*
X65494658Y-144702045D01*
X65494657Y-144702046D01*
X65365961Y-144894654D01*
X65202154Y-145058461D01*
X65073749Y-145144258D01*
X65009545Y-145187158D01*
X64795527Y-145275807D01*
X64644060Y-145305936D01*
X64568327Y-145321000D01*
X64336673Y-145321000D01*
X64260940Y-145305936D01*
X64109473Y-145275807D01*
X63895455Y-145187158D01*
X63831251Y-145144258D01*
X63702846Y-145058461D01*
X63539039Y-144894654D01*
X63410343Y-144702046D01*
X63410342Y-144702045D01*
X63321693Y-144488027D01*
X63276500Y-144260826D01*
X63276500Y-144029174D01*
X63281289Y-144005100D01*
X63311538Y-143853025D01*
X63321693Y-143801973D01*
X63410342Y-143587955D01*
X63453242Y-143523751D01*
X63539039Y-143395346D01*
X63702846Y-143231539D01*
X63895454Y-143102843D01*
X63895455Y-143102842D01*
X64109473Y-143014193D01*
X64260940Y-142984064D01*
X64336673Y-142969000D01*
X64568327Y-142969000D01*
X64644060Y-142984064D01*
X64644060Y-142984064D01*
G37*
G36*
X157758974Y-140908684D02*
G01*
X157976974Y-140998983D01*
X158131123Y-141062833D01*
X158466048Y-141286623D01*
X158750877Y-141571452D01*
X158974667Y-141906377D01*
X159007062Y-141984586D01*
X159128816Y-142278526D01*
X159207400Y-142673594D01*
X159207400Y-143076406D01*
X159128816Y-143471474D01*
X159077951Y-143594272D01*
X158974667Y-143843623D01*
X158750877Y-144178548D01*
X158466048Y-144463377D01*
X158131123Y-144687167D01*
X157987996Y-144746452D01*
X157758974Y-144841316D01*
X157363906Y-144919900D01*
X156961094Y-144919900D01*
X156566026Y-144841316D01*
X156337004Y-144746452D01*
X156193877Y-144687167D01*
X155858952Y-144463377D01*
X155574123Y-144178548D01*
X155350333Y-143843623D01*
X155247049Y-143594272D01*
X155196184Y-143471474D01*
X155117600Y-143076406D01*
X155117600Y-142673594D01*
X155196184Y-142278526D01*
X155317938Y-141984586D01*
X155350333Y-141906377D01*
X155574123Y-141571452D01*
X155858952Y-141286623D01*
X156193877Y-141062833D01*
X156348026Y-140998983D01*
X156566026Y-140908684D01*
X156961094Y-140830100D01*
X157363906Y-140830100D01*
X157758974Y-140908684D01*
X157758974Y-140908684D01*
G37*
G36*
X77344060Y-142349064D02*
G01*
X77495527Y-142379193D01*
X77709545Y-142467842D01*
X77709546Y-142467843D01*
X77902154Y-142596539D01*
X78065961Y-142760346D01*
X78081630Y-142783797D01*
X78194658Y-142952955D01*
X78283307Y-143166973D01*
X78328500Y-143394174D01*
X78328500Y-143625826D01*
X78283307Y-143853027D01*
X78194658Y-144067045D01*
X78194657Y-144067046D01*
X78065961Y-144259654D01*
X77902154Y-144423461D01*
X77773749Y-144509258D01*
X77709545Y-144552158D01*
X77495527Y-144640807D01*
X77344060Y-144670936D01*
X77268327Y-144686000D01*
X77036673Y-144686000D01*
X76960940Y-144670936D01*
X76809473Y-144640807D01*
X76595455Y-144552158D01*
X76531251Y-144509258D01*
X76402846Y-144423461D01*
X76239039Y-144259654D01*
X76110343Y-144067046D01*
X76110342Y-144067045D01*
X76021693Y-143853027D01*
X75976500Y-143625826D01*
X75976500Y-143394174D01*
X76021693Y-143166973D01*
X76110342Y-142952955D01*
X76223370Y-142783797D01*
X76239039Y-142760346D01*
X76402846Y-142596539D01*
X76595454Y-142467843D01*
X76595455Y-142467842D01*
X76809473Y-142379193D01*
X76960940Y-142349064D01*
X77036673Y-142334000D01*
X77268327Y-142334000D01*
X77344060Y-142349064D01*
X77344060Y-142349064D01*
G37*
G36*
X162512604Y-141984585D02*
G01*
X162681126Y-142054389D01*
X162832791Y-142155728D01*
X162961772Y-142284709D01*
X163063111Y-142436374D01*
X163132915Y-142604896D01*
X163168500Y-142783797D01*
X163168500Y-142966203D01*
X163132915Y-143145104D01*
X163063111Y-143313626D01*
X162961772Y-143465291D01*
X162832791Y-143594272D01*
X162681126Y-143695611D01*
X162512604Y-143765415D01*
X162333703Y-143801000D01*
X162151297Y-143801000D01*
X161972396Y-143765415D01*
X161803874Y-143695611D01*
X161652209Y-143594272D01*
X161523228Y-143465291D01*
X161421889Y-143313626D01*
X161352085Y-143145104D01*
X161316500Y-142966203D01*
X161316500Y-142783797D01*
X161352085Y-142604896D01*
X161421889Y-142436374D01*
X161523228Y-142284709D01*
X161652209Y-142155728D01*
X161803874Y-142054389D01*
X161972396Y-141984585D01*
X162151297Y-141949000D01*
X162333703Y-141949000D01*
X162512604Y-141984585D01*
X162512604Y-141984585D01*
G37*
G36*
X152352604Y-141984585D02*
G01*
X152521126Y-142054389D01*
X152672791Y-142155728D01*
X152801772Y-142284709D01*
X152903111Y-142436374D01*
X152972915Y-142604896D01*
X153008500Y-142783797D01*
X153008500Y-142966203D01*
X152972915Y-143145104D01*
X152903111Y-143313626D01*
X152801772Y-143465291D01*
X152672791Y-143594272D01*
X152521126Y-143695611D01*
X152352604Y-143765415D01*
X152173703Y-143801000D01*
X151991297Y-143801000D01*
X151812396Y-143765415D01*
X151643874Y-143695611D01*
X151492209Y-143594272D01*
X151363228Y-143465291D01*
X151261889Y-143313626D01*
X151192085Y-143145104D01*
X151156500Y-142966203D01*
X151156500Y-142783797D01*
X151192085Y-142604896D01*
X151261889Y-142436374D01*
X151363228Y-142284709D01*
X151492209Y-142155728D01*
X151643874Y-142054389D01*
X151812396Y-141984585D01*
X151991297Y-141949000D01*
X152173703Y-141949000D01*
X152352604Y-141984585D01*
X152352604Y-141984585D01*
G37*
G36*
X83694060Y-139809064D02*
G01*
X83845527Y-139839193D01*
X84059545Y-139927842D01*
X84059546Y-139927843D01*
X84252154Y-140056539D01*
X84415961Y-140220346D01*
X84501758Y-140348751D01*
X84544658Y-140412955D01*
X84633307Y-140626973D01*
X84643462Y-140678025D01*
X84673712Y-140830100D01*
X84678500Y-140854174D01*
X84678500Y-141085826D01*
X84633307Y-141313027D01*
X84544658Y-141527045D01*
X84544657Y-141527046D01*
X84415961Y-141719654D01*
X84252154Y-141883461D01*
X84123749Y-141969258D01*
X84059545Y-142012158D01*
X83845527Y-142100807D01*
X83694060Y-142130936D01*
X83618327Y-142146000D01*
X83386673Y-142146000D01*
X83310940Y-142130936D01*
X83159473Y-142100807D01*
X82945455Y-142012158D01*
X82881251Y-141969258D01*
X82752846Y-141883461D01*
X82589039Y-141719654D01*
X82460343Y-141527046D01*
X82460342Y-141527045D01*
X82371693Y-141313027D01*
X82326500Y-141085826D01*
X82326500Y-140854174D01*
X82331289Y-140830100D01*
X82361538Y-140678025D01*
X82371693Y-140626973D01*
X82460342Y-140412955D01*
X82503242Y-140348751D01*
X82589039Y-140220346D01*
X82752846Y-140056539D01*
X82945454Y-139927843D01*
X82945455Y-139927842D01*
X83159473Y-139839193D01*
X83310940Y-139809064D01*
X83386673Y-139794000D01*
X83618327Y-139794000D01*
X83694060Y-139809064D01*
X83694060Y-139809064D01*
G37*
G36*
X138708974Y-137733684D02*
G01*
X138926974Y-137823983D01*
X139081123Y-137887833D01*
X139416048Y-138111623D01*
X139700877Y-138396452D01*
X139924667Y-138731377D01*
X139957062Y-138809586D01*
X140078816Y-139103526D01*
X140157400Y-139498594D01*
X140157400Y-139901406D01*
X140078816Y-140296474D01*
X140027951Y-140419272D01*
X139924667Y-140668623D01*
X139700877Y-141003548D01*
X139416048Y-141288377D01*
X139081123Y-141512167D01*
X138937996Y-141571452D01*
X138708974Y-141666316D01*
X138313906Y-141744900D01*
X137911094Y-141744900D01*
X137516026Y-141666316D01*
X137287004Y-141571452D01*
X137143877Y-141512167D01*
X136808952Y-141288377D01*
X136524123Y-141003548D01*
X136300333Y-140668623D01*
X136197049Y-140419272D01*
X136146184Y-140296474D01*
X136067600Y-139901406D01*
X136067600Y-139498594D01*
X136146184Y-139103526D01*
X136267938Y-138809586D01*
X136300333Y-138731377D01*
X136524123Y-138396452D01*
X136808952Y-138111623D01*
X137143877Y-137887833D01*
X137298026Y-137823983D01*
X137516026Y-137733684D01*
X137911094Y-137655100D01*
X138313906Y-137655100D01*
X138708974Y-137733684D01*
X138708974Y-137733684D01*
G37*
G36*
X100608974Y-137733684D02*
G01*
X100826974Y-137823983D01*
X100981123Y-137887833D01*
X101316048Y-138111623D01*
X101600877Y-138396452D01*
X101824667Y-138731377D01*
X101857062Y-138809586D01*
X101978816Y-139103526D01*
X102057400Y-139498594D01*
X102057400Y-139901406D01*
X101978816Y-140296474D01*
X101927951Y-140419272D01*
X101824667Y-140668623D01*
X101600877Y-141003548D01*
X101316048Y-141288377D01*
X100981123Y-141512167D01*
X100837996Y-141571452D01*
X100608974Y-141666316D01*
X100213906Y-141744900D01*
X99811094Y-141744900D01*
X99416026Y-141666316D01*
X99187004Y-141571452D01*
X99043877Y-141512167D01*
X98708952Y-141288377D01*
X98424123Y-141003548D01*
X98200333Y-140668623D01*
X98097049Y-140419272D01*
X98046184Y-140296474D01*
X97967600Y-139901406D01*
X97967600Y-139498594D01*
X98046184Y-139103526D01*
X98167938Y-138809586D01*
X98200333Y-138731377D01*
X98424123Y-138396452D01*
X98708952Y-138111623D01*
X99043877Y-137887833D01*
X99198026Y-137823983D01*
X99416026Y-137733684D01*
X99811094Y-137655100D01*
X100213906Y-137655100D01*
X100608974Y-137733684D01*
X100608974Y-137733684D01*
G37*
G36*
X153544060Y-139174064D02*
G01*
X153695527Y-139204193D01*
X153909545Y-139292842D01*
X153909546Y-139292843D01*
X154102154Y-139421539D01*
X154265961Y-139585346D01*
X154281630Y-139608797D01*
X154394658Y-139777955D01*
X154483307Y-139991973D01*
X154528500Y-140219174D01*
X154528500Y-140450826D01*
X154483307Y-140678027D01*
X154394658Y-140892045D01*
X154394657Y-140892046D01*
X154265961Y-141084654D01*
X154102154Y-141248461D01*
X153973749Y-141334258D01*
X153909545Y-141377158D01*
X153695527Y-141465807D01*
X153544060Y-141495936D01*
X153468327Y-141511000D01*
X153236673Y-141511000D01*
X153160940Y-141495936D01*
X153009473Y-141465807D01*
X152795455Y-141377158D01*
X152731251Y-141334258D01*
X152602846Y-141248461D01*
X152439039Y-141084654D01*
X152310343Y-140892046D01*
X152310342Y-140892045D01*
X152221693Y-140678027D01*
X152176500Y-140450826D01*
X152176500Y-140219174D01*
X152221693Y-139991973D01*
X152310342Y-139777955D01*
X152423370Y-139608797D01*
X152439039Y-139585346D01*
X152602846Y-139421539D01*
X152795454Y-139292843D01*
X152795455Y-139292842D01*
X153009473Y-139204193D01*
X153160940Y-139174064D01*
X153236673Y-139159000D01*
X153468327Y-139159000D01*
X153544060Y-139174064D01*
X153544060Y-139174064D01*
G37*
G36*
X95202604Y-138809585D02*
G01*
X95371126Y-138879389D01*
X95522791Y-138980728D01*
X95651772Y-139109709D01*
X95753111Y-139261374D01*
X95822915Y-139429896D01*
X95858500Y-139608797D01*
X95858500Y-139791203D01*
X95822915Y-139970104D01*
X95753111Y-140138626D01*
X95651772Y-140290291D01*
X95522791Y-140419272D01*
X95371126Y-140520611D01*
X95202604Y-140590415D01*
X95023703Y-140626000D01*
X94841297Y-140626000D01*
X94662396Y-140590415D01*
X94493874Y-140520611D01*
X94342209Y-140419272D01*
X94213228Y-140290291D01*
X94111889Y-140138626D01*
X94042085Y-139970104D01*
X94006500Y-139791203D01*
X94006500Y-139608797D01*
X94042085Y-139429896D01*
X94111889Y-139261374D01*
X94213228Y-139109709D01*
X94342209Y-138980728D01*
X94493874Y-138879389D01*
X94662396Y-138809585D01*
X94841297Y-138774000D01*
X95023703Y-138774000D01*
X95202604Y-138809585D01*
X95202604Y-138809585D01*
G37*
G36*
X143462604Y-138809585D02*
G01*
X143631126Y-138879389D01*
X143782791Y-138980728D01*
X143911772Y-139109709D01*
X144013111Y-139261374D01*
X144082915Y-139429896D01*
X144118500Y-139608797D01*
X144118500Y-139791203D01*
X144082915Y-139970104D01*
X144013111Y-140138626D01*
X143911772Y-140290291D01*
X143782791Y-140419272D01*
X143631126Y-140520611D01*
X143462604Y-140590415D01*
X143283703Y-140626000D01*
X143101297Y-140626000D01*
X142922396Y-140590415D01*
X142753874Y-140520611D01*
X142602209Y-140419272D01*
X142473228Y-140290291D01*
X142371889Y-140138626D01*
X142302085Y-139970104D01*
X142266500Y-139791203D01*
X142266500Y-139608797D01*
X142302085Y-139429896D01*
X142371889Y-139261374D01*
X142473228Y-139109709D01*
X142602209Y-138980728D01*
X142753874Y-138879389D01*
X142922396Y-138809585D01*
X143101297Y-138774000D01*
X143283703Y-138774000D01*
X143462604Y-138809585D01*
X143462604Y-138809585D01*
G37*
G36*
X133302604Y-138809585D02*
G01*
X133471126Y-138879389D01*
X133622791Y-138980728D01*
X133751772Y-139109709D01*
X133853111Y-139261374D01*
X133922915Y-139429896D01*
X133958500Y-139608797D01*
X133958500Y-139791203D01*
X133922915Y-139970104D01*
X133853111Y-140138626D01*
X133751772Y-140290291D01*
X133622791Y-140419272D01*
X133471126Y-140520611D01*
X133302604Y-140590415D01*
X133123703Y-140626000D01*
X132941297Y-140626000D01*
X132762396Y-140590415D01*
X132593874Y-140520611D01*
X132442209Y-140419272D01*
X132313228Y-140290291D01*
X132211889Y-140138626D01*
X132142085Y-139970104D01*
X132106500Y-139791203D01*
X132106500Y-139608797D01*
X132142085Y-139429896D01*
X132211889Y-139261374D01*
X132313228Y-139109709D01*
X132442209Y-138980728D01*
X132593874Y-138879389D01*
X132762396Y-138809585D01*
X132941297Y-138774000D01*
X133123703Y-138774000D01*
X133302604Y-138809585D01*
X133302604Y-138809585D01*
G37*
G36*
X105362604Y-138809585D02*
G01*
X105531126Y-138879389D01*
X105682791Y-138980728D01*
X105811772Y-139109709D01*
X105913111Y-139261374D01*
X105982915Y-139429896D01*
X106018500Y-139608797D01*
X106018500Y-139791203D01*
X105982915Y-139970104D01*
X105913111Y-140138626D01*
X105811772Y-140290291D01*
X105682791Y-140419272D01*
X105531126Y-140520611D01*
X105362604Y-140590415D01*
X105183703Y-140626000D01*
X105001297Y-140626000D01*
X104822396Y-140590415D01*
X104653874Y-140520611D01*
X104502209Y-140419272D01*
X104373228Y-140290291D01*
X104271889Y-140138626D01*
X104202085Y-139970104D01*
X104166500Y-139791203D01*
X104166500Y-139608797D01*
X104202085Y-139429896D01*
X104271889Y-139261374D01*
X104373228Y-139109709D01*
X104502209Y-138980728D01*
X104653874Y-138879389D01*
X104822396Y-138809585D01*
X105001297Y-138774000D01*
X105183703Y-138774000D01*
X105362604Y-138809585D01*
X105362604Y-138809585D01*
G37*
G36*
X159894060Y-136634064D02*
G01*
X160045527Y-136664193D01*
X160259545Y-136752842D01*
X160259546Y-136752843D01*
X160452154Y-136881539D01*
X160615961Y-137045346D01*
X160701758Y-137173751D01*
X160744658Y-137237955D01*
X160833307Y-137451973D01*
X160843462Y-137503025D01*
X160873712Y-137655100D01*
X160878500Y-137679174D01*
X160878500Y-137910826D01*
X160833307Y-138138027D01*
X160744658Y-138352045D01*
X160744657Y-138352046D01*
X160615961Y-138544654D01*
X160452154Y-138708461D01*
X160323749Y-138794258D01*
X160259545Y-138837158D01*
X160045527Y-138925807D01*
X159894060Y-138955936D01*
X159818327Y-138971000D01*
X159586673Y-138971000D01*
X159510940Y-138955936D01*
X159359473Y-138925807D01*
X159145455Y-138837158D01*
X159081251Y-138794258D01*
X158952846Y-138708461D01*
X158789039Y-138544654D01*
X158660343Y-138352046D01*
X158660342Y-138352045D01*
X158571693Y-138138027D01*
X158526500Y-137910826D01*
X158526500Y-137679174D01*
X158531289Y-137655100D01*
X158561538Y-137503025D01*
X158571693Y-137451973D01*
X158660342Y-137237955D01*
X158703242Y-137173751D01*
X158789039Y-137045346D01*
X158952846Y-136881539D01*
X159145454Y-136752843D01*
X159145455Y-136752842D01*
X159359473Y-136664193D01*
X159510940Y-136634064D01*
X159586673Y-136619000D01*
X159818327Y-136619000D01*
X159894060Y-136634064D01*
X159894060Y-136634064D01*
G37*
G36*
X119658974Y-134558684D02*
G01*
X119876974Y-134648983D01*
X120031123Y-134712833D01*
X120366048Y-134936623D01*
X120650877Y-135221452D01*
X120874667Y-135556377D01*
X120907062Y-135634586D01*
X121028816Y-135928526D01*
X121107400Y-136323594D01*
X121107400Y-136726406D01*
X121028816Y-137121474D01*
X120977951Y-137244272D01*
X120874667Y-137493623D01*
X120650877Y-137828548D01*
X120366048Y-138113377D01*
X120031123Y-138337167D01*
X119887996Y-138396452D01*
X119658974Y-138491316D01*
X119263906Y-138569900D01*
X118861094Y-138569900D01*
X118466026Y-138491316D01*
X118237004Y-138396452D01*
X118093877Y-138337167D01*
X117758952Y-138113377D01*
X117474123Y-137828548D01*
X117250333Y-137493623D01*
X117147049Y-137244272D01*
X117096184Y-137121474D01*
X117017600Y-136726406D01*
X117017600Y-136323594D01*
X117096184Y-135928526D01*
X117217938Y-135634586D01*
X117250333Y-135556377D01*
X117474123Y-135221452D01*
X117758952Y-134936623D01*
X118093877Y-134712833D01*
X118248026Y-134648983D01*
X118466026Y-134558684D01*
X118861094Y-134480100D01*
X119263906Y-134480100D01*
X119658974Y-134558684D01*
X119658974Y-134558684D01*
G37*
G36*
X96394060Y-135999064D02*
G01*
X96545527Y-136029193D01*
X96759545Y-136117842D01*
X96759546Y-136117843D01*
X96952154Y-136246539D01*
X97115961Y-136410346D01*
X97131630Y-136433797D01*
X97244658Y-136602955D01*
X97333307Y-136816973D01*
X97378500Y-137044174D01*
X97378500Y-137275826D01*
X97333307Y-137503027D01*
X97244658Y-137717045D01*
X97244657Y-137717046D01*
X97115961Y-137909654D01*
X96952154Y-138073461D01*
X96823749Y-138159258D01*
X96759545Y-138202158D01*
X96545527Y-138290807D01*
X96394060Y-138320936D01*
X96318327Y-138336000D01*
X96086673Y-138336000D01*
X96010940Y-138320936D01*
X95859473Y-138290807D01*
X95645455Y-138202158D01*
X95581251Y-138159258D01*
X95452846Y-138073461D01*
X95289039Y-137909654D01*
X95160343Y-137717046D01*
X95160342Y-137717045D01*
X95071693Y-137503027D01*
X95026500Y-137275826D01*
X95026500Y-137044174D01*
X95071693Y-136816973D01*
X95160342Y-136602955D01*
X95273370Y-136433797D01*
X95289039Y-136410346D01*
X95452846Y-136246539D01*
X95645454Y-136117843D01*
X95645455Y-136117842D01*
X95859473Y-136029193D01*
X96010940Y-135999064D01*
X96086673Y-135984000D01*
X96318327Y-135984000D01*
X96394060Y-135999064D01*
X96394060Y-135999064D01*
G37*
G36*
X134494060Y-135999064D02*
G01*
X134645527Y-136029193D01*
X134859545Y-136117842D01*
X134859546Y-136117843D01*
X135052154Y-136246539D01*
X135215961Y-136410346D01*
X135231630Y-136433797D01*
X135344658Y-136602955D01*
X135433307Y-136816973D01*
X135478500Y-137044174D01*
X135478500Y-137275826D01*
X135433307Y-137503027D01*
X135344658Y-137717045D01*
X135344657Y-137717046D01*
X135215961Y-137909654D01*
X135052154Y-138073461D01*
X134923749Y-138159258D01*
X134859545Y-138202158D01*
X134645527Y-138290807D01*
X134494060Y-138320936D01*
X134418327Y-138336000D01*
X134186673Y-138336000D01*
X134110940Y-138320936D01*
X133959473Y-138290807D01*
X133745455Y-138202158D01*
X133681251Y-138159258D01*
X133552846Y-138073461D01*
X133389039Y-137909654D01*
X133260343Y-137717046D01*
X133260342Y-137717045D01*
X133171693Y-137503027D01*
X133126500Y-137275826D01*
X133126500Y-137044174D01*
X133171693Y-136816973D01*
X133260342Y-136602955D01*
X133373370Y-136433797D01*
X133389039Y-136410346D01*
X133552846Y-136246539D01*
X133745454Y-136117843D01*
X133745455Y-136117842D01*
X133959473Y-136029193D01*
X134110940Y-135999064D01*
X134186673Y-135984000D01*
X134418327Y-135984000D01*
X134494060Y-135999064D01*
X134494060Y-135999064D01*
G37*
G36*
X124412604Y-135634585D02*
G01*
X124581126Y-135704389D01*
X124732791Y-135805728D01*
X124861772Y-135934709D01*
X124963111Y-136086374D01*
X125032915Y-136254896D01*
X125068500Y-136433797D01*
X125068500Y-136616203D01*
X125032915Y-136795104D01*
X124963111Y-136963626D01*
X124861772Y-137115291D01*
X124732791Y-137244272D01*
X124581126Y-137345611D01*
X124412604Y-137415415D01*
X124233703Y-137451000D01*
X124051297Y-137451000D01*
X123872396Y-137415415D01*
X123703874Y-137345611D01*
X123552209Y-137244272D01*
X123423228Y-137115291D01*
X123321889Y-136963626D01*
X123252085Y-136795104D01*
X123216500Y-136616203D01*
X123216500Y-136433797D01*
X123252085Y-136254896D01*
X123321889Y-136086374D01*
X123423228Y-135934709D01*
X123552209Y-135805728D01*
X123703874Y-135704389D01*
X123872396Y-135634585D01*
X124051297Y-135599000D01*
X124233703Y-135599000D01*
X124412604Y-135634585D01*
X124412604Y-135634585D01*
G37*
G36*
X114252604Y-135634585D02*
G01*
X114421126Y-135704389D01*
X114572791Y-135805728D01*
X114701772Y-135934709D01*
X114803111Y-136086374D01*
X114872915Y-136254896D01*
X114908500Y-136433797D01*
X114908500Y-136616203D01*
X114872915Y-136795104D01*
X114803111Y-136963626D01*
X114701772Y-137115291D01*
X114572791Y-137244272D01*
X114421126Y-137345611D01*
X114252604Y-137415415D01*
X114073703Y-137451000D01*
X113891297Y-137451000D01*
X113712396Y-137415415D01*
X113543874Y-137345611D01*
X113392209Y-137244272D01*
X113263228Y-137115291D01*
X113161889Y-136963626D01*
X113092085Y-136795104D01*
X113056500Y-136616203D01*
X113056500Y-136433797D01*
X113092085Y-136254896D01*
X113161889Y-136086374D01*
X113263228Y-135934709D01*
X113392209Y-135805728D01*
X113543874Y-135704389D01*
X113712396Y-135634585D01*
X113891297Y-135599000D01*
X114073703Y-135599000D01*
X114252604Y-135634585D01*
X114252604Y-135634585D01*
G37*
G36*
X140844060Y-133459064D02*
G01*
X140995527Y-133489193D01*
X141209545Y-133577842D01*
X141209546Y-133577843D01*
X141402154Y-133706539D01*
X141565961Y-133870346D01*
X141651758Y-133998751D01*
X141694658Y-134062955D01*
X141783307Y-134276973D01*
X141783307Y-134276975D01*
X141823712Y-134480100D01*
X141828500Y-134504174D01*
X141828500Y-134735826D01*
X141783307Y-134963027D01*
X141694658Y-135177045D01*
X141694657Y-135177046D01*
X141565961Y-135369654D01*
X141402154Y-135533461D01*
X141273749Y-135619258D01*
X141209545Y-135662158D01*
X140995527Y-135750807D01*
X140844060Y-135780936D01*
X140768327Y-135796000D01*
X140536673Y-135796000D01*
X140460940Y-135780936D01*
X140309473Y-135750807D01*
X140095455Y-135662158D01*
X140031251Y-135619258D01*
X139902846Y-135533461D01*
X139739039Y-135369654D01*
X139610343Y-135177046D01*
X139610342Y-135177045D01*
X139521693Y-134963027D01*
X139476500Y-134735826D01*
X139476500Y-134504174D01*
X139481289Y-134480100D01*
X139521693Y-134276975D01*
X139521693Y-134276973D01*
X139610342Y-134062955D01*
X139653242Y-133998751D01*
X139739039Y-133870346D01*
X139902846Y-133706539D01*
X140095454Y-133577843D01*
X140095455Y-133577842D01*
X140309473Y-133489193D01*
X140460940Y-133459064D01*
X140536673Y-133444000D01*
X140768327Y-133444000D01*
X140844060Y-133459064D01*
X140844060Y-133459064D01*
G37*
G36*
X102744060Y-133459064D02*
G01*
X102895527Y-133489193D01*
X103109545Y-133577842D01*
X103109546Y-133577843D01*
X103302154Y-133706539D01*
X103465961Y-133870346D01*
X103551758Y-133998751D01*
X103594658Y-134062955D01*
X103683307Y-134276973D01*
X103683307Y-134276975D01*
X103723712Y-134480100D01*
X103728500Y-134504174D01*
X103728500Y-134735826D01*
X103683307Y-134963027D01*
X103594658Y-135177045D01*
X103594657Y-135177046D01*
X103465961Y-135369654D01*
X103302154Y-135533461D01*
X103173749Y-135619258D01*
X103109545Y-135662158D01*
X102895527Y-135750807D01*
X102744060Y-135780936D01*
X102668327Y-135796000D01*
X102436673Y-135796000D01*
X102360940Y-135780936D01*
X102209473Y-135750807D01*
X101995455Y-135662158D01*
X101931251Y-135619258D01*
X101802846Y-135533461D01*
X101639039Y-135369654D01*
X101510343Y-135177046D01*
X101510342Y-135177045D01*
X101421693Y-134963027D01*
X101376500Y-134735826D01*
X101376500Y-134504174D01*
X101381289Y-134480100D01*
X101421693Y-134276975D01*
X101421693Y-134276973D01*
X101510342Y-134062955D01*
X101553242Y-133998751D01*
X101639039Y-133870346D01*
X101802846Y-133706539D01*
X101995454Y-133577843D01*
X101995455Y-133577842D01*
X102209473Y-133489193D01*
X102360940Y-133459064D01*
X102436673Y-133444000D01*
X102668327Y-133444000D01*
X102744060Y-133459064D01*
X102744060Y-133459064D01*
G37*
G36*
X115444060Y-132824064D02*
G01*
X115595527Y-132854193D01*
X115809545Y-132942842D01*
X115809546Y-132942843D01*
X116002154Y-133071539D01*
X116165961Y-133235346D01*
X116251758Y-133363751D01*
X116294658Y-133427955D01*
X116383307Y-133641973D01*
X116428500Y-133869174D01*
X116428500Y-134100826D01*
X116383307Y-134328027D01*
X116294658Y-134542045D01*
X116294657Y-134542046D01*
X116165961Y-134734654D01*
X116002154Y-134898461D01*
X115873749Y-134984258D01*
X115809545Y-135027158D01*
X115595527Y-135115807D01*
X115444060Y-135145936D01*
X115368327Y-135161000D01*
X115136673Y-135161000D01*
X115060940Y-135145936D01*
X114909473Y-135115807D01*
X114695455Y-135027158D01*
X114631251Y-134984258D01*
X114502846Y-134898461D01*
X114339039Y-134734654D01*
X114210343Y-134542046D01*
X114210342Y-134542045D01*
X114121693Y-134328027D01*
X114076500Y-134100826D01*
X114076500Y-133869174D01*
X114121693Y-133641973D01*
X114210342Y-133427955D01*
X114253242Y-133363751D01*
X114339039Y-133235346D01*
X114502846Y-133071539D01*
X114695454Y-132942843D01*
X114695455Y-132942842D01*
X114909473Y-132854193D01*
X115060940Y-132824064D01*
X115136673Y-132809000D01*
X115368327Y-132809000D01*
X115444060Y-132824064D01*
X115444060Y-132824064D01*
G37*
G36*
X121794060Y-130284064D02*
G01*
X121945527Y-130314193D01*
X122159545Y-130402842D01*
X122159546Y-130402843D01*
X122352154Y-130531539D01*
X122515961Y-130695346D01*
X122601758Y-130823751D01*
X122644658Y-130887955D01*
X122733307Y-131101973D01*
X122778500Y-131329174D01*
X122778500Y-131560826D01*
X122733307Y-131788027D01*
X122644658Y-132002045D01*
X122644657Y-132002046D01*
X122515961Y-132194654D01*
X122352154Y-132358461D01*
X122223749Y-132444258D01*
X122159545Y-132487158D01*
X121945527Y-132575807D01*
X121794060Y-132605936D01*
X121718327Y-132621000D01*
X121486673Y-132621000D01*
X121410940Y-132605936D01*
X121259473Y-132575807D01*
X121045455Y-132487158D01*
X120981251Y-132444258D01*
X120852846Y-132358461D01*
X120689039Y-132194654D01*
X120560343Y-132002046D01*
X120560342Y-132002045D01*
X120471693Y-131788027D01*
X120426500Y-131560826D01*
X120426500Y-131329174D01*
X120471693Y-131101973D01*
X120560342Y-130887955D01*
X120603242Y-130823751D01*
X120689039Y-130695346D01*
X120852846Y-130531539D01*
X121045454Y-130402843D01*
X121045455Y-130402842D01*
X121259473Y-130314193D01*
X121410940Y-130284064D01*
X121486673Y-130269000D01*
X121718327Y-130269000D01*
X121794060Y-130284064D01*
X121794060Y-130284064D01*
G37*
G36*
X62508974Y-128208684D02*
G01*
X62726974Y-128298983D01*
X62881123Y-128362833D01*
X63216048Y-128586623D01*
X63500877Y-128871452D01*
X63724667Y-129206377D01*
X63757062Y-129284586D01*
X63878816Y-129578526D01*
X63957400Y-129973594D01*
X63957400Y-130376406D01*
X63878816Y-130771474D01*
X63827951Y-130894272D01*
X63724667Y-131143623D01*
X63500877Y-131478548D01*
X63216048Y-131763377D01*
X62881123Y-131987167D01*
X62726974Y-132051017D01*
X62508974Y-132141316D01*
X62113906Y-132219900D01*
X61711094Y-132219900D01*
X61316026Y-132141316D01*
X61098026Y-132051017D01*
X60943877Y-131987167D01*
X60608952Y-131763377D01*
X60324123Y-131478548D01*
X60100333Y-131143623D01*
X59997049Y-130894272D01*
X59946184Y-130771474D01*
X59867600Y-130376406D01*
X59867600Y-129973594D01*
X59946184Y-129578526D01*
X60067938Y-129284586D01*
X60100333Y-129206377D01*
X60324123Y-128871452D01*
X60608952Y-128586623D01*
X60943877Y-128362833D01*
X61098026Y-128298983D01*
X61316026Y-128208684D01*
X61711094Y-128130100D01*
X62113906Y-128130100D01*
X62508974Y-128208684D01*
X62508974Y-128208684D01*
G37*
G36*
X67262604Y-129284585D02*
G01*
X67431126Y-129354389D01*
X67582791Y-129455728D01*
X67711772Y-129584709D01*
X67813111Y-129736374D01*
X67882915Y-129904896D01*
X67918500Y-130083797D01*
X67918500Y-130266203D01*
X67882915Y-130445104D01*
X67813111Y-130613626D01*
X67711772Y-130765291D01*
X67582791Y-130894272D01*
X67431126Y-130995611D01*
X67262604Y-131065415D01*
X67083703Y-131101000D01*
X66901297Y-131101000D01*
X66722396Y-131065415D01*
X66553874Y-130995611D01*
X66402209Y-130894272D01*
X66273228Y-130765291D01*
X66171889Y-130613626D01*
X66102085Y-130445104D01*
X66066500Y-130266203D01*
X66066500Y-130083797D01*
X66102085Y-129904896D01*
X66171889Y-129736374D01*
X66273228Y-129584709D01*
X66402209Y-129455728D01*
X66553874Y-129354389D01*
X66722396Y-129284585D01*
X66901297Y-129249000D01*
X67083703Y-129249000D01*
X67262604Y-129284585D01*
X67262604Y-129284585D01*
G37*
G36*
X57102604Y-129284585D02*
G01*
X57271126Y-129354389D01*
X57422791Y-129455728D01*
X57551772Y-129584709D01*
X57653111Y-129736374D01*
X57722915Y-129904896D01*
X57758500Y-130083797D01*
X57758500Y-130266203D01*
X57722915Y-130445104D01*
X57653111Y-130613626D01*
X57551772Y-130765291D01*
X57422791Y-130894272D01*
X57271126Y-130995611D01*
X57102604Y-131065415D01*
X56923703Y-131101000D01*
X56741297Y-131101000D01*
X56562396Y-131065415D01*
X56393874Y-130995611D01*
X56242209Y-130894272D01*
X56113228Y-130765291D01*
X56011889Y-130613626D01*
X55942085Y-130445104D01*
X55906500Y-130266203D01*
X55906500Y-130083797D01*
X55942085Y-129904896D01*
X56011889Y-129736374D01*
X56113228Y-129584709D01*
X56242209Y-129455728D01*
X56393874Y-129354389D01*
X56562396Y-129284585D01*
X56741297Y-129249000D01*
X56923703Y-129249000D01*
X57102604Y-129284585D01*
X57102604Y-129284585D01*
G37*
G36*
X176808974Y-125033684D02*
G01*
X177026974Y-125123983D01*
X177181123Y-125187833D01*
X177516048Y-125411623D01*
X177800877Y-125696452D01*
X178024667Y-126031377D01*
X178057062Y-126109586D01*
X178178816Y-126403526D01*
X178257400Y-126798594D01*
X178257400Y-127201406D01*
X178178816Y-127596474D01*
X178127951Y-127719272D01*
X178024667Y-127968623D01*
X177800877Y-128303548D01*
X177516048Y-128588377D01*
X177181123Y-128812167D01*
X177037996Y-128871452D01*
X176808974Y-128966316D01*
X176413906Y-129044900D01*
X176011094Y-129044900D01*
X175616026Y-128966316D01*
X175387004Y-128871452D01*
X175243877Y-128812167D01*
X174908952Y-128588377D01*
X174624123Y-128303548D01*
X174400333Y-127968623D01*
X174297049Y-127719272D01*
X174246184Y-127596474D01*
X174167600Y-127201406D01*
X174167600Y-126798594D01*
X174246184Y-126403526D01*
X174367938Y-126109586D01*
X174400333Y-126031377D01*
X174624123Y-125696452D01*
X174908952Y-125411623D01*
X175243877Y-125187833D01*
X175398026Y-125123983D01*
X175616026Y-125033684D01*
X176011094Y-124955100D01*
X176413906Y-124955100D01*
X176808974Y-125033684D01*
X176808974Y-125033684D01*
G37*
G36*
X81558974Y-125033684D02*
G01*
X81776974Y-125123983D01*
X81931123Y-125187833D01*
X82266048Y-125411623D01*
X82550877Y-125696452D01*
X82774667Y-126031377D01*
X82807062Y-126109586D01*
X82928816Y-126403526D01*
X83007400Y-126798594D01*
X83007400Y-127201406D01*
X82928816Y-127596474D01*
X82877951Y-127719272D01*
X82774667Y-127968623D01*
X82550877Y-128303548D01*
X82266048Y-128588377D01*
X81931123Y-128812167D01*
X81787996Y-128871452D01*
X81558974Y-128966316D01*
X81163906Y-129044900D01*
X80761094Y-129044900D01*
X80366026Y-128966316D01*
X80137004Y-128871452D01*
X79993877Y-128812167D01*
X79658952Y-128588377D01*
X79374123Y-128303548D01*
X79150333Y-127968623D01*
X79047049Y-127719272D01*
X78996184Y-127596474D01*
X78917600Y-127201406D01*
X78917600Y-126798594D01*
X78996184Y-126403526D01*
X79117938Y-126109586D01*
X79150333Y-126031377D01*
X79374123Y-125696452D01*
X79658952Y-125411623D01*
X79993877Y-125187833D01*
X80148026Y-125123983D01*
X80366026Y-125033684D01*
X80761094Y-124955100D01*
X81163906Y-124955100D01*
X81558974Y-125033684D01*
X81558974Y-125033684D01*
G37*
G36*
X58294060Y-126474064D02*
G01*
X58445527Y-126504193D01*
X58659545Y-126592842D01*
X58659546Y-126592843D01*
X58852154Y-126721539D01*
X59015961Y-126885346D01*
X59031630Y-126908797D01*
X59144658Y-127077955D01*
X59233307Y-127291973D01*
X59278500Y-127519174D01*
X59278500Y-127750826D01*
X59233307Y-127978027D01*
X59144658Y-128192045D01*
X59144657Y-128192046D01*
X59015961Y-128384654D01*
X58852154Y-128548461D01*
X58795040Y-128586623D01*
X58659545Y-128677158D01*
X58445527Y-128765807D01*
X58294060Y-128795936D01*
X58218327Y-128811000D01*
X57986673Y-128811000D01*
X57910940Y-128795936D01*
X57759473Y-128765807D01*
X57545455Y-128677158D01*
X57409960Y-128586623D01*
X57352846Y-128548461D01*
X57189039Y-128384654D01*
X57060343Y-128192046D01*
X57060342Y-128192045D01*
X56971693Y-127978027D01*
X56926500Y-127750826D01*
X56926500Y-127519174D01*
X56971693Y-127291973D01*
X57060342Y-127077955D01*
X57173370Y-126908797D01*
X57189039Y-126885346D01*
X57352846Y-126721539D01*
X57545454Y-126592843D01*
X57545455Y-126592842D01*
X57759473Y-126504193D01*
X57910940Y-126474064D01*
X57986673Y-126459000D01*
X58218327Y-126459000D01*
X58294060Y-126474064D01*
X58294060Y-126474064D01*
G37*
G36*
X181562604Y-126109585D02*
G01*
X181731126Y-126179389D01*
X181882791Y-126280728D01*
X182011772Y-126409709D01*
X182113111Y-126561374D01*
X182182915Y-126729896D01*
X182218500Y-126908797D01*
X182218500Y-127091203D01*
X182182915Y-127270104D01*
X182113111Y-127438626D01*
X182011772Y-127590291D01*
X181882791Y-127719272D01*
X181731126Y-127820611D01*
X181562604Y-127890415D01*
X181383703Y-127926000D01*
X181201297Y-127926000D01*
X181022396Y-127890415D01*
X180853874Y-127820611D01*
X180702209Y-127719272D01*
X180573228Y-127590291D01*
X180471889Y-127438626D01*
X180402085Y-127270104D01*
X180366500Y-127091203D01*
X180366500Y-126908797D01*
X180402085Y-126729896D01*
X180471889Y-126561374D01*
X180573228Y-126409709D01*
X180702209Y-126280728D01*
X180853874Y-126179389D01*
X181022396Y-126109585D01*
X181201297Y-126074000D01*
X181383703Y-126074000D01*
X181562604Y-126109585D01*
X181562604Y-126109585D01*
G37*
G36*
X76152604Y-126109585D02*
G01*
X76321126Y-126179389D01*
X76472791Y-126280728D01*
X76601772Y-126409709D01*
X76703111Y-126561374D01*
X76772915Y-126729896D01*
X76808500Y-126908797D01*
X76808500Y-127091203D01*
X76772915Y-127270104D01*
X76703111Y-127438626D01*
X76601772Y-127590291D01*
X76472791Y-127719272D01*
X76321126Y-127820611D01*
X76152604Y-127890415D01*
X75973703Y-127926000D01*
X75791297Y-127926000D01*
X75612396Y-127890415D01*
X75443874Y-127820611D01*
X75292209Y-127719272D01*
X75163228Y-127590291D01*
X75061889Y-127438626D01*
X74992085Y-127270104D01*
X74956500Y-127091203D01*
X74956500Y-126908797D01*
X74992085Y-126729896D01*
X75061889Y-126561374D01*
X75163228Y-126409709D01*
X75292209Y-126280728D01*
X75443874Y-126179389D01*
X75612396Y-126109585D01*
X75791297Y-126074000D01*
X75973703Y-126074000D01*
X76152604Y-126109585D01*
X76152604Y-126109585D01*
G37*
G36*
X171402604Y-126109585D02*
G01*
X171571126Y-126179389D01*
X171722791Y-126280728D01*
X171851772Y-126409709D01*
X171953111Y-126561374D01*
X172022915Y-126729896D01*
X172058500Y-126908797D01*
X172058500Y-127091203D01*
X172022915Y-127270104D01*
X171953111Y-127438626D01*
X171851772Y-127590291D01*
X171722791Y-127719272D01*
X171571126Y-127820611D01*
X171402604Y-127890415D01*
X171223703Y-127926000D01*
X171041297Y-127926000D01*
X170862396Y-127890415D01*
X170693874Y-127820611D01*
X170542209Y-127719272D01*
X170413228Y-127590291D01*
X170311889Y-127438626D01*
X170242085Y-127270104D01*
X170206500Y-127091203D01*
X170206500Y-126908797D01*
X170242085Y-126729896D01*
X170311889Y-126561374D01*
X170413228Y-126409709D01*
X170542209Y-126280728D01*
X170693874Y-126179389D01*
X170862396Y-126109585D01*
X171041297Y-126074000D01*
X171223703Y-126074000D01*
X171402604Y-126109585D01*
X171402604Y-126109585D01*
G37*
G36*
X86312604Y-126109585D02*
G01*
X86481126Y-126179389D01*
X86632791Y-126280728D01*
X86761772Y-126409709D01*
X86863111Y-126561374D01*
X86932915Y-126729896D01*
X86968500Y-126908797D01*
X86968500Y-127091203D01*
X86932915Y-127270104D01*
X86863111Y-127438626D01*
X86761772Y-127590291D01*
X86632791Y-127719272D01*
X86481126Y-127820611D01*
X86312604Y-127890415D01*
X86133703Y-127926000D01*
X85951297Y-127926000D01*
X85772396Y-127890415D01*
X85603874Y-127820611D01*
X85452209Y-127719272D01*
X85323228Y-127590291D01*
X85221889Y-127438626D01*
X85152085Y-127270104D01*
X85116500Y-127091203D01*
X85116500Y-126908797D01*
X85152085Y-126729896D01*
X85221889Y-126561374D01*
X85323228Y-126409709D01*
X85452209Y-126280728D01*
X85603874Y-126179389D01*
X85772396Y-126109585D01*
X85951297Y-126074000D01*
X86133703Y-126074000D01*
X86312604Y-126109585D01*
X86312604Y-126109585D01*
G37*
G36*
X64644060Y-123934064D02*
G01*
X64795527Y-123964193D01*
X65009545Y-124052842D01*
X65009546Y-124052843D01*
X65202154Y-124181539D01*
X65365961Y-124345346D01*
X65451758Y-124473751D01*
X65494658Y-124537955D01*
X65583307Y-124751973D01*
X65593462Y-124803025D01*
X65623712Y-124955100D01*
X65628500Y-124979174D01*
X65628500Y-125210826D01*
X65583307Y-125438027D01*
X65494658Y-125652045D01*
X65494657Y-125652046D01*
X65365961Y-125844654D01*
X65202154Y-126008461D01*
X65073749Y-126094258D01*
X65009545Y-126137158D01*
X64795527Y-126225807D01*
X64644060Y-126255936D01*
X64568327Y-126271000D01*
X64336673Y-126271000D01*
X64260940Y-126255936D01*
X64109473Y-126225807D01*
X63895455Y-126137158D01*
X63831251Y-126094258D01*
X63702846Y-126008461D01*
X63539039Y-125844654D01*
X63410343Y-125652046D01*
X63410342Y-125652045D01*
X63321693Y-125438027D01*
X63276500Y-125210826D01*
X63276500Y-124979174D01*
X63281289Y-124955100D01*
X63311538Y-124803025D01*
X63321693Y-124751973D01*
X63410342Y-124537955D01*
X63453242Y-124473751D01*
X63539039Y-124345346D01*
X63702846Y-124181539D01*
X63895454Y-124052843D01*
X63895455Y-124052842D01*
X64109473Y-123964193D01*
X64260940Y-123934064D01*
X64336673Y-123919000D01*
X64568327Y-123919000D01*
X64644060Y-123934064D01*
X64644060Y-123934064D01*
G37*
G36*
X157758974Y-121858684D02*
G01*
X157976974Y-121948983D01*
X158131123Y-122012833D01*
X158466048Y-122236623D01*
X158750877Y-122521452D01*
X158974667Y-122856377D01*
X159007062Y-122934586D01*
X159128816Y-123228526D01*
X159207400Y-123623594D01*
X159207400Y-124026406D01*
X159128816Y-124421474D01*
X159077951Y-124544272D01*
X158974667Y-124793623D01*
X158750877Y-125128548D01*
X158466048Y-125413377D01*
X158131123Y-125637167D01*
X157987996Y-125696452D01*
X157758974Y-125791316D01*
X157363906Y-125869900D01*
X156961094Y-125869900D01*
X156566026Y-125791316D01*
X156337004Y-125696452D01*
X156193877Y-125637167D01*
X155858952Y-125413377D01*
X155574123Y-125128548D01*
X155350333Y-124793623D01*
X155247049Y-124544272D01*
X155196184Y-124421474D01*
X155117600Y-124026406D01*
X155117600Y-123623594D01*
X155196184Y-123228526D01*
X155317938Y-122934586D01*
X155350333Y-122856377D01*
X155574123Y-122521452D01*
X155858952Y-122236623D01*
X156193877Y-122012833D01*
X156348026Y-121948983D01*
X156566026Y-121858684D01*
X156961094Y-121780100D01*
X157363906Y-121780100D01*
X157758974Y-121858684D01*
X157758974Y-121858684D01*
G37*
G36*
X77344060Y-123299064D02*
G01*
X77495527Y-123329193D01*
X77709545Y-123417842D01*
X77709546Y-123417843D01*
X77902154Y-123546539D01*
X78065961Y-123710346D01*
X78081630Y-123733797D01*
X78194658Y-123902955D01*
X78283307Y-124116973D01*
X78328500Y-124344174D01*
X78328500Y-124575826D01*
X78283307Y-124803027D01*
X78194658Y-125017045D01*
X78194657Y-125017046D01*
X78065961Y-125209654D01*
X77902154Y-125373461D01*
X77773749Y-125459258D01*
X77709545Y-125502158D01*
X77495527Y-125590807D01*
X77344060Y-125620936D01*
X77268327Y-125636000D01*
X77036673Y-125636000D01*
X76960940Y-125620936D01*
X76809473Y-125590807D01*
X76595455Y-125502158D01*
X76531251Y-125459258D01*
X76402846Y-125373461D01*
X76239039Y-125209654D01*
X76110343Y-125017046D01*
X76110342Y-125017045D01*
X76021693Y-124803027D01*
X75976500Y-124575826D01*
X75976500Y-124344174D01*
X76021693Y-124116973D01*
X76110342Y-123902955D01*
X76223370Y-123733797D01*
X76239039Y-123710346D01*
X76402846Y-123546539D01*
X76595454Y-123417843D01*
X76595455Y-123417842D01*
X76809473Y-123329193D01*
X76960940Y-123299064D01*
X77036673Y-123284000D01*
X77268327Y-123284000D01*
X77344060Y-123299064D01*
X77344060Y-123299064D01*
G37*
G36*
X172594060Y-123299064D02*
G01*
X172745527Y-123329193D01*
X172959545Y-123417842D01*
X172959546Y-123417843D01*
X173152154Y-123546539D01*
X173315961Y-123710346D01*
X173331630Y-123733797D01*
X173444658Y-123902955D01*
X173533307Y-124116973D01*
X173578500Y-124344174D01*
X173578500Y-124575826D01*
X173533307Y-124803027D01*
X173444658Y-125017045D01*
X173444657Y-125017046D01*
X173315961Y-125209654D01*
X173152154Y-125373461D01*
X173023749Y-125459258D01*
X172959545Y-125502158D01*
X172745527Y-125590807D01*
X172594060Y-125620936D01*
X172518327Y-125636000D01*
X172286673Y-125636000D01*
X172210940Y-125620936D01*
X172059473Y-125590807D01*
X171845455Y-125502158D01*
X171781251Y-125459258D01*
X171652846Y-125373461D01*
X171489039Y-125209654D01*
X171360343Y-125017046D01*
X171360342Y-125017045D01*
X171271693Y-124803027D01*
X171226500Y-124575826D01*
X171226500Y-124344174D01*
X171271693Y-124116973D01*
X171360342Y-123902955D01*
X171473370Y-123733797D01*
X171489039Y-123710346D01*
X171652846Y-123546539D01*
X171845454Y-123417843D01*
X171845455Y-123417842D01*
X172059473Y-123329193D01*
X172210940Y-123299064D01*
X172286673Y-123284000D01*
X172518327Y-123284000D01*
X172594060Y-123299064D01*
X172594060Y-123299064D01*
G37*
G36*
X162512604Y-122934585D02*
G01*
X162681126Y-123004389D01*
X162832791Y-123105728D01*
X162961772Y-123234709D01*
X163063111Y-123386374D01*
X163132915Y-123554896D01*
X163168500Y-123733797D01*
X163168500Y-123916203D01*
X163132915Y-124095104D01*
X163063111Y-124263626D01*
X162961772Y-124415291D01*
X162832791Y-124544272D01*
X162681126Y-124645611D01*
X162512604Y-124715415D01*
X162333703Y-124751000D01*
X162151297Y-124751000D01*
X161972396Y-124715415D01*
X161803874Y-124645611D01*
X161652209Y-124544272D01*
X161523228Y-124415291D01*
X161421889Y-124263626D01*
X161352085Y-124095104D01*
X161316500Y-123916203D01*
X161316500Y-123733797D01*
X161352085Y-123554896D01*
X161421889Y-123386374D01*
X161523228Y-123234709D01*
X161652209Y-123105728D01*
X161803874Y-123004389D01*
X161972396Y-122934585D01*
X162151297Y-122899000D01*
X162333703Y-122899000D01*
X162512604Y-122934585D01*
X162512604Y-122934585D01*
G37*
G36*
X152352604Y-122934585D02*
G01*
X152521126Y-123004389D01*
X152672791Y-123105728D01*
X152801772Y-123234709D01*
X152903111Y-123386374D01*
X152972915Y-123554896D01*
X153008500Y-123733797D01*
X153008500Y-123916203D01*
X152972915Y-124095104D01*
X152903111Y-124263626D01*
X152801772Y-124415291D01*
X152672791Y-124544272D01*
X152521126Y-124645611D01*
X152352604Y-124715415D01*
X152173703Y-124751000D01*
X151991297Y-124751000D01*
X151812396Y-124715415D01*
X151643874Y-124645611D01*
X151492209Y-124544272D01*
X151363228Y-124415291D01*
X151261889Y-124263626D01*
X151192085Y-124095104D01*
X151156500Y-123916203D01*
X151156500Y-123733797D01*
X151192085Y-123554896D01*
X151261889Y-123386374D01*
X151363228Y-123234709D01*
X151492209Y-123105728D01*
X151643874Y-123004389D01*
X151812396Y-122934585D01*
X151991297Y-122899000D01*
X152173703Y-122899000D01*
X152352604Y-122934585D01*
X152352604Y-122934585D01*
G37*
G36*
X83694060Y-120759064D02*
G01*
X83845527Y-120789193D01*
X84059545Y-120877842D01*
X84059546Y-120877843D01*
X84252154Y-121006539D01*
X84415961Y-121170346D01*
X84501758Y-121298751D01*
X84544658Y-121362955D01*
X84633307Y-121576973D01*
X84643462Y-121628025D01*
X84673712Y-121780100D01*
X84678500Y-121804174D01*
X84678500Y-122035826D01*
X84633307Y-122263027D01*
X84544658Y-122477045D01*
X84544657Y-122477046D01*
X84415961Y-122669654D01*
X84252154Y-122833461D01*
X84123749Y-122919258D01*
X84059545Y-122962158D01*
X83845527Y-123050807D01*
X83694060Y-123080936D01*
X83618327Y-123096000D01*
X83386673Y-123096000D01*
X83310940Y-123080936D01*
X83159473Y-123050807D01*
X82945455Y-122962158D01*
X82881251Y-122919258D01*
X82752846Y-122833461D01*
X82589039Y-122669654D01*
X82460343Y-122477046D01*
X82460342Y-122477045D01*
X82371693Y-122263027D01*
X82326500Y-122035826D01*
X82326500Y-121804174D01*
X82331289Y-121780100D01*
X82361538Y-121628025D01*
X82371693Y-121576973D01*
X82460342Y-121362955D01*
X82503242Y-121298751D01*
X82589039Y-121170346D01*
X82752846Y-121006539D01*
X82945454Y-120877843D01*
X82945455Y-120877842D01*
X83159473Y-120789193D01*
X83310940Y-120759064D01*
X83386673Y-120744000D01*
X83618327Y-120744000D01*
X83694060Y-120759064D01*
X83694060Y-120759064D01*
G37*
G36*
X178944060Y-120759064D02*
G01*
X179095527Y-120789193D01*
X179309545Y-120877842D01*
X179309546Y-120877843D01*
X179502154Y-121006539D01*
X179665961Y-121170346D01*
X179751758Y-121298751D01*
X179794658Y-121362955D01*
X179883307Y-121576973D01*
X179893462Y-121628025D01*
X179923712Y-121780100D01*
X179928500Y-121804174D01*
X179928500Y-122035826D01*
X179883307Y-122263027D01*
X179794658Y-122477045D01*
X179794657Y-122477046D01*
X179665961Y-122669654D01*
X179502154Y-122833461D01*
X179373749Y-122919258D01*
X179309545Y-122962158D01*
X179095527Y-123050807D01*
X178944060Y-123080936D01*
X178868327Y-123096000D01*
X178636673Y-123096000D01*
X178560940Y-123080936D01*
X178409473Y-123050807D01*
X178195455Y-122962158D01*
X178131251Y-122919258D01*
X178002846Y-122833461D01*
X177839039Y-122669654D01*
X177710343Y-122477046D01*
X177710342Y-122477045D01*
X177621693Y-122263027D01*
X177576500Y-122035826D01*
X177576500Y-121804174D01*
X177581289Y-121780100D01*
X177611538Y-121628025D01*
X177621693Y-121576973D01*
X177710342Y-121362955D01*
X177753242Y-121298751D01*
X177839039Y-121170346D01*
X178002846Y-121006539D01*
X178195454Y-120877843D01*
X178195455Y-120877842D01*
X178409473Y-120789193D01*
X178560940Y-120759064D01*
X178636673Y-120744000D01*
X178868327Y-120744000D01*
X178944060Y-120759064D01*
X178944060Y-120759064D01*
G37*
G36*
X100608974Y-118683684D02*
G01*
X100826974Y-118773983D01*
X100981123Y-118837833D01*
X101316048Y-119061623D01*
X101600877Y-119346452D01*
X101824667Y-119681377D01*
X101857062Y-119759586D01*
X101978816Y-120053526D01*
X102057400Y-120448594D01*
X102057400Y-120851406D01*
X101978816Y-121246474D01*
X101927951Y-121369272D01*
X101824667Y-121618623D01*
X101600877Y-121953548D01*
X101316048Y-122238377D01*
X100981123Y-122462167D01*
X100837996Y-122521452D01*
X100608974Y-122616316D01*
X100213906Y-122694900D01*
X99811094Y-122694900D01*
X99416026Y-122616316D01*
X99187004Y-122521452D01*
X99043877Y-122462167D01*
X98708952Y-122238377D01*
X98424123Y-121953548D01*
X98200333Y-121618623D01*
X98097049Y-121369272D01*
X98046184Y-121246474D01*
X97967600Y-120851406D01*
X97967600Y-120448594D01*
X98046184Y-120053526D01*
X98167938Y-119759586D01*
X98200333Y-119681377D01*
X98424123Y-119346452D01*
X98708952Y-119061623D01*
X99043877Y-118837833D01*
X99198026Y-118773983D01*
X99416026Y-118683684D01*
X99811094Y-118605100D01*
X100213906Y-118605100D01*
X100608974Y-118683684D01*
X100608974Y-118683684D01*
G37*
G36*
X138708974Y-118683684D02*
G01*
X138926974Y-118773983D01*
X139081123Y-118837833D01*
X139416048Y-119061623D01*
X139700877Y-119346452D01*
X139924667Y-119681377D01*
X139957062Y-119759586D01*
X140078816Y-120053526D01*
X140157400Y-120448594D01*
X140157400Y-120851406D01*
X140078816Y-121246474D01*
X140027951Y-121369272D01*
X139924667Y-121618623D01*
X139700877Y-121953548D01*
X139416048Y-122238377D01*
X139081123Y-122462167D01*
X138937996Y-122521452D01*
X138708974Y-122616316D01*
X138313906Y-122694900D01*
X137911094Y-122694900D01*
X137516026Y-122616316D01*
X137287004Y-122521452D01*
X137143877Y-122462167D01*
X136808952Y-122238377D01*
X136524123Y-121953548D01*
X136300333Y-121618623D01*
X136197049Y-121369272D01*
X136146184Y-121246474D01*
X136067600Y-120851406D01*
X136067600Y-120448594D01*
X136146184Y-120053526D01*
X136267938Y-119759586D01*
X136300333Y-119681377D01*
X136524123Y-119346452D01*
X136808952Y-119061623D01*
X137143877Y-118837833D01*
X137298026Y-118773983D01*
X137516026Y-118683684D01*
X137911094Y-118605100D01*
X138313906Y-118605100D01*
X138708974Y-118683684D01*
X138708974Y-118683684D01*
G37*
G36*
X153544060Y-120124064D02*
G01*
X153695527Y-120154193D01*
X153909545Y-120242842D01*
X153909546Y-120242843D01*
X154102154Y-120371539D01*
X154265961Y-120535346D01*
X154281630Y-120558797D01*
X154394658Y-120727955D01*
X154483307Y-120941973D01*
X154528500Y-121169174D01*
X154528500Y-121400826D01*
X154483307Y-121628027D01*
X154394658Y-121842045D01*
X154394657Y-121842046D01*
X154265961Y-122034654D01*
X154102154Y-122198461D01*
X153973749Y-122284258D01*
X153909545Y-122327158D01*
X153695527Y-122415807D01*
X153544060Y-122445936D01*
X153468327Y-122461000D01*
X153236673Y-122461000D01*
X153160940Y-122445936D01*
X153009473Y-122415807D01*
X152795455Y-122327158D01*
X152731251Y-122284258D01*
X152602846Y-122198461D01*
X152439039Y-122034654D01*
X152310343Y-121842046D01*
X152310342Y-121842045D01*
X152221693Y-121628027D01*
X152176500Y-121400826D01*
X152176500Y-121169174D01*
X152221693Y-120941973D01*
X152310342Y-120727955D01*
X152423370Y-120558797D01*
X152439039Y-120535346D01*
X152602846Y-120371539D01*
X152795454Y-120242843D01*
X152795455Y-120242842D01*
X153009473Y-120154193D01*
X153160940Y-120124064D01*
X153236673Y-120109000D01*
X153468327Y-120109000D01*
X153544060Y-120124064D01*
X153544060Y-120124064D01*
G37*
G36*
X95202604Y-119759585D02*
G01*
X95371126Y-119829389D01*
X95522791Y-119930728D01*
X95651772Y-120059709D01*
X95753111Y-120211374D01*
X95822915Y-120379896D01*
X95858500Y-120558797D01*
X95858500Y-120741203D01*
X95822915Y-120920104D01*
X95753111Y-121088626D01*
X95651772Y-121240291D01*
X95522791Y-121369272D01*
X95371126Y-121470611D01*
X95202604Y-121540415D01*
X95023703Y-121576000D01*
X94841297Y-121576000D01*
X94662396Y-121540415D01*
X94493874Y-121470611D01*
X94342209Y-121369272D01*
X94213228Y-121240291D01*
X94111889Y-121088626D01*
X94042085Y-120920104D01*
X94006500Y-120741203D01*
X94006500Y-120558797D01*
X94042085Y-120379896D01*
X94111889Y-120211374D01*
X94213228Y-120059709D01*
X94342209Y-119930728D01*
X94493874Y-119829389D01*
X94662396Y-119759585D01*
X94841297Y-119724000D01*
X95023703Y-119724000D01*
X95202604Y-119759585D01*
X95202604Y-119759585D01*
G37*
G36*
X105362604Y-119759585D02*
G01*
X105531126Y-119829389D01*
X105682791Y-119930728D01*
X105811772Y-120059709D01*
X105913111Y-120211374D01*
X105982915Y-120379896D01*
X106018500Y-120558797D01*
X106018500Y-120741203D01*
X105982915Y-120920104D01*
X105913111Y-121088626D01*
X105811772Y-121240291D01*
X105682791Y-121369272D01*
X105531126Y-121470611D01*
X105362604Y-121540415D01*
X105183703Y-121576000D01*
X105001297Y-121576000D01*
X104822396Y-121540415D01*
X104653874Y-121470611D01*
X104502209Y-121369272D01*
X104373228Y-121240291D01*
X104271889Y-121088626D01*
X104202085Y-120920104D01*
X104166500Y-120741203D01*
X104166500Y-120558797D01*
X104202085Y-120379896D01*
X104271889Y-120211374D01*
X104373228Y-120059709D01*
X104502209Y-119930728D01*
X104653874Y-119829389D01*
X104822396Y-119759585D01*
X105001297Y-119724000D01*
X105183703Y-119724000D01*
X105362604Y-119759585D01*
X105362604Y-119759585D01*
G37*
G36*
X133302604Y-119759585D02*
G01*
X133471126Y-119829389D01*
X133622791Y-119930728D01*
X133751772Y-120059709D01*
X133853111Y-120211374D01*
X133922915Y-120379896D01*
X133958500Y-120558797D01*
X133958500Y-120741203D01*
X133922915Y-120920104D01*
X133853111Y-121088626D01*
X133751772Y-121240291D01*
X133622791Y-121369272D01*
X133471126Y-121470611D01*
X133302604Y-121540415D01*
X133123703Y-121576000D01*
X132941297Y-121576000D01*
X132762396Y-121540415D01*
X132593874Y-121470611D01*
X132442209Y-121369272D01*
X132313228Y-121240291D01*
X132211889Y-121088626D01*
X132142085Y-120920104D01*
X132106500Y-120741203D01*
X132106500Y-120558797D01*
X132142085Y-120379896D01*
X132211889Y-120211374D01*
X132313228Y-120059709D01*
X132442209Y-119930728D01*
X132593874Y-119829389D01*
X132762396Y-119759585D01*
X132941297Y-119724000D01*
X133123703Y-119724000D01*
X133302604Y-119759585D01*
X133302604Y-119759585D01*
G37*
G36*
X143462604Y-119759585D02*
G01*
X143631126Y-119829389D01*
X143782791Y-119930728D01*
X143911772Y-120059709D01*
X144013111Y-120211374D01*
X144082915Y-120379896D01*
X144118500Y-120558797D01*
X144118500Y-120741203D01*
X144082915Y-120920104D01*
X144013111Y-121088626D01*
X143911772Y-121240291D01*
X143782791Y-121369272D01*
X143631126Y-121470611D01*
X143462604Y-121540415D01*
X143283703Y-121576000D01*
X143101297Y-121576000D01*
X142922396Y-121540415D01*
X142753874Y-121470611D01*
X142602209Y-121369272D01*
X142473228Y-121240291D01*
X142371889Y-121088626D01*
X142302085Y-120920104D01*
X142266500Y-120741203D01*
X142266500Y-120558797D01*
X142302085Y-120379896D01*
X142371889Y-120211374D01*
X142473228Y-120059709D01*
X142602209Y-119930728D01*
X142753874Y-119829389D01*
X142922396Y-119759585D01*
X143101297Y-119724000D01*
X143283703Y-119724000D01*
X143462604Y-119759585D01*
X143462604Y-119759585D01*
G37*
G36*
X159894060Y-117584064D02*
G01*
X160045527Y-117614193D01*
X160259545Y-117702842D01*
X160259546Y-117702843D01*
X160452154Y-117831539D01*
X160615961Y-117995346D01*
X160701758Y-118123751D01*
X160744658Y-118187955D01*
X160833307Y-118401973D01*
X160843462Y-118453025D01*
X160873712Y-118605100D01*
X160878500Y-118629174D01*
X160878500Y-118860826D01*
X160833307Y-119088027D01*
X160744658Y-119302045D01*
X160744657Y-119302046D01*
X160615961Y-119494654D01*
X160452154Y-119658461D01*
X160323749Y-119744258D01*
X160259545Y-119787158D01*
X160045527Y-119875807D01*
X159894060Y-119905936D01*
X159818327Y-119921000D01*
X159586673Y-119921000D01*
X159510940Y-119905936D01*
X159359473Y-119875807D01*
X159145455Y-119787158D01*
X159081251Y-119744258D01*
X158952846Y-119658461D01*
X158789039Y-119494654D01*
X158660343Y-119302046D01*
X158660342Y-119302045D01*
X158571693Y-119088027D01*
X158526500Y-118860826D01*
X158526500Y-118629174D01*
X158531289Y-118605100D01*
X158561538Y-118453025D01*
X158571693Y-118401973D01*
X158660342Y-118187955D01*
X158703242Y-118123751D01*
X158789039Y-117995346D01*
X158952846Y-117831539D01*
X159145454Y-117702843D01*
X159145455Y-117702842D01*
X159359473Y-117614193D01*
X159510940Y-117584064D01*
X159586673Y-117569000D01*
X159818327Y-117569000D01*
X159894060Y-117584064D01*
X159894060Y-117584064D01*
G37*
G36*
X119658974Y-115508684D02*
G01*
X119876974Y-115598983D01*
X120031123Y-115662833D01*
X120366048Y-115886623D01*
X120650877Y-116171452D01*
X120874667Y-116506377D01*
X120907062Y-116584586D01*
X121028816Y-116878526D01*
X121107400Y-117273594D01*
X121107400Y-117676406D01*
X121028816Y-118071474D01*
X120977951Y-118194272D01*
X120874667Y-118443623D01*
X120650877Y-118778548D01*
X120366048Y-119063377D01*
X120031123Y-119287167D01*
X119887996Y-119346452D01*
X119658974Y-119441316D01*
X119263906Y-119519900D01*
X118861094Y-119519900D01*
X118466026Y-119441316D01*
X118237004Y-119346452D01*
X118093877Y-119287167D01*
X117758952Y-119063377D01*
X117474123Y-118778548D01*
X117250333Y-118443623D01*
X117147049Y-118194272D01*
X117096184Y-118071474D01*
X117017600Y-117676406D01*
X117017600Y-117273594D01*
X117096184Y-116878526D01*
X117217938Y-116584586D01*
X117250333Y-116506377D01*
X117474123Y-116171452D01*
X117758952Y-115886623D01*
X118093877Y-115662833D01*
X118248026Y-115598983D01*
X118466026Y-115508684D01*
X118861094Y-115430100D01*
X119263906Y-115430100D01*
X119658974Y-115508684D01*
X119658974Y-115508684D01*
G37*
G36*
X134494060Y-116949064D02*
G01*
X134645527Y-116979193D01*
X134859545Y-117067842D01*
X134859546Y-117067843D01*
X135052154Y-117196539D01*
X135215961Y-117360346D01*
X135231630Y-117383797D01*
X135344658Y-117552955D01*
X135433307Y-117766973D01*
X135478500Y-117994174D01*
X135478500Y-118225826D01*
X135433307Y-118453027D01*
X135344658Y-118667045D01*
X135344657Y-118667046D01*
X135215961Y-118859654D01*
X135052154Y-119023461D01*
X134923749Y-119109258D01*
X134859545Y-119152158D01*
X134645527Y-119240807D01*
X134494060Y-119270936D01*
X134418327Y-119286000D01*
X134186673Y-119286000D01*
X134110940Y-119270936D01*
X133959473Y-119240807D01*
X133745455Y-119152158D01*
X133681251Y-119109258D01*
X133552846Y-119023461D01*
X133389039Y-118859654D01*
X133260343Y-118667046D01*
X133260342Y-118667045D01*
X133171693Y-118453027D01*
X133126500Y-118225826D01*
X133126500Y-117994174D01*
X133171693Y-117766973D01*
X133260342Y-117552955D01*
X133373370Y-117383797D01*
X133389039Y-117360346D01*
X133552846Y-117196539D01*
X133745454Y-117067843D01*
X133745455Y-117067842D01*
X133959473Y-116979193D01*
X134110940Y-116949064D01*
X134186673Y-116934000D01*
X134418327Y-116934000D01*
X134494060Y-116949064D01*
X134494060Y-116949064D01*
G37*
G36*
X96394060Y-116949064D02*
G01*
X96545527Y-116979193D01*
X96759545Y-117067842D01*
X96759546Y-117067843D01*
X96952154Y-117196539D01*
X97115961Y-117360346D01*
X97131630Y-117383797D01*
X97244658Y-117552955D01*
X97333307Y-117766973D01*
X97378500Y-117994174D01*
X97378500Y-118225826D01*
X97333307Y-118453027D01*
X97244658Y-118667045D01*
X97244657Y-118667046D01*
X97115961Y-118859654D01*
X96952154Y-119023461D01*
X96823749Y-119109258D01*
X96759545Y-119152158D01*
X96545527Y-119240807D01*
X96394060Y-119270936D01*
X96318327Y-119286000D01*
X96086673Y-119286000D01*
X96010940Y-119270936D01*
X95859473Y-119240807D01*
X95645455Y-119152158D01*
X95581251Y-119109258D01*
X95452846Y-119023461D01*
X95289039Y-118859654D01*
X95160343Y-118667046D01*
X95160342Y-118667045D01*
X95071693Y-118453027D01*
X95026500Y-118225826D01*
X95026500Y-117994174D01*
X95071693Y-117766973D01*
X95160342Y-117552955D01*
X95273370Y-117383797D01*
X95289039Y-117360346D01*
X95452846Y-117196539D01*
X95645454Y-117067843D01*
X95645455Y-117067842D01*
X95859473Y-116979193D01*
X96010940Y-116949064D01*
X96086673Y-116934000D01*
X96318327Y-116934000D01*
X96394060Y-116949064D01*
X96394060Y-116949064D01*
G37*
G36*
X114252604Y-116584585D02*
G01*
X114421126Y-116654389D01*
X114572791Y-116755728D01*
X114701772Y-116884709D01*
X114803111Y-117036374D01*
X114872915Y-117204896D01*
X114908500Y-117383797D01*
X114908500Y-117566203D01*
X114872915Y-117745104D01*
X114803111Y-117913626D01*
X114701772Y-118065291D01*
X114572791Y-118194272D01*
X114421126Y-118295611D01*
X114252604Y-118365415D01*
X114073703Y-118401000D01*
X113891297Y-118401000D01*
X113712396Y-118365415D01*
X113543874Y-118295611D01*
X113392209Y-118194272D01*
X113263228Y-118065291D01*
X113161889Y-117913626D01*
X113092085Y-117745104D01*
X113056500Y-117566203D01*
X113056500Y-117383797D01*
X113092085Y-117204896D01*
X113161889Y-117036374D01*
X113263228Y-116884709D01*
X113392209Y-116755728D01*
X113543874Y-116654389D01*
X113712396Y-116584585D01*
X113891297Y-116549000D01*
X114073703Y-116549000D01*
X114252604Y-116584585D01*
X114252604Y-116584585D01*
G37*
G36*
X124412604Y-116584585D02*
G01*
X124581126Y-116654389D01*
X124732791Y-116755728D01*
X124861772Y-116884709D01*
X124963111Y-117036374D01*
X125032915Y-117204896D01*
X125068500Y-117383797D01*
X125068500Y-117566203D01*
X125032915Y-117745104D01*
X124963111Y-117913626D01*
X124861772Y-118065291D01*
X124732791Y-118194272D01*
X124581126Y-118295611D01*
X124412604Y-118365415D01*
X124233703Y-118401000D01*
X124051297Y-118401000D01*
X123872396Y-118365415D01*
X123703874Y-118295611D01*
X123552209Y-118194272D01*
X123423228Y-118065291D01*
X123321889Y-117913626D01*
X123252085Y-117745104D01*
X123216500Y-117566203D01*
X123216500Y-117383797D01*
X123252085Y-117204896D01*
X123321889Y-117036374D01*
X123423228Y-116884709D01*
X123552209Y-116755728D01*
X123703874Y-116654389D01*
X123872396Y-116584585D01*
X124051297Y-116549000D01*
X124233703Y-116549000D01*
X124412604Y-116584585D01*
X124412604Y-116584585D01*
G37*
G36*
X102744060Y-114409064D02*
G01*
X102895527Y-114439193D01*
X103109545Y-114527842D01*
X103109546Y-114527843D01*
X103302154Y-114656539D01*
X103465961Y-114820346D01*
X103551758Y-114948751D01*
X103594658Y-115012955D01*
X103683307Y-115226973D01*
X103683307Y-115226975D01*
X103723712Y-115430100D01*
X103728500Y-115454174D01*
X103728500Y-115685826D01*
X103683307Y-115913027D01*
X103594658Y-116127045D01*
X103594657Y-116127046D01*
X103465961Y-116319654D01*
X103302154Y-116483461D01*
X103173749Y-116569258D01*
X103109545Y-116612158D01*
X102895527Y-116700807D01*
X102744060Y-116730936D01*
X102668327Y-116746000D01*
X102436673Y-116746000D01*
X102360940Y-116730936D01*
X102209473Y-116700807D01*
X101995455Y-116612158D01*
X101931251Y-116569258D01*
X101802846Y-116483461D01*
X101639039Y-116319654D01*
X101510343Y-116127046D01*
X101510342Y-116127045D01*
X101421693Y-115913027D01*
X101376500Y-115685826D01*
X101376500Y-115454174D01*
X101381289Y-115430100D01*
X101421693Y-115226975D01*
X101421693Y-115226973D01*
X101510342Y-115012955D01*
X101553242Y-114948751D01*
X101639039Y-114820346D01*
X101802846Y-114656539D01*
X101995454Y-114527843D01*
X101995455Y-114527842D01*
X102209473Y-114439193D01*
X102360940Y-114409064D01*
X102436673Y-114394000D01*
X102668327Y-114394000D01*
X102744060Y-114409064D01*
X102744060Y-114409064D01*
G37*
G36*
X140844060Y-114409064D02*
G01*
X140995527Y-114439193D01*
X141209545Y-114527842D01*
X141209546Y-114527843D01*
X141402154Y-114656539D01*
X141565961Y-114820346D01*
X141651758Y-114948751D01*
X141694658Y-115012955D01*
X141783307Y-115226973D01*
X141783307Y-115226975D01*
X141823712Y-115430100D01*
X141828500Y-115454174D01*
X141828500Y-115685826D01*
X141783307Y-115913027D01*
X141694658Y-116127045D01*
X141694657Y-116127046D01*
X141565961Y-116319654D01*
X141402154Y-116483461D01*
X141273749Y-116569258D01*
X141209545Y-116612158D01*
X140995527Y-116700807D01*
X140844060Y-116730936D01*
X140768327Y-116746000D01*
X140536673Y-116746000D01*
X140460940Y-116730936D01*
X140309473Y-116700807D01*
X140095455Y-116612158D01*
X140031251Y-116569258D01*
X139902846Y-116483461D01*
X139739039Y-116319654D01*
X139610343Y-116127046D01*
X139610342Y-116127045D01*
X139521693Y-115913027D01*
X139476500Y-115685826D01*
X139476500Y-115454174D01*
X139481289Y-115430100D01*
X139521693Y-115226975D01*
X139521693Y-115226973D01*
X139610342Y-115012955D01*
X139653242Y-114948751D01*
X139739039Y-114820346D01*
X139902846Y-114656539D01*
X140095454Y-114527843D01*
X140095455Y-114527842D01*
X140309473Y-114439193D01*
X140460940Y-114409064D01*
X140536673Y-114394000D01*
X140768327Y-114394000D01*
X140844060Y-114409064D01*
X140844060Y-114409064D01*
G37*
G36*
X115444060Y-113774064D02*
G01*
X115595527Y-113804193D01*
X115809545Y-113892842D01*
X115809546Y-113892843D01*
X116002154Y-114021539D01*
X116165961Y-114185346D01*
X116251758Y-114313751D01*
X116294658Y-114377955D01*
X116383307Y-114591973D01*
X116428500Y-114819174D01*
X116428500Y-115050826D01*
X116383307Y-115278027D01*
X116294658Y-115492045D01*
X116294657Y-115492046D01*
X116165961Y-115684654D01*
X116002154Y-115848461D01*
X115873749Y-115934258D01*
X115809545Y-115977158D01*
X115595527Y-116065807D01*
X115444060Y-116095936D01*
X115368327Y-116111000D01*
X115136673Y-116111000D01*
X115060940Y-116095936D01*
X114909473Y-116065807D01*
X114695455Y-115977158D01*
X114631251Y-115934258D01*
X114502846Y-115848461D01*
X114339039Y-115684654D01*
X114210343Y-115492046D01*
X114210342Y-115492045D01*
X114121693Y-115278027D01*
X114076500Y-115050826D01*
X114076500Y-114819174D01*
X114121693Y-114591973D01*
X114210342Y-114377955D01*
X114253242Y-114313751D01*
X114339039Y-114185346D01*
X114502846Y-114021539D01*
X114695454Y-113892843D01*
X114695455Y-113892842D01*
X114909473Y-113804193D01*
X115060940Y-113774064D01*
X115136673Y-113759000D01*
X115368327Y-113759000D01*
X115444060Y-113774064D01*
X115444060Y-113774064D01*
G37*
G36*
X121794060Y-111234064D02*
G01*
X121945527Y-111264193D01*
X122159545Y-111352842D01*
X122159546Y-111352843D01*
X122352154Y-111481539D01*
X122515961Y-111645346D01*
X122601758Y-111773751D01*
X122644658Y-111837955D01*
X122733307Y-112051973D01*
X122778500Y-112279174D01*
X122778500Y-112510826D01*
X122733307Y-112738027D01*
X122644658Y-112952045D01*
X122644657Y-112952046D01*
X122515961Y-113144654D01*
X122352154Y-113308461D01*
X122223749Y-113394258D01*
X122159545Y-113437158D01*
X121945527Y-113525807D01*
X121794060Y-113555936D01*
X121718327Y-113571000D01*
X121486673Y-113571000D01*
X121410940Y-113555936D01*
X121259473Y-113525807D01*
X121045455Y-113437158D01*
X120981251Y-113394258D01*
X120852846Y-113308461D01*
X120689039Y-113144654D01*
X120560343Y-112952046D01*
X120560342Y-112952045D01*
X120471693Y-112738027D01*
X120426500Y-112510826D01*
X120426500Y-112279174D01*
X120471693Y-112051973D01*
X120560342Y-111837955D01*
X120603242Y-111773751D01*
X120689039Y-111645346D01*
X120852846Y-111481539D01*
X121045454Y-111352843D01*
X121045455Y-111352842D01*
X121259473Y-111264193D01*
X121410940Y-111234064D01*
X121486673Y-111219000D01*
X121718327Y-111219000D01*
X121794060Y-111234064D01*
X121794060Y-111234064D01*
G37*
G36*
X62508974Y-109158684D02*
G01*
X62726974Y-109248983D01*
X62881123Y-109312833D01*
X63216048Y-109536623D01*
X63500877Y-109821452D01*
X63724667Y-110156377D01*
X63757062Y-110234586D01*
X63878816Y-110528526D01*
X63957400Y-110923594D01*
X63957400Y-111326406D01*
X63878816Y-111721474D01*
X63827951Y-111844272D01*
X63724667Y-112093623D01*
X63500877Y-112428548D01*
X63216048Y-112713377D01*
X62881123Y-112937167D01*
X62726974Y-113001017D01*
X62508974Y-113091316D01*
X62113906Y-113169900D01*
X61711094Y-113169900D01*
X61316026Y-113091316D01*
X61098026Y-113001017D01*
X60943877Y-112937167D01*
X60608952Y-112713377D01*
X60324123Y-112428548D01*
X60100333Y-112093623D01*
X59997049Y-111844272D01*
X59946184Y-111721474D01*
X59867600Y-111326406D01*
X59867600Y-110923594D01*
X59946184Y-110528526D01*
X60067938Y-110234586D01*
X60100333Y-110156377D01*
X60324123Y-109821452D01*
X60608952Y-109536623D01*
X60943877Y-109312833D01*
X61098026Y-109248983D01*
X61316026Y-109158684D01*
X61711094Y-109080100D01*
X62113906Y-109080100D01*
X62508974Y-109158684D01*
X62508974Y-109158684D01*
G37*
G36*
X67262604Y-110234585D02*
G01*
X67431126Y-110304389D01*
X67582791Y-110405728D01*
X67711772Y-110534709D01*
X67813111Y-110686374D01*
X67882915Y-110854896D01*
X67918500Y-111033797D01*
X67918500Y-111216203D01*
X67882915Y-111395104D01*
X67813111Y-111563626D01*
X67711772Y-111715291D01*
X67582791Y-111844272D01*
X67431126Y-111945611D01*
X67262604Y-112015415D01*
X67083703Y-112051000D01*
X66901297Y-112051000D01*
X66722396Y-112015415D01*
X66553874Y-111945611D01*
X66402209Y-111844272D01*
X66273228Y-111715291D01*
X66171889Y-111563626D01*
X66102085Y-111395104D01*
X66066500Y-111216203D01*
X66066500Y-111033797D01*
X66102085Y-110854896D01*
X66171889Y-110686374D01*
X66273228Y-110534709D01*
X66402209Y-110405728D01*
X66553874Y-110304389D01*
X66722396Y-110234585D01*
X66901297Y-110199000D01*
X67083703Y-110199000D01*
X67262604Y-110234585D01*
X67262604Y-110234585D01*
G37*
G36*
X57102604Y-110234585D02*
G01*
X57271126Y-110304389D01*
X57422791Y-110405728D01*
X57551772Y-110534709D01*
X57653111Y-110686374D01*
X57722915Y-110854896D01*
X57758500Y-111033797D01*
X57758500Y-111216203D01*
X57722915Y-111395104D01*
X57653111Y-111563626D01*
X57551772Y-111715291D01*
X57422791Y-111844272D01*
X57271126Y-111945611D01*
X57102604Y-112015415D01*
X56923703Y-112051000D01*
X56741297Y-112051000D01*
X56562396Y-112015415D01*
X56393874Y-111945611D01*
X56242209Y-111844272D01*
X56113228Y-111715291D01*
X56011889Y-111563626D01*
X55942085Y-111395104D01*
X55906500Y-111216203D01*
X55906500Y-111033797D01*
X55942085Y-110854896D01*
X56011889Y-110686374D01*
X56113228Y-110534709D01*
X56242209Y-110405728D01*
X56393874Y-110304389D01*
X56562396Y-110234585D01*
X56741297Y-110199000D01*
X56923703Y-110199000D01*
X57102604Y-110234585D01*
X57102604Y-110234585D01*
G37*
G36*
X176808974Y-105983684D02*
G01*
X177026974Y-106073983D01*
X177181123Y-106137833D01*
X177516048Y-106361623D01*
X177800877Y-106646452D01*
X178024667Y-106981377D01*
X178057062Y-107059586D01*
X178178816Y-107353526D01*
X178257400Y-107748594D01*
X178257400Y-108151406D01*
X178178816Y-108546474D01*
X178127951Y-108669272D01*
X178024667Y-108918623D01*
X177800877Y-109253548D01*
X177516048Y-109538377D01*
X177181123Y-109762167D01*
X177037996Y-109821452D01*
X176808974Y-109916316D01*
X176413906Y-109994900D01*
X176011094Y-109994900D01*
X175616026Y-109916316D01*
X175387004Y-109821452D01*
X175243877Y-109762167D01*
X174908952Y-109538377D01*
X174624123Y-109253548D01*
X174400333Y-108918623D01*
X174297049Y-108669272D01*
X174246184Y-108546474D01*
X174167600Y-108151406D01*
X174167600Y-107748594D01*
X174246184Y-107353526D01*
X174367938Y-107059586D01*
X174400333Y-106981377D01*
X174624123Y-106646452D01*
X174908952Y-106361623D01*
X175243877Y-106137833D01*
X175398026Y-106073983D01*
X175616026Y-105983684D01*
X176011094Y-105905100D01*
X176413906Y-105905100D01*
X176808974Y-105983684D01*
X176808974Y-105983684D01*
G37*
G36*
X81558974Y-105983684D02*
G01*
X81776974Y-106073983D01*
X81931123Y-106137833D01*
X82266048Y-106361623D01*
X82550877Y-106646452D01*
X82774667Y-106981377D01*
X82807062Y-107059586D01*
X82928816Y-107353526D01*
X83007400Y-107748594D01*
X83007400Y-108151406D01*
X82928816Y-108546474D01*
X82877951Y-108669272D01*
X82774667Y-108918623D01*
X82550877Y-109253548D01*
X82266048Y-109538377D01*
X81931123Y-109762167D01*
X81787996Y-109821452D01*
X81558974Y-109916316D01*
X81163906Y-109994900D01*
X80761094Y-109994900D01*
X80366026Y-109916316D01*
X80137004Y-109821452D01*
X79993877Y-109762167D01*
X79658952Y-109538377D01*
X79374123Y-109253548D01*
X79150333Y-108918623D01*
X79047049Y-108669272D01*
X78996184Y-108546474D01*
X78917600Y-108151406D01*
X78917600Y-107748594D01*
X78996184Y-107353526D01*
X79117938Y-107059586D01*
X79150333Y-106981377D01*
X79374123Y-106646452D01*
X79658952Y-106361623D01*
X79993877Y-106137833D01*
X80148026Y-106073983D01*
X80366026Y-105983684D01*
X80761094Y-105905100D01*
X81163906Y-105905100D01*
X81558974Y-105983684D01*
X81558974Y-105983684D01*
G37*
G36*
X58294060Y-107424064D02*
G01*
X58445527Y-107454193D01*
X58659545Y-107542842D01*
X58659546Y-107542843D01*
X58852154Y-107671539D01*
X59015961Y-107835346D01*
X59031630Y-107858797D01*
X59144658Y-108027955D01*
X59233307Y-108241973D01*
X59278500Y-108469174D01*
X59278500Y-108700826D01*
X59233307Y-108928027D01*
X59144658Y-109142045D01*
X59144657Y-109142046D01*
X59015961Y-109334654D01*
X58852154Y-109498461D01*
X58795040Y-109536623D01*
X58659545Y-109627158D01*
X58445527Y-109715807D01*
X58294060Y-109745936D01*
X58218327Y-109761000D01*
X57986673Y-109761000D01*
X57910940Y-109745936D01*
X57759473Y-109715807D01*
X57545455Y-109627158D01*
X57409960Y-109536623D01*
X57352846Y-109498461D01*
X57189039Y-109334654D01*
X57060343Y-109142046D01*
X57060342Y-109142045D01*
X56971693Y-108928027D01*
X56926500Y-108700826D01*
X56926500Y-108469174D01*
X56971693Y-108241973D01*
X57060342Y-108027955D01*
X57173370Y-107858797D01*
X57189039Y-107835346D01*
X57352846Y-107671539D01*
X57545454Y-107542843D01*
X57545455Y-107542842D01*
X57759473Y-107454193D01*
X57910940Y-107424064D01*
X57986673Y-107409000D01*
X58218327Y-107409000D01*
X58294060Y-107424064D01*
X58294060Y-107424064D01*
G37*
G36*
X181562604Y-107059585D02*
G01*
X181731126Y-107129389D01*
X181882791Y-107230728D01*
X182011772Y-107359709D01*
X182113111Y-107511374D01*
X182182915Y-107679896D01*
X182218500Y-107858797D01*
X182218500Y-108041203D01*
X182182915Y-108220104D01*
X182113111Y-108388626D01*
X182011772Y-108540291D01*
X181882791Y-108669272D01*
X181731126Y-108770611D01*
X181562604Y-108840415D01*
X181383703Y-108876000D01*
X181201297Y-108876000D01*
X181022396Y-108840415D01*
X180853874Y-108770611D01*
X180702209Y-108669272D01*
X180573228Y-108540291D01*
X180471889Y-108388626D01*
X180402085Y-108220104D01*
X180366500Y-108041203D01*
X180366500Y-107858797D01*
X180402085Y-107679896D01*
X180471889Y-107511374D01*
X180573228Y-107359709D01*
X180702209Y-107230728D01*
X180853874Y-107129389D01*
X181022396Y-107059585D01*
X181201297Y-107024000D01*
X181383703Y-107024000D01*
X181562604Y-107059585D01*
X181562604Y-107059585D01*
G37*
G36*
X171402604Y-107059585D02*
G01*
X171571126Y-107129389D01*
X171722791Y-107230728D01*
X171851772Y-107359709D01*
X171953111Y-107511374D01*
X172022915Y-107679896D01*
X172058500Y-107858797D01*
X172058500Y-108041203D01*
X172022915Y-108220104D01*
X171953111Y-108388626D01*
X171851772Y-108540291D01*
X171722791Y-108669272D01*
X171571126Y-108770611D01*
X171402604Y-108840415D01*
X171223703Y-108876000D01*
X171041297Y-108876000D01*
X170862396Y-108840415D01*
X170693874Y-108770611D01*
X170542209Y-108669272D01*
X170413228Y-108540291D01*
X170311889Y-108388626D01*
X170242085Y-108220104D01*
X170206500Y-108041203D01*
X170206500Y-107858797D01*
X170242085Y-107679896D01*
X170311889Y-107511374D01*
X170413228Y-107359709D01*
X170542209Y-107230728D01*
X170693874Y-107129389D01*
X170862396Y-107059585D01*
X171041297Y-107024000D01*
X171223703Y-107024000D01*
X171402604Y-107059585D01*
X171402604Y-107059585D01*
G37*
G36*
X86312604Y-107059585D02*
G01*
X86481126Y-107129389D01*
X86632791Y-107230728D01*
X86761772Y-107359709D01*
X86863111Y-107511374D01*
X86932915Y-107679896D01*
X86968500Y-107858797D01*
X86968500Y-108041203D01*
X86932915Y-108220104D01*
X86863111Y-108388626D01*
X86761772Y-108540291D01*
X86632791Y-108669272D01*
X86481126Y-108770611D01*
X86312604Y-108840415D01*
X86133703Y-108876000D01*
X85951297Y-108876000D01*
X85772396Y-108840415D01*
X85603874Y-108770611D01*
X85452209Y-108669272D01*
X85323228Y-108540291D01*
X85221889Y-108388626D01*
X85152085Y-108220104D01*
X85116500Y-108041203D01*
X85116500Y-107858797D01*
X85152085Y-107679896D01*
X85221889Y-107511374D01*
X85323228Y-107359709D01*
X85452209Y-107230728D01*
X85603874Y-107129389D01*
X85772396Y-107059585D01*
X85951297Y-107024000D01*
X86133703Y-107024000D01*
X86312604Y-107059585D01*
X86312604Y-107059585D01*
G37*
G36*
X76152604Y-107059585D02*
G01*
X76321126Y-107129389D01*
X76472791Y-107230728D01*
X76601772Y-107359709D01*
X76703111Y-107511374D01*
X76772915Y-107679896D01*
X76808500Y-107858797D01*
X76808500Y-108041203D01*
X76772915Y-108220104D01*
X76703111Y-108388626D01*
X76601772Y-108540291D01*
X76472791Y-108669272D01*
X76321126Y-108770611D01*
X76152604Y-108840415D01*
X75973703Y-108876000D01*
X75791297Y-108876000D01*
X75612396Y-108840415D01*
X75443874Y-108770611D01*
X75292209Y-108669272D01*
X75163228Y-108540291D01*
X75061889Y-108388626D01*
X74992085Y-108220104D01*
X74956500Y-108041203D01*
X74956500Y-107858797D01*
X74992085Y-107679896D01*
X75061889Y-107511374D01*
X75163228Y-107359709D01*
X75292209Y-107230728D01*
X75443874Y-107129389D01*
X75612396Y-107059585D01*
X75791297Y-107024000D01*
X75973703Y-107024000D01*
X76152604Y-107059585D01*
X76152604Y-107059585D01*
G37*
G36*
X64644060Y-104884064D02*
G01*
X64795527Y-104914193D01*
X65009545Y-105002842D01*
X65009546Y-105002843D01*
X65202154Y-105131539D01*
X65365961Y-105295346D01*
X65451758Y-105423751D01*
X65494658Y-105487955D01*
X65583307Y-105701973D01*
X65593462Y-105753025D01*
X65623712Y-105905100D01*
X65628500Y-105929174D01*
X65628500Y-106160826D01*
X65583307Y-106388027D01*
X65494658Y-106602045D01*
X65494657Y-106602046D01*
X65365961Y-106794654D01*
X65202154Y-106958461D01*
X65073749Y-107044258D01*
X65009545Y-107087158D01*
X64795527Y-107175807D01*
X64644060Y-107205936D01*
X64568327Y-107221000D01*
X64336673Y-107221000D01*
X64260940Y-107205936D01*
X64109473Y-107175807D01*
X63895455Y-107087158D01*
X63831251Y-107044258D01*
X63702846Y-106958461D01*
X63539039Y-106794654D01*
X63410343Y-106602046D01*
X63410342Y-106602045D01*
X63321693Y-106388027D01*
X63276500Y-106160826D01*
X63276500Y-105929174D01*
X63281289Y-105905100D01*
X63311538Y-105753025D01*
X63321693Y-105701973D01*
X63410342Y-105487955D01*
X63453242Y-105423751D01*
X63539039Y-105295346D01*
X63702846Y-105131539D01*
X63895454Y-105002843D01*
X63895455Y-105002842D01*
X64109473Y-104914193D01*
X64260940Y-104884064D01*
X64336673Y-104869000D01*
X64568327Y-104869000D01*
X64644060Y-104884064D01*
X64644060Y-104884064D01*
G37*
G36*
X157758974Y-102808684D02*
G01*
X157976974Y-102898983D01*
X158131123Y-102962833D01*
X158466048Y-103186623D01*
X158750877Y-103471452D01*
X158974667Y-103806377D01*
X159007062Y-103884586D01*
X159128816Y-104178526D01*
X159207400Y-104573594D01*
X159207400Y-104976406D01*
X159128816Y-105371474D01*
X159077951Y-105494272D01*
X158974667Y-105743623D01*
X158750877Y-106078548D01*
X158466048Y-106363377D01*
X158131123Y-106587167D01*
X157987996Y-106646452D01*
X157758974Y-106741316D01*
X157363906Y-106819900D01*
X156961094Y-106819900D01*
X156566026Y-106741316D01*
X156337004Y-106646452D01*
X156193877Y-106587167D01*
X155858952Y-106363377D01*
X155574123Y-106078548D01*
X155350333Y-105743623D01*
X155247049Y-105494272D01*
X155196184Y-105371474D01*
X155117600Y-104976406D01*
X155117600Y-104573594D01*
X155196184Y-104178526D01*
X155317938Y-103884586D01*
X155350333Y-103806377D01*
X155574123Y-103471452D01*
X155858952Y-103186623D01*
X156193877Y-102962833D01*
X156348026Y-102898983D01*
X156566026Y-102808684D01*
X156961094Y-102730100D01*
X157363906Y-102730100D01*
X157758974Y-102808684D01*
X157758974Y-102808684D01*
G37*
G36*
X172594060Y-104249064D02*
G01*
X172745527Y-104279193D01*
X172959545Y-104367842D01*
X172959546Y-104367843D01*
X173152154Y-104496539D01*
X173315961Y-104660346D01*
X173331630Y-104683797D01*
X173444658Y-104852955D01*
X173533307Y-105066973D01*
X173578500Y-105294174D01*
X173578500Y-105525826D01*
X173533307Y-105753027D01*
X173444658Y-105967045D01*
X173444657Y-105967046D01*
X173315961Y-106159654D01*
X173152154Y-106323461D01*
X173023749Y-106409258D01*
X172959545Y-106452158D01*
X172745527Y-106540807D01*
X172594060Y-106570936D01*
X172518327Y-106586000D01*
X172286673Y-106586000D01*
X172210940Y-106570936D01*
X172059473Y-106540807D01*
X171845455Y-106452158D01*
X171781251Y-106409258D01*
X171652846Y-106323461D01*
X171489039Y-106159654D01*
X171360343Y-105967046D01*
X171360342Y-105967045D01*
X171271693Y-105753027D01*
X171226500Y-105525826D01*
X171226500Y-105294174D01*
X171271693Y-105066973D01*
X171360342Y-104852955D01*
X171473370Y-104683797D01*
X171489039Y-104660346D01*
X171652846Y-104496539D01*
X171845454Y-104367843D01*
X171845455Y-104367842D01*
X172059473Y-104279193D01*
X172210940Y-104249064D01*
X172286673Y-104234000D01*
X172518327Y-104234000D01*
X172594060Y-104249064D01*
X172594060Y-104249064D01*
G37*
G36*
X77344060Y-104249064D02*
G01*
X77495527Y-104279193D01*
X77709545Y-104367842D01*
X77709546Y-104367843D01*
X77902154Y-104496539D01*
X78065961Y-104660346D01*
X78081630Y-104683797D01*
X78194658Y-104852955D01*
X78283307Y-105066973D01*
X78328500Y-105294174D01*
X78328500Y-105525826D01*
X78283307Y-105753027D01*
X78194658Y-105967045D01*
X78194657Y-105967046D01*
X78065961Y-106159654D01*
X77902154Y-106323461D01*
X77773749Y-106409258D01*
X77709545Y-106452158D01*
X77495527Y-106540807D01*
X77344060Y-106570936D01*
X77268327Y-106586000D01*
X77036673Y-106586000D01*
X76960940Y-106570936D01*
X76809473Y-106540807D01*
X76595455Y-106452158D01*
X76531251Y-106409258D01*
X76402846Y-106323461D01*
X76239039Y-106159654D01*
X76110343Y-105967046D01*
X76110342Y-105967045D01*
X76021693Y-105753027D01*
X75976500Y-105525826D01*
X75976500Y-105294174D01*
X76021693Y-105066973D01*
X76110342Y-104852955D01*
X76223370Y-104683797D01*
X76239039Y-104660346D01*
X76402846Y-104496539D01*
X76595454Y-104367843D01*
X76595455Y-104367842D01*
X76809473Y-104279193D01*
X76960940Y-104249064D01*
X77036673Y-104234000D01*
X77268327Y-104234000D01*
X77344060Y-104249064D01*
X77344060Y-104249064D01*
G37*
G36*
X152352604Y-103884585D02*
G01*
X152521126Y-103954389D01*
X152672791Y-104055728D01*
X152801772Y-104184709D01*
X152903111Y-104336374D01*
X152972915Y-104504896D01*
X153008500Y-104683797D01*
X153008500Y-104866203D01*
X152972915Y-105045104D01*
X152903111Y-105213626D01*
X152801772Y-105365291D01*
X152672791Y-105494272D01*
X152521126Y-105595611D01*
X152352604Y-105665415D01*
X152173703Y-105701000D01*
X151991297Y-105701000D01*
X151812396Y-105665415D01*
X151643874Y-105595611D01*
X151492209Y-105494272D01*
X151363228Y-105365291D01*
X151261889Y-105213626D01*
X151192085Y-105045104D01*
X151156500Y-104866203D01*
X151156500Y-104683797D01*
X151192085Y-104504896D01*
X151261889Y-104336374D01*
X151363228Y-104184709D01*
X151492209Y-104055728D01*
X151643874Y-103954389D01*
X151812396Y-103884585D01*
X151991297Y-103849000D01*
X152173703Y-103849000D01*
X152352604Y-103884585D01*
X152352604Y-103884585D01*
G37*
G36*
X162512604Y-103884585D02*
G01*
X162681126Y-103954389D01*
X162832791Y-104055728D01*
X162961772Y-104184709D01*
X163063111Y-104336374D01*
X163132915Y-104504896D01*
X163168500Y-104683797D01*
X163168500Y-104866203D01*
X163132915Y-105045104D01*
X163063111Y-105213626D01*
X162961772Y-105365291D01*
X162832791Y-105494272D01*
X162681126Y-105595611D01*
X162512604Y-105665415D01*
X162333703Y-105701000D01*
X162151297Y-105701000D01*
X161972396Y-105665415D01*
X161803874Y-105595611D01*
X161652209Y-105494272D01*
X161523228Y-105365291D01*
X161421889Y-105213626D01*
X161352085Y-105045104D01*
X161316500Y-104866203D01*
X161316500Y-104683797D01*
X161352085Y-104504896D01*
X161421889Y-104336374D01*
X161523228Y-104184709D01*
X161652209Y-104055728D01*
X161803874Y-103954389D01*
X161972396Y-103884585D01*
X162151297Y-103849000D01*
X162333703Y-103849000D01*
X162512604Y-103884585D01*
X162512604Y-103884585D01*
G37*
G36*
X83694060Y-101709064D02*
G01*
X83845527Y-101739193D01*
X84059545Y-101827842D01*
X84059546Y-101827843D01*
X84252154Y-101956539D01*
X84415961Y-102120346D01*
X84501758Y-102248751D01*
X84544658Y-102312955D01*
X84633307Y-102526973D01*
X84643462Y-102578025D01*
X84673712Y-102730100D01*
X84678500Y-102754174D01*
X84678500Y-102985826D01*
X84633307Y-103213027D01*
X84544658Y-103427045D01*
X84544657Y-103427046D01*
X84415961Y-103619654D01*
X84252154Y-103783461D01*
X84123749Y-103869258D01*
X84059545Y-103912158D01*
X83845527Y-104000807D01*
X83694060Y-104030936D01*
X83618327Y-104046000D01*
X83386673Y-104046000D01*
X83310940Y-104030936D01*
X83159473Y-104000807D01*
X82945455Y-103912158D01*
X82881251Y-103869258D01*
X82752846Y-103783461D01*
X82589039Y-103619654D01*
X82460343Y-103427046D01*
X82460342Y-103427045D01*
X82371693Y-103213027D01*
X82326500Y-102985826D01*
X82326500Y-102754174D01*
X82331289Y-102730100D01*
X82361538Y-102578025D01*
X82371693Y-102526973D01*
X82460342Y-102312955D01*
X82503242Y-102248751D01*
X82589039Y-102120346D01*
X82752846Y-101956539D01*
X82945454Y-101827843D01*
X82945455Y-101827842D01*
X83159473Y-101739193D01*
X83310940Y-101709064D01*
X83386673Y-101694000D01*
X83618327Y-101694000D01*
X83694060Y-101709064D01*
X83694060Y-101709064D01*
G37*
G36*
X178944060Y-101709064D02*
G01*
X179095527Y-101739193D01*
X179309545Y-101827842D01*
X179309546Y-101827843D01*
X179502154Y-101956539D01*
X179665961Y-102120346D01*
X179751758Y-102248751D01*
X179794658Y-102312955D01*
X179883307Y-102526973D01*
X179893462Y-102578025D01*
X179923712Y-102730100D01*
X179928500Y-102754174D01*
X179928500Y-102985826D01*
X179883307Y-103213027D01*
X179794658Y-103427045D01*
X179794657Y-103427046D01*
X179665961Y-103619654D01*
X179502154Y-103783461D01*
X179373749Y-103869258D01*
X179309545Y-103912158D01*
X179095527Y-104000807D01*
X178944060Y-104030936D01*
X178868327Y-104046000D01*
X178636673Y-104046000D01*
X178560940Y-104030936D01*
X178409473Y-104000807D01*
X178195455Y-103912158D01*
X178131251Y-103869258D01*
X178002846Y-103783461D01*
X177839039Y-103619654D01*
X177710343Y-103427046D01*
X177710342Y-103427045D01*
X177621693Y-103213027D01*
X177576500Y-102985826D01*
X177576500Y-102754174D01*
X177581289Y-102730100D01*
X177611538Y-102578025D01*
X177621693Y-102526973D01*
X177710342Y-102312955D01*
X177753242Y-102248751D01*
X177839039Y-102120346D01*
X178002846Y-101956539D01*
X178195454Y-101827843D01*
X178195455Y-101827842D01*
X178409473Y-101739193D01*
X178560940Y-101709064D01*
X178636673Y-101694000D01*
X178868327Y-101694000D01*
X178944060Y-101709064D01*
X178944060Y-101709064D01*
G37*
G36*
X138708974Y-99633684D02*
G01*
X138926974Y-99723983D01*
X139081123Y-99787833D01*
X139416048Y-100011623D01*
X139700877Y-100296452D01*
X139924667Y-100631377D01*
X139957062Y-100709586D01*
X140078816Y-101003526D01*
X140157400Y-101398594D01*
X140157400Y-101801406D01*
X140078816Y-102196474D01*
X140027951Y-102319272D01*
X139924667Y-102568623D01*
X139700877Y-102903548D01*
X139416048Y-103188377D01*
X139081123Y-103412167D01*
X138937996Y-103471452D01*
X138708974Y-103566316D01*
X138313906Y-103644900D01*
X137911094Y-103644900D01*
X137516026Y-103566316D01*
X137287004Y-103471452D01*
X137143877Y-103412167D01*
X136808952Y-103188377D01*
X136524123Y-102903548D01*
X136300333Y-102568623D01*
X136197049Y-102319272D01*
X136146184Y-102196474D01*
X136067600Y-101801406D01*
X136067600Y-101398594D01*
X136146184Y-101003526D01*
X136267938Y-100709586D01*
X136300333Y-100631377D01*
X136524123Y-100296452D01*
X136808952Y-100011623D01*
X137143877Y-99787833D01*
X137298026Y-99723983D01*
X137516026Y-99633684D01*
X137911094Y-99555100D01*
X138313906Y-99555100D01*
X138708974Y-99633684D01*
X138708974Y-99633684D01*
G37*
G36*
X100608974Y-99633684D02*
G01*
X100826974Y-99723983D01*
X100981123Y-99787833D01*
X101316048Y-100011623D01*
X101600877Y-100296452D01*
X101824667Y-100631377D01*
X101857062Y-100709586D01*
X101978816Y-101003526D01*
X102057400Y-101398594D01*
X102057400Y-101801406D01*
X101978816Y-102196474D01*
X101927951Y-102319272D01*
X101824667Y-102568623D01*
X101600877Y-102903548D01*
X101316048Y-103188377D01*
X100981123Y-103412167D01*
X100837996Y-103471452D01*
X100608974Y-103566316D01*
X100213906Y-103644900D01*
X99811094Y-103644900D01*
X99416026Y-103566316D01*
X99187004Y-103471452D01*
X99043877Y-103412167D01*
X98708952Y-103188377D01*
X98424123Y-102903548D01*
X98200333Y-102568623D01*
X98097049Y-102319272D01*
X98046184Y-102196474D01*
X97967600Y-101801406D01*
X97967600Y-101398594D01*
X98046184Y-101003526D01*
X98167938Y-100709586D01*
X98200333Y-100631377D01*
X98424123Y-100296452D01*
X98708952Y-100011623D01*
X99043877Y-99787833D01*
X99198026Y-99723983D01*
X99416026Y-99633684D01*
X99811094Y-99555100D01*
X100213906Y-99555100D01*
X100608974Y-99633684D01*
X100608974Y-99633684D01*
G37*
G36*
X153544060Y-101074064D02*
G01*
X153695527Y-101104193D01*
X153909545Y-101192842D01*
X153909546Y-101192843D01*
X154102154Y-101321539D01*
X154265961Y-101485346D01*
X154281630Y-101508797D01*
X154394658Y-101677955D01*
X154483307Y-101891973D01*
X154528500Y-102119174D01*
X154528500Y-102350826D01*
X154483307Y-102578027D01*
X154394658Y-102792045D01*
X154394657Y-102792046D01*
X154265961Y-102984654D01*
X154102154Y-103148461D01*
X153973749Y-103234258D01*
X153909545Y-103277158D01*
X153695527Y-103365807D01*
X153544060Y-103395936D01*
X153468327Y-103411000D01*
X153236673Y-103411000D01*
X153160940Y-103395936D01*
X153009473Y-103365807D01*
X152795455Y-103277158D01*
X152731251Y-103234258D01*
X152602846Y-103148461D01*
X152439039Y-102984654D01*
X152310343Y-102792046D01*
X152310342Y-102792045D01*
X152221693Y-102578027D01*
X152176500Y-102350826D01*
X152176500Y-102119174D01*
X152221693Y-101891973D01*
X152310342Y-101677955D01*
X152423370Y-101508797D01*
X152439039Y-101485346D01*
X152602846Y-101321539D01*
X152795454Y-101192843D01*
X152795455Y-101192842D01*
X153009473Y-101104193D01*
X153160940Y-101074064D01*
X153236673Y-101059000D01*
X153468327Y-101059000D01*
X153544060Y-101074064D01*
X153544060Y-101074064D01*
G37*
G36*
X143462604Y-100709585D02*
G01*
X143631126Y-100779389D01*
X143782791Y-100880728D01*
X143911772Y-101009709D01*
X144013111Y-101161374D01*
X144082915Y-101329896D01*
X144118500Y-101508797D01*
X144118500Y-101691203D01*
X144082915Y-101870104D01*
X144013111Y-102038626D01*
X143911772Y-102190291D01*
X143782791Y-102319272D01*
X143631126Y-102420611D01*
X143462604Y-102490415D01*
X143283703Y-102526000D01*
X143101297Y-102526000D01*
X142922396Y-102490415D01*
X142753874Y-102420611D01*
X142602209Y-102319272D01*
X142473228Y-102190291D01*
X142371889Y-102038626D01*
X142302085Y-101870104D01*
X142266500Y-101691203D01*
X142266500Y-101508797D01*
X142302085Y-101329896D01*
X142371889Y-101161374D01*
X142473228Y-101009709D01*
X142602209Y-100880728D01*
X142753874Y-100779389D01*
X142922396Y-100709585D01*
X143101297Y-100674000D01*
X143283703Y-100674000D01*
X143462604Y-100709585D01*
X143462604Y-100709585D01*
G37*
G36*
X133302604Y-100709585D02*
G01*
X133471126Y-100779389D01*
X133622791Y-100880728D01*
X133751772Y-101009709D01*
X133853111Y-101161374D01*
X133922915Y-101329896D01*
X133958500Y-101508797D01*
X133958500Y-101691203D01*
X133922915Y-101870104D01*
X133853111Y-102038626D01*
X133751772Y-102190291D01*
X133622791Y-102319272D01*
X133471126Y-102420611D01*
X133302604Y-102490415D01*
X133123703Y-102526000D01*
X132941297Y-102526000D01*
X132762396Y-102490415D01*
X132593874Y-102420611D01*
X132442209Y-102319272D01*
X132313228Y-102190291D01*
X132211889Y-102038626D01*
X132142085Y-101870104D01*
X132106500Y-101691203D01*
X132106500Y-101508797D01*
X132142085Y-101329896D01*
X132211889Y-101161374D01*
X132313228Y-101009709D01*
X132442209Y-100880728D01*
X132593874Y-100779389D01*
X132762396Y-100709585D01*
X132941297Y-100674000D01*
X133123703Y-100674000D01*
X133302604Y-100709585D01*
X133302604Y-100709585D01*
G37*
G36*
X95202604Y-100709585D02*
G01*
X95371126Y-100779389D01*
X95522791Y-100880728D01*
X95651772Y-101009709D01*
X95753111Y-101161374D01*
X95822915Y-101329896D01*
X95858500Y-101508797D01*
X95858500Y-101691203D01*
X95822915Y-101870104D01*
X95753111Y-102038626D01*
X95651772Y-102190291D01*
X95522791Y-102319272D01*
X95371126Y-102420611D01*
X95202604Y-102490415D01*
X95023703Y-102526000D01*
X94841297Y-102526000D01*
X94662396Y-102490415D01*
X94493874Y-102420611D01*
X94342209Y-102319272D01*
X94213228Y-102190291D01*
X94111889Y-102038626D01*
X94042085Y-101870104D01*
X94006500Y-101691203D01*
X94006500Y-101508797D01*
X94042085Y-101329896D01*
X94111889Y-101161374D01*
X94213228Y-101009709D01*
X94342209Y-100880728D01*
X94493874Y-100779389D01*
X94662396Y-100709585D01*
X94841297Y-100674000D01*
X95023703Y-100674000D01*
X95202604Y-100709585D01*
X95202604Y-100709585D01*
G37*
G36*
X105362604Y-100709585D02*
G01*
X105531126Y-100779389D01*
X105682791Y-100880728D01*
X105811772Y-101009709D01*
X105913111Y-101161374D01*
X105982915Y-101329896D01*
X106018500Y-101508797D01*
X106018500Y-101691203D01*
X105982915Y-101870104D01*
X105913111Y-102038626D01*
X105811772Y-102190291D01*
X105682791Y-102319272D01*
X105531126Y-102420611D01*
X105362604Y-102490415D01*
X105183703Y-102526000D01*
X105001297Y-102526000D01*
X104822396Y-102490415D01*
X104653874Y-102420611D01*
X104502209Y-102319272D01*
X104373228Y-102190291D01*
X104271889Y-102038626D01*
X104202085Y-101870104D01*
X104166500Y-101691203D01*
X104166500Y-101508797D01*
X104202085Y-101329896D01*
X104271889Y-101161374D01*
X104373228Y-101009709D01*
X104502209Y-100880728D01*
X104653874Y-100779389D01*
X104822396Y-100709585D01*
X105001297Y-100674000D01*
X105183703Y-100674000D01*
X105362604Y-100709585D01*
X105362604Y-100709585D01*
G37*
G36*
X198744064Y-99795639D02*
G01*
X198935333Y-99874865D01*
X198935335Y-99874866D01*
X199107473Y-99989885D01*
X199253865Y-100136277D01*
X199360891Y-100296452D01*
X199368885Y-100308417D01*
X199448111Y-100499686D01*
X199488500Y-100702734D01*
X199488500Y-100909766D01*
X199448111Y-101112814D01*
X199427996Y-101161375D01*
X199368884Y-101304085D01*
X199253865Y-101476223D01*
X199107473Y-101622615D01*
X198935335Y-101737634D01*
X198935334Y-101737635D01*
X198935333Y-101737635D01*
X198744064Y-101816861D01*
X198541016Y-101857250D01*
X198333984Y-101857250D01*
X198130936Y-101816861D01*
X197939667Y-101737635D01*
X197939666Y-101737635D01*
X197939665Y-101737634D01*
X197767527Y-101622615D01*
X197621135Y-101476223D01*
X197506116Y-101304085D01*
X197447004Y-101161375D01*
X197426889Y-101112814D01*
X197386500Y-100909766D01*
X197386500Y-100702734D01*
X197426889Y-100499686D01*
X197506115Y-100308417D01*
X197514110Y-100296452D01*
X197621135Y-100136277D01*
X197767527Y-99989885D01*
X197939665Y-99874866D01*
X197939667Y-99874865D01*
X198130936Y-99795639D01*
X198333984Y-99755250D01*
X198541016Y-99755250D01*
X198744064Y-99795639D01*
X198744064Y-99795639D01*
G37*
G36*
X159894060Y-98534064D02*
G01*
X160045527Y-98564193D01*
X160259545Y-98652842D01*
X160259546Y-98652843D01*
X160452154Y-98781539D01*
X160615961Y-98945346D01*
X160701758Y-99073751D01*
X160744658Y-99137955D01*
X160833307Y-99351973D01*
X160843462Y-99403025D01*
X160873712Y-99555100D01*
X160878500Y-99579174D01*
X160878500Y-99810826D01*
X160833307Y-100038027D01*
X160744658Y-100252045D01*
X160744657Y-100252046D01*
X160615961Y-100444654D01*
X160452154Y-100608461D01*
X160323749Y-100694258D01*
X160259545Y-100737158D01*
X160045527Y-100825807D01*
X159894060Y-100855936D01*
X159818327Y-100871000D01*
X159586673Y-100871000D01*
X159510940Y-100855936D01*
X159359473Y-100825807D01*
X159145455Y-100737158D01*
X159081251Y-100694258D01*
X158952846Y-100608461D01*
X158789039Y-100444654D01*
X158660343Y-100252046D01*
X158660342Y-100252045D01*
X158571693Y-100038027D01*
X158526500Y-99810826D01*
X158526500Y-99579174D01*
X158531289Y-99555100D01*
X158561538Y-99403025D01*
X158571693Y-99351973D01*
X158660342Y-99137955D01*
X158703242Y-99073751D01*
X158789039Y-98945346D01*
X158952846Y-98781539D01*
X159145454Y-98652843D01*
X159145455Y-98652842D01*
X159359473Y-98564193D01*
X159510940Y-98534064D01*
X159586673Y-98519000D01*
X159818327Y-98519000D01*
X159894060Y-98534064D01*
X159894060Y-98534064D01*
G37*
G36*
X119658974Y-96458684D02*
G01*
X119876974Y-96548983D01*
X120031123Y-96612833D01*
X120366048Y-96836623D01*
X120650877Y-97121452D01*
X120874667Y-97456377D01*
X120907062Y-97534586D01*
X121028816Y-97828526D01*
X121107400Y-98223594D01*
X121107400Y-98626406D01*
X121028816Y-99021474D01*
X120977951Y-99144272D01*
X120874667Y-99393623D01*
X120650877Y-99728548D01*
X120366048Y-100013377D01*
X120031123Y-100237167D01*
X119887996Y-100296452D01*
X119658974Y-100391316D01*
X119263906Y-100469900D01*
X118861094Y-100469900D01*
X118466026Y-100391316D01*
X118237004Y-100296452D01*
X118093877Y-100237167D01*
X117758952Y-100013377D01*
X117474123Y-99728548D01*
X117250333Y-99393623D01*
X117147049Y-99144272D01*
X117096184Y-99021474D01*
X117017600Y-98626406D01*
X117017600Y-98223594D01*
X117096184Y-97828526D01*
X117217938Y-97534586D01*
X117250333Y-97456377D01*
X117474123Y-97121452D01*
X117758952Y-96836623D01*
X118093877Y-96612833D01*
X118248026Y-96548983D01*
X118466026Y-96458684D01*
X118861094Y-96380100D01*
X119263906Y-96380100D01*
X119658974Y-96458684D01*
X119658974Y-96458684D01*
G37*
G36*
X134494060Y-97899064D02*
G01*
X134645527Y-97929193D01*
X134859545Y-98017842D01*
X134859546Y-98017843D01*
X135052154Y-98146539D01*
X135215961Y-98310346D01*
X135231630Y-98333797D01*
X135344658Y-98502955D01*
X135433307Y-98716973D01*
X135478500Y-98944174D01*
X135478500Y-99175826D01*
X135433307Y-99403027D01*
X135344658Y-99617045D01*
X135344657Y-99617046D01*
X135215961Y-99809654D01*
X135052154Y-99973461D01*
X134923749Y-100059258D01*
X134859545Y-100102158D01*
X134645527Y-100190807D01*
X134494060Y-100220936D01*
X134418327Y-100236000D01*
X134186673Y-100236000D01*
X134110940Y-100220936D01*
X133959473Y-100190807D01*
X133745455Y-100102158D01*
X133681251Y-100059258D01*
X133552846Y-99973461D01*
X133389039Y-99809654D01*
X133260343Y-99617046D01*
X133260342Y-99617045D01*
X133171693Y-99403027D01*
X133126500Y-99175826D01*
X133126500Y-98944174D01*
X133171693Y-98716973D01*
X133260342Y-98502955D01*
X133373370Y-98333797D01*
X133389039Y-98310346D01*
X133552846Y-98146539D01*
X133745454Y-98017843D01*
X133745455Y-98017842D01*
X133959473Y-97929193D01*
X134110940Y-97899064D01*
X134186673Y-97884000D01*
X134418327Y-97884000D01*
X134494060Y-97899064D01*
X134494060Y-97899064D01*
G37*
G36*
X96394060Y-97899064D02*
G01*
X96545527Y-97929193D01*
X96759545Y-98017842D01*
X96759546Y-98017843D01*
X96952154Y-98146539D01*
X97115961Y-98310346D01*
X97131630Y-98333797D01*
X97244658Y-98502955D01*
X97333307Y-98716973D01*
X97378500Y-98944174D01*
X97378500Y-99175826D01*
X97333307Y-99403027D01*
X97244658Y-99617045D01*
X97244657Y-99617046D01*
X97115961Y-99809654D01*
X96952154Y-99973461D01*
X96823749Y-100059258D01*
X96759545Y-100102158D01*
X96545527Y-100190807D01*
X96394060Y-100220936D01*
X96318327Y-100236000D01*
X96086673Y-100236000D01*
X96010940Y-100220936D01*
X95859473Y-100190807D01*
X95645455Y-100102158D01*
X95581251Y-100059258D01*
X95452846Y-99973461D01*
X95289039Y-99809654D01*
X95160343Y-99617046D01*
X95160342Y-99617045D01*
X95071693Y-99403027D01*
X95026500Y-99175826D01*
X95026500Y-98944174D01*
X95071693Y-98716973D01*
X95160342Y-98502955D01*
X95273370Y-98333797D01*
X95289039Y-98310346D01*
X95452846Y-98146539D01*
X95645454Y-98017843D01*
X95645455Y-98017842D01*
X95859473Y-97929193D01*
X96010940Y-97899064D01*
X96086673Y-97884000D01*
X96318327Y-97884000D01*
X96394060Y-97899064D01*
X96394060Y-97899064D01*
G37*
G36*
X124412604Y-97534585D02*
G01*
X124581126Y-97604389D01*
X124732791Y-97705728D01*
X124861772Y-97834709D01*
X124963111Y-97986374D01*
X125032915Y-98154896D01*
X125068500Y-98333797D01*
X125068500Y-98516203D01*
X125032915Y-98695104D01*
X124963111Y-98863626D01*
X124861772Y-99015291D01*
X124732791Y-99144272D01*
X124581126Y-99245611D01*
X124412604Y-99315415D01*
X124233703Y-99351000D01*
X124051297Y-99351000D01*
X123872396Y-99315415D01*
X123703874Y-99245611D01*
X123552209Y-99144272D01*
X123423228Y-99015291D01*
X123321889Y-98863626D01*
X123252085Y-98695104D01*
X123216500Y-98516203D01*
X123216500Y-98333797D01*
X123252085Y-98154896D01*
X123321889Y-97986374D01*
X123423228Y-97834709D01*
X123552209Y-97705728D01*
X123703874Y-97604389D01*
X123872396Y-97534585D01*
X124051297Y-97499000D01*
X124233703Y-97499000D01*
X124412604Y-97534585D01*
X124412604Y-97534585D01*
G37*
G36*
X114252604Y-97534585D02*
G01*
X114421126Y-97604389D01*
X114572791Y-97705728D01*
X114701772Y-97834709D01*
X114803111Y-97986374D01*
X114872915Y-98154896D01*
X114908500Y-98333797D01*
X114908500Y-98516203D01*
X114872915Y-98695104D01*
X114803111Y-98863626D01*
X114701772Y-99015291D01*
X114572791Y-99144272D01*
X114421126Y-99245611D01*
X114252604Y-99315415D01*
X114073703Y-99351000D01*
X113891297Y-99351000D01*
X113712396Y-99315415D01*
X113543874Y-99245611D01*
X113392209Y-99144272D01*
X113263228Y-99015291D01*
X113161889Y-98863626D01*
X113092085Y-98695104D01*
X113056500Y-98516203D01*
X113056500Y-98333797D01*
X113092085Y-98154896D01*
X113161889Y-97986374D01*
X113263228Y-97834709D01*
X113392209Y-97705728D01*
X113543874Y-97604389D01*
X113712396Y-97534585D01*
X113891297Y-97499000D01*
X114073703Y-97499000D01*
X114252604Y-97534585D01*
X114252604Y-97534585D01*
G37*
G36*
X198744064Y-96620639D02*
G01*
X198935333Y-96699865D01*
X198935335Y-96699866D01*
X199107473Y-96814885D01*
X199253865Y-96961277D01*
X199360891Y-97121452D01*
X199368885Y-97133417D01*
X199448111Y-97324686D01*
X199488500Y-97527734D01*
X199488500Y-97734766D01*
X199448111Y-97937814D01*
X199427996Y-97986375D01*
X199368884Y-98129085D01*
X199253865Y-98301223D01*
X199107473Y-98447615D01*
X198935335Y-98562634D01*
X198935334Y-98562635D01*
X198935333Y-98562635D01*
X198744064Y-98641861D01*
X198541016Y-98682250D01*
X198333984Y-98682250D01*
X198130936Y-98641861D01*
X197939667Y-98562635D01*
X197939666Y-98562635D01*
X197939665Y-98562634D01*
X197767527Y-98447615D01*
X197621135Y-98301223D01*
X197506116Y-98129085D01*
X197447004Y-97986375D01*
X197426889Y-97937814D01*
X197386500Y-97734766D01*
X197386500Y-97527734D01*
X197426889Y-97324686D01*
X197506115Y-97133417D01*
X197514110Y-97121452D01*
X197621135Y-96961277D01*
X197767527Y-96814885D01*
X197939665Y-96699866D01*
X197939667Y-96699865D01*
X198130936Y-96620639D01*
X198333984Y-96580250D01*
X198541016Y-96580250D01*
X198744064Y-96620639D01*
X198744064Y-96620639D01*
G37*
G36*
X140844060Y-95359064D02*
G01*
X140995527Y-95389193D01*
X141209545Y-95477842D01*
X141209546Y-95477843D01*
X141402154Y-95606539D01*
X141565961Y-95770346D01*
X141651758Y-95898751D01*
X141694658Y-95962955D01*
X141783307Y-96176973D01*
X141783307Y-96176975D01*
X141823712Y-96380100D01*
X141828500Y-96404174D01*
X141828500Y-96635826D01*
X141783307Y-96863027D01*
X141694658Y-97077045D01*
X141694657Y-97077046D01*
X141565961Y-97269654D01*
X141402154Y-97433461D01*
X141273749Y-97519258D01*
X141209545Y-97562158D01*
X140995527Y-97650807D01*
X140844060Y-97680936D01*
X140768327Y-97696000D01*
X140536673Y-97696000D01*
X140460940Y-97680936D01*
X140309473Y-97650807D01*
X140095455Y-97562158D01*
X140031251Y-97519258D01*
X139902846Y-97433461D01*
X139739039Y-97269654D01*
X139610343Y-97077046D01*
X139610342Y-97077045D01*
X139521693Y-96863027D01*
X139476500Y-96635826D01*
X139476500Y-96404174D01*
X139481289Y-96380100D01*
X139521693Y-96176975D01*
X139521693Y-96176973D01*
X139610342Y-95962955D01*
X139653242Y-95898751D01*
X139739039Y-95770346D01*
X139902846Y-95606539D01*
X140095454Y-95477843D01*
X140095455Y-95477842D01*
X140309473Y-95389193D01*
X140460940Y-95359064D01*
X140536673Y-95344000D01*
X140768327Y-95344000D01*
X140844060Y-95359064D01*
X140844060Y-95359064D01*
G37*
G36*
X102744060Y-95359064D02*
G01*
X102895527Y-95389193D01*
X103109545Y-95477842D01*
X103109546Y-95477843D01*
X103302154Y-95606539D01*
X103465961Y-95770346D01*
X103551758Y-95898751D01*
X103594658Y-95962955D01*
X103683307Y-96176973D01*
X103683307Y-96176975D01*
X103723712Y-96380100D01*
X103728500Y-96404174D01*
X103728500Y-96635826D01*
X103683307Y-96863027D01*
X103594658Y-97077045D01*
X103594657Y-97077046D01*
X103465961Y-97269654D01*
X103302154Y-97433461D01*
X103173749Y-97519258D01*
X103109545Y-97562158D01*
X102895527Y-97650807D01*
X102744060Y-97680936D01*
X102668327Y-97696000D01*
X102436673Y-97696000D01*
X102360940Y-97680936D01*
X102209473Y-97650807D01*
X101995455Y-97562158D01*
X101931251Y-97519258D01*
X101802846Y-97433461D01*
X101639039Y-97269654D01*
X101510343Y-97077046D01*
X101510342Y-97077045D01*
X101421693Y-96863027D01*
X101376500Y-96635826D01*
X101376500Y-96404174D01*
X101381289Y-96380100D01*
X101421693Y-96176975D01*
X101421693Y-96176973D01*
X101510342Y-95962955D01*
X101553242Y-95898751D01*
X101639039Y-95770346D01*
X101802846Y-95606539D01*
X101995454Y-95477843D01*
X101995455Y-95477842D01*
X102209473Y-95389193D01*
X102360940Y-95359064D01*
X102436673Y-95344000D01*
X102668327Y-95344000D01*
X102744060Y-95359064D01*
X102744060Y-95359064D01*
G37*
G36*
X115444060Y-94724064D02*
G01*
X115595527Y-94754193D01*
X115809545Y-94842842D01*
X115809546Y-94842843D01*
X116002154Y-94971539D01*
X116165961Y-95135346D01*
X116251758Y-95263751D01*
X116294658Y-95327955D01*
X116383307Y-95541973D01*
X116428500Y-95769174D01*
X116428500Y-96000826D01*
X116383307Y-96228027D01*
X116294658Y-96442045D01*
X116294657Y-96442046D01*
X116165961Y-96634654D01*
X116002154Y-96798461D01*
X115873749Y-96884258D01*
X115809545Y-96927158D01*
X115595527Y-97015807D01*
X115444060Y-97045936D01*
X115368327Y-97061000D01*
X115136673Y-97061000D01*
X115060940Y-97045936D01*
X114909473Y-97015807D01*
X114695455Y-96927158D01*
X114631251Y-96884258D01*
X114502846Y-96798461D01*
X114339039Y-96634654D01*
X114210343Y-96442046D01*
X114210342Y-96442045D01*
X114121693Y-96228027D01*
X114076500Y-96000826D01*
X114076500Y-95769174D01*
X114121693Y-95541973D01*
X114210342Y-95327955D01*
X114253242Y-95263751D01*
X114339039Y-95135346D01*
X114502846Y-94971539D01*
X114695454Y-94842843D01*
X114695455Y-94842842D01*
X114909473Y-94754193D01*
X115060940Y-94724064D01*
X115136673Y-94709000D01*
X115368327Y-94709000D01*
X115444060Y-94724064D01*
X115444060Y-94724064D01*
G37*
G36*
X198744064Y-93445639D02*
G01*
X198935333Y-93524865D01*
X198935335Y-93524866D01*
X199107473Y-93639885D01*
X199253865Y-93786277D01*
X199321278Y-93887167D01*
X199368885Y-93958417D01*
X199448111Y-94149686D01*
X199488500Y-94352734D01*
X199488500Y-94559766D01*
X199448111Y-94762814D01*
X199414962Y-94842842D01*
X199368884Y-94954085D01*
X199253865Y-95126223D01*
X199107473Y-95272615D01*
X198935335Y-95387634D01*
X198935334Y-95387635D01*
X198935333Y-95387635D01*
X198744064Y-95466861D01*
X198541016Y-95507250D01*
X198333984Y-95507250D01*
X198130936Y-95466861D01*
X197939667Y-95387635D01*
X197939666Y-95387635D01*
X197939665Y-95387634D01*
X197767527Y-95272615D01*
X197621135Y-95126223D01*
X197506116Y-94954085D01*
X197460038Y-94842842D01*
X197426889Y-94762814D01*
X197386500Y-94559766D01*
X197386500Y-94352734D01*
X197426889Y-94149686D01*
X197506115Y-93958417D01*
X197553723Y-93887167D01*
X197621135Y-93786277D01*
X197767527Y-93639885D01*
X197939665Y-93524866D01*
X197939667Y-93524865D01*
X198130936Y-93445639D01*
X198333984Y-93405250D01*
X198541016Y-93405250D01*
X198744064Y-93445639D01*
X198744064Y-93445639D01*
G37*
G36*
X121794060Y-92184064D02*
G01*
X121945527Y-92214193D01*
X122159545Y-92302842D01*
X122159546Y-92302843D01*
X122352154Y-92431539D01*
X122515961Y-92595346D01*
X122601758Y-92723751D01*
X122644658Y-92787955D01*
X122733307Y-93001973D01*
X122778500Y-93229174D01*
X122778500Y-93460826D01*
X122733307Y-93688027D01*
X122644658Y-93902045D01*
X122644657Y-93902046D01*
X122515961Y-94094654D01*
X122352154Y-94258461D01*
X122223749Y-94344258D01*
X122159545Y-94387158D01*
X121945527Y-94475807D01*
X121794060Y-94505936D01*
X121718327Y-94521000D01*
X121486673Y-94521000D01*
X121410940Y-94505936D01*
X121259473Y-94475807D01*
X121045455Y-94387158D01*
X120981251Y-94344258D01*
X120852846Y-94258461D01*
X120689039Y-94094654D01*
X120560343Y-93902046D01*
X120560342Y-93902045D01*
X120471693Y-93688027D01*
X120426500Y-93460826D01*
X120426500Y-93229174D01*
X120471693Y-93001973D01*
X120560342Y-92787955D01*
X120603242Y-92723751D01*
X120689039Y-92595346D01*
X120852846Y-92431539D01*
X121045454Y-92302843D01*
X121045455Y-92302842D01*
X121259473Y-92214193D01*
X121410940Y-92184064D01*
X121486673Y-92169000D01*
X121718327Y-92169000D01*
X121794060Y-92184064D01*
X121794060Y-92184064D01*
G37*
G36*
X62508974Y-90108684D02*
G01*
X62726974Y-90198983D01*
X62881123Y-90262833D01*
X63216048Y-90486623D01*
X63500877Y-90771452D01*
X63724667Y-91106377D01*
X63757062Y-91184586D01*
X63878816Y-91478526D01*
X63957400Y-91873594D01*
X63957400Y-92276406D01*
X63878816Y-92671474D01*
X63827951Y-92794272D01*
X63724667Y-93043623D01*
X63500877Y-93378548D01*
X63216048Y-93663377D01*
X62881123Y-93887167D01*
X62726974Y-93951017D01*
X62508974Y-94041316D01*
X62113906Y-94119900D01*
X61711094Y-94119900D01*
X61316026Y-94041316D01*
X61098026Y-93951017D01*
X60943877Y-93887167D01*
X60608952Y-93663377D01*
X60324123Y-93378548D01*
X60100333Y-93043623D01*
X59997049Y-92794272D01*
X59946184Y-92671474D01*
X59867600Y-92276406D01*
X59867600Y-91873594D01*
X59946184Y-91478526D01*
X60067938Y-91184586D01*
X60100333Y-91106377D01*
X60324123Y-90771452D01*
X60608952Y-90486623D01*
X60943877Y-90262833D01*
X61098026Y-90198983D01*
X61316026Y-90108684D01*
X61711094Y-90030100D01*
X62113906Y-90030100D01*
X62508974Y-90108684D01*
X62508974Y-90108684D01*
G37*
G36*
X67262604Y-91184585D02*
G01*
X67431126Y-91254389D01*
X67582791Y-91355728D01*
X67711772Y-91484709D01*
X67813111Y-91636374D01*
X67882915Y-91804896D01*
X67918500Y-91983797D01*
X67918500Y-92166203D01*
X67882915Y-92345104D01*
X67813111Y-92513626D01*
X67711772Y-92665291D01*
X67582791Y-92794272D01*
X67431126Y-92895611D01*
X67262604Y-92965415D01*
X67083703Y-93001000D01*
X66901297Y-93001000D01*
X66722396Y-92965415D01*
X66553874Y-92895611D01*
X66402209Y-92794272D01*
X66273228Y-92665291D01*
X66171889Y-92513626D01*
X66102085Y-92345104D01*
X66066500Y-92166203D01*
X66066500Y-91983797D01*
X66102085Y-91804896D01*
X66171889Y-91636374D01*
X66273228Y-91484709D01*
X66402209Y-91355728D01*
X66553874Y-91254389D01*
X66722396Y-91184585D01*
X66901297Y-91149000D01*
X67083703Y-91149000D01*
X67262604Y-91184585D01*
X67262604Y-91184585D01*
G37*
G36*
X57102604Y-91184585D02*
G01*
X57271126Y-91254389D01*
X57422791Y-91355728D01*
X57551772Y-91484709D01*
X57653111Y-91636374D01*
X57722915Y-91804896D01*
X57758500Y-91983797D01*
X57758500Y-92166203D01*
X57722915Y-92345104D01*
X57653111Y-92513626D01*
X57551772Y-92665291D01*
X57422791Y-92794272D01*
X57271126Y-92895611D01*
X57102604Y-92965415D01*
X56923703Y-93001000D01*
X56741297Y-93001000D01*
X56562396Y-92965415D01*
X56393874Y-92895611D01*
X56242209Y-92794272D01*
X56113228Y-92665291D01*
X56011889Y-92513626D01*
X55942085Y-92345104D01*
X55906500Y-92166203D01*
X55906500Y-91983797D01*
X55942085Y-91804896D01*
X56011889Y-91636374D01*
X56113228Y-91484709D01*
X56242209Y-91355728D01*
X56393874Y-91254389D01*
X56562396Y-91184585D01*
X56741297Y-91149000D01*
X56923703Y-91149000D01*
X57102604Y-91184585D01*
X57102604Y-91184585D01*
G37*
G36*
X197667618Y-90038420D02*
G01*
X197758404Y-90065960D01*
X197790336Y-90075646D01*
X197903425Y-90136094D01*
X198002554Y-90217446D01*
X198083906Y-90316575D01*
X198144354Y-90429664D01*
X198144558Y-90430336D01*
X198181580Y-90552382D01*
X198191000Y-90648027D01*
X198191000Y-91311973D01*
X198181580Y-91407618D01*
X198160070Y-91478526D01*
X198144354Y-91530336D01*
X198083906Y-91643425D01*
X198002554Y-91742553D01*
X197903424Y-91823906D01*
X197790335Y-91884354D01*
X197758403Y-91894040D01*
X197667617Y-91921580D01*
X197540000Y-91934149D01*
X197412382Y-91921580D01*
X197321596Y-91894040D01*
X197289664Y-91884354D01*
X197176575Y-91823906D01*
X197077447Y-91742554D01*
X196996094Y-91643424D01*
X196935646Y-91530335D01*
X196919930Y-91478525D01*
X196898420Y-91407617D01*
X196889000Y-91311972D01*
X196889000Y-90648027D01*
X196898420Y-90552382D01*
X196935442Y-90430336D01*
X196935645Y-90429667D01*
X196996096Y-90316573D01*
X197077447Y-90217446D01*
X197176576Y-90136094D01*
X197289665Y-90075646D01*
X197321597Y-90065960D01*
X197412383Y-90038420D01*
X197540000Y-90025851D01*
X197667618Y-90038420D01*
X197667618Y-90038420D01*
G37*
G36*
X81558974Y-86933684D02*
G01*
X81776974Y-87023983D01*
X81931123Y-87087833D01*
X82266048Y-87311623D01*
X82550877Y-87596452D01*
X82774667Y-87931377D01*
X82807062Y-88009586D01*
X82928816Y-88303526D01*
X83007400Y-88698594D01*
X83007400Y-89101406D01*
X82928816Y-89496474D01*
X82877951Y-89619272D01*
X82774667Y-89868623D01*
X82550877Y-90203548D01*
X82266048Y-90488377D01*
X81931123Y-90712167D01*
X81902782Y-90723906D01*
X81558974Y-90866316D01*
X81163906Y-90944900D01*
X80761094Y-90944900D01*
X80366026Y-90866316D01*
X80022218Y-90723906D01*
X79993877Y-90712167D01*
X79658952Y-90488377D01*
X79374123Y-90203548D01*
X79150333Y-89868623D01*
X79047049Y-89619272D01*
X78996184Y-89496474D01*
X78917600Y-89101406D01*
X78917600Y-88698594D01*
X78996184Y-88303526D01*
X79117938Y-88009586D01*
X79150333Y-87931377D01*
X79374123Y-87596452D01*
X79658952Y-87311623D01*
X79993877Y-87087833D01*
X80148026Y-87023983D01*
X80366026Y-86933684D01*
X80761094Y-86855100D01*
X81163906Y-86855100D01*
X81558974Y-86933684D01*
X81558974Y-86933684D01*
G37*
G36*
X176808974Y-86933684D02*
G01*
X177026974Y-87023983D01*
X177181123Y-87087833D01*
X177516048Y-87311623D01*
X177800877Y-87596452D01*
X178024667Y-87931377D01*
X178057062Y-88009586D01*
X178178816Y-88303526D01*
X178257400Y-88698594D01*
X178257400Y-89101406D01*
X178178816Y-89496474D01*
X178127951Y-89619272D01*
X178024667Y-89868623D01*
X177800877Y-90203548D01*
X177516048Y-90488377D01*
X177181123Y-90712167D01*
X177152782Y-90723906D01*
X176808974Y-90866316D01*
X176413906Y-90944900D01*
X176011094Y-90944900D01*
X175616026Y-90866316D01*
X175272218Y-90723906D01*
X175243877Y-90712167D01*
X174908952Y-90488377D01*
X174624123Y-90203548D01*
X174400333Y-89868623D01*
X174297049Y-89619272D01*
X174246184Y-89496474D01*
X174167600Y-89101406D01*
X174167600Y-88698594D01*
X174246184Y-88303526D01*
X174367938Y-88009586D01*
X174400333Y-87931377D01*
X174624123Y-87596452D01*
X174908952Y-87311623D01*
X175243877Y-87087833D01*
X175398026Y-87023983D01*
X175616026Y-86933684D01*
X176011094Y-86855100D01*
X176413906Y-86855100D01*
X176808974Y-86933684D01*
X176808974Y-86933684D01*
G37*
G36*
X202267618Y-88938420D02*
G01*
X202358404Y-88965960D01*
X202390336Y-88975646D01*
X202503425Y-89036094D01*
X202602554Y-89117446D01*
X202683906Y-89216575D01*
X202744354Y-89329664D01*
X202754040Y-89361596D01*
X202781580Y-89452382D01*
X202791000Y-89548027D01*
X202791000Y-90211973D01*
X202781580Y-90307618D01*
X202754040Y-90398404D01*
X202744354Y-90430336D01*
X202683906Y-90543425D01*
X202602554Y-90642553D01*
X202503424Y-90723906D01*
X202390335Y-90784354D01*
X202358403Y-90794040D01*
X202267617Y-90821580D01*
X202140000Y-90834149D01*
X202012382Y-90821580D01*
X201921596Y-90794040D01*
X201889664Y-90784354D01*
X201776575Y-90723906D01*
X201677447Y-90642554D01*
X201596094Y-90543424D01*
X201535646Y-90430335D01*
X201525960Y-90398403D01*
X201498420Y-90307617D01*
X201489000Y-90211972D01*
X201489000Y-89548027D01*
X201498420Y-89452382D01*
X201523237Y-89370573D01*
X201535645Y-89329667D01*
X201596096Y-89216573D01*
X201677447Y-89117446D01*
X201776576Y-89036094D01*
X201889665Y-88975646D01*
X201921597Y-88965960D01*
X202012383Y-88938420D01*
X202140000Y-88925851D01*
X202267618Y-88938420D01*
X202267618Y-88938420D01*
G37*
G36*
X58294060Y-88374064D02*
G01*
X58445527Y-88404193D01*
X58659545Y-88492842D01*
X58659546Y-88492843D01*
X58852154Y-88621539D01*
X59015961Y-88785346D01*
X59031630Y-88808797D01*
X59144658Y-88977955D01*
X59233307Y-89191973D01*
X59278500Y-89419174D01*
X59278500Y-89650826D01*
X59233307Y-89878027D01*
X59144658Y-90092045D01*
X59144657Y-90092046D01*
X59015961Y-90284654D01*
X58852154Y-90448461D01*
X58795040Y-90486623D01*
X58659545Y-90577158D01*
X58445527Y-90665807D01*
X58294060Y-90695936D01*
X58218327Y-90711000D01*
X57986673Y-90711000D01*
X57910940Y-90695936D01*
X57759473Y-90665807D01*
X57545455Y-90577158D01*
X57409960Y-90486623D01*
X57352846Y-90448461D01*
X57189039Y-90284654D01*
X57060343Y-90092046D01*
X57060342Y-90092045D01*
X56971693Y-89878027D01*
X56926500Y-89650826D01*
X56926500Y-89419174D01*
X56971693Y-89191973D01*
X57060342Y-88977955D01*
X57173370Y-88808797D01*
X57189039Y-88785346D01*
X57352846Y-88621539D01*
X57545454Y-88492843D01*
X57545455Y-88492842D01*
X57759473Y-88404193D01*
X57910940Y-88374064D01*
X57986673Y-88359000D01*
X58218327Y-88359000D01*
X58294060Y-88374064D01*
X58294060Y-88374064D01*
G37*
G36*
X86312604Y-88009585D02*
G01*
X86481126Y-88079389D01*
X86632791Y-88180728D01*
X86761772Y-88309709D01*
X86863111Y-88461374D01*
X86932915Y-88629896D01*
X86968500Y-88808797D01*
X86968500Y-88991203D01*
X86932915Y-89170104D01*
X86863111Y-89338626D01*
X86761772Y-89490291D01*
X86632791Y-89619272D01*
X86481126Y-89720611D01*
X86312604Y-89790415D01*
X86133703Y-89826000D01*
X85951297Y-89826000D01*
X85772396Y-89790415D01*
X85603874Y-89720611D01*
X85452209Y-89619272D01*
X85323228Y-89490291D01*
X85221889Y-89338626D01*
X85152085Y-89170104D01*
X85116500Y-88991203D01*
X85116500Y-88808797D01*
X85152085Y-88629896D01*
X85221889Y-88461374D01*
X85323228Y-88309709D01*
X85452209Y-88180728D01*
X85603874Y-88079389D01*
X85772396Y-88009585D01*
X85951297Y-87974000D01*
X86133703Y-87974000D01*
X86312604Y-88009585D01*
X86312604Y-88009585D01*
G37*
G36*
X76152604Y-88009585D02*
G01*
X76321126Y-88079389D01*
X76472791Y-88180728D01*
X76601772Y-88309709D01*
X76703111Y-88461374D01*
X76772915Y-88629896D01*
X76808500Y-88808797D01*
X76808500Y-88991203D01*
X76772915Y-89170104D01*
X76703111Y-89338626D01*
X76601772Y-89490291D01*
X76472791Y-89619272D01*
X76321126Y-89720611D01*
X76152604Y-89790415D01*
X75973703Y-89826000D01*
X75791297Y-89826000D01*
X75612396Y-89790415D01*
X75443874Y-89720611D01*
X75292209Y-89619272D01*
X75163228Y-89490291D01*
X75061889Y-89338626D01*
X74992085Y-89170104D01*
X74956500Y-88991203D01*
X74956500Y-88808797D01*
X74992085Y-88629896D01*
X75061889Y-88461374D01*
X75163228Y-88309709D01*
X75292209Y-88180728D01*
X75443874Y-88079389D01*
X75612396Y-88009585D01*
X75791297Y-87974000D01*
X75973703Y-87974000D01*
X76152604Y-88009585D01*
X76152604Y-88009585D01*
G37*
G36*
X171402604Y-88009585D02*
G01*
X171571126Y-88079389D01*
X171722791Y-88180728D01*
X171851772Y-88309709D01*
X171953111Y-88461374D01*
X172022915Y-88629896D01*
X172058500Y-88808797D01*
X172058500Y-88991203D01*
X172022915Y-89170104D01*
X171953111Y-89338626D01*
X171851772Y-89490291D01*
X171722791Y-89619272D01*
X171571126Y-89720611D01*
X171402604Y-89790415D01*
X171223703Y-89826000D01*
X171041297Y-89826000D01*
X170862396Y-89790415D01*
X170693874Y-89720611D01*
X170542209Y-89619272D01*
X170413228Y-89490291D01*
X170311889Y-89338626D01*
X170242085Y-89170104D01*
X170206500Y-88991203D01*
X170206500Y-88808797D01*
X170242085Y-88629896D01*
X170311889Y-88461374D01*
X170413228Y-88309709D01*
X170542209Y-88180728D01*
X170693874Y-88079389D01*
X170862396Y-88009585D01*
X171041297Y-87974000D01*
X171223703Y-87974000D01*
X171402604Y-88009585D01*
X171402604Y-88009585D01*
G37*
G36*
X181562604Y-88009585D02*
G01*
X181731126Y-88079389D01*
X181882791Y-88180728D01*
X182011772Y-88309709D01*
X182113111Y-88461374D01*
X182182915Y-88629896D01*
X182218500Y-88808797D01*
X182218500Y-88991203D01*
X182182915Y-89170104D01*
X182113111Y-89338626D01*
X182011772Y-89490291D01*
X181882791Y-89619272D01*
X181731126Y-89720611D01*
X181562604Y-89790415D01*
X181383703Y-89826000D01*
X181201297Y-89826000D01*
X181022396Y-89790415D01*
X180853874Y-89720611D01*
X180702209Y-89619272D01*
X180573228Y-89490291D01*
X180471889Y-89338626D01*
X180402085Y-89170104D01*
X180366500Y-88991203D01*
X180366500Y-88808797D01*
X180402085Y-88629896D01*
X180471889Y-88461374D01*
X180573228Y-88309709D01*
X180702209Y-88180728D01*
X180853874Y-88079389D01*
X181022396Y-88009585D01*
X181201297Y-87974000D01*
X181383703Y-87974000D01*
X181562604Y-88009585D01*
X181562604Y-88009585D01*
G37*
G36*
X200073642Y-87509781D02*
G01*
X200175678Y-87552046D01*
X200219416Y-87570163D01*
X200350608Y-87657822D01*
X200462178Y-87769392D01*
X200462517Y-87769900D01*
X200549838Y-87900586D01*
X200610219Y-88046358D01*
X200641000Y-88201107D01*
X200641000Y-88358893D01*
X200610219Y-88513642D01*
X200562065Y-88629896D01*
X200549837Y-88659416D01*
X200462178Y-88790608D01*
X200350608Y-88902178D01*
X200219416Y-88989837D01*
X200219415Y-88989838D01*
X200219414Y-88989838D01*
X200073642Y-89050219D01*
X199918893Y-89081000D01*
X199761107Y-89081000D01*
X199606358Y-89050219D01*
X199460586Y-88989838D01*
X199460585Y-88989838D01*
X199460584Y-88989837D01*
X199329392Y-88902178D01*
X199217822Y-88790608D01*
X199130163Y-88659416D01*
X199117935Y-88629896D01*
X199069781Y-88513642D01*
X199039000Y-88358893D01*
X199039000Y-88201107D01*
X199069781Y-88046358D01*
X199130162Y-87900586D01*
X199217483Y-87769900D01*
X199217822Y-87769392D01*
X199329392Y-87657822D01*
X199460584Y-87570163D01*
X199504322Y-87552046D01*
X199606358Y-87509781D01*
X199761107Y-87479000D01*
X199918893Y-87479000D01*
X200073642Y-87509781D01*
X200073642Y-87509781D01*
G37*
G36*
X64644060Y-85834064D02*
G01*
X64795527Y-85864193D01*
X65009545Y-85952842D01*
X65009546Y-85952843D01*
X65202154Y-86081539D01*
X65365961Y-86245346D01*
X65451758Y-86373751D01*
X65494658Y-86437955D01*
X65583307Y-86651973D01*
X65593462Y-86703025D01*
X65623712Y-86855100D01*
X65628500Y-86879174D01*
X65628500Y-87110826D01*
X65583307Y-87338027D01*
X65494658Y-87552045D01*
X65482552Y-87570163D01*
X65365961Y-87744654D01*
X65202154Y-87908461D01*
X65073749Y-87994258D01*
X65009545Y-88037158D01*
X64795527Y-88125807D01*
X64644060Y-88155936D01*
X64568327Y-88171000D01*
X64336673Y-88171000D01*
X64260940Y-88155936D01*
X64109473Y-88125807D01*
X63895455Y-88037158D01*
X63831251Y-87994258D01*
X63702846Y-87908461D01*
X63539039Y-87744654D01*
X63422448Y-87570163D01*
X63410342Y-87552045D01*
X63321693Y-87338027D01*
X63276500Y-87110826D01*
X63276500Y-86879174D01*
X63281289Y-86855100D01*
X63311538Y-86703025D01*
X63321693Y-86651973D01*
X63410342Y-86437955D01*
X63453242Y-86373751D01*
X63539039Y-86245346D01*
X63702846Y-86081539D01*
X63895454Y-85952843D01*
X63895455Y-85952842D01*
X64109473Y-85864193D01*
X64260940Y-85834064D01*
X64336673Y-85819000D01*
X64568327Y-85819000D01*
X64644060Y-85834064D01*
X64644060Y-85834064D01*
G37*
G36*
X157758974Y-83758684D02*
G01*
X157910818Y-83821580D01*
X158131123Y-83912833D01*
X158466048Y-84136623D01*
X158750877Y-84421452D01*
X158974667Y-84756377D01*
X159007062Y-84834586D01*
X159128816Y-85128526D01*
X159207400Y-85523594D01*
X159207400Y-85926406D01*
X159128816Y-86321474D01*
X159077951Y-86444272D01*
X158974667Y-86693623D01*
X158750877Y-87028548D01*
X158466048Y-87313377D01*
X158131123Y-87537167D01*
X158051463Y-87570163D01*
X157758974Y-87691316D01*
X157363906Y-87769900D01*
X156961094Y-87769900D01*
X156566026Y-87691316D01*
X156273537Y-87570163D01*
X156193877Y-87537167D01*
X155858952Y-87313377D01*
X155574123Y-87028548D01*
X155350333Y-86693623D01*
X155247049Y-86444272D01*
X155196184Y-86321474D01*
X155117600Y-85926406D01*
X155117600Y-85523594D01*
X155196184Y-85128526D01*
X155317938Y-84834586D01*
X155350333Y-84756377D01*
X155574123Y-84421452D01*
X155858952Y-84136623D01*
X156193877Y-83912833D01*
X156414182Y-83821580D01*
X156566026Y-83758684D01*
X156961094Y-83680100D01*
X157363906Y-83680100D01*
X157758974Y-83758684D01*
X157758974Y-83758684D01*
G37*
G36*
X77344060Y-85199064D02*
G01*
X77495527Y-85229193D01*
X77709545Y-85317842D01*
X77773749Y-85360742D01*
X77902154Y-85446539D01*
X78065961Y-85610346D01*
X78106599Y-85671166D01*
X78194658Y-85802955D01*
X78283307Y-86016973D01*
X78328500Y-86244174D01*
X78328500Y-86475826D01*
X78283307Y-86703027D01*
X78194658Y-86917045D01*
X78194657Y-86917046D01*
X78065961Y-87109654D01*
X77902154Y-87273461D01*
X77773749Y-87359258D01*
X77709545Y-87402158D01*
X77495527Y-87490807D01*
X77344060Y-87520936D01*
X77268327Y-87536000D01*
X77036673Y-87536000D01*
X76960940Y-87520936D01*
X76809473Y-87490807D01*
X76595455Y-87402158D01*
X76531251Y-87359258D01*
X76402846Y-87273461D01*
X76239039Y-87109654D01*
X76110343Y-86917046D01*
X76110342Y-86917045D01*
X76021693Y-86703027D01*
X75976500Y-86475826D01*
X75976500Y-86244174D01*
X76021693Y-86016973D01*
X76110342Y-85802955D01*
X76198401Y-85671166D01*
X76239039Y-85610346D01*
X76402846Y-85446539D01*
X76531251Y-85360742D01*
X76595455Y-85317842D01*
X76809473Y-85229193D01*
X76960940Y-85199064D01*
X77036673Y-85184000D01*
X77268327Y-85184000D01*
X77344060Y-85199064D01*
X77344060Y-85199064D01*
G37*
G36*
X172594060Y-85199064D02*
G01*
X172745527Y-85229193D01*
X172959545Y-85317842D01*
X173023749Y-85360742D01*
X173152154Y-85446539D01*
X173315961Y-85610346D01*
X173356599Y-85671166D01*
X173444658Y-85802955D01*
X173533307Y-86016973D01*
X173578500Y-86244174D01*
X173578500Y-86475826D01*
X173533307Y-86703027D01*
X173444658Y-86917045D01*
X173444657Y-86917046D01*
X173315961Y-87109654D01*
X173152154Y-87273461D01*
X173023749Y-87359258D01*
X172959545Y-87402158D01*
X172745527Y-87490807D01*
X172594060Y-87520936D01*
X172518327Y-87536000D01*
X172286673Y-87536000D01*
X172210940Y-87520936D01*
X172059473Y-87490807D01*
X171845455Y-87402158D01*
X171781251Y-87359258D01*
X171652846Y-87273461D01*
X171489039Y-87109654D01*
X171360343Y-86917046D01*
X171360342Y-86917045D01*
X171271693Y-86703027D01*
X171226500Y-86475826D01*
X171226500Y-86244174D01*
X171271693Y-86016973D01*
X171360342Y-85802955D01*
X171448401Y-85671166D01*
X171489039Y-85610346D01*
X171652846Y-85446539D01*
X171781251Y-85360742D01*
X171845455Y-85317842D01*
X172059473Y-85229193D01*
X172210940Y-85199064D01*
X172286673Y-85184000D01*
X172518327Y-85184000D01*
X172594060Y-85199064D01*
X172594060Y-85199064D01*
G37*
G36*
X202267618Y-84938420D02*
G01*
X202358404Y-84965960D01*
X202390336Y-84975646D01*
X202503425Y-85036094D01*
X202602554Y-85117446D01*
X202683906Y-85216575D01*
X202744354Y-85329664D01*
X202744355Y-85329668D01*
X202781580Y-85452382D01*
X202791000Y-85548027D01*
X202791000Y-86211973D01*
X202781580Y-86307618D01*
X202754040Y-86398404D01*
X202744354Y-86430336D01*
X202683906Y-86543425D01*
X202602554Y-86642553D01*
X202503424Y-86723906D01*
X202390335Y-86784354D01*
X202358403Y-86794040D01*
X202267617Y-86821580D01*
X202140000Y-86834149D01*
X202012382Y-86821580D01*
X201921596Y-86794040D01*
X201889664Y-86784354D01*
X201776575Y-86723906D01*
X201677447Y-86642554D01*
X201596094Y-86543424D01*
X201535646Y-86430335D01*
X201502624Y-86321475D01*
X201498420Y-86307617D01*
X201489000Y-86211972D01*
X201489000Y-85548027D01*
X201498420Y-85452382D01*
X201535645Y-85329668D01*
X201535645Y-85329667D01*
X201596096Y-85216573D01*
X201677447Y-85117446D01*
X201776576Y-85036094D01*
X201889665Y-84975646D01*
X201921597Y-84965960D01*
X202012383Y-84938420D01*
X202140000Y-84925851D01*
X202267618Y-84938420D01*
X202267618Y-84938420D01*
G37*
G36*
X162512604Y-84834585D02*
G01*
X162681126Y-84904389D01*
X162832791Y-85005728D01*
X162961772Y-85134709D01*
X163063111Y-85286374D01*
X163132915Y-85454896D01*
X163168500Y-85633797D01*
X163168500Y-85816203D01*
X163132915Y-85995104D01*
X163063111Y-86163626D01*
X162961772Y-86315291D01*
X162832791Y-86444272D01*
X162681126Y-86545611D01*
X162512604Y-86615415D01*
X162333703Y-86651000D01*
X162151297Y-86651000D01*
X161972396Y-86615415D01*
X161803874Y-86545611D01*
X161652209Y-86444272D01*
X161523228Y-86315291D01*
X161421889Y-86163626D01*
X161352085Y-85995104D01*
X161316500Y-85816203D01*
X161316500Y-85633797D01*
X161352085Y-85454896D01*
X161421889Y-85286374D01*
X161523228Y-85134709D01*
X161652209Y-85005728D01*
X161803874Y-84904389D01*
X161972396Y-84834585D01*
X162151297Y-84799000D01*
X162333703Y-84799000D01*
X162512604Y-84834585D01*
X162512604Y-84834585D01*
G37*
G36*
X152352604Y-84834585D02*
G01*
X152521126Y-84904389D01*
X152672791Y-85005728D01*
X152801772Y-85134709D01*
X152903111Y-85286374D01*
X152972915Y-85454896D01*
X153008500Y-85633797D01*
X153008500Y-85816203D01*
X152972915Y-85995104D01*
X152903111Y-86163626D01*
X152801772Y-86315291D01*
X152672791Y-86444272D01*
X152521126Y-86545611D01*
X152352604Y-86615415D01*
X152173703Y-86651000D01*
X151991297Y-86651000D01*
X151812396Y-86615415D01*
X151643874Y-86545611D01*
X151492209Y-86444272D01*
X151363228Y-86315291D01*
X151261889Y-86163626D01*
X151192085Y-85995104D01*
X151156500Y-85816203D01*
X151156500Y-85633797D01*
X151192085Y-85454896D01*
X151261889Y-85286374D01*
X151363228Y-85134709D01*
X151492209Y-85005728D01*
X151643874Y-84904389D01*
X151812396Y-84834585D01*
X151991297Y-84799000D01*
X152173703Y-84799000D01*
X152352604Y-84834585D01*
X152352604Y-84834585D01*
G37*
G36*
X195721765Y-83474473D02*
G01*
X195825629Y-83505979D01*
X195849282Y-83518622D01*
X195921350Y-83557143D01*
X196005251Y-83625999D01*
X196074107Y-83709900D01*
X196091289Y-83742046D01*
X196125271Y-83805621D01*
X196156777Y-83909485D01*
X196164750Y-83990433D01*
X196164750Y-85144567D01*
X196156777Y-85225515D01*
X196125271Y-85329379D01*
X196074106Y-85425100D01*
X196005251Y-85509001D01*
X195957698Y-85548026D01*
X195921349Y-85577857D01*
X195869657Y-85605487D01*
X195825628Y-85629021D01*
X195721764Y-85660527D01*
X195613750Y-85671166D01*
X195505735Y-85660527D01*
X195401871Y-85629021D01*
X195357843Y-85605487D01*
X195306151Y-85577857D01*
X195269802Y-85548026D01*
X195222249Y-85509001D01*
X195153394Y-85425100D01*
X195102229Y-85329378D01*
X195070723Y-85225514D01*
X195062750Y-85144566D01*
X195062751Y-83990433D01*
X195070724Y-83909485D01*
X195102230Y-83805621D01*
X195136212Y-83742046D01*
X195153394Y-83709900D01*
X195222250Y-83625999D01*
X195306151Y-83557143D01*
X195378219Y-83518622D01*
X195401872Y-83505979D01*
X195505736Y-83474473D01*
X195613750Y-83463834D01*
X195721765Y-83474473D01*
X195721765Y-83474473D01*
G37*
G36*
X187081765Y-83474473D02*
G01*
X187185629Y-83505979D01*
X187209282Y-83518622D01*
X187281350Y-83557143D01*
X187365251Y-83625999D01*
X187434107Y-83709900D01*
X187451289Y-83742046D01*
X187485271Y-83805621D01*
X187516777Y-83909485D01*
X187524750Y-83990433D01*
X187524750Y-85144567D01*
X187516777Y-85225515D01*
X187485271Y-85329379D01*
X187434106Y-85425100D01*
X187365251Y-85509001D01*
X187317698Y-85548026D01*
X187281349Y-85577857D01*
X187229657Y-85605487D01*
X187185628Y-85629021D01*
X187081764Y-85660527D01*
X186973750Y-85671166D01*
X186865735Y-85660527D01*
X186761871Y-85629021D01*
X186717843Y-85605487D01*
X186666151Y-85577857D01*
X186629802Y-85548026D01*
X186582249Y-85509001D01*
X186513394Y-85425100D01*
X186462229Y-85329378D01*
X186430723Y-85225514D01*
X186422750Y-85144566D01*
X186422751Y-83990433D01*
X186430724Y-83909485D01*
X186462230Y-83805621D01*
X186496212Y-83742046D01*
X186513394Y-83709900D01*
X186582250Y-83625999D01*
X186666151Y-83557143D01*
X186738219Y-83518622D01*
X186761872Y-83505979D01*
X186865736Y-83474473D01*
X186973750Y-83463834D01*
X187081765Y-83474473D01*
X187081765Y-83474473D01*
G37*
G36*
X178944060Y-82659064D02*
G01*
X179095527Y-82689193D01*
X179309545Y-82777842D01*
X179309546Y-82777843D01*
X179502154Y-82906539D01*
X179665961Y-83070346D01*
X179751758Y-83198751D01*
X179794658Y-83262955D01*
X179883307Y-83476973D01*
X179893462Y-83528025D01*
X179923712Y-83680100D01*
X179928500Y-83704174D01*
X179928500Y-83935826D01*
X179883307Y-84163027D01*
X179794658Y-84377045D01*
X179779954Y-84399051D01*
X179665961Y-84569654D01*
X179502154Y-84733461D01*
X179373749Y-84819258D01*
X179309545Y-84862158D01*
X179095527Y-84950807D01*
X178944060Y-84980936D01*
X178868327Y-84996000D01*
X178636673Y-84996000D01*
X178560940Y-84980936D01*
X178409473Y-84950807D01*
X178195455Y-84862158D01*
X178131251Y-84819258D01*
X178002846Y-84733461D01*
X177839039Y-84569654D01*
X177725046Y-84399051D01*
X177710342Y-84377045D01*
X177621693Y-84163027D01*
X177576500Y-83935826D01*
X177576500Y-83704174D01*
X177581289Y-83680100D01*
X177611538Y-83528025D01*
X177621693Y-83476973D01*
X177710342Y-83262955D01*
X177753242Y-83198751D01*
X177839039Y-83070346D01*
X178002846Y-82906539D01*
X178195454Y-82777843D01*
X178195455Y-82777842D01*
X178409473Y-82689193D01*
X178560940Y-82659064D01*
X178636673Y-82644000D01*
X178868327Y-82644000D01*
X178944060Y-82659064D01*
X178944060Y-82659064D01*
G37*
G36*
X83694060Y-82659064D02*
G01*
X83845527Y-82689193D01*
X84059545Y-82777842D01*
X84059546Y-82777843D01*
X84252154Y-82906539D01*
X84415961Y-83070346D01*
X84501758Y-83198751D01*
X84544658Y-83262955D01*
X84633307Y-83476973D01*
X84643462Y-83528025D01*
X84673712Y-83680100D01*
X84678500Y-83704174D01*
X84678500Y-83935826D01*
X84633307Y-84163027D01*
X84544658Y-84377045D01*
X84529954Y-84399051D01*
X84415961Y-84569654D01*
X84252154Y-84733461D01*
X84123749Y-84819258D01*
X84059545Y-84862158D01*
X83845527Y-84950807D01*
X83694060Y-84980936D01*
X83618327Y-84996000D01*
X83386673Y-84996000D01*
X83310940Y-84980936D01*
X83159473Y-84950807D01*
X82945455Y-84862158D01*
X82881251Y-84819258D01*
X82752846Y-84733461D01*
X82589039Y-84569654D01*
X82475046Y-84399051D01*
X82460342Y-84377045D01*
X82371693Y-84163027D01*
X82326500Y-83935826D01*
X82326500Y-83704174D01*
X82331289Y-83680100D01*
X82361538Y-83528025D01*
X82371693Y-83476973D01*
X82460342Y-83262955D01*
X82503242Y-83198751D01*
X82589039Y-83070346D01*
X82752846Y-82906539D01*
X82945454Y-82777843D01*
X82945455Y-82777842D01*
X83159473Y-82689193D01*
X83310940Y-82659064D01*
X83386673Y-82644000D01*
X83618327Y-82644000D01*
X83694060Y-82659064D01*
X83694060Y-82659064D01*
G37*
G36*
X138708974Y-80583684D02*
G01*
X138926974Y-80673983D01*
X139081123Y-80737833D01*
X139416048Y-80961623D01*
X139700877Y-81246452D01*
X139924667Y-81581377D01*
X139957062Y-81659586D01*
X140078816Y-81953526D01*
X140157400Y-82348594D01*
X140157400Y-82751406D01*
X140078816Y-83146474D01*
X140027951Y-83269272D01*
X139924667Y-83518623D01*
X139700877Y-83853548D01*
X139416048Y-84138377D01*
X139081123Y-84362167D01*
X138937996Y-84421452D01*
X138708974Y-84516316D01*
X138313906Y-84594900D01*
X137911094Y-84594900D01*
X137516026Y-84516316D01*
X137287004Y-84421452D01*
X137143877Y-84362167D01*
X136808952Y-84138377D01*
X136524123Y-83853548D01*
X136300333Y-83518623D01*
X136197049Y-83269272D01*
X136146184Y-83146474D01*
X136067600Y-82751406D01*
X136067600Y-82348594D01*
X136146184Y-81953526D01*
X136267938Y-81659586D01*
X136300333Y-81581377D01*
X136524123Y-81246452D01*
X136808952Y-80961623D01*
X137143877Y-80737833D01*
X137298026Y-80673983D01*
X137516026Y-80583684D01*
X137911094Y-80505100D01*
X138313906Y-80505100D01*
X138708974Y-80583684D01*
X138708974Y-80583684D01*
G37*
G36*
X100608974Y-80583684D02*
G01*
X100826974Y-80673983D01*
X100981123Y-80737833D01*
X101316048Y-80961623D01*
X101600877Y-81246452D01*
X101824667Y-81581377D01*
X101857062Y-81659586D01*
X101978816Y-81953526D01*
X102057400Y-82348594D01*
X102057400Y-82751406D01*
X101978816Y-83146474D01*
X101927951Y-83269272D01*
X101824667Y-83518623D01*
X101600877Y-83853548D01*
X101316048Y-84138377D01*
X100981123Y-84362167D01*
X100837996Y-84421452D01*
X100608974Y-84516316D01*
X100213906Y-84594900D01*
X99811094Y-84594900D01*
X99416026Y-84516316D01*
X99187004Y-84421452D01*
X99043877Y-84362167D01*
X98708952Y-84138377D01*
X98424123Y-83853548D01*
X98200333Y-83518623D01*
X98097049Y-83269272D01*
X98046184Y-83146474D01*
X97967600Y-82751406D01*
X97967600Y-82348594D01*
X98046184Y-81953526D01*
X98167938Y-81659586D01*
X98200333Y-81581377D01*
X98424123Y-81246452D01*
X98708952Y-80961623D01*
X99043877Y-80737833D01*
X99198026Y-80673983D01*
X99416026Y-80583684D01*
X99811094Y-80505100D01*
X100213906Y-80505100D01*
X100608974Y-80583684D01*
X100608974Y-80583684D01*
G37*
G36*
X194293422Y-83675949D02*
G01*
X194293424Y-83675950D01*
X194293425Y-83675950D01*
X194361853Y-83704293D01*
X194423436Y-83745442D01*
X194475808Y-83797814D01*
X194516957Y-83859397D01*
X194537704Y-83909487D01*
X194545301Y-83927828D01*
X194546659Y-83934656D01*
X194559750Y-84000467D01*
X194559750Y-84074533D01*
X194545300Y-84147175D01*
X194516957Y-84215603D01*
X194475808Y-84277186D01*
X194423436Y-84329558D01*
X194361853Y-84370707D01*
X194293425Y-84399050D01*
X194293424Y-84399050D01*
X194293422Y-84399051D01*
X194220784Y-84413500D01*
X194146716Y-84413500D01*
X194074078Y-84399051D01*
X194074076Y-84399050D01*
X194074075Y-84399050D01*
X194005647Y-84370707D01*
X193944064Y-84329558D01*
X193891692Y-84277186D01*
X193850543Y-84215603D01*
X193822200Y-84147175D01*
X193807750Y-84074533D01*
X193807750Y-84000467D01*
X193820841Y-83934656D01*
X193822199Y-83927828D01*
X193829796Y-83909487D01*
X193850543Y-83859397D01*
X193891692Y-83797814D01*
X193944064Y-83745442D01*
X194005647Y-83704293D01*
X194074075Y-83675950D01*
X194074076Y-83675950D01*
X194074078Y-83675949D01*
X194146716Y-83661500D01*
X194220784Y-83661500D01*
X194293422Y-83675949D01*
X194293422Y-83675949D01*
G37*
G36*
X188513422Y-83675949D02*
G01*
X188513424Y-83675950D01*
X188513425Y-83675950D01*
X188581853Y-83704293D01*
X188643436Y-83745442D01*
X188695808Y-83797814D01*
X188736957Y-83859397D01*
X188757704Y-83909487D01*
X188765301Y-83927828D01*
X188766659Y-83934656D01*
X188779750Y-84000467D01*
X188779750Y-84074533D01*
X188765300Y-84147175D01*
X188736957Y-84215603D01*
X188695808Y-84277186D01*
X188643436Y-84329558D01*
X188581853Y-84370707D01*
X188513425Y-84399050D01*
X188513424Y-84399050D01*
X188513422Y-84399051D01*
X188440784Y-84413500D01*
X188366716Y-84413500D01*
X188294078Y-84399051D01*
X188294076Y-84399050D01*
X188294075Y-84399050D01*
X188225647Y-84370707D01*
X188164064Y-84329558D01*
X188111692Y-84277186D01*
X188070543Y-84215603D01*
X188042200Y-84147175D01*
X188027750Y-84074533D01*
X188027750Y-84000467D01*
X188040841Y-83934656D01*
X188042199Y-83927828D01*
X188049796Y-83909487D01*
X188070543Y-83859397D01*
X188111692Y-83797814D01*
X188164064Y-83745442D01*
X188225647Y-83704293D01*
X188294075Y-83675950D01*
X188294076Y-83675950D01*
X188294078Y-83675949D01*
X188366716Y-83661500D01*
X188440784Y-83661500D01*
X188513422Y-83675949D01*
X188513422Y-83675949D01*
G37*
G36*
X153544060Y-82024064D02*
G01*
X153695527Y-82054193D01*
X153909545Y-82142842D01*
X153909546Y-82142843D01*
X154102154Y-82271539D01*
X154265961Y-82435346D01*
X154277345Y-82452384D01*
X154394658Y-82627955D01*
X154483307Y-82841973D01*
X154483307Y-82841975D01*
X154528500Y-83069173D01*
X154528500Y-83300827D01*
X154527149Y-83307617D01*
X154483307Y-83528027D01*
X154394658Y-83742045D01*
X154394657Y-83742046D01*
X154265961Y-83934654D01*
X154102154Y-84098461D01*
X153973749Y-84184258D01*
X153909545Y-84227158D01*
X153695527Y-84315807D01*
X153544060Y-84345936D01*
X153468327Y-84361000D01*
X153236673Y-84361000D01*
X153160940Y-84345936D01*
X153009473Y-84315807D01*
X152795455Y-84227158D01*
X152731251Y-84184258D01*
X152602846Y-84098461D01*
X152439039Y-83934654D01*
X152310343Y-83742046D01*
X152310342Y-83742045D01*
X152221693Y-83528027D01*
X152177851Y-83307617D01*
X152176500Y-83300827D01*
X152176500Y-83069173D01*
X152221693Y-82841975D01*
X152221693Y-82841973D01*
X152310342Y-82627955D01*
X152427655Y-82452384D01*
X152439039Y-82435346D01*
X152602846Y-82271539D01*
X152795454Y-82142843D01*
X152795455Y-82142842D01*
X153009473Y-82054193D01*
X153160940Y-82024064D01*
X153236673Y-82009000D01*
X153468327Y-82009000D01*
X153544060Y-82024064D01*
X153544060Y-82024064D01*
G37*
G36*
X202267618Y-81938420D02*
G01*
X202358404Y-81965960D01*
X202390336Y-81975646D01*
X202503425Y-82036094D01*
X202602554Y-82117446D01*
X202683906Y-82216575D01*
X202744354Y-82329664D01*
X202754040Y-82361596D01*
X202781580Y-82452382D01*
X202791000Y-82548027D01*
X202791000Y-83211973D01*
X202781580Y-83307618D01*
X202762471Y-83370611D01*
X202744354Y-83430336D01*
X202683906Y-83543425D01*
X202602554Y-83642553D01*
X202503424Y-83723906D01*
X202390335Y-83784354D01*
X202358403Y-83794040D01*
X202267617Y-83821580D01*
X202140000Y-83834149D01*
X202012382Y-83821580D01*
X201921596Y-83794040D01*
X201889664Y-83784354D01*
X201776575Y-83723906D01*
X201677447Y-83642554D01*
X201596094Y-83543424D01*
X201535646Y-83430335D01*
X201517529Y-83370611D01*
X201498420Y-83307617D01*
X201489000Y-83211972D01*
X201489000Y-82548027D01*
X201498420Y-82452382D01*
X201523237Y-82370573D01*
X201535645Y-82329667D01*
X201596096Y-82216573D01*
X201677447Y-82117446D01*
X201776576Y-82036094D01*
X201889665Y-81975646D01*
X201921597Y-81965960D01*
X202012383Y-81938420D01*
X202140000Y-81925851D01*
X202267618Y-81938420D01*
X202267618Y-81938420D01*
G37*
G36*
X143462604Y-81659585D02*
G01*
X143631126Y-81729389D01*
X143782791Y-81830728D01*
X143911772Y-81959709D01*
X144013111Y-82111374D01*
X144082915Y-82279896D01*
X144118500Y-82458797D01*
X144118500Y-82641203D01*
X144082915Y-82820104D01*
X144013111Y-82988626D01*
X143911772Y-83140291D01*
X143782791Y-83269272D01*
X143631126Y-83370611D01*
X143462604Y-83440415D01*
X143283703Y-83476000D01*
X143101297Y-83476000D01*
X142922396Y-83440415D01*
X142753874Y-83370611D01*
X142602209Y-83269272D01*
X142473228Y-83140291D01*
X142371889Y-82988626D01*
X142302085Y-82820104D01*
X142266500Y-82641203D01*
X142266500Y-82458797D01*
X142302085Y-82279896D01*
X142371889Y-82111374D01*
X142473228Y-81959709D01*
X142602209Y-81830728D01*
X142753874Y-81729389D01*
X142922396Y-81659585D01*
X143101297Y-81624000D01*
X143283703Y-81624000D01*
X143462604Y-81659585D01*
X143462604Y-81659585D01*
G37*
G36*
X95202604Y-81659585D02*
G01*
X95371126Y-81729389D01*
X95522791Y-81830728D01*
X95651772Y-81959709D01*
X95753111Y-82111374D01*
X95822915Y-82279896D01*
X95858500Y-82458797D01*
X95858500Y-82641203D01*
X95822915Y-82820104D01*
X95753111Y-82988626D01*
X95651772Y-83140291D01*
X95522791Y-83269272D01*
X95371126Y-83370611D01*
X95202604Y-83440415D01*
X95023703Y-83476000D01*
X94841297Y-83476000D01*
X94662396Y-83440415D01*
X94493874Y-83370611D01*
X94342209Y-83269272D01*
X94213228Y-83140291D01*
X94111889Y-82988626D01*
X94042085Y-82820104D01*
X94006500Y-82641203D01*
X94006500Y-82458797D01*
X94042085Y-82279896D01*
X94111889Y-82111374D01*
X94213228Y-81959709D01*
X94342209Y-81830728D01*
X94493874Y-81729389D01*
X94662396Y-81659585D01*
X94841297Y-81624000D01*
X95023703Y-81624000D01*
X95202604Y-81659585D01*
X95202604Y-81659585D01*
G37*
G36*
X105362604Y-81659585D02*
G01*
X105531126Y-81729389D01*
X105682791Y-81830728D01*
X105811772Y-81959709D01*
X105913111Y-82111374D01*
X105982915Y-82279896D01*
X106018500Y-82458797D01*
X106018500Y-82641203D01*
X105982915Y-82820104D01*
X105913111Y-82988626D01*
X105811772Y-83140291D01*
X105682791Y-83269272D01*
X105531126Y-83370611D01*
X105362604Y-83440415D01*
X105183703Y-83476000D01*
X105001297Y-83476000D01*
X104822396Y-83440415D01*
X104653874Y-83370611D01*
X104502209Y-83269272D01*
X104373228Y-83140291D01*
X104271889Y-82988626D01*
X104202085Y-82820104D01*
X104166500Y-82641203D01*
X104166500Y-82458797D01*
X104202085Y-82279896D01*
X104271889Y-82111374D01*
X104373228Y-81959709D01*
X104502209Y-81830728D01*
X104653874Y-81729389D01*
X104822396Y-81659585D01*
X105001297Y-81624000D01*
X105183703Y-81624000D01*
X105362604Y-81659585D01*
X105362604Y-81659585D01*
G37*
G36*
X133302604Y-81659585D02*
G01*
X133471126Y-81729389D01*
X133622791Y-81830728D01*
X133751772Y-81959709D01*
X133853111Y-82111374D01*
X133922915Y-82279896D01*
X133958500Y-82458797D01*
X133958500Y-82641203D01*
X133922915Y-82820104D01*
X133853111Y-82988626D01*
X133751772Y-83140291D01*
X133622791Y-83269272D01*
X133471126Y-83370611D01*
X133302604Y-83440415D01*
X133123703Y-83476000D01*
X132941297Y-83476000D01*
X132762396Y-83440415D01*
X132593874Y-83370611D01*
X132442209Y-83269272D01*
X132313228Y-83140291D01*
X132211889Y-82988626D01*
X132142085Y-82820104D01*
X132106500Y-82641203D01*
X132106500Y-82458797D01*
X132142085Y-82279896D01*
X132211889Y-82111374D01*
X132313228Y-81959709D01*
X132442209Y-81830728D01*
X132593874Y-81729389D01*
X132762396Y-81659585D01*
X132941297Y-81624000D01*
X133123703Y-81624000D01*
X133302604Y-81659585D01*
X133302604Y-81659585D01*
G37*
G36*
X200073642Y-80509781D02*
G01*
X200211891Y-80567046D01*
X200219416Y-80570163D01*
X200350608Y-80657822D01*
X200462178Y-80769392D01*
X200549031Y-80899378D01*
X200549838Y-80900586D01*
X200610219Y-81046358D01*
X200641000Y-81201107D01*
X200641000Y-81358893D01*
X200610219Y-81513642D01*
X200564507Y-81624000D01*
X200549837Y-81659416D01*
X200462178Y-81790608D01*
X200350608Y-81902178D01*
X200219416Y-81989837D01*
X200219415Y-81989838D01*
X200219414Y-81989838D01*
X200073642Y-82050219D01*
X199918893Y-82081000D01*
X199761107Y-82081000D01*
X199606358Y-82050219D01*
X199460586Y-81989838D01*
X199460585Y-81989838D01*
X199460584Y-81989837D01*
X199329392Y-81902178D01*
X199217822Y-81790608D01*
X199130163Y-81659416D01*
X199115493Y-81624000D01*
X199069781Y-81513642D01*
X199039000Y-81358893D01*
X199039000Y-81201107D01*
X199069781Y-81046358D01*
X199130162Y-80900586D01*
X199130969Y-80899378D01*
X199217822Y-80769392D01*
X199329392Y-80657822D01*
X199460584Y-80570163D01*
X199468109Y-80567046D01*
X199606358Y-80509781D01*
X199761107Y-80479000D01*
X199918893Y-80479000D01*
X200073642Y-80509781D01*
X200073642Y-80509781D01*
G37*
G36*
X159894060Y-79484064D02*
G01*
X160045527Y-79514193D01*
X160259545Y-79602842D01*
X160259546Y-79602843D01*
X160452154Y-79731539D01*
X160615961Y-79895346D01*
X160672182Y-79979487D01*
X160744658Y-80087955D01*
X160833307Y-80301973D01*
X160843462Y-80353025D01*
X160873712Y-80505100D01*
X160878500Y-80529174D01*
X160878500Y-80760826D01*
X160833307Y-80988027D01*
X160744658Y-81202045D01*
X160744657Y-81202046D01*
X160615961Y-81394654D01*
X160452154Y-81558461D01*
X160323749Y-81644258D01*
X160259545Y-81687158D01*
X160045527Y-81775807D01*
X159894060Y-81805936D01*
X159818327Y-81821000D01*
X159586673Y-81821000D01*
X159510940Y-81805936D01*
X159359473Y-81775807D01*
X159145455Y-81687158D01*
X159081251Y-81644258D01*
X158952846Y-81558461D01*
X158789039Y-81394654D01*
X158660343Y-81202046D01*
X158660342Y-81202045D01*
X158571693Y-80988027D01*
X158526500Y-80760826D01*
X158526500Y-80529174D01*
X158531289Y-80505100D01*
X158561538Y-80353025D01*
X158571693Y-80301973D01*
X158660342Y-80087955D01*
X158732818Y-79979487D01*
X158789039Y-79895346D01*
X158952846Y-79731539D01*
X159145454Y-79602843D01*
X159145455Y-79602842D01*
X159359473Y-79514193D01*
X159510940Y-79484064D01*
X159586673Y-79469000D01*
X159818327Y-79469000D01*
X159894060Y-79484064D01*
X159894060Y-79484064D01*
G37*
G36*
X119658974Y-77408684D02*
G01*
X119876974Y-77498983D01*
X120031123Y-77562833D01*
X120366048Y-77786623D01*
X120650877Y-78071452D01*
X120874667Y-78406377D01*
X120907062Y-78484586D01*
X121028816Y-78778526D01*
X121107400Y-79173594D01*
X121107400Y-79576406D01*
X121028816Y-79971474D01*
X120977951Y-80094272D01*
X120874667Y-80343623D01*
X120650877Y-80678548D01*
X120366048Y-80963377D01*
X120031123Y-81187167D01*
X119926442Y-81230527D01*
X119658974Y-81341316D01*
X119263906Y-81419900D01*
X118861094Y-81419900D01*
X118466026Y-81341316D01*
X118198558Y-81230527D01*
X118093877Y-81187167D01*
X117758952Y-80963377D01*
X117474123Y-80678548D01*
X117250333Y-80343623D01*
X117147049Y-80094272D01*
X117096184Y-79971474D01*
X117017600Y-79576406D01*
X117017600Y-79173594D01*
X117096184Y-78778526D01*
X117217938Y-78484586D01*
X117250333Y-78406377D01*
X117474123Y-78071452D01*
X117758952Y-77786623D01*
X118093877Y-77562833D01*
X118248026Y-77498983D01*
X118466026Y-77408684D01*
X118861094Y-77330100D01*
X119263906Y-77330100D01*
X119658974Y-77408684D01*
X119658974Y-77408684D01*
G37*
G36*
X195721765Y-79544473D02*
G01*
X195825629Y-79575979D01*
X195852805Y-79590505D01*
X195921350Y-79627143D01*
X196005251Y-79695999D01*
X196074107Y-79779900D01*
X196110745Y-79848445D01*
X196125271Y-79875621D01*
X196156777Y-79979485D01*
X196164750Y-80060433D01*
X196164750Y-80714567D01*
X196156777Y-80795515D01*
X196125271Y-80899379D01*
X196074106Y-80995100D01*
X196005251Y-81079001D01*
X195936395Y-81135509D01*
X195921349Y-81147857D01*
X195869657Y-81175487D01*
X195825628Y-81199021D01*
X195721764Y-81230527D01*
X195613750Y-81241166D01*
X195505735Y-81230527D01*
X195401871Y-81199021D01*
X195357843Y-81175487D01*
X195306151Y-81147857D01*
X195293393Y-81137387D01*
X195222249Y-81079001D01*
X195153394Y-80995100D01*
X195136438Y-80963377D01*
X195102874Y-80900584D01*
X195102229Y-80899378D01*
X195070723Y-80795514D01*
X195062750Y-80714566D01*
X195062750Y-80060433D01*
X195070723Y-79979485D01*
X195102230Y-79875621D01*
X195102232Y-79875618D01*
X195153395Y-79779899D01*
X195222250Y-79695999D01*
X195306151Y-79627143D01*
X195374696Y-79590505D01*
X195401872Y-79575979D01*
X195505736Y-79544473D01*
X195613750Y-79533834D01*
X195721765Y-79544473D01*
X195721765Y-79544473D01*
G37*
G36*
X187081765Y-79544473D02*
G01*
X187185629Y-79575979D01*
X187212805Y-79590505D01*
X187281350Y-79627143D01*
X187365251Y-79695999D01*
X187434107Y-79779900D01*
X187470745Y-79848445D01*
X187485271Y-79875621D01*
X187516777Y-79979485D01*
X187524750Y-80060433D01*
X187524750Y-80714567D01*
X187516777Y-80795515D01*
X187485271Y-80899379D01*
X187434106Y-80995100D01*
X187365251Y-81079001D01*
X187296395Y-81135509D01*
X187281349Y-81147857D01*
X187229657Y-81175487D01*
X187185628Y-81199021D01*
X187081764Y-81230527D01*
X186973750Y-81241166D01*
X186865735Y-81230527D01*
X186761871Y-81199021D01*
X186717843Y-81175487D01*
X186666151Y-81147857D01*
X186653393Y-81137387D01*
X186582249Y-81079001D01*
X186513394Y-80995100D01*
X186496438Y-80963377D01*
X186462874Y-80900584D01*
X186462229Y-80899378D01*
X186430723Y-80795514D01*
X186422750Y-80714566D01*
X186422750Y-80060433D01*
X186430723Y-79979485D01*
X186462230Y-79875621D01*
X186462232Y-79875618D01*
X186513395Y-79779899D01*
X186582250Y-79695999D01*
X186666151Y-79627143D01*
X186734696Y-79590505D01*
X186761872Y-79575979D01*
X186865736Y-79544473D01*
X186973750Y-79533834D01*
X187081765Y-79544473D01*
X187081765Y-79544473D01*
G37*
G36*
X134494060Y-78849064D02*
G01*
X134645527Y-78879193D01*
X134859545Y-78967842D01*
X134859546Y-78967843D01*
X135052154Y-79096539D01*
X135215961Y-79260346D01*
X135231630Y-79283797D01*
X135344658Y-79452955D01*
X135433307Y-79666973D01*
X135478500Y-79894174D01*
X135478500Y-80125826D01*
X135433307Y-80353027D01*
X135344658Y-80567045D01*
X135333540Y-80583684D01*
X135215961Y-80759654D01*
X135052154Y-80923461D01*
X134944940Y-80995099D01*
X134859545Y-81052158D01*
X134645527Y-81140807D01*
X134494060Y-81170936D01*
X134418327Y-81186000D01*
X134186673Y-81186000D01*
X134110940Y-81170936D01*
X133959473Y-81140807D01*
X133745455Y-81052158D01*
X133660060Y-80995099D01*
X133552846Y-80923461D01*
X133389039Y-80759654D01*
X133271460Y-80583684D01*
X133260342Y-80567045D01*
X133171693Y-80353027D01*
X133126500Y-80125826D01*
X133126500Y-79894174D01*
X133171693Y-79666973D01*
X133260342Y-79452955D01*
X133373370Y-79283797D01*
X133389039Y-79260346D01*
X133552846Y-79096539D01*
X133745454Y-78967843D01*
X133745455Y-78967842D01*
X133959473Y-78879193D01*
X134110940Y-78849064D01*
X134186673Y-78834000D01*
X134418327Y-78834000D01*
X134494060Y-78849064D01*
X134494060Y-78849064D01*
G37*
G36*
X96394060Y-78849064D02*
G01*
X96545527Y-78879193D01*
X96759545Y-78967842D01*
X96759546Y-78967843D01*
X96952154Y-79096539D01*
X97115961Y-79260346D01*
X97131630Y-79283797D01*
X97244658Y-79452955D01*
X97333307Y-79666973D01*
X97378500Y-79894174D01*
X97378500Y-80125826D01*
X97333307Y-80353027D01*
X97244658Y-80567045D01*
X97233540Y-80583684D01*
X97115961Y-80759654D01*
X96952154Y-80923461D01*
X96844940Y-80995099D01*
X96759545Y-81052158D01*
X96545527Y-81140807D01*
X96394060Y-81170936D01*
X96318327Y-81186000D01*
X96086673Y-81186000D01*
X96010940Y-81170936D01*
X95859473Y-81140807D01*
X95645455Y-81052158D01*
X95560060Y-80995099D01*
X95452846Y-80923461D01*
X95289039Y-80759654D01*
X95171460Y-80583684D01*
X95160342Y-80567045D01*
X95071693Y-80353027D01*
X95026500Y-80125826D01*
X95026500Y-79894174D01*
X95071693Y-79666973D01*
X95160342Y-79452955D01*
X95273370Y-79283797D01*
X95289039Y-79260346D01*
X95452846Y-79096539D01*
X95645454Y-78967843D01*
X95645455Y-78967842D01*
X95859473Y-78879193D01*
X96010940Y-78849064D01*
X96086673Y-78834000D01*
X96318327Y-78834000D01*
X96394060Y-78849064D01*
X96394060Y-78849064D01*
G37*
G36*
X114252604Y-78484585D02*
G01*
X114421126Y-78554389D01*
X114572791Y-78655728D01*
X114701772Y-78784709D01*
X114803111Y-78936374D01*
X114872915Y-79104896D01*
X114908500Y-79283797D01*
X114908500Y-79466203D01*
X114872915Y-79645104D01*
X114803111Y-79813626D01*
X114701772Y-79965291D01*
X114572791Y-80094272D01*
X114421126Y-80195611D01*
X114252604Y-80265415D01*
X114073703Y-80301000D01*
X113891297Y-80301000D01*
X113712396Y-80265415D01*
X113543874Y-80195611D01*
X113392209Y-80094272D01*
X113263228Y-79965291D01*
X113161889Y-79813626D01*
X113092085Y-79645104D01*
X113056500Y-79466203D01*
X113056500Y-79283797D01*
X113092085Y-79104896D01*
X113161889Y-78936374D01*
X113263228Y-78784709D01*
X113392209Y-78655728D01*
X113543874Y-78554389D01*
X113712396Y-78484585D01*
X113891297Y-78449000D01*
X114073703Y-78449000D01*
X114252604Y-78484585D01*
X114252604Y-78484585D01*
G37*
G36*
X124412604Y-78484585D02*
G01*
X124581126Y-78554389D01*
X124732791Y-78655728D01*
X124861772Y-78784709D01*
X124963111Y-78936374D01*
X125032915Y-79104896D01*
X125068500Y-79283797D01*
X125068500Y-79466203D01*
X125032915Y-79645104D01*
X124963111Y-79813626D01*
X124861772Y-79965291D01*
X124732791Y-80094272D01*
X124581126Y-80195611D01*
X124412604Y-80265415D01*
X124233703Y-80301000D01*
X124051297Y-80301000D01*
X123872396Y-80265415D01*
X123703874Y-80195611D01*
X123552209Y-80094272D01*
X123423228Y-79965291D01*
X123321889Y-79813626D01*
X123252085Y-79645104D01*
X123216500Y-79466203D01*
X123216500Y-79283797D01*
X123252085Y-79104896D01*
X123321889Y-78936374D01*
X123423228Y-78784709D01*
X123552209Y-78655728D01*
X123703874Y-78554389D01*
X123872396Y-78484585D01*
X124051297Y-78449000D01*
X124233703Y-78449000D01*
X124412604Y-78484585D01*
X124412604Y-78484585D01*
G37*
G36*
X102744060Y-76309064D02*
G01*
X102895527Y-76339193D01*
X103109545Y-76427842D01*
X103109546Y-76427843D01*
X103302154Y-76556539D01*
X103465961Y-76720346D01*
X103551758Y-76848751D01*
X103594658Y-76912955D01*
X103683307Y-77126973D01*
X103683307Y-77126975D01*
X103723712Y-77330100D01*
X103728500Y-77354174D01*
X103728500Y-77585826D01*
X103683307Y-77813027D01*
X103594658Y-78027045D01*
X103594657Y-78027046D01*
X103465961Y-78219654D01*
X103302154Y-78383461D01*
X103173749Y-78469258D01*
X103109545Y-78512158D01*
X102895527Y-78600807D01*
X102744060Y-78630936D01*
X102668327Y-78646000D01*
X102436673Y-78646000D01*
X102360940Y-78630936D01*
X102209473Y-78600807D01*
X101995455Y-78512158D01*
X101931251Y-78469258D01*
X101802846Y-78383461D01*
X101639039Y-78219654D01*
X101510343Y-78027046D01*
X101510342Y-78027045D01*
X101421693Y-77813027D01*
X101376500Y-77585826D01*
X101376500Y-77354174D01*
X101381289Y-77330100D01*
X101421693Y-77126975D01*
X101421693Y-77126973D01*
X101510342Y-76912955D01*
X101553242Y-76848751D01*
X101639039Y-76720346D01*
X101802846Y-76556539D01*
X101995454Y-76427843D01*
X101995455Y-76427842D01*
X102209473Y-76339193D01*
X102360940Y-76309064D01*
X102436673Y-76294000D01*
X102668327Y-76294000D01*
X102744060Y-76309064D01*
X102744060Y-76309064D01*
G37*
G36*
X140844060Y-76309064D02*
G01*
X140995527Y-76339193D01*
X141209545Y-76427842D01*
X141209546Y-76427843D01*
X141402154Y-76556539D01*
X141565961Y-76720346D01*
X141651758Y-76848751D01*
X141694658Y-76912955D01*
X141783307Y-77126973D01*
X141783307Y-77126975D01*
X141823712Y-77330100D01*
X141828500Y-77354174D01*
X141828500Y-77585826D01*
X141783307Y-77813027D01*
X141694658Y-78027045D01*
X141694657Y-78027046D01*
X141565961Y-78219654D01*
X141402154Y-78383461D01*
X141273749Y-78469258D01*
X141209545Y-78512158D01*
X140995527Y-78600807D01*
X140844060Y-78630936D01*
X140768327Y-78646000D01*
X140536673Y-78646000D01*
X140460940Y-78630936D01*
X140309473Y-78600807D01*
X140095455Y-78512158D01*
X140031251Y-78469258D01*
X139902846Y-78383461D01*
X139739039Y-78219654D01*
X139610343Y-78027046D01*
X139610342Y-78027045D01*
X139521693Y-77813027D01*
X139476500Y-77585826D01*
X139476500Y-77354174D01*
X139481289Y-77330100D01*
X139521693Y-77126975D01*
X139521693Y-77126973D01*
X139610342Y-76912955D01*
X139653242Y-76848751D01*
X139739039Y-76720346D01*
X139902846Y-76556539D01*
X140095454Y-76427843D01*
X140095455Y-76427842D01*
X140309473Y-76339193D01*
X140460940Y-76309064D01*
X140536673Y-76294000D01*
X140768327Y-76294000D01*
X140844060Y-76309064D01*
X140844060Y-76309064D01*
G37*
G36*
X115444060Y-75674064D02*
G01*
X115595527Y-75704193D01*
X115809545Y-75792842D01*
X115809546Y-75792843D01*
X116002154Y-75921539D01*
X116165961Y-76085346D01*
X116251758Y-76213751D01*
X116294658Y-76277955D01*
X116383307Y-76491973D01*
X116428500Y-76719174D01*
X116428500Y-76950826D01*
X116383307Y-77178027D01*
X116294658Y-77392045D01*
X116294657Y-77392046D01*
X116165961Y-77584654D01*
X116002154Y-77748461D01*
X115873749Y-77834258D01*
X115809545Y-77877158D01*
X115595527Y-77965807D01*
X115444060Y-77995936D01*
X115368327Y-78011000D01*
X115136673Y-78011000D01*
X115060940Y-77995936D01*
X114909473Y-77965807D01*
X114695455Y-77877158D01*
X114631251Y-77834258D01*
X114502846Y-77748461D01*
X114339039Y-77584654D01*
X114210343Y-77392046D01*
X114210342Y-77392045D01*
X114121693Y-77178027D01*
X114076500Y-76950826D01*
X114076500Y-76719174D01*
X114121693Y-76491973D01*
X114210342Y-76277955D01*
X114253242Y-76213751D01*
X114339039Y-76085346D01*
X114502846Y-75921539D01*
X114695454Y-75792843D01*
X114695455Y-75792842D01*
X114909473Y-75704193D01*
X115060940Y-75674064D01*
X115136673Y-75659000D01*
X115368327Y-75659000D01*
X115444060Y-75674064D01*
X115444060Y-75674064D01*
G37*
G36*
X121794060Y-73134064D02*
G01*
X121945527Y-73164193D01*
X122159545Y-73252842D01*
X122159546Y-73252843D01*
X122352154Y-73381539D01*
X122515961Y-73545346D01*
X122601758Y-73673751D01*
X122644658Y-73737955D01*
X122733307Y-73951973D01*
X122778500Y-74179174D01*
X122778500Y-74410826D01*
X122733307Y-74638027D01*
X122644658Y-74852045D01*
X122644657Y-74852046D01*
X122515961Y-75044654D01*
X122352154Y-75208461D01*
X122223749Y-75294258D01*
X122159545Y-75337158D01*
X121945527Y-75425807D01*
X121794060Y-75455936D01*
X121718327Y-75471000D01*
X121486673Y-75471000D01*
X121410940Y-75455936D01*
X121259473Y-75425807D01*
X121045455Y-75337158D01*
X120981251Y-75294258D01*
X120852846Y-75208461D01*
X120689039Y-75044654D01*
X120560343Y-74852046D01*
X120560342Y-74852045D01*
X120471693Y-74638027D01*
X120426500Y-74410826D01*
X120426500Y-74179174D01*
X120471693Y-73951973D01*
X120560342Y-73737955D01*
X120603242Y-73673751D01*
X120689039Y-73545346D01*
X120852846Y-73381539D01*
X121045454Y-73252843D01*
X121045455Y-73252842D01*
X121259473Y-73164193D01*
X121410940Y-73134064D01*
X121486673Y-73119000D01*
X121718327Y-73119000D01*
X121794060Y-73134064D01*
X121794060Y-73134064D01*
G37*
M02*
