G04 #@! TF.GenerationSoftware,KiCad,Pcbnew,(5.1.4-0)*
G04 #@! TF.CreationDate,2020-12-01T00:50:15+01:00*
G04 #@! TF.ProjectId,stm32split,73746d33-3273-4706-9c69-742e6b696361,rev?*
G04 #@! TF.SameCoordinates,Original*
G04 #@! TF.FileFunction,Soldermask,Bot*
G04 #@! TF.FilePolarity,Negative*
%FSLAX46Y46*%
G04 Gerber Fmt 4.6, Leading zero omitted, Abs format (unit mm)*
G04 Created by KiCad (PCBNEW (5.1.4-0)) date 2020-12-01 00:50:15*
%MOMM*%
%LPD*%
G04 APERTURE LIST*
%ADD10C,0.100000*%
G04 APERTURE END LIST*
D10*
G36*
X117393201Y-142554386D02*
G01*
X117561723Y-142624190D01*
X117713388Y-142725529D01*
X117842369Y-142854510D01*
X117943708Y-143006175D01*
X118013512Y-143174697D01*
X118049097Y-143353598D01*
X118049097Y-143536004D01*
X118013512Y-143714905D01*
X117943708Y-143883427D01*
X117842369Y-144035092D01*
X117713388Y-144164073D01*
X117561723Y-144265412D01*
X117393201Y-144335216D01*
X117214300Y-144370801D01*
X117031894Y-144370801D01*
X116852993Y-144335216D01*
X116684471Y-144265412D01*
X116532806Y-144164073D01*
X116403825Y-144035092D01*
X116302486Y-143883427D01*
X116232682Y-143714905D01*
X116197097Y-143536004D01*
X116197097Y-143353598D01*
X116232682Y-143174697D01*
X116302486Y-143006175D01*
X116403825Y-142854510D01*
X116532806Y-142725529D01*
X116684471Y-142624190D01*
X116852993Y-142554386D01*
X117031894Y-142518801D01*
X117214300Y-142518801D01*
X117393201Y-142554386D01*
X117393201Y-142554386D01*
G37*
G36*
X122626474Y-140163684D02*
G01*
X122774284Y-140224909D01*
X122998623Y-140317833D01*
X123333548Y-140541623D01*
X123618377Y-140826452D01*
X123842167Y-141161377D01*
X123880460Y-141253825D01*
X123996316Y-141533526D01*
X124074900Y-141928594D01*
X124074900Y-142331406D01*
X123996316Y-142726474D01*
X123943281Y-142854511D01*
X123842167Y-143098623D01*
X123618377Y-143433548D01*
X123333548Y-143718377D01*
X122998623Y-143942167D01*
X122844474Y-144006017D01*
X122626474Y-144096316D01*
X122231406Y-144174900D01*
X121828594Y-144174900D01*
X121433526Y-144096316D01*
X121215526Y-144006017D01*
X121061377Y-143942167D01*
X120726452Y-143718377D01*
X120441623Y-143433548D01*
X120217833Y-143098623D01*
X120116719Y-142854511D01*
X120063684Y-142726474D01*
X119985100Y-142331406D01*
X119985100Y-141928594D01*
X120063684Y-141533526D01*
X120179540Y-141253825D01*
X120217833Y-141161377D01*
X120441623Y-140826452D01*
X120726452Y-140541623D01*
X121061377Y-140317833D01*
X121285716Y-140224909D01*
X121433526Y-140163684D01*
X121828594Y-140085100D01*
X122231406Y-140085100D01*
X122626474Y-140163684D01*
X122626474Y-140163684D01*
G37*
G36*
X117883982Y-139501713D02*
G01*
X118035449Y-139531842D01*
X118249467Y-139620491D01*
X118249468Y-139620492D01*
X118442076Y-139749188D01*
X118605883Y-139912995D01*
X118660401Y-139994588D01*
X118734580Y-140105604D01*
X118823229Y-140319622D01*
X118823229Y-140319624D01*
X118868079Y-140545096D01*
X118868422Y-140546823D01*
X118868422Y-140778475D01*
X118823229Y-141005676D01*
X118734580Y-141219694D01*
X118734579Y-141219695D01*
X118605883Y-141412303D01*
X118442076Y-141576110D01*
X118352728Y-141635810D01*
X118249467Y-141704807D01*
X118035449Y-141793456D01*
X117883982Y-141823585D01*
X117808249Y-141838649D01*
X117576595Y-141838649D01*
X117500862Y-141823585D01*
X117349395Y-141793456D01*
X117135377Y-141704807D01*
X117032116Y-141635810D01*
X116942768Y-141576110D01*
X116778961Y-141412303D01*
X116650265Y-141219695D01*
X116650264Y-141219694D01*
X116561615Y-141005676D01*
X116516422Y-140778475D01*
X116516422Y-140546823D01*
X116516766Y-140545096D01*
X116561615Y-140319624D01*
X116561615Y-140319622D01*
X116650264Y-140105604D01*
X116724443Y-139994588D01*
X116778961Y-139912995D01*
X116942768Y-139749188D01*
X117135376Y-139620492D01*
X117135377Y-139620491D01*
X117349395Y-139531842D01*
X117500862Y-139501713D01*
X117576595Y-139486649D01*
X117808249Y-139486649D01*
X117883982Y-139501713D01*
X117883982Y-139501713D01*
G37*
G36*
X127207007Y-139924784D02*
G01*
X127375529Y-139994588D01*
X127527194Y-140095927D01*
X127656175Y-140224908D01*
X127757514Y-140376573D01*
X127827318Y-140545095D01*
X127862903Y-140723996D01*
X127862903Y-140906402D01*
X127827318Y-141085303D01*
X127757514Y-141253825D01*
X127656175Y-141405490D01*
X127527194Y-141534471D01*
X127375529Y-141635810D01*
X127207007Y-141705614D01*
X127028106Y-141741199D01*
X126845700Y-141741199D01*
X126666799Y-141705614D01*
X126498277Y-141635810D01*
X126346612Y-141534471D01*
X126217631Y-141405490D01*
X126116292Y-141253825D01*
X126046488Y-141085303D01*
X126010903Y-140906402D01*
X126010903Y-140723996D01*
X126046488Y-140545095D01*
X126116292Y-140376573D01*
X126217631Y-140224908D01*
X126346612Y-140095927D01*
X126498277Y-139994588D01*
X126666799Y-139924784D01*
X126845700Y-139889199D01*
X127028106Y-139889199D01*
X127207007Y-139924784D01*
X127207007Y-139924784D01*
G37*
G36*
X141616474Y-135593684D02*
G01*
X141832580Y-135683198D01*
X141988623Y-135747833D01*
X142323548Y-135971623D01*
X142608377Y-136256452D01*
X142832167Y-136591377D01*
X142896017Y-136745526D01*
X142986316Y-136963526D01*
X143064900Y-137358594D01*
X143064900Y-137761406D01*
X142986316Y-138156474D01*
X142977579Y-138177566D01*
X142832167Y-138528623D01*
X142608377Y-138863548D01*
X142323548Y-139148377D01*
X141988623Y-139372167D01*
X141834474Y-139436017D01*
X141616474Y-139526316D01*
X141221406Y-139604900D01*
X140818594Y-139604900D01*
X140423526Y-139526316D01*
X140205526Y-139436017D01*
X140051377Y-139372167D01*
X139716452Y-139148377D01*
X139431623Y-138863548D01*
X139207833Y-138528623D01*
X139062421Y-138177566D01*
X139053684Y-138156474D01*
X138975100Y-137761406D01*
X138975100Y-137358594D01*
X139053684Y-136963526D01*
X139143983Y-136745526D01*
X139207833Y-136591377D01*
X139431623Y-136256452D01*
X139716452Y-135971623D01*
X140051377Y-135747833D01*
X140207420Y-135683198D01*
X140423526Y-135593684D01*
X140818594Y-135515100D01*
X141221406Y-135515100D01*
X141616474Y-135593684D01*
X141616474Y-135593684D01*
G37*
G36*
X136321114Y-137725776D02*
G01*
X136489636Y-137795580D01*
X136641301Y-137896919D01*
X136770282Y-138025900D01*
X136871621Y-138177565D01*
X136941425Y-138346087D01*
X136977010Y-138524988D01*
X136977010Y-138707394D01*
X136941425Y-138886295D01*
X136871621Y-139054817D01*
X136770282Y-139206482D01*
X136641301Y-139335463D01*
X136489636Y-139436802D01*
X136321114Y-139506606D01*
X136142213Y-139542191D01*
X135959807Y-139542191D01*
X135780906Y-139506606D01*
X135612384Y-139436802D01*
X135460719Y-139335463D01*
X135331738Y-139206482D01*
X135230399Y-139054817D01*
X135160595Y-138886295D01*
X135125010Y-138707394D01*
X135125010Y-138524988D01*
X135160595Y-138346087D01*
X135230399Y-138177565D01*
X135331738Y-138025900D01*
X135460719Y-137896919D01*
X135612384Y-137795580D01*
X135780906Y-137725776D01*
X135959807Y-137690191D01*
X136142213Y-137690191D01*
X136321114Y-137725776D01*
X136321114Y-137725776D01*
G37*
G36*
X123360211Y-135404760D02*
G01*
X123511678Y-135434889D01*
X123725696Y-135523538D01*
X123725697Y-135523539D01*
X123918305Y-135652235D01*
X124082112Y-135816042D01*
X124167909Y-135944447D01*
X124210809Y-136008651D01*
X124299458Y-136222669D01*
X124299458Y-136222671D01*
X124339644Y-136424695D01*
X124344651Y-136449870D01*
X124344651Y-136681522D01*
X124299458Y-136908723D01*
X124210809Y-137122741D01*
X124210808Y-137122742D01*
X124082112Y-137315350D01*
X123918305Y-137479157D01*
X123789900Y-137564954D01*
X123725696Y-137607854D01*
X123511678Y-137696503D01*
X123364512Y-137725776D01*
X123284478Y-137741696D01*
X123052824Y-137741696D01*
X122972790Y-137725776D01*
X122825624Y-137696503D01*
X122611606Y-137607854D01*
X122547402Y-137564954D01*
X122418997Y-137479157D01*
X122255190Y-137315350D01*
X122126494Y-137122742D01*
X122126493Y-137122741D01*
X122037844Y-136908723D01*
X121992651Y-136681522D01*
X121992651Y-136449870D01*
X121997659Y-136424695D01*
X122037844Y-136222671D01*
X122037844Y-136222669D01*
X122126493Y-136008651D01*
X122169393Y-135944447D01*
X122255190Y-135816042D01*
X122418997Y-135652235D01*
X122611605Y-135523539D01*
X122611606Y-135523538D01*
X122825624Y-135434889D01*
X122977091Y-135404760D01*
X123052824Y-135389696D01*
X123284478Y-135389696D01*
X123360211Y-135404760D01*
X123360211Y-135404760D01*
G37*
G36*
X146259094Y-135613394D02*
G01*
X146427616Y-135683198D01*
X146579281Y-135784537D01*
X146708262Y-135913518D01*
X146809601Y-136065183D01*
X146879405Y-136233705D01*
X146914990Y-136412606D01*
X146914990Y-136595012D01*
X146879405Y-136773913D01*
X146809601Y-136942435D01*
X146708262Y-137094100D01*
X146579281Y-137223081D01*
X146427616Y-137324420D01*
X146259094Y-137394224D01*
X146080193Y-137429809D01*
X145897787Y-137429809D01*
X145718886Y-137394224D01*
X145550364Y-137324420D01*
X145398699Y-137223081D01*
X145269718Y-137094100D01*
X145168379Y-136942435D01*
X145098575Y-136773913D01*
X145062990Y-136595012D01*
X145062990Y-136412606D01*
X145098575Y-136233705D01*
X145168379Y-136065183D01*
X145269718Y-135913518D01*
X145398699Y-135784537D01*
X145550364Y-135683198D01*
X145718886Y-135613394D01*
X145897787Y-135577809D01*
X146080193Y-135577809D01*
X146259094Y-135613394D01*
X146259094Y-135613394D01*
G37*
G36*
X136956722Y-134706713D02*
G01*
X137108189Y-134736842D01*
X137322207Y-134825491D01*
X137322208Y-134825492D01*
X137514816Y-134954188D01*
X137678623Y-135117995D01*
X137715742Y-135173548D01*
X137807320Y-135310604D01*
X137895969Y-135524622D01*
X137909706Y-135593684D01*
X137941162Y-135751822D01*
X137941162Y-135983476D01*
X137936154Y-136008651D01*
X137895969Y-136210676D01*
X137807320Y-136424694D01*
X137790498Y-136449870D01*
X137678623Y-136617303D01*
X137514816Y-136781110D01*
X137386411Y-136866907D01*
X137322207Y-136909807D01*
X137108189Y-136998456D01*
X136956722Y-137028585D01*
X136880989Y-137043649D01*
X136649335Y-137043649D01*
X136573602Y-137028585D01*
X136422135Y-136998456D01*
X136208117Y-136909807D01*
X136143913Y-136866907D01*
X136015508Y-136781110D01*
X135851701Y-136617303D01*
X135739826Y-136449870D01*
X135723004Y-136424694D01*
X135634355Y-136210676D01*
X135594170Y-136008651D01*
X135589162Y-135983476D01*
X135589162Y-135751822D01*
X135620618Y-135593684D01*
X135634355Y-135524622D01*
X135723004Y-135310604D01*
X135814582Y-135173548D01*
X135851701Y-135117995D01*
X136015508Y-134954188D01*
X136208116Y-134825492D01*
X136208117Y-134825491D01*
X136422135Y-134736842D01*
X136573602Y-134706713D01*
X136649335Y-134691649D01*
X136880989Y-134691649D01*
X136956722Y-134706713D01*
X136956722Y-134706713D01*
G37*
G36*
X160616474Y-131903684D02*
G01*
X160721260Y-131947088D01*
X160988623Y-132057833D01*
X161323548Y-132281623D01*
X161608377Y-132566452D01*
X161832167Y-132901377D01*
X161863231Y-132976373D01*
X161986316Y-133273526D01*
X162064900Y-133668594D01*
X162064900Y-134071406D01*
X161986316Y-134466474D01*
X161896017Y-134684474D01*
X161832167Y-134838623D01*
X161608377Y-135173548D01*
X161323548Y-135458377D01*
X160988623Y-135682167D01*
X160834474Y-135746017D01*
X160616474Y-135836316D01*
X160221406Y-135914900D01*
X159818594Y-135914900D01*
X159423526Y-135836316D01*
X159205526Y-135746017D01*
X159051377Y-135682167D01*
X158716452Y-135458377D01*
X158431623Y-135173548D01*
X158207833Y-134838623D01*
X158143983Y-134684474D01*
X158053684Y-134466474D01*
X157975100Y-134071406D01*
X157975100Y-133668594D01*
X158053684Y-133273526D01*
X158176769Y-132976373D01*
X158207833Y-132901377D01*
X158431623Y-132566452D01*
X158716452Y-132281623D01*
X159051377Y-132057833D01*
X159318740Y-131947088D01*
X159423526Y-131903684D01*
X159818594Y-131825100D01*
X160221406Y-131825100D01*
X160616474Y-131903684D01*
X160616474Y-131903684D01*
G37*
G36*
X155287281Y-133861718D02*
G01*
X155455803Y-133931522D01*
X155607468Y-134032861D01*
X155736449Y-134161842D01*
X155837788Y-134313507D01*
X155907592Y-134482029D01*
X155943177Y-134660930D01*
X155943177Y-134843336D01*
X155907592Y-135022237D01*
X155837788Y-135190759D01*
X155736449Y-135342424D01*
X155607468Y-135471405D01*
X155455803Y-135572744D01*
X155287281Y-135642548D01*
X155108380Y-135678133D01*
X154925974Y-135678133D01*
X154747073Y-135642548D01*
X154578551Y-135572744D01*
X154426886Y-135471405D01*
X154297905Y-135342424D01*
X154196566Y-135190759D01*
X154126762Y-135022237D01*
X154091177Y-134843336D01*
X154091177Y-134660930D01*
X154126762Y-134482029D01*
X154196566Y-134313507D01*
X154297905Y-134161842D01*
X154426886Y-134032861D01*
X154578551Y-133931522D01*
X154747073Y-133861718D01*
X154925974Y-133826133D01*
X155108380Y-133826133D01*
X155287281Y-133861718D01*
X155287281Y-133861718D01*
G37*
G36*
X165292927Y-132097452D02*
G01*
X165461449Y-132167256D01*
X165613114Y-132268595D01*
X165742095Y-132397576D01*
X165843434Y-132549241D01*
X165913238Y-132717763D01*
X165948823Y-132896664D01*
X165948823Y-133079070D01*
X165913238Y-133257971D01*
X165843434Y-133426493D01*
X165742095Y-133578158D01*
X165613114Y-133707139D01*
X165461449Y-133808478D01*
X165292927Y-133878282D01*
X165114026Y-133913867D01*
X164931620Y-133913867D01*
X164752719Y-133878282D01*
X164584197Y-133808478D01*
X164432532Y-133707139D01*
X164303551Y-133578158D01*
X164202212Y-133426493D01*
X164132408Y-133257971D01*
X164096823Y-133079070D01*
X164096823Y-132896664D01*
X164132408Y-132717763D01*
X164202212Y-132549241D01*
X164303551Y-132397576D01*
X164432532Y-132268595D01*
X164584197Y-132167256D01*
X164752719Y-132097452D01*
X164931620Y-132061867D01*
X165114026Y-132061867D01*
X165292927Y-132097452D01*
X165292927Y-132097452D01*
G37*
G36*
X142626806Y-130899381D02*
G01*
X142791331Y-130932107D01*
X143005349Y-131020756D01*
X143005350Y-131020757D01*
X143197958Y-131149453D01*
X143361765Y-131313260D01*
X143447562Y-131441665D01*
X143490462Y-131505869D01*
X143579111Y-131719887D01*
X143579111Y-131719889D01*
X143617795Y-131914362D01*
X143624304Y-131947088D01*
X143624304Y-132178740D01*
X143579111Y-132405941D01*
X143490462Y-132619959D01*
X143490461Y-132619960D01*
X143361765Y-132812568D01*
X143197958Y-132976375D01*
X143069553Y-133062172D01*
X143005349Y-133105072D01*
X142791331Y-133193721D01*
X142639864Y-133223850D01*
X142564131Y-133238914D01*
X142332477Y-133238914D01*
X142256744Y-133223850D01*
X142105277Y-133193721D01*
X141891259Y-133105072D01*
X141827055Y-133062172D01*
X141698650Y-132976375D01*
X141534843Y-132812568D01*
X141406147Y-132619960D01*
X141406146Y-132619959D01*
X141317497Y-132405941D01*
X141272304Y-132178740D01*
X141272304Y-131947088D01*
X141278814Y-131914362D01*
X141317497Y-131719889D01*
X141317497Y-131719887D01*
X141406146Y-131505869D01*
X141449046Y-131441665D01*
X141534843Y-131313260D01*
X141698650Y-131149453D01*
X141891258Y-131020757D01*
X141891259Y-131020756D01*
X142105277Y-130932107D01*
X142269802Y-130899381D01*
X142332477Y-130886914D01*
X142564131Y-130886914D01*
X142626806Y-130899381D01*
X142626806Y-130899381D01*
G37*
G36*
X156018376Y-130869252D02*
G01*
X156169843Y-130899381D01*
X156383861Y-130988030D01*
X156383862Y-130988031D01*
X156576470Y-131116727D01*
X156740277Y-131280534D01*
X156826074Y-131408939D01*
X156868974Y-131473143D01*
X156957623Y-131687161D01*
X156964133Y-131719889D01*
X157002816Y-131914361D01*
X157002816Y-132146015D01*
X156996306Y-132178741D01*
X156957623Y-132373215D01*
X156868974Y-132587233D01*
X156868973Y-132587234D01*
X156740277Y-132779842D01*
X156576470Y-132943649D01*
X156448065Y-133029446D01*
X156383861Y-133072346D01*
X156169843Y-133160995D01*
X156018376Y-133191124D01*
X155942643Y-133206188D01*
X155710989Y-133206188D01*
X155635256Y-133191124D01*
X155483789Y-133160995D01*
X155269771Y-133072346D01*
X155205567Y-133029446D01*
X155077162Y-132943649D01*
X154913355Y-132779842D01*
X154784659Y-132587234D01*
X154784658Y-132587233D01*
X154696009Y-132373215D01*
X154657326Y-132178741D01*
X154650816Y-132146015D01*
X154650816Y-131914361D01*
X154689499Y-131719889D01*
X154696009Y-131687161D01*
X154784658Y-131473143D01*
X154827558Y-131408939D01*
X154913355Y-131280534D01*
X155077162Y-131116727D01*
X155269770Y-130988031D01*
X155269771Y-130988030D01*
X155483789Y-130899381D01*
X155635256Y-130869252D01*
X155710989Y-130854188D01*
X155942643Y-130854188D01*
X156018376Y-130869252D01*
X156018376Y-130869252D01*
G37*
G36*
X161830839Y-127265174D02*
G01*
X161982306Y-127295303D01*
X162196324Y-127383952D01*
X162196325Y-127383953D01*
X162388933Y-127512649D01*
X162552740Y-127676456D01*
X162638537Y-127804861D01*
X162681437Y-127869065D01*
X162770086Y-128083083D01*
X162815279Y-128310284D01*
X162815279Y-128541936D01*
X162770086Y-128769137D01*
X162681437Y-128983155D01*
X162681436Y-128983156D01*
X162552740Y-129175764D01*
X162388933Y-129339571D01*
X162260528Y-129425368D01*
X162196324Y-129468268D01*
X161982306Y-129556917D01*
X161830839Y-129587046D01*
X161755106Y-129602110D01*
X161523452Y-129602110D01*
X161447719Y-129587046D01*
X161296252Y-129556917D01*
X161082234Y-129468268D01*
X161018030Y-129425368D01*
X160889625Y-129339571D01*
X160725818Y-129175764D01*
X160597122Y-128983156D01*
X160597121Y-128983155D01*
X160508472Y-128769137D01*
X160463279Y-128541936D01*
X160463279Y-128310284D01*
X160508472Y-128083083D01*
X160597121Y-127869065D01*
X160640021Y-127804861D01*
X160725818Y-127676456D01*
X160889625Y-127512649D01*
X161082233Y-127383953D01*
X161082234Y-127383952D01*
X161296252Y-127295303D01*
X161447719Y-127265174D01*
X161523452Y-127250110D01*
X161755106Y-127250110D01*
X161830839Y-127265174D01*
X161830839Y-127265174D01*
G37*
G36*
X116093201Y-123224386D02*
G01*
X116261723Y-123294190D01*
X116413388Y-123395529D01*
X116542369Y-123524510D01*
X116643708Y-123676175D01*
X116713512Y-123844697D01*
X116749097Y-124023598D01*
X116749097Y-124206004D01*
X116713512Y-124384905D01*
X116643708Y-124553427D01*
X116542369Y-124705092D01*
X116413388Y-124834073D01*
X116261723Y-124935412D01*
X116093201Y-125005216D01*
X115914300Y-125040801D01*
X115731894Y-125040801D01*
X115552993Y-125005216D01*
X115384471Y-124935412D01*
X115232806Y-124834073D01*
X115103825Y-124705092D01*
X115002486Y-124553427D01*
X114932682Y-124384905D01*
X114897097Y-124206004D01*
X114897097Y-124023598D01*
X114932682Y-123844697D01*
X115002486Y-123676175D01*
X115103825Y-123524510D01*
X115232806Y-123395529D01*
X115384471Y-123294190D01*
X115552993Y-123224386D01*
X115731894Y-123188801D01*
X115914300Y-123188801D01*
X116093201Y-123224386D01*
X116093201Y-123224386D01*
G37*
G36*
X121326474Y-120833684D02*
G01*
X121474284Y-120894909D01*
X121698623Y-120987833D01*
X122033548Y-121211623D01*
X122318377Y-121496452D01*
X122542167Y-121831377D01*
X122580460Y-121923825D01*
X122696316Y-122203526D01*
X122774900Y-122598594D01*
X122774900Y-123001406D01*
X122696316Y-123396474D01*
X122643281Y-123524511D01*
X122542167Y-123768623D01*
X122318377Y-124103548D01*
X122033548Y-124388377D01*
X121698623Y-124612167D01*
X121544474Y-124676017D01*
X121326474Y-124766316D01*
X120931406Y-124844900D01*
X120528594Y-124844900D01*
X120133526Y-124766316D01*
X119915526Y-124676017D01*
X119761377Y-124612167D01*
X119426452Y-124388377D01*
X119141623Y-124103548D01*
X118917833Y-123768623D01*
X118816719Y-123524511D01*
X118763684Y-123396474D01*
X118685100Y-123001406D01*
X118685100Y-122598594D01*
X118763684Y-122203526D01*
X118879540Y-121923825D01*
X118917833Y-121831377D01*
X119141623Y-121496452D01*
X119426452Y-121211623D01*
X119761377Y-120987833D01*
X119985716Y-120894909D01*
X120133526Y-120833684D01*
X120528594Y-120755100D01*
X120931406Y-120755100D01*
X121326474Y-120833684D01*
X121326474Y-120833684D01*
G37*
G36*
X131167136Y-120320981D02*
G01*
X131273459Y-120342130D01*
X131573922Y-120466586D01*
X131844331Y-120647268D01*
X132074295Y-120877232D01*
X132254977Y-121147641D01*
X132379433Y-121448104D01*
X132389050Y-121496452D01*
X132442880Y-121767072D01*
X132442880Y-122092294D01*
X132412284Y-122246108D01*
X132379433Y-122411262D01*
X132254977Y-122711725D01*
X132074295Y-122982134D01*
X131844331Y-123212098D01*
X131573922Y-123392780D01*
X131573921Y-123392781D01*
X131573920Y-123392781D01*
X131485917Y-123429233D01*
X131273459Y-123517236D01*
X131167136Y-123538385D01*
X130954491Y-123580683D01*
X130629269Y-123580683D01*
X130416624Y-123538385D01*
X130310301Y-123517236D01*
X130097843Y-123429233D01*
X130009840Y-123392781D01*
X130009839Y-123392781D01*
X130009838Y-123392780D01*
X129739429Y-123212098D01*
X129509465Y-122982134D01*
X129328783Y-122711725D01*
X129204327Y-122411262D01*
X129171476Y-122246108D01*
X129140880Y-122092294D01*
X129140880Y-121767072D01*
X129194710Y-121496452D01*
X129204327Y-121448104D01*
X129328783Y-121147641D01*
X129509465Y-120877232D01*
X129739429Y-120647268D01*
X130009838Y-120466586D01*
X130310301Y-120342130D01*
X130416624Y-120320981D01*
X130629269Y-120278683D01*
X130954491Y-120278683D01*
X131167136Y-120320981D01*
X131167136Y-120320981D01*
G37*
G36*
X236423974Y-119308684D02*
G01*
X236641974Y-119398983D01*
X236796123Y-119462833D01*
X237131048Y-119686623D01*
X237415877Y-119971452D01*
X237639667Y-120306377D01*
X237672062Y-120384586D01*
X237793816Y-120678526D01*
X237872400Y-121073594D01*
X237872400Y-121476406D01*
X237793816Y-121871474D01*
X237742951Y-121994272D01*
X237639667Y-122243623D01*
X237415877Y-122578548D01*
X237131048Y-122863377D01*
X236796123Y-123087167D01*
X236641974Y-123151017D01*
X236423974Y-123241316D01*
X236028906Y-123319900D01*
X235626094Y-123319900D01*
X235231026Y-123241316D01*
X235013026Y-123151017D01*
X234858877Y-123087167D01*
X234523952Y-122863377D01*
X234239123Y-122578548D01*
X234015333Y-122243623D01*
X233912049Y-121994272D01*
X233861184Y-121871474D01*
X233782600Y-121476406D01*
X233782600Y-121073594D01*
X233861184Y-120678526D01*
X233982938Y-120384586D01*
X234015333Y-120306377D01*
X234239123Y-119971452D01*
X234523952Y-119686623D01*
X234858877Y-119462833D01*
X235013026Y-119398983D01*
X235231026Y-119308684D01*
X235626094Y-119230100D01*
X236028906Y-119230100D01*
X236423974Y-119308684D01*
X236423974Y-119308684D01*
G37*
G36*
X116583982Y-120171713D02*
G01*
X116735449Y-120201842D01*
X116949467Y-120290491D01*
X116949468Y-120290492D01*
X117142076Y-120419188D01*
X117305883Y-120582995D01*
X117373846Y-120684709D01*
X117434580Y-120775604D01*
X117523229Y-120989622D01*
X117523229Y-120989624D01*
X117568422Y-121216822D01*
X117568422Y-121448476D01*
X117562866Y-121476406D01*
X117523229Y-121675676D01*
X117434580Y-121889694D01*
X117434579Y-121889695D01*
X117305883Y-122082303D01*
X117142076Y-122246110D01*
X117052728Y-122305810D01*
X116949467Y-122374807D01*
X116735449Y-122463456D01*
X116583982Y-122493585D01*
X116508249Y-122508649D01*
X116276595Y-122508649D01*
X116200862Y-122493585D01*
X116049395Y-122463456D01*
X115835377Y-122374807D01*
X115732116Y-122305810D01*
X115642768Y-122246110D01*
X115478961Y-122082303D01*
X115350265Y-121889695D01*
X115350264Y-121889694D01*
X115261615Y-121675676D01*
X115221978Y-121476406D01*
X115216422Y-121448476D01*
X115216422Y-121216822D01*
X115261615Y-120989624D01*
X115261615Y-120989622D01*
X115350264Y-120775604D01*
X115410998Y-120684709D01*
X115478961Y-120582995D01*
X115642768Y-120419188D01*
X115835376Y-120290492D01*
X115835377Y-120290491D01*
X116049395Y-120201842D01*
X116200862Y-120171713D01*
X116276595Y-120156649D01*
X116508249Y-120156649D01*
X116583982Y-120171713D01*
X116583982Y-120171713D01*
G37*
G36*
X125907007Y-120594784D02*
G01*
X126075529Y-120664588D01*
X126227194Y-120765927D01*
X126356175Y-120894908D01*
X126457514Y-121046573D01*
X126527318Y-121215095D01*
X126562903Y-121393996D01*
X126562903Y-121576402D01*
X126527318Y-121755303D01*
X126457514Y-121923825D01*
X126356175Y-122075490D01*
X126227194Y-122204471D01*
X126075529Y-122305810D01*
X125907007Y-122375614D01*
X125728106Y-122411199D01*
X125545700Y-122411199D01*
X125366799Y-122375614D01*
X125198277Y-122305810D01*
X125046612Y-122204471D01*
X124917631Y-122075490D01*
X124816292Y-121923825D01*
X124746488Y-121755303D01*
X124710903Y-121576402D01*
X124710903Y-121393996D01*
X124746488Y-121215095D01*
X124816292Y-121046573D01*
X124917631Y-120894908D01*
X125046612Y-120765927D01*
X125198277Y-120664588D01*
X125366799Y-120594784D01*
X125545700Y-120559199D01*
X125728106Y-120559199D01*
X125907007Y-120594784D01*
X125907007Y-120594784D01*
G37*
G36*
X241177604Y-120384585D02*
G01*
X241346126Y-120454389D01*
X241497791Y-120555728D01*
X241626772Y-120684709D01*
X241728111Y-120836374D01*
X241797915Y-121004896D01*
X241833500Y-121183797D01*
X241833500Y-121366203D01*
X241797915Y-121545104D01*
X241728111Y-121713626D01*
X241626772Y-121865291D01*
X241497791Y-121994272D01*
X241346126Y-122095611D01*
X241177604Y-122165415D01*
X240998703Y-122201000D01*
X240816297Y-122201000D01*
X240637396Y-122165415D01*
X240468874Y-122095611D01*
X240317209Y-121994272D01*
X240188228Y-121865291D01*
X240086889Y-121713626D01*
X240017085Y-121545104D01*
X239981500Y-121366203D01*
X239981500Y-121183797D01*
X240017085Y-121004896D01*
X240086889Y-120836374D01*
X240188228Y-120684709D01*
X240317209Y-120555728D01*
X240468874Y-120454389D01*
X240637396Y-120384585D01*
X240816297Y-120349000D01*
X240998703Y-120349000D01*
X241177604Y-120384585D01*
X241177604Y-120384585D01*
G37*
G36*
X231017604Y-120384585D02*
G01*
X231186126Y-120454389D01*
X231337791Y-120555728D01*
X231466772Y-120684709D01*
X231568111Y-120836374D01*
X231637915Y-121004896D01*
X231673500Y-121183797D01*
X231673500Y-121366203D01*
X231637915Y-121545104D01*
X231568111Y-121713626D01*
X231466772Y-121865291D01*
X231337791Y-121994272D01*
X231186126Y-122095611D01*
X231017604Y-122165415D01*
X230838703Y-122201000D01*
X230656297Y-122201000D01*
X230477396Y-122165415D01*
X230308874Y-122095611D01*
X230157209Y-121994272D01*
X230028228Y-121865291D01*
X229926889Y-121713626D01*
X229857085Y-121545104D01*
X229821500Y-121366203D01*
X229821500Y-121183797D01*
X229857085Y-121004896D01*
X229926889Y-120836374D01*
X230028228Y-120684709D01*
X230157209Y-120555728D01*
X230308874Y-120454389D01*
X230477396Y-120384585D01*
X230656297Y-120349000D01*
X230838703Y-120349000D01*
X231017604Y-120384585D01*
X231017604Y-120384585D01*
G37*
G36*
X217373974Y-116133684D02*
G01*
X217591974Y-116223983D01*
X217746123Y-116287833D01*
X218081048Y-116511623D01*
X218365877Y-116796452D01*
X218589667Y-117131377D01*
X218622062Y-117209586D01*
X218743816Y-117503526D01*
X218822400Y-117898594D01*
X218822400Y-118301406D01*
X218743816Y-118696474D01*
X218692951Y-118819272D01*
X218589667Y-119068623D01*
X218365877Y-119403548D01*
X218081048Y-119688377D01*
X217746123Y-119912167D01*
X217602996Y-119971452D01*
X217373974Y-120066316D01*
X216978906Y-120144900D01*
X216576094Y-120144900D01*
X216181026Y-120066316D01*
X215952004Y-119971452D01*
X215808877Y-119912167D01*
X215473952Y-119688377D01*
X215189123Y-119403548D01*
X214965333Y-119068623D01*
X214862049Y-118819272D01*
X214811184Y-118696474D01*
X214732600Y-118301406D01*
X214732600Y-117898594D01*
X214811184Y-117503526D01*
X214932938Y-117209586D01*
X214965333Y-117131377D01*
X215189123Y-116796452D01*
X215473952Y-116511623D01*
X215808877Y-116287833D01*
X215963026Y-116223983D01*
X216181026Y-116133684D01*
X216576094Y-116055100D01*
X216978906Y-116055100D01*
X217373974Y-116133684D01*
X217373974Y-116133684D01*
G37*
G36*
X232209060Y-117574064D02*
G01*
X232360527Y-117604193D01*
X232574545Y-117692842D01*
X232574546Y-117692843D01*
X232767154Y-117821539D01*
X232930961Y-117985346D01*
X232946630Y-118008797D01*
X233059658Y-118177955D01*
X233148307Y-118391973D01*
X233193500Y-118619174D01*
X233193500Y-118850826D01*
X233148307Y-119078027D01*
X233059658Y-119292045D01*
X233059657Y-119292046D01*
X232930961Y-119484654D01*
X232767154Y-119648461D01*
X232710040Y-119686623D01*
X232574545Y-119777158D01*
X232360527Y-119865807D01*
X232209060Y-119895936D01*
X232133327Y-119911000D01*
X231901673Y-119911000D01*
X231825940Y-119895936D01*
X231674473Y-119865807D01*
X231460455Y-119777158D01*
X231324960Y-119686623D01*
X231267846Y-119648461D01*
X231104039Y-119484654D01*
X230975343Y-119292046D01*
X230975342Y-119292045D01*
X230886693Y-119078027D01*
X230841500Y-118850826D01*
X230841500Y-118619174D01*
X230886693Y-118391973D01*
X230975342Y-118177955D01*
X231088370Y-118008797D01*
X231104039Y-117985346D01*
X231267846Y-117821539D01*
X231460454Y-117692843D01*
X231460455Y-117692842D01*
X231674473Y-117604193D01*
X231825940Y-117574064D01*
X231901673Y-117559000D01*
X232133327Y-117559000D01*
X232209060Y-117574064D01*
X232209060Y-117574064D01*
G37*
G36*
X222127604Y-117209585D02*
G01*
X222296126Y-117279389D01*
X222447791Y-117380728D01*
X222576772Y-117509709D01*
X222678111Y-117661374D01*
X222747915Y-117829896D01*
X222783500Y-118008797D01*
X222783500Y-118191203D01*
X222747915Y-118370104D01*
X222678111Y-118538626D01*
X222576772Y-118690291D01*
X222447791Y-118819272D01*
X222296126Y-118920611D01*
X222127604Y-118990415D01*
X221948703Y-119026000D01*
X221766297Y-119026000D01*
X221587396Y-118990415D01*
X221418874Y-118920611D01*
X221267209Y-118819272D01*
X221138228Y-118690291D01*
X221036889Y-118538626D01*
X220967085Y-118370104D01*
X220931500Y-118191203D01*
X220931500Y-118008797D01*
X220967085Y-117829896D01*
X221036889Y-117661374D01*
X221138228Y-117509709D01*
X221267209Y-117380728D01*
X221418874Y-117279389D01*
X221587396Y-117209585D01*
X221766297Y-117174000D01*
X221948703Y-117174000D01*
X222127604Y-117209585D01*
X222127604Y-117209585D01*
G37*
G36*
X211967604Y-117209585D02*
G01*
X212136126Y-117279389D01*
X212287791Y-117380728D01*
X212416772Y-117509709D01*
X212518111Y-117661374D01*
X212587915Y-117829896D01*
X212623500Y-118008797D01*
X212623500Y-118191203D01*
X212587915Y-118370104D01*
X212518111Y-118538626D01*
X212416772Y-118690291D01*
X212287791Y-118819272D01*
X212136126Y-118920611D01*
X211967604Y-118990415D01*
X211788703Y-119026000D01*
X211606297Y-119026000D01*
X211427396Y-118990415D01*
X211258874Y-118920611D01*
X211107209Y-118819272D01*
X210978228Y-118690291D01*
X210876889Y-118538626D01*
X210807085Y-118370104D01*
X210771500Y-118191203D01*
X210771500Y-118008797D01*
X210807085Y-117829896D01*
X210876889Y-117661374D01*
X210978228Y-117509709D01*
X211107209Y-117380728D01*
X211258874Y-117279389D01*
X211427396Y-117209585D01*
X211606297Y-117174000D01*
X211788703Y-117174000D01*
X211967604Y-117209585D01*
X211967604Y-117209585D01*
G37*
G36*
X122060211Y-116074760D02*
G01*
X122211678Y-116104889D01*
X122425696Y-116193538D01*
X122425697Y-116193539D01*
X122618305Y-116322235D01*
X122782112Y-116486042D01*
X122816847Y-116538027D01*
X122910809Y-116678651D01*
X122999458Y-116892669D01*
X122999458Y-116892671D01*
X123044651Y-117119869D01*
X123044651Y-117351523D01*
X123029587Y-117427256D01*
X122999458Y-117578723D01*
X122910809Y-117792741D01*
X122910808Y-117792742D01*
X122782112Y-117985350D01*
X122618305Y-118149157D01*
X122555378Y-118191203D01*
X122425696Y-118277854D01*
X122211678Y-118366503D01*
X122083631Y-118391973D01*
X121984478Y-118411696D01*
X121752824Y-118411696D01*
X121653671Y-118391973D01*
X121525624Y-118366503D01*
X121311606Y-118277854D01*
X121181924Y-118191203D01*
X121118997Y-118149157D01*
X120955190Y-117985350D01*
X120826494Y-117792742D01*
X120826493Y-117792741D01*
X120737844Y-117578723D01*
X120707715Y-117427256D01*
X120692651Y-117351523D01*
X120692651Y-117119869D01*
X120737844Y-116892671D01*
X120737844Y-116892669D01*
X120826493Y-116678651D01*
X120920455Y-116538027D01*
X120955190Y-116486042D01*
X121118997Y-116322235D01*
X121311605Y-116193539D01*
X121311606Y-116193538D01*
X121525624Y-116104889D01*
X121677091Y-116074760D01*
X121752824Y-116059696D01*
X121984478Y-116059696D01*
X122060211Y-116074760D01*
X122060211Y-116074760D01*
G37*
G36*
X238559060Y-115034064D02*
G01*
X238710527Y-115064193D01*
X238924545Y-115152842D01*
X238924546Y-115152843D01*
X239117154Y-115281539D01*
X239280961Y-115445346D01*
X239359530Y-115562934D01*
X239409658Y-115637955D01*
X239498307Y-115851973D01*
X239528436Y-116003440D01*
X239538712Y-116055100D01*
X239543500Y-116079174D01*
X239543500Y-116310826D01*
X239498307Y-116538027D01*
X239409658Y-116752045D01*
X239409657Y-116752046D01*
X239280961Y-116944654D01*
X239117154Y-117108461D01*
X238988749Y-117194258D01*
X238924545Y-117237158D01*
X238710527Y-117325807D01*
X238559060Y-117355936D01*
X238483327Y-117371000D01*
X238251673Y-117371000D01*
X238175940Y-117355936D01*
X238024473Y-117325807D01*
X237810455Y-117237158D01*
X237746251Y-117194258D01*
X237617846Y-117108461D01*
X237454039Y-116944654D01*
X237325343Y-116752046D01*
X237325342Y-116752045D01*
X237236693Y-116538027D01*
X237191500Y-116310826D01*
X237191500Y-116079174D01*
X237196289Y-116055100D01*
X237206564Y-116003440D01*
X237236693Y-115851973D01*
X237325342Y-115637955D01*
X237375470Y-115562934D01*
X237454039Y-115445346D01*
X237617846Y-115281539D01*
X237810454Y-115152843D01*
X237810455Y-115152842D01*
X238024473Y-115064193D01*
X238175940Y-115034064D01*
X238251673Y-115019000D01*
X238483327Y-115019000D01*
X238559060Y-115034064D01*
X238559060Y-115034064D01*
G37*
G36*
X141173974Y-112958684D02*
G01*
X141391974Y-113048983D01*
X141546123Y-113112833D01*
X141881048Y-113336623D01*
X142165877Y-113621452D01*
X142389667Y-113956377D01*
X142422062Y-114034586D01*
X142543816Y-114328526D01*
X142622400Y-114723594D01*
X142622400Y-115126406D01*
X142543816Y-115521474D01*
X142492951Y-115644272D01*
X142389667Y-115893623D01*
X142165877Y-116228548D01*
X141881048Y-116513377D01*
X141546123Y-116737167D01*
X141402996Y-116796452D01*
X141173974Y-116891316D01*
X140778906Y-116969900D01*
X140376094Y-116969900D01*
X139981026Y-116891316D01*
X139752004Y-116796452D01*
X139608877Y-116737167D01*
X139273952Y-116513377D01*
X138989123Y-116228548D01*
X138765333Y-115893623D01*
X138662049Y-115644272D01*
X138611184Y-115521474D01*
X138532600Y-115126406D01*
X138532600Y-114723594D01*
X138611184Y-114328526D01*
X138732938Y-114034586D01*
X138765333Y-113956377D01*
X138989123Y-113621452D01*
X139273952Y-113336623D01*
X139608877Y-113112833D01*
X139763026Y-113048983D01*
X139981026Y-112958684D01*
X140376094Y-112880100D01*
X140778906Y-112880100D01*
X141173974Y-112958684D01*
X141173974Y-112958684D01*
G37*
G36*
X213159060Y-114399064D02*
G01*
X213310527Y-114429193D01*
X213524545Y-114517842D01*
X213524546Y-114517843D01*
X213717154Y-114646539D01*
X213880961Y-114810346D01*
X213896630Y-114833797D01*
X214009658Y-115002955D01*
X214098307Y-115216973D01*
X214143500Y-115444174D01*
X214143500Y-115675826D01*
X214098307Y-115903027D01*
X214009658Y-116117045D01*
X214009657Y-116117046D01*
X213880961Y-116309654D01*
X213717154Y-116473461D01*
X213588749Y-116559258D01*
X213524545Y-116602158D01*
X213310527Y-116690807D01*
X213159060Y-116720936D01*
X213083327Y-116736000D01*
X212851673Y-116736000D01*
X212775940Y-116720936D01*
X212624473Y-116690807D01*
X212410455Y-116602158D01*
X212346251Y-116559258D01*
X212217846Y-116473461D01*
X212054039Y-116309654D01*
X211925343Y-116117046D01*
X211925342Y-116117045D01*
X211836693Y-115903027D01*
X211791500Y-115675826D01*
X211791500Y-115444174D01*
X211836693Y-115216973D01*
X211925342Y-115002955D01*
X212038370Y-114833797D01*
X212054039Y-114810346D01*
X212217846Y-114646539D01*
X212410454Y-114517843D01*
X212410455Y-114517842D01*
X212624473Y-114429193D01*
X212775940Y-114399064D01*
X212851673Y-114384000D01*
X213083327Y-114384000D01*
X213159060Y-114399064D01*
X213159060Y-114399064D01*
G37*
G36*
X226712302Y-112671817D02*
G01*
X226818625Y-112692966D01*
X227119088Y-112817422D01*
X227389497Y-112998104D01*
X227619461Y-113228068D01*
X227800143Y-113498477D01*
X227922926Y-113794900D01*
X227924599Y-113798941D01*
X227988046Y-114117908D01*
X227988046Y-114443130D01*
X227947585Y-114646539D01*
X227924599Y-114762098D01*
X227800143Y-115062561D01*
X227619461Y-115332970D01*
X227389497Y-115562934D01*
X227119088Y-115743616D01*
X226818625Y-115868072D01*
X226712302Y-115889221D01*
X226499657Y-115931519D01*
X226174435Y-115931519D01*
X225961790Y-115889221D01*
X225855467Y-115868072D01*
X225555004Y-115743616D01*
X225284595Y-115562934D01*
X225054631Y-115332970D01*
X224873949Y-115062561D01*
X224749493Y-114762098D01*
X224726507Y-114646539D01*
X224686046Y-114443130D01*
X224686046Y-114117908D01*
X224749493Y-113798941D01*
X224751167Y-113794900D01*
X224873949Y-113498477D01*
X225054631Y-113228068D01*
X225284595Y-112998104D01*
X225555004Y-112817422D01*
X225855467Y-112692966D01*
X225961790Y-112671817D01*
X226174435Y-112629519D01*
X226499657Y-112629519D01*
X226712302Y-112671817D01*
X226712302Y-112671817D01*
G37*
G36*
X135767604Y-114034585D02*
G01*
X135936126Y-114104389D01*
X136087791Y-114205728D01*
X136216772Y-114334709D01*
X136318111Y-114486374D01*
X136387915Y-114654896D01*
X136423500Y-114833797D01*
X136423500Y-115016203D01*
X136387915Y-115195104D01*
X136318111Y-115363626D01*
X136216772Y-115515291D01*
X136087791Y-115644272D01*
X135936126Y-115745611D01*
X135767604Y-115815415D01*
X135588703Y-115851000D01*
X135406297Y-115851000D01*
X135227396Y-115815415D01*
X135058874Y-115745611D01*
X134907209Y-115644272D01*
X134778228Y-115515291D01*
X134676889Y-115363626D01*
X134607085Y-115195104D01*
X134571500Y-115016203D01*
X134571500Y-114833797D01*
X134607085Y-114654896D01*
X134676889Y-114486374D01*
X134778228Y-114334709D01*
X134907209Y-114205728D01*
X135058874Y-114104389D01*
X135227396Y-114034585D01*
X135406297Y-113999000D01*
X135588703Y-113999000D01*
X135767604Y-114034585D01*
X135767604Y-114034585D01*
G37*
G36*
X145927604Y-114034585D02*
G01*
X146096126Y-114104389D01*
X146247791Y-114205728D01*
X146376772Y-114334709D01*
X146478111Y-114486374D01*
X146547915Y-114654896D01*
X146583500Y-114833797D01*
X146583500Y-115016203D01*
X146547915Y-115195104D01*
X146478111Y-115363626D01*
X146376772Y-115515291D01*
X146247791Y-115644272D01*
X146096126Y-115745611D01*
X145927604Y-115815415D01*
X145748703Y-115851000D01*
X145566297Y-115851000D01*
X145387396Y-115815415D01*
X145218874Y-115745611D01*
X145067209Y-115644272D01*
X144938228Y-115515291D01*
X144836889Y-115363626D01*
X144767085Y-115195104D01*
X144731500Y-115016203D01*
X144731500Y-114833797D01*
X144767085Y-114654896D01*
X144836889Y-114486374D01*
X144938228Y-114334709D01*
X145067209Y-114205728D01*
X145218874Y-114104389D01*
X145387396Y-114034585D01*
X145566297Y-113999000D01*
X145748703Y-113999000D01*
X145927604Y-114034585D01*
X145927604Y-114034585D01*
G37*
G36*
X219509060Y-111859064D02*
G01*
X219660527Y-111889193D01*
X219874545Y-111977842D01*
X219874546Y-111977843D01*
X220067154Y-112106539D01*
X220230961Y-112270346D01*
X220316758Y-112398751D01*
X220359658Y-112462955D01*
X220448307Y-112676973D01*
X220458462Y-112728025D01*
X220488712Y-112880100D01*
X220493500Y-112904174D01*
X220493500Y-113135826D01*
X220448307Y-113363027D01*
X220359658Y-113577045D01*
X220359657Y-113577046D01*
X220230961Y-113769654D01*
X220067154Y-113933461D01*
X219938749Y-114019258D01*
X219874545Y-114062158D01*
X219660527Y-114150807D01*
X219509060Y-114180936D01*
X219433327Y-114196000D01*
X219201673Y-114196000D01*
X219125940Y-114180936D01*
X218974473Y-114150807D01*
X218760455Y-114062158D01*
X218696251Y-114019258D01*
X218567846Y-113933461D01*
X218404039Y-113769654D01*
X218275343Y-113577046D01*
X218275342Y-113577045D01*
X218186693Y-113363027D01*
X218141500Y-113135826D01*
X218141500Y-112904174D01*
X218146289Y-112880100D01*
X218176538Y-112728025D01*
X218186693Y-112676973D01*
X218275342Y-112462955D01*
X218318242Y-112398751D01*
X218404039Y-112270346D01*
X218567846Y-112106539D01*
X218760454Y-111977843D01*
X218760455Y-111977842D01*
X218974473Y-111889193D01*
X219125940Y-111859064D01*
X219201673Y-111844000D01*
X219433327Y-111844000D01*
X219509060Y-111859064D01*
X219509060Y-111859064D01*
G37*
G36*
X160223974Y-109783684D02*
G01*
X160441974Y-109873983D01*
X160596123Y-109937833D01*
X160931048Y-110161623D01*
X161215877Y-110446452D01*
X161439667Y-110781377D01*
X161472062Y-110859586D01*
X161593816Y-111153526D01*
X161672400Y-111548594D01*
X161672400Y-111951406D01*
X161593816Y-112346474D01*
X161542951Y-112469272D01*
X161439667Y-112718623D01*
X161215877Y-113053548D01*
X160931048Y-113338377D01*
X160596123Y-113562167D01*
X160452996Y-113621452D01*
X160223974Y-113716316D01*
X159828906Y-113794900D01*
X159426094Y-113794900D01*
X159031026Y-113716316D01*
X158802004Y-113621452D01*
X158658877Y-113562167D01*
X158323952Y-113338377D01*
X158039123Y-113053548D01*
X157815333Y-112718623D01*
X157712049Y-112469272D01*
X157661184Y-112346474D01*
X157582600Y-111951406D01*
X157582600Y-111548594D01*
X157661184Y-111153526D01*
X157782938Y-110859586D01*
X157815333Y-110781377D01*
X158039123Y-110446452D01*
X158323952Y-110161623D01*
X158658877Y-109937833D01*
X158813026Y-109873983D01*
X159031026Y-109783684D01*
X159426094Y-109705100D01*
X159828906Y-109705100D01*
X160223974Y-109783684D01*
X160223974Y-109783684D01*
G37*
G36*
X198323974Y-109783684D02*
G01*
X198541974Y-109873983D01*
X198696123Y-109937833D01*
X199031048Y-110161623D01*
X199315877Y-110446452D01*
X199539667Y-110781377D01*
X199572062Y-110859586D01*
X199693816Y-111153526D01*
X199772400Y-111548594D01*
X199772400Y-111951406D01*
X199693816Y-112346474D01*
X199642951Y-112469272D01*
X199539667Y-112718623D01*
X199315877Y-113053548D01*
X199031048Y-113338377D01*
X198696123Y-113562167D01*
X198552996Y-113621452D01*
X198323974Y-113716316D01*
X197928906Y-113794900D01*
X197526094Y-113794900D01*
X197131026Y-113716316D01*
X196902004Y-113621452D01*
X196758877Y-113562167D01*
X196423952Y-113338377D01*
X196139123Y-113053548D01*
X195915333Y-112718623D01*
X195812049Y-112469272D01*
X195761184Y-112346474D01*
X195682600Y-111951406D01*
X195682600Y-111548594D01*
X195761184Y-111153526D01*
X195882938Y-110859586D01*
X195915333Y-110781377D01*
X196139123Y-110446452D01*
X196423952Y-110161623D01*
X196758877Y-109937833D01*
X196913026Y-109873983D01*
X197131026Y-109783684D01*
X197526094Y-109705100D01*
X197928906Y-109705100D01*
X198323974Y-109783684D01*
X198323974Y-109783684D01*
G37*
G36*
X136959060Y-111224064D02*
G01*
X137110527Y-111254193D01*
X137324545Y-111342842D01*
X137324546Y-111342843D01*
X137517154Y-111471539D01*
X137680961Y-111635346D01*
X137696630Y-111658797D01*
X137809658Y-111827955D01*
X137898307Y-112041973D01*
X137943500Y-112269174D01*
X137943500Y-112500826D01*
X137898307Y-112728027D01*
X137809658Y-112942045D01*
X137809657Y-112942046D01*
X137680961Y-113134654D01*
X137517154Y-113298461D01*
X137388749Y-113384258D01*
X137324545Y-113427158D01*
X137110527Y-113515807D01*
X136959060Y-113545936D01*
X136883327Y-113561000D01*
X136651673Y-113561000D01*
X136575940Y-113545936D01*
X136424473Y-113515807D01*
X136210455Y-113427158D01*
X136146251Y-113384258D01*
X136017846Y-113298461D01*
X135854039Y-113134654D01*
X135725343Y-112942046D01*
X135725342Y-112942045D01*
X135636693Y-112728027D01*
X135591500Y-112500826D01*
X135591500Y-112269174D01*
X135636693Y-112041973D01*
X135725342Y-111827955D01*
X135838370Y-111658797D01*
X135854039Y-111635346D01*
X136017846Y-111471539D01*
X136210454Y-111342843D01*
X136210455Y-111342842D01*
X136424473Y-111254193D01*
X136575940Y-111224064D01*
X136651673Y-111209000D01*
X136883327Y-111209000D01*
X136959060Y-111224064D01*
X136959060Y-111224064D01*
G37*
G36*
X192917604Y-110859585D02*
G01*
X193086126Y-110929389D01*
X193237791Y-111030728D01*
X193366772Y-111159709D01*
X193468111Y-111311374D01*
X193537915Y-111479896D01*
X193573500Y-111658797D01*
X193573500Y-111841203D01*
X193537915Y-112020104D01*
X193468111Y-112188626D01*
X193366772Y-112340291D01*
X193237791Y-112469272D01*
X193086126Y-112570611D01*
X192917604Y-112640415D01*
X192738703Y-112676000D01*
X192556297Y-112676000D01*
X192377396Y-112640415D01*
X192208874Y-112570611D01*
X192057209Y-112469272D01*
X191928228Y-112340291D01*
X191826889Y-112188626D01*
X191757085Y-112020104D01*
X191721500Y-111841203D01*
X191721500Y-111658797D01*
X191757085Y-111479896D01*
X191826889Y-111311374D01*
X191928228Y-111159709D01*
X192057209Y-111030728D01*
X192208874Y-110929389D01*
X192377396Y-110859585D01*
X192556297Y-110824000D01*
X192738703Y-110824000D01*
X192917604Y-110859585D01*
X192917604Y-110859585D01*
G37*
G36*
X154817604Y-110859585D02*
G01*
X154986126Y-110929389D01*
X155137791Y-111030728D01*
X155266772Y-111159709D01*
X155368111Y-111311374D01*
X155437915Y-111479896D01*
X155473500Y-111658797D01*
X155473500Y-111841203D01*
X155437915Y-112020104D01*
X155368111Y-112188626D01*
X155266772Y-112340291D01*
X155137791Y-112469272D01*
X154986126Y-112570611D01*
X154817604Y-112640415D01*
X154638703Y-112676000D01*
X154456297Y-112676000D01*
X154277396Y-112640415D01*
X154108874Y-112570611D01*
X153957209Y-112469272D01*
X153828228Y-112340291D01*
X153726889Y-112188626D01*
X153657085Y-112020104D01*
X153621500Y-111841203D01*
X153621500Y-111658797D01*
X153657085Y-111479896D01*
X153726889Y-111311374D01*
X153828228Y-111159709D01*
X153957209Y-111030728D01*
X154108874Y-110929389D01*
X154277396Y-110859585D01*
X154456297Y-110824000D01*
X154638703Y-110824000D01*
X154817604Y-110859585D01*
X154817604Y-110859585D01*
G37*
G36*
X164977604Y-110859585D02*
G01*
X165146126Y-110929389D01*
X165297791Y-111030728D01*
X165426772Y-111159709D01*
X165528111Y-111311374D01*
X165597915Y-111479896D01*
X165633500Y-111658797D01*
X165633500Y-111841203D01*
X165597915Y-112020104D01*
X165528111Y-112188626D01*
X165426772Y-112340291D01*
X165297791Y-112469272D01*
X165146126Y-112570611D01*
X164977604Y-112640415D01*
X164798703Y-112676000D01*
X164616297Y-112676000D01*
X164437396Y-112640415D01*
X164268874Y-112570611D01*
X164117209Y-112469272D01*
X163988228Y-112340291D01*
X163886889Y-112188626D01*
X163817085Y-112020104D01*
X163781500Y-111841203D01*
X163781500Y-111658797D01*
X163817085Y-111479896D01*
X163886889Y-111311374D01*
X163988228Y-111159709D01*
X164117209Y-111030728D01*
X164268874Y-110929389D01*
X164437396Y-110859585D01*
X164616297Y-110824000D01*
X164798703Y-110824000D01*
X164977604Y-110859585D01*
X164977604Y-110859585D01*
G37*
G36*
X203077604Y-110859585D02*
G01*
X203246126Y-110929389D01*
X203397791Y-111030728D01*
X203526772Y-111159709D01*
X203628111Y-111311374D01*
X203697915Y-111479896D01*
X203733500Y-111658797D01*
X203733500Y-111841203D01*
X203697915Y-112020104D01*
X203628111Y-112188626D01*
X203526772Y-112340291D01*
X203397791Y-112469272D01*
X203246126Y-112570611D01*
X203077604Y-112640415D01*
X202898703Y-112676000D01*
X202716297Y-112676000D01*
X202537396Y-112640415D01*
X202368874Y-112570611D01*
X202217209Y-112469272D01*
X202088228Y-112340291D01*
X201986889Y-112188626D01*
X201917085Y-112020104D01*
X201881500Y-111841203D01*
X201881500Y-111658797D01*
X201917085Y-111479896D01*
X201986889Y-111311374D01*
X202088228Y-111159709D01*
X202217209Y-111030728D01*
X202368874Y-110929389D01*
X202537396Y-110859585D01*
X202716297Y-110824000D01*
X202898703Y-110824000D01*
X203077604Y-110859585D01*
X203077604Y-110859585D01*
G37*
G36*
X143309060Y-108684064D02*
G01*
X143460527Y-108714193D01*
X143674545Y-108802842D01*
X143674546Y-108802843D01*
X143867154Y-108931539D01*
X144030961Y-109095346D01*
X144116758Y-109223751D01*
X144159658Y-109287955D01*
X144248307Y-109501973D01*
X144258462Y-109553025D01*
X144288712Y-109705100D01*
X144293500Y-109729174D01*
X144293500Y-109960826D01*
X144248307Y-110188027D01*
X144159658Y-110402045D01*
X144159657Y-110402046D01*
X144030961Y-110594654D01*
X143867154Y-110758461D01*
X143738749Y-110844258D01*
X143674545Y-110887158D01*
X143460527Y-110975807D01*
X143309060Y-111005936D01*
X143233327Y-111021000D01*
X143001673Y-111021000D01*
X142925940Y-111005936D01*
X142774473Y-110975807D01*
X142560455Y-110887158D01*
X142496251Y-110844258D01*
X142367846Y-110758461D01*
X142204039Y-110594654D01*
X142075343Y-110402046D01*
X142075342Y-110402045D01*
X141986693Y-110188027D01*
X141941500Y-109960826D01*
X141941500Y-109729174D01*
X141946289Y-109705100D01*
X141976538Y-109553025D01*
X141986693Y-109501973D01*
X142075342Y-109287955D01*
X142118242Y-109223751D01*
X142204039Y-109095346D01*
X142367846Y-108931539D01*
X142560454Y-108802843D01*
X142560455Y-108802842D01*
X142774473Y-108714193D01*
X142925940Y-108684064D01*
X143001673Y-108669000D01*
X143233327Y-108669000D01*
X143309060Y-108684064D01*
X143309060Y-108684064D01*
G37*
G36*
X179273974Y-106608684D02*
G01*
X179491974Y-106698983D01*
X179646123Y-106762833D01*
X179981048Y-106986623D01*
X180265877Y-107271452D01*
X180489667Y-107606377D01*
X180522062Y-107684586D01*
X180643816Y-107978526D01*
X180722400Y-108373594D01*
X180722400Y-108776406D01*
X180643816Y-109171474D01*
X180592951Y-109294272D01*
X180489667Y-109543623D01*
X180265877Y-109878548D01*
X179981048Y-110163377D01*
X179646123Y-110387167D01*
X179502996Y-110446452D01*
X179273974Y-110541316D01*
X178878906Y-110619900D01*
X178476094Y-110619900D01*
X178081026Y-110541316D01*
X177852004Y-110446452D01*
X177708877Y-110387167D01*
X177373952Y-110163377D01*
X177089123Y-109878548D01*
X176865333Y-109543623D01*
X176762049Y-109294272D01*
X176711184Y-109171474D01*
X176632600Y-108776406D01*
X176632600Y-108373594D01*
X176711184Y-107978526D01*
X176832938Y-107684586D01*
X176865333Y-107606377D01*
X177089123Y-107271452D01*
X177373952Y-106986623D01*
X177708877Y-106762833D01*
X177863026Y-106698983D01*
X178081026Y-106608684D01*
X178476094Y-106530100D01*
X178878906Y-106530100D01*
X179273974Y-106608684D01*
X179273974Y-106608684D01*
G37*
G36*
X156009060Y-108049064D02*
G01*
X156160527Y-108079193D01*
X156374545Y-108167842D01*
X156374546Y-108167843D01*
X156567154Y-108296539D01*
X156730961Y-108460346D01*
X156746630Y-108483797D01*
X156859658Y-108652955D01*
X156948307Y-108866973D01*
X156993500Y-109094174D01*
X156993500Y-109325826D01*
X156948307Y-109553027D01*
X156859658Y-109767045D01*
X156859657Y-109767046D01*
X156730961Y-109959654D01*
X156567154Y-110123461D01*
X156438749Y-110209258D01*
X156374545Y-110252158D01*
X156160527Y-110340807D01*
X156009060Y-110370936D01*
X155933327Y-110386000D01*
X155701673Y-110386000D01*
X155625940Y-110370936D01*
X155474473Y-110340807D01*
X155260455Y-110252158D01*
X155196251Y-110209258D01*
X155067846Y-110123461D01*
X154904039Y-109959654D01*
X154775343Y-109767046D01*
X154775342Y-109767045D01*
X154686693Y-109553027D01*
X154641500Y-109325826D01*
X154641500Y-109094174D01*
X154686693Y-108866973D01*
X154775342Y-108652955D01*
X154888370Y-108483797D01*
X154904039Y-108460346D01*
X155067846Y-108296539D01*
X155260454Y-108167843D01*
X155260455Y-108167842D01*
X155474473Y-108079193D01*
X155625940Y-108049064D01*
X155701673Y-108034000D01*
X155933327Y-108034000D01*
X156009060Y-108049064D01*
X156009060Y-108049064D01*
G37*
G36*
X194109060Y-108049064D02*
G01*
X194260527Y-108079193D01*
X194474545Y-108167842D01*
X194474546Y-108167843D01*
X194667154Y-108296539D01*
X194830961Y-108460346D01*
X194846630Y-108483797D01*
X194959658Y-108652955D01*
X195048307Y-108866973D01*
X195093500Y-109094174D01*
X195093500Y-109325826D01*
X195048307Y-109553027D01*
X194959658Y-109767045D01*
X194959657Y-109767046D01*
X194830961Y-109959654D01*
X194667154Y-110123461D01*
X194538749Y-110209258D01*
X194474545Y-110252158D01*
X194260527Y-110340807D01*
X194109060Y-110370936D01*
X194033327Y-110386000D01*
X193801673Y-110386000D01*
X193725940Y-110370936D01*
X193574473Y-110340807D01*
X193360455Y-110252158D01*
X193296251Y-110209258D01*
X193167846Y-110123461D01*
X193004039Y-109959654D01*
X192875343Y-109767046D01*
X192875342Y-109767045D01*
X192786693Y-109553027D01*
X192741500Y-109325826D01*
X192741500Y-109094174D01*
X192786693Y-108866973D01*
X192875342Y-108652955D01*
X192988370Y-108483797D01*
X193004039Y-108460346D01*
X193167846Y-108296539D01*
X193360454Y-108167843D01*
X193360455Y-108167842D01*
X193574473Y-108079193D01*
X193725940Y-108049064D01*
X193801673Y-108034000D01*
X194033327Y-108034000D01*
X194109060Y-108049064D01*
X194109060Y-108049064D01*
G37*
G36*
X173867604Y-107684585D02*
G01*
X174036126Y-107754389D01*
X174187791Y-107855728D01*
X174316772Y-107984709D01*
X174418111Y-108136374D01*
X174487915Y-108304896D01*
X174523500Y-108483797D01*
X174523500Y-108666203D01*
X174487915Y-108845104D01*
X174418111Y-109013626D01*
X174316772Y-109165291D01*
X174187791Y-109294272D01*
X174036126Y-109395611D01*
X173867604Y-109465415D01*
X173688703Y-109501000D01*
X173506297Y-109501000D01*
X173327396Y-109465415D01*
X173158874Y-109395611D01*
X173007209Y-109294272D01*
X172878228Y-109165291D01*
X172776889Y-109013626D01*
X172707085Y-108845104D01*
X172671500Y-108666203D01*
X172671500Y-108483797D01*
X172707085Y-108304896D01*
X172776889Y-108136374D01*
X172878228Y-107984709D01*
X173007209Y-107855728D01*
X173158874Y-107754389D01*
X173327396Y-107684585D01*
X173506297Y-107649000D01*
X173688703Y-107649000D01*
X173867604Y-107684585D01*
X173867604Y-107684585D01*
G37*
G36*
X184027604Y-107684585D02*
G01*
X184196126Y-107754389D01*
X184347791Y-107855728D01*
X184476772Y-107984709D01*
X184578111Y-108136374D01*
X184647915Y-108304896D01*
X184683500Y-108483797D01*
X184683500Y-108666203D01*
X184647915Y-108845104D01*
X184578111Y-109013626D01*
X184476772Y-109165291D01*
X184347791Y-109294272D01*
X184196126Y-109395611D01*
X184027604Y-109465415D01*
X183848703Y-109501000D01*
X183666297Y-109501000D01*
X183487396Y-109465415D01*
X183318874Y-109395611D01*
X183167209Y-109294272D01*
X183038228Y-109165291D01*
X182936889Y-109013626D01*
X182867085Y-108845104D01*
X182831500Y-108666203D01*
X182831500Y-108483797D01*
X182867085Y-108304896D01*
X182936889Y-108136374D01*
X183038228Y-107984709D01*
X183167209Y-107855728D01*
X183318874Y-107754389D01*
X183487396Y-107684585D01*
X183666297Y-107649000D01*
X183848703Y-107649000D01*
X184027604Y-107684585D01*
X184027604Y-107684585D01*
G37*
G36*
X200459060Y-105509064D02*
G01*
X200610527Y-105539193D01*
X200824545Y-105627842D01*
X200824546Y-105627843D01*
X201017154Y-105756539D01*
X201180961Y-105920346D01*
X201266758Y-106048751D01*
X201309658Y-106112955D01*
X201398307Y-106326973D01*
X201398307Y-106326975D01*
X201438712Y-106530100D01*
X201443500Y-106554174D01*
X201443500Y-106785826D01*
X201398307Y-107013027D01*
X201309658Y-107227045D01*
X201309657Y-107227046D01*
X201180961Y-107419654D01*
X201017154Y-107583461D01*
X200888749Y-107669258D01*
X200824545Y-107712158D01*
X200610527Y-107800807D01*
X200459060Y-107830936D01*
X200383327Y-107846000D01*
X200151673Y-107846000D01*
X200075940Y-107830936D01*
X199924473Y-107800807D01*
X199710455Y-107712158D01*
X199646251Y-107669258D01*
X199517846Y-107583461D01*
X199354039Y-107419654D01*
X199225343Y-107227046D01*
X199225342Y-107227045D01*
X199136693Y-107013027D01*
X199091500Y-106785826D01*
X199091500Y-106554174D01*
X199096289Y-106530100D01*
X199136693Y-106326975D01*
X199136693Y-106326973D01*
X199225342Y-106112955D01*
X199268242Y-106048751D01*
X199354039Y-105920346D01*
X199517846Y-105756539D01*
X199710454Y-105627843D01*
X199710455Y-105627842D01*
X199924473Y-105539193D01*
X200075940Y-105509064D01*
X200151673Y-105494000D01*
X200383327Y-105494000D01*
X200459060Y-105509064D01*
X200459060Y-105509064D01*
G37*
G36*
X162359060Y-105509064D02*
G01*
X162510527Y-105539193D01*
X162724545Y-105627842D01*
X162724546Y-105627843D01*
X162917154Y-105756539D01*
X163080961Y-105920346D01*
X163166758Y-106048751D01*
X163209658Y-106112955D01*
X163298307Y-106326973D01*
X163298307Y-106326975D01*
X163338712Y-106530100D01*
X163343500Y-106554174D01*
X163343500Y-106785826D01*
X163298307Y-107013027D01*
X163209658Y-107227045D01*
X163209657Y-107227046D01*
X163080961Y-107419654D01*
X162917154Y-107583461D01*
X162788749Y-107669258D01*
X162724545Y-107712158D01*
X162510527Y-107800807D01*
X162359060Y-107830936D01*
X162283327Y-107846000D01*
X162051673Y-107846000D01*
X161975940Y-107830936D01*
X161824473Y-107800807D01*
X161610455Y-107712158D01*
X161546251Y-107669258D01*
X161417846Y-107583461D01*
X161254039Y-107419654D01*
X161125343Y-107227046D01*
X161125342Y-107227045D01*
X161036693Y-107013027D01*
X160991500Y-106785826D01*
X160991500Y-106554174D01*
X160996289Y-106530100D01*
X161036693Y-106326975D01*
X161036693Y-106326973D01*
X161125342Y-106112955D01*
X161168242Y-106048751D01*
X161254039Y-105920346D01*
X161417846Y-105756539D01*
X161610454Y-105627843D01*
X161610455Y-105627842D01*
X161824473Y-105539193D01*
X161975940Y-105509064D01*
X162051673Y-105494000D01*
X162283327Y-105494000D01*
X162359060Y-105509064D01*
X162359060Y-105509064D01*
G37*
G36*
X175059060Y-104874064D02*
G01*
X175210527Y-104904193D01*
X175424545Y-104992842D01*
X175424546Y-104992843D01*
X175617154Y-105121539D01*
X175780961Y-105285346D01*
X175866758Y-105413751D01*
X175909658Y-105477955D01*
X175998307Y-105691973D01*
X176043500Y-105919174D01*
X176043500Y-106150826D01*
X175998307Y-106378027D01*
X175909658Y-106592045D01*
X175909657Y-106592046D01*
X175780961Y-106784654D01*
X175617154Y-106948461D01*
X175488749Y-107034258D01*
X175424545Y-107077158D01*
X175210527Y-107165807D01*
X175059060Y-107195936D01*
X174983327Y-107211000D01*
X174751673Y-107211000D01*
X174675940Y-107195936D01*
X174524473Y-107165807D01*
X174310455Y-107077158D01*
X174246251Y-107034258D01*
X174117846Y-106948461D01*
X173954039Y-106784654D01*
X173825343Y-106592046D01*
X173825342Y-106592045D01*
X173736693Y-106378027D01*
X173691500Y-106150826D01*
X173691500Y-105919174D01*
X173736693Y-105691973D01*
X173825342Y-105477955D01*
X173868242Y-105413751D01*
X173954039Y-105285346D01*
X174117846Y-105121539D01*
X174310454Y-104992843D01*
X174310455Y-104992842D01*
X174524473Y-104904193D01*
X174675940Y-104874064D01*
X174751673Y-104859000D01*
X174983327Y-104859000D01*
X175059060Y-104874064D01*
X175059060Y-104874064D01*
G37*
G36*
X181409060Y-102334064D02*
G01*
X181560527Y-102364193D01*
X181774545Y-102452842D01*
X181774546Y-102452843D01*
X181967154Y-102581539D01*
X182130961Y-102745346D01*
X182216758Y-102873751D01*
X182259658Y-102937955D01*
X182348307Y-103151973D01*
X182393500Y-103379174D01*
X182393500Y-103610826D01*
X182348307Y-103838027D01*
X182259658Y-104052045D01*
X182259657Y-104052046D01*
X182130961Y-104244654D01*
X181967154Y-104408461D01*
X181838749Y-104494258D01*
X181774545Y-104537158D01*
X181560527Y-104625807D01*
X181409060Y-104655936D01*
X181333327Y-104671000D01*
X181101673Y-104671000D01*
X181025940Y-104655936D01*
X180874473Y-104625807D01*
X180660455Y-104537158D01*
X180596251Y-104494258D01*
X180467846Y-104408461D01*
X180304039Y-104244654D01*
X180175343Y-104052046D01*
X180175342Y-104052045D01*
X180086693Y-103838027D01*
X180041500Y-103610826D01*
X180041500Y-103379174D01*
X180086693Y-103151973D01*
X180175342Y-102937955D01*
X180218242Y-102873751D01*
X180304039Y-102745346D01*
X180467846Y-102581539D01*
X180660454Y-102452843D01*
X180660455Y-102452842D01*
X180874473Y-102364193D01*
X181025940Y-102334064D01*
X181101673Y-102319000D01*
X181333327Y-102319000D01*
X181409060Y-102334064D01*
X181409060Y-102334064D01*
G37*
G36*
X236423974Y-100258684D02*
G01*
X236641974Y-100348983D01*
X236796123Y-100412833D01*
X237131048Y-100636623D01*
X237415877Y-100921452D01*
X237639667Y-101256377D01*
X237672062Y-101334586D01*
X237793816Y-101628526D01*
X237872400Y-102023594D01*
X237872400Y-102426406D01*
X237793816Y-102821474D01*
X237742951Y-102944272D01*
X237639667Y-103193623D01*
X237415877Y-103528548D01*
X237131048Y-103813377D01*
X236796123Y-104037167D01*
X236641974Y-104101017D01*
X236423974Y-104191316D01*
X236028906Y-104269900D01*
X235626094Y-104269900D01*
X235231026Y-104191316D01*
X235013026Y-104101017D01*
X234858877Y-104037167D01*
X234523952Y-103813377D01*
X234239123Y-103528548D01*
X234015333Y-103193623D01*
X233912049Y-102944272D01*
X233861184Y-102821474D01*
X233782600Y-102426406D01*
X233782600Y-102023594D01*
X233861184Y-101628526D01*
X233982938Y-101334586D01*
X234015333Y-101256377D01*
X234239123Y-100921452D01*
X234523952Y-100636623D01*
X234858877Y-100412833D01*
X235013026Y-100348983D01*
X235231026Y-100258684D01*
X235626094Y-100180100D01*
X236028906Y-100180100D01*
X236423974Y-100258684D01*
X236423974Y-100258684D01*
G37*
G36*
X241177604Y-101334585D02*
G01*
X241346126Y-101404389D01*
X241497791Y-101505728D01*
X241626772Y-101634709D01*
X241728111Y-101786374D01*
X241797915Y-101954896D01*
X241833500Y-102133797D01*
X241833500Y-102316203D01*
X241797915Y-102495104D01*
X241728111Y-102663626D01*
X241626772Y-102815291D01*
X241497791Y-102944272D01*
X241346126Y-103045611D01*
X241177604Y-103115415D01*
X240998703Y-103151000D01*
X240816297Y-103151000D01*
X240637396Y-103115415D01*
X240468874Y-103045611D01*
X240317209Y-102944272D01*
X240188228Y-102815291D01*
X240086889Y-102663626D01*
X240017085Y-102495104D01*
X239981500Y-102316203D01*
X239981500Y-102133797D01*
X240017085Y-101954896D01*
X240086889Y-101786374D01*
X240188228Y-101634709D01*
X240317209Y-101505728D01*
X240468874Y-101404389D01*
X240637396Y-101334585D01*
X240816297Y-101299000D01*
X240998703Y-101299000D01*
X241177604Y-101334585D01*
X241177604Y-101334585D01*
G37*
G36*
X231017604Y-101334585D02*
G01*
X231186126Y-101404389D01*
X231337791Y-101505728D01*
X231466772Y-101634709D01*
X231568111Y-101786374D01*
X231637915Y-101954896D01*
X231673500Y-102133797D01*
X231673500Y-102316203D01*
X231637915Y-102495104D01*
X231568111Y-102663626D01*
X231466772Y-102815291D01*
X231337791Y-102944272D01*
X231186126Y-103045611D01*
X231017604Y-103115415D01*
X230838703Y-103151000D01*
X230656297Y-103151000D01*
X230477396Y-103115415D01*
X230308874Y-103045611D01*
X230157209Y-102944272D01*
X230028228Y-102815291D01*
X229926889Y-102663626D01*
X229857085Y-102495104D01*
X229821500Y-102316203D01*
X229821500Y-102133797D01*
X229857085Y-101954896D01*
X229926889Y-101786374D01*
X230028228Y-101634709D01*
X230157209Y-101505728D01*
X230308874Y-101404389D01*
X230477396Y-101334585D01*
X230656297Y-101299000D01*
X230838703Y-101299000D01*
X231017604Y-101334585D01*
X231017604Y-101334585D01*
G37*
G36*
X122123974Y-97083684D02*
G01*
X122341974Y-97173983D01*
X122496123Y-97237833D01*
X122831048Y-97461623D01*
X123115877Y-97746452D01*
X123339667Y-98081377D01*
X123372062Y-98159586D01*
X123493816Y-98453526D01*
X123572400Y-98848594D01*
X123572400Y-99251406D01*
X123493816Y-99646474D01*
X123442951Y-99769272D01*
X123339667Y-100018623D01*
X123115877Y-100353548D01*
X122831048Y-100638377D01*
X122496123Y-100862167D01*
X122352996Y-100921452D01*
X122123974Y-101016316D01*
X121728906Y-101094900D01*
X121326094Y-101094900D01*
X120931026Y-101016316D01*
X120702004Y-100921452D01*
X120558877Y-100862167D01*
X120223952Y-100638377D01*
X119939123Y-100353548D01*
X119715333Y-100018623D01*
X119612049Y-99769272D01*
X119561184Y-99646474D01*
X119482600Y-99251406D01*
X119482600Y-98848594D01*
X119561184Y-98453526D01*
X119682938Y-98159586D01*
X119715333Y-98081377D01*
X119939123Y-97746452D01*
X120223952Y-97461623D01*
X120558877Y-97237833D01*
X120713026Y-97173983D01*
X120931026Y-97083684D01*
X121326094Y-97005100D01*
X121728906Y-97005100D01*
X122123974Y-97083684D01*
X122123974Y-97083684D01*
G37*
G36*
X217373974Y-97083684D02*
G01*
X217591974Y-97173983D01*
X217746123Y-97237833D01*
X218081048Y-97461623D01*
X218365877Y-97746452D01*
X218589667Y-98081377D01*
X218622062Y-98159586D01*
X218743816Y-98453526D01*
X218822400Y-98848594D01*
X218822400Y-99251406D01*
X218743816Y-99646474D01*
X218692951Y-99769272D01*
X218589667Y-100018623D01*
X218365877Y-100353548D01*
X218081048Y-100638377D01*
X217746123Y-100862167D01*
X217602996Y-100921452D01*
X217373974Y-101016316D01*
X216978906Y-101094900D01*
X216576094Y-101094900D01*
X216181026Y-101016316D01*
X215952004Y-100921452D01*
X215808877Y-100862167D01*
X215473952Y-100638377D01*
X215189123Y-100353548D01*
X214965333Y-100018623D01*
X214862049Y-99769272D01*
X214811184Y-99646474D01*
X214732600Y-99251406D01*
X214732600Y-98848594D01*
X214811184Y-98453526D01*
X214932938Y-98159586D01*
X214965333Y-98081377D01*
X215189123Y-97746452D01*
X215473952Y-97461623D01*
X215808877Y-97237833D01*
X215963026Y-97173983D01*
X216181026Y-97083684D01*
X216576094Y-97005100D01*
X216978906Y-97005100D01*
X217373974Y-97083684D01*
X217373974Y-97083684D01*
G37*
G36*
X232209060Y-98524064D02*
G01*
X232360527Y-98554193D01*
X232574545Y-98642842D01*
X232574546Y-98642843D01*
X232767154Y-98771539D01*
X232930961Y-98935346D01*
X232946630Y-98958797D01*
X233059658Y-99127955D01*
X233148307Y-99341973D01*
X233193500Y-99569174D01*
X233193500Y-99800826D01*
X233148307Y-100028027D01*
X233059658Y-100242045D01*
X233059657Y-100242046D01*
X232930961Y-100434654D01*
X232767154Y-100598461D01*
X232710040Y-100636623D01*
X232574545Y-100727158D01*
X232360527Y-100815807D01*
X232209060Y-100845936D01*
X232133327Y-100861000D01*
X231901673Y-100861000D01*
X231825940Y-100845936D01*
X231674473Y-100815807D01*
X231460455Y-100727158D01*
X231324960Y-100636623D01*
X231267846Y-100598461D01*
X231104039Y-100434654D01*
X230975343Y-100242046D01*
X230975342Y-100242045D01*
X230886693Y-100028027D01*
X230841500Y-99800826D01*
X230841500Y-99569174D01*
X230886693Y-99341973D01*
X230975342Y-99127955D01*
X231088370Y-98958797D01*
X231104039Y-98935346D01*
X231267846Y-98771539D01*
X231460454Y-98642843D01*
X231460455Y-98642842D01*
X231674473Y-98554193D01*
X231825940Y-98524064D01*
X231901673Y-98509000D01*
X232133327Y-98509000D01*
X232209060Y-98524064D01*
X232209060Y-98524064D01*
G37*
G36*
X126877604Y-98159585D02*
G01*
X127046126Y-98229389D01*
X127197791Y-98330728D01*
X127326772Y-98459709D01*
X127428111Y-98611374D01*
X127497915Y-98779896D01*
X127533500Y-98958797D01*
X127533500Y-99141203D01*
X127497915Y-99320104D01*
X127428111Y-99488626D01*
X127326772Y-99640291D01*
X127197791Y-99769272D01*
X127046126Y-99870611D01*
X126877604Y-99940415D01*
X126698703Y-99976000D01*
X126516297Y-99976000D01*
X126337396Y-99940415D01*
X126168874Y-99870611D01*
X126017209Y-99769272D01*
X125888228Y-99640291D01*
X125786889Y-99488626D01*
X125717085Y-99320104D01*
X125681500Y-99141203D01*
X125681500Y-98958797D01*
X125717085Y-98779896D01*
X125786889Y-98611374D01*
X125888228Y-98459709D01*
X126017209Y-98330728D01*
X126168874Y-98229389D01*
X126337396Y-98159585D01*
X126516297Y-98124000D01*
X126698703Y-98124000D01*
X126877604Y-98159585D01*
X126877604Y-98159585D01*
G37*
G36*
X116717604Y-98159585D02*
G01*
X116886126Y-98229389D01*
X117037791Y-98330728D01*
X117166772Y-98459709D01*
X117268111Y-98611374D01*
X117337915Y-98779896D01*
X117373500Y-98958797D01*
X117373500Y-99141203D01*
X117337915Y-99320104D01*
X117268111Y-99488626D01*
X117166772Y-99640291D01*
X117037791Y-99769272D01*
X116886126Y-99870611D01*
X116717604Y-99940415D01*
X116538703Y-99976000D01*
X116356297Y-99976000D01*
X116177396Y-99940415D01*
X116008874Y-99870611D01*
X115857209Y-99769272D01*
X115728228Y-99640291D01*
X115626889Y-99488626D01*
X115557085Y-99320104D01*
X115521500Y-99141203D01*
X115521500Y-98958797D01*
X115557085Y-98779896D01*
X115626889Y-98611374D01*
X115728228Y-98459709D01*
X115857209Y-98330728D01*
X116008874Y-98229389D01*
X116177396Y-98159585D01*
X116356297Y-98124000D01*
X116538703Y-98124000D01*
X116717604Y-98159585D01*
X116717604Y-98159585D01*
G37*
G36*
X222127604Y-98159585D02*
G01*
X222296126Y-98229389D01*
X222447791Y-98330728D01*
X222576772Y-98459709D01*
X222678111Y-98611374D01*
X222747915Y-98779896D01*
X222783500Y-98958797D01*
X222783500Y-99141203D01*
X222747915Y-99320104D01*
X222678111Y-99488626D01*
X222576772Y-99640291D01*
X222447791Y-99769272D01*
X222296126Y-99870611D01*
X222127604Y-99940415D01*
X221948703Y-99976000D01*
X221766297Y-99976000D01*
X221587396Y-99940415D01*
X221418874Y-99870611D01*
X221267209Y-99769272D01*
X221138228Y-99640291D01*
X221036889Y-99488626D01*
X220967085Y-99320104D01*
X220931500Y-99141203D01*
X220931500Y-98958797D01*
X220967085Y-98779896D01*
X221036889Y-98611374D01*
X221138228Y-98459709D01*
X221267209Y-98330728D01*
X221418874Y-98229389D01*
X221587396Y-98159585D01*
X221766297Y-98124000D01*
X221948703Y-98124000D01*
X222127604Y-98159585D01*
X222127604Y-98159585D01*
G37*
G36*
X211967604Y-98159585D02*
G01*
X212136126Y-98229389D01*
X212287791Y-98330728D01*
X212416772Y-98459709D01*
X212518111Y-98611374D01*
X212587915Y-98779896D01*
X212623500Y-98958797D01*
X212623500Y-99141203D01*
X212587915Y-99320104D01*
X212518111Y-99488626D01*
X212416772Y-99640291D01*
X212287791Y-99769272D01*
X212136126Y-99870611D01*
X211967604Y-99940415D01*
X211788703Y-99976000D01*
X211606297Y-99976000D01*
X211427396Y-99940415D01*
X211258874Y-99870611D01*
X211107209Y-99769272D01*
X210978228Y-99640291D01*
X210876889Y-99488626D01*
X210807085Y-99320104D01*
X210771500Y-99141203D01*
X210771500Y-98958797D01*
X210807085Y-98779896D01*
X210876889Y-98611374D01*
X210978228Y-98459709D01*
X211107209Y-98330728D01*
X211258874Y-98229389D01*
X211427396Y-98159585D01*
X211606297Y-98124000D01*
X211788703Y-98124000D01*
X211967604Y-98159585D01*
X211967604Y-98159585D01*
G37*
G36*
X238559060Y-95984064D02*
G01*
X238710527Y-96014193D01*
X238924545Y-96102842D01*
X238924546Y-96102843D01*
X239117154Y-96231539D01*
X239280961Y-96395346D01*
X239366758Y-96523751D01*
X239409658Y-96587955D01*
X239498307Y-96801973D01*
X239508462Y-96853025D01*
X239538712Y-97005100D01*
X239543500Y-97029174D01*
X239543500Y-97260826D01*
X239498307Y-97488027D01*
X239409658Y-97702045D01*
X239409657Y-97702046D01*
X239280961Y-97894654D01*
X239117154Y-98058461D01*
X238988749Y-98144258D01*
X238924545Y-98187158D01*
X238710527Y-98275807D01*
X238559060Y-98305936D01*
X238483327Y-98321000D01*
X238251673Y-98321000D01*
X238175940Y-98305936D01*
X238024473Y-98275807D01*
X237810455Y-98187158D01*
X237746251Y-98144258D01*
X237617846Y-98058461D01*
X237454039Y-97894654D01*
X237325343Y-97702046D01*
X237325342Y-97702045D01*
X237236693Y-97488027D01*
X237191500Y-97260826D01*
X237191500Y-97029174D01*
X237196289Y-97005100D01*
X237226538Y-96853025D01*
X237236693Y-96801973D01*
X237325342Y-96587955D01*
X237368242Y-96523751D01*
X237454039Y-96395346D01*
X237617846Y-96231539D01*
X237810454Y-96102843D01*
X237810455Y-96102842D01*
X238024473Y-96014193D01*
X238175940Y-95984064D01*
X238251673Y-95969000D01*
X238483327Y-95969000D01*
X238559060Y-95984064D01*
X238559060Y-95984064D01*
G37*
G36*
X141173974Y-93908684D02*
G01*
X141391974Y-93998983D01*
X141546123Y-94062833D01*
X141881048Y-94286623D01*
X142165877Y-94571452D01*
X142389667Y-94906377D01*
X142422062Y-94984586D01*
X142543816Y-95278526D01*
X142622400Y-95673594D01*
X142622400Y-96076406D01*
X142543816Y-96471474D01*
X142492951Y-96594272D01*
X142389667Y-96843623D01*
X142165877Y-97178548D01*
X141881048Y-97463377D01*
X141546123Y-97687167D01*
X141402996Y-97746452D01*
X141173974Y-97841316D01*
X140778906Y-97919900D01*
X140376094Y-97919900D01*
X139981026Y-97841316D01*
X139752004Y-97746452D01*
X139608877Y-97687167D01*
X139273952Y-97463377D01*
X138989123Y-97178548D01*
X138765333Y-96843623D01*
X138662049Y-96594272D01*
X138611184Y-96471474D01*
X138532600Y-96076406D01*
X138532600Y-95673594D01*
X138611184Y-95278526D01*
X138732938Y-94984586D01*
X138765333Y-94906377D01*
X138989123Y-94571452D01*
X139273952Y-94286623D01*
X139608877Y-94062833D01*
X139763026Y-93998983D01*
X139981026Y-93908684D01*
X140376094Y-93830100D01*
X140778906Y-93830100D01*
X141173974Y-93908684D01*
X141173974Y-93908684D01*
G37*
G36*
X117909060Y-95349064D02*
G01*
X118060527Y-95379193D01*
X118274545Y-95467842D01*
X118274546Y-95467843D01*
X118467154Y-95596539D01*
X118630961Y-95760346D01*
X118646630Y-95783797D01*
X118759658Y-95952955D01*
X118848307Y-96166973D01*
X118893500Y-96394174D01*
X118893500Y-96625826D01*
X118848307Y-96853027D01*
X118759658Y-97067045D01*
X118759657Y-97067046D01*
X118630961Y-97259654D01*
X118467154Y-97423461D01*
X118338749Y-97509258D01*
X118274545Y-97552158D01*
X118060527Y-97640807D01*
X117909060Y-97670936D01*
X117833327Y-97686000D01*
X117601673Y-97686000D01*
X117525940Y-97670936D01*
X117374473Y-97640807D01*
X117160455Y-97552158D01*
X117096251Y-97509258D01*
X116967846Y-97423461D01*
X116804039Y-97259654D01*
X116675343Y-97067046D01*
X116675342Y-97067045D01*
X116586693Y-96853027D01*
X116541500Y-96625826D01*
X116541500Y-96394174D01*
X116586693Y-96166973D01*
X116675342Y-95952955D01*
X116788370Y-95783797D01*
X116804039Y-95760346D01*
X116967846Y-95596539D01*
X117160454Y-95467843D01*
X117160455Y-95467842D01*
X117374473Y-95379193D01*
X117525940Y-95349064D01*
X117601673Y-95334000D01*
X117833327Y-95334000D01*
X117909060Y-95349064D01*
X117909060Y-95349064D01*
G37*
G36*
X213159060Y-95349064D02*
G01*
X213310527Y-95379193D01*
X213524545Y-95467842D01*
X213524546Y-95467843D01*
X213717154Y-95596539D01*
X213880961Y-95760346D01*
X213896630Y-95783797D01*
X214009658Y-95952955D01*
X214098307Y-96166973D01*
X214143500Y-96394174D01*
X214143500Y-96625826D01*
X214098307Y-96853027D01*
X214009658Y-97067045D01*
X214009657Y-97067046D01*
X213880961Y-97259654D01*
X213717154Y-97423461D01*
X213588749Y-97509258D01*
X213524545Y-97552158D01*
X213310527Y-97640807D01*
X213159060Y-97670936D01*
X213083327Y-97686000D01*
X212851673Y-97686000D01*
X212775940Y-97670936D01*
X212624473Y-97640807D01*
X212410455Y-97552158D01*
X212346251Y-97509258D01*
X212217846Y-97423461D01*
X212054039Y-97259654D01*
X211925343Y-97067046D01*
X211925342Y-97067045D01*
X211836693Y-96853027D01*
X211791500Y-96625826D01*
X211791500Y-96394174D01*
X211836693Y-96166973D01*
X211925342Y-95952955D01*
X212038370Y-95783797D01*
X212054039Y-95760346D01*
X212217846Y-95596539D01*
X212410454Y-95467843D01*
X212410455Y-95467842D01*
X212624473Y-95379193D01*
X212775940Y-95349064D01*
X212851673Y-95334000D01*
X213083327Y-95334000D01*
X213159060Y-95349064D01*
X213159060Y-95349064D01*
G37*
G36*
X135767604Y-94984585D02*
G01*
X135936126Y-95054389D01*
X136087791Y-95155728D01*
X136216772Y-95284709D01*
X136318111Y-95436374D01*
X136387915Y-95604896D01*
X136423500Y-95783797D01*
X136423500Y-95966203D01*
X136387915Y-96145104D01*
X136318111Y-96313626D01*
X136216772Y-96465291D01*
X136087791Y-96594272D01*
X135936126Y-96695611D01*
X135767604Y-96765415D01*
X135588703Y-96801000D01*
X135406297Y-96801000D01*
X135227396Y-96765415D01*
X135058874Y-96695611D01*
X134907209Y-96594272D01*
X134778228Y-96465291D01*
X134676889Y-96313626D01*
X134607085Y-96145104D01*
X134571500Y-95966203D01*
X134571500Y-95783797D01*
X134607085Y-95604896D01*
X134676889Y-95436374D01*
X134778228Y-95284709D01*
X134907209Y-95155728D01*
X135058874Y-95054389D01*
X135227396Y-94984585D01*
X135406297Y-94949000D01*
X135588703Y-94949000D01*
X135767604Y-94984585D01*
X135767604Y-94984585D01*
G37*
G36*
X145927604Y-94984585D02*
G01*
X146096126Y-95054389D01*
X146247791Y-95155728D01*
X146376772Y-95284709D01*
X146478111Y-95436374D01*
X146547915Y-95604896D01*
X146583500Y-95783797D01*
X146583500Y-95966203D01*
X146547915Y-96145104D01*
X146478111Y-96313626D01*
X146376772Y-96465291D01*
X146247791Y-96594272D01*
X146096126Y-96695611D01*
X145927604Y-96765415D01*
X145748703Y-96801000D01*
X145566297Y-96801000D01*
X145387396Y-96765415D01*
X145218874Y-96695611D01*
X145067209Y-96594272D01*
X144938228Y-96465291D01*
X144836889Y-96313626D01*
X144767085Y-96145104D01*
X144731500Y-95966203D01*
X144731500Y-95783797D01*
X144767085Y-95604896D01*
X144836889Y-95436374D01*
X144938228Y-95284709D01*
X145067209Y-95155728D01*
X145218874Y-95054389D01*
X145387396Y-94984585D01*
X145566297Y-94949000D01*
X145748703Y-94949000D01*
X145927604Y-94984585D01*
X145927604Y-94984585D01*
G37*
G36*
X219509060Y-92809064D02*
G01*
X219660527Y-92839193D01*
X219874545Y-92927842D01*
X219874546Y-92927843D01*
X220067154Y-93056539D01*
X220230961Y-93220346D01*
X220316758Y-93348751D01*
X220359658Y-93412955D01*
X220448307Y-93626973D01*
X220458462Y-93678025D01*
X220488712Y-93830100D01*
X220493500Y-93854174D01*
X220493500Y-94085826D01*
X220448307Y-94313027D01*
X220359658Y-94527045D01*
X220359657Y-94527046D01*
X220230961Y-94719654D01*
X220067154Y-94883461D01*
X219938749Y-94969258D01*
X219874545Y-95012158D01*
X219660527Y-95100807D01*
X219509060Y-95130936D01*
X219433327Y-95146000D01*
X219201673Y-95146000D01*
X219125940Y-95130936D01*
X218974473Y-95100807D01*
X218760455Y-95012158D01*
X218696251Y-94969258D01*
X218567846Y-94883461D01*
X218404039Y-94719654D01*
X218275343Y-94527046D01*
X218275342Y-94527045D01*
X218186693Y-94313027D01*
X218141500Y-94085826D01*
X218141500Y-93854174D01*
X218146289Y-93830100D01*
X218176538Y-93678025D01*
X218186693Y-93626973D01*
X218275342Y-93412955D01*
X218318242Y-93348751D01*
X218404039Y-93220346D01*
X218567846Y-93056539D01*
X218760454Y-92927843D01*
X218760455Y-92927842D01*
X218974473Y-92839193D01*
X219125940Y-92809064D01*
X219201673Y-92794000D01*
X219433327Y-92794000D01*
X219509060Y-92809064D01*
X219509060Y-92809064D01*
G37*
G36*
X124259060Y-92809064D02*
G01*
X124410527Y-92839193D01*
X124624545Y-92927842D01*
X124624546Y-92927843D01*
X124817154Y-93056539D01*
X124980961Y-93220346D01*
X125066758Y-93348751D01*
X125109658Y-93412955D01*
X125198307Y-93626973D01*
X125208462Y-93678025D01*
X125238712Y-93830100D01*
X125243500Y-93854174D01*
X125243500Y-94085826D01*
X125198307Y-94313027D01*
X125109658Y-94527045D01*
X125109657Y-94527046D01*
X124980961Y-94719654D01*
X124817154Y-94883461D01*
X124688749Y-94969258D01*
X124624545Y-95012158D01*
X124410527Y-95100807D01*
X124259060Y-95130936D01*
X124183327Y-95146000D01*
X123951673Y-95146000D01*
X123875940Y-95130936D01*
X123724473Y-95100807D01*
X123510455Y-95012158D01*
X123446251Y-94969258D01*
X123317846Y-94883461D01*
X123154039Y-94719654D01*
X123025343Y-94527046D01*
X123025342Y-94527045D01*
X122936693Y-94313027D01*
X122891500Y-94085826D01*
X122891500Y-93854174D01*
X122896289Y-93830100D01*
X122926538Y-93678025D01*
X122936693Y-93626973D01*
X123025342Y-93412955D01*
X123068242Y-93348751D01*
X123154039Y-93220346D01*
X123317846Y-93056539D01*
X123510454Y-92927843D01*
X123510455Y-92927842D01*
X123724473Y-92839193D01*
X123875940Y-92809064D01*
X123951673Y-92794000D01*
X124183327Y-92794000D01*
X124259060Y-92809064D01*
X124259060Y-92809064D01*
G37*
G36*
X160223974Y-90733684D02*
G01*
X160441974Y-90823983D01*
X160596123Y-90887833D01*
X160931048Y-91111623D01*
X161215877Y-91396452D01*
X161439667Y-91731377D01*
X161472062Y-91809586D01*
X161593816Y-92103526D01*
X161672400Y-92498594D01*
X161672400Y-92901406D01*
X161593816Y-93296474D01*
X161542951Y-93419272D01*
X161439667Y-93668623D01*
X161215877Y-94003548D01*
X160931048Y-94288377D01*
X160596123Y-94512167D01*
X160452996Y-94571452D01*
X160223974Y-94666316D01*
X159828906Y-94744900D01*
X159426094Y-94744900D01*
X159031026Y-94666316D01*
X158802004Y-94571452D01*
X158658877Y-94512167D01*
X158323952Y-94288377D01*
X158039123Y-94003548D01*
X157815333Y-93668623D01*
X157712049Y-93419272D01*
X157661184Y-93296474D01*
X157582600Y-92901406D01*
X157582600Y-92498594D01*
X157661184Y-92103526D01*
X157782938Y-91809586D01*
X157815333Y-91731377D01*
X158039123Y-91396452D01*
X158323952Y-91111623D01*
X158658877Y-90887833D01*
X158813026Y-90823983D01*
X159031026Y-90733684D01*
X159426094Y-90655100D01*
X159828906Y-90655100D01*
X160223974Y-90733684D01*
X160223974Y-90733684D01*
G37*
G36*
X198323974Y-90733684D02*
G01*
X198541974Y-90823983D01*
X198696123Y-90887833D01*
X199031048Y-91111623D01*
X199315877Y-91396452D01*
X199539667Y-91731377D01*
X199572062Y-91809586D01*
X199693816Y-92103526D01*
X199772400Y-92498594D01*
X199772400Y-92901406D01*
X199693816Y-93296474D01*
X199642951Y-93419272D01*
X199539667Y-93668623D01*
X199315877Y-94003548D01*
X199031048Y-94288377D01*
X198696123Y-94512167D01*
X198552996Y-94571452D01*
X198323974Y-94666316D01*
X197928906Y-94744900D01*
X197526094Y-94744900D01*
X197131026Y-94666316D01*
X196902004Y-94571452D01*
X196758877Y-94512167D01*
X196423952Y-94288377D01*
X196139123Y-94003548D01*
X195915333Y-93668623D01*
X195812049Y-93419272D01*
X195761184Y-93296474D01*
X195682600Y-92901406D01*
X195682600Y-92498594D01*
X195761184Y-92103526D01*
X195882938Y-91809586D01*
X195915333Y-91731377D01*
X196139123Y-91396452D01*
X196423952Y-91111623D01*
X196758877Y-90887833D01*
X196913026Y-90823983D01*
X197131026Y-90733684D01*
X197526094Y-90655100D01*
X197928906Y-90655100D01*
X198323974Y-90733684D01*
X198323974Y-90733684D01*
G37*
G36*
X136959060Y-92174064D02*
G01*
X137110527Y-92204193D01*
X137324545Y-92292842D01*
X137324546Y-92292843D01*
X137517154Y-92421539D01*
X137680961Y-92585346D01*
X137696630Y-92608797D01*
X137809658Y-92777955D01*
X137898307Y-92991973D01*
X137943500Y-93219174D01*
X137943500Y-93450826D01*
X137898307Y-93678027D01*
X137809658Y-93892045D01*
X137809657Y-93892046D01*
X137680961Y-94084654D01*
X137517154Y-94248461D01*
X137388749Y-94334258D01*
X137324545Y-94377158D01*
X137110527Y-94465807D01*
X136959060Y-94495936D01*
X136883327Y-94511000D01*
X136651673Y-94511000D01*
X136575940Y-94495936D01*
X136424473Y-94465807D01*
X136210455Y-94377158D01*
X136146251Y-94334258D01*
X136017846Y-94248461D01*
X135854039Y-94084654D01*
X135725343Y-93892046D01*
X135725342Y-93892045D01*
X135636693Y-93678027D01*
X135591500Y-93450826D01*
X135591500Y-93219174D01*
X135636693Y-92991973D01*
X135725342Y-92777955D01*
X135838370Y-92608797D01*
X135854039Y-92585346D01*
X136017846Y-92421539D01*
X136210454Y-92292843D01*
X136210455Y-92292842D01*
X136424473Y-92204193D01*
X136575940Y-92174064D01*
X136651673Y-92159000D01*
X136883327Y-92159000D01*
X136959060Y-92174064D01*
X136959060Y-92174064D01*
G37*
G36*
X192917604Y-91809585D02*
G01*
X193086126Y-91879389D01*
X193237791Y-91980728D01*
X193366772Y-92109709D01*
X193468111Y-92261374D01*
X193537915Y-92429896D01*
X193573500Y-92608797D01*
X193573500Y-92791203D01*
X193537915Y-92970104D01*
X193468111Y-93138626D01*
X193366772Y-93290291D01*
X193237791Y-93419272D01*
X193086126Y-93520611D01*
X192917604Y-93590415D01*
X192738703Y-93626000D01*
X192556297Y-93626000D01*
X192377396Y-93590415D01*
X192208874Y-93520611D01*
X192057209Y-93419272D01*
X191928228Y-93290291D01*
X191826889Y-93138626D01*
X191757085Y-92970104D01*
X191721500Y-92791203D01*
X191721500Y-92608797D01*
X191757085Y-92429896D01*
X191826889Y-92261374D01*
X191928228Y-92109709D01*
X192057209Y-91980728D01*
X192208874Y-91879389D01*
X192377396Y-91809585D01*
X192556297Y-91774000D01*
X192738703Y-91774000D01*
X192917604Y-91809585D01*
X192917604Y-91809585D01*
G37*
G36*
X154817604Y-91809585D02*
G01*
X154986126Y-91879389D01*
X155137791Y-91980728D01*
X155266772Y-92109709D01*
X155368111Y-92261374D01*
X155437915Y-92429896D01*
X155473500Y-92608797D01*
X155473500Y-92791203D01*
X155437915Y-92970104D01*
X155368111Y-93138626D01*
X155266772Y-93290291D01*
X155137791Y-93419272D01*
X154986126Y-93520611D01*
X154817604Y-93590415D01*
X154638703Y-93626000D01*
X154456297Y-93626000D01*
X154277396Y-93590415D01*
X154108874Y-93520611D01*
X153957209Y-93419272D01*
X153828228Y-93290291D01*
X153726889Y-93138626D01*
X153657085Y-92970104D01*
X153621500Y-92791203D01*
X153621500Y-92608797D01*
X153657085Y-92429896D01*
X153726889Y-92261374D01*
X153828228Y-92109709D01*
X153957209Y-91980728D01*
X154108874Y-91879389D01*
X154277396Y-91809585D01*
X154456297Y-91774000D01*
X154638703Y-91774000D01*
X154817604Y-91809585D01*
X154817604Y-91809585D01*
G37*
G36*
X164977604Y-91809585D02*
G01*
X165146126Y-91879389D01*
X165297791Y-91980728D01*
X165426772Y-92109709D01*
X165528111Y-92261374D01*
X165597915Y-92429896D01*
X165633500Y-92608797D01*
X165633500Y-92791203D01*
X165597915Y-92970104D01*
X165528111Y-93138626D01*
X165426772Y-93290291D01*
X165297791Y-93419272D01*
X165146126Y-93520611D01*
X164977604Y-93590415D01*
X164798703Y-93626000D01*
X164616297Y-93626000D01*
X164437396Y-93590415D01*
X164268874Y-93520611D01*
X164117209Y-93419272D01*
X163988228Y-93290291D01*
X163886889Y-93138626D01*
X163817085Y-92970104D01*
X163781500Y-92791203D01*
X163781500Y-92608797D01*
X163817085Y-92429896D01*
X163886889Y-92261374D01*
X163988228Y-92109709D01*
X164117209Y-91980728D01*
X164268874Y-91879389D01*
X164437396Y-91809585D01*
X164616297Y-91774000D01*
X164798703Y-91774000D01*
X164977604Y-91809585D01*
X164977604Y-91809585D01*
G37*
G36*
X203077604Y-91809585D02*
G01*
X203246126Y-91879389D01*
X203397791Y-91980728D01*
X203526772Y-92109709D01*
X203628111Y-92261374D01*
X203697915Y-92429896D01*
X203733500Y-92608797D01*
X203733500Y-92791203D01*
X203697915Y-92970104D01*
X203628111Y-93138626D01*
X203526772Y-93290291D01*
X203397791Y-93419272D01*
X203246126Y-93520611D01*
X203077604Y-93590415D01*
X202898703Y-93626000D01*
X202716297Y-93626000D01*
X202537396Y-93590415D01*
X202368874Y-93520611D01*
X202217209Y-93419272D01*
X202088228Y-93290291D01*
X201986889Y-93138626D01*
X201917085Y-92970104D01*
X201881500Y-92791203D01*
X201881500Y-92608797D01*
X201917085Y-92429896D01*
X201986889Y-92261374D01*
X202088228Y-92109709D01*
X202217209Y-91980728D01*
X202368874Y-91879389D01*
X202537396Y-91809585D01*
X202716297Y-91774000D01*
X202898703Y-91774000D01*
X203077604Y-91809585D01*
X203077604Y-91809585D01*
G37*
G36*
X143309060Y-89634064D02*
G01*
X143460527Y-89664193D01*
X143674545Y-89752842D01*
X143674546Y-89752843D01*
X143867154Y-89881539D01*
X144030961Y-90045346D01*
X144116758Y-90173751D01*
X144159658Y-90237955D01*
X144248307Y-90451973D01*
X144258462Y-90503025D01*
X144288712Y-90655100D01*
X144293500Y-90679174D01*
X144293500Y-90910826D01*
X144248307Y-91138027D01*
X144159658Y-91352045D01*
X144159657Y-91352046D01*
X144030961Y-91544654D01*
X143867154Y-91708461D01*
X143738749Y-91794258D01*
X143674545Y-91837158D01*
X143460527Y-91925807D01*
X143309060Y-91955936D01*
X143233327Y-91971000D01*
X143001673Y-91971000D01*
X142925940Y-91955936D01*
X142774473Y-91925807D01*
X142560455Y-91837158D01*
X142496251Y-91794258D01*
X142367846Y-91708461D01*
X142204039Y-91544654D01*
X142075343Y-91352046D01*
X142075342Y-91352045D01*
X141986693Y-91138027D01*
X141941500Y-90910826D01*
X141941500Y-90679174D01*
X141946289Y-90655100D01*
X141976538Y-90503025D01*
X141986693Y-90451973D01*
X142075342Y-90237955D01*
X142118242Y-90173751D01*
X142204039Y-90045346D01*
X142367846Y-89881539D01*
X142560454Y-89752843D01*
X142560455Y-89752842D01*
X142774473Y-89664193D01*
X142925940Y-89634064D01*
X143001673Y-89619000D01*
X143233327Y-89619000D01*
X143309060Y-89634064D01*
X143309060Y-89634064D01*
G37*
G36*
X179273974Y-87558684D02*
G01*
X179491974Y-87648983D01*
X179646123Y-87712833D01*
X179981048Y-87936623D01*
X180265877Y-88221452D01*
X180489667Y-88556377D01*
X180522062Y-88634586D01*
X180643816Y-88928526D01*
X180722400Y-89323594D01*
X180722400Y-89726406D01*
X180643816Y-90121474D01*
X180592951Y-90244272D01*
X180489667Y-90493623D01*
X180265877Y-90828548D01*
X179981048Y-91113377D01*
X179646123Y-91337167D01*
X179502996Y-91396452D01*
X179273974Y-91491316D01*
X178878906Y-91569900D01*
X178476094Y-91569900D01*
X178081026Y-91491316D01*
X177852004Y-91396452D01*
X177708877Y-91337167D01*
X177373952Y-91113377D01*
X177089123Y-90828548D01*
X176865333Y-90493623D01*
X176762049Y-90244272D01*
X176711184Y-90121474D01*
X176632600Y-89726406D01*
X176632600Y-89323594D01*
X176711184Y-88928526D01*
X176832938Y-88634586D01*
X176865333Y-88556377D01*
X177089123Y-88221452D01*
X177373952Y-87936623D01*
X177708877Y-87712833D01*
X177863026Y-87648983D01*
X178081026Y-87558684D01*
X178476094Y-87480100D01*
X178878906Y-87480100D01*
X179273974Y-87558684D01*
X179273974Y-87558684D01*
G37*
G36*
X156009060Y-88999064D02*
G01*
X156160527Y-89029193D01*
X156374545Y-89117842D01*
X156374546Y-89117843D01*
X156567154Y-89246539D01*
X156730961Y-89410346D01*
X156746630Y-89433797D01*
X156859658Y-89602955D01*
X156948307Y-89816973D01*
X156993500Y-90044174D01*
X156993500Y-90275826D01*
X156948307Y-90503027D01*
X156859658Y-90717045D01*
X156859657Y-90717046D01*
X156730961Y-90909654D01*
X156567154Y-91073461D01*
X156438749Y-91159258D01*
X156374545Y-91202158D01*
X156160527Y-91290807D01*
X156009060Y-91320936D01*
X155933327Y-91336000D01*
X155701673Y-91336000D01*
X155625940Y-91320936D01*
X155474473Y-91290807D01*
X155260455Y-91202158D01*
X155196251Y-91159258D01*
X155067846Y-91073461D01*
X154904039Y-90909654D01*
X154775343Y-90717046D01*
X154775342Y-90717045D01*
X154686693Y-90503027D01*
X154641500Y-90275826D01*
X154641500Y-90044174D01*
X154686693Y-89816973D01*
X154775342Y-89602955D01*
X154888370Y-89433797D01*
X154904039Y-89410346D01*
X155067846Y-89246539D01*
X155260454Y-89117843D01*
X155260455Y-89117842D01*
X155474473Y-89029193D01*
X155625940Y-88999064D01*
X155701673Y-88984000D01*
X155933327Y-88984000D01*
X156009060Y-88999064D01*
X156009060Y-88999064D01*
G37*
G36*
X194109060Y-88999064D02*
G01*
X194260527Y-89029193D01*
X194474545Y-89117842D01*
X194474546Y-89117843D01*
X194667154Y-89246539D01*
X194830961Y-89410346D01*
X194846630Y-89433797D01*
X194959658Y-89602955D01*
X195048307Y-89816973D01*
X195093500Y-90044174D01*
X195093500Y-90275826D01*
X195048307Y-90503027D01*
X194959658Y-90717045D01*
X194959657Y-90717046D01*
X194830961Y-90909654D01*
X194667154Y-91073461D01*
X194538749Y-91159258D01*
X194474545Y-91202158D01*
X194260527Y-91290807D01*
X194109060Y-91320936D01*
X194033327Y-91336000D01*
X193801673Y-91336000D01*
X193725940Y-91320936D01*
X193574473Y-91290807D01*
X193360455Y-91202158D01*
X193296251Y-91159258D01*
X193167846Y-91073461D01*
X193004039Y-90909654D01*
X192875343Y-90717046D01*
X192875342Y-90717045D01*
X192786693Y-90503027D01*
X192741500Y-90275826D01*
X192741500Y-90044174D01*
X192786693Y-89816973D01*
X192875342Y-89602955D01*
X192988370Y-89433797D01*
X193004039Y-89410346D01*
X193167846Y-89246539D01*
X193360454Y-89117843D01*
X193360455Y-89117842D01*
X193574473Y-89029193D01*
X193725940Y-88999064D01*
X193801673Y-88984000D01*
X194033327Y-88984000D01*
X194109060Y-88999064D01*
X194109060Y-88999064D01*
G37*
G36*
X184027604Y-88634585D02*
G01*
X184196126Y-88704389D01*
X184347791Y-88805728D01*
X184476772Y-88934709D01*
X184578111Y-89086374D01*
X184647915Y-89254896D01*
X184683500Y-89433797D01*
X184683500Y-89616203D01*
X184647915Y-89795104D01*
X184578111Y-89963626D01*
X184476772Y-90115291D01*
X184347791Y-90244272D01*
X184196126Y-90345611D01*
X184027604Y-90415415D01*
X183848703Y-90451000D01*
X183666297Y-90451000D01*
X183487396Y-90415415D01*
X183318874Y-90345611D01*
X183167209Y-90244272D01*
X183038228Y-90115291D01*
X182936889Y-89963626D01*
X182867085Y-89795104D01*
X182831500Y-89616203D01*
X182831500Y-89433797D01*
X182867085Y-89254896D01*
X182936889Y-89086374D01*
X183038228Y-88934709D01*
X183167209Y-88805728D01*
X183318874Y-88704389D01*
X183487396Y-88634585D01*
X183666297Y-88599000D01*
X183848703Y-88599000D01*
X184027604Y-88634585D01*
X184027604Y-88634585D01*
G37*
G36*
X173867604Y-88634585D02*
G01*
X174036126Y-88704389D01*
X174187791Y-88805728D01*
X174316772Y-88934709D01*
X174418111Y-89086374D01*
X174487915Y-89254896D01*
X174523500Y-89433797D01*
X174523500Y-89616203D01*
X174487915Y-89795104D01*
X174418111Y-89963626D01*
X174316772Y-90115291D01*
X174187791Y-90244272D01*
X174036126Y-90345611D01*
X173867604Y-90415415D01*
X173688703Y-90451000D01*
X173506297Y-90451000D01*
X173327396Y-90415415D01*
X173158874Y-90345611D01*
X173007209Y-90244272D01*
X172878228Y-90115291D01*
X172776889Y-89963626D01*
X172707085Y-89795104D01*
X172671500Y-89616203D01*
X172671500Y-89433797D01*
X172707085Y-89254896D01*
X172776889Y-89086374D01*
X172878228Y-88934709D01*
X173007209Y-88805728D01*
X173158874Y-88704389D01*
X173327396Y-88634585D01*
X173506297Y-88599000D01*
X173688703Y-88599000D01*
X173867604Y-88634585D01*
X173867604Y-88634585D01*
G37*
G36*
X162359060Y-86459064D02*
G01*
X162510527Y-86489193D01*
X162724545Y-86577842D01*
X162724546Y-86577843D01*
X162917154Y-86706539D01*
X163080961Y-86870346D01*
X163166758Y-86998751D01*
X163209658Y-87062955D01*
X163298307Y-87276973D01*
X163298307Y-87276975D01*
X163338712Y-87480100D01*
X163343500Y-87504174D01*
X163343500Y-87735826D01*
X163298307Y-87963027D01*
X163209658Y-88177045D01*
X163209657Y-88177046D01*
X163080961Y-88369654D01*
X162917154Y-88533461D01*
X162788749Y-88619258D01*
X162724545Y-88662158D01*
X162510527Y-88750807D01*
X162359060Y-88780936D01*
X162283327Y-88796000D01*
X162051673Y-88796000D01*
X161975940Y-88780936D01*
X161824473Y-88750807D01*
X161610455Y-88662158D01*
X161546251Y-88619258D01*
X161417846Y-88533461D01*
X161254039Y-88369654D01*
X161125343Y-88177046D01*
X161125342Y-88177045D01*
X161036693Y-87963027D01*
X160991500Y-87735826D01*
X160991500Y-87504174D01*
X160996289Y-87480100D01*
X161036693Y-87276975D01*
X161036693Y-87276973D01*
X161125342Y-87062955D01*
X161168242Y-86998751D01*
X161254039Y-86870346D01*
X161417846Y-86706539D01*
X161610454Y-86577843D01*
X161610455Y-86577842D01*
X161824473Y-86489193D01*
X161975940Y-86459064D01*
X162051673Y-86444000D01*
X162283327Y-86444000D01*
X162359060Y-86459064D01*
X162359060Y-86459064D01*
G37*
G36*
X200459060Y-86459064D02*
G01*
X200610527Y-86489193D01*
X200824545Y-86577842D01*
X200824546Y-86577843D01*
X201017154Y-86706539D01*
X201180961Y-86870346D01*
X201266758Y-86998751D01*
X201309658Y-87062955D01*
X201398307Y-87276973D01*
X201398307Y-87276975D01*
X201438712Y-87480100D01*
X201443500Y-87504174D01*
X201443500Y-87735826D01*
X201398307Y-87963027D01*
X201309658Y-88177045D01*
X201309657Y-88177046D01*
X201180961Y-88369654D01*
X201017154Y-88533461D01*
X200888749Y-88619258D01*
X200824545Y-88662158D01*
X200610527Y-88750807D01*
X200459060Y-88780936D01*
X200383327Y-88796000D01*
X200151673Y-88796000D01*
X200075940Y-88780936D01*
X199924473Y-88750807D01*
X199710455Y-88662158D01*
X199646251Y-88619258D01*
X199517846Y-88533461D01*
X199354039Y-88369654D01*
X199225343Y-88177046D01*
X199225342Y-88177045D01*
X199136693Y-87963027D01*
X199091500Y-87735826D01*
X199091500Y-87504174D01*
X199096289Y-87480100D01*
X199136693Y-87276975D01*
X199136693Y-87276973D01*
X199225342Y-87062955D01*
X199268242Y-86998751D01*
X199354039Y-86870346D01*
X199517846Y-86706539D01*
X199710454Y-86577843D01*
X199710455Y-86577842D01*
X199924473Y-86489193D01*
X200075940Y-86459064D01*
X200151673Y-86444000D01*
X200383327Y-86444000D01*
X200459060Y-86459064D01*
X200459060Y-86459064D01*
G37*
G36*
X175059060Y-85824064D02*
G01*
X175210527Y-85854193D01*
X175424545Y-85942842D01*
X175424546Y-85942843D01*
X175617154Y-86071539D01*
X175780961Y-86235346D01*
X175866758Y-86363751D01*
X175909658Y-86427955D01*
X175998307Y-86641973D01*
X176043500Y-86869174D01*
X176043500Y-87100826D01*
X175998307Y-87328027D01*
X175909658Y-87542045D01*
X175909657Y-87542046D01*
X175780961Y-87734654D01*
X175617154Y-87898461D01*
X175488749Y-87984258D01*
X175424545Y-88027158D01*
X175210527Y-88115807D01*
X175059060Y-88145936D01*
X174983327Y-88161000D01*
X174751673Y-88161000D01*
X174675940Y-88145936D01*
X174524473Y-88115807D01*
X174310455Y-88027158D01*
X174246251Y-87984258D01*
X174117846Y-87898461D01*
X173954039Y-87734654D01*
X173825343Y-87542046D01*
X173825342Y-87542045D01*
X173736693Y-87328027D01*
X173691500Y-87100826D01*
X173691500Y-86869174D01*
X173736693Y-86641973D01*
X173825342Y-86427955D01*
X173868242Y-86363751D01*
X173954039Y-86235346D01*
X174117846Y-86071539D01*
X174310454Y-85942843D01*
X174310455Y-85942842D01*
X174524473Y-85854193D01*
X174675940Y-85824064D01*
X174751673Y-85809000D01*
X174983327Y-85809000D01*
X175059060Y-85824064D01*
X175059060Y-85824064D01*
G37*
G36*
X181409060Y-83284064D02*
G01*
X181560527Y-83314193D01*
X181774545Y-83402842D01*
X181774546Y-83402843D01*
X181967154Y-83531539D01*
X182130961Y-83695346D01*
X182216758Y-83823751D01*
X182259658Y-83887955D01*
X182348307Y-84101973D01*
X182393500Y-84329174D01*
X182393500Y-84560826D01*
X182348307Y-84788027D01*
X182259658Y-85002045D01*
X182259657Y-85002046D01*
X182130961Y-85194654D01*
X181967154Y-85358461D01*
X181838749Y-85444258D01*
X181774545Y-85487158D01*
X181560527Y-85575807D01*
X181409060Y-85605936D01*
X181333327Y-85621000D01*
X181101673Y-85621000D01*
X181025940Y-85605936D01*
X180874473Y-85575807D01*
X180660455Y-85487158D01*
X180596251Y-85444258D01*
X180467846Y-85358461D01*
X180304039Y-85194654D01*
X180175343Y-85002046D01*
X180175342Y-85002045D01*
X180086693Y-84788027D01*
X180041500Y-84560826D01*
X180041500Y-84329174D01*
X180086693Y-84101973D01*
X180175342Y-83887955D01*
X180218242Y-83823751D01*
X180304039Y-83695346D01*
X180467846Y-83531539D01*
X180660454Y-83402843D01*
X180660455Y-83402842D01*
X180874473Y-83314193D01*
X181025940Y-83284064D01*
X181101673Y-83269000D01*
X181333327Y-83269000D01*
X181409060Y-83284064D01*
X181409060Y-83284064D01*
G37*
G36*
X236423974Y-81208684D02*
G01*
X236641974Y-81298983D01*
X236796123Y-81362833D01*
X237131048Y-81586623D01*
X237415877Y-81871452D01*
X237639667Y-82206377D01*
X237672062Y-82284586D01*
X237793816Y-82578526D01*
X237872400Y-82973594D01*
X237872400Y-83376406D01*
X237793816Y-83771474D01*
X237742951Y-83894272D01*
X237639667Y-84143623D01*
X237415877Y-84478548D01*
X237131048Y-84763377D01*
X236796123Y-84987167D01*
X236641974Y-85051017D01*
X236423974Y-85141316D01*
X236028906Y-85219900D01*
X235626094Y-85219900D01*
X235231026Y-85141316D01*
X235013026Y-85051017D01*
X234858877Y-84987167D01*
X234523952Y-84763377D01*
X234239123Y-84478548D01*
X234015333Y-84143623D01*
X233912049Y-83894272D01*
X233861184Y-83771474D01*
X233782600Y-83376406D01*
X233782600Y-82973594D01*
X233861184Y-82578526D01*
X233982938Y-82284586D01*
X234015333Y-82206377D01*
X234239123Y-81871452D01*
X234523952Y-81586623D01*
X234858877Y-81362833D01*
X235013026Y-81298983D01*
X235231026Y-81208684D01*
X235626094Y-81130100D01*
X236028906Y-81130100D01*
X236423974Y-81208684D01*
X236423974Y-81208684D01*
G37*
G36*
X241177604Y-82284585D02*
G01*
X241346126Y-82354389D01*
X241497791Y-82455728D01*
X241626772Y-82584709D01*
X241728111Y-82736374D01*
X241797915Y-82904896D01*
X241833500Y-83083797D01*
X241833500Y-83266203D01*
X241797915Y-83445104D01*
X241728111Y-83613626D01*
X241626772Y-83765291D01*
X241497791Y-83894272D01*
X241346126Y-83995611D01*
X241177604Y-84065415D01*
X240998703Y-84101000D01*
X240816297Y-84101000D01*
X240637396Y-84065415D01*
X240468874Y-83995611D01*
X240317209Y-83894272D01*
X240188228Y-83765291D01*
X240086889Y-83613626D01*
X240017085Y-83445104D01*
X239981500Y-83266203D01*
X239981500Y-83083797D01*
X240017085Y-82904896D01*
X240086889Y-82736374D01*
X240188228Y-82584709D01*
X240317209Y-82455728D01*
X240468874Y-82354389D01*
X240637396Y-82284585D01*
X240816297Y-82249000D01*
X240998703Y-82249000D01*
X241177604Y-82284585D01*
X241177604Y-82284585D01*
G37*
G36*
X231017604Y-82284585D02*
G01*
X231186126Y-82354389D01*
X231337791Y-82455728D01*
X231466772Y-82584709D01*
X231568111Y-82736374D01*
X231637915Y-82904896D01*
X231673500Y-83083797D01*
X231673500Y-83266203D01*
X231637915Y-83445104D01*
X231568111Y-83613626D01*
X231466772Y-83765291D01*
X231337791Y-83894272D01*
X231186126Y-83995611D01*
X231017604Y-84065415D01*
X230838703Y-84101000D01*
X230656297Y-84101000D01*
X230477396Y-84065415D01*
X230308874Y-83995611D01*
X230157209Y-83894272D01*
X230028228Y-83765291D01*
X229926889Y-83613626D01*
X229857085Y-83445104D01*
X229821500Y-83266203D01*
X229821500Y-83083797D01*
X229857085Y-82904896D01*
X229926889Y-82736374D01*
X230028228Y-82584709D01*
X230157209Y-82455728D01*
X230308874Y-82354389D01*
X230477396Y-82284585D01*
X230656297Y-82249000D01*
X230838703Y-82249000D01*
X231017604Y-82284585D01*
X231017604Y-82284585D01*
G37*
G36*
X122123974Y-78033684D02*
G01*
X122341974Y-78123983D01*
X122496123Y-78187833D01*
X122831048Y-78411623D01*
X123115877Y-78696452D01*
X123339667Y-79031377D01*
X123372062Y-79109586D01*
X123493816Y-79403526D01*
X123572400Y-79798594D01*
X123572400Y-80201406D01*
X123493816Y-80596474D01*
X123442951Y-80719272D01*
X123339667Y-80968623D01*
X123115877Y-81303548D01*
X122831048Y-81588377D01*
X122496123Y-81812167D01*
X122352996Y-81871452D01*
X122123974Y-81966316D01*
X121728906Y-82044900D01*
X121326094Y-82044900D01*
X120931026Y-81966316D01*
X120702004Y-81871452D01*
X120558877Y-81812167D01*
X120223952Y-81588377D01*
X119939123Y-81303548D01*
X119715333Y-80968623D01*
X119612049Y-80719272D01*
X119561184Y-80596474D01*
X119482600Y-80201406D01*
X119482600Y-79798594D01*
X119561184Y-79403526D01*
X119682938Y-79109586D01*
X119715333Y-79031377D01*
X119939123Y-78696452D01*
X120223952Y-78411623D01*
X120558877Y-78187833D01*
X120713026Y-78123983D01*
X120931026Y-78033684D01*
X121326094Y-77955100D01*
X121728906Y-77955100D01*
X122123974Y-78033684D01*
X122123974Y-78033684D01*
G37*
G36*
X217373974Y-78033684D02*
G01*
X217591974Y-78123983D01*
X217746123Y-78187833D01*
X218081048Y-78411623D01*
X218365877Y-78696452D01*
X218589667Y-79031377D01*
X218622062Y-79109586D01*
X218743816Y-79403526D01*
X218822400Y-79798594D01*
X218822400Y-80201406D01*
X218743816Y-80596474D01*
X218692951Y-80719272D01*
X218589667Y-80968623D01*
X218365877Y-81303548D01*
X218081048Y-81588377D01*
X217746123Y-81812167D01*
X217602996Y-81871452D01*
X217373974Y-81966316D01*
X216978906Y-82044900D01*
X216576094Y-82044900D01*
X216181026Y-81966316D01*
X215952004Y-81871452D01*
X215808877Y-81812167D01*
X215473952Y-81588377D01*
X215189123Y-81303548D01*
X214965333Y-80968623D01*
X214862049Y-80719272D01*
X214811184Y-80596474D01*
X214732600Y-80201406D01*
X214732600Y-79798594D01*
X214811184Y-79403526D01*
X214932938Y-79109586D01*
X214965333Y-79031377D01*
X215189123Y-78696452D01*
X215473952Y-78411623D01*
X215808877Y-78187833D01*
X215963026Y-78123983D01*
X216181026Y-78033684D01*
X216576094Y-77955100D01*
X216978906Y-77955100D01*
X217373974Y-78033684D01*
X217373974Y-78033684D01*
G37*
G36*
X232209060Y-79474064D02*
G01*
X232360527Y-79504193D01*
X232574545Y-79592842D01*
X232574546Y-79592843D01*
X232767154Y-79721539D01*
X232930961Y-79885346D01*
X232946630Y-79908797D01*
X233059658Y-80077955D01*
X233148307Y-80291973D01*
X233193500Y-80519174D01*
X233193500Y-80750826D01*
X233148307Y-80978027D01*
X233059658Y-81192045D01*
X233059657Y-81192046D01*
X232930961Y-81384654D01*
X232767154Y-81548461D01*
X232710040Y-81586623D01*
X232574545Y-81677158D01*
X232360527Y-81765807D01*
X232209060Y-81795936D01*
X232133327Y-81811000D01*
X231901673Y-81811000D01*
X231825940Y-81795936D01*
X231674473Y-81765807D01*
X231460455Y-81677158D01*
X231324960Y-81586623D01*
X231267846Y-81548461D01*
X231104039Y-81384654D01*
X230975343Y-81192046D01*
X230975342Y-81192045D01*
X230886693Y-80978027D01*
X230841500Y-80750826D01*
X230841500Y-80519174D01*
X230886693Y-80291973D01*
X230975342Y-80077955D01*
X231088370Y-79908797D01*
X231104039Y-79885346D01*
X231267846Y-79721539D01*
X231460454Y-79592843D01*
X231460455Y-79592842D01*
X231674473Y-79504193D01*
X231825940Y-79474064D01*
X231901673Y-79459000D01*
X232133327Y-79459000D01*
X232209060Y-79474064D01*
X232209060Y-79474064D01*
G37*
G36*
X126877604Y-79109585D02*
G01*
X127046126Y-79179389D01*
X127197791Y-79280728D01*
X127326772Y-79409709D01*
X127428111Y-79561374D01*
X127497915Y-79729896D01*
X127533500Y-79908797D01*
X127533500Y-80091203D01*
X127497915Y-80270104D01*
X127428111Y-80438626D01*
X127326772Y-80590291D01*
X127197791Y-80719272D01*
X127046126Y-80820611D01*
X126877604Y-80890415D01*
X126698703Y-80926000D01*
X126516297Y-80926000D01*
X126337396Y-80890415D01*
X126168874Y-80820611D01*
X126017209Y-80719272D01*
X125888228Y-80590291D01*
X125786889Y-80438626D01*
X125717085Y-80270104D01*
X125681500Y-80091203D01*
X125681500Y-79908797D01*
X125717085Y-79729896D01*
X125786889Y-79561374D01*
X125888228Y-79409709D01*
X126017209Y-79280728D01*
X126168874Y-79179389D01*
X126337396Y-79109585D01*
X126516297Y-79074000D01*
X126698703Y-79074000D01*
X126877604Y-79109585D01*
X126877604Y-79109585D01*
G37*
G36*
X211967604Y-79109585D02*
G01*
X212136126Y-79179389D01*
X212287791Y-79280728D01*
X212416772Y-79409709D01*
X212518111Y-79561374D01*
X212587915Y-79729896D01*
X212623500Y-79908797D01*
X212623500Y-80091203D01*
X212587915Y-80270104D01*
X212518111Y-80438626D01*
X212416772Y-80590291D01*
X212287791Y-80719272D01*
X212136126Y-80820611D01*
X211967604Y-80890415D01*
X211788703Y-80926000D01*
X211606297Y-80926000D01*
X211427396Y-80890415D01*
X211258874Y-80820611D01*
X211107209Y-80719272D01*
X210978228Y-80590291D01*
X210876889Y-80438626D01*
X210807085Y-80270104D01*
X210771500Y-80091203D01*
X210771500Y-79908797D01*
X210807085Y-79729896D01*
X210876889Y-79561374D01*
X210978228Y-79409709D01*
X211107209Y-79280728D01*
X211258874Y-79179389D01*
X211427396Y-79109585D01*
X211606297Y-79074000D01*
X211788703Y-79074000D01*
X211967604Y-79109585D01*
X211967604Y-79109585D01*
G37*
G36*
X222127604Y-79109585D02*
G01*
X222296126Y-79179389D01*
X222447791Y-79280728D01*
X222576772Y-79409709D01*
X222678111Y-79561374D01*
X222747915Y-79729896D01*
X222783500Y-79908797D01*
X222783500Y-80091203D01*
X222747915Y-80270104D01*
X222678111Y-80438626D01*
X222576772Y-80590291D01*
X222447791Y-80719272D01*
X222296126Y-80820611D01*
X222127604Y-80890415D01*
X221948703Y-80926000D01*
X221766297Y-80926000D01*
X221587396Y-80890415D01*
X221418874Y-80820611D01*
X221267209Y-80719272D01*
X221138228Y-80590291D01*
X221036889Y-80438626D01*
X220967085Y-80270104D01*
X220931500Y-80091203D01*
X220931500Y-79908797D01*
X220967085Y-79729896D01*
X221036889Y-79561374D01*
X221138228Y-79409709D01*
X221267209Y-79280728D01*
X221418874Y-79179389D01*
X221587396Y-79109585D01*
X221766297Y-79074000D01*
X221948703Y-79074000D01*
X222127604Y-79109585D01*
X222127604Y-79109585D01*
G37*
G36*
X116717604Y-79109585D02*
G01*
X116886126Y-79179389D01*
X117037791Y-79280728D01*
X117166772Y-79409709D01*
X117268111Y-79561374D01*
X117337915Y-79729896D01*
X117373500Y-79908797D01*
X117373500Y-80091203D01*
X117337915Y-80270104D01*
X117268111Y-80438626D01*
X117166772Y-80590291D01*
X117037791Y-80719272D01*
X116886126Y-80820611D01*
X116717604Y-80890415D01*
X116538703Y-80926000D01*
X116356297Y-80926000D01*
X116177396Y-80890415D01*
X116008874Y-80820611D01*
X115857209Y-80719272D01*
X115728228Y-80590291D01*
X115626889Y-80438626D01*
X115557085Y-80270104D01*
X115521500Y-80091203D01*
X115521500Y-79908797D01*
X115557085Y-79729896D01*
X115626889Y-79561374D01*
X115728228Y-79409709D01*
X115857209Y-79280728D01*
X116008874Y-79179389D01*
X116177396Y-79109585D01*
X116356297Y-79074000D01*
X116538703Y-79074000D01*
X116717604Y-79109585D01*
X116717604Y-79109585D01*
G37*
G36*
X238559060Y-76934064D02*
G01*
X238710527Y-76964193D01*
X238924545Y-77052842D01*
X238924546Y-77052843D01*
X239117154Y-77181539D01*
X239280961Y-77345346D01*
X239366758Y-77473751D01*
X239409658Y-77537955D01*
X239498307Y-77751973D01*
X239508462Y-77803025D01*
X239538712Y-77955100D01*
X239543500Y-77979174D01*
X239543500Y-78210826D01*
X239498307Y-78438027D01*
X239409658Y-78652045D01*
X239409657Y-78652046D01*
X239280961Y-78844654D01*
X239117154Y-79008461D01*
X238988749Y-79094258D01*
X238924545Y-79137158D01*
X238710527Y-79225807D01*
X238559060Y-79255936D01*
X238483327Y-79271000D01*
X238251673Y-79271000D01*
X238175940Y-79255936D01*
X238024473Y-79225807D01*
X237810455Y-79137158D01*
X237746251Y-79094258D01*
X237617846Y-79008461D01*
X237454039Y-78844654D01*
X237325343Y-78652046D01*
X237325342Y-78652045D01*
X237236693Y-78438027D01*
X237191500Y-78210826D01*
X237191500Y-77979174D01*
X237196289Y-77955100D01*
X237226538Y-77803025D01*
X237236693Y-77751973D01*
X237325342Y-77537955D01*
X237368242Y-77473751D01*
X237454039Y-77345346D01*
X237617846Y-77181539D01*
X237810454Y-77052843D01*
X237810455Y-77052842D01*
X238024473Y-76964193D01*
X238175940Y-76934064D01*
X238251673Y-76919000D01*
X238483327Y-76919000D01*
X238559060Y-76934064D01*
X238559060Y-76934064D01*
G37*
G36*
X141173974Y-74858684D02*
G01*
X141391974Y-74948983D01*
X141546123Y-75012833D01*
X141881048Y-75236623D01*
X142165877Y-75521452D01*
X142389667Y-75856377D01*
X142422062Y-75934586D01*
X142543816Y-76228526D01*
X142622400Y-76623594D01*
X142622400Y-77026406D01*
X142543816Y-77421474D01*
X142492951Y-77544272D01*
X142389667Y-77793623D01*
X142165877Y-78128548D01*
X141881048Y-78413377D01*
X141546123Y-78637167D01*
X141402996Y-78696452D01*
X141173974Y-78791316D01*
X140778906Y-78869900D01*
X140376094Y-78869900D01*
X139981026Y-78791316D01*
X139752004Y-78696452D01*
X139608877Y-78637167D01*
X139273952Y-78413377D01*
X138989123Y-78128548D01*
X138765333Y-77793623D01*
X138662049Y-77544272D01*
X138611184Y-77421474D01*
X138532600Y-77026406D01*
X138532600Y-76623594D01*
X138611184Y-76228526D01*
X138732938Y-75934586D01*
X138765333Y-75856377D01*
X138989123Y-75521452D01*
X139273952Y-75236623D01*
X139608877Y-75012833D01*
X139763026Y-74948983D01*
X139981026Y-74858684D01*
X140376094Y-74780100D01*
X140778906Y-74780100D01*
X141173974Y-74858684D01*
X141173974Y-74858684D01*
G37*
G36*
X213159060Y-76299064D02*
G01*
X213310527Y-76329193D01*
X213524545Y-76417842D01*
X213524546Y-76417843D01*
X213717154Y-76546539D01*
X213880961Y-76710346D01*
X213896630Y-76733797D01*
X214009658Y-76902955D01*
X214098307Y-77116973D01*
X214143500Y-77344174D01*
X214143500Y-77575826D01*
X214098307Y-77803027D01*
X214009658Y-78017045D01*
X214009657Y-78017046D01*
X213880961Y-78209654D01*
X213717154Y-78373461D01*
X213588749Y-78459258D01*
X213524545Y-78502158D01*
X213310527Y-78590807D01*
X213159060Y-78620936D01*
X213083327Y-78636000D01*
X212851673Y-78636000D01*
X212775940Y-78620936D01*
X212624473Y-78590807D01*
X212410455Y-78502158D01*
X212346251Y-78459258D01*
X212217846Y-78373461D01*
X212054039Y-78209654D01*
X211925343Y-78017046D01*
X211925342Y-78017045D01*
X211836693Y-77803027D01*
X211791500Y-77575826D01*
X211791500Y-77344174D01*
X211836693Y-77116973D01*
X211925342Y-76902955D01*
X212038370Y-76733797D01*
X212054039Y-76710346D01*
X212217846Y-76546539D01*
X212410454Y-76417843D01*
X212410455Y-76417842D01*
X212624473Y-76329193D01*
X212775940Y-76299064D01*
X212851673Y-76284000D01*
X213083327Y-76284000D01*
X213159060Y-76299064D01*
X213159060Y-76299064D01*
G37*
G36*
X117909060Y-76299064D02*
G01*
X118060527Y-76329193D01*
X118274545Y-76417842D01*
X118274546Y-76417843D01*
X118467154Y-76546539D01*
X118630961Y-76710346D01*
X118646630Y-76733797D01*
X118759658Y-76902955D01*
X118848307Y-77116973D01*
X118893500Y-77344174D01*
X118893500Y-77575826D01*
X118848307Y-77803027D01*
X118759658Y-78017045D01*
X118759657Y-78017046D01*
X118630961Y-78209654D01*
X118467154Y-78373461D01*
X118338749Y-78459258D01*
X118274545Y-78502158D01*
X118060527Y-78590807D01*
X117909060Y-78620936D01*
X117833327Y-78636000D01*
X117601673Y-78636000D01*
X117525940Y-78620936D01*
X117374473Y-78590807D01*
X117160455Y-78502158D01*
X117096251Y-78459258D01*
X116967846Y-78373461D01*
X116804039Y-78209654D01*
X116675343Y-78017046D01*
X116675342Y-78017045D01*
X116586693Y-77803027D01*
X116541500Y-77575826D01*
X116541500Y-77344174D01*
X116586693Y-77116973D01*
X116675342Y-76902955D01*
X116788370Y-76733797D01*
X116804039Y-76710346D01*
X116967846Y-76546539D01*
X117160454Y-76417843D01*
X117160455Y-76417842D01*
X117374473Y-76329193D01*
X117525940Y-76299064D01*
X117601673Y-76284000D01*
X117833327Y-76284000D01*
X117909060Y-76299064D01*
X117909060Y-76299064D01*
G37*
G36*
X135767604Y-75934585D02*
G01*
X135936126Y-76004389D01*
X136087791Y-76105728D01*
X136216772Y-76234709D01*
X136318111Y-76386374D01*
X136387915Y-76554896D01*
X136423500Y-76733797D01*
X136423500Y-76916203D01*
X136387915Y-77095104D01*
X136318111Y-77263626D01*
X136216772Y-77415291D01*
X136087791Y-77544272D01*
X135936126Y-77645611D01*
X135767604Y-77715415D01*
X135588703Y-77751000D01*
X135406297Y-77751000D01*
X135227396Y-77715415D01*
X135058874Y-77645611D01*
X134907209Y-77544272D01*
X134778228Y-77415291D01*
X134676889Y-77263626D01*
X134607085Y-77095104D01*
X134571500Y-76916203D01*
X134571500Y-76733797D01*
X134607085Y-76554896D01*
X134676889Y-76386374D01*
X134778228Y-76234709D01*
X134907209Y-76105728D01*
X135058874Y-76004389D01*
X135227396Y-75934585D01*
X135406297Y-75899000D01*
X135588703Y-75899000D01*
X135767604Y-75934585D01*
X135767604Y-75934585D01*
G37*
G36*
X145927604Y-75934585D02*
G01*
X146096126Y-76004389D01*
X146247791Y-76105728D01*
X146376772Y-76234709D01*
X146478111Y-76386374D01*
X146547915Y-76554896D01*
X146583500Y-76733797D01*
X146583500Y-76916203D01*
X146547915Y-77095104D01*
X146478111Y-77263626D01*
X146376772Y-77415291D01*
X146247791Y-77544272D01*
X146096126Y-77645611D01*
X145927604Y-77715415D01*
X145748703Y-77751000D01*
X145566297Y-77751000D01*
X145387396Y-77715415D01*
X145218874Y-77645611D01*
X145067209Y-77544272D01*
X144938228Y-77415291D01*
X144836889Y-77263626D01*
X144767085Y-77095104D01*
X144731500Y-76916203D01*
X144731500Y-76733797D01*
X144767085Y-76554896D01*
X144836889Y-76386374D01*
X144938228Y-76234709D01*
X145067209Y-76105728D01*
X145218874Y-76004389D01*
X145387396Y-75934585D01*
X145566297Y-75899000D01*
X145748703Y-75899000D01*
X145927604Y-75934585D01*
X145927604Y-75934585D01*
G37*
G36*
X219509060Y-73759064D02*
G01*
X219660527Y-73789193D01*
X219874545Y-73877842D01*
X219874546Y-73877843D01*
X220067154Y-74006539D01*
X220230961Y-74170346D01*
X220316758Y-74298751D01*
X220359658Y-74362955D01*
X220448307Y-74576973D01*
X220458462Y-74628025D01*
X220488712Y-74780100D01*
X220493500Y-74804174D01*
X220493500Y-75035826D01*
X220448307Y-75263027D01*
X220359658Y-75477045D01*
X220359657Y-75477046D01*
X220230961Y-75669654D01*
X220067154Y-75833461D01*
X219938749Y-75919258D01*
X219874545Y-75962158D01*
X219660527Y-76050807D01*
X219509060Y-76080936D01*
X219433327Y-76096000D01*
X219201673Y-76096000D01*
X219125940Y-76080936D01*
X218974473Y-76050807D01*
X218760455Y-75962158D01*
X218696251Y-75919258D01*
X218567846Y-75833461D01*
X218404039Y-75669654D01*
X218275343Y-75477046D01*
X218275342Y-75477045D01*
X218186693Y-75263027D01*
X218141500Y-75035826D01*
X218141500Y-74804174D01*
X218146289Y-74780100D01*
X218176538Y-74628025D01*
X218186693Y-74576973D01*
X218275342Y-74362955D01*
X218318242Y-74298751D01*
X218404039Y-74170346D01*
X218567846Y-74006539D01*
X218760454Y-73877843D01*
X218760455Y-73877842D01*
X218974473Y-73789193D01*
X219125940Y-73759064D01*
X219201673Y-73744000D01*
X219433327Y-73744000D01*
X219509060Y-73759064D01*
X219509060Y-73759064D01*
G37*
G36*
X124259060Y-73759064D02*
G01*
X124410527Y-73789193D01*
X124624545Y-73877842D01*
X124624546Y-73877843D01*
X124817154Y-74006539D01*
X124980961Y-74170346D01*
X125066758Y-74298751D01*
X125109658Y-74362955D01*
X125198307Y-74576973D01*
X125208462Y-74628025D01*
X125238712Y-74780100D01*
X125243500Y-74804174D01*
X125243500Y-75035826D01*
X125198307Y-75263027D01*
X125109658Y-75477045D01*
X125109657Y-75477046D01*
X124980961Y-75669654D01*
X124817154Y-75833461D01*
X124688749Y-75919258D01*
X124624545Y-75962158D01*
X124410527Y-76050807D01*
X124259060Y-76080936D01*
X124183327Y-76096000D01*
X123951673Y-76096000D01*
X123875940Y-76080936D01*
X123724473Y-76050807D01*
X123510455Y-75962158D01*
X123446251Y-75919258D01*
X123317846Y-75833461D01*
X123154039Y-75669654D01*
X123025343Y-75477046D01*
X123025342Y-75477045D01*
X122936693Y-75263027D01*
X122891500Y-75035826D01*
X122891500Y-74804174D01*
X122896289Y-74780100D01*
X122926538Y-74628025D01*
X122936693Y-74576973D01*
X123025342Y-74362955D01*
X123068242Y-74298751D01*
X123154039Y-74170346D01*
X123317846Y-74006539D01*
X123510454Y-73877843D01*
X123510455Y-73877842D01*
X123724473Y-73789193D01*
X123875940Y-73759064D01*
X123951673Y-73744000D01*
X124183327Y-73744000D01*
X124259060Y-73759064D01*
X124259060Y-73759064D01*
G37*
G36*
X160223974Y-71683684D02*
G01*
X160441974Y-71773983D01*
X160596123Y-71837833D01*
X160931048Y-72061623D01*
X161215877Y-72346452D01*
X161439667Y-72681377D01*
X161472062Y-72759586D01*
X161593816Y-73053526D01*
X161672400Y-73448594D01*
X161672400Y-73851406D01*
X161593816Y-74246474D01*
X161542951Y-74369272D01*
X161439667Y-74618623D01*
X161215877Y-74953548D01*
X160931048Y-75238377D01*
X160596123Y-75462167D01*
X160452996Y-75521452D01*
X160223974Y-75616316D01*
X159828906Y-75694900D01*
X159426094Y-75694900D01*
X159031026Y-75616316D01*
X158802004Y-75521452D01*
X158658877Y-75462167D01*
X158323952Y-75238377D01*
X158039123Y-74953548D01*
X157815333Y-74618623D01*
X157712049Y-74369272D01*
X157661184Y-74246474D01*
X157582600Y-73851406D01*
X157582600Y-73448594D01*
X157661184Y-73053526D01*
X157782938Y-72759586D01*
X157815333Y-72681377D01*
X158039123Y-72346452D01*
X158323952Y-72061623D01*
X158658877Y-71837833D01*
X158813026Y-71773983D01*
X159031026Y-71683684D01*
X159426094Y-71605100D01*
X159828906Y-71605100D01*
X160223974Y-71683684D01*
X160223974Y-71683684D01*
G37*
G36*
X198323974Y-71683684D02*
G01*
X198541974Y-71773983D01*
X198696123Y-71837833D01*
X199031048Y-72061623D01*
X199315877Y-72346452D01*
X199539667Y-72681377D01*
X199572062Y-72759586D01*
X199693816Y-73053526D01*
X199772400Y-73448594D01*
X199772400Y-73851406D01*
X199693816Y-74246474D01*
X199642951Y-74369272D01*
X199539667Y-74618623D01*
X199315877Y-74953548D01*
X199031048Y-75238377D01*
X198696123Y-75462167D01*
X198552996Y-75521452D01*
X198323974Y-75616316D01*
X197928906Y-75694900D01*
X197526094Y-75694900D01*
X197131026Y-75616316D01*
X196902004Y-75521452D01*
X196758877Y-75462167D01*
X196423952Y-75238377D01*
X196139123Y-74953548D01*
X195915333Y-74618623D01*
X195812049Y-74369272D01*
X195761184Y-74246474D01*
X195682600Y-73851406D01*
X195682600Y-73448594D01*
X195761184Y-73053526D01*
X195882938Y-72759586D01*
X195915333Y-72681377D01*
X196139123Y-72346452D01*
X196423952Y-72061623D01*
X196758877Y-71837833D01*
X196913026Y-71773983D01*
X197131026Y-71683684D01*
X197526094Y-71605100D01*
X197928906Y-71605100D01*
X198323974Y-71683684D01*
X198323974Y-71683684D01*
G37*
G36*
X136959060Y-73124064D02*
G01*
X137110527Y-73154193D01*
X137324545Y-73242842D01*
X137324546Y-73242843D01*
X137517154Y-73371539D01*
X137680961Y-73535346D01*
X137696630Y-73558797D01*
X137809658Y-73727955D01*
X137898307Y-73941973D01*
X137943500Y-74169174D01*
X137943500Y-74400826D01*
X137898307Y-74628027D01*
X137809658Y-74842045D01*
X137809657Y-74842046D01*
X137680961Y-75034654D01*
X137517154Y-75198461D01*
X137388749Y-75284258D01*
X137324545Y-75327158D01*
X137110527Y-75415807D01*
X136959060Y-75445936D01*
X136883327Y-75461000D01*
X136651673Y-75461000D01*
X136575940Y-75445936D01*
X136424473Y-75415807D01*
X136210455Y-75327158D01*
X136146251Y-75284258D01*
X136017846Y-75198461D01*
X135854039Y-75034654D01*
X135725343Y-74842046D01*
X135725342Y-74842045D01*
X135636693Y-74628027D01*
X135591500Y-74400826D01*
X135591500Y-74169174D01*
X135636693Y-73941973D01*
X135725342Y-73727955D01*
X135838370Y-73558797D01*
X135854039Y-73535346D01*
X136017846Y-73371539D01*
X136210454Y-73242843D01*
X136210455Y-73242842D01*
X136424473Y-73154193D01*
X136575940Y-73124064D01*
X136651673Y-73109000D01*
X136883327Y-73109000D01*
X136959060Y-73124064D01*
X136959060Y-73124064D01*
G37*
G36*
X203077604Y-72759585D02*
G01*
X203246126Y-72829389D01*
X203397791Y-72930728D01*
X203526772Y-73059709D01*
X203628111Y-73211374D01*
X203697915Y-73379896D01*
X203733500Y-73558797D01*
X203733500Y-73741203D01*
X203697915Y-73920104D01*
X203628111Y-74088626D01*
X203526772Y-74240291D01*
X203397791Y-74369272D01*
X203246126Y-74470611D01*
X203077604Y-74540415D01*
X202898703Y-74576000D01*
X202716297Y-74576000D01*
X202537396Y-74540415D01*
X202368874Y-74470611D01*
X202217209Y-74369272D01*
X202088228Y-74240291D01*
X201986889Y-74088626D01*
X201917085Y-73920104D01*
X201881500Y-73741203D01*
X201881500Y-73558797D01*
X201917085Y-73379896D01*
X201986889Y-73211374D01*
X202088228Y-73059709D01*
X202217209Y-72930728D01*
X202368874Y-72829389D01*
X202537396Y-72759585D01*
X202716297Y-72724000D01*
X202898703Y-72724000D01*
X203077604Y-72759585D01*
X203077604Y-72759585D01*
G37*
G36*
X154817604Y-72759585D02*
G01*
X154986126Y-72829389D01*
X155137791Y-72930728D01*
X155266772Y-73059709D01*
X155368111Y-73211374D01*
X155437915Y-73379896D01*
X155473500Y-73558797D01*
X155473500Y-73741203D01*
X155437915Y-73920104D01*
X155368111Y-74088626D01*
X155266772Y-74240291D01*
X155137791Y-74369272D01*
X154986126Y-74470611D01*
X154817604Y-74540415D01*
X154638703Y-74576000D01*
X154456297Y-74576000D01*
X154277396Y-74540415D01*
X154108874Y-74470611D01*
X153957209Y-74369272D01*
X153828228Y-74240291D01*
X153726889Y-74088626D01*
X153657085Y-73920104D01*
X153621500Y-73741203D01*
X153621500Y-73558797D01*
X153657085Y-73379896D01*
X153726889Y-73211374D01*
X153828228Y-73059709D01*
X153957209Y-72930728D01*
X154108874Y-72829389D01*
X154277396Y-72759585D01*
X154456297Y-72724000D01*
X154638703Y-72724000D01*
X154817604Y-72759585D01*
X154817604Y-72759585D01*
G37*
G36*
X164977604Y-72759585D02*
G01*
X165146126Y-72829389D01*
X165297791Y-72930728D01*
X165426772Y-73059709D01*
X165528111Y-73211374D01*
X165597915Y-73379896D01*
X165633500Y-73558797D01*
X165633500Y-73741203D01*
X165597915Y-73920104D01*
X165528111Y-74088626D01*
X165426772Y-74240291D01*
X165297791Y-74369272D01*
X165146126Y-74470611D01*
X164977604Y-74540415D01*
X164798703Y-74576000D01*
X164616297Y-74576000D01*
X164437396Y-74540415D01*
X164268874Y-74470611D01*
X164117209Y-74369272D01*
X163988228Y-74240291D01*
X163886889Y-74088626D01*
X163817085Y-73920104D01*
X163781500Y-73741203D01*
X163781500Y-73558797D01*
X163817085Y-73379896D01*
X163886889Y-73211374D01*
X163988228Y-73059709D01*
X164117209Y-72930728D01*
X164268874Y-72829389D01*
X164437396Y-72759585D01*
X164616297Y-72724000D01*
X164798703Y-72724000D01*
X164977604Y-72759585D01*
X164977604Y-72759585D01*
G37*
G36*
X192917604Y-72759585D02*
G01*
X193086126Y-72829389D01*
X193237791Y-72930728D01*
X193366772Y-73059709D01*
X193468111Y-73211374D01*
X193537915Y-73379896D01*
X193573500Y-73558797D01*
X193573500Y-73741203D01*
X193537915Y-73920104D01*
X193468111Y-74088626D01*
X193366772Y-74240291D01*
X193237791Y-74369272D01*
X193086126Y-74470611D01*
X192917604Y-74540415D01*
X192738703Y-74576000D01*
X192556297Y-74576000D01*
X192377396Y-74540415D01*
X192208874Y-74470611D01*
X192057209Y-74369272D01*
X191928228Y-74240291D01*
X191826889Y-74088626D01*
X191757085Y-73920104D01*
X191721500Y-73741203D01*
X191721500Y-73558797D01*
X191757085Y-73379896D01*
X191826889Y-73211374D01*
X191928228Y-73059709D01*
X192057209Y-72930728D01*
X192208874Y-72829389D01*
X192377396Y-72759585D01*
X192556297Y-72724000D01*
X192738703Y-72724000D01*
X192917604Y-72759585D01*
X192917604Y-72759585D01*
G37*
G36*
X143309060Y-70584064D02*
G01*
X143460527Y-70614193D01*
X143674545Y-70702842D01*
X143674546Y-70702843D01*
X143867154Y-70831539D01*
X144030961Y-70995346D01*
X144116758Y-71123751D01*
X144159658Y-71187955D01*
X144248307Y-71401973D01*
X144258462Y-71453025D01*
X144288712Y-71605100D01*
X144293500Y-71629174D01*
X144293500Y-71860826D01*
X144248307Y-72088027D01*
X144159658Y-72302045D01*
X144159657Y-72302046D01*
X144030961Y-72494654D01*
X143867154Y-72658461D01*
X143738749Y-72744258D01*
X143674545Y-72787158D01*
X143460527Y-72875807D01*
X143309060Y-72905936D01*
X143233327Y-72921000D01*
X143001673Y-72921000D01*
X142925940Y-72905936D01*
X142774473Y-72875807D01*
X142560455Y-72787158D01*
X142496251Y-72744258D01*
X142367846Y-72658461D01*
X142204039Y-72494654D01*
X142075343Y-72302046D01*
X142075342Y-72302045D01*
X141986693Y-72088027D01*
X141941500Y-71860826D01*
X141941500Y-71629174D01*
X141946289Y-71605100D01*
X141976538Y-71453025D01*
X141986693Y-71401973D01*
X142075342Y-71187955D01*
X142118242Y-71123751D01*
X142204039Y-70995346D01*
X142367846Y-70831539D01*
X142560454Y-70702843D01*
X142560455Y-70702842D01*
X142774473Y-70614193D01*
X142925940Y-70584064D01*
X143001673Y-70569000D01*
X143233327Y-70569000D01*
X143309060Y-70584064D01*
X143309060Y-70584064D01*
G37*
G36*
X179273974Y-68508684D02*
G01*
X179491974Y-68598983D01*
X179646123Y-68662833D01*
X179981048Y-68886623D01*
X180265877Y-69171452D01*
X180489667Y-69506377D01*
X180522062Y-69584586D01*
X180643816Y-69878526D01*
X180722400Y-70273594D01*
X180722400Y-70676406D01*
X180643816Y-71071474D01*
X180592951Y-71194272D01*
X180489667Y-71443623D01*
X180265877Y-71778548D01*
X179981048Y-72063377D01*
X179646123Y-72287167D01*
X179502996Y-72346452D01*
X179273974Y-72441316D01*
X178878906Y-72519900D01*
X178476094Y-72519900D01*
X178081026Y-72441316D01*
X177852004Y-72346452D01*
X177708877Y-72287167D01*
X177373952Y-72063377D01*
X177089123Y-71778548D01*
X176865333Y-71443623D01*
X176762049Y-71194272D01*
X176711184Y-71071474D01*
X176632600Y-70676406D01*
X176632600Y-70273594D01*
X176711184Y-69878526D01*
X176832938Y-69584586D01*
X176865333Y-69506377D01*
X177089123Y-69171452D01*
X177373952Y-68886623D01*
X177708877Y-68662833D01*
X177863026Y-68598983D01*
X178081026Y-68508684D01*
X178476094Y-68430100D01*
X178878906Y-68430100D01*
X179273974Y-68508684D01*
X179273974Y-68508684D01*
G37*
G36*
X194109060Y-69949064D02*
G01*
X194260527Y-69979193D01*
X194474545Y-70067842D01*
X194474546Y-70067843D01*
X194667154Y-70196539D01*
X194830961Y-70360346D01*
X194846630Y-70383797D01*
X194959658Y-70552955D01*
X195048307Y-70766973D01*
X195093500Y-70994174D01*
X195093500Y-71225826D01*
X195048307Y-71453027D01*
X194959658Y-71667045D01*
X194959657Y-71667046D01*
X194830961Y-71859654D01*
X194667154Y-72023461D01*
X194538749Y-72109258D01*
X194474545Y-72152158D01*
X194260527Y-72240807D01*
X194109060Y-72270936D01*
X194033327Y-72286000D01*
X193801673Y-72286000D01*
X193725940Y-72270936D01*
X193574473Y-72240807D01*
X193360455Y-72152158D01*
X193296251Y-72109258D01*
X193167846Y-72023461D01*
X193004039Y-71859654D01*
X192875343Y-71667046D01*
X192875342Y-71667045D01*
X192786693Y-71453027D01*
X192741500Y-71225826D01*
X192741500Y-70994174D01*
X192786693Y-70766973D01*
X192875342Y-70552955D01*
X192988370Y-70383797D01*
X193004039Y-70360346D01*
X193167846Y-70196539D01*
X193360454Y-70067843D01*
X193360455Y-70067842D01*
X193574473Y-69979193D01*
X193725940Y-69949064D01*
X193801673Y-69934000D01*
X194033327Y-69934000D01*
X194109060Y-69949064D01*
X194109060Y-69949064D01*
G37*
G36*
X156009060Y-69949064D02*
G01*
X156160527Y-69979193D01*
X156374545Y-70067842D01*
X156374546Y-70067843D01*
X156567154Y-70196539D01*
X156730961Y-70360346D01*
X156746630Y-70383797D01*
X156859658Y-70552955D01*
X156948307Y-70766973D01*
X156993500Y-70994174D01*
X156993500Y-71225826D01*
X156948307Y-71453027D01*
X156859658Y-71667045D01*
X156859657Y-71667046D01*
X156730961Y-71859654D01*
X156567154Y-72023461D01*
X156438749Y-72109258D01*
X156374545Y-72152158D01*
X156160527Y-72240807D01*
X156009060Y-72270936D01*
X155933327Y-72286000D01*
X155701673Y-72286000D01*
X155625940Y-72270936D01*
X155474473Y-72240807D01*
X155260455Y-72152158D01*
X155196251Y-72109258D01*
X155067846Y-72023461D01*
X154904039Y-71859654D01*
X154775343Y-71667046D01*
X154775342Y-71667045D01*
X154686693Y-71453027D01*
X154641500Y-71225826D01*
X154641500Y-70994174D01*
X154686693Y-70766973D01*
X154775342Y-70552955D01*
X154888370Y-70383797D01*
X154904039Y-70360346D01*
X155067846Y-70196539D01*
X155260454Y-70067843D01*
X155260455Y-70067842D01*
X155474473Y-69979193D01*
X155625940Y-69949064D01*
X155701673Y-69934000D01*
X155933327Y-69934000D01*
X156009060Y-69949064D01*
X156009060Y-69949064D01*
G37*
G36*
X184027604Y-69584585D02*
G01*
X184196126Y-69654389D01*
X184347791Y-69755728D01*
X184476772Y-69884709D01*
X184578111Y-70036374D01*
X184647915Y-70204896D01*
X184683500Y-70383797D01*
X184683500Y-70566203D01*
X184647915Y-70745104D01*
X184578111Y-70913626D01*
X184476772Y-71065291D01*
X184347791Y-71194272D01*
X184196126Y-71295611D01*
X184027604Y-71365415D01*
X183848703Y-71401000D01*
X183666297Y-71401000D01*
X183487396Y-71365415D01*
X183318874Y-71295611D01*
X183167209Y-71194272D01*
X183038228Y-71065291D01*
X182936889Y-70913626D01*
X182867085Y-70745104D01*
X182831500Y-70566203D01*
X182831500Y-70383797D01*
X182867085Y-70204896D01*
X182936889Y-70036374D01*
X183038228Y-69884709D01*
X183167209Y-69755728D01*
X183318874Y-69654389D01*
X183487396Y-69584585D01*
X183666297Y-69549000D01*
X183848703Y-69549000D01*
X184027604Y-69584585D01*
X184027604Y-69584585D01*
G37*
G36*
X173867604Y-69584585D02*
G01*
X174036126Y-69654389D01*
X174187791Y-69755728D01*
X174316772Y-69884709D01*
X174418111Y-70036374D01*
X174487915Y-70204896D01*
X174523500Y-70383797D01*
X174523500Y-70566203D01*
X174487915Y-70745104D01*
X174418111Y-70913626D01*
X174316772Y-71065291D01*
X174187791Y-71194272D01*
X174036126Y-71295611D01*
X173867604Y-71365415D01*
X173688703Y-71401000D01*
X173506297Y-71401000D01*
X173327396Y-71365415D01*
X173158874Y-71295611D01*
X173007209Y-71194272D01*
X172878228Y-71065291D01*
X172776889Y-70913626D01*
X172707085Y-70745104D01*
X172671500Y-70566203D01*
X172671500Y-70383797D01*
X172707085Y-70204896D01*
X172776889Y-70036374D01*
X172878228Y-69884709D01*
X173007209Y-69755728D01*
X173158874Y-69654389D01*
X173327396Y-69584585D01*
X173506297Y-69549000D01*
X173688703Y-69549000D01*
X173867604Y-69584585D01*
X173867604Y-69584585D01*
G37*
G36*
X200459060Y-67409064D02*
G01*
X200610527Y-67439193D01*
X200824545Y-67527842D01*
X200888749Y-67570742D01*
X201017154Y-67656539D01*
X201180961Y-67820346D01*
X201220838Y-67880027D01*
X201309658Y-68012955D01*
X201398307Y-68226973D01*
X201408462Y-68278025D01*
X201441971Y-68446484D01*
X201443500Y-68454174D01*
X201443500Y-68685826D01*
X201398307Y-68913027D01*
X201309658Y-69127045D01*
X201309657Y-69127046D01*
X201180961Y-69319654D01*
X201017154Y-69483461D01*
X200901692Y-69560610D01*
X200824545Y-69612158D01*
X200610527Y-69700807D01*
X200459060Y-69730936D01*
X200383327Y-69746000D01*
X200151673Y-69746000D01*
X200075940Y-69730936D01*
X199924473Y-69700807D01*
X199710455Y-69612158D01*
X199633308Y-69560610D01*
X199517846Y-69483461D01*
X199354039Y-69319654D01*
X199225343Y-69127046D01*
X199225342Y-69127045D01*
X199136693Y-68913027D01*
X199091500Y-68685826D01*
X199091500Y-68454174D01*
X199093030Y-68446484D01*
X199126538Y-68278025D01*
X199136693Y-68226973D01*
X199225342Y-68012955D01*
X199314162Y-67880027D01*
X199354039Y-67820346D01*
X199517846Y-67656539D01*
X199646251Y-67570742D01*
X199710455Y-67527842D01*
X199924473Y-67439193D01*
X200075940Y-67409064D01*
X200151673Y-67394000D01*
X200383327Y-67394000D01*
X200459060Y-67409064D01*
X200459060Y-67409064D01*
G37*
G36*
X162359060Y-67409064D02*
G01*
X162510527Y-67439193D01*
X162724545Y-67527842D01*
X162788749Y-67570742D01*
X162917154Y-67656539D01*
X163080961Y-67820346D01*
X163120838Y-67880027D01*
X163209658Y-68012955D01*
X163298307Y-68226973D01*
X163308462Y-68278025D01*
X163341971Y-68446484D01*
X163343500Y-68454174D01*
X163343500Y-68685826D01*
X163298307Y-68913027D01*
X163209658Y-69127045D01*
X163209657Y-69127046D01*
X163080961Y-69319654D01*
X162917154Y-69483461D01*
X162801692Y-69560610D01*
X162724545Y-69612158D01*
X162510527Y-69700807D01*
X162359060Y-69730936D01*
X162283327Y-69746000D01*
X162051673Y-69746000D01*
X161975940Y-69730936D01*
X161824473Y-69700807D01*
X161610455Y-69612158D01*
X161533308Y-69560610D01*
X161417846Y-69483461D01*
X161254039Y-69319654D01*
X161125343Y-69127046D01*
X161125342Y-69127045D01*
X161036693Y-68913027D01*
X160991500Y-68685826D01*
X160991500Y-68454174D01*
X160993030Y-68446484D01*
X161026538Y-68278025D01*
X161036693Y-68226973D01*
X161125342Y-68012955D01*
X161214162Y-67880027D01*
X161254039Y-67820346D01*
X161417846Y-67656539D01*
X161546251Y-67570742D01*
X161610455Y-67527842D01*
X161824473Y-67439193D01*
X161975940Y-67409064D01*
X162051673Y-67394000D01*
X162283327Y-67394000D01*
X162359060Y-67409064D01*
X162359060Y-67409064D01*
G37*
G36*
X124336564Y-67539389D02*
G01*
X124527833Y-67618615D01*
X124527835Y-67618616D01*
X124699973Y-67733635D01*
X124846365Y-67880027D01*
X124935185Y-68012955D01*
X124961385Y-68052167D01*
X125040611Y-68243436D01*
X125081000Y-68446484D01*
X125081000Y-68653516D01*
X125040611Y-68856564D01*
X124961385Y-69047833D01*
X124961384Y-69047835D01*
X124846365Y-69219973D01*
X124699973Y-69366365D01*
X124527835Y-69481384D01*
X124527834Y-69481385D01*
X124527833Y-69481385D01*
X124336564Y-69560611D01*
X124133516Y-69601000D01*
X123926484Y-69601000D01*
X123723436Y-69560611D01*
X123532167Y-69481385D01*
X123532166Y-69481385D01*
X123532165Y-69481384D01*
X123360027Y-69366365D01*
X123213635Y-69219973D01*
X123098616Y-69047835D01*
X123098615Y-69047833D01*
X123019389Y-68856564D01*
X122979000Y-68653516D01*
X122979000Y-68446484D01*
X123019389Y-68243436D01*
X123098615Y-68052167D01*
X123124816Y-68012955D01*
X123213635Y-67880027D01*
X123360027Y-67733635D01*
X123532165Y-67618616D01*
X123532167Y-67618615D01*
X123723436Y-67539389D01*
X123926484Y-67499000D01*
X124133516Y-67499000D01*
X124336564Y-67539389D01*
X124336564Y-67539389D01*
G37*
G36*
X121836564Y-67539389D02*
G01*
X122027833Y-67618615D01*
X122027835Y-67618616D01*
X122199973Y-67733635D01*
X122346365Y-67880027D01*
X122435185Y-68012955D01*
X122461385Y-68052167D01*
X122540611Y-68243436D01*
X122581000Y-68446484D01*
X122581000Y-68653516D01*
X122540611Y-68856564D01*
X122461385Y-69047833D01*
X122461384Y-69047835D01*
X122346365Y-69219973D01*
X122199973Y-69366365D01*
X122027835Y-69481384D01*
X122027834Y-69481385D01*
X122027833Y-69481385D01*
X121836564Y-69560611D01*
X121633516Y-69601000D01*
X121426484Y-69601000D01*
X121223436Y-69560611D01*
X121032167Y-69481385D01*
X121032166Y-69481385D01*
X121032165Y-69481384D01*
X120860027Y-69366365D01*
X120713635Y-69219973D01*
X120598616Y-69047835D01*
X120598615Y-69047833D01*
X120519389Y-68856564D01*
X120479000Y-68653516D01*
X120479000Y-68446484D01*
X120519389Y-68243436D01*
X120598615Y-68052167D01*
X120624816Y-68012955D01*
X120713635Y-67880027D01*
X120860027Y-67733635D01*
X121032165Y-67618616D01*
X121032167Y-67618615D01*
X121223436Y-67539389D01*
X121426484Y-67499000D01*
X121633516Y-67499000D01*
X121836564Y-67539389D01*
X121836564Y-67539389D01*
G37*
G36*
X120081000Y-69601000D02*
G01*
X117979000Y-69601000D01*
X117979000Y-67499000D01*
X120081000Y-67499000D01*
X120081000Y-69601000D01*
X120081000Y-69601000D01*
G37*
G36*
X175059060Y-66774064D02*
G01*
X175210527Y-66804193D01*
X175424545Y-66892842D01*
X175424546Y-66892843D01*
X175617154Y-67021539D01*
X175780961Y-67185346D01*
X175866758Y-67313751D01*
X175909658Y-67377955D01*
X175998307Y-67591973D01*
X176011150Y-67656539D01*
X176042586Y-67814576D01*
X176043500Y-67819174D01*
X176043500Y-68050826D01*
X175998307Y-68278027D01*
X175909658Y-68492045D01*
X175909657Y-68492046D01*
X175780961Y-68684654D01*
X175617154Y-68848461D01*
X175509265Y-68920550D01*
X175424545Y-68977158D01*
X175210527Y-69065807D01*
X175059060Y-69095936D01*
X174983327Y-69111000D01*
X174751673Y-69111000D01*
X174675940Y-69095936D01*
X174524473Y-69065807D01*
X174310455Y-68977158D01*
X174225735Y-68920550D01*
X174117846Y-68848461D01*
X173954039Y-68684654D01*
X173825343Y-68492046D01*
X173825342Y-68492045D01*
X173736693Y-68278027D01*
X173691500Y-68050826D01*
X173691500Y-67819174D01*
X173692415Y-67814576D01*
X173723850Y-67656539D01*
X173736693Y-67591973D01*
X173825342Y-67377955D01*
X173868242Y-67313751D01*
X173954039Y-67185346D01*
X174117846Y-67021539D01*
X174310454Y-66892843D01*
X174310455Y-66892842D01*
X174524473Y-66804193D01*
X174675940Y-66774064D01*
X174751673Y-66759000D01*
X174983327Y-66759000D01*
X175059060Y-66774064D01*
X175059060Y-66774064D01*
G37*
G36*
X135270254Y-65724295D02*
G01*
X135376577Y-65745444D01*
X135677040Y-65869900D01*
X135947449Y-66050582D01*
X136177413Y-66280546D01*
X136358095Y-66550955D01*
X136462990Y-66804193D01*
X136482551Y-66851419D01*
X136545998Y-67170386D01*
X136545998Y-67495608D01*
X136513986Y-67656541D01*
X136482551Y-67814576D01*
X136480161Y-67820346D01*
X136384138Y-68052167D01*
X136358095Y-68115039D01*
X136177413Y-68385448D01*
X135947449Y-68615412D01*
X135677040Y-68796094D01*
X135376577Y-68920550D01*
X135270254Y-68941699D01*
X135057609Y-68983997D01*
X134732387Y-68983997D01*
X134519742Y-68941699D01*
X134413419Y-68920550D01*
X134112956Y-68796094D01*
X133842547Y-68615412D01*
X133612583Y-68385448D01*
X133431901Y-68115039D01*
X133405859Y-68052167D01*
X133309835Y-67820346D01*
X133307445Y-67814576D01*
X133276010Y-67656541D01*
X133243998Y-67495608D01*
X133243998Y-67170386D01*
X133307445Y-66851419D01*
X133327007Y-66804193D01*
X133431901Y-66550955D01*
X133612583Y-66280546D01*
X133842547Y-66050582D01*
X134112956Y-65869900D01*
X134413419Y-65745444D01*
X134519742Y-65724295D01*
X134732387Y-65681997D01*
X135057609Y-65681997D01*
X135270254Y-65724295D01*
X135270254Y-65724295D01*
G37*
G36*
X181409060Y-64234064D02*
G01*
X181560527Y-64264193D01*
X181774545Y-64352842D01*
X181774546Y-64352843D01*
X181967154Y-64481539D01*
X182130961Y-64645346D01*
X182216758Y-64773751D01*
X182259658Y-64837955D01*
X182348307Y-65051973D01*
X182393500Y-65279174D01*
X182393500Y-65510826D01*
X182348307Y-65738027D01*
X182259658Y-65952045D01*
X182259657Y-65952046D01*
X182130961Y-66144654D01*
X181967154Y-66308461D01*
X181838749Y-66394258D01*
X181774545Y-66437158D01*
X181560527Y-66525807D01*
X181434099Y-66550955D01*
X181333327Y-66571000D01*
X181101673Y-66571000D01*
X181000901Y-66550955D01*
X180874473Y-66525807D01*
X180660455Y-66437158D01*
X180596251Y-66394258D01*
X180467846Y-66308461D01*
X180304039Y-66144654D01*
X180175343Y-65952046D01*
X180175342Y-65952045D01*
X180086693Y-65738027D01*
X180041500Y-65510826D01*
X180041500Y-65279174D01*
X180086693Y-65051973D01*
X180175342Y-64837955D01*
X180218242Y-64773751D01*
X180304039Y-64645346D01*
X180467846Y-64481539D01*
X180660454Y-64352843D01*
X180660455Y-64352842D01*
X180874473Y-64264193D01*
X181025940Y-64234064D01*
X181101673Y-64219000D01*
X181333327Y-64219000D01*
X181409060Y-64234064D01*
X181409060Y-64234064D01*
G37*
G36*
X236423974Y-62158684D02*
G01*
X236641974Y-62248983D01*
X236796123Y-62312833D01*
X237131048Y-62536623D01*
X237415877Y-62821452D01*
X237639667Y-63156377D01*
X237672062Y-63234586D01*
X237793816Y-63528526D01*
X237872400Y-63923594D01*
X237872400Y-64326406D01*
X237793816Y-64721474D01*
X237742951Y-64844272D01*
X237639667Y-65093623D01*
X237415877Y-65428548D01*
X237131048Y-65713377D01*
X236796123Y-65937167D01*
X236641974Y-66001017D01*
X236423974Y-66091316D01*
X236028906Y-66169900D01*
X235626094Y-66169900D01*
X235231026Y-66091316D01*
X235013026Y-66001017D01*
X234858877Y-65937167D01*
X234523952Y-65713377D01*
X234239123Y-65428548D01*
X234015333Y-65093623D01*
X233912049Y-64844272D01*
X233861184Y-64721474D01*
X233782600Y-64326406D01*
X233782600Y-63923594D01*
X233861184Y-63528526D01*
X233982938Y-63234586D01*
X234015333Y-63156377D01*
X234239123Y-62821452D01*
X234523952Y-62536623D01*
X234858877Y-62312833D01*
X235013026Y-62248983D01*
X235231026Y-62158684D01*
X235626094Y-62080100D01*
X236028906Y-62080100D01*
X236423974Y-62158684D01*
X236423974Y-62158684D01*
G37*
G36*
X241177604Y-63234585D02*
G01*
X241346126Y-63304389D01*
X241497791Y-63405728D01*
X241626772Y-63534709D01*
X241728111Y-63686374D01*
X241797915Y-63854896D01*
X241833500Y-64033797D01*
X241833500Y-64216203D01*
X241797915Y-64395104D01*
X241728111Y-64563626D01*
X241626772Y-64715291D01*
X241497791Y-64844272D01*
X241346126Y-64945611D01*
X241177604Y-65015415D01*
X240998703Y-65051000D01*
X240816297Y-65051000D01*
X240637396Y-65015415D01*
X240468874Y-64945611D01*
X240317209Y-64844272D01*
X240188228Y-64715291D01*
X240086889Y-64563626D01*
X240017085Y-64395104D01*
X239981500Y-64216203D01*
X239981500Y-64033797D01*
X240017085Y-63854896D01*
X240086889Y-63686374D01*
X240188228Y-63534709D01*
X240317209Y-63405728D01*
X240468874Y-63304389D01*
X240637396Y-63234585D01*
X240816297Y-63199000D01*
X240998703Y-63199000D01*
X241177604Y-63234585D01*
X241177604Y-63234585D01*
G37*
G36*
X231017604Y-63234585D02*
G01*
X231186126Y-63304389D01*
X231337791Y-63405728D01*
X231466772Y-63534709D01*
X231568111Y-63686374D01*
X231637915Y-63854896D01*
X231673500Y-64033797D01*
X231673500Y-64216203D01*
X231637915Y-64395104D01*
X231568111Y-64563626D01*
X231466772Y-64715291D01*
X231337791Y-64844272D01*
X231186126Y-64945611D01*
X231017604Y-65015415D01*
X230838703Y-65051000D01*
X230656297Y-65051000D01*
X230477396Y-65015415D01*
X230308874Y-64945611D01*
X230157209Y-64844272D01*
X230028228Y-64715291D01*
X229926889Y-64563626D01*
X229857085Y-64395104D01*
X229821500Y-64216203D01*
X229821500Y-64033797D01*
X229857085Y-63854896D01*
X229926889Y-63686374D01*
X230028228Y-63534709D01*
X230157209Y-63405728D01*
X230308874Y-63304389D01*
X230477396Y-63234585D01*
X230656297Y-63199000D01*
X230838703Y-63199000D01*
X231017604Y-63234585D01*
X231017604Y-63234585D01*
G37*
G36*
X97677618Y-62088420D02*
G01*
X97768404Y-62115960D01*
X97800336Y-62125646D01*
X97913425Y-62186094D01*
X98012554Y-62267446D01*
X98093906Y-62366575D01*
X98154354Y-62479664D01*
X98154558Y-62480336D01*
X98191580Y-62602382D01*
X98201000Y-62698027D01*
X98201000Y-63361973D01*
X98191580Y-63457618D01*
X98170070Y-63528526D01*
X98154354Y-63580336D01*
X98093906Y-63693425D01*
X98012554Y-63792553D01*
X97913424Y-63873906D01*
X97800335Y-63934354D01*
X97768403Y-63944040D01*
X97677617Y-63971580D01*
X97550000Y-63984149D01*
X97422382Y-63971580D01*
X97331596Y-63944040D01*
X97299664Y-63934354D01*
X97186575Y-63873906D01*
X97087447Y-63792554D01*
X97006094Y-63693424D01*
X96945646Y-63580335D01*
X96931806Y-63534709D01*
X96908420Y-63457617D01*
X96899000Y-63361972D01*
X96899000Y-62698027D01*
X96908420Y-62602382D01*
X96945442Y-62480336D01*
X96945645Y-62479667D01*
X97006096Y-62366573D01*
X97087447Y-62267446D01*
X97186576Y-62186094D01*
X97299665Y-62125646D01*
X97331597Y-62115960D01*
X97422383Y-62088420D01*
X97550000Y-62075851D01*
X97677618Y-62088420D01*
X97677618Y-62088420D01*
G37*
G36*
X226497236Y-60336904D02*
G01*
X226603559Y-60358053D01*
X226904022Y-60482509D01*
X227174431Y-60663191D01*
X227404395Y-60893155D01*
X227576953Y-61151406D01*
X227585078Y-61163566D01*
X227608496Y-61220103D01*
X227709533Y-61464027D01*
X227710557Y-61469174D01*
X227772980Y-61782995D01*
X227772980Y-62108217D01*
X227741307Y-62267446D01*
X227709533Y-62427185D01*
X227687517Y-62480336D01*
X227597347Y-62698027D01*
X227585077Y-62727648D01*
X227404395Y-62998057D01*
X227174431Y-63228021D01*
X226904022Y-63408703D01*
X226603559Y-63533159D01*
X226497236Y-63554308D01*
X226284591Y-63596606D01*
X225959369Y-63596606D01*
X225746724Y-63554308D01*
X225640401Y-63533159D01*
X225339938Y-63408703D01*
X225069529Y-63228021D01*
X224839565Y-62998057D01*
X224658883Y-62727648D01*
X224646614Y-62698027D01*
X224556443Y-62480336D01*
X224534427Y-62427185D01*
X224502653Y-62267446D01*
X224470980Y-62108217D01*
X224470980Y-61782995D01*
X224533403Y-61469174D01*
X224534427Y-61464027D01*
X224635464Y-61220103D01*
X224658882Y-61163566D01*
X224667007Y-61151406D01*
X224839565Y-60893155D01*
X225069529Y-60663191D01*
X225339938Y-60482509D01*
X225640401Y-60358053D01*
X225746724Y-60336904D01*
X225959369Y-60294606D01*
X226284591Y-60294606D01*
X226497236Y-60336904D01*
X226497236Y-60336904D01*
G37*
G36*
X217373974Y-58983684D02*
G01*
X217591974Y-59073983D01*
X217746123Y-59137833D01*
X218081048Y-59361623D01*
X218365877Y-59646452D01*
X218589667Y-59981377D01*
X218622062Y-60059586D01*
X218743816Y-60353526D01*
X218822400Y-60748594D01*
X218822400Y-61151406D01*
X218743816Y-61546474D01*
X218692951Y-61669272D01*
X218589667Y-61918623D01*
X218365877Y-62253548D01*
X218081048Y-62538377D01*
X217746123Y-62762167D01*
X217717782Y-62773906D01*
X217373974Y-62916316D01*
X216978906Y-62994900D01*
X216576094Y-62994900D01*
X216181026Y-62916316D01*
X215837218Y-62773906D01*
X215808877Y-62762167D01*
X215473952Y-62538377D01*
X215189123Y-62253548D01*
X214965333Y-61918623D01*
X214862049Y-61669272D01*
X214811184Y-61546474D01*
X214732600Y-61151406D01*
X214732600Y-60748594D01*
X214811184Y-60353526D01*
X214932938Y-60059586D01*
X214965333Y-59981377D01*
X215189123Y-59646452D01*
X215473952Y-59361623D01*
X215808877Y-59137833D01*
X215963026Y-59073983D01*
X216181026Y-58983684D01*
X216576094Y-58905100D01*
X216978906Y-58905100D01*
X217373974Y-58983684D01*
X217373974Y-58983684D01*
G37*
G36*
X122123974Y-58983684D02*
G01*
X122341974Y-59073983D01*
X122496123Y-59137833D01*
X122831048Y-59361623D01*
X123115877Y-59646452D01*
X123339667Y-59981377D01*
X123372062Y-60059586D01*
X123493816Y-60353526D01*
X123572400Y-60748594D01*
X123572400Y-61151406D01*
X123493816Y-61546474D01*
X123442951Y-61669272D01*
X123339667Y-61918623D01*
X123115877Y-62253548D01*
X122831048Y-62538377D01*
X122496123Y-62762167D01*
X122467782Y-62773906D01*
X122123974Y-62916316D01*
X121728906Y-62994900D01*
X121326094Y-62994900D01*
X120931026Y-62916316D01*
X120587218Y-62773906D01*
X120558877Y-62762167D01*
X120223952Y-62538377D01*
X119939123Y-62253548D01*
X119715333Y-61918623D01*
X119612049Y-61669272D01*
X119561184Y-61546474D01*
X119482600Y-61151406D01*
X119482600Y-60748594D01*
X119561184Y-60353526D01*
X119682938Y-60059586D01*
X119715333Y-59981377D01*
X119939123Y-59646452D01*
X120223952Y-59361623D01*
X120558877Y-59137833D01*
X120713026Y-59073983D01*
X120931026Y-58983684D01*
X121326094Y-58905100D01*
X121728906Y-58905100D01*
X122123974Y-58983684D01*
X122123974Y-58983684D01*
G37*
G36*
X93077618Y-60988420D02*
G01*
X93168404Y-61015960D01*
X93200336Y-61025646D01*
X93313425Y-61086094D01*
X93412554Y-61167446D01*
X93493906Y-61266575D01*
X93554354Y-61379664D01*
X93564040Y-61411596D01*
X93591580Y-61502382D01*
X93601000Y-61598027D01*
X93601000Y-62261973D01*
X93591580Y-62357618D01*
X93570477Y-62427184D01*
X93554354Y-62480336D01*
X93493906Y-62593425D01*
X93412554Y-62692553D01*
X93313424Y-62773906D01*
X93200335Y-62834354D01*
X93168403Y-62844040D01*
X93077617Y-62871580D01*
X92950000Y-62884149D01*
X92822382Y-62871580D01*
X92731596Y-62844040D01*
X92699664Y-62834354D01*
X92586575Y-62773906D01*
X92487447Y-62692554D01*
X92406094Y-62593424D01*
X92345646Y-62480335D01*
X92329523Y-62427184D01*
X92308420Y-62357617D01*
X92299000Y-62261972D01*
X92299000Y-61598027D01*
X92308420Y-61502382D01*
X92333237Y-61420573D01*
X92345645Y-61379667D01*
X92406096Y-61266573D01*
X92487447Y-61167446D01*
X92586576Y-61086094D01*
X92699665Y-61025646D01*
X92731597Y-61015960D01*
X92822383Y-60988420D01*
X92950000Y-60975851D01*
X93077618Y-60988420D01*
X93077618Y-60988420D01*
G37*
G36*
X232209060Y-60424064D02*
G01*
X232360527Y-60454193D01*
X232574545Y-60542842D01*
X232574546Y-60542843D01*
X232767154Y-60671539D01*
X232930961Y-60835346D01*
X232969589Y-60893157D01*
X233059658Y-61027955D01*
X233148307Y-61241973D01*
X233175695Y-61379664D01*
X233192477Y-61464028D01*
X233193500Y-61469174D01*
X233193500Y-61700826D01*
X233148307Y-61928027D01*
X233059658Y-62142045D01*
X233059657Y-62142046D01*
X232930961Y-62334654D01*
X232767154Y-62498461D01*
X232710040Y-62536623D01*
X232574545Y-62627158D01*
X232360527Y-62715807D01*
X232209060Y-62745936D01*
X232133327Y-62761000D01*
X231901673Y-62761000D01*
X231825940Y-62745936D01*
X231674473Y-62715807D01*
X231460455Y-62627158D01*
X231324960Y-62536623D01*
X231267846Y-62498461D01*
X231104039Y-62334654D01*
X230975343Y-62142046D01*
X230975342Y-62142045D01*
X230886693Y-61928027D01*
X230841500Y-61700826D01*
X230841500Y-61469174D01*
X230842524Y-61464028D01*
X230859305Y-61379664D01*
X230886693Y-61241973D01*
X230975342Y-61027955D01*
X231065411Y-60893157D01*
X231104039Y-60835346D01*
X231267846Y-60671539D01*
X231460454Y-60542843D01*
X231460455Y-60542842D01*
X231674473Y-60454193D01*
X231825940Y-60424064D01*
X231901673Y-60409000D01*
X232133327Y-60409000D01*
X232209060Y-60424064D01*
X232209060Y-60424064D01*
G37*
G36*
X128181000Y-62701000D02*
G01*
X126079000Y-62701000D01*
X126079000Y-61777372D01*
X126076598Y-61752986D01*
X126069485Y-61729537D01*
X126057934Y-61707926D01*
X126042389Y-61688984D01*
X126023458Y-61673448D01*
X126017209Y-61669272D01*
X125888228Y-61540291D01*
X125786889Y-61388626D01*
X125717085Y-61220104D01*
X125681500Y-61041203D01*
X125681500Y-60858797D01*
X125717085Y-60679896D01*
X125786889Y-60511374D01*
X125888228Y-60359709D01*
X126017209Y-60230728D01*
X126023458Y-60226552D01*
X126042390Y-60211014D01*
X126057935Y-60192072D01*
X126069486Y-60170461D01*
X126076599Y-60147012D01*
X126079000Y-60122628D01*
X126079000Y-59399000D01*
X128181000Y-59399000D01*
X128181000Y-62701000D01*
X128181000Y-62701000D01*
G37*
G36*
X117909060Y-57249064D02*
G01*
X118060527Y-57279193D01*
X118274545Y-57367842D01*
X118338749Y-57410742D01*
X118467154Y-57496539D01*
X118630961Y-57660346D01*
X118671599Y-57721166D01*
X118759658Y-57852955D01*
X118848307Y-58066973D01*
X118893500Y-58294174D01*
X118893500Y-58525826D01*
X118848307Y-58753027D01*
X118759658Y-58967045D01*
X118759657Y-58967046D01*
X118630961Y-59159654D01*
X118467154Y-59323461D01*
X118357696Y-59396598D01*
X118274545Y-59452158D01*
X118060527Y-59540807D01*
X117939408Y-59564899D01*
X117833327Y-59586000D01*
X117601673Y-59586000D01*
X117495592Y-59564899D01*
X117374473Y-59540807D01*
X117160455Y-59452158D01*
X117160453Y-59452157D01*
X117153834Y-59449415D01*
X117130385Y-59442302D01*
X117105999Y-59439900D01*
X117081613Y-59442302D01*
X117058164Y-59449415D01*
X117036553Y-59460966D01*
X117017611Y-59476511D01*
X117002066Y-59495453D01*
X116990515Y-59517064D01*
X116983402Y-59540513D01*
X116981000Y-59564899D01*
X116981000Y-60125969D01*
X116983402Y-60150355D01*
X116990515Y-60173804D01*
X117002066Y-60195415D01*
X117017611Y-60214357D01*
X117036541Y-60229893D01*
X117037791Y-60230728D01*
X117166772Y-60359709D01*
X117268111Y-60511374D01*
X117337915Y-60679896D01*
X117373500Y-60858797D01*
X117373500Y-61041203D01*
X117337915Y-61220104D01*
X117268111Y-61388626D01*
X117166772Y-61540291D01*
X117037791Y-61669272D01*
X117036541Y-61670107D01*
X117017610Y-61685645D01*
X117002065Y-61704587D01*
X116990514Y-61726198D01*
X116983401Y-61749647D01*
X116981000Y-61774031D01*
X116981000Y-62701000D01*
X114879000Y-62701000D01*
X114879000Y-59399000D01*
X116741610Y-59399000D01*
X116765996Y-59396598D01*
X116789445Y-59389485D01*
X116811056Y-59377934D01*
X116829998Y-59362389D01*
X116845543Y-59343447D01*
X116857094Y-59321836D01*
X116864207Y-59298387D01*
X116866609Y-59274001D01*
X116864207Y-59249615D01*
X116857094Y-59226166D01*
X116845543Y-59204555D01*
X116829998Y-59185613D01*
X116804039Y-59159654D01*
X116675343Y-58967046D01*
X116675342Y-58967045D01*
X116586693Y-58753027D01*
X116541500Y-58525826D01*
X116541500Y-58294174D01*
X116586693Y-58066973D01*
X116675342Y-57852955D01*
X116763401Y-57721166D01*
X116804039Y-57660346D01*
X116967846Y-57496539D01*
X117096251Y-57410742D01*
X117160455Y-57367842D01*
X117374473Y-57279193D01*
X117525940Y-57249064D01*
X117601673Y-57234000D01*
X117833327Y-57234000D01*
X117909060Y-57249064D01*
X117909060Y-57249064D01*
G37*
G36*
X222127604Y-60059585D02*
G01*
X222296126Y-60129389D01*
X222447791Y-60230728D01*
X222576772Y-60359709D01*
X222678111Y-60511374D01*
X222747915Y-60679896D01*
X222783500Y-60858797D01*
X222783500Y-61041203D01*
X222747915Y-61220104D01*
X222678111Y-61388626D01*
X222576772Y-61540291D01*
X222447791Y-61669272D01*
X222296126Y-61770611D01*
X222127604Y-61840415D01*
X221948703Y-61876000D01*
X221766297Y-61876000D01*
X221587396Y-61840415D01*
X221418874Y-61770611D01*
X221267209Y-61669272D01*
X221138228Y-61540291D01*
X221036889Y-61388626D01*
X220967085Y-61220104D01*
X220931500Y-61041203D01*
X220931500Y-60858797D01*
X220967085Y-60679896D01*
X221036889Y-60511374D01*
X221138228Y-60359709D01*
X221267209Y-60230728D01*
X221418874Y-60129389D01*
X221587396Y-60059585D01*
X221766297Y-60024000D01*
X221948703Y-60024000D01*
X222127604Y-60059585D01*
X222127604Y-60059585D01*
G37*
G36*
X211967604Y-60059585D02*
G01*
X212136126Y-60129389D01*
X212287791Y-60230728D01*
X212416772Y-60359709D01*
X212518111Y-60511374D01*
X212587915Y-60679896D01*
X212623500Y-60858797D01*
X212623500Y-61041203D01*
X212587915Y-61220104D01*
X212518111Y-61388626D01*
X212416772Y-61540291D01*
X212287791Y-61669272D01*
X212136126Y-61770611D01*
X211967604Y-61840415D01*
X211788703Y-61876000D01*
X211606297Y-61876000D01*
X211427396Y-61840415D01*
X211258874Y-61770611D01*
X211107209Y-61669272D01*
X210978228Y-61540291D01*
X210876889Y-61388626D01*
X210807085Y-61220104D01*
X210771500Y-61041203D01*
X210771500Y-60858797D01*
X210807085Y-60679896D01*
X210876889Y-60511374D01*
X210978228Y-60359709D01*
X211107209Y-60230728D01*
X211258874Y-60129389D01*
X211427396Y-60059585D01*
X211606297Y-60024000D01*
X211788703Y-60024000D01*
X211967604Y-60059585D01*
X211967604Y-60059585D01*
G37*
G36*
X95483642Y-59559781D02*
G01*
X95585678Y-59602046D01*
X95629416Y-59620163D01*
X95760608Y-59707822D01*
X95872178Y-59819392D01*
X95872517Y-59819900D01*
X95959838Y-59950586D01*
X96020219Y-60096358D01*
X96051000Y-60251107D01*
X96051000Y-60408893D01*
X96020219Y-60563642D01*
X95972065Y-60679896D01*
X95959837Y-60709416D01*
X95872178Y-60840608D01*
X95760608Y-60952178D01*
X95629416Y-61039837D01*
X95629415Y-61039838D01*
X95629414Y-61039838D01*
X95483642Y-61100219D01*
X95328893Y-61131000D01*
X95171107Y-61131000D01*
X95016358Y-61100219D01*
X94870586Y-61039838D01*
X94870585Y-61039838D01*
X94870584Y-61039837D01*
X94739392Y-60952178D01*
X94627822Y-60840608D01*
X94540163Y-60709416D01*
X94527935Y-60679896D01*
X94479781Y-60563642D01*
X94449000Y-60408893D01*
X94449000Y-60251107D01*
X94479781Y-60096358D01*
X94540162Y-59950586D01*
X94627483Y-59819900D01*
X94627822Y-59819392D01*
X94739392Y-59707822D01*
X94870584Y-59620163D01*
X94914322Y-59602046D01*
X95016358Y-59559781D01*
X95171107Y-59529000D01*
X95328893Y-59529000D01*
X95483642Y-59559781D01*
X95483642Y-59559781D01*
G37*
G36*
X238559060Y-57884064D02*
G01*
X238710527Y-57914193D01*
X238924545Y-58002842D01*
X238924546Y-58002843D01*
X239117154Y-58131539D01*
X239280961Y-58295346D01*
X239366758Y-58423751D01*
X239409658Y-58487955D01*
X239498307Y-58701973D01*
X239508462Y-58753025D01*
X239538712Y-58905100D01*
X239543500Y-58929174D01*
X239543500Y-59160826D01*
X239498307Y-59388027D01*
X239409658Y-59602045D01*
X239397552Y-59620163D01*
X239280961Y-59794654D01*
X239117154Y-59958461D01*
X238988749Y-60044258D01*
X238924545Y-60087158D01*
X238710527Y-60175807D01*
X238559060Y-60205936D01*
X238483327Y-60221000D01*
X238251673Y-60221000D01*
X238175940Y-60205936D01*
X238024473Y-60175807D01*
X237810455Y-60087158D01*
X237746251Y-60044258D01*
X237617846Y-59958461D01*
X237454039Y-59794654D01*
X237337448Y-59620163D01*
X237325342Y-59602045D01*
X237236693Y-59388027D01*
X237191500Y-59160826D01*
X237191500Y-58929174D01*
X237196289Y-58905100D01*
X237226538Y-58753025D01*
X237236693Y-58701973D01*
X237325342Y-58487955D01*
X237368242Y-58423751D01*
X237454039Y-58295346D01*
X237617846Y-58131539D01*
X237810454Y-58002843D01*
X237810455Y-58002842D01*
X238024473Y-57914193D01*
X238175940Y-57884064D01*
X238251673Y-57869000D01*
X238483327Y-57869000D01*
X238559060Y-57884064D01*
X238559060Y-57884064D01*
G37*
G36*
X141173974Y-55808684D02*
G01*
X141325818Y-55871580D01*
X141546123Y-55962833D01*
X141881048Y-56186623D01*
X142165877Y-56471452D01*
X142389667Y-56806377D01*
X142422062Y-56884586D01*
X142543816Y-57178526D01*
X142622400Y-57573594D01*
X142622400Y-57976406D01*
X142543816Y-58371474D01*
X142492951Y-58494272D01*
X142389667Y-58743623D01*
X142165877Y-59078548D01*
X141881048Y-59363377D01*
X141546123Y-59587167D01*
X141466463Y-59620163D01*
X141173974Y-59741316D01*
X140778906Y-59819900D01*
X140376094Y-59819900D01*
X139981026Y-59741316D01*
X139688537Y-59620163D01*
X139608877Y-59587167D01*
X139273952Y-59363377D01*
X138989123Y-59078548D01*
X138765333Y-58743623D01*
X138662049Y-58494272D01*
X138611184Y-58371474D01*
X138532600Y-57976406D01*
X138532600Y-57573594D01*
X138611184Y-57178526D01*
X138732938Y-56884586D01*
X138765333Y-56806377D01*
X138989123Y-56471452D01*
X139273952Y-56186623D01*
X139608877Y-55962833D01*
X139829182Y-55871580D01*
X139981026Y-55808684D01*
X140376094Y-55730100D01*
X140778906Y-55730100D01*
X141173974Y-55808684D01*
X141173974Y-55808684D01*
G37*
G36*
X213159060Y-57249064D02*
G01*
X213310527Y-57279193D01*
X213524545Y-57367842D01*
X213588749Y-57410742D01*
X213717154Y-57496539D01*
X213880961Y-57660346D01*
X213921599Y-57721166D01*
X214009658Y-57852955D01*
X214098307Y-58066973D01*
X214143500Y-58294174D01*
X214143500Y-58525826D01*
X214098307Y-58753027D01*
X214009658Y-58967045D01*
X214009657Y-58967046D01*
X213880961Y-59159654D01*
X213717154Y-59323461D01*
X213607696Y-59396598D01*
X213524545Y-59452158D01*
X213310527Y-59540807D01*
X213189408Y-59564899D01*
X213083327Y-59586000D01*
X212851673Y-59586000D01*
X212745592Y-59564899D01*
X212624473Y-59540807D01*
X212410455Y-59452158D01*
X212327304Y-59396598D01*
X212217846Y-59323461D01*
X212054039Y-59159654D01*
X211925343Y-58967046D01*
X211925342Y-58967045D01*
X211836693Y-58753027D01*
X211791500Y-58525826D01*
X211791500Y-58294174D01*
X211836693Y-58066973D01*
X211925342Y-57852955D01*
X212013401Y-57721166D01*
X212054039Y-57660346D01*
X212217846Y-57496539D01*
X212346251Y-57410742D01*
X212410455Y-57367842D01*
X212624473Y-57279193D01*
X212775940Y-57249064D01*
X212851673Y-57234000D01*
X213083327Y-57234000D01*
X213159060Y-57249064D01*
X213159060Y-57249064D01*
G37*
G36*
X93077618Y-56988420D02*
G01*
X93168404Y-57015960D01*
X93200336Y-57025646D01*
X93313425Y-57086094D01*
X93412554Y-57167446D01*
X93493906Y-57266575D01*
X93554354Y-57379664D01*
X93554355Y-57379668D01*
X93591580Y-57502382D01*
X93601000Y-57598027D01*
X93601000Y-58261973D01*
X93591580Y-58357618D01*
X93564040Y-58448404D01*
X93554354Y-58480336D01*
X93493906Y-58593425D01*
X93412554Y-58692553D01*
X93313424Y-58773906D01*
X93200335Y-58834354D01*
X93168403Y-58844040D01*
X93077617Y-58871580D01*
X92950000Y-58884149D01*
X92822382Y-58871580D01*
X92731596Y-58844040D01*
X92699664Y-58834354D01*
X92586575Y-58773906D01*
X92487447Y-58692554D01*
X92406094Y-58593424D01*
X92345646Y-58480335D01*
X92312624Y-58371475D01*
X92308420Y-58357617D01*
X92299000Y-58261972D01*
X92299000Y-57598027D01*
X92308420Y-57502382D01*
X92345645Y-57379668D01*
X92345645Y-57379667D01*
X92406096Y-57266573D01*
X92487447Y-57167446D01*
X92586576Y-57086094D01*
X92699665Y-57025646D01*
X92731597Y-57015960D01*
X92822383Y-56988420D01*
X92950000Y-56975851D01*
X93077618Y-56988420D01*
X93077618Y-56988420D01*
G37*
G36*
X135767604Y-56884585D02*
G01*
X135936126Y-56954389D01*
X136087791Y-57055728D01*
X136216772Y-57184709D01*
X136318111Y-57336374D01*
X136387915Y-57504896D01*
X136423500Y-57683797D01*
X136423500Y-57866203D01*
X136387915Y-58045104D01*
X136318111Y-58213626D01*
X136216772Y-58365291D01*
X136087791Y-58494272D01*
X135936126Y-58595611D01*
X135767604Y-58665415D01*
X135588703Y-58701000D01*
X135406297Y-58701000D01*
X135227396Y-58665415D01*
X135058874Y-58595611D01*
X134907209Y-58494272D01*
X134778228Y-58365291D01*
X134676889Y-58213626D01*
X134607085Y-58045104D01*
X134571500Y-57866203D01*
X134571500Y-57683797D01*
X134607085Y-57504896D01*
X134676889Y-57336374D01*
X134778228Y-57184709D01*
X134907209Y-57055728D01*
X135058874Y-56954389D01*
X135227396Y-56884585D01*
X135406297Y-56849000D01*
X135588703Y-56849000D01*
X135767604Y-56884585D01*
X135767604Y-56884585D01*
G37*
G36*
X145927604Y-56884585D02*
G01*
X146096126Y-56954389D01*
X146247791Y-57055728D01*
X146376772Y-57184709D01*
X146478111Y-57336374D01*
X146547915Y-57504896D01*
X146583500Y-57683797D01*
X146583500Y-57866203D01*
X146547915Y-58045104D01*
X146478111Y-58213626D01*
X146376772Y-58365291D01*
X146247791Y-58494272D01*
X146096126Y-58595611D01*
X145927604Y-58665415D01*
X145748703Y-58701000D01*
X145566297Y-58701000D01*
X145387396Y-58665415D01*
X145218874Y-58595611D01*
X145067209Y-58494272D01*
X144938228Y-58365291D01*
X144836889Y-58213626D01*
X144767085Y-58045104D01*
X144731500Y-57866203D01*
X144731500Y-57683797D01*
X144767085Y-57504896D01*
X144836889Y-57336374D01*
X144938228Y-57184709D01*
X145067209Y-57055728D01*
X145218874Y-56954389D01*
X145387396Y-56884585D01*
X145566297Y-56849000D01*
X145748703Y-56849000D01*
X145927604Y-56884585D01*
X145927604Y-56884585D01*
G37*
G36*
X110874265Y-55524473D02*
G01*
X110978129Y-55555979D01*
X111001782Y-55568622D01*
X111073850Y-55607143D01*
X111157751Y-55675999D01*
X111226607Y-55759900D01*
X111243789Y-55792046D01*
X111277771Y-55855621D01*
X111309277Y-55959485D01*
X111317250Y-56040433D01*
X111317250Y-57194567D01*
X111309277Y-57275515D01*
X111277771Y-57379379D01*
X111226606Y-57475100D01*
X111157751Y-57559001D01*
X111110198Y-57598026D01*
X111073849Y-57627857D01*
X111022157Y-57655487D01*
X110978128Y-57679021D01*
X110874264Y-57710527D01*
X110766250Y-57721166D01*
X110658235Y-57710527D01*
X110554371Y-57679021D01*
X110510343Y-57655487D01*
X110458651Y-57627857D01*
X110422302Y-57598026D01*
X110374749Y-57559001D01*
X110305894Y-57475100D01*
X110254729Y-57379378D01*
X110223223Y-57275514D01*
X110215250Y-57194566D01*
X110215251Y-56040433D01*
X110223224Y-55959485D01*
X110254730Y-55855621D01*
X110288712Y-55792046D01*
X110305894Y-55759900D01*
X110374750Y-55675999D01*
X110458651Y-55607143D01*
X110530719Y-55568622D01*
X110554372Y-55555979D01*
X110658236Y-55524473D01*
X110766250Y-55513834D01*
X110874265Y-55524473D01*
X110874265Y-55524473D01*
G37*
G36*
X102234265Y-55524473D02*
G01*
X102338129Y-55555979D01*
X102361782Y-55568622D01*
X102433850Y-55607143D01*
X102517751Y-55675999D01*
X102586607Y-55759900D01*
X102603789Y-55792046D01*
X102637771Y-55855621D01*
X102669277Y-55959485D01*
X102677250Y-56040433D01*
X102677250Y-57194567D01*
X102669277Y-57275515D01*
X102637771Y-57379379D01*
X102586606Y-57475100D01*
X102517751Y-57559001D01*
X102470198Y-57598026D01*
X102433849Y-57627857D01*
X102382157Y-57655487D01*
X102338128Y-57679021D01*
X102234264Y-57710527D01*
X102126250Y-57721166D01*
X102018235Y-57710527D01*
X101914371Y-57679021D01*
X101870343Y-57655487D01*
X101818651Y-57627857D01*
X101782302Y-57598026D01*
X101734749Y-57559001D01*
X101665894Y-57475100D01*
X101614729Y-57379378D01*
X101583223Y-57275514D01*
X101575250Y-57194566D01*
X101575251Y-56040433D01*
X101583224Y-55959485D01*
X101614730Y-55855621D01*
X101648712Y-55792046D01*
X101665894Y-55759900D01*
X101734750Y-55675999D01*
X101818651Y-55607143D01*
X101890719Y-55568622D01*
X101914372Y-55555979D01*
X102018236Y-55524473D01*
X102126250Y-55513834D01*
X102234265Y-55524473D01*
X102234265Y-55524473D01*
G37*
G36*
X124336564Y-53039389D02*
G01*
X124488102Y-53102158D01*
X124527835Y-53118616D01*
X124543377Y-53129001D01*
X124699973Y-53233635D01*
X124846365Y-53380027D01*
X124961385Y-53552167D01*
X125040611Y-53743436D01*
X125081000Y-53946484D01*
X125081000Y-54153516D01*
X125040611Y-54356564D01*
X124977554Y-54508797D01*
X124961384Y-54547835D01*
X124863720Y-54694000D01*
X124846365Y-54719973D01*
X124800554Y-54765784D01*
X124785009Y-54784726D01*
X124773458Y-54806337D01*
X124766345Y-54829786D01*
X124763943Y-54854172D01*
X124766345Y-54878558D01*
X124773458Y-54902007D01*
X124785009Y-54923618D01*
X124800554Y-54942560D01*
X124815165Y-54954550D01*
X124980961Y-55120346D01*
X125066758Y-55248751D01*
X125109658Y-55312955D01*
X125198307Y-55526973D01*
X125208462Y-55578025D01*
X125238712Y-55730100D01*
X125243500Y-55754174D01*
X125243500Y-55985826D01*
X125198307Y-56213027D01*
X125109658Y-56427045D01*
X125094954Y-56449051D01*
X124980961Y-56619654D01*
X124817154Y-56783461D01*
X124688749Y-56869258D01*
X124624545Y-56912158D01*
X124410527Y-57000807D01*
X124259060Y-57030936D01*
X124183327Y-57046000D01*
X123951673Y-57046000D01*
X123875940Y-57030936D01*
X123724473Y-57000807D01*
X123510455Y-56912158D01*
X123446251Y-56869258D01*
X123317846Y-56783461D01*
X123154039Y-56619654D01*
X123040046Y-56449051D01*
X123025342Y-56427045D01*
X122936693Y-56213027D01*
X122891500Y-55985826D01*
X122891500Y-55754174D01*
X122896289Y-55730100D01*
X122926538Y-55578025D01*
X122936693Y-55526973D01*
X123025342Y-55312955D01*
X123068047Y-55249042D01*
X123154041Y-55120343D01*
X123295635Y-54978750D01*
X123311181Y-54959808D01*
X123322732Y-54938197D01*
X123329845Y-54914749D01*
X123332247Y-54890362D01*
X123329845Y-54865976D01*
X123322732Y-54842527D01*
X123311181Y-54820917D01*
X123295636Y-54801974D01*
X123213635Y-54719973D01*
X123196280Y-54694000D01*
X123098616Y-54547835D01*
X123082446Y-54508797D01*
X123019389Y-54356564D01*
X122979000Y-54153516D01*
X122979000Y-53946484D01*
X123019389Y-53743436D01*
X123098615Y-53552167D01*
X123213635Y-53380027D01*
X123360027Y-53233635D01*
X123516623Y-53129001D01*
X123532165Y-53118616D01*
X123571898Y-53102158D01*
X123723436Y-53039389D01*
X123926484Y-52999000D01*
X124133516Y-52999000D01*
X124336564Y-53039389D01*
X124336564Y-53039389D01*
G37*
G36*
X219509060Y-54709064D02*
G01*
X219660527Y-54739193D01*
X219874545Y-54827842D01*
X219937793Y-54870103D01*
X220067154Y-54956539D01*
X220230961Y-55120346D01*
X220316758Y-55248751D01*
X220359658Y-55312955D01*
X220448307Y-55526973D01*
X220458462Y-55578025D01*
X220488712Y-55730100D01*
X220493500Y-55754174D01*
X220493500Y-55985826D01*
X220448307Y-56213027D01*
X220359658Y-56427045D01*
X220344954Y-56449051D01*
X220230961Y-56619654D01*
X220067154Y-56783461D01*
X219938749Y-56869258D01*
X219874545Y-56912158D01*
X219660527Y-57000807D01*
X219509060Y-57030936D01*
X219433327Y-57046000D01*
X219201673Y-57046000D01*
X219125940Y-57030936D01*
X218974473Y-57000807D01*
X218760455Y-56912158D01*
X218696251Y-56869258D01*
X218567846Y-56783461D01*
X218404039Y-56619654D01*
X218290046Y-56449051D01*
X218275342Y-56427045D01*
X218186693Y-56213027D01*
X218141500Y-55985826D01*
X218141500Y-55754174D01*
X218146289Y-55730100D01*
X218176538Y-55578025D01*
X218186693Y-55526973D01*
X218275342Y-55312955D01*
X218318242Y-55248751D01*
X218404039Y-55120346D01*
X218567846Y-54956539D01*
X218697207Y-54870103D01*
X218760455Y-54827842D01*
X218974473Y-54739193D01*
X219125940Y-54709064D01*
X219201673Y-54694000D01*
X219433327Y-54694000D01*
X219509060Y-54709064D01*
X219509060Y-54709064D01*
G37*
G36*
X198323974Y-52633684D02*
G01*
X198541974Y-52723983D01*
X198696123Y-52787833D01*
X199031048Y-53011623D01*
X199315877Y-53296452D01*
X199539667Y-53631377D01*
X199572062Y-53709586D01*
X199693816Y-54003526D01*
X199772400Y-54398594D01*
X199772400Y-54801406D01*
X199693816Y-55196474D01*
X199642951Y-55319272D01*
X199539667Y-55568623D01*
X199315877Y-55903548D01*
X199031048Y-56188377D01*
X198696123Y-56412167D01*
X198552996Y-56471452D01*
X198323974Y-56566316D01*
X197928906Y-56644900D01*
X197526094Y-56644900D01*
X197131026Y-56566316D01*
X196902004Y-56471452D01*
X196758877Y-56412167D01*
X196423952Y-56188377D01*
X196139123Y-55903548D01*
X195915333Y-55568623D01*
X195812049Y-55319272D01*
X195761184Y-55196474D01*
X195682600Y-54801406D01*
X195682600Y-54398594D01*
X195761184Y-54003526D01*
X195882938Y-53709586D01*
X195915333Y-53631377D01*
X196139123Y-53296452D01*
X196423952Y-53011623D01*
X196758877Y-52787833D01*
X196913026Y-52723983D01*
X197131026Y-52633684D01*
X197526094Y-52555100D01*
X197928906Y-52555100D01*
X198323974Y-52633684D01*
X198323974Y-52633684D01*
G37*
G36*
X160223974Y-52633684D02*
G01*
X160441974Y-52723983D01*
X160596123Y-52787833D01*
X160931048Y-53011623D01*
X161215877Y-53296452D01*
X161439667Y-53631377D01*
X161472062Y-53709586D01*
X161593816Y-54003526D01*
X161672400Y-54398594D01*
X161672400Y-54801406D01*
X161593816Y-55196474D01*
X161542951Y-55319272D01*
X161439667Y-55568623D01*
X161215877Y-55903548D01*
X160931048Y-56188377D01*
X160596123Y-56412167D01*
X160452996Y-56471452D01*
X160223974Y-56566316D01*
X159828906Y-56644900D01*
X159426094Y-56644900D01*
X159031026Y-56566316D01*
X158802004Y-56471452D01*
X158658877Y-56412167D01*
X158323952Y-56188377D01*
X158039123Y-55903548D01*
X157815333Y-55568623D01*
X157712049Y-55319272D01*
X157661184Y-55196474D01*
X157582600Y-54801406D01*
X157582600Y-54398594D01*
X157661184Y-54003526D01*
X157782938Y-53709586D01*
X157815333Y-53631377D01*
X158039123Y-53296452D01*
X158323952Y-53011623D01*
X158658877Y-52787833D01*
X158813026Y-52723983D01*
X159031026Y-52633684D01*
X159426094Y-52555100D01*
X159828906Y-52555100D01*
X160223974Y-52633684D01*
X160223974Y-52633684D01*
G37*
G36*
X109445922Y-55725949D02*
G01*
X109445924Y-55725950D01*
X109445925Y-55725950D01*
X109514353Y-55754293D01*
X109575936Y-55795442D01*
X109628308Y-55847814D01*
X109669457Y-55909397D01*
X109690204Y-55959487D01*
X109697801Y-55977828D01*
X109699159Y-55984656D01*
X109712250Y-56050467D01*
X109712250Y-56124533D01*
X109697800Y-56197175D01*
X109669457Y-56265603D01*
X109628308Y-56327186D01*
X109575936Y-56379558D01*
X109514353Y-56420707D01*
X109445925Y-56449050D01*
X109445924Y-56449050D01*
X109445922Y-56449051D01*
X109373284Y-56463500D01*
X109299216Y-56463500D01*
X109226578Y-56449051D01*
X109226576Y-56449050D01*
X109226575Y-56449050D01*
X109158147Y-56420707D01*
X109096564Y-56379558D01*
X109044192Y-56327186D01*
X109003043Y-56265603D01*
X108974700Y-56197175D01*
X108960250Y-56124533D01*
X108960250Y-56050467D01*
X108973341Y-55984656D01*
X108974699Y-55977828D01*
X108982296Y-55959487D01*
X109003043Y-55909397D01*
X109044192Y-55847814D01*
X109096564Y-55795442D01*
X109158147Y-55754293D01*
X109226575Y-55725950D01*
X109226576Y-55725950D01*
X109226578Y-55725949D01*
X109299216Y-55711500D01*
X109373284Y-55711500D01*
X109445922Y-55725949D01*
X109445922Y-55725949D01*
G37*
G36*
X103665922Y-55725949D02*
G01*
X103665924Y-55725950D01*
X103665925Y-55725950D01*
X103734353Y-55754293D01*
X103795936Y-55795442D01*
X103848308Y-55847814D01*
X103889457Y-55909397D01*
X103910204Y-55959487D01*
X103917801Y-55977828D01*
X103919159Y-55984656D01*
X103932250Y-56050467D01*
X103932250Y-56124533D01*
X103917800Y-56197175D01*
X103889457Y-56265603D01*
X103848308Y-56327186D01*
X103795936Y-56379558D01*
X103734353Y-56420707D01*
X103665925Y-56449050D01*
X103665924Y-56449050D01*
X103665922Y-56449051D01*
X103593284Y-56463500D01*
X103519216Y-56463500D01*
X103446578Y-56449051D01*
X103446576Y-56449050D01*
X103446575Y-56449050D01*
X103378147Y-56420707D01*
X103316564Y-56379558D01*
X103264192Y-56327186D01*
X103223043Y-56265603D01*
X103194700Y-56197175D01*
X103180250Y-56124533D01*
X103180250Y-56050467D01*
X103193341Y-55984656D01*
X103194699Y-55977828D01*
X103202296Y-55959487D01*
X103223043Y-55909397D01*
X103264192Y-55847814D01*
X103316564Y-55795442D01*
X103378147Y-55754293D01*
X103446575Y-55725950D01*
X103446576Y-55725950D01*
X103446578Y-55725949D01*
X103519216Y-55711500D01*
X103593284Y-55711500D01*
X103665922Y-55725949D01*
X103665922Y-55725949D01*
G37*
G36*
X136959060Y-54074064D02*
G01*
X137110527Y-54104193D01*
X137324545Y-54192842D01*
X137324546Y-54192843D01*
X137517154Y-54321539D01*
X137680961Y-54485346D01*
X137756251Y-54598026D01*
X137809658Y-54677955D01*
X137898307Y-54891973D01*
X137908369Y-54942560D01*
X137943500Y-55119173D01*
X137943500Y-55350827D01*
X137942149Y-55357617D01*
X137898307Y-55578027D01*
X137809658Y-55792045D01*
X137809657Y-55792046D01*
X137680961Y-55984654D01*
X137517154Y-56148461D01*
X137388749Y-56234258D01*
X137324545Y-56277158D01*
X137110527Y-56365807D01*
X136959060Y-56395936D01*
X136883327Y-56411000D01*
X136651673Y-56411000D01*
X136575940Y-56395936D01*
X136424473Y-56365807D01*
X136210455Y-56277158D01*
X136146251Y-56234258D01*
X136017846Y-56148461D01*
X135854039Y-55984654D01*
X135725343Y-55792046D01*
X135725342Y-55792045D01*
X135636693Y-55578027D01*
X135592851Y-55357617D01*
X135591500Y-55350827D01*
X135591500Y-55119173D01*
X135626631Y-54942560D01*
X135636693Y-54891973D01*
X135725342Y-54677955D01*
X135778749Y-54598026D01*
X135854039Y-54485346D01*
X136017846Y-54321539D01*
X136210454Y-54192843D01*
X136210455Y-54192842D01*
X136424473Y-54104193D01*
X136575940Y-54074064D01*
X136651673Y-54059000D01*
X136883327Y-54059000D01*
X136959060Y-54074064D01*
X136959060Y-54074064D01*
G37*
G36*
X93077618Y-53988420D02*
G01*
X93168404Y-54015960D01*
X93200336Y-54025646D01*
X93313425Y-54086094D01*
X93412554Y-54167446D01*
X93493906Y-54266575D01*
X93554354Y-54379664D01*
X93564040Y-54411596D01*
X93591580Y-54502382D01*
X93601000Y-54598027D01*
X93601000Y-55261973D01*
X93591580Y-55357618D01*
X93572471Y-55420611D01*
X93554354Y-55480336D01*
X93493906Y-55593425D01*
X93412554Y-55692553D01*
X93313424Y-55773906D01*
X93200335Y-55834354D01*
X93168403Y-55844040D01*
X93077617Y-55871580D01*
X92950000Y-55884149D01*
X92822382Y-55871580D01*
X92731596Y-55844040D01*
X92699664Y-55834354D01*
X92586575Y-55773906D01*
X92487447Y-55692554D01*
X92406094Y-55593424D01*
X92345646Y-55480335D01*
X92327529Y-55420611D01*
X92308420Y-55357617D01*
X92299000Y-55261972D01*
X92299000Y-54598027D01*
X92308420Y-54502382D01*
X92333237Y-54420573D01*
X92345645Y-54379667D01*
X92406096Y-54266573D01*
X92487447Y-54167446D01*
X92586576Y-54086094D01*
X92699665Y-54025646D01*
X92731597Y-54015960D01*
X92822383Y-53988420D01*
X92950000Y-53975851D01*
X93077618Y-53988420D01*
X93077618Y-53988420D01*
G37*
G36*
X203077604Y-53709585D02*
G01*
X203246126Y-53779389D01*
X203397791Y-53880728D01*
X203526772Y-54009709D01*
X203628111Y-54161374D01*
X203697915Y-54329896D01*
X203733500Y-54508797D01*
X203733500Y-54691203D01*
X203697915Y-54870104D01*
X203628111Y-55038626D01*
X203526772Y-55190291D01*
X203397791Y-55319272D01*
X203246126Y-55420611D01*
X203077604Y-55490415D01*
X202898703Y-55526000D01*
X202716297Y-55526000D01*
X202537396Y-55490415D01*
X202368874Y-55420611D01*
X202217209Y-55319272D01*
X202088228Y-55190291D01*
X201986889Y-55038626D01*
X201917085Y-54870104D01*
X201881500Y-54691203D01*
X201881500Y-54508797D01*
X201917085Y-54329896D01*
X201986889Y-54161374D01*
X202088228Y-54009709D01*
X202217209Y-53880728D01*
X202368874Y-53779389D01*
X202537396Y-53709585D01*
X202716297Y-53674000D01*
X202898703Y-53674000D01*
X203077604Y-53709585D01*
X203077604Y-53709585D01*
G37*
G36*
X192917604Y-53709585D02*
G01*
X193086126Y-53779389D01*
X193237791Y-53880728D01*
X193366772Y-54009709D01*
X193468111Y-54161374D01*
X193537915Y-54329896D01*
X193573500Y-54508797D01*
X193573500Y-54691203D01*
X193537915Y-54870104D01*
X193468111Y-55038626D01*
X193366772Y-55190291D01*
X193237791Y-55319272D01*
X193086126Y-55420611D01*
X192917604Y-55490415D01*
X192738703Y-55526000D01*
X192556297Y-55526000D01*
X192377396Y-55490415D01*
X192208874Y-55420611D01*
X192057209Y-55319272D01*
X191928228Y-55190291D01*
X191826889Y-55038626D01*
X191757085Y-54870104D01*
X191721500Y-54691203D01*
X191721500Y-54508797D01*
X191757085Y-54329896D01*
X191826889Y-54161374D01*
X191928228Y-54009709D01*
X192057209Y-53880728D01*
X192208874Y-53779389D01*
X192377396Y-53709585D01*
X192556297Y-53674000D01*
X192738703Y-53674000D01*
X192917604Y-53709585D01*
X192917604Y-53709585D01*
G37*
G36*
X164977604Y-53709585D02*
G01*
X165146126Y-53779389D01*
X165297791Y-53880728D01*
X165426772Y-54009709D01*
X165528111Y-54161374D01*
X165597915Y-54329896D01*
X165633500Y-54508797D01*
X165633500Y-54691203D01*
X165597915Y-54870104D01*
X165528111Y-55038626D01*
X165426772Y-55190291D01*
X165297791Y-55319272D01*
X165146126Y-55420611D01*
X164977604Y-55490415D01*
X164798703Y-55526000D01*
X164616297Y-55526000D01*
X164437396Y-55490415D01*
X164268874Y-55420611D01*
X164117209Y-55319272D01*
X163988228Y-55190291D01*
X163886889Y-55038626D01*
X163817085Y-54870104D01*
X163781500Y-54691203D01*
X163781500Y-54508797D01*
X163817085Y-54329896D01*
X163886889Y-54161374D01*
X163988228Y-54009709D01*
X164117209Y-53880728D01*
X164268874Y-53779389D01*
X164437396Y-53709585D01*
X164616297Y-53674000D01*
X164798703Y-53674000D01*
X164977604Y-53709585D01*
X164977604Y-53709585D01*
G37*
G36*
X154817604Y-53709585D02*
G01*
X154986126Y-53779389D01*
X155137791Y-53880728D01*
X155266772Y-54009709D01*
X155368111Y-54161374D01*
X155437915Y-54329896D01*
X155473500Y-54508797D01*
X155473500Y-54691203D01*
X155437915Y-54870104D01*
X155368111Y-55038626D01*
X155266772Y-55190291D01*
X155137791Y-55319272D01*
X154986126Y-55420611D01*
X154817604Y-55490415D01*
X154638703Y-55526000D01*
X154456297Y-55526000D01*
X154277396Y-55490415D01*
X154108874Y-55420611D01*
X153957209Y-55319272D01*
X153828228Y-55190291D01*
X153726889Y-55038626D01*
X153657085Y-54870104D01*
X153621500Y-54691203D01*
X153621500Y-54508797D01*
X153657085Y-54329896D01*
X153726889Y-54161374D01*
X153828228Y-54009709D01*
X153957209Y-53880728D01*
X154108874Y-53779389D01*
X154277396Y-53709585D01*
X154456297Y-53674000D01*
X154638703Y-53674000D01*
X154817604Y-53709585D01*
X154817604Y-53709585D01*
G37*
G36*
X119336564Y-53039389D02*
G01*
X119488102Y-53102158D01*
X119527835Y-53118616D01*
X119543377Y-53129001D01*
X119699973Y-53233635D01*
X119846365Y-53380027D01*
X119961385Y-53552167D01*
X120040611Y-53743436D01*
X120081000Y-53946484D01*
X120081000Y-54153516D01*
X120040611Y-54356564D01*
X119977554Y-54508797D01*
X119961384Y-54547835D01*
X119846365Y-54719973D01*
X119699973Y-54866365D01*
X119527835Y-54981384D01*
X119527834Y-54981385D01*
X119527833Y-54981385D01*
X119336564Y-55060611D01*
X119133516Y-55101000D01*
X118926484Y-55101000D01*
X118723436Y-55060611D01*
X118532167Y-54981385D01*
X118532166Y-54981385D01*
X118532165Y-54981384D01*
X118360027Y-54866365D01*
X118213635Y-54719973D01*
X118098616Y-54547835D01*
X118082446Y-54508797D01*
X118019389Y-54356564D01*
X117979000Y-54153516D01*
X117979000Y-53946484D01*
X118019389Y-53743436D01*
X118098615Y-53552167D01*
X118213635Y-53380027D01*
X118360027Y-53233635D01*
X118516623Y-53129001D01*
X118532165Y-53118616D01*
X118571898Y-53102158D01*
X118723436Y-53039389D01*
X118926484Y-52999000D01*
X119133516Y-52999000D01*
X119336564Y-53039389D01*
X119336564Y-53039389D01*
G37*
G36*
X95483642Y-52559781D02*
G01*
X95621891Y-52617046D01*
X95629416Y-52620163D01*
X95760608Y-52707822D01*
X95872178Y-52819392D01*
X95959031Y-52949378D01*
X95959838Y-52950586D01*
X96020219Y-53096358D01*
X96051000Y-53251107D01*
X96051000Y-53408893D01*
X96020219Y-53563642D01*
X95974507Y-53674000D01*
X95959837Y-53709416D01*
X95872178Y-53840608D01*
X95760608Y-53952178D01*
X95629416Y-54039837D01*
X95629415Y-54039838D01*
X95629414Y-54039838D01*
X95483642Y-54100219D01*
X95328893Y-54131000D01*
X95171107Y-54131000D01*
X95016358Y-54100219D01*
X94870586Y-54039838D01*
X94870585Y-54039838D01*
X94870584Y-54039837D01*
X94739392Y-53952178D01*
X94627822Y-53840608D01*
X94540163Y-53709416D01*
X94525493Y-53674000D01*
X94479781Y-53563642D01*
X94449000Y-53408893D01*
X94449000Y-53251107D01*
X94479781Y-53096358D01*
X94540162Y-52950586D01*
X94540969Y-52949378D01*
X94627822Y-52819392D01*
X94739392Y-52707822D01*
X94870584Y-52620163D01*
X94878109Y-52617046D01*
X95016358Y-52559781D01*
X95171107Y-52529000D01*
X95328893Y-52529000D01*
X95483642Y-52559781D01*
X95483642Y-52559781D01*
G37*
G36*
X143309060Y-51534064D02*
G01*
X143460527Y-51564193D01*
X143674545Y-51652842D01*
X143674546Y-51652843D01*
X143867154Y-51781539D01*
X144030961Y-51945346D01*
X144087182Y-52029487D01*
X144159658Y-52137955D01*
X144248307Y-52351973D01*
X144258462Y-52403025D01*
X144288712Y-52555100D01*
X144293500Y-52579174D01*
X144293500Y-52810826D01*
X144248307Y-53038027D01*
X144159658Y-53252045D01*
X144159657Y-53252046D01*
X144030961Y-53444654D01*
X143867154Y-53608461D01*
X143738749Y-53694258D01*
X143674545Y-53737158D01*
X143460527Y-53825807D01*
X143309060Y-53855936D01*
X143233327Y-53871000D01*
X143001673Y-53871000D01*
X142925940Y-53855936D01*
X142774473Y-53825807D01*
X142560455Y-53737158D01*
X142496251Y-53694258D01*
X142367846Y-53608461D01*
X142204039Y-53444654D01*
X142075343Y-53252046D01*
X142075342Y-53252045D01*
X141986693Y-53038027D01*
X141941500Y-52810826D01*
X141941500Y-52579174D01*
X141946289Y-52555100D01*
X141976538Y-52403025D01*
X141986693Y-52351973D01*
X142075342Y-52137955D01*
X142147818Y-52029487D01*
X142204039Y-51945346D01*
X142367846Y-51781539D01*
X142560454Y-51652843D01*
X142560455Y-51652842D01*
X142774473Y-51564193D01*
X142925940Y-51534064D01*
X143001673Y-51519000D01*
X143233327Y-51519000D01*
X143309060Y-51534064D01*
X143309060Y-51534064D01*
G37*
G36*
X179273974Y-49458684D02*
G01*
X179491974Y-49548983D01*
X179646123Y-49612833D01*
X179981048Y-49836623D01*
X180265877Y-50121452D01*
X180489667Y-50456377D01*
X180522062Y-50534586D01*
X180643816Y-50828526D01*
X180722400Y-51223594D01*
X180722400Y-51626406D01*
X180643816Y-52021474D01*
X180592951Y-52144272D01*
X180489667Y-52393623D01*
X180265877Y-52728548D01*
X179981048Y-53013377D01*
X179646123Y-53237167D01*
X179541442Y-53280527D01*
X179273974Y-53391316D01*
X178878906Y-53469900D01*
X178476094Y-53469900D01*
X178081026Y-53391316D01*
X177813558Y-53280527D01*
X177708877Y-53237167D01*
X177373952Y-53013377D01*
X177089123Y-52728548D01*
X176865333Y-52393623D01*
X176762049Y-52144272D01*
X176711184Y-52021474D01*
X176632600Y-51626406D01*
X176632600Y-51223594D01*
X176711184Y-50828526D01*
X176832938Y-50534586D01*
X176865333Y-50456377D01*
X177089123Y-50121452D01*
X177373952Y-49836623D01*
X177708877Y-49612833D01*
X177863026Y-49548983D01*
X178081026Y-49458684D01*
X178476094Y-49380100D01*
X178878906Y-49380100D01*
X179273974Y-49458684D01*
X179273974Y-49458684D01*
G37*
G36*
X102234265Y-51594473D02*
G01*
X102338129Y-51625979D01*
X102365305Y-51640505D01*
X102433850Y-51677143D01*
X102517751Y-51745999D01*
X102586607Y-51829900D01*
X102623245Y-51898445D01*
X102637771Y-51925621D01*
X102669277Y-52029485D01*
X102677250Y-52110433D01*
X102677250Y-52764567D01*
X102669277Y-52845515D01*
X102637771Y-52949379D01*
X102614237Y-52993407D01*
X102589659Y-53039390D01*
X102586606Y-53045100D01*
X102517751Y-53129001D01*
X102448895Y-53185509D01*
X102433849Y-53197857D01*
X102382157Y-53225487D01*
X102338128Y-53249021D01*
X102234264Y-53280527D01*
X102126250Y-53291166D01*
X102018235Y-53280527D01*
X101914371Y-53249021D01*
X101870343Y-53225487D01*
X101818651Y-53197857D01*
X101805893Y-53187387D01*
X101734749Y-53129001D01*
X101665894Y-53045100D01*
X101662842Y-53039390D01*
X101615374Y-52950584D01*
X101614729Y-52949378D01*
X101583223Y-52845514D01*
X101575250Y-52764566D01*
X101575250Y-52110433D01*
X101583223Y-52029485D01*
X101614730Y-51925621D01*
X101614732Y-51925618D01*
X101665895Y-51829899D01*
X101734750Y-51745999D01*
X101818651Y-51677143D01*
X101887196Y-51640505D01*
X101914372Y-51625979D01*
X102018236Y-51594473D01*
X102126250Y-51583834D01*
X102234265Y-51594473D01*
X102234265Y-51594473D01*
G37*
G36*
X110874265Y-51594473D02*
G01*
X110978129Y-51625979D01*
X111005305Y-51640505D01*
X111073850Y-51677143D01*
X111157751Y-51745999D01*
X111226607Y-51829900D01*
X111263245Y-51898445D01*
X111277771Y-51925621D01*
X111309277Y-52029485D01*
X111317250Y-52110433D01*
X111317250Y-52764567D01*
X111309277Y-52845515D01*
X111277771Y-52949379D01*
X111254237Y-52993407D01*
X111229659Y-53039390D01*
X111226606Y-53045100D01*
X111157751Y-53129001D01*
X111088895Y-53185509D01*
X111073849Y-53197857D01*
X111022157Y-53225487D01*
X110978128Y-53249021D01*
X110874264Y-53280527D01*
X110766250Y-53291166D01*
X110658235Y-53280527D01*
X110554371Y-53249021D01*
X110510343Y-53225487D01*
X110458651Y-53197857D01*
X110445893Y-53187387D01*
X110374749Y-53129001D01*
X110305894Y-53045100D01*
X110302842Y-53039390D01*
X110255374Y-52950584D01*
X110254729Y-52949378D01*
X110223223Y-52845514D01*
X110215250Y-52764566D01*
X110215250Y-52110433D01*
X110223223Y-52029485D01*
X110254730Y-51925621D01*
X110254732Y-51925618D01*
X110305895Y-51829899D01*
X110374750Y-51745999D01*
X110458651Y-51677143D01*
X110527196Y-51640505D01*
X110554372Y-51625979D01*
X110658236Y-51594473D01*
X110766250Y-51583834D01*
X110874265Y-51594473D01*
X110874265Y-51594473D01*
G37*
G36*
X156009060Y-50899064D02*
G01*
X156160527Y-50929193D01*
X156374545Y-51017842D01*
X156374546Y-51017843D01*
X156567154Y-51146539D01*
X156730961Y-51310346D01*
X156746630Y-51333797D01*
X156859658Y-51502955D01*
X156948307Y-51716973D01*
X156993500Y-51944174D01*
X156993500Y-52175826D01*
X156948307Y-52403027D01*
X156859658Y-52617045D01*
X156848540Y-52633684D01*
X156730961Y-52809654D01*
X156567154Y-52973461D01*
X156468485Y-53039389D01*
X156374545Y-53102158D01*
X156160527Y-53190807D01*
X156009060Y-53220936D01*
X155933327Y-53236000D01*
X155701673Y-53236000D01*
X155625940Y-53220936D01*
X155474473Y-53190807D01*
X155260455Y-53102158D01*
X155166515Y-53039389D01*
X155067846Y-52973461D01*
X154904039Y-52809654D01*
X154786460Y-52633684D01*
X154775342Y-52617045D01*
X154686693Y-52403027D01*
X154641500Y-52175826D01*
X154641500Y-51944174D01*
X154686693Y-51716973D01*
X154775342Y-51502955D01*
X154888370Y-51333797D01*
X154904039Y-51310346D01*
X155067846Y-51146539D01*
X155260454Y-51017843D01*
X155260455Y-51017842D01*
X155474473Y-50929193D01*
X155625940Y-50899064D01*
X155701673Y-50884000D01*
X155933327Y-50884000D01*
X156009060Y-50899064D01*
X156009060Y-50899064D01*
G37*
G36*
X194109060Y-50899064D02*
G01*
X194260527Y-50929193D01*
X194474545Y-51017842D01*
X194474546Y-51017843D01*
X194667154Y-51146539D01*
X194830961Y-51310346D01*
X194846630Y-51333797D01*
X194959658Y-51502955D01*
X195048307Y-51716973D01*
X195093500Y-51944174D01*
X195093500Y-52175826D01*
X195048307Y-52403027D01*
X194959658Y-52617045D01*
X194948540Y-52633684D01*
X194830961Y-52809654D01*
X194667154Y-52973461D01*
X194568485Y-53039389D01*
X194474545Y-53102158D01*
X194260527Y-53190807D01*
X194109060Y-53220936D01*
X194033327Y-53236000D01*
X193801673Y-53236000D01*
X193725940Y-53220936D01*
X193574473Y-53190807D01*
X193360455Y-53102158D01*
X193266515Y-53039389D01*
X193167846Y-52973461D01*
X193004039Y-52809654D01*
X192886460Y-52633684D01*
X192875342Y-52617045D01*
X192786693Y-52403027D01*
X192741500Y-52175826D01*
X192741500Y-51944174D01*
X192786693Y-51716973D01*
X192875342Y-51502955D01*
X192988370Y-51333797D01*
X193004039Y-51310346D01*
X193167846Y-51146539D01*
X193360454Y-51017843D01*
X193360455Y-51017842D01*
X193574473Y-50929193D01*
X193725940Y-50899064D01*
X193801673Y-50884000D01*
X194033327Y-50884000D01*
X194109060Y-50899064D01*
X194109060Y-50899064D01*
G37*
G36*
X173867604Y-50534585D02*
G01*
X174036126Y-50604389D01*
X174187791Y-50705728D01*
X174316772Y-50834709D01*
X174418111Y-50986374D01*
X174487915Y-51154896D01*
X174523500Y-51333797D01*
X174523500Y-51516203D01*
X174487915Y-51695104D01*
X174418111Y-51863626D01*
X174316772Y-52015291D01*
X174187791Y-52144272D01*
X174036126Y-52245611D01*
X173867604Y-52315415D01*
X173688703Y-52351000D01*
X173506297Y-52351000D01*
X173327396Y-52315415D01*
X173158874Y-52245611D01*
X173007209Y-52144272D01*
X172878228Y-52015291D01*
X172776889Y-51863626D01*
X172707085Y-51695104D01*
X172671500Y-51516203D01*
X172671500Y-51333797D01*
X172707085Y-51154896D01*
X172776889Y-50986374D01*
X172878228Y-50834709D01*
X173007209Y-50705728D01*
X173158874Y-50604389D01*
X173327396Y-50534585D01*
X173506297Y-50499000D01*
X173688703Y-50499000D01*
X173867604Y-50534585D01*
X173867604Y-50534585D01*
G37*
G36*
X184027604Y-50534585D02*
G01*
X184196126Y-50604389D01*
X184347791Y-50705728D01*
X184476772Y-50834709D01*
X184578111Y-50986374D01*
X184647915Y-51154896D01*
X184683500Y-51333797D01*
X184683500Y-51516203D01*
X184647915Y-51695104D01*
X184578111Y-51863626D01*
X184476772Y-52015291D01*
X184347791Y-52144272D01*
X184196126Y-52245611D01*
X184027604Y-52315415D01*
X183848703Y-52351000D01*
X183666297Y-52351000D01*
X183487396Y-52315415D01*
X183318874Y-52245611D01*
X183167209Y-52144272D01*
X183038228Y-52015291D01*
X182936889Y-51863626D01*
X182867085Y-51695104D01*
X182831500Y-51516203D01*
X182831500Y-51333797D01*
X182867085Y-51154896D01*
X182936889Y-50986374D01*
X183038228Y-50834709D01*
X183167209Y-50705728D01*
X183318874Y-50604389D01*
X183487396Y-50534585D01*
X183666297Y-50499000D01*
X183848703Y-50499000D01*
X184027604Y-50534585D01*
X184027604Y-50534585D01*
G37*
G36*
X162359060Y-48359064D02*
G01*
X162510527Y-48389193D01*
X162724545Y-48477842D01*
X162724546Y-48477843D01*
X162917154Y-48606539D01*
X163080961Y-48770346D01*
X163166758Y-48898751D01*
X163209658Y-48962955D01*
X163298307Y-49176973D01*
X163298307Y-49176975D01*
X163338712Y-49380100D01*
X163343500Y-49404174D01*
X163343500Y-49635826D01*
X163298307Y-49863027D01*
X163209658Y-50077045D01*
X163209657Y-50077046D01*
X163080961Y-50269654D01*
X162917154Y-50433461D01*
X162788749Y-50519258D01*
X162724545Y-50562158D01*
X162510527Y-50650807D01*
X162359060Y-50680936D01*
X162283327Y-50696000D01*
X162051673Y-50696000D01*
X161975940Y-50680936D01*
X161824473Y-50650807D01*
X161610455Y-50562158D01*
X161546251Y-50519258D01*
X161417846Y-50433461D01*
X161254039Y-50269654D01*
X161125343Y-50077046D01*
X161125342Y-50077045D01*
X161036693Y-49863027D01*
X160991500Y-49635826D01*
X160991500Y-49404174D01*
X160996289Y-49380100D01*
X161036693Y-49176975D01*
X161036693Y-49176973D01*
X161125342Y-48962955D01*
X161168242Y-48898751D01*
X161254039Y-48770346D01*
X161417846Y-48606539D01*
X161610454Y-48477843D01*
X161610455Y-48477842D01*
X161824473Y-48389193D01*
X161975940Y-48359064D01*
X162051673Y-48344000D01*
X162283327Y-48344000D01*
X162359060Y-48359064D01*
X162359060Y-48359064D01*
G37*
G36*
X200459060Y-48359064D02*
G01*
X200610527Y-48389193D01*
X200824545Y-48477842D01*
X200824546Y-48477843D01*
X201017154Y-48606539D01*
X201180961Y-48770346D01*
X201266758Y-48898751D01*
X201309658Y-48962955D01*
X201398307Y-49176973D01*
X201398307Y-49176975D01*
X201438712Y-49380100D01*
X201443500Y-49404174D01*
X201443500Y-49635826D01*
X201398307Y-49863027D01*
X201309658Y-50077045D01*
X201309657Y-50077046D01*
X201180961Y-50269654D01*
X201017154Y-50433461D01*
X200888749Y-50519258D01*
X200824545Y-50562158D01*
X200610527Y-50650807D01*
X200459060Y-50680936D01*
X200383327Y-50696000D01*
X200151673Y-50696000D01*
X200075940Y-50680936D01*
X199924473Y-50650807D01*
X199710455Y-50562158D01*
X199646251Y-50519258D01*
X199517846Y-50433461D01*
X199354039Y-50269654D01*
X199225343Y-50077046D01*
X199225342Y-50077045D01*
X199136693Y-49863027D01*
X199091500Y-49635826D01*
X199091500Y-49404174D01*
X199096289Y-49380100D01*
X199136693Y-49176975D01*
X199136693Y-49176973D01*
X199225342Y-48962955D01*
X199268242Y-48898751D01*
X199354039Y-48770346D01*
X199517846Y-48606539D01*
X199710454Y-48477843D01*
X199710455Y-48477842D01*
X199924473Y-48389193D01*
X200075940Y-48359064D01*
X200151673Y-48344000D01*
X200383327Y-48344000D01*
X200459060Y-48359064D01*
X200459060Y-48359064D01*
G37*
G36*
X175059060Y-47724064D02*
G01*
X175210527Y-47754193D01*
X175424545Y-47842842D01*
X175424546Y-47842843D01*
X175617154Y-47971539D01*
X175780961Y-48135346D01*
X175866758Y-48263751D01*
X175909658Y-48327955D01*
X175998307Y-48541973D01*
X176043500Y-48769174D01*
X176043500Y-49000826D01*
X175998307Y-49228027D01*
X175909658Y-49442045D01*
X175909657Y-49442046D01*
X175780961Y-49634654D01*
X175617154Y-49798461D01*
X175488749Y-49884258D01*
X175424545Y-49927158D01*
X175210527Y-50015807D01*
X175059060Y-50045936D01*
X174983327Y-50061000D01*
X174751673Y-50061000D01*
X174675940Y-50045936D01*
X174524473Y-50015807D01*
X174310455Y-49927158D01*
X174246251Y-49884258D01*
X174117846Y-49798461D01*
X173954039Y-49634654D01*
X173825343Y-49442046D01*
X173825342Y-49442045D01*
X173736693Y-49228027D01*
X173691500Y-49000826D01*
X173691500Y-48769174D01*
X173736693Y-48541973D01*
X173825342Y-48327955D01*
X173868242Y-48263751D01*
X173954039Y-48135346D01*
X174117846Y-47971539D01*
X174310454Y-47842843D01*
X174310455Y-47842842D01*
X174524473Y-47754193D01*
X174675940Y-47724064D01*
X174751673Y-47709000D01*
X174983327Y-47709000D01*
X175059060Y-47724064D01*
X175059060Y-47724064D01*
G37*
G36*
X181409060Y-45184064D02*
G01*
X181560527Y-45214193D01*
X181774545Y-45302842D01*
X181774546Y-45302843D01*
X181967154Y-45431539D01*
X182130961Y-45595346D01*
X182216758Y-45723751D01*
X182259658Y-45787955D01*
X182348307Y-46001973D01*
X182393500Y-46229174D01*
X182393500Y-46460826D01*
X182348307Y-46688027D01*
X182259658Y-46902045D01*
X182259657Y-46902046D01*
X182130961Y-47094654D01*
X181967154Y-47258461D01*
X181838749Y-47344258D01*
X181774545Y-47387158D01*
X181560527Y-47475807D01*
X181409060Y-47505936D01*
X181333327Y-47521000D01*
X181101673Y-47521000D01*
X181025940Y-47505936D01*
X180874473Y-47475807D01*
X180660455Y-47387158D01*
X180596251Y-47344258D01*
X180467846Y-47258461D01*
X180304039Y-47094654D01*
X180175343Y-46902046D01*
X180175342Y-46902045D01*
X180086693Y-46688027D01*
X180041500Y-46460826D01*
X180041500Y-46229174D01*
X180086693Y-46001973D01*
X180175342Y-45787955D01*
X180218242Y-45723751D01*
X180304039Y-45595346D01*
X180467846Y-45431539D01*
X180660454Y-45302843D01*
X180660455Y-45302842D01*
X180874473Y-45214193D01*
X181025940Y-45184064D01*
X181101673Y-45169000D01*
X181333327Y-45169000D01*
X181409060Y-45184064D01*
X181409060Y-45184064D01*
G37*
M02*
