M48
; DRILL file {KiCad (5.1.4-0)} date 2020 December 01, Tuesday 00:50:18
; FORMAT={-:-/ absolute / metric / decimal}
; #@! TF.CreationDate,2020-12-01T00:50:18+01:00
; #@! TF.GenerationSoftware,Kicad,Pcbnew,(5.1.4-0)
; #@! TF.FileFunction,NonPlated,1,2,NPTH
FMAT,2
METRIC
T1C0.650
T2C1.500
T3C1.750
T4C3.200
T5C3.988
%
G90
G05
T1
X103.556Y-56.087
X109.336Y-56.087
T2
X95.25Y-53.33
X95.25Y-60.33
T3
X116.447Y-80.0
X126.607Y-80.0
X117.123Y-143.445
X126.937Y-140.815
X116.447Y-60.95
X126.607Y-60.95
X136.051Y-138.616
X145.989Y-136.504
X135.498Y-57.775
X135.498Y-76.825
X145.657Y-57.775
X154.547Y-92.7
X164.707Y-92.7
X145.657Y-76.825
X155.017Y-134.752
X173.597Y-89.525
X183.757Y-89.525
X154.547Y-73.65
X164.707Y-73.65
X173.597Y-108.575
X183.757Y-108.575
X192.647Y-92.7
X202.808Y-92.7
X154.547Y-54.6
X164.707Y-54.6
X192.647Y-111.75
X202.808Y-111.75
X165.023Y-132.988
X211.697Y-118.1
X221.857Y-118.1
X173.597Y-70.475
X183.757Y-70.475
X173.597Y-51.425
X192.647Y-73.65
X202.808Y-73.65
X115.823Y-124.115
X125.637Y-121.485
X192.647Y-54.6
X145.657Y-114.925
X211.697Y-99.05
X221.857Y-99.05
X135.498Y-114.925
X183.757Y-51.425
X202.808Y-54.6
X211.697Y-80.0
X221.857Y-80.0
X154.547Y-111.75
X164.707Y-111.75
X230.748Y-83.175
X240.907Y-83.175
X126.607Y-99.05
X230.748Y-102.225
X240.907Y-102.225
X116.447Y-99.05
X211.697Y-60.95
X221.857Y-60.95
X230.748Y-121.275
X240.907Y-121.275
X230.748Y-64.125
X240.907Y-64.125
X135.498Y-95.875
X145.657Y-95.875
T4
X226.122Y-61.946
X130.792Y-121.93
X134.895Y-67.333
X226.337Y-114.281
T5
X235.827Y-83.175
X121.527Y-80.0
X122.03Y-142.13
X140.577Y-76.825
X141.02Y-137.56
X159.627Y-73.65
X159.627Y-92.7
X121.527Y-60.95
X140.577Y-95.875
X160.02Y-133.87
X178.677Y-108.575
X178.677Y-89.525
X140.577Y-57.775
X197.727Y-111.75
X197.727Y-92.7
X121.527Y-99.05
X159.627Y-54.6
X178.677Y-70.475
X120.73Y-122.8
X178.677Y-51.425
X216.778Y-118.1
X235.827Y-121.275
X140.577Y-114.925
X216.778Y-99.05
X197.727Y-73.65
X197.727Y-54.6
X216.778Y-80.0
X159.627Y-111.75
X235.827Y-102.225
X216.778Y-60.95
X235.827Y-64.125
T0
M30
