G04 #@! TF.GenerationSoftware,KiCad,Pcbnew,(5.1.4-0)*
G04 #@! TF.CreationDate,2020-12-01T00:50:15+01:00*
G04 #@! TF.ProjectId,stm32split,73746d33-3273-4706-9c69-742e6b696361,rev?*
G04 #@! TF.SameCoordinates,Original*
G04 #@! TF.FileFunction,Copper,L2,Bot*
G04 #@! TF.FilePolarity,Positive*
%FSLAX46Y46*%
G04 Gerber Fmt 4.6, Leading zero omitted, Abs format (unit mm)*
G04 Created by KiCad (PCBNEW (5.1.4-0)) date 2020-12-01 00:50:15*
%MOMM*%
%LPD*%
G04 APERTURE LIST*
%ADD10R,2.000000X2.000000*%
%ADD11C,2.000000*%
%ADD12R,2.000000X3.200000*%
%ADD13O,1.200000X1.800000*%
%ADD14O,1.000000X2.100000*%
%ADD15O,1.000000X1.600000*%
%ADD16C,2.250000*%
%ADD17C,0.800000*%
%ADD18C,0.250000*%
%ADD19C,0.500000*%
%ADD20C,0.254000*%
G04 APERTURE END LIST*
D10*
X119030000Y-68550000D03*
D11*
X121530000Y-68550000D03*
X124030000Y-68550000D03*
D12*
X115930000Y-61050000D03*
X127130000Y-61050000D03*
D11*
X119030000Y-54050000D03*
X124030000Y-54050000D03*
D13*
X97550000Y-63030000D03*
X92950000Y-61930000D03*
X92950000Y-57930000D03*
X92950000Y-54930000D03*
D14*
X110766250Y-56617500D03*
X102126250Y-56617500D03*
D15*
X110766250Y-52437500D03*
X102126250Y-52437500D03*
D16*
X123168651Y-136565696D03*
X117692422Y-140662649D03*
X142448304Y-132062914D03*
X136765162Y-135867649D03*
X161639279Y-128426110D03*
X155826816Y-132030188D03*
X121868651Y-117235696D03*
X116392422Y-121332649D03*
X143117500Y-109845000D03*
X136767500Y-112385000D03*
X162167500Y-106670000D03*
X155817500Y-109210000D03*
X181217500Y-103495000D03*
X174867500Y-106035000D03*
X200267500Y-106670000D03*
X193917500Y-109210000D03*
X219317500Y-113020000D03*
X212967500Y-115560000D03*
X238367500Y-116195000D03*
X232017500Y-118735000D03*
X124067500Y-93970000D03*
X117717500Y-96510000D03*
X143117500Y-90795000D03*
X136767500Y-93335000D03*
X162167500Y-87620000D03*
X155817500Y-90160000D03*
X181217500Y-84445000D03*
X174867500Y-86985000D03*
X200267500Y-87620000D03*
X193917500Y-90160000D03*
X219317500Y-93970000D03*
X212967500Y-96510000D03*
X238367500Y-97145000D03*
X232017500Y-99685000D03*
X124067500Y-74920000D03*
X117717500Y-77460000D03*
X143117500Y-71745000D03*
X136767500Y-74285000D03*
X162167500Y-68570000D03*
X155817500Y-71110000D03*
X181217500Y-65395000D03*
X174867500Y-67935000D03*
X200267500Y-68570000D03*
X193917500Y-71110000D03*
X219317500Y-74920000D03*
X212967500Y-77460000D03*
X238367500Y-78095000D03*
X232017500Y-80635000D03*
X124067500Y-55870000D03*
X117717500Y-58410000D03*
X143117500Y-52695000D03*
X136767500Y-55235000D03*
X162167500Y-49520000D03*
X155817500Y-52060000D03*
X181217500Y-46345000D03*
X174867500Y-48885000D03*
X200267500Y-49520000D03*
X193917500Y-52060000D03*
X219317500Y-55870000D03*
X212967500Y-58410000D03*
X238367500Y-59045000D03*
X232017500Y-61585000D03*
D17*
X105410000Y-84680000D03*
X104290000Y-84630000D03*
X108555204Y-86298125D03*
X105725000Y-100575000D03*
X131429929Y-93970000D03*
X103350000Y-72870000D03*
X103456250Y-73897137D03*
X103956250Y-74768353D03*
X104456250Y-75635428D03*
X104956250Y-76553168D03*
X109197003Y-85531250D03*
X105717500Y-108512500D03*
X110065158Y-85031250D03*
X105710000Y-116450000D03*
X110962174Y-84531250D03*
X105707500Y-124387500D03*
X111822439Y-84010000D03*
X105705000Y-132325000D03*
X105459810Y-77417130D03*
X105956250Y-78286338D03*
X117160000Y-68690000D03*
X108910000Y-60310000D03*
X106446250Y-60559996D03*
X104000000Y-60310000D03*
X106470000Y-63699998D03*
X110480000Y-64620000D03*
X106510000Y-94160000D03*
X99240000Y-78140000D03*
X100731250Y-86731250D03*
X104730000Y-87860000D03*
X106740000Y-66430000D03*
X107190000Y-70150000D03*
X98320000Y-81240000D03*
X97430000Y-71190000D03*
X96837500Y-80962500D03*
X96837500Y-88106250D03*
X100293864Y-92361980D03*
X107156250Y-92075000D03*
X109537500Y-83081250D03*
D18*
X117167501Y-82356249D02*
X117363535Y-82365879D01*
X117363535Y-82365879D02*
X117557681Y-82394678D01*
X117557681Y-82394678D02*
X117748070Y-82442368D01*
X117748070Y-82442368D02*
X117932867Y-82508489D01*
X117932867Y-82508489D02*
X118110294Y-82592406D01*
X118110294Y-82592406D02*
X118278641Y-82693309D01*
X118278641Y-82693309D02*
X118436287Y-82810228D01*
X118436287Y-82810228D02*
X118581714Y-82942035D01*
X118581714Y-82942035D02*
X118713521Y-83087462D01*
X118713521Y-83087462D02*
X118830440Y-83245108D01*
X118830440Y-83245108D02*
X118931343Y-83413455D01*
X118931343Y-83413455D02*
X119015260Y-83590882D01*
X119015260Y-83590882D02*
X119081381Y-83775679D01*
X119081381Y-83775679D02*
X119129071Y-83966068D01*
X119129071Y-83966068D02*
X119157870Y-84160214D01*
X119157870Y-84160214D02*
X119167501Y-84356249D01*
X121167501Y-86826249D02*
X120971466Y-86816618D01*
X120971466Y-86816618D02*
X120777320Y-86787819D01*
X120777320Y-86787819D02*
X120586931Y-86740129D01*
X120586931Y-86740129D02*
X120402134Y-86674008D01*
X120402134Y-86674008D02*
X120224707Y-86590091D01*
X120224707Y-86590091D02*
X120056360Y-86489188D01*
X120056360Y-86489188D02*
X119898714Y-86372269D01*
X119898714Y-86372269D02*
X119753287Y-86240462D01*
X119753287Y-86240462D02*
X119621480Y-86095035D01*
X119621480Y-86095035D02*
X119504561Y-85937389D01*
X119504561Y-85937389D02*
X119403658Y-85769042D01*
X119403658Y-85769042D02*
X119319741Y-85591615D01*
X119319741Y-85591615D02*
X119253620Y-85406818D01*
X119253620Y-85406818D02*
X119205930Y-85216429D01*
X119205930Y-85216429D02*
X119177131Y-85022283D01*
X119177131Y-85022283D02*
X119167501Y-84826249D01*
X119167501Y-84826249D02*
X119167501Y-84356249D01*
X130100000Y-84826249D02*
X130090369Y-85022283D01*
X130090369Y-85022283D02*
X130061570Y-85216429D01*
X130061570Y-85216429D02*
X130013880Y-85406818D01*
X130013880Y-85406818D02*
X129947759Y-85591615D01*
X129947759Y-85591615D02*
X129863842Y-85769042D01*
X129863842Y-85769042D02*
X129762939Y-85937389D01*
X129762939Y-85937389D02*
X129646020Y-86095035D01*
X129646020Y-86095035D02*
X129514213Y-86240462D01*
X129514213Y-86240462D02*
X129368786Y-86372269D01*
X129368786Y-86372269D02*
X129211140Y-86489188D01*
X129211140Y-86489188D02*
X129042793Y-86590091D01*
X129042793Y-86590091D02*
X128865366Y-86674008D01*
X128865366Y-86674008D02*
X128680569Y-86740129D01*
X128680569Y-86740129D02*
X128490180Y-86787819D01*
X128490180Y-86787819D02*
X128296034Y-86816618D01*
X128296034Y-86816618D02*
X128100000Y-86826249D01*
X128100000Y-86826249D02*
X121167501Y-86826249D01*
X128100000Y-68550000D02*
X124030000Y-68550000D01*
X128100000Y-68550000D02*
X128296034Y-68559630D01*
X128296034Y-68559630D02*
X128490180Y-68588429D01*
X128490180Y-68588429D02*
X128680569Y-68636119D01*
X128680569Y-68636119D02*
X128865366Y-68702240D01*
X128865366Y-68702240D02*
X129042793Y-68786157D01*
X129042793Y-68786157D02*
X129211140Y-68887060D01*
X129211140Y-68887060D02*
X129368786Y-69003979D01*
X129368786Y-69003979D02*
X129514213Y-69135786D01*
X129514213Y-69135786D02*
X129646020Y-69281213D01*
X129646020Y-69281213D02*
X129762939Y-69438859D01*
X129762939Y-69438859D02*
X129863842Y-69607206D01*
X129863842Y-69607206D02*
X129947759Y-69784633D01*
X129947759Y-69784633D02*
X130013880Y-69969430D01*
X130013880Y-69969430D02*
X130061570Y-70159819D01*
X130061570Y-70159819D02*
X130090369Y-70353965D01*
X130090369Y-70353965D02*
X130100000Y-70550000D01*
X130100000Y-70550000D02*
X130100000Y-84826249D01*
X117167501Y-82356249D02*
X107733751Y-82356249D01*
X105410000Y-84680000D02*
X107733751Y-82356249D01*
X119030000Y-68550000D02*
X119030000Y-69800000D01*
X119030000Y-69800000D02*
X119167501Y-69937501D01*
X117167501Y-81906239D02*
X117363535Y-81896608D01*
X117363535Y-81896608D02*
X117557681Y-81867809D01*
X117557681Y-81867809D02*
X117748070Y-81820119D01*
X117748070Y-81820119D02*
X117932867Y-81753998D01*
X117932867Y-81753998D02*
X118110294Y-81670081D01*
X118110294Y-81670081D02*
X118278641Y-81569178D01*
X118278641Y-81569178D02*
X118436287Y-81452259D01*
X118436287Y-81452259D02*
X118581714Y-81320452D01*
X118581714Y-81320452D02*
X118713521Y-81175025D01*
X118713521Y-81175025D02*
X118830440Y-81017379D01*
X118830440Y-81017379D02*
X118931343Y-80849032D01*
X118931343Y-80849032D02*
X119015260Y-80671605D01*
X119015260Y-80671605D02*
X119081381Y-80486808D01*
X119081381Y-80486808D02*
X119129071Y-80296419D01*
X119129071Y-80296419D02*
X119157870Y-80102273D01*
X119157870Y-80102273D02*
X119167501Y-79906239D01*
X119167501Y-79906239D02*
X119167501Y-69937501D01*
X117167501Y-81906239D02*
X107013761Y-81906239D01*
X104290000Y-84630000D02*
X107013761Y-81906239D01*
X107435204Y-98864796D02*
X105725000Y-100575000D01*
X108555204Y-97744796D02*
X105725000Y-100575000D01*
X108555204Y-86298125D02*
X108555204Y-97744796D01*
X131429929Y-93970000D02*
X126490000Y-93970000D01*
X126490000Y-93970000D02*
X124067500Y-93970000D01*
X204940010Y-51687490D02*
X204940010Y-49078980D01*
X204949641Y-51883524D02*
X204940010Y-51687490D01*
X204978440Y-52077670D02*
X204949641Y-51883524D01*
X205026130Y-52268059D02*
X204978440Y-52077670D01*
X205092251Y-52452856D02*
X205026130Y-52268059D01*
X205176168Y-52630283D02*
X205092251Y-52452856D01*
X205277071Y-52798630D02*
X205176168Y-52630283D01*
X205393990Y-52956276D02*
X205277071Y-52798630D01*
X205525797Y-53101703D02*
X205393990Y-52956276D01*
X205671224Y-53233510D02*
X205525797Y-53101703D01*
X205828870Y-53350429D02*
X205671224Y-53233510D01*
X205997217Y-53451332D02*
X205828870Y-53350429D01*
X206174644Y-53535249D02*
X205997217Y-53451332D01*
X206359441Y-53601370D02*
X206174644Y-53535249D01*
X206549830Y-53649060D02*
X206359441Y-53601370D01*
X206743976Y-53677859D02*
X206549830Y-53649060D01*
X206940010Y-53687490D02*
X206743976Y-53677859D01*
X206940010Y-53687490D02*
X224657500Y-53687490D01*
X202640010Y-46778980D02*
X187638800Y-46778980D01*
X202865450Y-46790055D02*
X202640010Y-46778980D01*
X203088718Y-46823173D02*
X202865450Y-46790055D01*
X203307665Y-46878017D02*
X203088718Y-46823173D01*
X203520182Y-46954057D02*
X203307665Y-46878017D01*
X203724223Y-47050561D02*
X203520182Y-46954057D01*
X203917822Y-47166599D02*
X203724223Y-47050561D01*
X204099115Y-47301055D02*
X203917822Y-47166599D01*
X204266356Y-47452634D02*
X204099115Y-47301055D01*
X204417935Y-47619875D02*
X204266356Y-47452634D01*
X204552391Y-47801168D02*
X204417935Y-47619875D01*
X204668429Y-47994767D02*
X204552391Y-47801168D01*
X204764933Y-48198808D02*
X204668429Y-47994767D01*
X204840973Y-48411325D02*
X204764933Y-48198808D01*
X204895817Y-48630272D02*
X204840973Y-48411325D01*
X204928935Y-48853540D02*
X204895817Y-48630272D01*
X204940010Y-49078980D02*
X204928935Y-48853540D01*
X226057500Y-55087490D02*
X226057500Y-55157500D01*
X226050759Y-54950266D02*
X226057500Y-55087490D01*
X226030600Y-54814363D02*
X226050759Y-54950266D01*
X225997217Y-54681091D02*
X226030600Y-54814363D01*
X225950932Y-54551733D02*
X225997217Y-54681091D01*
X225892190Y-54427534D02*
X225950932Y-54551733D01*
X225821558Y-54309691D02*
X225892190Y-54427534D01*
X225739715Y-54199339D02*
X225821558Y-54309691D01*
X225647450Y-54097540D02*
X225739715Y-54199339D01*
X225545651Y-54005275D02*
X225647450Y-54097540D01*
X225435299Y-53923432D02*
X225545651Y-54005275D01*
X225317456Y-53852800D02*
X225435299Y-53923432D01*
X225193257Y-53794058D02*
X225317456Y-53852800D01*
X225063899Y-53747773D02*
X225193257Y-53794058D01*
X224930627Y-53714390D02*
X225063899Y-53747773D01*
X224794724Y-53694231D02*
X224930627Y-53714390D01*
X224657500Y-53687490D02*
X224794724Y-53694231D01*
X227320277Y-56550758D02*
X227457500Y-56557500D01*
X227184374Y-56530599D02*
X227320277Y-56550758D01*
X227051102Y-56497216D02*
X227184374Y-56530599D01*
X226921744Y-56450931D02*
X227051102Y-56497216D01*
X226797545Y-56392189D02*
X226921744Y-56450931D01*
X226679702Y-56321557D02*
X226797545Y-56392189D01*
X226569350Y-56239714D02*
X226679702Y-56321557D01*
X226467551Y-56147449D02*
X226569350Y-56239714D01*
X226375286Y-56045650D02*
X226467551Y-56147449D01*
X226293443Y-55935298D02*
X226375286Y-56045650D01*
X226222811Y-55817455D02*
X226293443Y-55935298D01*
X226164069Y-55693256D02*
X226222811Y-55817455D01*
X226117784Y-55563898D02*
X226164069Y-55693256D01*
X226084401Y-55430626D02*
X226117784Y-55563898D01*
X226064242Y-55294723D02*
X226084401Y-55430626D01*
X226057500Y-55157500D02*
X226064242Y-55294723D01*
X186138800Y-45278980D02*
X186138800Y-44568760D01*
X186146023Y-45426005D02*
X186138800Y-45278980D01*
X186167623Y-45571615D02*
X186146023Y-45426005D01*
X186203390Y-45714407D02*
X186167623Y-45571615D01*
X186252981Y-45853005D02*
X186203390Y-45714407D01*
X186315919Y-45986075D02*
X186252981Y-45853005D01*
X186391596Y-46112335D02*
X186315919Y-45986075D01*
X186479285Y-46230569D02*
X186391596Y-46112335D01*
X186578140Y-46339640D02*
X186479285Y-46230569D01*
X186687211Y-46438495D02*
X186578140Y-46339640D01*
X186805445Y-46526184D02*
X186687211Y-46438495D01*
X186931705Y-46601861D02*
X186805445Y-46526184D01*
X187064775Y-46664799D02*
X186931705Y-46601861D01*
X187203373Y-46714390D02*
X187064775Y-46664799D01*
X187346165Y-46750157D02*
X187203373Y-46714390D01*
X187491775Y-46771757D02*
X187346165Y-46750157D01*
X187638800Y-46778980D02*
X187491775Y-46771757D01*
X184638800Y-43068760D02*
X173406102Y-43068760D01*
X184785826Y-43075982D02*
X184638800Y-43068760D01*
X184931436Y-43097582D02*
X184785826Y-43075982D01*
X185074228Y-43133349D02*
X184931436Y-43097582D01*
X185212826Y-43182940D02*
X185074228Y-43133349D01*
X185345896Y-43245878D02*
X185212826Y-43182940D01*
X185472156Y-43321555D02*
X185345896Y-43245878D01*
X185590390Y-43409244D02*
X185472156Y-43321555D01*
X185699461Y-43508099D02*
X185590390Y-43409244D01*
X185798316Y-43617170D02*
X185699461Y-43508099D01*
X185886005Y-43735404D02*
X185798316Y-43617170D01*
X185961682Y-43861664D02*
X185886005Y-43735404D01*
X186024620Y-43994734D02*
X185961682Y-43861664D01*
X186074211Y-44133332D02*
X186024620Y-43994734D01*
X186109978Y-44276124D02*
X186074211Y-44133332D01*
X186131578Y-44421734D02*
X186109978Y-44276124D01*
X186138800Y-44568760D02*
X186131578Y-44421734D01*
X172106102Y-44449103D02*
X172106102Y-44368760D01*
X172099843Y-44576525D02*
X172106102Y-44449103D01*
X172081123Y-44702720D02*
X172099843Y-44576525D01*
X172050125Y-44826473D02*
X172081123Y-44702720D01*
X172007146Y-44946591D02*
X172050125Y-44826473D01*
X171952600Y-45061918D02*
X172007146Y-44946591D01*
X171887013Y-45171344D02*
X171952600Y-45061918D01*
X171811016Y-45273814D02*
X171887013Y-45171344D01*
X171725341Y-45368341D02*
X171811016Y-45273814D01*
X171630814Y-45454016D02*
X171725341Y-45368341D01*
X171528344Y-45530013D02*
X171630814Y-45454016D01*
X171418918Y-45595600D02*
X171528344Y-45530013D01*
X171303591Y-45650146D02*
X171418918Y-45595600D01*
X171183473Y-45693125D02*
X171303591Y-45650146D01*
X171059720Y-45724123D02*
X171183473Y-45693125D01*
X170933525Y-45742843D02*
X171059720Y-45724123D01*
X170806102Y-45749103D02*
X170933525Y-45742843D01*
X170806102Y-45749103D02*
X153989960Y-45749103D01*
X173278680Y-43075019D02*
X173406102Y-43068760D01*
X173152485Y-43093739D02*
X173278680Y-43075019D01*
X173028732Y-43124737D02*
X173152485Y-43093739D01*
X172908614Y-43167716D02*
X173028732Y-43124737D01*
X172793287Y-43222262D02*
X172908614Y-43167716D01*
X172683861Y-43287849D02*
X172793287Y-43222262D01*
X172581391Y-43363846D02*
X172683861Y-43287849D01*
X172486864Y-43449521D02*
X172581391Y-43363846D01*
X172401189Y-43544048D02*
X172486864Y-43449521D01*
X172325192Y-43646518D02*
X172401189Y-43544048D01*
X172259605Y-43755944D02*
X172325192Y-43646518D01*
X172205059Y-43871271D02*
X172259605Y-43755944D01*
X172162080Y-43991389D02*
X172205059Y-43871271D01*
X172131082Y-44115142D02*
X172162080Y-43991389D01*
X172112362Y-44241337D02*
X172131082Y-44115142D01*
X172106102Y-44368760D02*
X172112362Y-44241337D01*
X152689960Y-47156984D02*
X152689960Y-47049103D01*
X152683701Y-47284406D02*
X152689960Y-47156984D01*
X152664981Y-47410601D02*
X152683701Y-47284406D01*
X152633983Y-47534354D02*
X152664981Y-47410601D01*
X152591004Y-47654472D02*
X152633983Y-47534354D01*
X152536458Y-47769799D02*
X152591004Y-47654472D01*
X152470871Y-47879225D02*
X152536458Y-47769799D01*
X152394874Y-47981695D02*
X152470871Y-47879225D01*
X152309199Y-48076222D02*
X152394874Y-47981695D01*
X152214672Y-48161897D02*
X152309199Y-48076222D01*
X152112202Y-48237894D02*
X152214672Y-48161897D01*
X152002776Y-48303481D02*
X152112202Y-48237894D01*
X151887449Y-48358027D02*
X152002776Y-48303481D01*
X151767331Y-48401006D02*
X151887449Y-48358027D01*
X151643578Y-48432004D02*
X151767331Y-48401006D01*
X151517383Y-48450724D02*
X151643578Y-48432004D01*
X151389960Y-48456984D02*
X151517383Y-48450724D01*
X152696220Y-46921680D02*
X152689960Y-47049103D01*
X152714940Y-46795485D02*
X152696220Y-46921680D01*
X152745938Y-46671732D02*
X152714940Y-46795485D01*
X152788917Y-46551614D02*
X152745938Y-46671732D01*
X152843463Y-46436287D02*
X152788917Y-46551614D01*
X152909050Y-46326861D02*
X152843463Y-46436287D01*
X152985047Y-46224391D02*
X152909050Y-46326861D01*
X153070722Y-46129864D02*
X152985047Y-46224391D01*
X153165249Y-46044189D02*
X153070722Y-46129864D01*
X153267719Y-45968192D02*
X153165249Y-46044189D01*
X153377145Y-45902605D02*
X153267719Y-45968192D01*
X153492472Y-45848059D02*
X153377145Y-45902605D01*
X153612590Y-45805080D02*
X153492472Y-45848059D01*
X153736343Y-45774082D02*
X153612590Y-45805080D01*
X153862538Y-45755362D02*
X153736343Y-45774082D01*
X153989960Y-45749103D02*
X153862538Y-45755362D01*
X111606630Y-71052284D02*
X111616260Y-70856250D01*
X111577831Y-71246430D02*
X111606630Y-71052284D01*
X111530141Y-71436819D02*
X111577831Y-71246430D01*
X111464020Y-71621616D02*
X111530141Y-71436819D01*
X111380103Y-71799043D02*
X111464020Y-71621616D01*
X111279200Y-71967390D02*
X111380103Y-71799043D01*
X111162281Y-72125036D02*
X111279200Y-71967390D01*
X111030474Y-72270463D02*
X111162281Y-72125036D01*
X110885047Y-72402270D02*
X111030474Y-72270463D01*
X110727401Y-72519189D02*
X110885047Y-72402270D01*
X110559054Y-72620092D02*
X110727401Y-72519189D01*
X110381627Y-72704009D02*
X110559054Y-72620092D01*
X110196830Y-72770130D02*
X110381627Y-72704009D01*
X110006441Y-72817820D02*
X110196830Y-72770130D01*
X109812295Y-72846619D02*
X110006441Y-72817820D01*
X109616260Y-72856250D02*
X109812295Y-72846619D01*
X232017500Y-118735000D02*
X232017500Y-99685000D01*
X232017500Y-82668998D02*
X232017500Y-80635000D01*
X232017500Y-99685000D02*
X232017500Y-82668998D01*
X232017500Y-80635000D02*
X232017500Y-61585000D01*
X232017500Y-58550758D02*
X232017500Y-61585000D01*
X232017500Y-58550758D02*
X232007869Y-58354723D01*
X232007869Y-58354723D02*
X231979070Y-58160577D01*
X231979070Y-58160577D02*
X231931380Y-57970188D01*
X231931380Y-57970188D02*
X231865259Y-57785391D01*
X231865259Y-57785391D02*
X231781342Y-57607964D01*
X231781342Y-57607964D02*
X231680439Y-57439617D01*
X231680439Y-57439617D02*
X231563520Y-57281971D01*
X231563520Y-57281971D02*
X231431713Y-57136544D01*
X231431713Y-57136544D02*
X231286286Y-57004737D01*
X231286286Y-57004737D02*
X231128640Y-56887818D01*
X231128640Y-56887818D02*
X230960293Y-56786915D01*
X230960293Y-56786915D02*
X230782866Y-56702998D01*
X230782866Y-56702998D02*
X230598069Y-56636877D01*
X230598069Y-56636877D02*
X230407680Y-56589187D01*
X230407680Y-56589187D02*
X230213534Y-56560388D01*
X230213534Y-56560388D02*
X230017500Y-56550758D01*
X230017500Y-56550758D02*
X227320277Y-56550758D01*
X109602510Y-72870000D02*
X103350000Y-72870000D01*
X109616260Y-72856250D02*
X109602510Y-72870000D01*
X114866260Y-64176830D02*
X114547704Y-64192479D01*
X114547704Y-64192479D02*
X114232216Y-64239277D01*
X114232216Y-64239277D02*
X113922834Y-64316773D01*
X113922834Y-64316773D02*
X113622538Y-64424221D01*
X113622538Y-64424221D02*
X113334220Y-64560585D01*
X113334220Y-64560585D02*
X113060656Y-64724553D01*
X113060656Y-64724553D02*
X112804481Y-64914546D01*
X112804481Y-64914546D02*
X112568162Y-65128732D01*
X112568162Y-65128732D02*
X112353976Y-65365051D01*
X112353976Y-65365051D02*
X112163983Y-65621226D01*
X112163983Y-65621226D02*
X112000015Y-65894790D01*
X112000015Y-65894790D02*
X111863651Y-66183108D01*
X111863651Y-66183108D02*
X111756203Y-66483404D01*
X111756203Y-66483404D02*
X111678707Y-66792786D01*
X111678707Y-66792786D02*
X111631909Y-67108274D01*
X111631909Y-67108274D02*
X111616260Y-67426830D01*
X111616260Y-67426830D02*
X111616260Y-70856250D01*
X131626260Y-62176830D02*
X131616629Y-62372864D01*
X131616629Y-62372864D02*
X131587830Y-62567010D01*
X131587830Y-62567010D02*
X131540140Y-62757399D01*
X131540140Y-62757399D02*
X131474019Y-62942196D01*
X131474019Y-62942196D02*
X131390102Y-63119623D01*
X131390102Y-63119623D02*
X131289199Y-63287970D01*
X131289199Y-63287970D02*
X131172280Y-63445616D01*
X131172280Y-63445616D02*
X131040473Y-63591043D01*
X131040473Y-63591043D02*
X130895046Y-63722850D01*
X130895046Y-63722850D02*
X130737400Y-63839769D01*
X130737400Y-63839769D02*
X130569053Y-63940672D01*
X130569053Y-63940672D02*
X130391626Y-64024589D01*
X130391626Y-64024589D02*
X130206829Y-64090710D01*
X130206829Y-64090710D02*
X130016440Y-64138400D01*
X130016440Y-64138400D02*
X129822294Y-64167199D01*
X129822294Y-64167199D02*
X129626260Y-64176830D01*
X129626260Y-64176830D02*
X114866260Y-64176830D01*
X134626260Y-48456984D02*
X151389960Y-48456984D01*
X134626260Y-48456984D02*
X134332208Y-48471429D01*
X134332208Y-48471429D02*
X134040989Y-48514628D01*
X134040989Y-48514628D02*
X133755405Y-48586162D01*
X133755405Y-48586162D02*
X133478209Y-48685345D01*
X133478209Y-48685345D02*
X133212069Y-48811220D01*
X133212069Y-48811220D02*
X132959549Y-48962575D01*
X132959549Y-48962575D02*
X132723080Y-49137952D01*
X132723080Y-49137952D02*
X132504939Y-49335663D01*
X132504939Y-49335663D02*
X132307228Y-49553804D01*
X132307228Y-49553804D02*
X132131851Y-49790273D01*
X132131851Y-49790273D02*
X131980496Y-50042793D01*
X131980496Y-50042793D02*
X131854621Y-50308933D01*
X131854621Y-50308933D02*
X131755438Y-50586129D01*
X131755438Y-50586129D02*
X131683904Y-50871713D01*
X131683904Y-50871713D02*
X131640705Y-51162932D01*
X131640705Y-51162932D02*
X131626260Y-51456984D01*
X131626260Y-51456984D02*
X131626260Y-62176830D01*
X109816270Y-73650569D02*
X110041710Y-73639493D01*
X110041710Y-73639493D02*
X110264978Y-73606375D01*
X110264978Y-73606375D02*
X110483925Y-73551531D01*
X110483925Y-73551531D02*
X110696442Y-73475491D01*
X110696442Y-73475491D02*
X110900483Y-73378987D01*
X110900483Y-73378987D02*
X111094082Y-73262949D01*
X111094082Y-73262949D02*
X111275375Y-73128493D01*
X111275375Y-73128493D02*
X111442616Y-72976914D01*
X111442616Y-72976914D02*
X111594195Y-72809673D01*
X111594195Y-72809673D02*
X111728651Y-72628380D01*
X111728651Y-72628380D02*
X111844689Y-72434781D01*
X111844689Y-72434781D02*
X111941193Y-72230740D01*
X111941193Y-72230740D02*
X112017233Y-72018223D01*
X112017233Y-72018223D02*
X112072077Y-71799276D01*
X112072077Y-71799276D02*
X112105195Y-71576008D01*
X112105195Y-71576008D02*
X112116270Y-71350569D01*
X154489970Y-46199113D02*
X154362548Y-46205372D01*
X154362548Y-46205372D02*
X154236353Y-46224092D01*
X154236353Y-46224092D02*
X154112600Y-46255090D01*
X154112600Y-46255090D02*
X153992482Y-46298069D01*
X153992482Y-46298069D02*
X153877155Y-46352615D01*
X153877155Y-46352615D02*
X153767729Y-46418202D01*
X153767729Y-46418202D02*
X153665259Y-46494199D01*
X153665259Y-46494199D02*
X153570732Y-46579874D01*
X153570732Y-46579874D02*
X153485057Y-46674401D01*
X153485057Y-46674401D02*
X153409060Y-46776871D01*
X153409060Y-46776871D02*
X153343473Y-46886297D01*
X153343473Y-46886297D02*
X153288927Y-47001624D01*
X153288927Y-47001624D02*
X153245948Y-47121742D01*
X153245948Y-47121742D02*
X153214950Y-47245495D01*
X153214950Y-47245495D02*
X153196230Y-47371690D01*
X153196230Y-47371690D02*
X153189970Y-47499113D01*
X151889970Y-48906992D02*
X152017393Y-48900732D01*
X152017393Y-48900732D02*
X152143588Y-48882012D01*
X152143588Y-48882012D02*
X152267341Y-48851014D01*
X152267341Y-48851014D02*
X152387459Y-48808035D01*
X152387459Y-48808035D02*
X152502786Y-48753489D01*
X152502786Y-48753489D02*
X152612212Y-48687902D01*
X152612212Y-48687902D02*
X152714682Y-48611905D01*
X152714682Y-48611905D02*
X152809209Y-48526230D01*
X152809209Y-48526230D02*
X152894884Y-48431703D01*
X152894884Y-48431703D02*
X152970881Y-48329233D01*
X152970881Y-48329233D02*
X153036468Y-48219807D01*
X153036468Y-48219807D02*
X153091014Y-48104480D01*
X153091014Y-48104480D02*
X153133993Y-47984362D01*
X153133993Y-47984362D02*
X153164991Y-47860609D01*
X153164991Y-47860609D02*
X153183711Y-47734414D01*
X153183711Y-47734414D02*
X153189970Y-47606992D01*
X153189970Y-47606992D02*
X153189970Y-47499113D01*
X172606112Y-44818770D02*
X172612372Y-44691347D01*
X172612372Y-44691347D02*
X172631092Y-44565152D01*
X172631092Y-44565152D02*
X172662090Y-44441399D01*
X172662090Y-44441399D02*
X172705069Y-44321281D01*
X172705069Y-44321281D02*
X172759615Y-44205954D01*
X172759615Y-44205954D02*
X172825202Y-44096528D01*
X172825202Y-44096528D02*
X172901199Y-43994058D01*
X172901199Y-43994058D02*
X172986874Y-43899531D01*
X172986874Y-43899531D02*
X173081401Y-43813856D01*
X173081401Y-43813856D02*
X173183871Y-43737859D01*
X173183871Y-43737859D02*
X173293297Y-43672272D01*
X173293297Y-43672272D02*
X173408624Y-43617726D01*
X173408624Y-43617726D02*
X173528742Y-43574747D01*
X173528742Y-43574747D02*
X173652495Y-43543749D01*
X173652495Y-43543749D02*
X173778690Y-43525029D01*
X173778690Y-43525029D02*
X173906112Y-43518770D01*
X171306112Y-46199113D02*
X154489970Y-46199113D01*
X171306112Y-46199113D02*
X171433535Y-46192853D01*
X171433535Y-46192853D02*
X171559730Y-46174133D01*
X171559730Y-46174133D02*
X171683483Y-46143135D01*
X171683483Y-46143135D02*
X171803601Y-46100156D01*
X171803601Y-46100156D02*
X171918928Y-46045610D01*
X171918928Y-46045610D02*
X172028354Y-45980023D01*
X172028354Y-45980023D02*
X172130824Y-45904026D01*
X172130824Y-45904026D02*
X172225351Y-45818351D01*
X172225351Y-45818351D02*
X172311026Y-45723824D01*
X172311026Y-45723824D02*
X172387023Y-45621354D01*
X172387023Y-45621354D02*
X172452610Y-45511928D01*
X172452610Y-45511928D02*
X172507156Y-45396601D01*
X172507156Y-45396601D02*
X172550135Y-45276483D01*
X172550135Y-45276483D02*
X172581133Y-45152730D01*
X172581133Y-45152730D02*
X172599853Y-45026535D01*
X172599853Y-45026535D02*
X172606112Y-44899113D01*
X172606112Y-44899113D02*
X172606112Y-44818770D01*
X185638790Y-45018770D02*
X185631568Y-44871744D01*
X185631568Y-44871744D02*
X185609968Y-44726134D01*
X185609968Y-44726134D02*
X185574201Y-44583342D01*
X185574201Y-44583342D02*
X185524610Y-44444744D01*
X185524610Y-44444744D02*
X185461672Y-44311674D01*
X185461672Y-44311674D02*
X185385995Y-44185414D01*
X185385995Y-44185414D02*
X185298306Y-44067180D01*
X185298306Y-44067180D02*
X185199451Y-43958109D01*
X185199451Y-43958109D02*
X185090380Y-43859254D01*
X185090380Y-43859254D02*
X184972146Y-43771565D01*
X184972146Y-43771565D02*
X184845886Y-43695888D01*
X184845886Y-43695888D02*
X184712816Y-43632950D01*
X184712816Y-43632950D02*
X184574218Y-43583359D01*
X184574218Y-43583359D02*
X184431426Y-43547592D01*
X184431426Y-43547592D02*
X184285816Y-43525992D01*
X184285816Y-43525992D02*
X184138790Y-43518770D01*
X184138790Y-43518770D02*
X173906112Y-43518770D01*
X187138790Y-47228990D02*
X186991765Y-47221767D01*
X186991765Y-47221767D02*
X186846155Y-47200167D01*
X186846155Y-47200167D02*
X186703363Y-47164400D01*
X186703363Y-47164400D02*
X186564765Y-47114809D01*
X186564765Y-47114809D02*
X186431695Y-47051871D01*
X186431695Y-47051871D02*
X186305435Y-46976194D01*
X186305435Y-46976194D02*
X186187201Y-46888505D01*
X186187201Y-46888505D02*
X186078130Y-46789650D01*
X186078130Y-46789650D02*
X185979275Y-46680579D01*
X185979275Y-46680579D02*
X185891586Y-46562345D01*
X185891586Y-46562345D02*
X185815909Y-46436085D01*
X185815909Y-46436085D02*
X185752971Y-46303015D01*
X185752971Y-46303015D02*
X185703380Y-46164417D01*
X185703380Y-46164417D02*
X185667613Y-46021625D01*
X185667613Y-46021625D02*
X185646013Y-45876015D01*
X185646013Y-45876015D02*
X185638790Y-45728990D01*
X185638790Y-45728990D02*
X185638790Y-45018770D01*
X204440000Y-49228990D02*
X204430370Y-49032955D01*
X204430370Y-49032955D02*
X204401571Y-48838809D01*
X204401571Y-48838809D02*
X204353881Y-48648420D01*
X204353881Y-48648420D02*
X204287760Y-48463623D01*
X204287760Y-48463623D02*
X204203843Y-48286196D01*
X204203843Y-48286196D02*
X204102940Y-48117849D01*
X204102940Y-48117849D02*
X203986021Y-47960203D01*
X203986021Y-47960203D02*
X203854214Y-47814776D01*
X203854214Y-47814776D02*
X203708787Y-47682969D01*
X203708787Y-47682969D02*
X203551141Y-47566050D01*
X203551141Y-47566050D02*
X203382794Y-47465147D01*
X203382794Y-47465147D02*
X203205367Y-47381230D01*
X203205367Y-47381230D02*
X203020570Y-47315109D01*
X203020570Y-47315109D02*
X202830181Y-47267419D01*
X202830181Y-47267419D02*
X202636035Y-47238620D01*
X202636035Y-47238620D02*
X202440000Y-47228990D01*
X202440000Y-47228990D02*
X187138790Y-47228990D01*
X206740000Y-54137500D02*
X206514561Y-54126424D01*
X206514561Y-54126424D02*
X206291293Y-54093306D01*
X206291293Y-54093306D02*
X206072346Y-54038462D01*
X206072346Y-54038462D02*
X205859829Y-53962422D01*
X205859829Y-53962422D02*
X205655788Y-53865918D01*
X205655788Y-53865918D02*
X205462189Y-53749880D01*
X205462189Y-53749880D02*
X205280896Y-53615424D01*
X205280896Y-53615424D02*
X205113655Y-53463845D01*
X205113655Y-53463845D02*
X204962076Y-53296604D01*
X204962076Y-53296604D02*
X204827620Y-53115311D01*
X204827620Y-53115311D02*
X204711582Y-52921712D01*
X204711582Y-52921712D02*
X204615078Y-52717671D01*
X204615078Y-52717671D02*
X204539038Y-52505154D01*
X204539038Y-52505154D02*
X204484194Y-52286207D01*
X204484194Y-52286207D02*
X204451076Y-52062939D01*
X204451076Y-52062939D02*
X204440000Y-51837500D01*
X204440000Y-51837500D02*
X204440000Y-49228990D01*
X212967500Y-58410000D02*
X212967500Y-77460000D01*
X212967500Y-77460000D02*
X212967500Y-96510000D01*
X212967500Y-96510000D02*
X212967500Y-115560000D01*
X212967500Y-56137500D02*
X212967500Y-58410000D01*
X212967500Y-56137500D02*
X212957869Y-55941465D01*
X212957869Y-55941465D02*
X212929070Y-55747319D01*
X212929070Y-55747319D02*
X212881380Y-55556930D01*
X212881380Y-55556930D02*
X212815259Y-55372133D01*
X212815259Y-55372133D02*
X212731342Y-55194706D01*
X212731342Y-55194706D02*
X212630439Y-55026359D01*
X212630439Y-55026359D02*
X212513520Y-54868713D01*
X212513520Y-54868713D02*
X212381713Y-54723286D01*
X212381713Y-54723286D02*
X212236286Y-54591479D01*
X212236286Y-54591479D02*
X212078640Y-54474560D01*
X212078640Y-54474560D02*
X211910293Y-54373657D01*
X211910293Y-54373657D02*
X211732866Y-54289740D01*
X211732866Y-54289740D02*
X211548069Y-54223619D01*
X211548069Y-54223619D02*
X211357680Y-54175929D01*
X211357680Y-54175929D02*
X211163534Y-54147130D01*
X211163534Y-54147130D02*
X210967500Y-54137500D01*
X210967500Y-54137500D02*
X206740000Y-54137500D01*
X104268503Y-73650569D02*
X109816270Y-73650569D01*
X104021935Y-73897137D02*
X104268503Y-73650569D01*
X103456250Y-73897137D02*
X104021935Y-73897137D01*
X151889970Y-48906992D02*
X151576362Y-48906992D01*
X115116270Y-64626840D02*
X114822218Y-64641285D01*
X114822218Y-64641285D02*
X114530999Y-64684484D01*
X114530999Y-64684484D02*
X114245415Y-64756018D01*
X114245415Y-64756018D02*
X113968219Y-64855201D01*
X113968219Y-64855201D02*
X113702079Y-64981076D01*
X113702079Y-64981076D02*
X113449559Y-65132431D01*
X113449559Y-65132431D02*
X113213090Y-65307808D01*
X113213090Y-65307808D02*
X112994949Y-65505519D01*
X112994949Y-65505519D02*
X112797238Y-65723660D01*
X112797238Y-65723660D02*
X112621861Y-65960129D01*
X112621861Y-65960129D02*
X112470506Y-66212649D01*
X112470506Y-66212649D02*
X112344631Y-66478789D01*
X112344631Y-66478789D02*
X112245448Y-66755985D01*
X112245448Y-66755985D02*
X112173914Y-67041569D01*
X112173914Y-67041569D02*
X112130715Y-67332788D01*
X112130715Y-67332788D02*
X112116270Y-67626840D01*
X112116270Y-67626840D02*
X112116270Y-71350569D01*
X132126270Y-62376840D02*
X132115435Y-62597378D01*
X132115435Y-62597378D02*
X132083036Y-62815793D01*
X132083036Y-62815793D02*
X132029385Y-63029980D01*
X132029385Y-63029980D02*
X131954998Y-63237877D01*
X131954998Y-63237877D02*
X131860592Y-63437482D01*
X131860592Y-63437482D02*
X131747076Y-63626873D01*
X131747076Y-63626873D02*
X131615543Y-63804224D01*
X131615543Y-63804224D02*
X131467260Y-63967830D01*
X131467260Y-63967830D02*
X131303654Y-64116113D01*
X131303654Y-64116113D02*
X131126303Y-64247646D01*
X131126303Y-64247646D02*
X130936912Y-64361162D01*
X130936912Y-64361162D02*
X130737307Y-64455568D01*
X130737307Y-64455568D02*
X130529410Y-64529955D01*
X130529410Y-64529955D02*
X130315223Y-64583606D01*
X130315223Y-64583606D02*
X130096808Y-64616005D01*
X130096808Y-64616005D02*
X129876270Y-64626840D01*
X129876270Y-64626840D02*
X115116270Y-64626840D01*
X134876270Y-48906992D02*
X151576362Y-48906992D01*
X134876270Y-48906992D02*
X134606722Y-48920234D01*
X134606722Y-48920234D02*
X134339771Y-48959832D01*
X134339771Y-48959832D02*
X134077987Y-49025406D01*
X134077987Y-49025406D02*
X133823890Y-49116323D01*
X133823890Y-49116323D02*
X133579928Y-49231708D01*
X133579928Y-49231708D02*
X133348451Y-49370450D01*
X133348451Y-49370450D02*
X133131688Y-49531213D01*
X133131688Y-49531213D02*
X132931726Y-49712448D01*
X132931726Y-49712448D02*
X132750491Y-49912410D01*
X132750491Y-49912410D02*
X132589728Y-50129173D01*
X132589728Y-50129173D02*
X132450986Y-50360650D01*
X132450986Y-50360650D02*
X132335601Y-50604612D01*
X132335601Y-50604612D02*
X132244684Y-50858709D01*
X132244684Y-50858709D02*
X132179110Y-51120493D01*
X132179110Y-51120493D02*
X132139512Y-51387444D01*
X132139512Y-51387444D02*
X132126270Y-51656992D01*
X132126270Y-51656992D02*
X132126270Y-62376840D01*
X193917500Y-109210000D02*
X193917500Y-90160000D01*
X193917500Y-90160000D02*
X193917500Y-71110000D01*
X193917500Y-69519010D02*
X193917500Y-52060000D01*
X193917500Y-71110000D02*
X193917500Y-69519010D01*
X185138780Y-46179000D02*
X185138780Y-45468780D01*
X185146003Y-46326025D02*
X185138780Y-46179000D01*
X185167603Y-46471635D02*
X185146003Y-46326025D01*
X185203370Y-46614427D02*
X185167603Y-46471635D01*
X185252961Y-46753025D02*
X185203370Y-46614427D01*
X185315899Y-46886095D02*
X185252961Y-46753025D01*
X185391576Y-47012355D02*
X185315899Y-46886095D01*
X185479265Y-47130589D02*
X185391576Y-47012355D01*
X185578120Y-47239660D02*
X185479265Y-47130589D01*
X185687191Y-47338515D02*
X185578120Y-47239660D01*
X185805425Y-47426204D02*
X185687191Y-47338515D01*
X185931685Y-47501881D02*
X185805425Y-47426204D01*
X186064755Y-47564819D02*
X185931685Y-47501881D01*
X186203353Y-47614410D02*
X186064755Y-47564819D01*
X186346145Y-47650177D02*
X186203353Y-47614410D01*
X186491755Y-47671777D02*
X186346145Y-47650177D01*
X186638780Y-47679000D02*
X186491755Y-47671777D01*
X183638780Y-43968780D02*
X174406122Y-43968780D01*
X183785806Y-43976002D02*
X183638780Y-43968780D01*
X183931416Y-43997602D02*
X183785806Y-43976002D01*
X184074208Y-44033369D02*
X183931416Y-43997602D01*
X184212806Y-44082960D02*
X184074208Y-44033369D01*
X184345876Y-44145898D02*
X184212806Y-44082960D01*
X184472136Y-44221575D02*
X184345876Y-44145898D01*
X184590370Y-44309264D02*
X184472136Y-44221575D01*
X184699441Y-44408119D02*
X184590370Y-44309264D01*
X184798296Y-44517190D02*
X184699441Y-44408119D01*
X184885985Y-44635424D02*
X184798296Y-44517190D01*
X184961662Y-44761684D02*
X184885985Y-44635424D01*
X185024600Y-44894754D02*
X184961662Y-44761684D01*
X185074191Y-45033352D02*
X185024600Y-44894754D01*
X185109958Y-45176144D02*
X185074191Y-45033352D01*
X185131558Y-45321754D02*
X185109958Y-45176144D01*
X185138780Y-45468780D02*
X185131558Y-45321754D01*
X173106122Y-45349123D02*
X173106122Y-45268780D01*
X173099863Y-45476545D02*
X173106122Y-45349123D01*
X173081143Y-45602740D02*
X173099863Y-45476545D01*
X173050145Y-45726493D02*
X173081143Y-45602740D01*
X173007166Y-45846611D02*
X173050145Y-45726493D01*
X172952620Y-45961938D02*
X173007166Y-45846611D01*
X172887033Y-46071364D02*
X172952620Y-45961938D01*
X172811036Y-46173834D02*
X172887033Y-46071364D01*
X172725361Y-46268361D02*
X172811036Y-46173834D01*
X172630834Y-46354036D02*
X172725361Y-46268361D01*
X172528364Y-46430033D02*
X172630834Y-46354036D01*
X172418938Y-46495620D02*
X172528364Y-46430033D01*
X172303611Y-46550166D02*
X172418938Y-46495620D01*
X172183493Y-46593145D02*
X172303611Y-46550166D01*
X172059740Y-46624143D02*
X172183493Y-46593145D01*
X171933545Y-46642863D02*
X172059740Y-46624143D01*
X171806122Y-46649123D02*
X171933545Y-46642863D01*
X171806122Y-46649123D02*
X154989980Y-46649123D01*
X174278700Y-43975039D02*
X174406122Y-43968780D01*
X174152505Y-43993759D02*
X174278700Y-43975039D01*
X174028752Y-44024757D02*
X174152505Y-43993759D01*
X173908634Y-44067736D02*
X174028752Y-44024757D01*
X173793307Y-44122282D02*
X173908634Y-44067736D01*
X173683881Y-44187869D02*
X173793307Y-44122282D01*
X173581411Y-44263866D02*
X173683881Y-44187869D01*
X173486884Y-44349541D02*
X173581411Y-44263866D01*
X173401209Y-44444068D02*
X173486884Y-44349541D01*
X173325212Y-44546538D02*
X173401209Y-44444068D01*
X173259625Y-44655964D02*
X173325212Y-44546538D01*
X173205079Y-44771291D02*
X173259625Y-44655964D01*
X173162100Y-44891409D02*
X173205079Y-44771291D01*
X173131102Y-45015162D02*
X173162100Y-44891409D01*
X173112382Y-45141357D02*
X173131102Y-45015162D01*
X173106122Y-45268780D02*
X173112382Y-45141357D01*
X153689980Y-48057002D02*
X153689980Y-47949123D01*
X153683721Y-48184424D02*
X153689980Y-48057002D01*
X153665001Y-48310619D02*
X153683721Y-48184424D01*
X153634003Y-48434372D02*
X153665001Y-48310619D01*
X153591024Y-48554490D02*
X153634003Y-48434372D01*
X153536478Y-48669817D02*
X153591024Y-48554490D01*
X153470891Y-48779243D02*
X153536478Y-48669817D01*
X153394894Y-48881713D02*
X153470891Y-48779243D01*
X153309219Y-48976240D02*
X153394894Y-48881713D01*
X153214692Y-49061915D02*
X153309219Y-48976240D01*
X153112222Y-49137912D02*
X153214692Y-49061915D01*
X153002796Y-49203499D02*
X153112222Y-49137912D01*
X152887469Y-49258045D02*
X153002796Y-49203499D01*
X152767351Y-49301024D02*
X152887469Y-49258045D01*
X152643598Y-49332022D02*
X152767351Y-49301024D01*
X152517403Y-49350742D02*
X152643598Y-49332022D01*
X152389980Y-49357002D02*
X152517403Y-49350742D01*
X153696240Y-47821700D02*
X153689980Y-47949123D01*
X153714960Y-47695505D02*
X153696240Y-47821700D01*
X153745958Y-47571752D02*
X153714960Y-47695505D01*
X153788937Y-47451634D02*
X153745958Y-47571752D01*
X153843483Y-47336307D02*
X153788937Y-47451634D01*
X153909070Y-47226881D02*
X153843483Y-47336307D01*
X153985067Y-47124411D02*
X153909070Y-47226881D01*
X154070742Y-47029884D02*
X153985067Y-47124411D01*
X154165269Y-46944209D02*
X154070742Y-47029884D01*
X154267739Y-46868212D02*
X154165269Y-46944209D01*
X154377165Y-46802625D02*
X154267739Y-46868212D01*
X154492492Y-46748079D02*
X154377165Y-46802625D01*
X154612610Y-46705100D02*
X154492492Y-46748079D01*
X154736363Y-46674102D02*
X154612610Y-46705100D01*
X154862558Y-46655382D02*
X154736363Y-46674102D01*
X154989980Y-46649123D02*
X154862558Y-46655382D01*
X112603761Y-72254484D02*
X112616280Y-71999640D01*
X112566322Y-72506874D02*
X112603761Y-72254484D01*
X112504325Y-72754380D02*
X112566322Y-72506874D01*
X112418367Y-72994616D02*
X112504325Y-72754380D01*
X112309276Y-73225271D02*
X112418367Y-72994616D01*
X112178101Y-73444122D02*
X112309276Y-73225271D01*
X112026108Y-73649062D02*
X112178101Y-73444122D01*
X111854758Y-73838117D02*
X112026108Y-73649062D01*
X111665703Y-74009467D02*
X111854758Y-73838117D01*
X111460763Y-74161460D02*
X111665703Y-74009467D01*
X111241912Y-74292635D02*
X111460763Y-74161460D01*
X111011257Y-74401726D02*
X111241912Y-74292635D01*
X110771021Y-74487684D02*
X111011257Y-74401726D01*
X110523515Y-74549681D02*
X110771021Y-74487684D01*
X110271125Y-74587120D02*
X110523515Y-74549681D01*
X110016280Y-74599640D02*
X110271125Y-74587120D01*
X193917500Y-49679000D02*
X193917500Y-52060000D01*
X193917500Y-49679000D02*
X193907869Y-49482965D01*
X193907869Y-49482965D02*
X193879070Y-49288819D01*
X193879070Y-49288819D02*
X193831380Y-49098430D01*
X193831380Y-49098430D02*
X193765259Y-48913633D01*
X193765259Y-48913633D02*
X193681342Y-48736206D01*
X193681342Y-48736206D02*
X193580439Y-48567859D01*
X193580439Y-48567859D02*
X193463520Y-48410213D01*
X193463520Y-48410213D02*
X193331713Y-48264786D01*
X193331713Y-48264786D02*
X193186286Y-48132979D01*
X193186286Y-48132979D02*
X193028640Y-48016060D01*
X193028640Y-48016060D02*
X192860293Y-47915157D01*
X192860293Y-47915157D02*
X192682866Y-47831240D01*
X192682866Y-47831240D02*
X192498069Y-47765119D01*
X192498069Y-47765119D02*
X192307680Y-47717429D01*
X192307680Y-47717429D02*
X192113534Y-47688630D01*
X192113534Y-47688630D02*
X191917500Y-47679000D01*
X191917500Y-47679000D02*
X186638780Y-47679000D01*
X104690648Y-74599640D02*
X110016280Y-74599640D01*
X104521935Y-74768353D02*
X104690648Y-74599640D01*
X103956250Y-74768353D02*
X104521935Y-74768353D01*
X115366280Y-65076850D02*
X115096732Y-65090092D01*
X115096732Y-65090092D02*
X114829781Y-65129690D01*
X114829781Y-65129690D02*
X114567997Y-65195264D01*
X114567997Y-65195264D02*
X114313900Y-65286181D01*
X114313900Y-65286181D02*
X114069938Y-65401566D01*
X114069938Y-65401566D02*
X113838461Y-65540308D01*
X113838461Y-65540308D02*
X113621698Y-65701071D01*
X113621698Y-65701071D02*
X113421736Y-65882306D01*
X113421736Y-65882306D02*
X113240501Y-66082268D01*
X113240501Y-66082268D02*
X113079738Y-66299031D01*
X113079738Y-66299031D02*
X112940996Y-66530508D01*
X112940996Y-66530508D02*
X112825611Y-66774470D01*
X112825611Y-66774470D02*
X112734694Y-67028567D01*
X112734694Y-67028567D02*
X112669120Y-67290351D01*
X112669120Y-67290351D02*
X112629522Y-67557302D01*
X112629522Y-67557302D02*
X112616280Y-67826850D01*
X112616280Y-67826850D02*
X112616280Y-71999640D01*
X132626280Y-62576850D02*
X132614241Y-62821892D01*
X132614241Y-62821892D02*
X132578243Y-63064575D01*
X132578243Y-63064575D02*
X132518630Y-63302561D01*
X132518630Y-63302561D02*
X132435978Y-63533558D01*
X132435978Y-63533558D02*
X132331083Y-63755341D01*
X132331083Y-63755341D02*
X132204954Y-63965775D01*
X132204954Y-63965775D02*
X132058806Y-64162833D01*
X132058806Y-64162833D02*
X131894046Y-64344616D01*
X131894046Y-64344616D02*
X131712263Y-64509376D01*
X131712263Y-64509376D02*
X131515205Y-64655524D01*
X131515205Y-64655524D02*
X131304771Y-64781653D01*
X131304771Y-64781653D02*
X131082988Y-64886548D01*
X131082988Y-64886548D02*
X130851991Y-64969200D01*
X130851991Y-64969200D02*
X130614005Y-65028813D01*
X130614005Y-65028813D02*
X130371322Y-65064811D01*
X130371322Y-65064811D02*
X130126280Y-65076850D01*
X130126280Y-65076850D02*
X115366280Y-65076850D01*
X135126280Y-49357002D02*
X152389980Y-49357002D01*
X135126280Y-49357002D02*
X134881237Y-49369040D01*
X134881237Y-49369040D02*
X134638554Y-49405038D01*
X134638554Y-49405038D02*
X134400568Y-49464651D01*
X134400568Y-49464651D02*
X134169571Y-49547303D01*
X134169571Y-49547303D02*
X133947788Y-49652198D01*
X133947788Y-49652198D02*
X133737354Y-49778327D01*
X133737354Y-49778327D02*
X133540296Y-49924475D01*
X133540296Y-49924475D02*
X133358513Y-50089235D01*
X133358513Y-50089235D02*
X133193753Y-50271018D01*
X133193753Y-50271018D02*
X133047605Y-50468076D01*
X133047605Y-50468076D02*
X132921476Y-50678510D01*
X132921476Y-50678510D02*
X132816581Y-50900293D01*
X132816581Y-50900293D02*
X132733929Y-51131290D01*
X132733929Y-51131290D02*
X132674316Y-51369276D01*
X132674316Y-51369276D02*
X132638318Y-51611959D01*
X132638318Y-51611959D02*
X132626280Y-51857002D01*
X132626280Y-51857002D02*
X132626280Y-62576850D01*
X174867500Y-48885000D02*
X174867500Y-67935000D01*
X174867500Y-67935000D02*
X174867500Y-86985000D01*
X174867500Y-86985000D02*
X174867500Y-106035000D01*
X104935297Y-75424703D02*
X104724572Y-75635428D01*
X110216290Y-75424703D02*
X104935297Y-75424703D01*
X110500540Y-75410738D02*
X110216290Y-75424703D01*
X110782052Y-75368980D02*
X110500540Y-75410738D01*
X111058116Y-75299829D02*
X110782052Y-75368980D01*
X111326072Y-75203953D02*
X111058116Y-75299829D01*
X111583341Y-75082274D02*
X111326072Y-75203953D01*
X111827444Y-74935964D02*
X111583341Y-75082274D01*
X112056031Y-74766433D02*
X111827444Y-74935964D01*
X112266900Y-74575312D02*
X112056031Y-74766433D01*
X112458021Y-74364443D02*
X112266900Y-74575312D01*
X112627552Y-74135856D02*
X112458021Y-74364443D01*
X112773862Y-73891753D02*
X112627552Y-74135856D01*
X112895541Y-73634484D02*
X112773862Y-73891753D01*
X112991417Y-73366528D02*
X112895541Y-73634484D01*
X113060568Y-73090464D02*
X112991417Y-73366528D01*
X113102326Y-72808952D02*
X113060568Y-73090464D01*
X113116290Y-72524703D02*
X113102326Y-72808952D01*
X154189990Y-48399133D02*
X154189990Y-48507012D01*
X154214970Y-48145515D02*
X154196250Y-48271710D01*
X154245968Y-48021762D02*
X154214970Y-48145515D01*
X174824440Y-47808848D02*
X174791379Y-47716449D01*
X154485077Y-47574421D02*
X154409080Y-47676891D01*
X154570752Y-47479894D02*
X154485077Y-47574421D01*
X154877175Y-47252635D02*
X154767749Y-47318222D01*
X154992502Y-47198089D02*
X154877175Y-47252635D01*
X155112620Y-47155110D02*
X154992502Y-47198089D01*
X155362568Y-47105392D02*
X155236373Y-47124112D01*
X155489990Y-47099133D02*
X155362568Y-47105392D01*
X174867500Y-48885000D02*
X174867500Y-48099133D01*
X173965517Y-47103948D02*
X173867500Y-47099133D01*
X174791379Y-47716449D02*
X174749421Y-47627736D01*
X153017413Y-49800752D02*
X152889990Y-49807012D01*
X174574606Y-47392026D02*
X174501893Y-47326122D01*
X174423070Y-47267663D02*
X174338896Y-47217211D01*
X154189990Y-48507012D02*
X154183731Y-48634434D01*
X154288947Y-47901644D02*
X154245968Y-48021762D01*
X104724572Y-75635428D02*
X104456250Y-75635428D01*
X174848285Y-47904042D02*
X174824440Y-47808848D01*
X154036488Y-49119827D02*
X153970901Y-49229253D01*
X174862684Y-48001115D02*
X174848285Y-47904042D01*
X154665279Y-47394219D02*
X154570752Y-47479894D01*
X174640510Y-47464739D02*
X174574606Y-47392026D01*
X174501893Y-47326122D02*
X174423070Y-47267663D01*
X174250183Y-47175253D02*
X174157784Y-47142192D01*
X154196250Y-48271710D02*
X154189990Y-48399133D01*
X174338896Y-47217211D02*
X174250183Y-47175253D01*
X174749421Y-47627736D02*
X174698969Y-47543562D01*
X154409080Y-47676891D02*
X154343493Y-47786317D01*
X174867500Y-48099133D02*
X174862684Y-48001115D01*
X174698969Y-47543562D02*
X174640510Y-47464739D01*
X174157784Y-47142192D02*
X174062590Y-47118347D01*
X154343493Y-47786317D02*
X154288947Y-47901644D01*
X174062590Y-47118347D02*
X173965517Y-47103948D01*
X154183731Y-48634434D02*
X154165011Y-48760629D01*
X154165011Y-48760629D02*
X154134013Y-48884382D01*
X153894904Y-49331723D02*
X153809229Y-49426250D01*
X153714702Y-49511925D02*
X153612232Y-49587922D01*
X153612232Y-49587922D02*
X153502806Y-49653509D01*
X153502806Y-49653509D02*
X153387479Y-49708055D01*
X153387479Y-49708055D02*
X153267361Y-49751034D01*
X153267361Y-49751034D02*
X153143608Y-49782032D01*
X154767749Y-47318222D02*
X154665279Y-47394219D01*
X153143608Y-49782032D02*
X153017413Y-49800752D01*
X155236373Y-47124112D02*
X155112620Y-47155110D01*
X153970901Y-49229253D02*
X153894904Y-49331723D01*
X154134013Y-48884382D02*
X154091034Y-49004500D01*
X154091034Y-49004500D02*
X154036488Y-49119827D01*
X153809229Y-49426250D02*
X153714702Y-49511925D01*
X173867500Y-47099133D02*
X155489990Y-47099133D01*
X115616290Y-65526860D02*
X115371247Y-65538898D01*
X115371247Y-65538898D02*
X115128564Y-65574896D01*
X115128564Y-65574896D02*
X114890578Y-65634509D01*
X114890578Y-65634509D02*
X114659581Y-65717161D01*
X114659581Y-65717161D02*
X114437798Y-65822056D01*
X114437798Y-65822056D02*
X114227364Y-65948185D01*
X114227364Y-65948185D02*
X114030306Y-66094333D01*
X114030306Y-66094333D02*
X113848523Y-66259093D01*
X113848523Y-66259093D02*
X113683763Y-66440876D01*
X113683763Y-66440876D02*
X113537615Y-66637934D01*
X113537615Y-66637934D02*
X113411486Y-66848368D01*
X113411486Y-66848368D02*
X113306591Y-67070151D01*
X113306591Y-67070151D02*
X113223939Y-67301148D01*
X113223939Y-67301148D02*
X113164326Y-67539134D01*
X113164326Y-67539134D02*
X113128328Y-67781817D01*
X113128328Y-67781817D02*
X113116290Y-68026860D01*
X113116290Y-68026860D02*
X113116290Y-72524703D01*
X133126290Y-62776860D02*
X133113047Y-63046407D01*
X133113047Y-63046407D02*
X133073449Y-63313358D01*
X133073449Y-63313358D02*
X133007875Y-63575142D01*
X133007875Y-63575142D02*
X132916958Y-63829239D01*
X132916958Y-63829239D02*
X132801573Y-64073201D01*
X132801573Y-64073201D02*
X132662831Y-64304678D01*
X132662831Y-64304678D02*
X132502068Y-64521441D01*
X132502068Y-64521441D02*
X132320833Y-64721403D01*
X132320833Y-64721403D02*
X132120871Y-64902638D01*
X132120871Y-64902638D02*
X131904108Y-65063401D01*
X131904108Y-65063401D02*
X131672631Y-65202143D01*
X131672631Y-65202143D02*
X131428669Y-65317528D01*
X131428669Y-65317528D02*
X131174572Y-65408445D01*
X131174572Y-65408445D02*
X130912788Y-65474019D01*
X130912788Y-65474019D02*
X130645837Y-65513617D01*
X130645837Y-65513617D02*
X130376290Y-65526860D01*
X130376290Y-65526860D02*
X115616290Y-65526860D01*
X135376290Y-49807012D02*
X152889990Y-49807012D01*
X135376290Y-49807012D02*
X135155751Y-49817846D01*
X135155751Y-49817846D02*
X134937336Y-49850245D01*
X134937336Y-49850245D02*
X134723149Y-49903896D01*
X134723149Y-49903896D02*
X134515252Y-49978283D01*
X134515252Y-49978283D02*
X134315647Y-50072689D01*
X134315647Y-50072689D02*
X134126256Y-50186205D01*
X134126256Y-50186205D02*
X133948905Y-50317738D01*
X133948905Y-50317738D02*
X133785299Y-50466021D01*
X133785299Y-50466021D02*
X133637016Y-50629627D01*
X133637016Y-50629627D02*
X133505483Y-50806978D01*
X133505483Y-50806978D02*
X133391967Y-50996369D01*
X133391967Y-50996369D02*
X133297561Y-51195974D01*
X133297561Y-51195974D02*
X133223174Y-51403871D01*
X133223174Y-51403871D02*
X133169523Y-51618058D01*
X133169523Y-51618058D02*
X133137124Y-51836473D01*
X133137124Y-51836473D02*
X133126290Y-52057012D01*
X133126290Y-52057012D02*
X133126290Y-62776860D01*
X155817500Y-52060000D02*
X155817500Y-71110000D01*
X155817500Y-71110000D02*
X155817500Y-90160000D01*
X155817500Y-90160000D02*
X155817500Y-109210000D01*
X155817500Y-132020872D02*
X155826816Y-132030188D01*
X155817500Y-109210000D02*
X155817500Y-132020872D01*
X154014522Y-50257022D02*
X155817500Y-52060000D01*
X111040590Y-76179241D02*
X111345211Y-76102938D01*
X113554813Y-73665018D02*
X113600892Y-73354383D01*
X112194125Y-75701431D02*
X112446359Y-75514362D01*
X111924770Y-75862877D02*
X112194125Y-75701431D01*
X110729955Y-76225320D02*
X111040590Y-76179241D01*
X113600892Y-73354383D02*
X113616300Y-73040729D01*
X113478510Y-73969639D02*
X113554813Y-73665018D01*
X113372715Y-74265315D02*
X113478510Y-73969639D01*
X113238449Y-74549198D02*
X113372715Y-74265315D01*
X111345211Y-76102938D02*
X111640887Y-75997143D01*
X112889934Y-75070787D02*
X113077003Y-74818553D01*
X111640887Y-75997143D02*
X111924770Y-75862877D01*
X110416300Y-76240729D02*
X110729955Y-76225320D01*
X112446359Y-75514362D02*
X112679042Y-75303470D01*
X113077003Y-74818553D02*
X113238449Y-74549198D01*
X112679042Y-75303470D02*
X112889934Y-75070787D01*
X105834374Y-76240729D02*
X105930729Y-76240729D01*
X105521935Y-76553168D02*
X105834374Y-76240729D01*
X104956250Y-76553168D02*
X105521935Y-76553168D01*
X110416300Y-76240729D02*
X105930729Y-76240729D01*
X115866300Y-65976870D02*
X115645761Y-65987704D01*
X115645761Y-65987704D02*
X115427346Y-66020103D01*
X115427346Y-66020103D02*
X115213159Y-66073754D01*
X115213159Y-66073754D02*
X115005262Y-66148141D01*
X115005262Y-66148141D02*
X114805657Y-66242547D01*
X114805657Y-66242547D02*
X114616266Y-66356063D01*
X114616266Y-66356063D02*
X114438915Y-66487596D01*
X114438915Y-66487596D02*
X114275309Y-66635879D01*
X114275309Y-66635879D02*
X114127026Y-66799485D01*
X114127026Y-66799485D02*
X113995493Y-66976836D01*
X113995493Y-66976836D02*
X113881977Y-67166227D01*
X113881977Y-67166227D02*
X113787571Y-67365832D01*
X113787571Y-67365832D02*
X113713184Y-67573729D01*
X113713184Y-67573729D02*
X113659533Y-67787916D01*
X113659533Y-67787916D02*
X113627134Y-68006331D01*
X113627134Y-68006331D02*
X113616300Y-68226870D01*
X113616300Y-68226870D02*
X113616300Y-73040729D01*
X133626300Y-62976870D02*
X133611854Y-63270921D01*
X133611854Y-63270921D02*
X133568655Y-63562140D01*
X133568655Y-63562140D02*
X133497121Y-63847724D01*
X133497121Y-63847724D02*
X133397938Y-64124920D01*
X133397938Y-64124920D02*
X133272063Y-64391060D01*
X133272063Y-64391060D02*
X133120708Y-64643580D01*
X133120708Y-64643580D02*
X132945331Y-64880049D01*
X132945331Y-64880049D02*
X132747620Y-65098190D01*
X132747620Y-65098190D02*
X132529479Y-65295901D01*
X132529479Y-65295901D02*
X132293010Y-65471278D01*
X132293010Y-65471278D02*
X132040490Y-65622633D01*
X132040490Y-65622633D02*
X131774350Y-65748508D01*
X131774350Y-65748508D02*
X131497154Y-65847691D01*
X131497154Y-65847691D02*
X131211570Y-65919225D01*
X131211570Y-65919225D02*
X130920351Y-65962424D01*
X130920351Y-65962424D02*
X130626300Y-65976870D01*
X130626300Y-65976870D02*
X115866300Y-65976870D01*
X135626300Y-50257022D02*
X154014522Y-50257022D01*
X135626300Y-50257022D02*
X135430265Y-50266652D01*
X135430265Y-50266652D02*
X135236119Y-50295451D01*
X135236119Y-50295451D02*
X135045730Y-50343141D01*
X135045730Y-50343141D02*
X134860933Y-50409262D01*
X134860933Y-50409262D02*
X134683506Y-50493179D01*
X134683506Y-50493179D02*
X134515159Y-50594082D01*
X134515159Y-50594082D02*
X134357513Y-50711001D01*
X134357513Y-50711001D02*
X134212086Y-50842808D01*
X134212086Y-50842808D02*
X134080279Y-50988235D01*
X134080279Y-50988235D02*
X133963360Y-51145881D01*
X133963360Y-51145881D02*
X133862457Y-51314228D01*
X133862457Y-51314228D02*
X133778540Y-51491655D01*
X133778540Y-51491655D02*
X133712419Y-51676452D01*
X133712419Y-51676452D02*
X133664729Y-51866841D01*
X133664729Y-51866841D02*
X133635930Y-52060987D01*
X133635930Y-52060987D02*
X133626300Y-52257022D01*
X133626300Y-52257022D02*
X133626300Y-62976870D01*
X108477002Y-105752998D02*
X105717500Y-108512500D01*
X106117499Y-108112501D02*
X105717500Y-108512500D01*
X109597002Y-104632998D02*
X106117499Y-108112501D01*
X109597002Y-85931249D02*
X109597002Y-104632998D01*
X109197003Y-85531250D02*
X109597002Y-85931249D01*
X110065158Y-112094842D02*
X105710000Y-116450000D01*
X110065158Y-85031250D02*
X110065158Y-112094842D01*
X109842174Y-120252826D02*
X105707500Y-124387500D01*
X110962174Y-119132826D02*
X105707500Y-124387500D01*
X110962174Y-84531250D02*
X110962174Y-119132826D01*
X110702439Y-127327561D02*
X105705000Y-132325000D01*
X111822439Y-126207561D02*
X105705000Y-132325000D01*
X111822439Y-84010000D02*
X111822439Y-126207561D01*
X136765162Y-112387338D02*
X136767500Y-112385000D01*
X136765162Y-135867649D02*
X136765162Y-112387338D01*
X136767500Y-110794010D02*
X136767500Y-93335000D01*
X136767500Y-112385000D02*
X136767500Y-110794010D01*
X136767500Y-76318998D02*
X136767500Y-74285000D01*
X136767500Y-93335000D02*
X136767500Y-76318998D01*
X105936210Y-76940730D02*
X105459810Y-77417130D01*
X110616310Y-76940730D02*
X105936210Y-76940730D01*
X114049059Y-74123546D02*
X113965602Y-74456726D01*
X111632307Y-76790021D02*
X111299127Y-76873478D01*
X112266199Y-76527454D02*
X111955703Y-76674308D01*
X111955703Y-76674308D02*
X111632307Y-76790021D01*
X114116310Y-73440730D02*
X114099457Y-73783789D01*
X114099457Y-73783789D02*
X114049059Y-74123546D01*
X113965602Y-74456726D02*
X113849889Y-74780122D01*
X113849889Y-74780122D02*
X113703035Y-75090618D01*
X111299127Y-76873478D02*
X110959370Y-76923876D01*
X113703035Y-75090618D02*
X113526454Y-75385225D01*
X113526454Y-75385225D02*
X113321847Y-75661106D01*
X113321847Y-75661106D02*
X113091184Y-75915603D01*
X113091184Y-75915603D02*
X112836687Y-76146266D01*
X112836687Y-76146266D02*
X112560806Y-76350873D01*
X112560806Y-76350873D02*
X112266199Y-76527454D01*
X110959370Y-76923876D02*
X110616310Y-76940730D01*
X134126310Y-56235000D02*
X134131125Y-56136982D01*
X134131125Y-56136982D02*
X134145524Y-56039909D01*
X134145524Y-56039909D02*
X134169369Y-55944715D01*
X134169369Y-55944715D02*
X134202430Y-55852316D01*
X134202430Y-55852316D02*
X134244388Y-55763603D01*
X134244388Y-55763603D02*
X134294840Y-55679429D01*
X134294840Y-55679429D02*
X134353299Y-55600606D01*
X134353299Y-55600606D02*
X134419203Y-55527893D01*
X134419203Y-55527893D02*
X134491916Y-55461989D01*
X134491916Y-55461989D02*
X134570739Y-55403530D01*
X134570739Y-55403530D02*
X134654913Y-55353078D01*
X134654913Y-55353078D02*
X134743626Y-55311120D01*
X134743626Y-55311120D02*
X134836025Y-55278059D01*
X134836025Y-55278059D02*
X134931219Y-55254214D01*
X134931219Y-55254214D02*
X135028292Y-55239815D01*
X135028292Y-55239815D02*
X135126310Y-55235000D01*
X135126310Y-55235000D02*
X136767500Y-55235000D01*
X116116310Y-66426880D02*
X115920275Y-66436510D01*
X115920275Y-66436510D02*
X115726129Y-66465309D01*
X115726129Y-66465309D02*
X115535740Y-66512999D01*
X115535740Y-66512999D02*
X115350943Y-66579120D01*
X115350943Y-66579120D02*
X115173516Y-66663037D01*
X115173516Y-66663037D02*
X115005169Y-66763940D01*
X115005169Y-66763940D02*
X114847523Y-66880859D01*
X114847523Y-66880859D02*
X114702096Y-67012666D01*
X114702096Y-67012666D02*
X114570289Y-67158093D01*
X114570289Y-67158093D02*
X114453370Y-67315739D01*
X114453370Y-67315739D02*
X114352467Y-67484086D01*
X114352467Y-67484086D02*
X114268550Y-67661513D01*
X114268550Y-67661513D02*
X114202429Y-67846310D01*
X114202429Y-67846310D02*
X114154739Y-68036699D01*
X114154739Y-68036699D02*
X114125940Y-68230845D01*
X114125940Y-68230845D02*
X114116310Y-68426880D01*
X114116310Y-68426880D02*
X114116310Y-73440730D01*
X134126310Y-63176880D02*
X134126310Y-56235000D01*
X134126310Y-63176880D02*
X134110660Y-63495435D01*
X134110660Y-63495435D02*
X134063862Y-63810923D01*
X134063862Y-63810923D02*
X133986366Y-64120305D01*
X133986366Y-64120305D02*
X133878918Y-64420601D01*
X133878918Y-64420601D02*
X133742554Y-64708919D01*
X133742554Y-64708919D02*
X133578586Y-64982483D01*
X133578586Y-64982483D02*
X133388593Y-65238658D01*
X133388593Y-65238658D02*
X133174407Y-65474977D01*
X133174407Y-65474977D02*
X132938088Y-65689163D01*
X132938088Y-65689163D02*
X132681913Y-65879156D01*
X132681913Y-65879156D02*
X132408349Y-66043124D01*
X132408349Y-66043124D02*
X132120031Y-66179488D01*
X132120031Y-66179488D02*
X131819735Y-66286936D01*
X131819735Y-66286936D02*
X131510353Y-66364432D01*
X131510353Y-66364432D02*
X131194865Y-66411230D01*
X131194865Y-66411230D02*
X130876310Y-66426880D01*
X130876310Y-66426880D02*
X116116310Y-66426880D01*
X136819999Y-58333501D02*
X136819999Y-70348751D01*
X136767500Y-55235000D02*
X136767500Y-58281002D01*
X136767500Y-58281002D02*
X136819999Y-58333501D01*
X136767500Y-70401250D02*
X136767500Y-74285000D01*
X136819999Y-70348751D02*
X136767500Y-70401250D01*
X117717500Y-120007571D02*
X116392422Y-121332649D01*
X117717500Y-96510000D02*
X117717500Y-120007571D01*
X117692422Y-122632649D02*
X116392422Y-121332649D01*
X117692422Y-140662649D02*
X117692422Y-122632649D01*
X116891162Y-78286338D02*
X117717500Y-77460000D01*
X105956250Y-78286338D02*
X116891162Y-78286338D01*
X119030000Y-57097500D02*
X117717500Y-58410000D01*
X119030000Y-54050000D02*
X119030000Y-57097500D01*
X117160000Y-76902500D02*
X117717500Y-77460000D01*
X117160000Y-68690000D02*
X117160000Y-76902500D01*
D19*
X106470000Y-60310000D02*
X104000000Y-60310000D01*
X108910000Y-60310000D02*
X106470000Y-60310000D01*
X108896250Y-60296250D02*
X108910000Y-60310000D01*
X103996250Y-60306250D02*
X104000000Y-60310000D01*
X104000000Y-60310000D02*
X103600001Y-59910001D01*
X103600001Y-59910001D02*
X101680001Y-59910001D01*
X106470000Y-63699998D02*
X108039998Y-63699998D01*
X99700000Y-57930000D02*
X95600000Y-57930000D01*
X101680001Y-59910001D02*
X99700000Y-57930000D01*
X95600000Y-57930000D02*
X92950000Y-57930000D01*
X109559998Y-63699998D02*
X110480000Y-64620000D01*
X108039998Y-63699998D02*
X109559998Y-63699998D01*
D18*
X103601250Y-86731250D02*
X100731250Y-86731250D01*
X104730000Y-87860000D02*
X103601250Y-86731250D01*
X98320000Y-72080000D02*
X97430000Y-71190000D01*
X98320000Y-81240000D02*
X98320000Y-72080000D01*
D19*
X96837500Y-80962500D02*
X96837500Y-88106250D01*
X106869270Y-92361980D02*
X107156250Y-92075000D01*
X100293864Y-92361980D02*
X106869270Y-92361980D01*
X107156250Y-85462500D02*
X109537500Y-83081250D01*
X107156250Y-92075000D02*
X107156250Y-85462500D01*
D20*
G36*
X112669250Y-64073092D02*
G01*
X112637910Y-64091877D01*
X112338117Y-64314220D01*
X112321760Y-64326351D01*
X112113238Y-64515343D01*
X112113239Y-64515343D01*
X112030109Y-64590687D01*
X111765781Y-64882330D01*
X111765779Y-64882333D01*
X111531307Y-65198480D01*
X111473628Y-65294711D01*
X111473627Y-65294713D01*
X111386624Y-65439869D01*
X111328945Y-65536100D01*
X111208625Y-65790498D01*
X111208624Y-65790499D01*
X111160655Y-65891921D01*
X111028053Y-66262518D01*
X111009093Y-66338212D01*
X110932412Y-66644336D01*
X110932411Y-66644343D01*
X110874657Y-67033689D01*
X110873995Y-67047173D01*
X110858091Y-67370904D01*
X110856260Y-67389498D01*
X110856260Y-67408183D01*
X110855344Y-67426829D01*
X110856260Y-67445472D01*
X110856261Y-70837591D01*
X110849378Y-70977701D01*
X110831536Y-71097981D01*
X110801990Y-71215936D01*
X110761024Y-71330428D01*
X110709036Y-71440348D01*
X110646519Y-71544652D01*
X110574086Y-71642316D01*
X110492426Y-71732413D01*
X110402323Y-71814077D01*
X110304662Y-71886509D01*
X110200362Y-71949023D01*
X110090439Y-72001013D01*
X109975949Y-72041979D01*
X109857993Y-72071525D01*
X109737711Y-72089367D01*
X109634955Y-72094415D01*
X109616259Y-72092574D01*
X109560349Y-72098081D01*
X109541679Y-72098998D01*
X109523188Y-72101741D01*
X109467274Y-72107248D01*
X109458202Y-72110000D01*
X104053711Y-72110000D01*
X104009774Y-72066063D01*
X103840256Y-71952795D01*
X103651898Y-71874774D01*
X103451939Y-71835000D01*
X103248061Y-71835000D01*
X103048102Y-71874774D01*
X102859744Y-71952795D01*
X102690226Y-72066063D01*
X102546063Y-72210226D01*
X102432795Y-72379744D01*
X102354774Y-72568102D01*
X102315000Y-72768061D01*
X102315000Y-72971939D01*
X102354774Y-73171898D01*
X102432795Y-73360256D01*
X102510307Y-73476261D01*
X102461024Y-73595239D01*
X102421250Y-73795198D01*
X102421250Y-73999076D01*
X102461024Y-74199035D01*
X102539045Y-74387393D01*
X102652313Y-74556911D01*
X102796476Y-74701074D01*
X102921250Y-74784445D01*
X102921250Y-74870292D01*
X102961024Y-75070251D01*
X103039045Y-75258609D01*
X103152313Y-75428127D01*
X103296476Y-75572290D01*
X103421250Y-75655661D01*
X103421250Y-75737367D01*
X103461024Y-75937326D01*
X103539045Y-76125684D01*
X103652313Y-76295202D01*
X103796476Y-76439365D01*
X103921250Y-76522736D01*
X103921250Y-76655107D01*
X103961024Y-76855066D01*
X104039045Y-77043424D01*
X104152313Y-77212942D01*
X104296476Y-77357105D01*
X104424810Y-77442855D01*
X104424810Y-77519069D01*
X104464584Y-77719028D01*
X104542605Y-77907386D01*
X104655873Y-78076904D01*
X104800036Y-78221067D01*
X104921250Y-78302059D01*
X104921250Y-78388277D01*
X104961024Y-78588236D01*
X105039045Y-78776594D01*
X105152313Y-78946112D01*
X105296476Y-79090275D01*
X105465994Y-79203543D01*
X105654352Y-79281564D01*
X105854311Y-79321338D01*
X106058189Y-79321338D01*
X106258148Y-79281564D01*
X106446506Y-79203543D01*
X106616024Y-79090275D01*
X106659961Y-79046338D01*
X112669250Y-79046338D01*
X112669250Y-81146239D01*
X107051086Y-81146239D01*
X107013761Y-81142563D01*
X106976436Y-81146239D01*
X106976428Y-81146239D01*
X106864775Y-81157236D01*
X106721514Y-81200693D01*
X106589485Y-81271265D01*
X106473760Y-81366238D01*
X106449962Y-81395236D01*
X104250199Y-83595000D01*
X104188061Y-83595000D01*
X103988102Y-83634774D01*
X103799744Y-83712795D01*
X103630226Y-83826063D01*
X103486063Y-83970226D01*
X103372795Y-84139744D01*
X103294774Y-84328102D01*
X103255000Y-84528061D01*
X103255000Y-84731939D01*
X103294774Y-84931898D01*
X103372795Y-85120256D01*
X103486063Y-85289774D01*
X103630226Y-85433937D01*
X103799744Y-85547205D01*
X103988102Y-85625226D01*
X104188061Y-85665000D01*
X104391939Y-85665000D01*
X104591898Y-85625226D01*
X104780256Y-85547205D01*
X104812585Y-85525604D01*
X104919744Y-85597205D01*
X105108102Y-85675226D01*
X105308061Y-85715000D01*
X105511939Y-85715000D01*
X105711898Y-85675226D01*
X105900256Y-85597205D01*
X106069774Y-85483937D01*
X106213937Y-85339774D01*
X106314155Y-85189786D01*
X106284055Y-85289010D01*
X106266969Y-85462500D01*
X106271251Y-85505979D01*
X106271250Y-91476980D01*
X100832318Y-91476980D01*
X100784120Y-91444775D01*
X100595762Y-91366754D01*
X100395803Y-91326980D01*
X100191925Y-91326980D01*
X99991966Y-91366754D01*
X99803608Y-91444775D01*
X99634090Y-91558043D01*
X99489927Y-91702206D01*
X99376659Y-91871724D01*
X99298638Y-92060082D01*
X99258864Y-92260041D01*
X99258864Y-92463919D01*
X99298638Y-92663878D01*
X99376659Y-92852236D01*
X99489927Y-93021754D01*
X99634090Y-93165917D01*
X99803608Y-93279185D01*
X99991966Y-93357206D01*
X100191925Y-93396980D01*
X100395803Y-93396980D01*
X100595762Y-93357206D01*
X100784120Y-93279185D01*
X100832318Y-93246980D01*
X106825801Y-93246980D01*
X106869270Y-93251261D01*
X106912739Y-93246980D01*
X106912747Y-93246980D01*
X107042760Y-93234175D01*
X107209583Y-93183569D01*
X107363329Y-93101391D01*
X107383118Y-93085150D01*
X107458148Y-93070226D01*
X107646506Y-92992205D01*
X107795205Y-92892848D01*
X107795205Y-97429993D01*
X106302198Y-98923000D01*
X92732878Y-98923000D01*
X92732878Y-80860561D01*
X95802500Y-80860561D01*
X95802500Y-81064439D01*
X95842274Y-81264398D01*
X95920295Y-81452756D01*
X95952500Y-81500954D01*
X95952501Y-87567794D01*
X95920295Y-87615994D01*
X95842274Y-87804352D01*
X95802500Y-88004311D01*
X95802500Y-88208189D01*
X95842274Y-88408148D01*
X95920295Y-88596506D01*
X96033563Y-88766024D01*
X96177726Y-88910187D01*
X96347244Y-89023455D01*
X96535602Y-89101476D01*
X96735561Y-89141250D01*
X96939439Y-89141250D01*
X97139398Y-89101476D01*
X97327756Y-89023455D01*
X97497274Y-88910187D01*
X97641437Y-88766024D01*
X97754705Y-88596506D01*
X97832726Y-88408148D01*
X97872500Y-88208189D01*
X97872500Y-88004311D01*
X97832726Y-87804352D01*
X97754705Y-87615994D01*
X97722500Y-87567796D01*
X97722500Y-82085547D01*
X97829744Y-82157205D01*
X98018102Y-82235226D01*
X98218061Y-82275000D01*
X98421939Y-82275000D01*
X98621898Y-82235226D01*
X98810256Y-82157205D01*
X98979774Y-82043937D01*
X99123937Y-81899774D01*
X99237205Y-81730256D01*
X99315226Y-81541898D01*
X99355000Y-81341939D01*
X99355000Y-81138061D01*
X99315226Y-80938102D01*
X99237205Y-80749744D01*
X99123937Y-80580226D01*
X99080000Y-80536289D01*
X99080000Y-72117322D01*
X99083676Y-72079999D01*
X99080000Y-72042676D01*
X99080000Y-72042667D01*
X99069003Y-71931014D01*
X99025546Y-71787753D01*
X99003892Y-71747241D01*
X98954974Y-71655723D01*
X98883799Y-71568997D01*
X98860001Y-71539999D01*
X98831003Y-71516201D01*
X98465000Y-71150198D01*
X98465000Y-71088061D01*
X98425226Y-70888102D01*
X98347205Y-70699744D01*
X98233937Y-70530226D01*
X98089774Y-70386063D01*
X97920256Y-70272795D01*
X97731898Y-70194774D01*
X97531939Y-70155000D01*
X97328061Y-70155000D01*
X97128102Y-70194774D01*
X96939744Y-70272795D01*
X96770226Y-70386063D01*
X96626063Y-70530226D01*
X96512795Y-70699744D01*
X96434774Y-70888102D01*
X96395000Y-71088061D01*
X96395000Y-71291939D01*
X96434774Y-71491898D01*
X96512795Y-71680256D01*
X96626063Y-71849774D01*
X96770226Y-71993937D01*
X96939744Y-72107205D01*
X97128102Y-72185226D01*
X97328061Y-72225000D01*
X97390198Y-72225000D01*
X97560001Y-72394803D01*
X97560000Y-80221289D01*
X97497274Y-80158563D01*
X97327756Y-80045295D01*
X97139398Y-79967274D01*
X96939439Y-79927500D01*
X96735561Y-79927500D01*
X96535602Y-79967274D01*
X96347244Y-80045295D01*
X96177726Y-80158563D01*
X96033563Y-80302726D01*
X95920295Y-80472244D01*
X95842274Y-80660602D01*
X95802500Y-80860561D01*
X92732878Y-80860561D01*
X92732878Y-63449590D01*
X92950000Y-63470975D01*
X93192101Y-63447130D01*
X93424900Y-63376511D01*
X93639448Y-63261833D01*
X93767188Y-63157000D01*
X96315000Y-63157000D01*
X96315000Y-63457000D01*
X96363507Y-63695496D01*
X96457610Y-63919946D01*
X96593693Y-64121725D01*
X96766526Y-64293078D01*
X96969467Y-64427421D01*
X97194718Y-64519591D01*
X97232391Y-64523462D01*
X97423000Y-64398731D01*
X97423000Y-63157000D01*
X97677000Y-63157000D01*
X97677000Y-64398731D01*
X97867609Y-64523462D01*
X97905282Y-64519591D01*
X98130533Y-64427421D01*
X98333474Y-64293078D01*
X98506307Y-64121725D01*
X98642390Y-63919946D01*
X98736493Y-63695496D01*
X98756310Y-63598059D01*
X105435000Y-63598059D01*
X105435000Y-63801937D01*
X105474774Y-64001896D01*
X105552795Y-64190254D01*
X105666063Y-64359772D01*
X105810226Y-64503935D01*
X105979744Y-64617203D01*
X106168102Y-64695224D01*
X106368061Y-64734998D01*
X106571939Y-64734998D01*
X106771898Y-64695224D01*
X106960256Y-64617203D01*
X107008454Y-64584998D01*
X109193420Y-64584998D01*
X109473465Y-64865044D01*
X109484774Y-64921898D01*
X109562795Y-65110256D01*
X109676063Y-65279774D01*
X109820226Y-65423937D01*
X109989744Y-65537205D01*
X110178102Y-65615226D01*
X110378061Y-65655000D01*
X110581939Y-65655000D01*
X110781898Y-65615226D01*
X110970256Y-65537205D01*
X111139774Y-65423937D01*
X111283937Y-65279774D01*
X111397205Y-65110256D01*
X111475226Y-64921898D01*
X111515000Y-64721939D01*
X111515000Y-64518061D01*
X111475226Y-64318102D01*
X111397205Y-64129744D01*
X111283937Y-63960226D01*
X111139774Y-63816063D01*
X110970256Y-63702795D01*
X110781898Y-63624774D01*
X110725044Y-63613465D01*
X110216532Y-63104954D01*
X110188815Y-63071181D01*
X110054057Y-62960587D01*
X109900311Y-62878409D01*
X109733488Y-62827803D01*
X109603475Y-62814998D01*
X109603467Y-62814998D01*
X109559998Y-62810717D01*
X109516529Y-62814998D01*
X107008454Y-62814998D01*
X106960256Y-62782793D01*
X106771898Y-62704772D01*
X106571939Y-62664998D01*
X106368061Y-62664998D01*
X106168102Y-62704772D01*
X105979744Y-62782793D01*
X105810226Y-62896061D01*
X105666063Y-63040224D01*
X105552795Y-63209742D01*
X105474774Y-63398100D01*
X105435000Y-63598059D01*
X98756310Y-63598059D01*
X98785000Y-63457000D01*
X98785000Y-63157000D01*
X97677000Y-63157000D01*
X97423000Y-63157000D01*
X96315000Y-63157000D01*
X93767188Y-63157000D01*
X93827502Y-63107502D01*
X93981833Y-62919449D01*
X94096511Y-62704901D01*
X94127422Y-62603000D01*
X96315000Y-62603000D01*
X96315000Y-62903000D01*
X97423000Y-62903000D01*
X97423000Y-61661269D01*
X97677000Y-61661269D01*
X97677000Y-62903000D01*
X98785000Y-62903000D01*
X98785000Y-62603000D01*
X98736493Y-62364504D01*
X98642390Y-62140054D01*
X98506307Y-61938275D01*
X98333474Y-61766922D01*
X98130533Y-61632579D01*
X97905282Y-61540409D01*
X97867609Y-61536538D01*
X97677000Y-61661269D01*
X97423000Y-61661269D01*
X97232391Y-61536538D01*
X97194718Y-61540409D01*
X96969467Y-61632579D01*
X96766526Y-61766922D01*
X96593693Y-61938275D01*
X96457610Y-62140054D01*
X96363507Y-62364504D01*
X96315000Y-62603000D01*
X94127422Y-62603000D01*
X94167130Y-62472102D01*
X94185000Y-62290665D01*
X94185000Y-61569336D01*
X94167130Y-61387899D01*
X94096511Y-61155099D01*
X93981833Y-60940551D01*
X93827502Y-60752498D01*
X93639449Y-60598167D01*
X93424901Y-60483489D01*
X93192102Y-60412870D01*
X92950000Y-60389025D01*
X92732878Y-60410410D01*
X92732878Y-60193589D01*
X93865000Y-60193589D01*
X93865000Y-60466411D01*
X93918225Y-60733989D01*
X94022629Y-60986043D01*
X94174201Y-61212886D01*
X94367114Y-61405799D01*
X94593957Y-61557371D01*
X94846011Y-61661775D01*
X95113589Y-61715000D01*
X95386411Y-61715000D01*
X95653989Y-61661775D01*
X95906043Y-61557371D01*
X96132886Y-61405799D01*
X96325799Y-61212886D01*
X96477371Y-60986043D01*
X96581775Y-60733989D01*
X96635000Y-60466411D01*
X96635000Y-60193589D01*
X96581775Y-59926011D01*
X96477371Y-59673957D01*
X96325799Y-59447114D01*
X96132886Y-59254201D01*
X95906043Y-59102629D01*
X95653989Y-58998225D01*
X95386411Y-58945000D01*
X95113589Y-58945000D01*
X94846011Y-58998225D01*
X94593957Y-59102629D01*
X94367114Y-59254201D01*
X94174201Y-59447114D01*
X94022629Y-59673957D01*
X93918225Y-59926011D01*
X93865000Y-60193589D01*
X92732878Y-60193589D01*
X92732878Y-59449590D01*
X92950000Y-59470975D01*
X93192101Y-59447130D01*
X93424900Y-59376511D01*
X93639448Y-59261833D01*
X93827502Y-59107502D01*
X93981833Y-58919449D01*
X94037662Y-58815000D01*
X99333422Y-58815000D01*
X101023471Y-60505050D01*
X101051184Y-60538818D01*
X101084952Y-60566531D01*
X101084954Y-60566533D01*
X101123500Y-60598167D01*
X101185942Y-60649412D01*
X101339688Y-60731590D01*
X101506511Y-60782196D01*
X101636524Y-60795001D01*
X101636534Y-60795001D01*
X101680000Y-60799282D01*
X101723466Y-60795001D01*
X103080618Y-60795001D01*
X103082795Y-60800256D01*
X103196063Y-60969774D01*
X103340226Y-61113937D01*
X103509744Y-61227205D01*
X103698102Y-61305226D01*
X103898061Y-61345000D01*
X104101939Y-61345000D01*
X104301898Y-61305226D01*
X104490256Y-61227205D01*
X104538454Y-61195000D01*
X105625762Y-61195000D01*
X105642313Y-61219770D01*
X105786476Y-61363933D01*
X105955994Y-61477201D01*
X106144352Y-61555222D01*
X106344311Y-61594996D01*
X106548189Y-61594996D01*
X106748148Y-61555222D01*
X106936506Y-61477201D01*
X107106024Y-61363933D01*
X107250187Y-61219770D01*
X107266738Y-61195000D01*
X108371546Y-61195000D01*
X108419744Y-61227205D01*
X108608102Y-61305226D01*
X108808061Y-61345000D01*
X109011939Y-61345000D01*
X109211898Y-61305226D01*
X109400256Y-61227205D01*
X109569774Y-61113937D01*
X109713937Y-60969774D01*
X109827205Y-60800256D01*
X109905226Y-60611898D01*
X109945000Y-60411939D01*
X109945000Y-60208061D01*
X109905226Y-60008102D01*
X109827205Y-59819744D01*
X109713937Y-59650226D01*
X109569774Y-59506063D01*
X109400256Y-59392795D01*
X109211898Y-59314774D01*
X109011939Y-59275000D01*
X108808061Y-59275000D01*
X108608102Y-59314774D01*
X108419744Y-59392795D01*
X108371546Y-59425000D01*
X104538454Y-59425000D01*
X104490256Y-59392795D01*
X104301898Y-59314774D01*
X104247506Y-59303955D01*
X104228818Y-59281184D01*
X104094060Y-59170590D01*
X103940314Y-59088412D01*
X103773491Y-59037806D01*
X103643478Y-59025001D01*
X103643470Y-59025001D01*
X103600001Y-59020720D01*
X103556532Y-59025001D01*
X102046580Y-59025001D01*
X100356534Y-57334956D01*
X100328817Y-57301183D01*
X100194059Y-57190589D01*
X100040313Y-57108411D01*
X99873490Y-57057805D01*
X99743477Y-57045000D01*
X99743469Y-57045000D01*
X99700000Y-57040719D01*
X99656531Y-57045000D01*
X94037662Y-57045000D01*
X93981833Y-56940551D01*
X93827502Y-56752498D01*
X93817757Y-56744500D01*
X100991250Y-56744500D01*
X100991250Y-57294500D01*
X101037835Y-57513487D01*
X101126247Y-57719178D01*
X101253089Y-57903669D01*
X101413486Y-58059869D01*
X101601274Y-58181776D01*
X101824376Y-58261619D01*
X101999250Y-58135454D01*
X101999250Y-56744500D01*
X100991250Y-56744500D01*
X93817757Y-56744500D01*
X93639449Y-56598167D01*
X93424901Y-56483489D01*
X93248571Y-56430000D01*
X93424900Y-56376511D01*
X93639448Y-56261833D01*
X93827502Y-56107502D01*
X93964556Y-55940500D01*
X100991250Y-55940500D01*
X100991250Y-56490500D01*
X101999250Y-56490500D01*
X101999250Y-55099546D01*
X102253250Y-55099546D01*
X102253250Y-56490500D01*
X102273250Y-56490500D01*
X102273250Y-56744500D01*
X102253250Y-56744500D01*
X102253250Y-58135454D01*
X102428124Y-58261619D01*
X102651226Y-58181776D01*
X102839014Y-58059869D01*
X102999411Y-57903669D01*
X103126253Y-57719178D01*
X103214665Y-57513487D01*
X103261250Y-57294500D01*
X103261250Y-57004404D01*
X103276228Y-57010608D01*
X103461698Y-57047500D01*
X103650802Y-57047500D01*
X103836272Y-57010608D01*
X104010981Y-56938241D01*
X104168214Y-56833181D01*
X104301931Y-56699464D01*
X104406991Y-56542231D01*
X104479358Y-56367522D01*
X104516250Y-56182052D01*
X104516250Y-55992948D01*
X108376250Y-55992948D01*
X108376250Y-56182052D01*
X108413142Y-56367522D01*
X108485509Y-56542231D01*
X108590569Y-56699464D01*
X108724286Y-56833181D01*
X108881519Y-56938241D01*
X109056228Y-57010608D01*
X109241698Y-57047500D01*
X109430802Y-57047500D01*
X109616272Y-57010608D01*
X109631250Y-57004404D01*
X109631250Y-57294500D01*
X109677835Y-57513487D01*
X109766247Y-57719178D01*
X109893089Y-57903669D01*
X110053486Y-58059869D01*
X110241274Y-58181776D01*
X110464376Y-58261619D01*
X110639250Y-58135454D01*
X110639250Y-56744500D01*
X110893250Y-56744500D01*
X110893250Y-58135454D01*
X111068124Y-58261619D01*
X111291226Y-58181776D01*
X111479014Y-58059869D01*
X111639411Y-57903669D01*
X111766253Y-57719178D01*
X111854665Y-57513487D01*
X111901250Y-57294500D01*
X111901250Y-56744500D01*
X110893250Y-56744500D01*
X110639250Y-56744500D01*
X110619250Y-56744500D01*
X110619250Y-56490500D01*
X110639250Y-56490500D01*
X110639250Y-55099546D01*
X110893250Y-55099546D01*
X110893250Y-56490500D01*
X111901250Y-56490500D01*
X111901250Y-55940500D01*
X111854665Y-55721513D01*
X111766253Y-55515822D01*
X111639411Y-55331331D01*
X111479014Y-55175131D01*
X111291226Y-55053224D01*
X111068124Y-54973381D01*
X110893250Y-55099546D01*
X110639250Y-55099546D01*
X110464376Y-54973381D01*
X110241274Y-55053224D01*
X110053486Y-55175131D01*
X109909134Y-55315706D01*
X109790981Y-55236759D01*
X109616272Y-55164392D01*
X109430802Y-55127500D01*
X109241698Y-55127500D01*
X109056228Y-55164392D01*
X108881519Y-55236759D01*
X108724286Y-55341819D01*
X108590569Y-55475536D01*
X108485509Y-55632769D01*
X108413142Y-55807478D01*
X108376250Y-55992948D01*
X104516250Y-55992948D01*
X104479358Y-55807478D01*
X104406991Y-55632769D01*
X104301931Y-55475536D01*
X104168214Y-55341819D01*
X104010981Y-55236759D01*
X103836272Y-55164392D01*
X103650802Y-55127500D01*
X103461698Y-55127500D01*
X103276228Y-55164392D01*
X103101519Y-55236759D01*
X102983366Y-55315706D01*
X102839014Y-55175131D01*
X102651226Y-55053224D01*
X102428124Y-54973381D01*
X102253250Y-55099546D01*
X101999250Y-55099546D01*
X101824376Y-54973381D01*
X101601274Y-55053224D01*
X101413486Y-55175131D01*
X101253089Y-55331331D01*
X101126247Y-55515822D01*
X101037835Y-55721513D01*
X100991250Y-55940500D01*
X93964556Y-55940500D01*
X93981833Y-55919449D01*
X94096511Y-55704901D01*
X94167130Y-55472102D01*
X94185000Y-55290665D01*
X94185000Y-54569336D01*
X94167130Y-54387899D01*
X94096511Y-54155099D01*
X93981833Y-53940551D01*
X93827502Y-53752498D01*
X93639449Y-53598167D01*
X93424901Y-53483489D01*
X93192102Y-53412870D01*
X92950000Y-53389025D01*
X92737786Y-53409926D01*
X92761503Y-53168043D01*
X92836913Y-52918273D01*
X92959400Y-52687910D01*
X93124300Y-52485722D01*
X93325328Y-52319416D01*
X93554832Y-52195324D01*
X93804073Y-52118171D01*
X94093966Y-52087702D01*
X94629994Y-52087702D01*
X94593957Y-52102629D01*
X94367114Y-52254201D01*
X94174201Y-52447114D01*
X94022629Y-52673957D01*
X93918225Y-52926011D01*
X93865000Y-53193589D01*
X93865000Y-53466411D01*
X93918225Y-53733989D01*
X94022629Y-53986043D01*
X94174201Y-54212886D01*
X94367114Y-54405799D01*
X94593957Y-54557371D01*
X94846011Y-54661775D01*
X95113589Y-54715000D01*
X95386411Y-54715000D01*
X95653989Y-54661775D01*
X95906043Y-54557371D01*
X96132886Y-54405799D01*
X96325799Y-54212886D01*
X96477371Y-53986043D01*
X96581775Y-53733989D01*
X96635000Y-53466411D01*
X96635000Y-53193589D01*
X96581775Y-52926011D01*
X96477371Y-52673957D01*
X96404235Y-52564500D01*
X100991250Y-52564500D01*
X100991250Y-52864500D01*
X101037835Y-53083487D01*
X101126247Y-53289178D01*
X101253089Y-53473669D01*
X101413486Y-53629869D01*
X101601274Y-53751776D01*
X101824376Y-53831619D01*
X101999250Y-53705454D01*
X101999250Y-52564500D01*
X102253250Y-52564500D01*
X102253250Y-53705454D01*
X102428124Y-53831619D01*
X102651226Y-53751776D01*
X102839014Y-53629869D01*
X102999411Y-53473669D01*
X103126253Y-53289178D01*
X103214665Y-53083487D01*
X103261250Y-52864500D01*
X103261250Y-52564500D01*
X109631250Y-52564500D01*
X109631250Y-52864500D01*
X109677835Y-53083487D01*
X109766247Y-53289178D01*
X109893089Y-53473669D01*
X110053486Y-53629869D01*
X110241274Y-53751776D01*
X110464376Y-53831619D01*
X110639250Y-53705454D01*
X110639250Y-52564500D01*
X110893250Y-52564500D01*
X110893250Y-53705454D01*
X111068124Y-53831619D01*
X111291226Y-53751776D01*
X111479014Y-53629869D01*
X111639411Y-53473669D01*
X111766253Y-53289178D01*
X111854665Y-53083487D01*
X111901250Y-52864500D01*
X111901250Y-52564500D01*
X110893250Y-52564500D01*
X110639250Y-52564500D01*
X109631250Y-52564500D01*
X103261250Y-52564500D01*
X102253250Y-52564500D01*
X101999250Y-52564500D01*
X100991250Y-52564500D01*
X96404235Y-52564500D01*
X96325799Y-52447114D01*
X96132886Y-52254201D01*
X95906043Y-52102629D01*
X95870006Y-52087702D01*
X100991250Y-52087702D01*
X100991250Y-52310500D01*
X101999250Y-52310500D01*
X101999250Y-52290500D01*
X102253250Y-52290500D01*
X102253250Y-52310500D01*
X103261250Y-52310500D01*
X103261250Y-52087702D01*
X109631250Y-52087702D01*
X109631250Y-52310500D01*
X110639250Y-52310500D01*
X110639250Y-52290500D01*
X110893250Y-52290500D01*
X110893250Y-52310500D01*
X111901250Y-52310500D01*
X111901250Y-52010500D01*
X111895440Y-51983187D01*
X112669250Y-51871172D01*
X112669250Y-64073092D01*
X112669250Y-64073092D01*
G37*
X112669250Y-64073092D02*
X112637910Y-64091877D01*
X112338117Y-64314220D01*
X112321760Y-64326351D01*
X112113238Y-64515343D01*
X112113239Y-64515343D01*
X112030109Y-64590687D01*
X111765781Y-64882330D01*
X111765779Y-64882333D01*
X111531307Y-65198480D01*
X111473628Y-65294711D01*
X111473627Y-65294713D01*
X111386624Y-65439869D01*
X111328945Y-65536100D01*
X111208625Y-65790498D01*
X111208624Y-65790499D01*
X111160655Y-65891921D01*
X111028053Y-66262518D01*
X111009093Y-66338212D01*
X110932412Y-66644336D01*
X110932411Y-66644343D01*
X110874657Y-67033689D01*
X110873995Y-67047173D01*
X110858091Y-67370904D01*
X110856260Y-67389498D01*
X110856260Y-67408183D01*
X110855344Y-67426829D01*
X110856260Y-67445472D01*
X110856261Y-70837591D01*
X110849378Y-70977701D01*
X110831536Y-71097981D01*
X110801990Y-71215936D01*
X110761024Y-71330428D01*
X110709036Y-71440348D01*
X110646519Y-71544652D01*
X110574086Y-71642316D01*
X110492426Y-71732413D01*
X110402323Y-71814077D01*
X110304662Y-71886509D01*
X110200362Y-71949023D01*
X110090439Y-72001013D01*
X109975949Y-72041979D01*
X109857993Y-72071525D01*
X109737711Y-72089367D01*
X109634955Y-72094415D01*
X109616259Y-72092574D01*
X109560349Y-72098081D01*
X109541679Y-72098998D01*
X109523188Y-72101741D01*
X109467274Y-72107248D01*
X109458202Y-72110000D01*
X104053711Y-72110000D01*
X104009774Y-72066063D01*
X103840256Y-71952795D01*
X103651898Y-71874774D01*
X103451939Y-71835000D01*
X103248061Y-71835000D01*
X103048102Y-71874774D01*
X102859744Y-71952795D01*
X102690226Y-72066063D01*
X102546063Y-72210226D01*
X102432795Y-72379744D01*
X102354774Y-72568102D01*
X102315000Y-72768061D01*
X102315000Y-72971939D01*
X102354774Y-73171898D01*
X102432795Y-73360256D01*
X102510307Y-73476261D01*
X102461024Y-73595239D01*
X102421250Y-73795198D01*
X102421250Y-73999076D01*
X102461024Y-74199035D01*
X102539045Y-74387393D01*
X102652313Y-74556911D01*
X102796476Y-74701074D01*
X102921250Y-74784445D01*
X102921250Y-74870292D01*
X102961024Y-75070251D01*
X103039045Y-75258609D01*
X103152313Y-75428127D01*
X103296476Y-75572290D01*
X103421250Y-75655661D01*
X103421250Y-75737367D01*
X103461024Y-75937326D01*
X103539045Y-76125684D01*
X103652313Y-76295202D01*
X103796476Y-76439365D01*
X103921250Y-76522736D01*
X103921250Y-76655107D01*
X103961024Y-76855066D01*
X104039045Y-77043424D01*
X104152313Y-77212942D01*
X104296476Y-77357105D01*
X104424810Y-77442855D01*
X104424810Y-77519069D01*
X104464584Y-77719028D01*
X104542605Y-77907386D01*
X104655873Y-78076904D01*
X104800036Y-78221067D01*
X104921250Y-78302059D01*
X104921250Y-78388277D01*
X104961024Y-78588236D01*
X105039045Y-78776594D01*
X105152313Y-78946112D01*
X105296476Y-79090275D01*
X105465994Y-79203543D01*
X105654352Y-79281564D01*
X105854311Y-79321338D01*
X106058189Y-79321338D01*
X106258148Y-79281564D01*
X106446506Y-79203543D01*
X106616024Y-79090275D01*
X106659961Y-79046338D01*
X112669250Y-79046338D01*
X112669250Y-81146239D01*
X107051086Y-81146239D01*
X107013761Y-81142563D01*
X106976436Y-81146239D01*
X106976428Y-81146239D01*
X106864775Y-81157236D01*
X106721514Y-81200693D01*
X106589485Y-81271265D01*
X106473760Y-81366238D01*
X106449962Y-81395236D01*
X104250199Y-83595000D01*
X104188061Y-83595000D01*
X103988102Y-83634774D01*
X103799744Y-83712795D01*
X103630226Y-83826063D01*
X103486063Y-83970226D01*
X103372795Y-84139744D01*
X103294774Y-84328102D01*
X103255000Y-84528061D01*
X103255000Y-84731939D01*
X103294774Y-84931898D01*
X103372795Y-85120256D01*
X103486063Y-85289774D01*
X103630226Y-85433937D01*
X103799744Y-85547205D01*
X103988102Y-85625226D01*
X104188061Y-85665000D01*
X104391939Y-85665000D01*
X104591898Y-85625226D01*
X104780256Y-85547205D01*
X104812585Y-85525604D01*
X104919744Y-85597205D01*
X105108102Y-85675226D01*
X105308061Y-85715000D01*
X105511939Y-85715000D01*
X105711898Y-85675226D01*
X105900256Y-85597205D01*
X106069774Y-85483937D01*
X106213937Y-85339774D01*
X106314155Y-85189786D01*
X106284055Y-85289010D01*
X106266969Y-85462500D01*
X106271251Y-85505979D01*
X106271250Y-91476980D01*
X100832318Y-91476980D01*
X100784120Y-91444775D01*
X100595762Y-91366754D01*
X100395803Y-91326980D01*
X100191925Y-91326980D01*
X99991966Y-91366754D01*
X99803608Y-91444775D01*
X99634090Y-91558043D01*
X99489927Y-91702206D01*
X99376659Y-91871724D01*
X99298638Y-92060082D01*
X99258864Y-92260041D01*
X99258864Y-92463919D01*
X99298638Y-92663878D01*
X99376659Y-92852236D01*
X99489927Y-93021754D01*
X99634090Y-93165917D01*
X99803608Y-93279185D01*
X99991966Y-93357206D01*
X100191925Y-93396980D01*
X100395803Y-93396980D01*
X100595762Y-93357206D01*
X100784120Y-93279185D01*
X100832318Y-93246980D01*
X106825801Y-93246980D01*
X106869270Y-93251261D01*
X106912739Y-93246980D01*
X106912747Y-93246980D01*
X107042760Y-93234175D01*
X107209583Y-93183569D01*
X107363329Y-93101391D01*
X107383118Y-93085150D01*
X107458148Y-93070226D01*
X107646506Y-92992205D01*
X107795205Y-92892848D01*
X107795205Y-97429993D01*
X106302198Y-98923000D01*
X92732878Y-98923000D01*
X92732878Y-80860561D01*
X95802500Y-80860561D01*
X95802500Y-81064439D01*
X95842274Y-81264398D01*
X95920295Y-81452756D01*
X95952500Y-81500954D01*
X95952501Y-87567794D01*
X95920295Y-87615994D01*
X95842274Y-87804352D01*
X95802500Y-88004311D01*
X95802500Y-88208189D01*
X95842274Y-88408148D01*
X95920295Y-88596506D01*
X96033563Y-88766024D01*
X96177726Y-88910187D01*
X96347244Y-89023455D01*
X96535602Y-89101476D01*
X96735561Y-89141250D01*
X96939439Y-89141250D01*
X97139398Y-89101476D01*
X97327756Y-89023455D01*
X97497274Y-88910187D01*
X97641437Y-88766024D01*
X97754705Y-88596506D01*
X97832726Y-88408148D01*
X97872500Y-88208189D01*
X97872500Y-88004311D01*
X97832726Y-87804352D01*
X97754705Y-87615994D01*
X97722500Y-87567796D01*
X97722500Y-82085547D01*
X97829744Y-82157205D01*
X98018102Y-82235226D01*
X98218061Y-82275000D01*
X98421939Y-82275000D01*
X98621898Y-82235226D01*
X98810256Y-82157205D01*
X98979774Y-82043937D01*
X99123937Y-81899774D01*
X99237205Y-81730256D01*
X99315226Y-81541898D01*
X99355000Y-81341939D01*
X99355000Y-81138061D01*
X99315226Y-80938102D01*
X99237205Y-80749744D01*
X99123937Y-80580226D01*
X99080000Y-80536289D01*
X99080000Y-72117322D01*
X99083676Y-72079999D01*
X99080000Y-72042676D01*
X99080000Y-72042667D01*
X99069003Y-71931014D01*
X99025546Y-71787753D01*
X99003892Y-71747241D01*
X98954974Y-71655723D01*
X98883799Y-71568997D01*
X98860001Y-71539999D01*
X98831003Y-71516201D01*
X98465000Y-71150198D01*
X98465000Y-71088061D01*
X98425226Y-70888102D01*
X98347205Y-70699744D01*
X98233937Y-70530226D01*
X98089774Y-70386063D01*
X97920256Y-70272795D01*
X97731898Y-70194774D01*
X97531939Y-70155000D01*
X97328061Y-70155000D01*
X97128102Y-70194774D01*
X96939744Y-70272795D01*
X96770226Y-70386063D01*
X96626063Y-70530226D01*
X96512795Y-70699744D01*
X96434774Y-70888102D01*
X96395000Y-71088061D01*
X96395000Y-71291939D01*
X96434774Y-71491898D01*
X96512795Y-71680256D01*
X96626063Y-71849774D01*
X96770226Y-71993937D01*
X96939744Y-72107205D01*
X97128102Y-72185226D01*
X97328061Y-72225000D01*
X97390198Y-72225000D01*
X97560001Y-72394803D01*
X97560000Y-80221289D01*
X97497274Y-80158563D01*
X97327756Y-80045295D01*
X97139398Y-79967274D01*
X96939439Y-79927500D01*
X96735561Y-79927500D01*
X96535602Y-79967274D01*
X96347244Y-80045295D01*
X96177726Y-80158563D01*
X96033563Y-80302726D01*
X95920295Y-80472244D01*
X95842274Y-80660602D01*
X95802500Y-80860561D01*
X92732878Y-80860561D01*
X92732878Y-63449590D01*
X92950000Y-63470975D01*
X93192101Y-63447130D01*
X93424900Y-63376511D01*
X93639448Y-63261833D01*
X93767188Y-63157000D01*
X96315000Y-63157000D01*
X96315000Y-63457000D01*
X96363507Y-63695496D01*
X96457610Y-63919946D01*
X96593693Y-64121725D01*
X96766526Y-64293078D01*
X96969467Y-64427421D01*
X97194718Y-64519591D01*
X97232391Y-64523462D01*
X97423000Y-64398731D01*
X97423000Y-63157000D01*
X97677000Y-63157000D01*
X97677000Y-64398731D01*
X97867609Y-64523462D01*
X97905282Y-64519591D01*
X98130533Y-64427421D01*
X98333474Y-64293078D01*
X98506307Y-64121725D01*
X98642390Y-63919946D01*
X98736493Y-63695496D01*
X98756310Y-63598059D01*
X105435000Y-63598059D01*
X105435000Y-63801937D01*
X105474774Y-64001896D01*
X105552795Y-64190254D01*
X105666063Y-64359772D01*
X105810226Y-64503935D01*
X105979744Y-64617203D01*
X106168102Y-64695224D01*
X106368061Y-64734998D01*
X106571939Y-64734998D01*
X106771898Y-64695224D01*
X106960256Y-64617203D01*
X107008454Y-64584998D01*
X109193420Y-64584998D01*
X109473465Y-64865044D01*
X109484774Y-64921898D01*
X109562795Y-65110256D01*
X109676063Y-65279774D01*
X109820226Y-65423937D01*
X109989744Y-65537205D01*
X110178102Y-65615226D01*
X110378061Y-65655000D01*
X110581939Y-65655000D01*
X110781898Y-65615226D01*
X110970256Y-65537205D01*
X111139774Y-65423937D01*
X111283937Y-65279774D01*
X111397205Y-65110256D01*
X111475226Y-64921898D01*
X111515000Y-64721939D01*
X111515000Y-64518061D01*
X111475226Y-64318102D01*
X111397205Y-64129744D01*
X111283937Y-63960226D01*
X111139774Y-63816063D01*
X110970256Y-63702795D01*
X110781898Y-63624774D01*
X110725044Y-63613465D01*
X110216532Y-63104954D01*
X110188815Y-63071181D01*
X110054057Y-62960587D01*
X109900311Y-62878409D01*
X109733488Y-62827803D01*
X109603475Y-62814998D01*
X109603467Y-62814998D01*
X109559998Y-62810717D01*
X109516529Y-62814998D01*
X107008454Y-62814998D01*
X106960256Y-62782793D01*
X106771898Y-62704772D01*
X106571939Y-62664998D01*
X106368061Y-62664998D01*
X106168102Y-62704772D01*
X105979744Y-62782793D01*
X105810226Y-62896061D01*
X105666063Y-63040224D01*
X105552795Y-63209742D01*
X105474774Y-63398100D01*
X105435000Y-63598059D01*
X98756310Y-63598059D01*
X98785000Y-63457000D01*
X98785000Y-63157000D01*
X97677000Y-63157000D01*
X97423000Y-63157000D01*
X96315000Y-63157000D01*
X93767188Y-63157000D01*
X93827502Y-63107502D01*
X93981833Y-62919449D01*
X94096511Y-62704901D01*
X94127422Y-62603000D01*
X96315000Y-62603000D01*
X96315000Y-62903000D01*
X97423000Y-62903000D01*
X97423000Y-61661269D01*
X97677000Y-61661269D01*
X97677000Y-62903000D01*
X98785000Y-62903000D01*
X98785000Y-62603000D01*
X98736493Y-62364504D01*
X98642390Y-62140054D01*
X98506307Y-61938275D01*
X98333474Y-61766922D01*
X98130533Y-61632579D01*
X97905282Y-61540409D01*
X97867609Y-61536538D01*
X97677000Y-61661269D01*
X97423000Y-61661269D01*
X97232391Y-61536538D01*
X97194718Y-61540409D01*
X96969467Y-61632579D01*
X96766526Y-61766922D01*
X96593693Y-61938275D01*
X96457610Y-62140054D01*
X96363507Y-62364504D01*
X96315000Y-62603000D01*
X94127422Y-62603000D01*
X94167130Y-62472102D01*
X94185000Y-62290665D01*
X94185000Y-61569336D01*
X94167130Y-61387899D01*
X94096511Y-61155099D01*
X93981833Y-60940551D01*
X93827502Y-60752498D01*
X93639449Y-60598167D01*
X93424901Y-60483489D01*
X93192102Y-60412870D01*
X92950000Y-60389025D01*
X92732878Y-60410410D01*
X92732878Y-60193589D01*
X93865000Y-60193589D01*
X93865000Y-60466411D01*
X93918225Y-60733989D01*
X94022629Y-60986043D01*
X94174201Y-61212886D01*
X94367114Y-61405799D01*
X94593957Y-61557371D01*
X94846011Y-61661775D01*
X95113589Y-61715000D01*
X95386411Y-61715000D01*
X95653989Y-61661775D01*
X95906043Y-61557371D01*
X96132886Y-61405799D01*
X96325799Y-61212886D01*
X96477371Y-60986043D01*
X96581775Y-60733989D01*
X96635000Y-60466411D01*
X96635000Y-60193589D01*
X96581775Y-59926011D01*
X96477371Y-59673957D01*
X96325799Y-59447114D01*
X96132886Y-59254201D01*
X95906043Y-59102629D01*
X95653989Y-58998225D01*
X95386411Y-58945000D01*
X95113589Y-58945000D01*
X94846011Y-58998225D01*
X94593957Y-59102629D01*
X94367114Y-59254201D01*
X94174201Y-59447114D01*
X94022629Y-59673957D01*
X93918225Y-59926011D01*
X93865000Y-60193589D01*
X92732878Y-60193589D01*
X92732878Y-59449590D01*
X92950000Y-59470975D01*
X93192101Y-59447130D01*
X93424900Y-59376511D01*
X93639448Y-59261833D01*
X93827502Y-59107502D01*
X93981833Y-58919449D01*
X94037662Y-58815000D01*
X99333422Y-58815000D01*
X101023471Y-60505050D01*
X101051184Y-60538818D01*
X101084952Y-60566531D01*
X101084954Y-60566533D01*
X101123500Y-60598167D01*
X101185942Y-60649412D01*
X101339688Y-60731590D01*
X101506511Y-60782196D01*
X101636524Y-60795001D01*
X101636534Y-60795001D01*
X101680000Y-60799282D01*
X101723466Y-60795001D01*
X103080618Y-60795001D01*
X103082795Y-60800256D01*
X103196063Y-60969774D01*
X103340226Y-61113937D01*
X103509744Y-61227205D01*
X103698102Y-61305226D01*
X103898061Y-61345000D01*
X104101939Y-61345000D01*
X104301898Y-61305226D01*
X104490256Y-61227205D01*
X104538454Y-61195000D01*
X105625762Y-61195000D01*
X105642313Y-61219770D01*
X105786476Y-61363933D01*
X105955994Y-61477201D01*
X106144352Y-61555222D01*
X106344311Y-61594996D01*
X106548189Y-61594996D01*
X106748148Y-61555222D01*
X106936506Y-61477201D01*
X107106024Y-61363933D01*
X107250187Y-61219770D01*
X107266738Y-61195000D01*
X108371546Y-61195000D01*
X108419744Y-61227205D01*
X108608102Y-61305226D01*
X108808061Y-61345000D01*
X109011939Y-61345000D01*
X109211898Y-61305226D01*
X109400256Y-61227205D01*
X109569774Y-61113937D01*
X109713937Y-60969774D01*
X109827205Y-60800256D01*
X109905226Y-60611898D01*
X109945000Y-60411939D01*
X109945000Y-60208061D01*
X109905226Y-60008102D01*
X109827205Y-59819744D01*
X109713937Y-59650226D01*
X109569774Y-59506063D01*
X109400256Y-59392795D01*
X109211898Y-59314774D01*
X109011939Y-59275000D01*
X108808061Y-59275000D01*
X108608102Y-59314774D01*
X108419744Y-59392795D01*
X108371546Y-59425000D01*
X104538454Y-59425000D01*
X104490256Y-59392795D01*
X104301898Y-59314774D01*
X104247506Y-59303955D01*
X104228818Y-59281184D01*
X104094060Y-59170590D01*
X103940314Y-59088412D01*
X103773491Y-59037806D01*
X103643478Y-59025001D01*
X103643470Y-59025001D01*
X103600001Y-59020720D01*
X103556532Y-59025001D01*
X102046580Y-59025001D01*
X100356534Y-57334956D01*
X100328817Y-57301183D01*
X100194059Y-57190589D01*
X100040313Y-57108411D01*
X99873490Y-57057805D01*
X99743477Y-57045000D01*
X99743469Y-57045000D01*
X99700000Y-57040719D01*
X99656531Y-57045000D01*
X94037662Y-57045000D01*
X93981833Y-56940551D01*
X93827502Y-56752498D01*
X93817757Y-56744500D01*
X100991250Y-56744500D01*
X100991250Y-57294500D01*
X101037835Y-57513487D01*
X101126247Y-57719178D01*
X101253089Y-57903669D01*
X101413486Y-58059869D01*
X101601274Y-58181776D01*
X101824376Y-58261619D01*
X101999250Y-58135454D01*
X101999250Y-56744500D01*
X100991250Y-56744500D01*
X93817757Y-56744500D01*
X93639449Y-56598167D01*
X93424901Y-56483489D01*
X93248571Y-56430000D01*
X93424900Y-56376511D01*
X93639448Y-56261833D01*
X93827502Y-56107502D01*
X93964556Y-55940500D01*
X100991250Y-55940500D01*
X100991250Y-56490500D01*
X101999250Y-56490500D01*
X101999250Y-55099546D01*
X102253250Y-55099546D01*
X102253250Y-56490500D01*
X102273250Y-56490500D01*
X102273250Y-56744500D01*
X102253250Y-56744500D01*
X102253250Y-58135454D01*
X102428124Y-58261619D01*
X102651226Y-58181776D01*
X102839014Y-58059869D01*
X102999411Y-57903669D01*
X103126253Y-57719178D01*
X103214665Y-57513487D01*
X103261250Y-57294500D01*
X103261250Y-57004404D01*
X103276228Y-57010608D01*
X103461698Y-57047500D01*
X103650802Y-57047500D01*
X103836272Y-57010608D01*
X104010981Y-56938241D01*
X104168214Y-56833181D01*
X104301931Y-56699464D01*
X104406991Y-56542231D01*
X104479358Y-56367522D01*
X104516250Y-56182052D01*
X104516250Y-55992948D01*
X108376250Y-55992948D01*
X108376250Y-56182052D01*
X108413142Y-56367522D01*
X108485509Y-56542231D01*
X108590569Y-56699464D01*
X108724286Y-56833181D01*
X108881519Y-56938241D01*
X109056228Y-57010608D01*
X109241698Y-57047500D01*
X109430802Y-57047500D01*
X109616272Y-57010608D01*
X109631250Y-57004404D01*
X109631250Y-57294500D01*
X109677835Y-57513487D01*
X109766247Y-57719178D01*
X109893089Y-57903669D01*
X110053486Y-58059869D01*
X110241274Y-58181776D01*
X110464376Y-58261619D01*
X110639250Y-58135454D01*
X110639250Y-56744500D01*
X110893250Y-56744500D01*
X110893250Y-58135454D01*
X111068124Y-58261619D01*
X111291226Y-58181776D01*
X111479014Y-58059869D01*
X111639411Y-57903669D01*
X111766253Y-57719178D01*
X111854665Y-57513487D01*
X111901250Y-57294500D01*
X111901250Y-56744500D01*
X110893250Y-56744500D01*
X110639250Y-56744500D01*
X110619250Y-56744500D01*
X110619250Y-56490500D01*
X110639250Y-56490500D01*
X110639250Y-55099546D01*
X110893250Y-55099546D01*
X110893250Y-56490500D01*
X111901250Y-56490500D01*
X111901250Y-55940500D01*
X111854665Y-55721513D01*
X111766253Y-55515822D01*
X111639411Y-55331331D01*
X111479014Y-55175131D01*
X111291226Y-55053224D01*
X111068124Y-54973381D01*
X110893250Y-55099546D01*
X110639250Y-55099546D01*
X110464376Y-54973381D01*
X110241274Y-55053224D01*
X110053486Y-55175131D01*
X109909134Y-55315706D01*
X109790981Y-55236759D01*
X109616272Y-55164392D01*
X109430802Y-55127500D01*
X109241698Y-55127500D01*
X109056228Y-55164392D01*
X108881519Y-55236759D01*
X108724286Y-55341819D01*
X108590569Y-55475536D01*
X108485509Y-55632769D01*
X108413142Y-55807478D01*
X108376250Y-55992948D01*
X104516250Y-55992948D01*
X104479358Y-55807478D01*
X104406991Y-55632769D01*
X104301931Y-55475536D01*
X104168214Y-55341819D01*
X104010981Y-55236759D01*
X103836272Y-55164392D01*
X103650802Y-55127500D01*
X103461698Y-55127500D01*
X103276228Y-55164392D01*
X103101519Y-55236759D01*
X102983366Y-55315706D01*
X102839014Y-55175131D01*
X102651226Y-55053224D01*
X102428124Y-54973381D01*
X102253250Y-55099546D01*
X101999250Y-55099546D01*
X101824376Y-54973381D01*
X101601274Y-55053224D01*
X101413486Y-55175131D01*
X101253089Y-55331331D01*
X101126247Y-55515822D01*
X101037835Y-55721513D01*
X100991250Y-55940500D01*
X93964556Y-55940500D01*
X93981833Y-55919449D01*
X94096511Y-55704901D01*
X94167130Y-55472102D01*
X94185000Y-55290665D01*
X94185000Y-54569336D01*
X94167130Y-54387899D01*
X94096511Y-54155099D01*
X93981833Y-53940551D01*
X93827502Y-53752498D01*
X93639449Y-53598167D01*
X93424901Y-53483489D01*
X93192102Y-53412870D01*
X92950000Y-53389025D01*
X92737786Y-53409926D01*
X92761503Y-53168043D01*
X92836913Y-52918273D01*
X92959400Y-52687910D01*
X93124300Y-52485722D01*
X93325328Y-52319416D01*
X93554832Y-52195324D01*
X93804073Y-52118171D01*
X94093966Y-52087702D01*
X94629994Y-52087702D01*
X94593957Y-52102629D01*
X94367114Y-52254201D01*
X94174201Y-52447114D01*
X94022629Y-52673957D01*
X93918225Y-52926011D01*
X93865000Y-53193589D01*
X93865000Y-53466411D01*
X93918225Y-53733989D01*
X94022629Y-53986043D01*
X94174201Y-54212886D01*
X94367114Y-54405799D01*
X94593957Y-54557371D01*
X94846011Y-54661775D01*
X95113589Y-54715000D01*
X95386411Y-54715000D01*
X95653989Y-54661775D01*
X95906043Y-54557371D01*
X96132886Y-54405799D01*
X96325799Y-54212886D01*
X96477371Y-53986043D01*
X96581775Y-53733989D01*
X96635000Y-53466411D01*
X96635000Y-53193589D01*
X96581775Y-52926011D01*
X96477371Y-52673957D01*
X96404235Y-52564500D01*
X100991250Y-52564500D01*
X100991250Y-52864500D01*
X101037835Y-53083487D01*
X101126247Y-53289178D01*
X101253089Y-53473669D01*
X101413486Y-53629869D01*
X101601274Y-53751776D01*
X101824376Y-53831619D01*
X101999250Y-53705454D01*
X101999250Y-52564500D01*
X102253250Y-52564500D01*
X102253250Y-53705454D01*
X102428124Y-53831619D01*
X102651226Y-53751776D01*
X102839014Y-53629869D01*
X102999411Y-53473669D01*
X103126253Y-53289178D01*
X103214665Y-53083487D01*
X103261250Y-52864500D01*
X103261250Y-52564500D01*
X109631250Y-52564500D01*
X109631250Y-52864500D01*
X109677835Y-53083487D01*
X109766247Y-53289178D01*
X109893089Y-53473669D01*
X110053486Y-53629869D01*
X110241274Y-53751776D01*
X110464376Y-53831619D01*
X110639250Y-53705454D01*
X110639250Y-52564500D01*
X110893250Y-52564500D01*
X110893250Y-53705454D01*
X111068124Y-53831619D01*
X111291226Y-53751776D01*
X111479014Y-53629869D01*
X111639411Y-53473669D01*
X111766253Y-53289178D01*
X111854665Y-53083487D01*
X111901250Y-52864500D01*
X111901250Y-52564500D01*
X110893250Y-52564500D01*
X110639250Y-52564500D01*
X109631250Y-52564500D01*
X103261250Y-52564500D01*
X102253250Y-52564500D01*
X101999250Y-52564500D01*
X100991250Y-52564500D01*
X96404235Y-52564500D01*
X96325799Y-52447114D01*
X96132886Y-52254201D01*
X95906043Y-52102629D01*
X95870006Y-52087702D01*
X100991250Y-52087702D01*
X100991250Y-52310500D01*
X101999250Y-52310500D01*
X101999250Y-52290500D01*
X102253250Y-52290500D01*
X102253250Y-52310500D01*
X103261250Y-52310500D01*
X103261250Y-52087702D01*
X109631250Y-52087702D01*
X109631250Y-52310500D01*
X110639250Y-52310500D01*
X110639250Y-52290500D01*
X110893250Y-52290500D01*
X110893250Y-52310500D01*
X111901250Y-52310500D01*
X111901250Y-52010500D01*
X111895440Y-51983187D01*
X112669250Y-51871172D01*
X112669250Y-64073092D01*
M02*
