M48
; DRILL file {KiCad (5.1.4)-1} date 11/30/20 21:40:19
; FORMAT={-:-/ absolute / metric / decimal}
; #@! TF.CreationDate,2020-11-30T21:40:19+01:00
; #@! TF.GenerationSoftware,Kicad,Pcbnew,(5.1.4)-1
; #@! TF.FileFunction,NonPlated,1,2,NPTH
FMAT,2
METRIC
T1C0.650
T2C1.500
T3C1.750
T4C3.988
%
G90
G05
T1
X103.556Y-56.087
X109.336Y-56.087
T2
X95.25Y-53.33
X95.25Y-60.33
T3
X116.447Y-60.95
X126.607Y-60.95
X117.123Y-143.445
X126.937Y-140.815
X116.447Y-99.05
X126.607Y-99.05
X230.748Y-102.225
X240.907Y-102.225
X155.017Y-134.752
X165.023Y-132.988
X211.697Y-60.95
X221.857Y-60.95
X230.748Y-121.275
X240.907Y-121.275
X173.597Y-70.475
X183.757Y-70.475
X173.597Y-51.425
X183.757Y-51.425
X192.647Y-73.65
X202.808Y-73.65
X192.647Y-111.75
X202.808Y-111.75
X192.647Y-54.6
X202.808Y-54.6
X192.647Y-92.7
X202.808Y-92.7
X154.547Y-54.6
X164.707Y-54.6
X173.597Y-89.525
X183.757Y-89.525
X115.823Y-124.115
X125.637Y-121.485
X135.498Y-76.825
X145.657Y-76.825
X135.498Y-114.925
X145.657Y-114.925
X154.547Y-73.65
X164.707Y-73.65
X135.498Y-57.775
X145.657Y-57.775
X230.748Y-83.175
X240.907Y-83.175
X211.697Y-118.1
X221.857Y-118.1
X135.498Y-95.875
X145.657Y-95.875
X136.051Y-138.616
X145.989Y-136.504
X116.447Y-80.0
X126.607Y-80.0
X154.547Y-111.75
X164.707Y-111.75
X154.547Y-92.7
X164.707Y-92.7
X173.597Y-108.575
X183.757Y-108.575
X230.748Y-64.125
X240.907Y-64.125
X211.697Y-99.05
X221.857Y-99.05
X211.697Y-80.0
X221.857Y-80.0
T4
X121.527Y-60.95
X122.03Y-142.13
X121.527Y-99.05
X235.827Y-102.225
X160.02Y-133.87
X216.778Y-60.95
X235.827Y-121.275
X178.677Y-70.475
X178.677Y-51.425
X197.727Y-73.65
X197.727Y-111.75
X197.727Y-54.6
X197.727Y-92.7
X159.627Y-54.6
X178.677Y-89.525
X120.73Y-122.8
X140.577Y-76.825
X140.577Y-114.925
X159.627Y-73.65
X140.577Y-57.775
X235.827Y-83.175
X216.778Y-118.1
X140.577Y-95.875
X141.02Y-137.56
X121.527Y-80.0
X159.627Y-111.75
X159.627Y-92.7
X178.677Y-108.575
X235.827Y-64.125
X216.778Y-99.05
X216.778Y-80.0
T0
M30
