G04 #@! TF.GenerationSoftware,KiCad,Pcbnew,(5.1.4)-1*
G04 #@! TF.CreationDate,2020-11-30T21:40:23+01:00*
G04 #@! TF.ProjectId,stm32split,73746d33-3273-4706-9c69-742e6b696361,rev?*
G04 #@! TF.SameCoordinates,Original*
G04 #@! TF.FileFunction,Other,User*
%FSLAX46Y46*%
G04 Gerber Fmt 4.6, Leading zero omitted, Abs format (unit mm)*
G04 Created by KiCad (PCBNEW (5.1.4)-1) date 2020-11-30 21:40:23*
%MOMM*%
%LPD*%
G04 APERTURE LIST*
%ADD10C,0.050000*%
%ADD11C,0.150000*%
G04 APERTURE END LIST*
D10*
X128630000Y-52550000D02*
X128630000Y-70050000D01*
X128630000Y-52550000D02*
X114430000Y-52550000D01*
X114430000Y-70050000D02*
X128630000Y-70050000D01*
X114430000Y-70050000D02*
X114430000Y-52550000D01*
X100570000Y-72230000D02*
G75*
G03X100570000Y-72230000I-1250000J0D01*
G01*
X100552500Y-69681250D02*
G75*
G03X100552500Y-69681250I-1250000J0D01*
G01*
X100550000Y-67120000D02*
G75*
G03X100550000Y-67120000I-1250000J0D01*
G01*
X99390000Y-97640000D02*
X105590000Y-97640000D01*
X99390000Y-93840000D02*
X99390000Y-97640000D01*
X105590000Y-93840000D02*
X99390000Y-93840000D01*
X105590000Y-97640000D02*
X105590000Y-93840000D01*
X105770000Y-76030000D02*
X108730000Y-76030000D01*
X105770000Y-77490000D02*
X105770000Y-76030000D01*
X108730000Y-77490000D02*
X105770000Y-77490000D01*
X108730000Y-76030000D02*
X108730000Y-77490000D01*
X106137500Y-93760000D02*
X103177500Y-93760000D01*
X106137500Y-92300000D02*
X106137500Y-93760000D01*
X103177500Y-92300000D02*
X106137500Y-92300000D01*
X103177500Y-93760000D02*
X103177500Y-92300000D01*
X106130000Y-92227500D02*
X103170000Y-92227500D01*
X106130000Y-90767500D02*
X106130000Y-92227500D01*
X103170000Y-90767500D02*
X106130000Y-90767500D01*
X103170000Y-92227500D02*
X103170000Y-90767500D01*
X99730000Y-90327500D02*
X99730000Y-93287500D01*
X98270000Y-90327500D02*
X99730000Y-90327500D01*
X98270000Y-93287500D02*
X98270000Y-90327500D01*
X99730000Y-93287500D02*
X98270000Y-93287500D01*
X95897500Y-78810000D02*
X98857500Y-78810000D01*
X95897500Y-80270000D02*
X95897500Y-78810000D01*
X98857500Y-80270000D02*
X95897500Y-80270000D01*
X98857500Y-78810000D02*
X98857500Y-80270000D01*
X107477500Y-80870000D02*
X110437500Y-80870000D01*
X107477500Y-82330000D02*
X107477500Y-80870000D01*
X110437500Y-82330000D02*
X107477500Y-82330000D01*
X110437500Y-80870000D02*
X110437500Y-82330000D01*
X98162500Y-90250000D02*
X95202500Y-90250000D01*
X98162500Y-88790000D02*
X98162500Y-90250000D01*
X95202500Y-88790000D02*
X98162500Y-88790000D01*
X95202500Y-90250000D02*
X95202500Y-88790000D01*
X101452500Y-76720000D02*
X98492500Y-76720000D01*
X101452500Y-75260000D02*
X101452500Y-76720000D01*
X98492500Y-75260000D02*
X101452500Y-75260000D01*
X98492500Y-76720000D02*
X98492500Y-75260000D01*
X104582500Y-63280000D02*
X101622500Y-63280000D01*
X104582500Y-61820000D02*
X104582500Y-63280000D01*
X101622500Y-61820000D02*
X104582500Y-61820000D01*
X101622500Y-63280000D02*
X101622500Y-61820000D01*
X108310000Y-61827500D02*
X111270000Y-61827500D01*
X108310000Y-63287500D02*
X108310000Y-61827500D01*
X111270000Y-63287500D02*
X108310000Y-63287500D01*
X111270000Y-61827500D02*
X111270000Y-63287500D01*
X111580000Y-65737500D02*
X111580000Y-70637500D01*
X109340000Y-65737500D02*
X111580000Y-65737500D01*
X109340000Y-70637500D02*
X109340000Y-65737500D01*
X111580000Y-70637500D02*
X109340000Y-70637500D01*
X94802500Y-85580000D02*
X97762500Y-85580000D01*
X94802500Y-87040000D02*
X94802500Y-85580000D01*
X97762500Y-87040000D02*
X94802500Y-87040000D01*
X97762500Y-85580000D02*
X97762500Y-87040000D01*
X108727500Y-75920000D02*
X105767500Y-75920000D01*
X108727500Y-74460000D02*
X108727500Y-75920000D01*
X105767500Y-74460000D02*
X108727500Y-74460000D01*
X105767500Y-75920000D02*
X105767500Y-74460000D01*
X109250000Y-67357500D02*
X109250000Y-70317500D01*
X107790000Y-67357500D02*
X109250000Y-67357500D01*
X107790000Y-70317500D02*
X107790000Y-67357500D01*
X109250000Y-70317500D02*
X107790000Y-70317500D01*
X105670000Y-97997500D02*
X105670000Y-95037500D01*
X107130000Y-97997500D02*
X105670000Y-97997500D01*
X107130000Y-95037500D02*
X107130000Y-97997500D01*
X105670000Y-95037500D02*
X107130000Y-95037500D01*
X97840000Y-98010000D02*
X97840000Y-95050000D01*
X99300000Y-98010000D02*
X97840000Y-98010000D01*
X99300000Y-95050000D02*
X99300000Y-98010000D01*
X97840000Y-95050000D02*
X99300000Y-95050000D01*
X108660000Y-93652500D02*
X108660000Y-90692500D01*
X110120000Y-93652500D02*
X108660000Y-93652500D01*
X110120000Y-90692500D02*
X110120000Y-93652500D01*
X108660000Y-90692500D02*
X110120000Y-90692500D01*
D11*
X115388638Y-136662614D02*
X126979747Y-133556786D01*
X126979747Y-133556786D02*
X127497386Y-135488638D01*
X128671362Y-147597386D02*
X130603214Y-147079747D01*
X130603214Y-147079747D02*
X127497386Y-135488638D01*
X113974424Y-139112104D02*
X117080253Y-150703214D01*
X117080253Y-150703214D02*
X128671362Y-147597386D01*
X115388638Y-136662614D02*
X113456786Y-137180253D01*
X113456786Y-137180253D02*
X113974424Y-139112104D01*
X134673880Y-131752525D02*
X146411651Y-129257585D01*
X146411651Y-129257585D02*
X146827475Y-131213880D01*
X147366120Y-143367475D02*
X149322415Y-142951651D01*
X149322415Y-142951651D02*
X146827475Y-131213880D01*
X133133408Y-134124644D02*
X135628349Y-145862415D01*
X135628349Y-145862415D02*
X147366120Y-143367475D01*
X134673880Y-131752525D02*
X132717585Y-132168349D01*
X132717585Y-132168349D02*
X133133408Y-134124644D01*
X153880424Y-127844587D02*
X165698117Y-125760808D01*
X165698117Y-125760808D02*
X166045413Y-127730424D01*
X166159576Y-139895413D02*
X168129192Y-139548117D01*
X168129192Y-139548117D02*
X166045413Y-127730424D01*
X152258105Y-130161498D02*
X154341883Y-141979192D01*
X154341883Y-141979192D02*
X166159576Y-139895413D01*
X153880424Y-127844587D02*
X151910808Y-128191883D01*
X151910808Y-128191883D02*
X152258105Y-130161498D01*
X114088638Y-117332614D02*
X125679747Y-114226786D01*
X125679747Y-114226786D02*
X126197386Y-116158638D01*
X127371362Y-128267386D02*
X129303214Y-127749747D01*
X129303214Y-127749747D02*
X126197386Y-116158638D01*
X112674424Y-119782104D02*
X115780253Y-131373214D01*
X115780253Y-131373214D02*
X127371362Y-128267386D01*
X114088638Y-117332614D02*
X112156786Y-117850253D01*
X112156786Y-117850253D02*
X112674424Y-119782104D01*
X135577500Y-107925000D02*
X147577500Y-107925000D01*
X147577500Y-107925000D02*
X147577500Y-109925000D01*
X145577500Y-121925000D02*
X147577500Y-121925000D01*
X147577500Y-121925000D02*
X147577500Y-109925000D01*
X133577500Y-109925000D02*
X133577500Y-121925000D01*
X133577500Y-121925000D02*
X145577500Y-121925000D01*
X135577500Y-107925000D02*
X133577500Y-107925000D01*
X133577500Y-107925000D02*
X133577500Y-109925000D01*
X154627500Y-104750000D02*
X166627500Y-104750000D01*
X166627500Y-104750000D02*
X166627500Y-106750000D01*
X164627500Y-118750000D02*
X166627500Y-118750000D01*
X166627500Y-118750000D02*
X166627500Y-106750000D01*
X152627500Y-106750000D02*
X152627500Y-118750000D01*
X152627500Y-118750000D02*
X164627500Y-118750000D01*
X154627500Y-104750000D02*
X152627500Y-104750000D01*
X152627500Y-104750000D02*
X152627500Y-106750000D01*
X173677500Y-101575000D02*
X185677500Y-101575000D01*
X185677500Y-101575000D02*
X185677500Y-103575000D01*
X183677500Y-115575000D02*
X185677500Y-115575000D01*
X185677500Y-115575000D02*
X185677500Y-103575000D01*
X171677500Y-103575000D02*
X171677500Y-115575000D01*
X171677500Y-115575000D02*
X183677500Y-115575000D01*
X173677500Y-101575000D02*
X171677500Y-101575000D01*
X171677500Y-101575000D02*
X171677500Y-103575000D01*
X192727500Y-104750000D02*
X204727500Y-104750000D01*
X204727500Y-104750000D02*
X204727500Y-106750000D01*
X202727500Y-118750000D02*
X204727500Y-118750000D01*
X204727500Y-118750000D02*
X204727500Y-106750000D01*
X190727500Y-106750000D02*
X190727500Y-118750000D01*
X190727500Y-118750000D02*
X202727500Y-118750000D01*
X192727500Y-104750000D02*
X190727500Y-104750000D01*
X190727500Y-104750000D02*
X190727500Y-106750000D01*
X211777500Y-111100000D02*
X223777500Y-111100000D01*
X223777500Y-111100000D02*
X223777500Y-113100000D01*
X221777500Y-125100000D02*
X223777500Y-125100000D01*
X223777500Y-125100000D02*
X223777500Y-113100000D01*
X209777500Y-113100000D02*
X209777500Y-125100000D01*
X209777500Y-125100000D02*
X221777500Y-125100000D01*
X211777500Y-111100000D02*
X209777500Y-111100000D01*
X209777500Y-111100000D02*
X209777500Y-113100000D01*
X230827500Y-114275000D02*
X242827500Y-114275000D01*
X242827500Y-114275000D02*
X242827500Y-116275000D01*
X240827500Y-128275000D02*
X242827500Y-128275000D01*
X242827500Y-128275000D02*
X242827500Y-116275000D01*
X228827500Y-116275000D02*
X228827500Y-128275000D01*
X228827500Y-128275000D02*
X240827500Y-128275000D01*
X230827500Y-114275000D02*
X228827500Y-114275000D01*
X228827500Y-114275000D02*
X228827500Y-116275000D01*
X116527500Y-92050000D02*
X128527500Y-92050000D01*
X128527500Y-92050000D02*
X128527500Y-94050000D01*
X126527500Y-106050000D02*
X128527500Y-106050000D01*
X128527500Y-106050000D02*
X128527500Y-94050000D01*
X114527500Y-94050000D02*
X114527500Y-106050000D01*
X114527500Y-106050000D02*
X126527500Y-106050000D01*
X116527500Y-92050000D02*
X114527500Y-92050000D01*
X114527500Y-92050000D02*
X114527500Y-94050000D01*
X135577500Y-88875000D02*
X147577500Y-88875000D01*
X147577500Y-88875000D02*
X147577500Y-90875000D01*
X145577500Y-102875000D02*
X147577500Y-102875000D01*
X147577500Y-102875000D02*
X147577500Y-90875000D01*
X133577500Y-90875000D02*
X133577500Y-102875000D01*
X133577500Y-102875000D02*
X145577500Y-102875000D01*
X135577500Y-88875000D02*
X133577500Y-88875000D01*
X133577500Y-88875000D02*
X133577500Y-90875000D01*
X154627500Y-85700000D02*
X166627500Y-85700000D01*
X166627500Y-85700000D02*
X166627500Y-87700000D01*
X164627500Y-99700000D02*
X166627500Y-99700000D01*
X166627500Y-99700000D02*
X166627500Y-87700000D01*
X152627500Y-87700000D02*
X152627500Y-99700000D01*
X152627500Y-99700000D02*
X164627500Y-99700000D01*
X154627500Y-85700000D02*
X152627500Y-85700000D01*
X152627500Y-85700000D02*
X152627500Y-87700000D01*
X173677500Y-82525000D02*
X185677500Y-82525000D01*
X185677500Y-82525000D02*
X185677500Y-84525000D01*
X183677500Y-96525000D02*
X185677500Y-96525000D01*
X185677500Y-96525000D02*
X185677500Y-84525000D01*
X171677500Y-84525000D02*
X171677500Y-96525000D01*
X171677500Y-96525000D02*
X183677500Y-96525000D01*
X173677500Y-82525000D02*
X171677500Y-82525000D01*
X171677500Y-82525000D02*
X171677500Y-84525000D01*
X192727500Y-85700000D02*
X204727500Y-85700000D01*
X204727500Y-85700000D02*
X204727500Y-87700000D01*
X202727500Y-99700000D02*
X204727500Y-99700000D01*
X204727500Y-99700000D02*
X204727500Y-87700000D01*
X190727500Y-87700000D02*
X190727500Y-99700000D01*
X190727500Y-99700000D02*
X202727500Y-99700000D01*
X192727500Y-85700000D02*
X190727500Y-85700000D01*
X190727500Y-85700000D02*
X190727500Y-87700000D01*
X211777500Y-92050000D02*
X223777500Y-92050000D01*
X223777500Y-92050000D02*
X223777500Y-94050000D01*
X221777500Y-106050000D02*
X223777500Y-106050000D01*
X223777500Y-106050000D02*
X223777500Y-94050000D01*
X209777500Y-94050000D02*
X209777500Y-106050000D01*
X209777500Y-106050000D02*
X221777500Y-106050000D01*
X211777500Y-92050000D02*
X209777500Y-92050000D01*
X209777500Y-92050000D02*
X209777500Y-94050000D01*
X230827500Y-95225000D02*
X242827500Y-95225000D01*
X242827500Y-95225000D02*
X242827500Y-97225000D01*
X240827500Y-109225000D02*
X242827500Y-109225000D01*
X242827500Y-109225000D02*
X242827500Y-97225000D01*
X228827500Y-97225000D02*
X228827500Y-109225000D01*
X228827500Y-109225000D02*
X240827500Y-109225000D01*
X230827500Y-95225000D02*
X228827500Y-95225000D01*
X228827500Y-95225000D02*
X228827500Y-97225000D01*
X116527500Y-73000000D02*
X128527500Y-73000000D01*
X128527500Y-73000000D02*
X128527500Y-75000000D01*
X126527500Y-87000000D02*
X128527500Y-87000000D01*
X128527500Y-87000000D02*
X128527500Y-75000000D01*
X114527500Y-75000000D02*
X114527500Y-87000000D01*
X114527500Y-87000000D02*
X126527500Y-87000000D01*
X116527500Y-73000000D02*
X114527500Y-73000000D01*
X114527500Y-73000000D02*
X114527500Y-75000000D01*
X135577500Y-69825000D02*
X147577500Y-69825000D01*
X147577500Y-69825000D02*
X147577500Y-71825000D01*
X145577500Y-83825000D02*
X147577500Y-83825000D01*
X147577500Y-83825000D02*
X147577500Y-71825000D01*
X133577500Y-71825000D02*
X133577500Y-83825000D01*
X133577500Y-83825000D02*
X145577500Y-83825000D01*
X135577500Y-69825000D02*
X133577500Y-69825000D01*
X133577500Y-69825000D02*
X133577500Y-71825000D01*
X154627500Y-66650000D02*
X166627500Y-66650000D01*
X166627500Y-66650000D02*
X166627500Y-68650000D01*
X164627500Y-80650000D02*
X166627500Y-80650000D01*
X166627500Y-80650000D02*
X166627500Y-68650000D01*
X152627500Y-68650000D02*
X152627500Y-80650000D01*
X152627500Y-80650000D02*
X164627500Y-80650000D01*
X154627500Y-66650000D02*
X152627500Y-66650000D01*
X152627500Y-66650000D02*
X152627500Y-68650000D01*
X173677500Y-63475000D02*
X185677500Y-63475000D01*
X185677500Y-63475000D02*
X185677500Y-65475000D01*
X183677500Y-77475000D02*
X185677500Y-77475000D01*
X185677500Y-77475000D02*
X185677500Y-65475000D01*
X171677500Y-65475000D02*
X171677500Y-77475000D01*
X171677500Y-77475000D02*
X183677500Y-77475000D01*
X173677500Y-63475000D02*
X171677500Y-63475000D01*
X171677500Y-63475000D02*
X171677500Y-65475000D01*
X192727500Y-66650000D02*
X204727500Y-66650000D01*
X204727500Y-66650000D02*
X204727500Y-68650000D01*
X202727500Y-80650000D02*
X204727500Y-80650000D01*
X204727500Y-80650000D02*
X204727500Y-68650000D01*
X190727500Y-68650000D02*
X190727500Y-80650000D01*
X190727500Y-80650000D02*
X202727500Y-80650000D01*
X192727500Y-66650000D02*
X190727500Y-66650000D01*
X190727500Y-66650000D02*
X190727500Y-68650000D01*
X211777500Y-73000000D02*
X223777500Y-73000000D01*
X223777500Y-73000000D02*
X223777500Y-75000000D01*
X221777500Y-87000000D02*
X223777500Y-87000000D01*
X223777500Y-87000000D02*
X223777500Y-75000000D01*
X209777500Y-75000000D02*
X209777500Y-87000000D01*
X209777500Y-87000000D02*
X221777500Y-87000000D01*
X211777500Y-73000000D02*
X209777500Y-73000000D01*
X209777500Y-73000000D02*
X209777500Y-75000000D01*
X230827500Y-76175000D02*
X242827500Y-76175000D01*
X242827500Y-76175000D02*
X242827500Y-78175000D01*
X240827500Y-90175000D02*
X242827500Y-90175000D01*
X242827500Y-90175000D02*
X242827500Y-78175000D01*
X228827500Y-78175000D02*
X228827500Y-90175000D01*
X228827500Y-90175000D02*
X240827500Y-90175000D01*
X230827500Y-76175000D02*
X228827500Y-76175000D01*
X228827500Y-76175000D02*
X228827500Y-78175000D01*
X116527500Y-53950000D02*
X128527500Y-53950000D01*
X128527500Y-53950000D02*
X128527500Y-55950000D01*
X126527500Y-67950000D02*
X128527500Y-67950000D01*
X128527500Y-67950000D02*
X128527500Y-55950000D01*
X114527500Y-55950000D02*
X114527500Y-67950000D01*
X114527500Y-67950000D02*
X126527500Y-67950000D01*
X116527500Y-53950000D02*
X114527500Y-53950000D01*
X114527500Y-53950000D02*
X114527500Y-55950000D01*
X135577500Y-50775000D02*
X147577500Y-50775000D01*
X147577500Y-50775000D02*
X147577500Y-52775000D01*
X145577500Y-64775000D02*
X147577500Y-64775000D01*
X147577500Y-64775000D02*
X147577500Y-52775000D01*
X133577500Y-52775000D02*
X133577500Y-64775000D01*
X133577500Y-64775000D02*
X145577500Y-64775000D01*
X135577500Y-50775000D02*
X133577500Y-50775000D01*
X133577500Y-50775000D02*
X133577500Y-52775000D01*
X154627500Y-47600000D02*
X166627500Y-47600000D01*
X166627500Y-47600000D02*
X166627500Y-49600000D01*
X164627500Y-61600000D02*
X166627500Y-61600000D01*
X166627500Y-61600000D02*
X166627500Y-49600000D01*
X152627500Y-49600000D02*
X152627500Y-61600000D01*
X152627500Y-61600000D02*
X164627500Y-61600000D01*
X154627500Y-47600000D02*
X152627500Y-47600000D01*
X152627500Y-47600000D02*
X152627500Y-49600000D01*
X173677500Y-44425000D02*
X185677500Y-44425000D01*
X185677500Y-44425000D02*
X185677500Y-46425000D01*
X183677500Y-58425000D02*
X185677500Y-58425000D01*
X185677500Y-58425000D02*
X185677500Y-46425000D01*
X171677500Y-46425000D02*
X171677500Y-58425000D01*
X171677500Y-58425000D02*
X183677500Y-58425000D01*
X173677500Y-44425000D02*
X171677500Y-44425000D01*
X171677500Y-44425000D02*
X171677500Y-46425000D01*
X192727500Y-47600000D02*
X204727500Y-47600000D01*
X204727500Y-47600000D02*
X204727500Y-49600000D01*
X202727500Y-61600000D02*
X204727500Y-61600000D01*
X204727500Y-61600000D02*
X204727500Y-49600000D01*
X190727500Y-49600000D02*
X190727500Y-61600000D01*
X190727500Y-61600000D02*
X202727500Y-61600000D01*
X192727500Y-47600000D02*
X190727500Y-47600000D01*
X190727500Y-47600000D02*
X190727500Y-49600000D01*
X211777500Y-53950000D02*
X223777500Y-53950000D01*
X223777500Y-53950000D02*
X223777500Y-55950000D01*
X221777500Y-67950000D02*
X223777500Y-67950000D01*
X223777500Y-67950000D02*
X223777500Y-55950000D01*
X209777500Y-55950000D02*
X209777500Y-67950000D01*
X209777500Y-67950000D02*
X221777500Y-67950000D01*
X211777500Y-53950000D02*
X209777500Y-53950000D01*
X209777500Y-53950000D02*
X209777500Y-55950000D01*
X230827500Y-57125000D02*
X242827500Y-57125000D01*
X242827500Y-57125000D02*
X242827500Y-59125000D01*
X240827500Y-71125000D02*
X242827500Y-71125000D01*
X242827500Y-71125000D02*
X242827500Y-59125000D01*
X228827500Y-59125000D02*
X228827500Y-71125000D01*
X228827500Y-71125000D02*
X240827500Y-71125000D01*
X230827500Y-57125000D02*
X228827500Y-57125000D01*
X228827500Y-57125000D02*
X228827500Y-59125000D01*
D10*
X105682500Y-131625000D02*
X103382500Y-131625000D01*
X103382500Y-136325000D02*
X103382500Y-131625000D01*
X105682500Y-136325000D02*
X103382500Y-136325000D01*
X105682500Y-131625000D02*
X105682500Y-136325000D01*
X108063750Y-131625000D02*
X105763750Y-131625000D01*
X105763750Y-136325000D02*
X105763750Y-131625000D01*
X108063750Y-136325000D02*
X105763750Y-136325000D01*
X108063750Y-131625000D02*
X108063750Y-136325000D01*
X110445000Y-131625000D02*
X108145000Y-131625000D01*
X108145000Y-136325000D02*
X108145000Y-131625000D01*
X110445000Y-136325000D02*
X108145000Y-136325000D01*
X110445000Y-131625000D02*
X110445000Y-136325000D01*
X96157500Y-123687500D02*
X93857500Y-123687500D01*
X93857500Y-128387500D02*
X93857500Y-123687500D01*
X96157500Y-128387500D02*
X93857500Y-128387500D01*
X96157500Y-123687500D02*
X96157500Y-128387500D01*
X98538750Y-123687500D02*
X96238750Y-123687500D01*
X96238750Y-128387500D02*
X96238750Y-123687500D01*
X98538750Y-128387500D02*
X96238750Y-128387500D01*
X98538750Y-123687500D02*
X98538750Y-128387500D01*
X100920000Y-123687500D02*
X98620000Y-123687500D01*
X98620000Y-128387500D02*
X98620000Y-123687500D01*
X100920000Y-128387500D02*
X98620000Y-128387500D01*
X100920000Y-123687500D02*
X100920000Y-128387500D01*
X103301250Y-123687500D02*
X101001250Y-123687500D01*
X101001250Y-128387500D02*
X101001250Y-123687500D01*
X103301250Y-128387500D02*
X101001250Y-128387500D01*
X103301250Y-123687500D02*
X103301250Y-128387500D01*
X105682500Y-123687500D02*
X103382500Y-123687500D01*
X103382500Y-128387500D02*
X103382500Y-123687500D01*
X105682500Y-128387500D02*
X103382500Y-128387500D01*
X105682500Y-123687500D02*
X105682500Y-128387500D01*
X108063750Y-123687500D02*
X105763750Y-123687500D01*
X105763750Y-128387500D02*
X105763750Y-123687500D01*
X108063750Y-128387500D02*
X105763750Y-128387500D01*
X108063750Y-123687500D02*
X108063750Y-128387500D01*
X110445000Y-123687500D02*
X108145000Y-123687500D01*
X108145000Y-128387500D02*
X108145000Y-123687500D01*
X110445000Y-128387500D02*
X108145000Y-128387500D01*
X110445000Y-123687500D02*
X110445000Y-128387500D01*
X96157500Y-115750000D02*
X93857500Y-115750000D01*
X93857500Y-120450000D02*
X93857500Y-115750000D01*
X96157500Y-120450000D02*
X93857500Y-120450000D01*
X96157500Y-115750000D02*
X96157500Y-120450000D01*
X98538750Y-115750000D02*
X96238750Y-115750000D01*
X96238750Y-120450000D02*
X96238750Y-115750000D01*
X98538750Y-120450000D02*
X96238750Y-120450000D01*
X98538750Y-115750000D02*
X98538750Y-120450000D01*
X100920000Y-115750000D02*
X98620000Y-115750000D01*
X98620000Y-120450000D02*
X98620000Y-115750000D01*
X100920000Y-120450000D02*
X98620000Y-120450000D01*
X100920000Y-115750000D02*
X100920000Y-120450000D01*
X103301250Y-115750000D02*
X101001250Y-115750000D01*
X101001250Y-120450000D02*
X101001250Y-115750000D01*
X103301250Y-120450000D02*
X101001250Y-120450000D01*
X103301250Y-115750000D02*
X103301250Y-120450000D01*
X105682500Y-115750000D02*
X103382500Y-115750000D01*
X103382500Y-120450000D02*
X103382500Y-115750000D01*
X105682500Y-120450000D02*
X103382500Y-120450000D01*
X105682500Y-115750000D02*
X105682500Y-120450000D01*
X108063750Y-115750000D02*
X105763750Y-115750000D01*
X105763750Y-120450000D02*
X105763750Y-115750000D01*
X108063750Y-120450000D02*
X105763750Y-120450000D01*
X108063750Y-115750000D02*
X108063750Y-120450000D01*
X110445000Y-115750000D02*
X108145000Y-115750000D01*
X108145000Y-120450000D02*
X108145000Y-115750000D01*
X110445000Y-120450000D02*
X108145000Y-120450000D01*
X110445000Y-115750000D02*
X110445000Y-120450000D01*
X96157500Y-107812500D02*
X93857500Y-107812500D01*
X93857500Y-112512500D02*
X93857500Y-107812500D01*
X96157500Y-112512500D02*
X93857500Y-112512500D01*
X96157500Y-107812500D02*
X96157500Y-112512500D01*
X98538750Y-107812500D02*
X96238750Y-107812500D01*
X96238750Y-112512500D02*
X96238750Y-107812500D01*
X98538750Y-112512500D02*
X96238750Y-112512500D01*
X98538750Y-107812500D02*
X98538750Y-112512500D01*
X100920000Y-107812500D02*
X98620000Y-107812500D01*
X98620000Y-112512500D02*
X98620000Y-107812500D01*
X100920000Y-112512500D02*
X98620000Y-112512500D01*
X100920000Y-107812500D02*
X100920000Y-112512500D01*
X103301250Y-107812500D02*
X101001250Y-107812500D01*
X101001250Y-112512500D02*
X101001250Y-107812500D01*
X103301250Y-112512500D02*
X101001250Y-112512500D01*
X103301250Y-107812500D02*
X103301250Y-112512500D01*
X105682500Y-107812500D02*
X103382500Y-107812500D01*
X103382500Y-112512500D02*
X103382500Y-107812500D01*
X105682500Y-112512500D02*
X103382500Y-112512500D01*
X105682500Y-107812500D02*
X105682500Y-112512500D01*
X108063750Y-107812500D02*
X105763750Y-107812500D01*
X105763750Y-112512500D02*
X105763750Y-107812500D01*
X108063750Y-112512500D02*
X105763750Y-112512500D01*
X108063750Y-107812500D02*
X108063750Y-112512500D01*
X110445000Y-107812500D02*
X108145000Y-107812500D01*
X108145000Y-112512500D02*
X108145000Y-107812500D01*
X110445000Y-112512500D02*
X108145000Y-112512500D01*
X110445000Y-107812500D02*
X110445000Y-112512500D01*
X96157500Y-99875000D02*
X93857500Y-99875000D01*
X93857500Y-104575000D02*
X93857500Y-99875000D01*
X96157500Y-104575000D02*
X93857500Y-104575000D01*
X96157500Y-99875000D02*
X96157500Y-104575000D01*
X98538750Y-99875000D02*
X96238750Y-99875000D01*
X96238750Y-104575000D02*
X96238750Y-99875000D01*
X98538750Y-104575000D02*
X96238750Y-104575000D01*
X98538750Y-99875000D02*
X98538750Y-104575000D01*
X100920000Y-99875000D02*
X98620000Y-99875000D01*
X98620000Y-104575000D02*
X98620000Y-99875000D01*
X100920000Y-104575000D02*
X98620000Y-104575000D01*
X100920000Y-99875000D02*
X100920000Y-104575000D01*
X103301250Y-99875000D02*
X101001250Y-99875000D01*
X101001250Y-104575000D02*
X101001250Y-99875000D01*
X103301250Y-104575000D02*
X101001250Y-104575000D01*
X103301250Y-99875000D02*
X103301250Y-104575000D01*
X105682500Y-99875000D02*
X103382500Y-99875000D01*
X103382500Y-104575000D02*
X103382500Y-99875000D01*
X105682500Y-104575000D02*
X103382500Y-104575000D01*
X105682500Y-99875000D02*
X105682500Y-104575000D01*
X108063750Y-99875000D02*
X105763750Y-99875000D01*
X105763750Y-104575000D02*
X105763750Y-99875000D01*
X108063750Y-104575000D02*
X105763750Y-104575000D01*
X108063750Y-99875000D02*
X108063750Y-104575000D01*
X110445000Y-99875000D02*
X108145000Y-99875000D01*
X108145000Y-104575000D02*
X108145000Y-99875000D01*
X110445000Y-104575000D02*
X108145000Y-104575000D01*
X110445000Y-99875000D02*
X110445000Y-104575000D01*
X108950000Y-74170000D02*
X105450000Y-74170000D01*
X108950000Y-70770000D02*
X108950000Y-74170000D01*
X105450000Y-70770000D02*
X108950000Y-70770000D01*
X105450000Y-74170000D02*
X105450000Y-70770000D01*
X106131250Y-80406250D02*
X102981250Y-80406250D01*
X106131250Y-81806250D02*
X106131250Y-80406250D01*
X106731250Y-81806250D02*
X106131250Y-81806250D01*
X106731250Y-82406250D02*
X106731250Y-81806250D01*
X108131250Y-82406250D02*
X106731250Y-82406250D01*
X108131250Y-85556250D02*
X108131250Y-82406250D01*
X106131250Y-90706250D02*
X102981250Y-90706250D01*
X106131250Y-89306250D02*
X106131250Y-90706250D01*
X106731250Y-89306250D02*
X106131250Y-89306250D01*
X106731250Y-88706250D02*
X106731250Y-89306250D01*
X108131250Y-88706250D02*
X106731250Y-88706250D01*
X108131250Y-85556250D02*
X108131250Y-88706250D01*
X99831250Y-80406250D02*
X102981250Y-80406250D01*
X99831250Y-81806250D02*
X99831250Y-80406250D01*
X99231250Y-81806250D02*
X99831250Y-81806250D01*
X99231250Y-82406250D02*
X99231250Y-81806250D01*
X97831250Y-82406250D02*
X99231250Y-82406250D01*
X97831250Y-85556250D02*
X97831250Y-82406250D01*
X99831250Y-90706250D02*
X102981250Y-90706250D01*
X99831250Y-89306250D02*
X99831250Y-90706250D01*
X99231250Y-89306250D02*
X99831250Y-89306250D01*
X99231250Y-88706250D02*
X99231250Y-89306250D01*
X97831250Y-88706250D02*
X99231250Y-88706250D01*
X97831250Y-85556250D02*
X97831250Y-88706250D01*
X104650000Y-65630000D02*
X108250000Y-65630000D01*
X108250000Y-65630000D02*
X108250000Y-61830000D01*
X108250000Y-61830000D02*
X104650000Y-61830000D01*
X104650000Y-61830000D02*
X104650000Y-65630000D01*
M02*
