M48
; DRILL file {KiCad (5.1.4)-1} date 11/30/20 21:40:19
; FORMAT={-:-/ absolute / metric / decimal}
; #@! TF.CreationDate,2020-11-30T21:40:19+01:00
; #@! TF.GenerationSoftware,Kicad,Pcbnew,(5.1.4)-1
; #@! TF.FileFunction,Plated,1,2,PTH
FMAT,2
METRIC
T1C0.400
T2C0.600
T3C1.000
T4C1.470
T5C1.500
%
G90
G05
T1
X96.837Y-80.962
X96.837Y-88.106
X97.43Y-71.19
X98.32Y-81.24
X99.24Y-78.14
X100.294Y-92.362
X100.731Y-86.731
X103.35Y-72.87
X103.456Y-73.897
X103.956Y-74.768
X104.0Y-60.31
X104.29Y-84.63
X104.456Y-75.635
X104.73Y-87.86
X104.956Y-76.553
X105.41Y-84.68
X105.46Y-77.417
X105.705Y-132.325
X105.707Y-124.387
X105.71Y-116.45
X105.718Y-108.512
X105.725Y-100.575
X105.956Y-78.286
X106.446Y-60.56
X106.47Y-63.7
X106.51Y-94.16
X106.74Y-66.43
X107.156Y-92.075
X107.19Y-70.15
X108.555Y-86.298
X108.91Y-60.31
X109.197Y-85.531
X109.537Y-83.081
X110.065Y-85.031
X110.48Y-64.62
X110.962Y-84.531
X111.822Y-84.01
X117.16Y-68.69
X131.43Y-93.97
T3
X119.03Y-54.05
X119.03Y-68.55
X121.53Y-68.55
X124.03Y-54.05
X124.03Y-68.55
T4
X193.917Y-109.21
X200.267Y-106.67
X193.917Y-52.06
X200.267Y-49.52
X193.917Y-90.16
X200.267Y-87.62
X155.817Y-52.06
X162.167Y-49.52
X174.867Y-86.985
X181.218Y-84.445
X116.392Y-121.333
X121.869Y-117.236
X136.767Y-74.285
X143.118Y-71.745
X136.767Y-112.385
X143.118Y-109.845
X155.817Y-71.11
X162.167Y-68.57
X136.767Y-55.235
X143.118Y-52.695
X232.017Y-80.635
X238.367Y-78.095
X212.968Y-115.56
X219.317Y-113.02
X136.767Y-93.335
X143.118Y-90.795
X136.765Y-135.868
X142.448Y-132.063
X117.718Y-77.46
X124.067Y-74.92
X155.817Y-109.21
X162.167Y-106.67
X155.817Y-90.16
X162.167Y-87.62
X174.867Y-106.035
X181.218Y-103.495
X232.017Y-61.585
X238.367Y-59.045
X212.968Y-96.51
X219.317Y-93.97
X212.968Y-77.46
X219.317Y-74.92
X117.718Y-58.41
X124.067Y-55.87
X117.692Y-140.663
X123.169Y-136.566
X117.718Y-96.51
X124.067Y-93.97
X232.017Y-99.685
X238.367Y-97.145
X155.827Y-132.03
X161.639Y-128.426
X212.968Y-58.41
X219.317Y-55.87
X232.017Y-118.735
X238.367Y-116.195
X174.867Y-67.935
X181.218Y-65.395
X174.867Y-48.885
X181.218Y-46.345
X193.917Y-71.11
X200.267Y-68.57
T2
G00X92.95Y-54.63
M15
G01X92.95Y-55.23
M16
G05
G00X92.95Y-57.63
M15
G01X92.95Y-58.23
M16
G05
G00X92.95Y-61.63
M15
G01X92.95Y-62.23
M16
G05
G00X97.55Y-62.73
M15
G01X97.55Y-63.33
M16
G05
G00X102.126Y-52.737
M15
G01X102.126Y-52.137
M16
G05
G00X102.126Y-57.167
M15
G01X102.126Y-56.067
M16
G05
G00X110.766Y-52.737
M15
G01X110.766Y-52.137
M16
G05
G00X110.766Y-57.167
M15
G01X110.766Y-56.067
M16
G05
T5
G00X115.93Y-61.7
M15
G01X115.93Y-60.4
M16
G05
G00X127.13Y-61.7
M15
G01X127.13Y-60.4
M16
G05
T0
M30
